%TF.GenerationSoftware,KiCad,Pcbnew,(5.1.9)-1*%
%TF.CreationDate,2021-05-13T13:18:14-04:00*%
%TF.ProjectId,rnm-75E,726e6d2d-3735-4452-9e6b-696361645f70,rev?*%
%TF.SameCoordinates,Original*%
%TF.FileFunction,Paste,Bot*%
%TF.FilePolarity,Positive*%
%FSLAX46Y46*%
G04 Gerber Fmt 4.6, Leading zero omitted, Abs format (unit mm)*
G04 Created by KiCad (PCBNEW (5.1.9)-1) date 2021-05-13 13:18:14*
%MOMM*%
%LPD*%
G01*
G04 APERTURE LIST*
%ADD10C,0.100000*%
%ADD11R,1.500000X0.550000*%
%ADD12R,0.550000X1.500000*%
%ADD13R,1.800000X1.100000*%
%ADD14R,0.600000X1.450000*%
%ADD15R,0.300000X1.450000*%
%ADD16R,0.500000X1.850000*%
%ADD17R,1.400000X1.000000*%
%ADD18R,1.400000X1.200000*%
%ADD19R,1.500000X1.000000*%
%ADD20R,1.000000X1.500000*%
%ADD21R,1.200000X0.900000*%
%ADD22R,0.900000X1.200000*%
G04 APERTURE END LIST*
%TO.C,R2*%
G36*
G01*
X566337500Y-67812499D02*
X566337500Y-68712501D01*
G75*
G02*
X566087501Y-68962500I-249999J0D01*
G01*
X565562499Y-68962500D01*
G75*
G02*
X565312500Y-68712501I0J249999D01*
G01*
X565312500Y-67812499D01*
G75*
G02*
X565562499Y-67562500I249999J0D01*
G01*
X566087501Y-67562500D01*
G75*
G02*
X566337500Y-67812499I0J-249999D01*
G01*
G37*
G36*
G01*
X568162500Y-67812499D02*
X568162500Y-68712501D01*
G75*
G02*
X567912501Y-68962500I-249999J0D01*
G01*
X567387499Y-68962500D01*
G75*
G02*
X567137500Y-68712501I0J249999D01*
G01*
X567137500Y-67812499D01*
G75*
G02*
X567387499Y-67562500I249999J0D01*
G01*
X567912501Y-67562500D01*
G75*
G02*
X568162500Y-67812499I0J-249999D01*
G01*
G37*
%TD*%
%TO.C,C_FM1*%
G36*
G01*
X500837500Y-62705000D02*
X500837500Y-61755000D01*
G75*
G02*
X501087500Y-61505000I250000J0D01*
G01*
X501587500Y-61505000D01*
G75*
G02*
X501837500Y-61755000I0J-250000D01*
G01*
X501837500Y-62705000D01*
G75*
G02*
X501587500Y-62955000I-250000J0D01*
G01*
X501087500Y-62955000D01*
G75*
G02*
X500837500Y-62705000I0J250000D01*
G01*
G37*
G36*
G01*
X502737500Y-62705000D02*
X502737500Y-61755000D01*
G75*
G02*
X502987500Y-61505000I250000J0D01*
G01*
X503487500Y-61505000D01*
G75*
G02*
X503737500Y-61755000I0J-250000D01*
G01*
X503737500Y-62705000D01*
G75*
G02*
X503487500Y-62955000I-250000J0D01*
G01*
X502987500Y-62955000D01*
G75*
G02*
X502737500Y-62705000I0J250000D01*
G01*
G37*
%TD*%
D10*
%TO.C,Y1*%
G36*
X525379347Y-74859988D02*
G01*
X524530819Y-75708516D01*
X523540869Y-74718566D01*
X524389397Y-73870038D01*
X525379347Y-74859988D01*
G37*
G36*
X523823712Y-73304353D02*
G01*
X522975184Y-74152881D01*
X521985234Y-73162931D01*
X522833762Y-72314403D01*
X523823712Y-73304353D01*
G37*
G36*
X522621631Y-74506434D02*
G01*
X521773103Y-75354962D01*
X520783153Y-74365012D01*
X521631681Y-73516484D01*
X522621631Y-74506434D01*
G37*
G36*
X524177266Y-76062069D02*
G01*
X523328738Y-76910597D01*
X522338788Y-75920647D01*
X523187316Y-75072119D01*
X524177266Y-76062069D01*
G37*
%TD*%
D11*
%TO.C,U1*%
X500300000Y-69406250D03*
X500300000Y-70206250D03*
X500300000Y-71006250D03*
X500300000Y-71806250D03*
X500300000Y-72606250D03*
X500300000Y-73406250D03*
X500300000Y-74206250D03*
X500300000Y-75006250D03*
X500300000Y-75806250D03*
X500300000Y-76606250D03*
X500300000Y-77406250D03*
X500300000Y-78206250D03*
X500300000Y-79006250D03*
X500300000Y-79806250D03*
X500300000Y-80606250D03*
X500300000Y-81406250D03*
D12*
X502000000Y-83106250D03*
X502800000Y-83106250D03*
X503600000Y-83106250D03*
X504400000Y-83106250D03*
X505200000Y-83106250D03*
X506000000Y-83106250D03*
X506800000Y-83106250D03*
X507600000Y-83106250D03*
X508400000Y-83106250D03*
X509200000Y-83106250D03*
X510000000Y-83106250D03*
X510800000Y-83106250D03*
X511600000Y-83106250D03*
X512400000Y-83106250D03*
X513200000Y-83106250D03*
X514000000Y-83106250D03*
D11*
X515700000Y-81406250D03*
X515700000Y-80606250D03*
X515700000Y-79806250D03*
X515700000Y-79006250D03*
X515700000Y-78206250D03*
X515700000Y-77406250D03*
X515700000Y-76606250D03*
X515700000Y-75806250D03*
X515700000Y-75006250D03*
X515700000Y-74206250D03*
X515700000Y-73406250D03*
X515700000Y-72606250D03*
X515700000Y-71806250D03*
X515700000Y-71006250D03*
X515700000Y-70206250D03*
X515700000Y-69406250D03*
D12*
X514000000Y-67706250D03*
X513200000Y-67706250D03*
X512400000Y-67706250D03*
X511600000Y-67706250D03*
X510800000Y-67706250D03*
X510000000Y-67706250D03*
X509200000Y-67706250D03*
X508400000Y-67706250D03*
X507600000Y-67706250D03*
X506800000Y-67706250D03*
X506000000Y-67706250D03*
X505200000Y-67706250D03*
X504400000Y-67706250D03*
X503600000Y-67706250D03*
X502800000Y-67706250D03*
X502000000Y-67706250D03*
%TD*%
D13*
%TO.C,SW1*%
X582612500Y-65881250D03*
X588812500Y-69581250D03*
X582612500Y-69581250D03*
X588812500Y-65881250D03*
%TD*%
%TO.C,R_u2*%
G36*
G01*
X646506250Y11562501D02*
X646506250Y10662499D01*
G75*
G02*
X646256251Y10412500I-249999J0D01*
G01*
X645731249Y10412500D01*
G75*
G02*
X645481250Y10662499I0J249999D01*
G01*
X645481250Y11562501D01*
G75*
G02*
X645731249Y11812500I249999J0D01*
G01*
X646256251Y11812500D01*
G75*
G02*
X646506250Y11562501I0J-249999D01*
G01*
G37*
G36*
G01*
X648331250Y11562501D02*
X648331250Y10662499D01*
G75*
G02*
X648081251Y10412500I-249999J0D01*
G01*
X647556249Y10412500D01*
G75*
G02*
X647306250Y10662499I0J249999D01*
G01*
X647306250Y11562501D01*
G75*
G02*
X647556249Y11812500I249999J0D01*
G01*
X648081251Y11812500D01*
G75*
G02*
X648331250Y11562501I0J-249999D01*
G01*
G37*
%TD*%
%TO.C,R_u1*%
G36*
G01*
X636987500Y13043749D02*
X636987500Y13943751D01*
G75*
G02*
X637237499Y14193750I249999J0D01*
G01*
X637762501Y14193750D01*
G75*
G02*
X638012500Y13943751I0J-249999D01*
G01*
X638012500Y13043749D01*
G75*
G02*
X637762501Y12793750I-249999J0D01*
G01*
X637237499Y12793750D01*
G75*
G02*
X636987500Y13043749I0J249999D01*
G01*
G37*
G36*
G01*
X635162500Y13043749D02*
X635162500Y13943751D01*
G75*
G02*
X635412499Y14193750I249999J0D01*
G01*
X635937501Y14193750D01*
G75*
G02*
X636187500Y13943751I0J-249999D01*
G01*
X636187500Y13043749D01*
G75*
G02*
X635937501Y12793750I-249999J0D01*
G01*
X635412499Y12793750D01*
G75*
G02*
X635162500Y13043749I0J249999D01*
G01*
G37*
%TD*%
%TO.C,R_SW2*%
G36*
G01*
X533056251Y-87268750D02*
X532156249Y-87268750D01*
G75*
G02*
X531906250Y-87018751I0J249999D01*
G01*
X531906250Y-86493749D01*
G75*
G02*
X532156249Y-86243750I249999J0D01*
G01*
X533056251Y-86243750D01*
G75*
G02*
X533306250Y-86493749I0J-249999D01*
G01*
X533306250Y-87018751D01*
G75*
G02*
X533056251Y-87268750I-249999J0D01*
G01*
G37*
G36*
G01*
X533056251Y-85443750D02*
X532156249Y-85443750D01*
G75*
G02*
X531906250Y-85193751I0J249999D01*
G01*
X531906250Y-84668749D01*
G75*
G02*
X532156249Y-84418750I249999J0D01*
G01*
X533056251Y-84418750D01*
G75*
G02*
X533306250Y-84668749I0J-249999D01*
G01*
X533306250Y-85193751D01*
G75*
G02*
X533056251Y-85443750I-249999J0D01*
G01*
G37*
%TD*%
%TO.C,R_SW1*%
G36*
G01*
X579781249Y-67631250D02*
X580681251Y-67631250D01*
G75*
G02*
X580931250Y-67881249I0J-249999D01*
G01*
X580931250Y-68406251D01*
G75*
G02*
X580681251Y-68656250I-249999J0D01*
G01*
X579781249Y-68656250D01*
G75*
G02*
X579531250Y-68406251I0J249999D01*
G01*
X579531250Y-67881249D01*
G75*
G02*
X579781249Y-67631250I249999J0D01*
G01*
G37*
G36*
G01*
X579781249Y-69456250D02*
X580681251Y-69456250D01*
G75*
G02*
X580931250Y-69706249I0J-249999D01*
G01*
X580931250Y-70231251D01*
G75*
G02*
X580681251Y-70481250I-249999J0D01*
G01*
X579781249Y-70481250D01*
G75*
G02*
X579531250Y-70231251I0J249999D01*
G01*
X579531250Y-69706249D01*
G75*
G02*
X579781249Y-69456250I249999J0D01*
G01*
G37*
%TD*%
%TO.C,R_d2*%
G36*
G01*
X641006251Y15481250D02*
X640106249Y15481250D01*
G75*
G02*
X639856250Y15731249I0J249999D01*
G01*
X639856250Y16256251D01*
G75*
G02*
X640106249Y16506250I249999J0D01*
G01*
X641006251Y16506250D01*
G75*
G02*
X641256250Y16256251I0J-249999D01*
G01*
X641256250Y15731249D01*
G75*
G02*
X641006251Y15481250I-249999J0D01*
G01*
G37*
G36*
G01*
X641006251Y13656250D02*
X640106249Y13656250D01*
G75*
G02*
X639856250Y13906249I0J249999D01*
G01*
X639856250Y14431251D01*
G75*
G02*
X640106249Y14681250I249999J0D01*
G01*
X641006251Y14681250D01*
G75*
G02*
X641256250Y14431251I0J-249999D01*
G01*
X641256250Y13906249D01*
G75*
G02*
X641006251Y13656250I-249999J0D01*
G01*
G37*
%TD*%
%TO.C,R_d1*%
G36*
G01*
X643387501Y15481250D02*
X642487499Y15481250D01*
G75*
G02*
X642237500Y15731249I0J249999D01*
G01*
X642237500Y16256251D01*
G75*
G02*
X642487499Y16506250I249999J0D01*
G01*
X643387501Y16506250D01*
G75*
G02*
X643637500Y16256251I0J-249999D01*
G01*
X643637500Y15731249D01*
G75*
G02*
X643387501Y15481250I-249999J0D01*
G01*
G37*
G36*
G01*
X643387501Y13656250D02*
X642487499Y13656250D01*
G75*
G02*
X642237500Y13906249I0J249999D01*
G01*
X642237500Y14431251D01*
G75*
G02*
X642487499Y14681250I249999J0D01*
G01*
X643387501Y14681250D01*
G75*
G02*
X643637500Y14431251I0J-249999D01*
G01*
X643637500Y13906249D01*
G75*
G02*
X643387501Y13656250I-249999J0D01*
G01*
G37*
%TD*%
%TO.C,R1*%
G36*
G01*
X648943751Y21156250D02*
X648043749Y21156250D01*
G75*
G02*
X647793750Y21406249I0J249999D01*
G01*
X647793750Y21931251D01*
G75*
G02*
X648043749Y22181250I249999J0D01*
G01*
X648943751Y22181250D01*
G75*
G02*
X649193750Y21931251I0J-249999D01*
G01*
X649193750Y21406249D01*
G75*
G02*
X648943751Y21156250I-249999J0D01*
G01*
G37*
G36*
G01*
X648943751Y19331250D02*
X648043749Y19331250D01*
G75*
G02*
X647793750Y19581249I0J249999D01*
G01*
X647793750Y20106251D01*
G75*
G02*
X648043749Y20356250I249999J0D01*
G01*
X648943751Y20356250D01*
G75*
G02*
X649193750Y20106251I0J-249999D01*
G01*
X649193750Y19581249D01*
G75*
G02*
X648943751Y19331250I-249999J0D01*
G01*
G37*
%TD*%
D14*
%TO.C,J2*%
X645393750Y18973750D03*
X644593750Y18973750D03*
X639693750Y18973750D03*
X638893750Y18973750D03*
X638893750Y18973750D03*
X639693750Y18973750D03*
X644593750Y18973750D03*
X645393750Y18973750D03*
D15*
X640393750Y18973750D03*
X640893750Y18973750D03*
X641393750Y18973750D03*
X642393750Y18973750D03*
X642893750Y18973750D03*
X643393750Y18973750D03*
X643893750Y18973750D03*
X641893750Y18973750D03*
%TD*%
D16*
%TO.C,J1*%
X646700000Y2443750D03*
X646700000Y5493750D03*
X647700000Y2443750D03*
X647700000Y5493750D03*
X648700000Y2443750D03*
X648700000Y5493750D03*
%TD*%
%TO.C,F1*%
G36*
G01*
X634375000Y15250000D02*
X634375000Y16500000D01*
G75*
G02*
X634625000Y16750000I250000J0D01*
G01*
X635375000Y16750000D01*
G75*
G02*
X635625000Y16500000I0J-250000D01*
G01*
X635625000Y15250000D01*
G75*
G02*
X635375000Y15000000I-250000J0D01*
G01*
X634625000Y15000000D01*
G75*
G02*
X634375000Y15250000I0J250000D01*
G01*
G37*
G36*
G01*
X637175000Y15250000D02*
X637175000Y16500000D01*
G75*
G02*
X637425000Y16750000I250000J0D01*
G01*
X638175000Y16750000D01*
G75*
G02*
X638425000Y16500000I0J-250000D01*
G01*
X638425000Y15250000D01*
G75*
G02*
X638175000Y15000000I-250000J0D01*
G01*
X637425000Y15000000D01*
G75*
G02*
X637175000Y15250000I0J250000D01*
G01*
G37*
%TD*%
D17*
%TO.C,ESD1*%
X642756250Y8418750D03*
X642756250Y10318750D03*
X640556250Y10318750D03*
D18*
X640556250Y8598750D03*
%TD*%
D19*
%TO.C,D98*%
X347731250Y-68250000D03*
X347731250Y-71450000D03*
X342831250Y-68250000D03*
X342831250Y-71450000D03*
%TD*%
%TO.C,D97*%
X416740000Y-69240000D03*
X416740000Y-66040000D03*
X421640000Y-69240000D03*
X421640000Y-66040000D03*
%TD*%
%TO.C,D96*%
X473800000Y-69862500D03*
X473800000Y-66662500D03*
X478700000Y-69862500D03*
X478700000Y-66662500D03*
%TD*%
%TO.C,D95*%
X571431250Y-71450000D03*
X571431250Y-68250000D03*
X576331250Y-71450000D03*
X576331250Y-68250000D03*
%TD*%
D20*
%TO.C,D94*%
X632631250Y-72300000D03*
X629431250Y-72300000D03*
X632631250Y-67400000D03*
X629431250Y-67400000D03*
%TD*%
D19*
%TO.C,D93*%
X627380000Y5690000D03*
X627380000Y8890000D03*
X632280000Y5690000D03*
X632280000Y8890000D03*
%TD*%
%TO.C,D92*%
X576331250Y7950000D03*
X576331250Y4750000D03*
X571431250Y7950000D03*
X571431250Y4750000D03*
%TD*%
%TO.C,D91*%
X500131250Y7950000D03*
X500131250Y4750000D03*
X495231250Y7950000D03*
X495231250Y4750000D03*
%TD*%
%TO.C,D90*%
X418237500Y4750000D03*
X418237500Y7950000D03*
X423137500Y4750000D03*
X423137500Y7950000D03*
%TD*%
%TO.C,D89*%
X347800000Y7937500D03*
X347800000Y4737500D03*
X342900000Y7937500D03*
X342900000Y4737500D03*
%TD*%
D21*
%TO.C,D88*%
X648493750Y-58675000D03*
X648493750Y-55375000D03*
%TD*%
%TO.C,D87*%
X647700000Y-38100000D03*
X647700000Y-34800000D03*
%TD*%
%TO.C,D86*%
X648493750Y-20575000D03*
X648493750Y-23875000D03*
%TD*%
%TO.C,D85*%
X648493750Y-1525000D03*
X648493750Y-4825000D03*
%TD*%
%TO.C,D84*%
X346868750Y16000000D03*
X346868750Y12700000D03*
%TD*%
%TO.C,D83*%
X648493750Y-77725000D03*
X648493750Y-81025000D03*
%TD*%
%TO.C,D82*%
X629443750Y-77725000D03*
X629443750Y-81025000D03*
%TD*%
%TO.C,D81*%
X629412000Y-58675000D03*
X629412000Y-55375000D03*
%TD*%
%TO.C,D80*%
X615156250Y-36387500D03*
X615156250Y-33087500D03*
%TD*%
%TO.C,D79*%
X608806250Y-20575000D03*
X608806250Y-23875000D03*
%TD*%
%TO.C,D78*%
X619918750Y-1525000D03*
X619918750Y-4825000D03*
%TD*%
%TO.C,D77*%
X610393750Y-77725000D03*
X610393750Y-81025000D03*
%TD*%
%TO.C,D76*%
X610393750Y17525000D03*
X610393750Y14225000D03*
%TD*%
%TO.C,D75*%
X602996000Y-55500000D03*
X602996000Y-52200000D03*
%TD*%
%TO.C,D74*%
X600868750Y-20575000D03*
X600868750Y-23875000D03*
%TD*%
%TO.C,D73*%
X591343750Y-1525000D03*
X591343750Y-4825000D03*
%TD*%
%TO.C,D72*%
X591343750Y17525000D03*
X591343750Y14225000D03*
%TD*%
%TO.C,D71*%
X586581250Y-39812500D03*
X586581250Y-36512500D03*
%TD*%
%TO.C,D70*%
X581818750Y-20575000D03*
X581818750Y-23875000D03*
%TD*%
%TO.C,D69*%
X576580000Y-58675000D03*
X576580000Y-55375000D03*
%TD*%
%TO.C,D68*%
X572293750Y-1525000D03*
X572293750Y-4825000D03*
%TD*%
%TO.C,D67*%
X572293750Y17525000D03*
X572293750Y14225000D03*
%TD*%
%TO.C,D66*%
X590550000Y-74550000D03*
X590550000Y-77850000D03*
%TD*%
%TO.C,D65*%
X567531250Y-39625000D03*
X567531250Y-42925000D03*
%TD*%
%TO.C,D64*%
X562768750Y-20575000D03*
X562768750Y-23875000D03*
%TD*%
%TO.C,D63*%
X558006250Y-58675000D03*
X558006250Y-55375000D03*
%TD*%
%TO.C,D62*%
X553243750Y-1525000D03*
X553243750Y-4825000D03*
%TD*%
%TO.C,D61*%
X553243750Y17525000D03*
X553243750Y14225000D03*
%TD*%
D22*
%TO.C,D60*%
X572293750Y-82550000D03*
X568993750Y-82550000D03*
%TD*%
D21*
%TO.C,D59*%
X548481250Y-39625000D03*
X548481250Y-42925000D03*
%TD*%
%TO.C,D58*%
X543718750Y-20575000D03*
X543718750Y-23875000D03*
%TD*%
%TO.C,D57*%
X537368750Y-57212500D03*
X537368750Y-53912500D03*
%TD*%
%TO.C,D56*%
X534193750Y-1525000D03*
X534193750Y-4825000D03*
%TD*%
%TO.C,D55*%
X534193750Y17525000D03*
X534193750Y14225000D03*
%TD*%
%TO.C,D54*%
X529431250Y-39625000D03*
X529431250Y-42925000D03*
%TD*%
D22*
%TO.C,D53*%
X556481250Y-82550000D03*
X553181250Y-82550000D03*
%TD*%
D21*
%TO.C,D52*%
X524668750Y-20575000D03*
X524668750Y-23875000D03*
%TD*%
%TO.C,D51*%
X518795000Y-56005000D03*
X518795000Y-52705000D03*
%TD*%
%TO.C,D50*%
X515143750Y-1525000D03*
X515143750Y-4825000D03*
%TD*%
%TO.C,D49*%
X515143750Y17525000D03*
X515143750Y14225000D03*
%TD*%
%TO.C,D48*%
X510381250Y-39625000D03*
X510381250Y-42925000D03*
%TD*%
%TO.C,D47*%
X505618750Y-20575000D03*
X505618750Y-23875000D03*
%TD*%
%TO.C,D46*%
X499110000Y-56005000D03*
X499110000Y-52705000D03*
%TD*%
%TO.C,D45*%
X496093750Y-1525000D03*
X496093750Y-4825000D03*
%TD*%
%TO.C,D44*%
X496093750Y17525000D03*
X496093750Y14225000D03*
%TD*%
%TO.C,D43*%
X491331250Y-39625000D03*
X491331250Y-42925000D03*
%TD*%
%TO.C,D42*%
X486568750Y-20575000D03*
X486568750Y-23875000D03*
%TD*%
%TO.C,D41*%
X483393750Y-76325000D03*
X483393750Y-73025000D03*
%TD*%
%TO.C,D40*%
X481806250Y-58675000D03*
X481806250Y-61975000D03*
%TD*%
%TO.C,D39*%
X477043750Y-1525000D03*
X477043750Y-4825000D03*
%TD*%
%TO.C,D38*%
X477043750Y17525000D03*
X477043750Y14225000D03*
%TD*%
%TO.C,D37*%
X472281250Y-39625000D03*
X472281250Y-42925000D03*
%TD*%
%TO.C,D36*%
X467518750Y-20575000D03*
X467518750Y-23875000D03*
%TD*%
%TO.C,D35*%
X462756250Y-58675000D03*
X462756250Y-61975000D03*
%TD*%
%TO.C,D34*%
X457993750Y-1525000D03*
X457993750Y-4825000D03*
%TD*%
%TO.C,D33*%
X457993750Y17525000D03*
X457993750Y14225000D03*
%TD*%
%TO.C,D32*%
X453231250Y-39625000D03*
X453231250Y-42925000D03*
%TD*%
%TO.C,D31*%
X448468750Y-20575000D03*
X448468750Y-23875000D03*
%TD*%
%TO.C,D30*%
X443706250Y-58675000D03*
X443706250Y-61975000D03*
%TD*%
%TO.C,D29*%
X438943750Y-1525000D03*
X438943750Y-4825000D03*
%TD*%
%TO.C,D28*%
X438943750Y17525000D03*
X438943750Y14225000D03*
%TD*%
%TO.C,D27*%
X434181250Y-39625000D03*
X434181250Y-42925000D03*
%TD*%
%TO.C,D26*%
X429418750Y-20575000D03*
X429418750Y-23875000D03*
%TD*%
%TO.C,D25*%
X424656250Y-58675000D03*
X424656250Y-61975000D03*
%TD*%
%TO.C,D24*%
X419893750Y-1525000D03*
X419893750Y-4825000D03*
%TD*%
%TO.C,D23*%
X419893750Y17525000D03*
X419893750Y14225000D03*
%TD*%
%TO.C,D22*%
X415131250Y-39625000D03*
X415131250Y-42925000D03*
%TD*%
%TO.C,D21*%
X410368750Y-20575000D03*
X410368750Y-23875000D03*
%TD*%
%TO.C,D20*%
X415290000Y-77215000D03*
X415290000Y-73915000D03*
%TD*%
%TO.C,D19*%
X405606250Y-58675000D03*
X405606250Y-61975000D03*
%TD*%
%TO.C,D18*%
X400843750Y-1525000D03*
X400843750Y-4825000D03*
%TD*%
%TO.C,D17*%
X400843750Y17525000D03*
X400843750Y14225000D03*
%TD*%
%TO.C,D16*%
X396081250Y-39625000D03*
X396081250Y-42925000D03*
%TD*%
%TO.C,D15*%
X391318750Y-20575000D03*
X391318750Y-23875000D03*
%TD*%
D22*
%TO.C,D14*%
X393320000Y-74930000D03*
X396620000Y-74930000D03*
%TD*%
D21*
%TO.C,D13*%
X381793750Y-1525000D03*
X381793750Y-4825000D03*
%TD*%
%TO.C,D12*%
X381793750Y17525000D03*
X381793750Y14225000D03*
%TD*%
%TO.C,D11*%
X368300000Y-76960000D03*
X368300000Y-73660000D03*
%TD*%
%TO.C,D10*%
X374650000Y-58675000D03*
X374650000Y-61975000D03*
%TD*%
%TO.C,D9*%
X369887500Y-39625000D03*
X369887500Y-42925000D03*
%TD*%
%TO.C,D8*%
X367506250Y-20575000D03*
X367506250Y-23875000D03*
%TD*%
%TO.C,D7*%
X362743750Y-1525000D03*
X362743750Y-4825000D03*
%TD*%
%TO.C,D6*%
X362743750Y17525000D03*
X362743750Y14225000D03*
%TD*%
%TO.C,D5*%
X343535000Y-77725000D03*
X343535000Y-74425000D03*
%TD*%
%TO.C,D4*%
X343693750Y-58675000D03*
X343693750Y-61975000D03*
%TD*%
%TO.C,D3*%
X343693750Y-39625000D03*
X343693750Y-42925000D03*
%TD*%
%TO.C,D2*%
X343693750Y-20575000D03*
X343693750Y-23875000D03*
%TD*%
%TO.C,D1*%
X343693750Y-1525000D03*
X343693750Y-4825000D03*
%TD*%
%TO.C,CF3*%
G36*
G01*
X528931250Y-69531250D02*
X528931250Y-68581250D01*
G75*
G02*
X529181250Y-68331250I250000J0D01*
G01*
X529681250Y-68331250D01*
G75*
G02*
X529931250Y-68581250I0J-250000D01*
G01*
X529931250Y-69531250D01*
G75*
G02*
X529681250Y-69781250I-250000J0D01*
G01*
X529181250Y-69781250D01*
G75*
G02*
X528931250Y-69531250I0J250000D01*
G01*
G37*
G36*
G01*
X530831250Y-69531250D02*
X530831250Y-68581250D01*
G75*
G02*
X531081250Y-68331250I250000J0D01*
G01*
X531581250Y-68331250D01*
G75*
G02*
X531831250Y-68581250I0J-250000D01*
G01*
X531831250Y-69531250D01*
G75*
G02*
X531581250Y-69781250I-250000J0D01*
G01*
X531081250Y-69781250D01*
G75*
G02*
X530831250Y-69531250I0J250000D01*
G01*
G37*
%TD*%
%TO.C,C_X2*%
G36*
G01*
X520045927Y-71737322D02*
X520717678Y-72409073D01*
G75*
G02*
X520717678Y-72762627I-176777J-176777D01*
G01*
X520364125Y-73116180D01*
G75*
G02*
X520010571Y-73116180I-176777J176777D01*
G01*
X519338820Y-72444429D01*
G75*
G02*
X519338820Y-72090875I176777J176777D01*
G01*
X519692373Y-71737322D01*
G75*
G02*
X520045927Y-71737322I176777J-176777D01*
G01*
G37*
G36*
G01*
X521389429Y-70393820D02*
X522061180Y-71065571D01*
G75*
G02*
X522061180Y-71419125I-176777J-176777D01*
G01*
X521707627Y-71772678D01*
G75*
G02*
X521354073Y-71772678I-176777J176777D01*
G01*
X520682322Y-71100927D01*
G75*
G02*
X520682322Y-70747373I176777J176777D01*
G01*
X521035875Y-70393820D01*
G75*
G02*
X521389429Y-70393820I176777J-176777D01*
G01*
G37*
%TD*%
%TO.C,C_X1*%
G36*
G01*
X520717678Y-76815927D02*
X520045927Y-77487678D01*
G75*
G02*
X519692373Y-77487678I-176777J176777D01*
G01*
X519338820Y-77134125D01*
G75*
G02*
X519338820Y-76780571I176777J176777D01*
G01*
X520010571Y-76108820D01*
G75*
G02*
X520364125Y-76108820I176777J-176777D01*
G01*
X520717678Y-76462373D01*
G75*
G02*
X520717678Y-76815927I-176777J-176777D01*
G01*
G37*
G36*
G01*
X522061180Y-78159429D02*
X521389429Y-78831180D01*
G75*
G02*
X521035875Y-78831180I-176777J176777D01*
G01*
X520682322Y-78477627D01*
G75*
G02*
X520682322Y-78124073I176777J176777D01*
G01*
X521354073Y-77452322D01*
G75*
G02*
X521707627Y-77452322I176777J-176777D01*
G01*
X522061180Y-77805875D01*
G75*
G02*
X522061180Y-78159429I-176777J-176777D01*
G01*
G37*
%TD*%
%TO.C,C_ucap1*%
G36*
G01*
X524531250Y-63818750D02*
X524531250Y-64768750D01*
G75*
G02*
X524281250Y-65018750I-250000J0D01*
G01*
X523781250Y-65018750D01*
G75*
G02*
X523531250Y-64768750I0J250000D01*
G01*
X523531250Y-63818750D01*
G75*
G02*
X523781250Y-63568750I250000J0D01*
G01*
X524281250Y-63568750D01*
G75*
G02*
X524531250Y-63818750I0J-250000D01*
G01*
G37*
G36*
G01*
X522631250Y-63818750D02*
X522631250Y-64768750D01*
G75*
G02*
X522381250Y-65018750I-250000J0D01*
G01*
X521881250Y-65018750D01*
G75*
G02*
X521631250Y-64768750I0J250000D01*
G01*
X521631250Y-63818750D01*
G75*
G02*
X521881250Y-63568750I250000J0D01*
G01*
X522381250Y-63568750D01*
G75*
G02*
X522631250Y-63818750I0J-250000D01*
G01*
G37*
%TD*%
%TO.C,C_F4*%
G36*
G01*
X496730000Y-67130000D02*
X497680000Y-67130000D01*
G75*
G02*
X497930000Y-67380000I0J-250000D01*
G01*
X497930000Y-67880000D01*
G75*
G02*
X497680000Y-68130000I-250000J0D01*
G01*
X496730000Y-68130000D01*
G75*
G02*
X496480000Y-67880000I0J250000D01*
G01*
X496480000Y-67380000D01*
G75*
G02*
X496730000Y-67130000I250000J0D01*
G01*
G37*
G36*
G01*
X496730000Y-69030000D02*
X497680000Y-69030000D01*
G75*
G02*
X497930000Y-69280000I0J-250000D01*
G01*
X497930000Y-69780000D01*
G75*
G02*
X497680000Y-70030000I-250000J0D01*
G01*
X496730000Y-70030000D01*
G75*
G02*
X496480000Y-69780000I0J250000D01*
G01*
X496480000Y-69280000D01*
G75*
G02*
X496730000Y-69030000I250000J0D01*
G01*
G37*
%TD*%
%TO.C,C_F2*%
G36*
G01*
X496430000Y-82075000D02*
X496430000Y-83025000D01*
G75*
G02*
X496180000Y-83275000I-250000J0D01*
G01*
X495680000Y-83275000D01*
G75*
G02*
X495430000Y-83025000I0J250000D01*
G01*
X495430000Y-82075000D01*
G75*
G02*
X495680000Y-81825000I250000J0D01*
G01*
X496180000Y-81825000D01*
G75*
G02*
X496430000Y-82075000I0J-250000D01*
G01*
G37*
G36*
G01*
X494530000Y-82075000D02*
X494530000Y-83025000D01*
G75*
G02*
X494280000Y-83275000I-250000J0D01*
G01*
X493780000Y-83275000D01*
G75*
G02*
X493530000Y-83025000I0J250000D01*
G01*
X493530000Y-82075000D01*
G75*
G02*
X493780000Y-81825000I250000J0D01*
G01*
X494280000Y-81825000D01*
G75*
G02*
X494530000Y-82075000I0J-250000D01*
G01*
G37*
%TD*%
%TO.C,C_F1*%
G36*
G01*
X500837500Y-64768750D02*
X500837500Y-63818750D01*
G75*
G02*
X501087500Y-63568750I250000J0D01*
G01*
X501587500Y-63568750D01*
G75*
G02*
X501837500Y-63818750I0J-250000D01*
G01*
X501837500Y-64768750D01*
G75*
G02*
X501587500Y-65018750I-250000J0D01*
G01*
X501087500Y-65018750D01*
G75*
G02*
X500837500Y-64768750I0J250000D01*
G01*
G37*
G36*
G01*
X502737500Y-64768750D02*
X502737500Y-63818750D01*
G75*
G02*
X502987500Y-63568750I250000J0D01*
G01*
X503487500Y-63568750D01*
G75*
G02*
X503737500Y-63818750I0J-250000D01*
G01*
X503737500Y-64768750D01*
G75*
G02*
X503487500Y-65018750I-250000J0D01*
G01*
X502987500Y-65018750D01*
G75*
G02*
X502737500Y-64768750I0J250000D01*
G01*
G37*
%TD*%
M02*
