%TF.GenerationSoftware,KiCad,Pcbnew,(5.1.9)-1*%
%TF.CreationDate,2021-05-13T13:18:14-04:00*%
%TF.ProjectId,rnm-75E,726e6d2d-3735-4452-9e6b-696361645f70,rev?*%
%TF.SameCoordinates,Original*%
%TF.FileFunction,Copper,L1,Top*%
%TF.FilePolarity,Positive*%
%FSLAX46Y46*%
G04 Gerber Fmt 4.6, Leading zero omitted, Abs format (unit mm)*
G04 Created by KiCad (PCBNEW (5.1.9)-1) date 2021-05-13 13:18:14*
%MOMM*%
%LPD*%
G01*
G04 APERTURE LIST*
%TA.AperFunction,ComponentPad*%
%ADD10C,2.250000*%
%TD*%
%TA.AperFunction,ComponentPad*%
%ADD11C,1.800000*%
%TD*%
%TA.AperFunction,ComponentPad*%
%ADD12R,1.800000X1.800000*%
%TD*%
%TA.AperFunction,ComponentPad*%
%ADD13O,1.700000X1.700000*%
%TD*%
%TA.AperFunction,ComponentPad*%
%ADD14R,1.700000X1.700000*%
%TD*%
%TA.AperFunction,ComponentPad*%
%ADD15R,2.000000X2.000000*%
%TD*%
%TA.AperFunction,ComponentPad*%
%ADD16C,2.000000*%
%TD*%
%TA.AperFunction,ComponentPad*%
%ADD17R,3.000000X2.500000*%
%TD*%
%TA.AperFunction,ComponentPad*%
%ADD18O,1.000000X2.100000*%
%TD*%
%TA.AperFunction,ComponentPad*%
%ADD19O,1.000000X1.600000*%
%TD*%
%TA.AperFunction,ViaPad*%
%ADD20C,0.800000*%
%TD*%
%TA.AperFunction,Conductor*%
%ADD21C,0.254000*%
%TD*%
%TA.AperFunction,Conductor*%
%ADD22C,0.203200*%
%TD*%
%TA.AperFunction,Conductor*%
%ADD23C,0.381000*%
%TD*%
%TA.AperFunction,Conductor*%
%ADD24C,0.200000*%
%TD*%
G04 APERTURE END LIST*
D10*
%TO.P,MX83,2*%
%TO.N,Net-(D81-Pad2)*%
X624046250Y-55245000D03*
%TO.P,MX83,1*%
%TO.N,COL14*%
X617696250Y-57785000D03*
%TD*%
%TO.P,MX57,2*%
%TO.N,Net-(D57-Pad2)*%
X533558750Y-55245000D03*
%TO.P,MX57,1*%
%TO.N,COL9*%
X527208750Y-57785000D03*
%TD*%
D11*
%TO.P,CAPS_LOCK_LED2,2*%
%TO.N,LED_PIN*%
X647700000Y14128750D03*
D12*
%TO.P,CAPS_LOCK_LED2,1*%
%TO.N,Net-(CAPS_LOCK_LED1-Pad1)*%
X647700000Y16668750D03*
%TD*%
D11*
%TO.P,CAPS_LOCK_LED1,2*%
%TO.N,LED_PIN*%
X627062500Y23018750D03*
D12*
%TO.P,CAPS_LOCK_LED1,1*%
%TO.N,Net-(CAPS_LOCK_LED1-Pad1)*%
X629602500Y23018750D03*
%TD*%
D10*
%TO.P,MX93,2*%
%TO.N,Net-(D41-Pad2)*%
X471646250Y-74295000D03*
%TO.P,MX93,1*%
%TO.N,COL6*%
X465296250Y-76835000D03*
%TD*%
%TO.P,MX92,2*%
%TO.N,Net-(D14-Pad2)*%
X390683750Y-74295000D03*
%TO.P,MX92,1*%
%TO.N,COL2*%
X384333750Y-76835000D03*
%TD*%
%TO.P,MX91,2*%
%TO.N,Net-(D11-Pad2)*%
X362108750Y-74295000D03*
%TO.P,MX91,1*%
%TO.N,COL1*%
X355758750Y-76835000D03*
%TD*%
%TO.P,MX90,2*%
%TO.N,Net-(D9-Pad2)*%
X359727500Y-36195000D03*
%TO.P,MX90,1*%
%TO.N,COL1*%
X353377500Y-38735000D03*
%TD*%
%TO.P,MX85,2*%
%TO.N,Net-(D83-Pad2)*%
X643096250Y-74295000D03*
%TO.P,MX85,1*%
%TO.N,COL15*%
X636746250Y-76835000D03*
%TD*%
%TO.P,MX41,2*%
%TO.N,Net-(D41-Pad2)*%
X478790000Y-74295000D03*
%TO.P,MX41,1*%
%TO.N,COL6*%
X472440000Y-76835000D03*
%TD*%
D13*
%TO.P,J3,4*%
%TO.N,GND*%
X616743750Y12223750D03*
%TO.P,J3,3*%
%TO.N,+5V*%
X616743750Y14763750D03*
%TO.P,J3,2*%
%TO.N,SCL*%
X616743750Y17303750D03*
D14*
%TO.P,J3,1*%
%TO.N,SDA*%
X616743750Y19843750D03*
%TD*%
D10*
%TO.P,MX2,1*%
%TO.N,COL0*%
X331946250Y-19685000D03*
%TO.P,MX2,2*%
%TO.N,Net-(D2-Pad2)*%
X338296250Y-17145000D03*
%TD*%
%TO.P,MX4,2*%
%TO.N,Net-(D4-Pad2)*%
X338296250Y-55245000D03*
%TO.P,MX4,1*%
%TO.N,COL0*%
X331946250Y-57785000D03*
%TD*%
D15*
%TO.P,SW2,A*%
%TO.N,ENCODER+*%
X328612500Y17462500D03*
D16*
%TO.P,SW2,C*%
%TO.N,GND*%
X328612500Y14962500D03*
%TO.P,SW2,B*%
%TO.N,ENCODER-*%
X328612500Y12462500D03*
D17*
%TO.P,SW2,MP*%
%TO.N,N/C*%
X336112500Y20562500D03*
X336112500Y9362500D03*
D16*
%TO.P,SW2,S1*%
%TO.N,COL0*%
X343112500Y17462500D03*
%TO.P,SW2,S2*%
%TO.N,Net-(D84-Pad2)*%
X343112500Y12462500D03*
%TD*%
D10*
%TO.P,MX89,2*%
%TO.N,Net-(D88-Pad2)*%
X643096250Y-55245000D03*
%TO.P,MX89,1*%
%TO.N,COL15*%
X636746250Y-57785000D03*
%TD*%
%TO.P,MX88,2*%
%TO.N,Net-(D87-Pad2)*%
X643096250Y-36195000D03*
%TO.P,MX88,1*%
%TO.N,COL15*%
X636746250Y-38735000D03*
%TD*%
%TO.P,MX87,2*%
%TO.N,Net-(D86-Pad2)*%
X643096250Y-17145000D03*
%TO.P,MX87,1*%
%TO.N,COL15*%
X636746250Y-19685000D03*
%TD*%
%TO.P,MX86,2*%
%TO.N,Net-(D85-Pad2)*%
X643096250Y1905000D03*
%TO.P,MX86,1*%
%TO.N,COL15*%
X636746250Y-635000D03*
%TD*%
%TO.P,MX84,2*%
%TO.N,Net-(D82-Pad2)*%
X624046250Y-74295000D03*
%TO.P,MX84,1*%
%TO.N,COL14*%
X617696250Y-76835000D03*
%TD*%
%TO.P,MX82,2*%
%TO.N,Net-(D80-Pad2)*%
X612140000Y-36195000D03*
%TO.P,MX82,1*%
%TO.N,COL14*%
X605790000Y-38735000D03*
%TD*%
%TO.P,MX81,2*%
%TO.N,Net-(D79-Pad2)*%
X619283750Y-17145000D03*
%TO.P,MX81,1*%
%TO.N,COL14*%
X612933750Y-19685000D03*
%TD*%
%TO.P,MX80,2*%
%TO.N,Net-(D78-Pad2)*%
X614521250Y1905000D03*
%TO.P,MX80,1*%
%TO.N,COL14*%
X608171250Y-635000D03*
%TD*%
%TO.P,MX79,2*%
%TO.N,Net-(D77-Pad2)*%
X604996250Y-74295000D03*
%TO.P,MX79,1*%
%TO.N,COL12*%
X598646250Y-76835000D03*
%TD*%
%TO.P,MX78,2*%
%TO.N,Net-(D76-Pad2)*%
X604996250Y20955000D03*
%TO.P,MX78,1*%
%TO.N,COL14*%
X598646250Y18415000D03*
%TD*%
%TO.P,MX77,2*%
%TO.N,Net-(D75-Pad2)*%
X597852500Y-55245000D03*
%TO.P,MX77,1*%
%TO.N,COL12*%
X591502500Y-57785000D03*
%TD*%
%TO.P,MX76,2*%
%TO.N,Net-(D74-Pad2)*%
X595471250Y-17145000D03*
%TO.P,MX76,1*%
%TO.N,COL13*%
X589121250Y-19685000D03*
%TD*%
%TO.P,MX75,2*%
%TO.N,Net-(D73-Pad2)*%
X585946250Y1905000D03*
%TO.P,MX75,1*%
%TO.N,COL13*%
X579596250Y-635000D03*
%TD*%
%TO.P,MX74,2*%
%TO.N,Net-(D72-Pad2)*%
X585946250Y20955000D03*
%TO.P,MX74,1*%
%TO.N,COL13*%
X579596250Y18415000D03*
%TD*%
%TO.P,MX73,2*%
%TO.N,Net-(D71-Pad2)*%
X581183750Y-36195000D03*
%TO.P,MX73,1*%
%TO.N,COL12*%
X574833750Y-38735000D03*
%TD*%
%TO.P,MX72,2*%
%TO.N,Net-(D70-Pad2)*%
X576421250Y-17145000D03*
%TO.P,MX72,1*%
%TO.N,COL12*%
X570071250Y-19685000D03*
%TD*%
%TO.P,MX71,2*%
%TO.N,Net-(D66-Pad2)*%
X581183750Y-74295000D03*
%TO.P,MX71,1*%
%TO.N,COL11*%
X574833750Y-76835000D03*
%TD*%
%TO.P,MX70,2*%
%TO.N,Net-(D66-Pad2)*%
X585946250Y-74295000D03*
%TO.P,MX70,1*%
%TO.N,COL11*%
X579596250Y-76835000D03*
%TD*%
%TO.P,MX69,2*%
%TO.N,Net-(D69-Pad2)*%
X571658750Y-55245000D03*
%TO.P,MX69,1*%
%TO.N,COL11*%
X565308750Y-57785000D03*
%TD*%
%TO.P,MX68,2*%
%TO.N,Net-(D68-Pad2)*%
X566896250Y1905000D03*
%TO.P,MX68,1*%
%TO.N,COL12*%
X560546250Y-635000D03*
%TD*%
%TO.P,MX67,2*%
%TO.N,Net-(D67-Pad2)*%
X566896250Y20955000D03*
%TO.P,MX67,1*%
%TO.N,COL12*%
X560546250Y18415000D03*
%TD*%
%TO.P,MX66,2*%
%TO.N,Net-(D65-Pad2)*%
X562133750Y-36195000D03*
%TO.P,MX66,1*%
%TO.N,COL11*%
X555783750Y-38735000D03*
%TD*%
%TO.P,MX65,2*%
%TO.N,Net-(D64-Pad2)*%
X557371250Y-17145000D03*
%TO.P,MX65,1*%
%TO.N,COL11*%
X551021250Y-19685000D03*
%TD*%
%TO.P,MX64,2*%
%TO.N,Net-(D53-Pad2)*%
X552608750Y-74295000D03*
%TO.P,MX64,1*%
%TO.N,COL9*%
X546258750Y-76835000D03*
%TD*%
%TO.P,MX63,2*%
%TO.N,Net-(D60-Pad2)*%
X566896250Y-74295000D03*
%TO.P,MX63,1*%
%TO.N,COL10*%
X560546250Y-76835000D03*
%TD*%
%TO.P,MX62,2*%
%TO.N,Net-(D63-Pad2)*%
X552608750Y-55245000D03*
%TO.P,MX62,1*%
%TO.N,COL10*%
X546258750Y-57785000D03*
%TD*%
%TO.P,MX61,2*%
%TO.N,Net-(D62-Pad2)*%
X547846250Y1905000D03*
%TO.P,MX61,1*%
%TO.N,COL11*%
X541496250Y-635000D03*
%TD*%
%TO.P,MX60,2*%
%TO.N,Net-(D61-Pad2)*%
X547846250Y20955000D03*
%TO.P,MX60,1*%
%TO.N,COL11*%
X541496250Y18415000D03*
%TD*%
%TO.P,MX59,2*%
%TO.N,Net-(D59-Pad2)*%
X543083750Y-36195000D03*
%TO.P,MX59,1*%
%TO.N,COL10*%
X536733750Y-38735000D03*
%TD*%
%TO.P,MX58,2*%
%TO.N,Net-(D58-Pad2)*%
X538321250Y-17145000D03*
%TO.P,MX58,1*%
%TO.N,COL10*%
X531971250Y-19685000D03*
%TD*%
%TO.P,MX56,2*%
%TO.N,Net-(D56-Pad2)*%
X528796250Y1905000D03*
%TO.P,MX56,1*%
%TO.N,COL10*%
X522446250Y-635000D03*
%TD*%
%TO.P,MX55,2*%
%TO.N,Net-(D55-Pad2)*%
X528796250Y20955000D03*
%TO.P,MX55,1*%
%TO.N,COL10*%
X522446250Y18415000D03*
%TD*%
%TO.P,MX54,2*%
%TO.N,Net-(D54-Pad2)*%
X524033750Y-36195000D03*
%TO.P,MX54,1*%
%TO.N,COL9*%
X517683750Y-38735000D03*
%TD*%
%TO.P,MX53,2*%
%TO.N,Net-(D53-Pad2)*%
X547846250Y-74295000D03*
%TO.P,MX53,1*%
%TO.N,COL9*%
X541496250Y-76835000D03*
%TD*%
%TO.P,MX52,2*%
%TO.N,Net-(D52-Pad2)*%
X519271250Y-17145000D03*
%TO.P,MX52,1*%
%TO.N,COL9*%
X512921250Y-19685000D03*
%TD*%
%TO.P,MX51,2*%
%TO.N,Net-(D51-Pad2)*%
X514508750Y-55245000D03*
%TO.P,MX51,1*%
%TO.N,COL8*%
X508158750Y-57785000D03*
%TD*%
%TO.P,MX50,2*%
%TO.N,Net-(D50-Pad2)*%
X509746250Y1905000D03*
%TO.P,MX50,1*%
%TO.N,COL9*%
X503396250Y-635000D03*
%TD*%
%TO.P,MX49,2*%
%TO.N,Net-(D49-Pad2)*%
X509746250Y20955000D03*
%TO.P,MX49,1*%
%TO.N,COL9*%
X503396250Y18415000D03*
%TD*%
%TO.P,MX48,2*%
%TO.N,Net-(D48-Pad2)*%
X504983750Y-36195000D03*
%TO.P,MX48,1*%
%TO.N,COL8*%
X498633750Y-38735000D03*
%TD*%
%TO.P,MX47,2*%
%TO.N,Net-(D47-Pad2)*%
X500221250Y-17145000D03*
%TO.P,MX47,1*%
%TO.N,COL8*%
X493871250Y-19685000D03*
%TD*%
%TO.P,MX46,2*%
%TO.N,Net-(D46-Pad2)*%
X495458750Y-55245000D03*
%TO.P,MX46,1*%
%TO.N,COL7*%
X489108750Y-57785000D03*
%TD*%
%TO.P,MX45,2*%
%TO.N,Net-(D45-Pad2)*%
X490696250Y1905000D03*
%TO.P,MX45,1*%
%TO.N,COL8*%
X484346250Y-635000D03*
%TD*%
%TO.P,MX44,2*%
%TO.N,Net-(D44-Pad2)*%
X490696250Y20955000D03*
%TO.P,MX44,1*%
%TO.N,COL8*%
X484346250Y18415000D03*
%TD*%
%TO.P,MX43,2*%
%TO.N,Net-(D43-Pad2)*%
X485933750Y-36195000D03*
%TO.P,MX43,1*%
%TO.N,COL7*%
X479583750Y-38735000D03*
%TD*%
%TO.P,MX42,2*%
%TO.N,Net-(D42-Pad2)*%
X481171250Y-17145000D03*
%TO.P,MX42,1*%
%TO.N,COL7*%
X474821250Y-19685000D03*
%TD*%
%TO.P,MX40,2*%
%TO.N,Net-(D40-Pad2)*%
X476408750Y-55245000D03*
%TO.P,MX40,1*%
%TO.N,COL6*%
X470058750Y-57785000D03*
%TD*%
%TO.P,MX39,2*%
%TO.N,Net-(D39-Pad2)*%
X471646250Y1905000D03*
%TO.P,MX39,1*%
%TO.N,COL7*%
X465296250Y-635000D03*
%TD*%
%TO.P,MX38,2*%
%TO.N,Net-(D38-Pad2)*%
X471646250Y20955000D03*
%TO.P,MX38,1*%
%TO.N,COL7*%
X465296250Y18415000D03*
%TD*%
%TO.P,MX37,2*%
%TO.N,Net-(D37-Pad2)*%
X466883750Y-36195000D03*
%TO.P,MX37,1*%
%TO.N,COL6*%
X460533750Y-38735000D03*
%TD*%
%TO.P,MX36,2*%
%TO.N,Net-(D36-Pad2)*%
X462121250Y-17145000D03*
%TO.P,MX36,1*%
%TO.N,COL6*%
X455771250Y-19685000D03*
%TD*%
%TO.P,MX35,2*%
%TO.N,Net-(D35-Pad2)*%
X457358750Y-55245000D03*
%TO.P,MX35,1*%
%TO.N,COL5*%
X451008750Y-57785000D03*
%TD*%
%TO.P,MX34,2*%
%TO.N,Net-(D34-Pad2)*%
X452596250Y1905000D03*
%TO.P,MX34,1*%
%TO.N,COL6*%
X446246250Y-635000D03*
%TD*%
%TO.P,MX33,2*%
%TO.N,Net-(D33-Pad2)*%
X452596250Y20955000D03*
%TO.P,MX33,1*%
%TO.N,COL6*%
X446246250Y18415000D03*
%TD*%
%TO.P,MX32,2*%
%TO.N,Net-(D32-Pad2)*%
X447833750Y-36195000D03*
%TO.P,MX32,1*%
%TO.N,COL5*%
X441483750Y-38735000D03*
%TD*%
%TO.P,MX31,2*%
%TO.N,Net-(D31-Pad2)*%
X443071250Y-17145000D03*
%TO.P,MX31,1*%
%TO.N,COL5*%
X436721250Y-19685000D03*
%TD*%
%TO.P,MX30,2*%
%TO.N,Net-(D30-Pad2)*%
X438308750Y-55245000D03*
%TO.P,MX30,1*%
%TO.N,COL4*%
X431958750Y-57785000D03*
%TD*%
%TO.P,MX29,2*%
%TO.N,Net-(D29-Pad2)*%
X433546250Y1905000D03*
%TO.P,MX29,1*%
%TO.N,COL5*%
X427196250Y-635000D03*
%TD*%
%TO.P,MX28,2*%
%TO.N,Net-(D28-Pad2)*%
X433546250Y20955000D03*
%TO.P,MX28,1*%
%TO.N,COL5*%
X427196250Y18415000D03*
%TD*%
%TO.P,MX27,2*%
%TO.N,Net-(D27-Pad2)*%
X428783750Y-36195000D03*
%TO.P,MX27,1*%
%TO.N,COL4*%
X422433750Y-38735000D03*
%TD*%
%TO.P,MX26,2*%
%TO.N,Net-(D26-Pad2)*%
X424021250Y-17145000D03*
%TO.P,MX26,1*%
%TO.N,COL4*%
X417671250Y-19685000D03*
%TD*%
%TO.P,MX25,2*%
%TO.N,Net-(D25-Pad2)*%
X419258750Y-55245000D03*
%TO.P,MX25,1*%
%TO.N,COL3*%
X412908750Y-57785000D03*
%TD*%
%TO.P,MX24,2*%
%TO.N,Net-(D24-Pad2)*%
X414496250Y1905000D03*
%TO.P,MX24,1*%
%TO.N,COL4*%
X408146250Y-635000D03*
%TD*%
%TO.P,MX23,2*%
%TO.N,Net-(D23-Pad2)*%
X414496250Y20955000D03*
%TO.P,MX23,1*%
%TO.N,COL4*%
X408146250Y18415000D03*
%TD*%
%TO.P,MX22,2*%
%TO.N,Net-(D22-Pad2)*%
X409733750Y-36195000D03*
%TO.P,MX22,1*%
%TO.N,COL3*%
X403383750Y-38735000D03*
%TD*%
%TO.P,MX21,2*%
%TO.N,Net-(D21-Pad2)*%
X404971250Y-17145000D03*
%TO.P,MX21,1*%
%TO.N,COL3*%
X398621250Y-19685000D03*
%TD*%
%TO.P,MX20,2*%
%TO.N,Net-(D20-Pad2)*%
X407352500Y-74295000D03*
%TO.P,MX20,1*%
%TO.N,COL3*%
X401002500Y-76835000D03*
%TD*%
%TO.P,MX19,2*%
%TO.N,Net-(D19-Pad2)*%
X400208750Y-55245000D03*
%TO.P,MX19,1*%
%TO.N,COL2*%
X393858750Y-57785000D03*
%TD*%
%TO.P,MX18,2*%
%TO.N,Net-(D18-Pad2)*%
X395446250Y1905000D03*
%TO.P,MX18,1*%
%TO.N,COL3*%
X389096250Y-635000D03*
%TD*%
%TO.P,MX17,2*%
%TO.N,Net-(D17-Pad2)*%
X395446250Y20955000D03*
%TO.P,MX17,1*%
%TO.N,COL3*%
X389096250Y18415000D03*
%TD*%
%TO.P,MX16,2*%
%TO.N,Net-(D16-Pad2)*%
X390683750Y-36195000D03*
%TO.P,MX16,1*%
%TO.N,COL2*%
X384333750Y-38735000D03*
%TD*%
%TO.P,MX15,2*%
%TO.N,Net-(D15-Pad2)*%
X385921250Y-17145000D03*
%TO.P,MX15,1*%
%TO.N,COL2*%
X379571250Y-19685000D03*
%TD*%
%TO.P,MX14,2*%
%TO.N,Net-(D14-Pad2)*%
X383540000Y-74295000D03*
%TO.P,MX14,1*%
%TO.N,COL2*%
X377190000Y-76835000D03*
%TD*%
%TO.P,MX13,2*%
%TO.N,Net-(D13-Pad2)*%
X376396250Y1905000D03*
%TO.P,MX13,1*%
%TO.N,COL2*%
X370046250Y-635000D03*
%TD*%
%TO.P,MX12,2*%
%TO.N,Net-(D12-Pad2)*%
X376396250Y20955000D03*
%TO.P,MX12,1*%
%TO.N,COL2*%
X370046250Y18415000D03*
%TD*%
%TO.P,MX11,2*%
%TO.N,Net-(D11-Pad2)*%
X359727500Y-74295000D03*
%TO.P,MX11,1*%
%TO.N,COL1*%
X353377500Y-76835000D03*
%TD*%
%TO.P,MX10,2*%
%TO.N,Net-(D10-Pad2)*%
X369252500Y-55245000D03*
%TO.P,MX10,1*%
%TO.N,COL1*%
X362902500Y-57785000D03*
%TD*%
%TO.P,MX9,2*%
%TO.N,Net-(D9-Pad2)*%
X364490000Y-36195000D03*
%TO.P,MX9,1*%
%TO.N,COL1*%
X358140000Y-38735000D03*
%TD*%
%TO.P,MX8,2*%
%TO.N,Net-(D8-Pad2)*%
X362108750Y-17145000D03*
%TO.P,MX8,1*%
%TO.N,COL1*%
X355758750Y-19685000D03*
%TD*%
%TO.P,MX7,2*%
%TO.N,Net-(D7-Pad2)*%
X357346250Y1905000D03*
%TO.P,MX7,1*%
%TO.N,COL1*%
X350996250Y-635000D03*
%TD*%
%TO.P,MX6,2*%
%TO.N,Net-(D6-Pad2)*%
X357346250Y20955000D03*
%TO.P,MX6,1*%
%TO.N,COL1*%
X350996250Y18415000D03*
%TD*%
%TO.P,MX5,2*%
%TO.N,Net-(D5-Pad2)*%
X338296250Y-74295000D03*
%TO.P,MX5,1*%
%TO.N,COL0*%
X331946250Y-76835000D03*
%TD*%
%TO.P,MX3,2*%
%TO.N,Net-(D3-Pad2)*%
X338296250Y-36195000D03*
%TO.P,MX3,1*%
%TO.N,COL0*%
X331946250Y-38735000D03*
%TD*%
%TO.P,MX1,1*%
%TO.N,COL0*%
X331946250Y-635000D03*
%TO.P,MX1,2*%
%TO.N,Net-(D1-Pad2)*%
X338296250Y1905000D03*
%TD*%
D18*
%TO.P,J2,S1*%
%TO.N,GND*%
X646463750Y19888750D03*
X637823750Y19888750D03*
D19*
X637823750Y24068750D03*
X646463750Y24068750D03*
%TD*%
D20*
%TO.N,COL9*%
X516634069Y-67930934D03*
%TO.N,VCC*%
X645252000Y12700000D03*
%TO.N,ROWB*%
X461168750Y-7937500D03*
X488950000Y-70850003D03*
X624840000Y-6350000D03*
%TO.N,ROWC*%
X624840000Y-25400000D03*
X469900000Y-27781250D03*
X488950000Y-71850006D03*
%TO.N,ROWD*%
X624840000Y-31750000D03*
X477043750Y-46831250D03*
X488950000Y-72850009D03*
%TO.N,ROWE*%
X523875000Y-52705000D03*
X528955000Y-52705000D03*
X544576000Y-53340000D03*
X479425000Y-53181250D03*
X488950000Y-73850012D03*
%TO.N,ROWF*%
X526256250Y-50800000D03*
X555625000Y-76993750D03*
%TO.N,ROWA*%
X461168750Y10318750D03*
X488950000Y-69850000D03*
%TO.N,COL4*%
X428625000Y-82550000D03*
%TO.N,COL5*%
X447675000Y-82550000D03*
%TO.N,COL7*%
X466725000Y-69056250D03*
X466725000Y-73818750D03*
%TO.N,COL8*%
X515620000Y-67945000D03*
%TO.N,COL10*%
X517525000Y-68657934D03*
%TO.N,COL11*%
X529590000Y-78740000D03*
%TO.N,COL12*%
X529586758Y-79764892D03*
%TO.N,COL13*%
X529579260Y-80785529D03*
%TO.N,COL14*%
X529600975Y-81785295D03*
%TO.N,COL15*%
X529586625Y-82785194D03*
%TO.N,SCL*%
X531018750Y-73818750D03*
%TO.N,SDA*%
X530225000Y-74612500D03*
%TO.N,+5V*%
X635000000Y19843750D03*
X644525000Y9525000D03*
X495300000Y-81280000D03*
X527685000Y-74295000D03*
X498475000Y-65881250D03*
%TO.N,ENCODER+*%
X489743750Y-82025000D03*
%TO.N,ENCODER-*%
X489743750Y-83075000D03*
%TO.N,GND*%
X543718750Y-72231250D03*
X540543750Y-70643750D03*
X506730000Y-64770000D03*
X506730000Y-62381001D03*
X496478000Y-78855815D03*
X483870000Y-71120000D03*
%TO.N,VCC*%
X648509739Y8728438D03*
%TO.N,MOSI*%
X648493750Y7143750D03*
X642937500Y6350000D03*
%TO.N,LED_PIN*%
X509488386Y-66026447D03*
%TO.N,ROWB*%
X632618750Y-6350000D03*
%TO.N,ROWC*%
X632618750Y-25400000D03*
%TO.N,ROWD*%
X632618750Y-31750000D03*
%TO.N,ROWE*%
X554831250Y-53975000D03*
%TO.N,+5V*%
X471170000Y-66040000D03*
X468312500Y-65881250D03*
X489743750Y-64293750D03*
X561975000Y-68262500D03*
X563562500Y-64293750D03*
X508137744Y-66177744D03*
X515620000Y-62230000D03*
%TO.N,Net-(D93-Pad4)*%
X633730000Y-54610000D03*
X624840000Y8890000D03*
%TD*%
D21*
%TO.N,COL0*%
X331946250Y-2666038D02*
X331946250Y-19685000D01*
X331946250Y-41783962D02*
X331946250Y-76835000D01*
X331946250Y-19685000D02*
X331946250Y-41783962D01*
%TO.N,COL1*%
X350996250Y18415000D02*
X350996250Y-635000D01*
X350996250Y-14922500D02*
X355758750Y-19685000D01*
X350996250Y-635000D02*
X350996250Y-14922500D01*
X358140000Y-53022500D02*
X362902500Y-57785000D01*
X362902500Y-57785000D02*
X362902500Y-68897500D01*
X362902500Y-68897500D02*
X359568750Y-72231250D01*
X353377500Y-73660000D02*
X353377500Y-76835000D01*
X354806250Y-72231250D02*
X353377500Y-73660000D01*
X355758750Y-36353750D02*
X353377500Y-38735000D01*
X355758750Y-19685000D02*
X355758750Y-36353750D01*
X353377500Y-38735000D02*
X358140000Y-38735000D01*
X353377500Y-48260000D02*
X362902500Y-57785000D01*
X353377500Y-38735000D02*
X353377500Y-48260000D01*
X355758750Y-72866250D02*
X356393750Y-72231250D01*
X355758750Y-76835000D02*
X355758750Y-72866250D01*
X356393750Y-72231250D02*
X354806250Y-72231250D01*
X359568750Y-72231250D02*
X356393750Y-72231250D01*
%TO.N,COL2*%
X370046250Y18415000D02*
X370046250Y-635000D01*
X384333750Y-38735000D02*
X384333750Y-48260000D01*
X387350000Y-66675000D02*
X377190000Y-76835000D01*
X387350000Y-62702760D02*
X387350000Y-66675000D01*
X370046250Y-10160000D02*
X379571250Y-19685000D01*
X370046250Y-635000D02*
X370046250Y-10160000D01*
X379571250Y-33972500D02*
X384333750Y-38735000D01*
X379571250Y-19685000D02*
X379571250Y-33972500D01*
X387350000Y-51276250D02*
X387111875Y-51038125D01*
X384333750Y-48260000D02*
X387111875Y-51038125D01*
X393700000Y-57943750D02*
X393858750Y-57785000D01*
X387350000Y-57943750D02*
X393700000Y-57943750D01*
X387350000Y-62702760D02*
X387350000Y-57943750D01*
X387350000Y-57943750D02*
X387350000Y-51276250D01*
X384333750Y-76835000D02*
X377190000Y-76835000D01*
%TO.N,COL3*%
X389096250Y18415000D02*
X389096250Y-635000D01*
X389096250Y-10160000D02*
X398621250Y-19685000D01*
X389096250Y-635000D02*
X389096250Y-10160000D01*
X398621250Y-33972500D02*
X403383750Y-38735000D01*
X398621250Y-19685000D02*
X398621250Y-33972500D01*
X403383750Y-38735000D02*
X403383750Y-48260000D01*
X401002500Y-68100260D02*
X401002500Y-76835000D01*
X408146250Y-60956510D02*
X407985755Y-61117005D01*
X407985755Y-61117005D02*
X401002500Y-68100260D01*
X403383750Y-48260000D02*
X408146250Y-53022500D01*
X412908750Y-57785000D02*
X408146250Y-57785000D01*
X408146250Y-57785000D02*
X408146250Y-60956510D01*
X408146250Y-53022500D02*
X408146250Y-57785000D01*
%TO.N,COL4*%
X408146250Y18415000D02*
X408146250Y-635000D01*
X408146250Y-10160000D02*
X417671250Y-19685000D01*
X408146250Y-635000D02*
X408146250Y-10160000D01*
X417671250Y-33972500D02*
X422433750Y-38735000D01*
X417671250Y-19685000D02*
X417671250Y-33972500D01*
X422433750Y-48260000D02*
X431958750Y-57785000D01*
X422433750Y-38735000D02*
X422433750Y-48260000D01*
%TO.N,COL5*%
X427196250Y18415000D02*
X427196250Y-635000D01*
X427196250Y-10160000D02*
X436721250Y-19685000D01*
X427196250Y-635000D02*
X427196250Y-10160000D01*
X436721250Y-33972500D02*
X441483750Y-38735000D01*
X436721250Y-19685000D02*
X436721250Y-33972500D01*
X441483750Y-48260000D02*
X451008750Y-57785000D01*
X441483750Y-38735000D02*
X441483750Y-48260000D01*
%TO.N,COL6*%
X446246250Y18415000D02*
X446246250Y-635000D01*
X446246250Y-10160000D02*
X455771250Y-19685000D01*
X446246250Y-635000D02*
X446246250Y-10160000D01*
X455771250Y-33972500D02*
X460533750Y-38735000D01*
X455771250Y-19685000D02*
X455771250Y-33972500D01*
X460533750Y-48260000D02*
X470058750Y-57785000D01*
X460533750Y-38735000D02*
X460533750Y-48260000D01*
D22*
X470058750Y-57785000D02*
X470058750Y-62547500D01*
X465296250Y-67310000D02*
X465296250Y-76835000D01*
X470058750Y-62547500D02*
X465296250Y-67310000D01*
X465296250Y-76835000D02*
X472440000Y-76835000D01*
D21*
%TO.N,COL7*%
X465296250Y18415000D02*
X465296250Y-635000D01*
X465296250Y-10160000D02*
X474821250Y-19685000D01*
X465296250Y-635000D02*
X465296250Y-10160000D01*
X474821250Y-33972500D02*
X479583750Y-38735000D01*
X474821250Y-19685000D02*
X474821250Y-33972500D01*
X479583750Y-48260000D02*
X489108750Y-57785000D01*
X479583750Y-38735000D02*
X479583750Y-48260000D01*
%TO.N,COL8*%
X484346250Y18415000D02*
X484346250Y-635000D01*
X484346250Y-10160000D02*
X493871250Y-19685000D01*
X484346250Y-635000D02*
X484346250Y-10160000D01*
X493871250Y-33972500D02*
X498633750Y-38735000D01*
X493871250Y-19685000D02*
X493871250Y-33972500D01*
X498633750Y-48260000D02*
X508158750Y-57785000D01*
X498633750Y-38735000D02*
X498633750Y-48260000D01*
%TO.N,COL9*%
X503396250Y18415000D02*
X503396250Y-635000D01*
X503396250Y-10160000D02*
X512921250Y-19685000D01*
X503396250Y-635000D02*
X503396250Y-10160000D01*
X512921250Y-33972500D02*
X517683750Y-38735000D01*
X512921250Y-19685000D02*
X512921250Y-33972500D01*
X517683750Y-48260000D02*
X527208750Y-57785000D01*
X517683750Y-38735000D02*
X517683750Y-48260000D01*
X527208750Y-57785000D02*
X527208750Y-62547500D01*
X541496250Y-76835000D02*
X546258750Y-76835000D01*
%TO.N,COL10*%
X522446250Y18415000D02*
X522446250Y-635000D01*
X522446250Y-10160000D02*
X531971250Y-19685000D01*
X522446250Y-635000D02*
X522446250Y-10160000D01*
X531971250Y-33972500D02*
X536733750Y-38735000D01*
X531971250Y-19685000D02*
X531971250Y-33972500D01*
X536733750Y-48260000D02*
X546258750Y-57785000D01*
X536733750Y-38735000D02*
X536733750Y-48260000D01*
X546258750Y-62547500D02*
X560546250Y-76835000D01*
X546258750Y-57785000D02*
X546258750Y-62547500D01*
%TO.N,COL11*%
X541496250Y18415000D02*
X541496250Y-635000D01*
X541496250Y-10160000D02*
X551021250Y-19685000D01*
X541496250Y-635000D02*
X541496250Y-10160000D01*
X551021250Y-33972500D02*
X555783750Y-38735000D01*
X551021250Y-19685000D02*
X551021250Y-33972500D01*
X555783750Y-48260000D02*
X565308750Y-57785000D01*
X555783750Y-38735000D02*
X555783750Y-48260000D01*
X565308750Y-67310000D02*
X574833750Y-76835000D01*
X565308750Y-57785000D02*
X565308750Y-67310000D01*
X574833750Y-76835000D02*
X579596250Y-76835000D01*
%TO.N,COL12*%
X560546250Y18415000D02*
X560546250Y-635000D01*
X560546250Y-10160000D02*
X570071250Y-19685000D01*
X560546250Y-635000D02*
X560546250Y-10160000D01*
X570071250Y-33972500D02*
X574833750Y-38735000D01*
X570071250Y-19685000D02*
X570071250Y-33972500D01*
X574833750Y-38735000D02*
X574833750Y-47783750D01*
X584835000Y-57785000D02*
X591502500Y-57785000D01*
X574833750Y-47783750D02*
X584835000Y-57785000D01*
X591502500Y-69691250D02*
X598646250Y-76835000D01*
X591502500Y-57785000D02*
X591502500Y-69691250D01*
%TO.N,COL13*%
X579596250Y18415000D02*
X579596250Y-635000D01*
X579596250Y-10160000D02*
X589121250Y-19685000D01*
X579596250Y-635000D02*
X579596250Y-10160000D01*
%TO.N,COL14*%
X598646250Y8890000D02*
X608171250Y-635000D01*
X598646250Y18415000D02*
X598646250Y8890000D01*
X608171250Y-14922500D02*
X612933750Y-19685000D01*
X608171250Y-635000D02*
X608171250Y-14922500D01*
X612933750Y-19685000D02*
X612933750Y-28416250D01*
X605790000Y-35560000D02*
X605790000Y-38735000D01*
X612933750Y-28416250D02*
X605790000Y-35560000D01*
X605790000Y-45878750D02*
X617696250Y-57785000D01*
X605790000Y-38735000D02*
X605790000Y-45878750D01*
X617696250Y-57785000D02*
X617696250Y-76835000D01*
%TO.N,COL15*%
X636746250Y-59949934D02*
X636746250Y-76835000D01*
X636746250Y-635000D02*
X636746250Y-59949934D01*
D23*
%TO.N,GND*%
X636971999Y24920501D02*
X637823750Y24068750D01*
X627795941Y24920501D02*
X636971999Y24920501D01*
X328190846Y24978346D02*
X326646893Y23434393D01*
X636914154Y24978346D02*
X328190846Y24978346D01*
X637823750Y24068750D02*
X636914154Y24978346D01*
D21*
%TO.N,COL0*%
X331946250Y-635000D02*
X331946250Y-19685000D01*
X331946250Y21272500D02*
X331946250Y-635000D01*
X333692500Y23018750D02*
X331946250Y21272500D01*
X341312500Y23018750D02*
X333692500Y23018750D01*
X343112500Y21218750D02*
X341312500Y23018750D01*
X343112500Y17462500D02*
X343112500Y21218750D01*
D22*
%TO.N,LED_PIN*%
X647700000Y14128750D02*
X642937500Y18891250D01*
X628264101Y21817149D02*
X627062500Y23018750D01*
X641757851Y21817149D02*
X628264101Y21817149D01*
X642937500Y20637500D02*
X641757851Y21817149D01*
X642937500Y18891250D02*
X642937500Y20637500D01*
%TO.N,Net-(CAPS_LOCK_LED1-Pad1)*%
X629602500Y23018750D02*
X629654110Y22967140D01*
X647700000Y16668750D02*
X647700000Y21431250D01*
X647700000Y21431250D02*
X646906250Y22225000D01*
X646906250Y22225000D02*
X635000000Y22225000D01*
X634206250Y23018750D02*
X629602500Y23018750D01*
X635000000Y22225000D02*
X634206250Y23018750D01*
D21*
%TO.N,ROWB*%
X461168750Y-7937500D02*
X461789618Y-7937500D01*
X461789618Y-7937500D02*
X471895239Y-18043121D01*
X471895239Y-37562306D02*
X478631250Y-44298317D01*
X471895239Y-18043121D02*
X471895239Y-37562306D01*
X478631250Y-44298317D02*
X478631250Y-48857585D01*
X488874041Y-70850003D02*
X488950000Y-70850003D01*
X486182739Y-68158701D02*
X488874041Y-70850003D01*
X486182739Y-56409074D02*
X486182739Y-68158701D01*
X478631250Y-48857585D02*
X486182739Y-56409074D01*
X629920000Y-6350000D02*
X624840000Y-6350000D01*
%TO.N,ROWC*%
X469900000Y-27781250D02*
X471441229Y-29322479D01*
X471441229Y-29322479D02*
X471441229Y-38053729D01*
X471441229Y-38053729D02*
X478177240Y-44789740D01*
X478177240Y-49045642D02*
X485728729Y-56597131D01*
X478177240Y-44789740D02*
X478177240Y-49045642D01*
X485728729Y-56597131D02*
X485728729Y-68704694D01*
X488874041Y-71850006D02*
X488950000Y-71850006D01*
X485728729Y-68704694D02*
X488874041Y-71850006D01*
%TO.N,ROWD*%
X624840000Y-31750000D02*
X629920000Y-31750000D01*
X477723230Y-49233699D02*
X485274719Y-56785187D01*
X485274719Y-56785187D02*
X485274719Y-69250687D01*
X477723230Y-47510730D02*
X477723230Y-49233699D01*
X477043750Y-46831250D02*
X477723230Y-47510730D01*
X488874041Y-72850009D02*
X488950000Y-72850009D01*
X485274719Y-69250687D02*
X488874041Y-72850009D01*
%TO.N,ROWE*%
X523875000Y-52705000D02*
X528955000Y-52705000D01*
X548640000Y-53340000D02*
X544576000Y-53340000D01*
X479425000Y-53181250D02*
X481012500Y-53181250D01*
X481012500Y-53181250D02*
X484820709Y-56989459D01*
X488874041Y-73850012D02*
X488950000Y-73850012D01*
X484820709Y-69796680D02*
X488874041Y-73850012D01*
X484820709Y-56989459D02*
X484820709Y-69796680D01*
%TO.N,ROWF*%
X526256250Y-50800000D02*
X538631684Y-50800000D01*
X538631684Y-50800000D02*
X543718750Y-55887066D01*
X543718750Y-60833962D02*
X555116038Y-72231250D01*
X543718750Y-55887066D02*
X543718750Y-60833962D01*
%TO.N,ROWA*%
X461168750Y10318750D02*
X461168750Y7143750D01*
X461168750Y7143750D02*
X462756250Y5556250D01*
X462756250Y5556250D02*
X462756250Y-8262066D01*
X472349249Y-17855065D02*
X472349249Y-24538251D01*
X462756250Y-8262066D02*
X472349249Y-17855065D01*
X472349249Y-24538251D02*
X472349249Y-37374249D01*
X479129740Y-48448057D02*
X479395694Y-48714010D01*
X479129740Y-44154740D02*
X479129740Y-48448057D01*
X472349249Y-37374249D02*
X479129740Y-44154740D01*
X486636749Y-55955065D02*
X486636749Y-66607001D01*
X479395694Y-48714010D02*
X486636749Y-55955065D01*
X486636749Y-66607001D02*
X486636749Y-67536749D01*
X486636749Y-67536749D02*
X488950000Y-69850000D01*
%TO.N,COL4*%
X428625000Y-82550000D02*
X429260000Y-81915000D01*
X429260000Y-81915000D02*
X429260000Y-63500000D01*
X429260000Y-63500000D02*
X427990000Y-62230000D01*
X427990000Y-62230000D02*
X427990000Y-61244788D01*
X427990000Y-61244788D02*
X427990000Y-59055000D01*
X427990000Y-59055000D02*
X429260000Y-57785000D01*
X429260000Y-57785000D02*
X431958750Y-57785000D01*
%TO.N,COL5*%
X447675000Y-82550000D02*
X447675000Y-59055000D01*
X447675000Y-59055000D02*
X448945000Y-57785000D01*
X448945000Y-57785000D02*
X451008750Y-57785000D01*
%TO.N,COL7*%
X466725000Y-69056250D02*
X466725000Y-73818750D01*
%TO.N,COL8*%
X508635000Y-67945000D02*
X504825000Y-64135000D01*
X504825000Y-64135000D02*
X504825000Y-58420000D01*
X504825000Y-58420000D02*
X505460000Y-57785000D01*
X505460000Y-57785000D02*
X508158750Y-57785000D01*
X515620000Y-67945000D02*
X508635000Y-67945000D01*
%TO.N,COL9*%
X534273125Y-69611875D02*
X541496250Y-76835000D01*
X527208750Y-62547500D02*
X534273125Y-69611875D01*
%TO.N,COL11*%
X574833750Y-79883962D02*
X574833750Y-76835000D01*
X572567801Y-82149911D02*
X574833750Y-79883962D01*
X535402316Y-82149910D02*
X572567801Y-82149911D01*
X531992406Y-78740000D02*
X535402316Y-82149910D01*
X529590000Y-78740000D02*
X531992406Y-78740000D01*
%TO.N,COL12*%
X597055260Y-76835000D02*
X598646250Y-76835000D01*
X591286339Y-82603921D02*
X597055260Y-76835000D01*
X532375232Y-79764892D02*
X535214261Y-82603921D01*
X535214261Y-82603921D02*
X591286339Y-82603921D01*
X529586758Y-79764892D02*
X532375232Y-79764892D01*
%TO.N,COL13*%
X589121250Y-49371250D02*
X589121250Y-19685000D01*
X592954501Y-53204501D02*
X589121250Y-49371250D01*
X600098251Y-74318251D02*
X592954501Y-67174501D01*
X591982326Y-82550000D02*
X596900000Y-82550000D01*
X591474396Y-83057930D02*
X591982326Y-82550000D01*
X535026204Y-83057930D02*
X591474396Y-83057930D01*
X592954501Y-67174501D02*
X592954501Y-53204501D01*
X532753803Y-80785529D02*
X535026204Y-83057930D01*
X529579260Y-80785529D02*
X532753803Y-80785529D01*
X596900000Y-82550000D02*
X600098251Y-79351749D01*
X600098251Y-79351749D02*
X600098251Y-74318251D01*
%TO.N,COL14*%
X616105260Y-76835000D02*
X617696250Y-76835000D01*
X614045000Y-76835000D02*
X616105260Y-76835000D01*
X612435260Y-78444740D02*
X614045000Y-76835000D01*
X612435260Y-79563057D02*
X612435260Y-78444740D01*
X608994306Y-83004010D02*
X612435260Y-79563057D01*
X592170382Y-83004010D02*
X608994306Y-83004010D01*
X591662453Y-83511940D02*
X592170382Y-83004010D01*
X535631940Y-83511940D02*
X591662453Y-83511940D01*
X535631940Y-83511940D02*
X534978060Y-83511940D01*
X534838148Y-83511940D02*
X535631940Y-83511940D01*
X533111503Y-81785295D02*
X534838148Y-83511940D01*
X529600975Y-81785295D02*
X533111503Y-81785295D01*
%TO.N,COL15*%
X591850510Y-83965950D02*
X591908230Y-83908230D01*
X592358439Y-83458020D02*
X591850510Y-83965950D01*
X627741980Y-83458020D02*
X592358439Y-83458020D01*
X634365000Y-76835000D02*
X627741980Y-83458020D01*
X636746250Y-76835000D02*
X634365000Y-76835000D01*
X534815950Y-83965950D02*
X591850510Y-83965950D01*
X534650091Y-83965949D02*
X534815950Y-83965950D01*
X533469336Y-82785194D02*
X534650091Y-83965949D01*
X529586625Y-82785194D02*
X533469336Y-82785194D01*
D22*
%TO.N,SCL*%
X531018750Y-67146370D02*
X531018750Y-73818750D01*
X524668750Y-60796370D02*
X531018750Y-67146370D01*
X524668750Y-55851146D02*
X524668750Y-60796370D01*
X510474649Y-32637149D02*
X515237149Y-37399649D01*
X515237149Y-46419545D02*
X524668750Y-55851146D01*
X515237149Y-37399649D02*
X515237149Y-46419545D01*
X504825000Y23018750D02*
X500949649Y19143399D01*
X510474649Y-17844545D02*
X510474649Y-32637149D01*
X500949649Y19143399D02*
X500949649Y-8319545D01*
X608806250Y23018750D02*
X504825000Y23018750D01*
X614521250Y17303750D02*
X608806250Y23018750D01*
X500949649Y-8319545D02*
X510474649Y-17844545D01*
X616743750Y17303750D02*
X614521250Y17303750D01*
%TO.N,SDA*%
X616743750Y19843750D02*
X615950000Y19843750D01*
X500782635Y19546609D02*
X504657985Y23421960D01*
X500546439Y19310414D02*
X500782635Y19546609D01*
X524265540Y-56018160D02*
X514833939Y-46586560D01*
X500546439Y-8486560D02*
X500546439Y19310414D01*
X510071439Y-18011559D02*
X500546439Y-8486560D01*
X510071439Y-32804164D02*
X510071439Y-18011559D01*
X514833939Y-37566663D02*
X510071439Y-32804164D01*
X530225000Y-66922844D02*
X524265540Y-60963385D01*
X514833939Y-46586560D02*
X514833939Y-37566663D01*
X524265540Y-60963385D02*
X524265540Y-56018160D01*
X530225000Y-74612500D02*
X530225000Y-66922844D01*
X616743750Y19843750D02*
X614362500Y19843750D01*
X610784290Y23421960D02*
X602065710Y23421960D01*
X602065710Y23421960D02*
X608973265Y23421960D01*
X614362500Y19843750D02*
X610784290Y23421960D01*
X504657985Y23421960D02*
X602065710Y23421960D01*
%TO.N,+5V*%
X635000000Y19843750D02*
X636570189Y21413939D01*
X636570189Y21413939D02*
X641350000Y21413939D01*
X641350000Y21413939D02*
X641590837Y21413939D01*
X641590837Y21413939D02*
X642534290Y20470486D01*
X642534290Y18724235D02*
X644525000Y16733525D01*
X642534290Y20470486D02*
X642534290Y18724235D01*
X644525000Y16733525D02*
X644525000Y9525000D01*
D21*
X495300000Y-81280000D02*
X495935000Y-80645000D01*
X495935000Y-80645000D02*
X497205000Y-80645000D01*
X498475000Y-65881250D02*
X497205000Y-67151250D01*
D22*
%TO.N,GND*%
X637823750Y24068750D02*
X646463750Y24068750D01*
X542131250Y-72231250D02*
X540543750Y-70643750D01*
X543718750Y-72231250D02*
X542131250Y-72231250D01*
X506730000Y-64770000D02*
X506730000Y-62230000D01*
X506730000Y-62230000D02*
X506730000Y-62381001D01*
D23*
X491605815Y-78855815D02*
X483870000Y-71120000D01*
X496478000Y-78855815D02*
X491605815Y-78855815D01*
X327198287Y14962500D02*
X326646893Y15513894D01*
X328612500Y14962500D02*
X327198287Y14962500D01*
X326646893Y15513894D02*
X326646893Y16253107D01*
X326646893Y23434393D02*
X326646893Y16253107D01*
D22*
%TO.N,VCC*%
X645318750Y12700000D02*
X645252000Y12700000D01*
X645252000Y11986177D02*
X645252000Y12700000D01*
X648509739Y8728438D02*
X645252000Y11986177D01*
%TO.N,MOSI*%
X648493750Y7143750D02*
X647700000Y7937500D01*
X644525000Y7937500D02*
X642937500Y6350000D01*
X647700000Y7937500D02*
X644525000Y7937500D01*
D21*
%TO.N,LED_PIN*%
X626268750Y23812500D02*
X627062500Y23018750D01*
X509488386Y-66026447D02*
X509489664Y-66025169D01*
X523836930Y-56318180D02*
X514350000Y-46831250D01*
X611225570Y23850570D02*
X611263640Y23812500D01*
X509489664Y-66025169D02*
X518174831Y-66025169D01*
X518174831Y-66025169D02*
X523836930Y-60363070D01*
X514350000Y-46831250D02*
X514350000Y-37688871D01*
X514350000Y-37688871D02*
X509587500Y-32926371D01*
X509587500Y-32926371D02*
X509587500Y-18256250D01*
X509587500Y-18256250D02*
X500062500Y-8731250D01*
X523836930Y-60363070D02*
X523836930Y-56318180D01*
X500062500Y-8731250D02*
X500062500Y19432621D01*
X504480449Y23850570D02*
X611225570Y23850570D01*
X611263640Y23812500D02*
X626268750Y23812500D01*
X500062500Y19432621D02*
X504480449Y23850570D01*
%TO.N,ROWB*%
X629920000Y-6350000D02*
X632618750Y-6350000D01*
%TO.N,ROWC*%
X629443750Y-25400000D02*
X632618750Y-25400000D01*
X624840000Y-25400000D02*
X629443750Y-25400000D01*
X629443750Y-25400000D02*
X629920000Y-25400000D01*
%TO.N,ROWD*%
X629920000Y-31750000D02*
X632618750Y-31750000D01*
%TO.N,ROWE*%
X554196250Y-53340000D02*
X554831250Y-53975000D01*
X548640000Y-53340000D02*
X554196250Y-53340000D01*
%TO.N,ROWF*%
X555116038Y-76484788D02*
X555625000Y-76993750D01*
X555116038Y-72231250D02*
X555116038Y-76484788D01*
%TO.N,COL9*%
X541496250Y-80010000D02*
X541496250Y-76835000D01*
X540264359Y-81241891D02*
X541496250Y-80010000D01*
X535778429Y-81241891D02*
X540264359Y-81241891D01*
X529497999Y-74961461D02*
X535778429Y-81241891D01*
X529497999Y-67535499D02*
X529497999Y-74961461D01*
X528485817Y-66675000D02*
X528637500Y-66675000D01*
X528637500Y-66675000D02*
X529497999Y-67535499D01*
X528427241Y-66616424D02*
X528485817Y-66675000D01*
X517948579Y-66616424D02*
X528427241Y-66616424D01*
X516634069Y-67930934D02*
X517948579Y-66616424D01*
%TO.N,COL10*%
X561340000Y-77628750D02*
X560546250Y-76835000D01*
X535590373Y-81695901D02*
X560924099Y-81695901D01*
X529043989Y-75149518D02*
X535590373Y-81695901D01*
X529043989Y-67875239D02*
X529043989Y-75149518D01*
X561340000Y-81280000D02*
X561340000Y-77628750D01*
X528239184Y-67070434D02*
X529043989Y-67875239D01*
X519112500Y-67070434D02*
X528239184Y-67070434D01*
X560924099Y-81695901D02*
X561340000Y-81280000D01*
X517525000Y-68657934D02*
X519112500Y-67070434D01*
%TO.N,+5V*%
X493395000Y-67945000D02*
X497205000Y-67945000D01*
X497205000Y-67945000D02*
X497205000Y-80645000D01*
X497205000Y-67151250D02*
X497205000Y-67945000D01*
X468471250Y-66040000D02*
X468312500Y-65881250D01*
X471170000Y-66040000D02*
X468471250Y-66040000D01*
X493395000Y-67945000D02*
X489743750Y-64293750D01*
X561975000Y-68262500D02*
X561975000Y-65881250D01*
X561975000Y-65881250D02*
X563562500Y-64293750D01*
X508137744Y-66177744D02*
X509545488Y-64770000D01*
X513080000Y-64770000D02*
X515620000Y-62230000D01*
X509545488Y-64770000D02*
X513080000Y-64770000D01*
X497205000Y-84455000D02*
X497205000Y-80645000D01*
X501015000Y-88265000D02*
X497205000Y-84455000D01*
X520541250Y-88265000D02*
X501015000Y-88265000D01*
X527685000Y-81121250D02*
X520541250Y-88265000D01*
X527685000Y-74295000D02*
X527685000Y-81121250D01*
D24*
%TO.N,ENCODER-*%
X489743750Y-83075000D02*
X489443750Y-82775000D01*
X326800000Y6443200D02*
X330768750Y10411950D01*
X489443750Y-82775000D02*
X486661950Y-82775000D01*
X432500550Y-88331250D02*
X428531800Y-84362500D01*
X326800000Y-81055700D02*
X326800000Y6443200D01*
X481105700Y-88331250D02*
X432500550Y-88331250D01*
X428531800Y-84362500D02*
X330106800Y-84362500D01*
X330106800Y-84362500D02*
X326800000Y-81055700D01*
X486661950Y-82775000D02*
X481105700Y-88331250D01*
%TO.N,ENCODER+*%
X331218750Y10225550D02*
X331218750Y14287500D01*
X327250000Y-80869300D02*
X327250000Y6256800D01*
X428718200Y-83912500D02*
X330293200Y-83912500D01*
X432686950Y-87881250D02*
X428718200Y-83912500D01*
X480919300Y-87881250D02*
X432686950Y-87881250D01*
X327250000Y6256800D02*
X331218750Y10225550D01*
X330293200Y-83912500D02*
X327250000Y-80869300D01*
X489443750Y-82325000D02*
X486475550Y-82325000D01*
X486475550Y-82325000D02*
X480919300Y-87881250D01*
X489743750Y-82025000D02*
X489443750Y-82325000D01*
D22*
X330200000Y17462500D02*
X330993750Y16668750D01*
X331218750Y14287500D02*
X331218750Y16443750D01*
X330200000Y17462500D02*
X328612500Y17462500D01*
X331218750Y16443750D02*
X330200000Y17462500D01*
D24*
%TO.N,ENCODER-*%
X330768750Y10411950D02*
X330768750Y11681250D01*
D22*
X330768750Y11954640D02*
X330768750Y11681250D01*
X330260890Y12462500D02*
X330768750Y11954640D01*
X328612500Y12462500D02*
X330260890Y12462500D01*
D21*
%TO.N,Net-(D93-Pad4)*%
X633730000Y-27940000D02*
X633730000Y-54610000D01*
X633730000Y10160000D02*
X633730000Y-27940000D01*
X632460000Y11430000D02*
X633730000Y10160000D01*
X626110000Y11430000D02*
X632460000Y11430000D01*
X624840000Y10160000D02*
X626110000Y11430000D01*
X624840000Y8890000D02*
X624840000Y10160000D01*
%TD*%
M02*
