%TF.GenerationSoftware,KiCad,Pcbnew,(5.1.9)-1*%
%TF.CreationDate,2021-05-13T13:18:14-04:00*%
%TF.ProjectId,rnm-75E,726e6d2d-3735-4452-9e6b-696361645f70,rev?*%
%TF.SameCoordinates,Original*%
%TF.FileFunction,Legend,Top*%
%TF.FilePolarity,Positive*%
%FSLAX46Y46*%
G04 Gerber Fmt 4.6, Leading zero omitted, Abs format (unit mm)*
G04 Created by KiCad (PCBNEW (5.1.9)-1) date 2021-05-13 13:18:14*
%MOMM*%
%LPD*%
G01*
G04 APERTURE LIST*
%ADD10C,0.150000*%
%ADD11C,0.120000*%
G04 APERTURE END LIST*
D10*
X619647172Y17247619D02*
X619623363Y17057142D01*
X620028125Y17247619D02*
X620004315Y17057142D01*
X620331696Y16247619D02*
X620456696Y17247619D01*
X621557886Y16914285D02*
X621665029Y16247619D01*
X621915029Y16723809D01*
X622045982Y16247619D01*
X622319791Y16914285D01*
X623045982Y16247619D02*
X623111458Y16771428D01*
X623075744Y16866666D01*
X622986458Y16914285D01*
X622795982Y16914285D01*
X622694791Y16866666D01*
X623051934Y16295238D02*
X622950744Y16247619D01*
X622712648Y16247619D01*
X622623363Y16295238D01*
X622587648Y16390476D01*
X622599553Y16485714D01*
X622659077Y16580952D01*
X622760267Y16628571D01*
X622998363Y16628571D01*
X623099553Y16676190D01*
X623480505Y16295238D02*
X623569791Y16247619D01*
X623760267Y16247619D01*
X623861458Y16295238D01*
X623920982Y16390476D01*
X623926934Y16438095D01*
X623891220Y16533333D01*
X623801934Y16580952D01*
X623659077Y16580952D01*
X623569791Y16628571D01*
X623534077Y16723809D01*
X623540029Y16771428D01*
X623599553Y16866666D01*
X623700744Y16914285D01*
X623843601Y16914285D01*
X623932886Y16866666D01*
X625236458Y16247619D02*
X625147172Y16295238D01*
X625105505Y16342857D01*
X625069791Y16438095D01*
X625105505Y16723809D01*
X625165029Y16819047D01*
X625218601Y16866666D01*
X625319791Y16914285D01*
X625462648Y16914285D01*
X625551934Y16866666D01*
X625593601Y16819047D01*
X625629315Y16723809D01*
X625593601Y16438095D01*
X625534077Y16342857D01*
X625480505Y16295238D01*
X625379315Y16247619D01*
X625236458Y16247619D01*
X626081696Y16914285D02*
X625998363Y16247619D01*
X626069791Y16819047D02*
X626123363Y16866666D01*
X626224553Y16914285D01*
X626367410Y16914285D01*
X626456696Y16866666D01*
X626492410Y16771428D01*
X626426934Y16247619D01*
X627337648Y16295238D02*
X627236458Y16247619D01*
X627045982Y16247619D01*
X626956696Y16295238D01*
X626915029Y16342857D01*
X626879315Y16438095D01*
X626915029Y16723809D01*
X626974553Y16819047D01*
X627028125Y16866666D01*
X627129315Y16914285D01*
X627319791Y16914285D01*
X627409077Y16866666D01*
X628147172Y16295238D02*
X628045982Y16247619D01*
X627855505Y16247619D01*
X627766220Y16295238D01*
X627730505Y16390476D01*
X627778125Y16771428D01*
X627837648Y16866666D01*
X627938839Y16914285D01*
X628129315Y16914285D01*
X628218601Y16866666D01*
X628254315Y16771428D01*
X628242410Y16676190D01*
X627754315Y16580952D01*
X629379315Y16247619D02*
X629504315Y17247619D01*
X629807886Y16247619D02*
X629873363Y16771428D01*
X629837648Y16866666D01*
X629748363Y16914285D01*
X629605505Y16914285D01*
X629504315Y16866666D01*
X629450744Y16819047D01*
X630670982Y16295238D02*
X630569791Y16247619D01*
X630379315Y16247619D01*
X630290029Y16295238D01*
X630254315Y16390476D01*
X630301934Y16771428D01*
X630361458Y16866666D01*
X630462648Y16914285D01*
X630653125Y16914285D01*
X630742410Y16866666D01*
X630778125Y16771428D01*
X630766220Y16676190D01*
X630278125Y16580952D01*
X631141220Y16247619D02*
X631224553Y16914285D01*
X631200744Y16723809D02*
X631260267Y16819047D01*
X631313839Y16866666D01*
X631415029Y16914285D01*
X631510267Y16914285D01*
X632147172Y16295238D02*
X632045982Y16247619D01*
X631855505Y16247619D01*
X631766220Y16295238D01*
X631730505Y16390476D01*
X631778125Y16771428D01*
X631837648Y16866666D01*
X631938839Y16914285D01*
X632129315Y16914285D01*
X632218601Y16866666D01*
X632254315Y16771428D01*
X632242410Y16676190D01*
X631754315Y16580952D01*
X633319791Y16914285D02*
X633700744Y16914285D01*
X633504315Y17247619D02*
X633397172Y16390476D01*
X633432886Y16295238D01*
X633522172Y16247619D01*
X633617410Y16247619D01*
X634093601Y16247619D02*
X634004315Y16295238D01*
X633962648Y16342857D01*
X633926934Y16438095D01*
X633962648Y16723809D01*
X634022172Y16819047D01*
X634075744Y16866666D01*
X634176934Y16914285D01*
X634319791Y16914285D01*
X634409077Y16866666D01*
X634450744Y16819047D01*
X634486458Y16723809D01*
X634450744Y16438095D01*
X634391220Y16342857D01*
X634337648Y16295238D01*
X634236458Y16247619D01*
X634093601Y16247619D01*
X634998363Y16247619D02*
X634909077Y16295238D01*
X634867410Y16342857D01*
X634831696Y16438095D01*
X634867410Y16723809D01*
X634926934Y16819047D01*
X634980505Y16866666D01*
X635081696Y16914285D01*
X635224553Y16914285D01*
X635313839Y16866666D01*
X635355505Y16819047D01*
X635391220Y16723809D01*
X635355505Y16438095D01*
X635295982Y16342857D01*
X635242410Y16295238D01*
X635141220Y16247619D01*
X634998363Y16247619D01*
X635837648Y17247619D02*
X635813839Y17057142D01*
X636218601Y17247619D02*
X636194791Y17057142D01*
X626141220Y14978571D02*
X626903125Y14978571D01*
X627319791Y14883333D02*
X627795982Y14883333D01*
X627188839Y14597619D02*
X627647172Y15597619D01*
X627855505Y14597619D01*
X628272172Y15264285D02*
X628188839Y14597619D01*
X628260267Y15169047D02*
X628313839Y15216666D01*
X628415029Y15264285D01*
X628557886Y15264285D01*
X628647172Y15216666D01*
X628682886Y15121428D01*
X628617410Y14597619D01*
X629034077Y15264285D02*
X629415029Y15264285D01*
X629218601Y15597619D02*
X629111458Y14740476D01*
X629147172Y14645238D01*
X629236458Y14597619D01*
X629331696Y14597619D01*
X629665029Y14597619D02*
X629790029Y15597619D01*
X630093601Y14597619D02*
X630159077Y15121428D01*
X630123363Y15216666D01*
X630034077Y15264285D01*
X629891220Y15264285D01*
X629790029Y15216666D01*
X629736458Y15169047D01*
X630712648Y14597619D02*
X630623363Y14645238D01*
X630581696Y14692857D01*
X630545982Y14788095D01*
X630581696Y15073809D01*
X630641220Y15169047D01*
X630694791Y15216666D01*
X630795982Y15264285D01*
X630938839Y15264285D01*
X631028125Y15216666D01*
X631069791Y15169047D01*
X631105505Y15073809D01*
X631069791Y14788095D01*
X631010267Y14692857D01*
X630956696Y14645238D01*
X630855505Y14597619D01*
X630712648Y14597619D01*
X631557886Y15264285D02*
X631474553Y14597619D01*
X631545982Y15169047D02*
X631599553Y15216666D01*
X631700744Y15264285D01*
X631843601Y15264285D01*
X631932886Y15216666D01*
X631968601Y15121428D01*
X631903125Y14597619D01*
X632367410Y15264285D02*
X632522172Y14597619D01*
X632843601Y15264285D02*
X632522172Y14597619D01*
X632397172Y14359523D01*
X632343601Y14311904D01*
X632242410Y14264285D01*
X634379315Y14597619D02*
X633903125Y14597619D01*
X634028125Y15597619D01*
X635224553Y15264285D02*
X635141220Y14597619D01*
X634795982Y15264285D02*
X634730505Y14740476D01*
X634766220Y14645238D01*
X634855505Y14597619D01*
X634998363Y14597619D01*
X635099553Y14645238D01*
X635153125Y14692857D01*
X635760267Y14597619D02*
X635670982Y14645238D01*
X635629315Y14692857D01*
X635593601Y14788095D01*
X635629315Y15073809D01*
X635688839Y15169047D01*
X635742410Y15216666D01*
X635843601Y15264285D01*
X635986458Y15264285D01*
X636075744Y15216666D01*
X636117410Y15169047D01*
X636153125Y15073809D01*
X636117410Y14788095D01*
X636057886Y14692857D01*
X636004315Y14645238D01*
X635903125Y14597619D01*
X635760267Y14597619D01*
X614529761Y23360119D02*
X614196428Y23836309D01*
X613958333Y23360119D02*
X613958333Y24360119D01*
X614339285Y24360119D01*
X614434523Y24312500D01*
X614482142Y24264880D01*
X614529761Y24169642D01*
X614529761Y24026785D01*
X614482142Y23931547D01*
X614434523Y23883928D01*
X614339285Y23836309D01*
X613958333Y23836309D01*
X614958333Y23360119D02*
X614958333Y24360119D01*
X615529761Y23360119D01*
X615529761Y24360119D01*
X616005952Y23360119D02*
X616005952Y24360119D01*
X616339285Y23645833D01*
X616672619Y24360119D01*
X616672619Y23360119D01*
X617053571Y24360119D02*
X617720238Y24360119D01*
X617291666Y23360119D01*
X618577380Y24360119D02*
X618101190Y24360119D01*
X618053571Y23883928D01*
X618101190Y23931547D01*
X618196428Y23979166D01*
X618434523Y23979166D01*
X618529761Y23931547D01*
X618577380Y23883928D01*
X618625000Y23788690D01*
X618625000Y23550595D01*
X618577380Y23455357D01*
X618529761Y23407738D01*
X618434523Y23360119D01*
X618196428Y23360119D01*
X618101190Y23407738D01*
X618053571Y23455357D01*
X619053571Y23883928D02*
X619386904Y23883928D01*
X619529761Y23360119D02*
X619053571Y23360119D01*
X619053571Y24360119D01*
X619529761Y24360119D01*
X619958333Y23741071D02*
X620720238Y23741071D01*
X621767857Y23360119D02*
X621434523Y23836309D01*
X621196428Y23360119D02*
X621196428Y24360119D01*
X621577380Y24360119D01*
X621672619Y24312500D01*
X621720238Y24264880D01*
X621767857Y24169642D01*
X621767857Y24026785D01*
X621720238Y23931547D01*
X621672619Y23883928D01*
X621577380Y23836309D01*
X621196428Y23836309D01*
X622577380Y23407738D02*
X622482142Y23360119D01*
X622291666Y23360119D01*
X622196428Y23407738D01*
X622148809Y23502976D01*
X622148809Y23883928D01*
X622196428Y23979166D01*
X622291666Y24026785D01*
X622482142Y24026785D01*
X622577380Y23979166D01*
X622625000Y23883928D01*
X622625000Y23788690D01*
X622148809Y23693452D01*
X622958333Y24026785D02*
X623196428Y23360119D01*
X623434523Y24026785D01*
X624339285Y23360119D02*
X623767857Y23360119D01*
X624053571Y23360119D02*
X624053571Y24360119D01*
X623958333Y24217261D01*
X623863095Y24122023D01*
X623767857Y24074404D01*
X429754345Y-78239880D02*
X429754345Y-77239880D01*
X429992440Y-77239880D01*
X430135297Y-77287500D01*
X430230535Y-77382738D01*
X430278154Y-77477976D01*
X430325773Y-77668452D01*
X430325773Y-77811309D01*
X430278154Y-78001785D01*
X430230535Y-78097023D01*
X430135297Y-78192261D01*
X429992440Y-78239880D01*
X429754345Y-78239880D01*
X431135297Y-78192261D02*
X431040059Y-78239880D01*
X430849583Y-78239880D01*
X430754345Y-78192261D01*
X430706726Y-78097023D01*
X430706726Y-77716071D01*
X430754345Y-77620833D01*
X430849583Y-77573214D01*
X431040059Y-77573214D01*
X431135297Y-77620833D01*
X431182916Y-77716071D01*
X431182916Y-77811309D01*
X430706726Y-77906547D01*
X431563869Y-78192261D02*
X431659107Y-78239880D01*
X431849583Y-78239880D01*
X431944821Y-78192261D01*
X431992440Y-78097023D01*
X431992440Y-78049404D01*
X431944821Y-77954166D01*
X431849583Y-77906547D01*
X431706726Y-77906547D01*
X431611488Y-77858928D01*
X431563869Y-77763690D01*
X431563869Y-77716071D01*
X431611488Y-77620833D01*
X431706726Y-77573214D01*
X431849583Y-77573214D01*
X431944821Y-77620833D01*
X432421011Y-78239880D02*
X432421011Y-77573214D01*
X432421011Y-77239880D02*
X432373392Y-77287500D01*
X432421011Y-77335119D01*
X432468630Y-77287500D01*
X432421011Y-77239880D01*
X432421011Y-77335119D01*
X433325773Y-77573214D02*
X433325773Y-78382738D01*
X433278154Y-78477976D01*
X433230535Y-78525595D01*
X433135297Y-78573214D01*
X432992440Y-78573214D01*
X432897202Y-78525595D01*
X433325773Y-78192261D02*
X433230535Y-78239880D01*
X433040059Y-78239880D01*
X432944821Y-78192261D01*
X432897202Y-78144642D01*
X432849583Y-78049404D01*
X432849583Y-77763690D01*
X432897202Y-77668452D01*
X432944821Y-77620833D01*
X433040059Y-77573214D01*
X433230535Y-77573214D01*
X433325773Y-77620833D01*
X433801964Y-77573214D02*
X433801964Y-78239880D01*
X433801964Y-77668452D02*
X433849583Y-77620833D01*
X433944821Y-77573214D01*
X434087678Y-77573214D01*
X434182916Y-77620833D01*
X434230535Y-77716071D01*
X434230535Y-78239880D01*
X435087678Y-78192261D02*
X434992440Y-78239880D01*
X434801964Y-78239880D01*
X434706726Y-78192261D01*
X434659107Y-78097023D01*
X434659107Y-77716071D01*
X434706726Y-77620833D01*
X434801964Y-77573214D01*
X434992440Y-77573214D01*
X435087678Y-77620833D01*
X435135297Y-77716071D01*
X435135297Y-77811309D01*
X434659107Y-77906547D01*
X435992440Y-78239880D02*
X435992440Y-77239880D01*
X435992440Y-78192261D02*
X435897202Y-78239880D01*
X435706726Y-78239880D01*
X435611488Y-78192261D01*
X435563869Y-78144642D01*
X435516250Y-78049404D01*
X435516250Y-77763690D01*
X435563869Y-77668452D01*
X435611488Y-77620833D01*
X435706726Y-77573214D01*
X435897202Y-77573214D01*
X435992440Y-77620833D01*
X437230535Y-78239880D02*
X437230535Y-77239880D01*
X437230535Y-77620833D02*
X437325773Y-77573214D01*
X437516250Y-77573214D01*
X437611488Y-77620833D01*
X437659107Y-77668452D01*
X437706726Y-77763690D01*
X437706726Y-78049404D01*
X437659107Y-78144642D01*
X437611488Y-78192261D01*
X437516250Y-78239880D01*
X437325773Y-78239880D01*
X437230535Y-78192261D01*
X438040059Y-77573214D02*
X438278154Y-78239880D01*
X438516250Y-77573214D02*
X438278154Y-78239880D01*
X438182916Y-78477976D01*
X438135297Y-78525595D01*
X438040059Y-78573214D01*
X439611488Y-77954166D02*
X440087678Y-77954166D01*
X439516250Y-78239880D02*
X439849583Y-77239880D01*
X440182916Y-78239880D01*
X440516250Y-77573214D02*
X440516250Y-78239880D01*
X440516250Y-77668452D02*
X440563869Y-77620833D01*
X440659107Y-77573214D01*
X440801964Y-77573214D01*
X440897202Y-77620833D01*
X440944821Y-77716071D01*
X440944821Y-78239880D01*
X441278154Y-77573214D02*
X441659107Y-77573214D01*
X441421011Y-77239880D02*
X441421011Y-78097023D01*
X441468630Y-78192261D01*
X441563869Y-78239880D01*
X441659107Y-78239880D01*
X441992440Y-78239880D02*
X441992440Y-77239880D01*
X442421011Y-78239880D02*
X442421011Y-77716071D01*
X442373392Y-77620833D01*
X442278154Y-77573214D01*
X442135297Y-77573214D01*
X442040059Y-77620833D01*
X441992440Y-77668452D01*
X443040059Y-78239880D02*
X442944821Y-78192261D01*
X442897202Y-78144642D01*
X442849583Y-78049404D01*
X442849583Y-77763690D01*
X442897202Y-77668452D01*
X442944821Y-77620833D01*
X443040059Y-77573214D01*
X443182916Y-77573214D01*
X443278154Y-77620833D01*
X443325773Y-77668452D01*
X443373392Y-77763690D01*
X443373392Y-78049404D01*
X443325773Y-78144642D01*
X443278154Y-78192261D01*
X443182916Y-78239880D01*
X443040059Y-78239880D01*
X443801964Y-77573214D02*
X443801964Y-78239880D01*
X443801964Y-77668452D02*
X443849583Y-77620833D01*
X443944821Y-77573214D01*
X444087678Y-77573214D01*
X444182916Y-77620833D01*
X444230535Y-77716071D01*
X444230535Y-78239880D01*
X444611488Y-77573214D02*
X444849583Y-78239880D01*
X445087678Y-77573214D02*
X444849583Y-78239880D01*
X444754345Y-78477976D01*
X444706726Y-78525595D01*
X444611488Y-78573214D01*
X446706726Y-78239880D02*
X446230535Y-78239880D01*
X446230535Y-77239880D01*
X447468630Y-77573214D02*
X447468630Y-78239880D01*
X447040059Y-77573214D02*
X447040059Y-78097023D01*
X447087678Y-78192261D01*
X447182916Y-78239880D01*
X447325773Y-78239880D01*
X447421011Y-78192261D01*
X447468630Y-78144642D01*
X448087678Y-78239880D02*
X447992440Y-78192261D01*
X447944821Y-78144642D01*
X447897202Y-78049404D01*
X447897202Y-77763690D01*
X447944821Y-77668452D01*
X447992440Y-77620833D01*
X448087678Y-77573214D01*
X448230535Y-77573214D01*
X448325773Y-77620833D01*
X448373392Y-77668452D01*
X448421011Y-77763690D01*
X448421011Y-78049404D01*
X448373392Y-78144642D01*
X448325773Y-78192261D01*
X448230535Y-78239880D01*
X448087678Y-78239880D01*
D11*
%TO.C,CAPS_LOCK_LED2*%
X646620163Y14357620D02*
G75*
G02*
X646620000Y16439711I1079837J1041130D01*
G01*
X648779837Y14357620D02*
G75*
G03*
X648780000Y16439711I-1079837J1041130D01*
G01*
X646621392Y13726415D02*
G75*
G02*
X646464484Y16958750I1078608J1672335D01*
G01*
X648778608Y13726415D02*
G75*
G03*
X648935516Y16958750I-1078608J1672335D01*
G01*
X648936000Y16958750D02*
X648780000Y16958750D01*
X646620000Y16958750D02*
X646464000Y16958750D01*
%TO.C,CAPS_LOCK_LED1*%
X627291370Y24098587D02*
G75*
G02*
X629373461Y24098750I1041130J-1079837D01*
G01*
X627291370Y21938913D02*
G75*
G03*
X629373461Y21938750I1041130J1079837D01*
G01*
X626660165Y24097358D02*
G75*
G02*
X629892500Y24254266I1672335J-1078608D01*
G01*
X626660165Y21940142D02*
G75*
G03*
X629892500Y21783234I1672335J1078608D01*
G01*
X629892500Y21782750D02*
X629892500Y21938750D01*
X629892500Y24098750D02*
X629892500Y24254750D01*
%TO.C,J3*%
X615413750Y18573750D02*
X618073750Y18573750D01*
X615413750Y18573750D02*
X615413750Y10893750D01*
X615413750Y10893750D02*
X618073750Y10893750D01*
X618073750Y18573750D02*
X618073750Y10893750D01*
X618073750Y21173750D02*
X618073750Y19843750D01*
X616743750Y21173750D02*
X618073750Y21173750D01*
%TO.C,SW2*%
X335612500Y14962500D02*
X336612500Y14962500D01*
X336112500Y15462500D02*
X336112500Y14462500D01*
X342812500Y11262500D02*
X342812500Y8662500D01*
X342812500Y16262500D02*
X342812500Y13662500D01*
X342812500Y21262500D02*
X342812500Y18662500D01*
X328912500Y19062500D02*
X328612500Y18762500D01*
X328312500Y19062500D02*
X328912500Y19062500D01*
X328612500Y18762500D02*
X328312500Y19062500D01*
X329412500Y21262500D02*
X329412500Y18762500D01*
X334212500Y21262500D02*
X329412500Y21262500D01*
X329412500Y8662500D02*
X329412500Y11462500D01*
X334312500Y8662500D02*
X329412500Y8662500D01*
X342812500Y8662500D02*
X337912500Y8662500D01*
X337912500Y21262500D02*
X342812500Y21262500D01*
X339112500Y14962500D02*
G75*
G03*
X339112500Y14962500I-3000000J0D01*
G01*
%TO.C,CAPS_LOCK_LED2*%
D10*
X644882142Y10097202D02*
X644929761Y10049583D01*
X644977380Y9906726D01*
X644977380Y9811488D01*
X644929761Y9668630D01*
X644834523Y9573392D01*
X644739285Y9525773D01*
X644548809Y9478154D01*
X644405952Y9478154D01*
X644215476Y9525773D01*
X644120238Y9573392D01*
X644025000Y9668630D01*
X643977380Y9811488D01*
X643977380Y9906726D01*
X644025000Y10049583D01*
X644072619Y10097202D01*
X644691666Y10478154D02*
X644691666Y10954345D01*
X644977380Y10382916D02*
X643977380Y10716250D01*
X644977380Y11049583D01*
X644977380Y11382916D02*
X643977380Y11382916D01*
X643977380Y11763869D01*
X644025000Y11859107D01*
X644072619Y11906726D01*
X644167857Y11954345D01*
X644310714Y11954345D01*
X644405952Y11906726D01*
X644453571Y11859107D01*
X644501190Y11763869D01*
X644501190Y11382916D01*
X644929761Y12335297D02*
X644977380Y12478154D01*
X644977380Y12716250D01*
X644929761Y12811488D01*
X644882142Y12859107D01*
X644786904Y12906726D01*
X644691666Y12906726D01*
X644596428Y12859107D01*
X644548809Y12811488D01*
X644501190Y12716250D01*
X644453571Y12525773D01*
X644405952Y12430535D01*
X644358333Y12382916D01*
X644263095Y12335297D01*
X644167857Y12335297D01*
X644072619Y12382916D01*
X644025000Y12430535D01*
X643977380Y12525773D01*
X643977380Y12763869D01*
X644025000Y12906726D01*
X645072619Y13097202D02*
X645072619Y13859107D01*
X644977380Y14573392D02*
X644977380Y14097202D01*
X643977380Y14097202D01*
X643977380Y15097202D02*
X643977380Y15287678D01*
X644025000Y15382916D01*
X644120238Y15478154D01*
X644310714Y15525773D01*
X644644047Y15525773D01*
X644834523Y15478154D01*
X644929761Y15382916D01*
X644977380Y15287678D01*
X644977380Y15097202D01*
X644929761Y15001964D01*
X644834523Y14906726D01*
X644644047Y14859107D01*
X644310714Y14859107D01*
X644120238Y14906726D01*
X644025000Y15001964D01*
X643977380Y15097202D01*
X644882142Y16525773D02*
X644929761Y16478154D01*
X644977380Y16335297D01*
X644977380Y16240059D01*
X644929761Y16097202D01*
X644834523Y16001964D01*
X644739285Y15954345D01*
X644548809Y15906726D01*
X644405952Y15906726D01*
X644215476Y15954345D01*
X644120238Y16001964D01*
X644025000Y16097202D01*
X643977380Y16240059D01*
X643977380Y16335297D01*
X644025000Y16478154D01*
X644072619Y16525773D01*
X644977380Y16954345D02*
X643977380Y16954345D01*
X644977380Y17525773D02*
X644405952Y17097202D01*
X643977380Y17525773D02*
X644548809Y16954345D01*
X645072619Y17716250D02*
X645072619Y18478154D01*
X644977380Y19192440D02*
X644977380Y18716250D01*
X643977380Y18716250D01*
X644453571Y19525773D02*
X644453571Y19859107D01*
X644977380Y20001964D02*
X644977380Y19525773D01*
X643977380Y19525773D01*
X643977380Y20001964D01*
X644977380Y20430535D02*
X643977380Y20430535D01*
X643977380Y20668630D01*
X644025000Y20811488D01*
X644120238Y20906726D01*
X644215476Y20954345D01*
X644405952Y21001964D01*
X644548809Y21001964D01*
X644739285Y20954345D01*
X644834523Y20906726D01*
X644929761Y20811488D01*
X644977380Y20668630D01*
X644977380Y20430535D01*
X644072619Y21382916D02*
X644025000Y21430535D01*
X643977380Y21525773D01*
X643977380Y21763869D01*
X644025000Y21859107D01*
X644072619Y21906726D01*
X644167857Y21954345D01*
X644263095Y21954345D01*
X644405952Y21906726D01*
X644977380Y21335297D01*
X644977380Y21954345D01*
%TO.C,CAPS_LOCK_LED1*%
X622713452Y19701607D02*
X622665833Y19653988D01*
X622522976Y19606369D01*
X622427738Y19606369D01*
X622284880Y19653988D01*
X622189642Y19749226D01*
X622142023Y19844464D01*
X622094404Y20034940D01*
X622094404Y20177797D01*
X622142023Y20368273D01*
X622189642Y20463511D01*
X622284880Y20558750D01*
X622427738Y20606369D01*
X622522976Y20606369D01*
X622665833Y20558750D01*
X622713452Y20511130D01*
X623094404Y19892083D02*
X623570595Y19892083D01*
X622999166Y19606369D02*
X623332500Y20606369D01*
X623665833Y19606369D01*
X623999166Y19606369D02*
X623999166Y20606369D01*
X624380119Y20606369D01*
X624475357Y20558750D01*
X624522976Y20511130D01*
X624570595Y20415892D01*
X624570595Y20273035D01*
X624522976Y20177797D01*
X624475357Y20130178D01*
X624380119Y20082559D01*
X623999166Y20082559D01*
X624951547Y19653988D02*
X625094404Y19606369D01*
X625332500Y19606369D01*
X625427738Y19653988D01*
X625475357Y19701607D01*
X625522976Y19796845D01*
X625522976Y19892083D01*
X625475357Y19987321D01*
X625427738Y20034940D01*
X625332500Y20082559D01*
X625142023Y20130178D01*
X625046785Y20177797D01*
X624999166Y20225416D01*
X624951547Y20320654D01*
X624951547Y20415892D01*
X624999166Y20511130D01*
X625046785Y20558750D01*
X625142023Y20606369D01*
X625380119Y20606369D01*
X625522976Y20558750D01*
X625713452Y19511130D02*
X626475357Y19511130D01*
X627189642Y19606369D02*
X626713452Y19606369D01*
X626713452Y20606369D01*
X627713452Y20606369D02*
X627903928Y20606369D01*
X627999166Y20558750D01*
X628094404Y20463511D01*
X628142023Y20273035D01*
X628142023Y19939702D01*
X628094404Y19749226D01*
X627999166Y19653988D01*
X627903928Y19606369D01*
X627713452Y19606369D01*
X627618214Y19653988D01*
X627522976Y19749226D01*
X627475357Y19939702D01*
X627475357Y20273035D01*
X627522976Y20463511D01*
X627618214Y20558750D01*
X627713452Y20606369D01*
X629142023Y19701607D02*
X629094404Y19653988D01*
X628951547Y19606369D01*
X628856309Y19606369D01*
X628713452Y19653988D01*
X628618214Y19749226D01*
X628570595Y19844464D01*
X628522976Y20034940D01*
X628522976Y20177797D01*
X628570595Y20368273D01*
X628618214Y20463511D01*
X628713452Y20558750D01*
X628856309Y20606369D01*
X628951547Y20606369D01*
X629094404Y20558750D01*
X629142023Y20511130D01*
X629570595Y19606369D02*
X629570595Y20606369D01*
X630142023Y19606369D02*
X629713452Y20177797D01*
X630142023Y20606369D02*
X629570595Y20034940D01*
X630332500Y19511130D02*
X631094404Y19511130D01*
X631808690Y19606369D02*
X631332500Y19606369D01*
X631332500Y20606369D01*
X632142023Y20130178D02*
X632475357Y20130178D01*
X632618214Y19606369D02*
X632142023Y19606369D01*
X632142023Y20606369D01*
X632618214Y20606369D01*
X633046785Y19606369D02*
X633046785Y20606369D01*
X633284880Y20606369D01*
X633427738Y20558750D01*
X633522976Y20463511D01*
X633570595Y20368273D01*
X633618214Y20177797D01*
X633618214Y20034940D01*
X633570595Y19844464D01*
X633522976Y19749226D01*
X633427738Y19653988D01*
X633284880Y19606369D01*
X633046785Y19606369D01*
X634570595Y19606369D02*
X633999166Y19606369D01*
X634284880Y19606369D02*
X634284880Y20606369D01*
X634189642Y20463511D01*
X634094404Y20368273D01*
X633999166Y20320654D01*
%TO.C,J3*%
X616410416Y23161369D02*
X616410416Y22447083D01*
X616362797Y22304226D01*
X616267559Y22208988D01*
X616124702Y22161369D01*
X616029464Y22161369D01*
X616791369Y23161369D02*
X617410416Y23161369D01*
X617077083Y22780416D01*
X617219940Y22780416D01*
X617315178Y22732797D01*
X617362797Y22685178D01*
X617410416Y22589940D01*
X617410416Y22351845D01*
X617362797Y22256607D01*
X617315178Y22208988D01*
X617219940Y22161369D01*
X616934226Y22161369D01*
X616838988Y22208988D01*
X616791369Y22256607D01*
%TO.C,SW2*%
X330079166Y21757738D02*
X330222023Y21710119D01*
X330460119Y21710119D01*
X330555357Y21757738D01*
X330602976Y21805357D01*
X330650595Y21900595D01*
X330650595Y21995833D01*
X330602976Y22091071D01*
X330555357Y22138690D01*
X330460119Y22186309D01*
X330269642Y22233928D01*
X330174404Y22281547D01*
X330126785Y22329166D01*
X330079166Y22424404D01*
X330079166Y22519642D01*
X330126785Y22614880D01*
X330174404Y22662500D01*
X330269642Y22710119D01*
X330507738Y22710119D01*
X330650595Y22662500D01*
X330983928Y22710119D02*
X331222023Y21710119D01*
X331412500Y22424404D01*
X331602976Y21710119D01*
X331841071Y22710119D01*
X332174404Y22614880D02*
X332222023Y22662500D01*
X332317261Y22710119D01*
X332555357Y22710119D01*
X332650595Y22662500D01*
X332698214Y22614880D01*
X332745833Y22519642D01*
X332745833Y22424404D01*
X332698214Y22281547D01*
X332126785Y21710119D01*
X332745833Y21710119D01*
%TD*%
M02*
