0
SECTION
2
HEADER
9
$INSUNITS
70
4
0
ENDSEC
0
SECTION
2
TABLES
0
TABLE
2
LTYPE
0
LTYPE
72
65
70
64
2
CONTINUOUS
3
______
73
0
40
0
0
ENDTAB
0
TABLE
2
LAYER
0
ENDTAB
0
ENDSEC
0
SECTION
2
ENTITIES
0
ARC
8
0
10
3.025
20
-16.025
40
0.5
50
180
51
270
0
ARC
8
0
10
16.025
20
-16.025
40
0.5
50
270
51
0
0
ARC
8
0
10
16.025
20
-3.025
40
0.5
50
0
51
90
0
ARC
8
0
10
3.025
20
-3.025
40
0.5
50
90
51
180
0
LINE
8
0
10
3.025
20
-16.525
11
16.025
21
-16.525
0
LINE
8
0
10
16.025
20
-2.525
11
3.025
21
-2.525
0
LINE
8
0
10
16.525
20
-16.025
11
16.525
21
-3.025
0
LINE
8
0
10
2.525
20
-3.025
11
2.525
21
-16.025
0
ARC
8
0
10
22.075
20
-16.025
40
0.5
50
180
51
270
0
ARC
8
0
10
35.075
20
-16.025
40
0.5
50
270
51
0
0
ARC
8
0
10
35.075
20
-3.025
40
0.5
50
0
51
90
0
ARC
8
0
10
22.075
20
-3.025
40
0.5
50
90
51
180
0
LINE
8
0
10
22.075
20
-16.525
11
35.075
21
-16.525
0
LINE
8
0
10
35.075
20
-2.525
11
22.075
21
-2.525
0
LINE
8
0
10
35.575
20
-16.025
11
35.575
21
-3.025
0
LINE
8
0
10
21.575
20
-3.025
11
21.575
21
-16.025
0
ARC
8
0
10
41.125
20
-16.025
40
0.5
50
180
51
270
0
ARC
8
0
10
54.125
20
-16.025
40
0.5
50
270
51
0
0
ARC
8
0
10
54.125
20
-3.025
40
0.5
50
0
51
90
0
ARC
8
0
10
41.125
20
-3.025
40
0.5
50
90
51
180
0
LINE
8
0
10
41.125
20
-16.525
11
54.125
21
-16.525
0
LINE
8
0
10
54.125
20
-2.525
11
41.125
21
-2.525
0
LINE
8
0
10
54.625
20
-16.025
11
54.625
21
-3.025
0
LINE
8
0
10
40.625
20
-3.025
11
40.625
21
-16.025
0
ARC
8
0
10
60.175
20
-16.025
40
0.5
50
180
51
270
0
ARC
8
0
10
73.175
20
-16.025
40
0.5
50
270
51
0
0
ARC
8
0
10
73.175
20
-3.025
40
0.5
50
0
51
90
0
ARC
8
0
10
60.175
20
-3.025
40
0.5
50
90
51
180
0
LINE
8
0
10
60.175
20
-16.525
11
73.175
21
-16.525
0
LINE
8
0
10
73.175
20
-2.525
11
60.175
21
-2.525
0
LINE
8
0
10
73.675
20
-16.025
11
73.675
21
-3.025
0
LINE
8
0
10
59.675
20
-3.025
11
59.675
21
-16.025
0
ARC
8
0
10
79.225
20
-16.025
40
0.5
50
180
51
270
0
ARC
8
0
10
92.225
20
-16.025
40
0.5
50
270
51
0
0
ARC
8
0
10
92.225
20
-3.025
40
0.5
50
0
51
90
0
ARC
8
0
10
79.225
20
-3.025
40
0.5
50
90
51
180
0
LINE
8
0
10
79.225
20
-16.525
11
92.225
21
-16.525
0
LINE
8
0
10
92.225
20
-2.525
11
79.225
21
-2.525
0
LINE
8
0
10
92.725
20
-16.025
11
92.725
21
-3.025
0
LINE
8
0
10
78.725
20
-3.025
11
78.725
21
-16.025
0
ARC
8
0
10
98.275
20
-16.025
40
0.5
50
180
51
270
0
ARC
8
0
10
111.275
20
-16.025
40
0.5
50
270
51
0
0
ARC
8
0
10
111.275
20
-3.025
40
0.5
50
0
51
90
0
ARC
8
0
10
98.275
20
-3.025
40
0.5
50
90
51
180
0
LINE
8
0
10
98.275
20
-16.525
11
111.275
21
-16.525
0
LINE
8
0
10
111.275
20
-2.525
11
98.275
21
-2.525
0
LINE
8
0
10
111.775
20
-16.025
11
111.775
21
-3.025
0
LINE
8
0
10
97.775
20
-3.025
11
97.775
21
-16.025
0
ARC
8
0
10
117.325
20
-16.025
40
0.5
50
180
51
270
0
ARC
8
0
10
130.325
20
-16.025
40
0.5
50
270
51
0
0
ARC
8
0
10
130.325
20
-3.025
40
0.5
50
0
51
90
0
ARC
8
0
10
117.325
20
-3.025
40
0.5
50
90
51
180
0
LINE
8
0
10
117.325
20
-16.525
11
130.325
21
-16.525
0
LINE
8
0
10
130.325
20
-2.525
11
117.325
21
-2.525
0
LINE
8
0
10
130.825
20
-16.025
11
130.825
21
-3.025
0
LINE
8
0
10
116.825
20
-3.025
11
116.825
21
-16.025
0
ARC
8
0
10
136.375
20
-16.025
40
0.5
50
180
51
270
0
ARC
8
0
10
149.375
20
-16.025
40
0.5
50
270
51
0
0
ARC
8
0
10
149.375
20
-3.025
40
0.5
50
0
51
90
0
ARC
8
0
10
136.375
20
-3.025
40
0.5
50
90
51
180
0
LINE
8
0
10
136.375
20
-16.525
11
149.375
21
-16.525
0
LINE
8
0
10
149.375
20
-2.525
11
136.375
21
-2.525
0
LINE
8
0
10
149.875
20
-16.025
11
149.875
21
-3.025
0
LINE
8
0
10
135.875
20
-3.025
11
135.875
21
-16.025
0
ARC
8
0
10
155.425
20
-16.025
40
0.5
50
180
51
270
0
ARC
8
0
10
168.425
20
-16.025
40
0.5
50
270
51
0
0
ARC
8
0
10
168.425
20
-3.025
40
0.5
50
0
51
90
0
ARC
8
0
10
155.425
20
-3.025
40
0.5
50
90
51
180
0
LINE
8
0
10
155.425
20
-16.525
11
168.425
21
-16.525
0
LINE
8
0
10
168.425
20
-2.525
11
155.425
21
-2.525
0
LINE
8
0
10
168.925
20
-16.025
11
168.925
21
-3.025
0
LINE
8
0
10
154.925
20
-3.025
11
154.925
21
-16.025
0
ARC
8
0
10
174.475
20
-16.025
40
0.5
50
180
51
270
0
ARC
8
0
10
187.475
20
-16.025
40
0.5
50
270
51
0
0
ARC
8
0
10
187.475
20
-3.025
40
0.5
50
0
51
90
0
ARC
8
0
10
174.475
20
-3.025
40
0.5
50
90
51
180
0
LINE
8
0
10
174.475
20
-16.525
11
187.475
21
-16.525
0
LINE
8
0
10
187.475
20
-2.525
11
174.475
21
-2.525
0
LINE
8
0
10
187.975
20
-16.025
11
187.975
21
-3.025
0
LINE
8
0
10
173.975
20
-3.025
11
173.975
21
-16.025
0
ARC
8
0
10
193.525
20
-16.025
40
0.5
50
180
51
270
0
ARC
8
0
10
206.525
20
-16.025
40
0.5
50
270
51
0
0
ARC
8
0
10
206.525
20
-3.025
40
0.5
50
0
51
90
0
ARC
8
0
10
193.525
20
-3.025
40
0.5
50
90
51
180
0
LINE
8
0
10
193.525
20
-16.525
11
206.525
21
-16.525
0
LINE
8
0
10
206.525
20
-2.525
11
193.525
21
-2.525
0
LINE
8
0
10
207.025
20
-16.025
11
207.025
21
-3.025
0
LINE
8
0
10
193.025
20
-3.025
11
193.025
21
-16.025
0
ARC
8
0
10
212.575
20
-16.025
40
0.5
50
180
51
270
0
ARC
8
0
10
225.575
20
-16.025
40
0.5
50
270
51
0
0
ARC
8
0
10
225.575
20
-3.025
40
0.5
50
0
51
90
0
ARC
8
0
10
212.575
20
-3.025
40
0.5
50
90
51
180
0
LINE
8
0
10
212.575
20
-16.525
11
225.575
21
-16.525
0
LINE
8
0
10
225.575
20
-2.525
11
212.575
21
-2.525
0
LINE
8
0
10
226.075
20
-16.025
11
226.075
21
-3.025
0
LINE
8
0
10
212.075
20
-3.025
11
212.075
21
-16.025
0
ARC
8
0
10
231.625
20
-16.025
40
0.5
50
180
51
270
0
ARC
8
0
10
244.625
20
-16.025
40
0.5
50
270
51
0
0
ARC
8
0
10
244.625
20
-3.025
40
0.5
50
0
51
90
0
ARC
8
0
10
231.625
20
-3.025
40
0.5
50
90
51
180
0
LINE
8
0
10
231.625
20
-16.525
11
244.625
21
-16.525
0
LINE
8
0
10
244.625
20
-2.525
11
231.625
21
-2.525
0
LINE
8
0
10
245.125
20
-16.025
11
245.125
21
-3.025
0
LINE
8
0
10
231.125
20
-3.025
11
231.125
21
-16.025
0
ARC
8
0
10
250.675
20
-16.025
40
0.5
50
180
51
270
0
ARC
8
0
10
263.675
20
-16.025
40
0.5
50
270
51
0
0
ARC
8
0
10
263.675
20
-3.025
40
0.5
50
0
51
90
0
ARC
8
0
10
250.675
20
-3.025
40
0.5
50
90
51
180
0
LINE
8
0
10
250.675
20
-16.525
11
263.675
21
-16.525
0
LINE
8
0
10
263.675
20
-2.525
11
250.675
21
-2.525
0
LINE
8
0
10
264.175
20
-16.025
11
264.175
21
-3.025
0
LINE
8
0
10
250.175
20
-3.025
11
250.175
21
-16.025
0
ARC
8
0
10
269.725
20
-16.025
40
0.5
50
180
51
270
0
ARC
8
0
10
282.725
20
-16.025
40
0.5
50
270
51
0
0
ARC
8
0
10
282.725
20
-3.025
40
0.5
50
0
51
90
0
ARC
8
0
10
269.725
20
-3.025
40
0.5
50
90
51
180
0
LINE
8
0
10
269.725
20
-16.525
11
282.725
21
-16.525
0
LINE
8
0
10
282.725
20
-2.525
11
269.725
21
-2.525
0
LINE
8
0
10
283.225
20
-16.025
11
283.225
21
-3.025
0
LINE
8
0
10
269.225
20
-3.025
11
269.225
21
-16.025
0
ARC
8
0
10
3.025
20
-35.075
40
0.5
50
180
51
270
0
ARC
8
0
10
16.025
20
-35.075
40
0.5
50
270
51
0
0
ARC
8
0
10
16.025
20
-22.075
40
0.5
50
0
51
90
0
ARC
8
0
10
3.025
20
-22.075
40
0.5
50
90
51
180
0
LINE
8
0
10
3.025
20
-35.575
11
16.025
21
-35.575
0
LINE
8
0
10
16.025
20
-21.575
11
3.025
21
-21.575
0
LINE
8
0
10
16.525
20
-35.075
11
16.525
21
-22.075
0
LINE
8
0
10
2.525
20
-22.075
11
2.525
21
-35.075
0
ARC
8
0
10
22.075
20
-35.075
40
0.5
50
180
51
270
0
ARC
8
0
10
35.075
20
-35.075
40
0.5
50
270
51
0
0
ARC
8
0
10
35.075
20
-22.075
40
0.5
50
0
51
90
0
ARC
8
0
10
22.075
20
-22.075
40
0.5
50
90
51
180
0
LINE
8
0
10
22.075
20
-35.575
11
35.075
21
-35.575
0
LINE
8
0
10
35.075
20
-21.575
11
22.075
21
-21.575
0
LINE
8
0
10
35.575
20
-35.075
11
35.575
21
-22.075
0
LINE
8
0
10
21.575
20
-22.075
11
21.575
21
-35.075
0
ARC
8
0
10
41.125
20
-35.075
40
0.5
50
180
51
270
0
ARC
8
0
10
54.125
20
-35.075
40
0.5
50
270
51
0
0
ARC
8
0
10
54.125
20
-22.075
40
0.5
50
0
51
90
0
ARC
8
0
10
41.125
20
-22.075
40
0.5
50
90
51
180
0
LINE
8
0
10
41.125
20
-35.575
11
54.125
21
-35.575
0
LINE
8
0
10
54.125
20
-21.575
11
41.125
21
-21.575
0
LINE
8
0
10
54.625
20
-35.075
11
54.625
21
-22.075
0
LINE
8
0
10
40.625
20
-22.075
11
40.625
21
-35.075
0
ARC
8
0
10
60.175
20
-35.075
40
0.5
50
180
51
270
0
ARC
8
0
10
73.175
20
-35.075
40
0.5
50
270
51
0
0
ARC
8
0
10
73.175
20
-22.075
40
0.5
50
0
51
90
0
ARC
8
0
10
60.175
20
-22.075
40
0.5
50
90
51
180
0
LINE
8
0
10
60.175
20
-35.575
11
73.175
21
-35.575
0
LINE
8
0
10
73.175
20
-21.575
11
60.175
21
-21.575
0
LINE
8
0
10
73.675
20
-35.075
11
73.675
21
-22.075
0
LINE
8
0
10
59.675
20
-22.075
11
59.675
21
-35.075
0
ARC
8
0
10
79.225
20
-35.075
40
0.5
50
180
51
270
0
ARC
8
0
10
92.225
20
-35.075
40
0.5
50
270
51
0
0
ARC
8
0
10
92.225
20
-22.075
40
0.5
50
0
51
90
0
ARC
8
0
10
79.225
20
-22.075
40
0.5
50
90
51
180
0
LINE
8
0
10
79.225
20
-35.575
11
92.225
21
-35.575
0
LINE
8
0
10
92.225
20
-21.575
11
79.225
21
-21.575
0
LINE
8
0
10
92.725
20
-35.075
11
92.725
21
-22.075
0
LINE
8
0
10
78.725
20
-22.075
11
78.725
21
-35.075
0
ARC
8
0
10
98.275
20
-35.075
40
0.5
50
180
51
270
0
ARC
8
0
10
111.275
20
-35.075
40
0.5
50
270
51
0
0
ARC
8
0
10
111.275
20
-22.075
40
0.5
50
0
51
90
0
ARC
8
0
10
98.275
20
-22.075
40
0.5
50
90
51
180
0
LINE
8
0
10
98.275
20
-35.575
11
111.275
21
-35.575
0
LINE
8
0
10
111.275
20
-21.575
11
98.275
21
-21.575
0
LINE
8
0
10
111.775
20
-35.075
11
111.775
21
-22.075
0
LINE
8
0
10
97.775
20
-22.075
11
97.775
21
-35.075
0
ARC
8
0
10
117.325
20
-35.075
40
0.5
50
180
51
270
0
ARC
8
0
10
130.325
20
-35.075
40
0.5
50
270
51
0
0
ARC
8
0
10
130.325
20
-22.075
40
0.5
50
0
51
90
0
ARC
8
0
10
117.325
20
-22.075
40
0.5
50
90
51
180
0
LINE
8
0
10
117.325
20
-35.575
11
130.325
21
-35.575
0
LINE
8
0
10
130.325
20
-21.575
11
117.325
21
-21.575
0
LINE
8
0
10
130.825
20
-35.075
11
130.825
21
-22.075
0
LINE
8
0
10
116.825
20
-22.075
11
116.825
21
-35.075
0
ARC
8
0
10
136.375
20
-35.075
40
0.5
50
180
51
270
0
ARC
8
0
10
149.375
20
-35.075
40
0.5
50
270
51
0
0
ARC
8
0
10
149.375
20
-22.075
40
0.5
50
0
51
90
0
ARC
8
0
10
136.375
20
-22.075
40
0.5
50
90
51
180
0
LINE
8
0
10
136.375
20
-35.575
11
149.375
21
-35.575
0
LINE
8
0
10
149.375
20
-21.575
11
136.375
21
-21.575
0
LINE
8
0
10
149.875
20
-35.075
11
149.875
21
-22.075
0
LINE
8
0
10
135.875
20
-22.075
11
135.875
21
-35.075
0
ARC
8
0
10
155.425
20
-35.075
40
0.5
50
180
51
270
0
ARC
8
0
10
168.425
20
-35.075
40
0.5
50
270
51
0
0
ARC
8
0
10
168.425
20
-22.075
40
0.5
50
0
51
90
0
ARC
8
0
10
155.425
20
-22.075
40
0.5
50
90
51
180
0
LINE
8
0
10
155.425
20
-35.575
11
168.425
21
-35.575
0
LINE
8
0
10
168.425
20
-21.575
11
155.425
21
-21.575
0
LINE
8
0
10
168.925
20
-35.075
11
168.925
21
-22.075
0
LINE
8
0
10
154.925
20
-22.075
11
154.925
21
-35.075
0
ARC
8
0
10
174.475
20
-35.075
40
0.5
50
180
51
270
0
ARC
8
0
10
187.475
20
-35.075
40
0.5
50
270
51
0
0
ARC
8
0
10
187.475
20
-22.075
40
0.5
50
0
51
90
0
ARC
8
0
10
174.475
20
-22.075
40
0.5
50
90
51
180
0
LINE
8
0
10
174.475
20
-35.575
11
187.475
21
-35.575
0
LINE
8
0
10
187.475
20
-21.575
11
174.475
21
-21.575
0
LINE
8
0
10
187.975
20
-35.075
11
187.975
21
-22.075
0
LINE
8
0
10
173.975
20
-22.075
11
173.975
21
-35.075
0
ARC
8
0
10
193.525
20
-35.075
40
0.5
50
180
51
270
0
ARC
8
0
10
206.525
20
-35.075
40
0.5
50
270
51
0
0
ARC
8
0
10
206.525
20
-22.075
40
0.5
50
0
51
90
0
ARC
8
0
10
193.525
20
-22.075
40
0.5
50
90
51
180
0
LINE
8
0
10
193.525
20
-35.575
11
206.525
21
-35.575
0
LINE
8
0
10
206.525
20
-21.575
11
193.525
21
-21.575
0
LINE
8
0
10
207.025
20
-35.075
11
207.025
21
-22.075
0
LINE
8
0
10
193.025
20
-22.075
11
193.025
21
-35.075
0
ARC
8
0
10
212.575
20
-35.075
40
0.5
50
180
51
270
0
ARC
8
0
10
225.575
20
-35.075
40
0.5
50
270
51
0
0
ARC
8
0
10
225.575
20
-22.075
40
0.5
50
0
51
90
0
ARC
8
0
10
212.575
20
-22.075
40
0.5
50
90
51
180
0
LINE
8
0
10
212.575
20
-35.575
11
225.575
21
-35.575
0
LINE
8
0
10
225.575
20
-21.575
11
212.575
21
-21.575
0
LINE
8
0
10
226.075
20
-35.075
11
226.075
21
-22.075
0
LINE
8
0
10
212.075
20
-22.075
11
212.075
21
-35.075
0
ARC
8
0
10
231.625
20
-35.075
40
0.5
50
180
51
270
0
ARC
8
0
10
244.625
20
-35.075
40
0.5
50
270
51
0
0
ARC
8
0
10
244.625
20
-22.075
40
0.5
50
0
51
90
0
ARC
8
0
10
231.625
20
-22.075
40
0.5
50
90
51
180
0
LINE
8
0
10
231.625
20
-35.575
11
244.625
21
-35.575
0
LINE
8
0
10
244.625
20
-21.575
11
231.625
21
-21.575
0
LINE
8
0
10
245.125
20
-35.075
11
245.125
21
-22.075
0
LINE
8
0
10
231.125
20
-22.075
11
231.125
21
-35.075
0
ARC
8
0
10
250.675
20
-35.075
40
0.5
50
180
51
270
0
ARC
8
0
10
263.675
20
-35.075
40
0.5
50
270
51
0
0
ARC
8
0
10
263.675
20
-22.075
40
0.5
50
0
51
90
0
ARC
8
0
10
250.675
20
-22.075
40
0.5
50
90
51
180
0
LINE
8
0
10
250.675
20
-35.575
11
263.675
21
-35.575
0
LINE
8
0
10
263.675
20
-21.575
11
250.675
21
-21.575
0
LINE
8
0
10
264.175
20
-35.075
11
264.175
21
-22.075
0
LINE
8
0
10
250.175
20
-22.075
11
250.175
21
-35.075
0
ARC
8
0
10
269.725
20
-35.075
40
0.5
50
180
51
270
0
ARC
8
0
10
269.725
20
-22.075
40
0.5
50
90
51
180
0
LINE
8
0
10
269.725
20
-35.575
11
270.312
21
-35.575
0
LINE
8
0
10
279.25
20
-35.575
11
282.725
21
-35.575
0
LINE
8
0
10
277.312
20
-35.575
11
279.25
21
-35.575
0
LINE
8
0
10
282.725
20
-21.575
11
279.25
21
-21.575
0
LINE
8
0
10
279.25
20
-21.575
11
276.812
21
-21.575
0
LINE
8
0
10
276.812
20
-21.575
11
270.812
21
-21.575
0
LINE
8
0
10
270.812
20
-21.575
11
269.725
21
-21.575
0
LINE
8
0
10
269.225
20
-22.075
11
269.225
21
-35.075
0
LINE
8
0
10
282.725
20
-35.575
11
288.775
21
-35.575
0
LINE
8
0
10
288.775
20
-35.575
11
292.25
21
-35.575
0
LINE
8
0
10
292.25
20
-21.575
11
288.775
21
-21.575
0
LINE
8
0
10
288.775
20
-21.575
11
282.725
21
-21.575
0
ARC
8
0
10
270.812
20
-36.075
40
0.5
50
180
51
270
0
ARC
8
0
10
276.812
20
-36.075
40
0.5
50
270
51
0
0
LINE
8
0
10
270.812
20
-36.575
11
276.812
21
-36.575
0
LINE
8
0
10
277.312
20
-36.075
11
277.312
21
-35.575
0
LINE
8
0
10
270.312
20
-35.575
11
270.312
21
-36.075
0
ARC
8
0
10
294.688
20
-36.075
40
0.5
50
180
51
270
0
ARC
8
0
10
300.688
20
-36.075
40
0.5
50
270
51
0
0
LINE
8
0
10
294.688
20
-36.575
11
300.688
21
-36.575
0
LINE
8
0
10
300.688
20
-21.575
11
294.688
21
-21.575
0
LINE
8
0
10
301.188
20
-36.075
11
301.188
21
-35.575
0
LINE
8
0
10
294.188
20
-35.575
11
294.188
21
-36.075
0
ARC
8
0
10
301.775
20
-35.075
40
0.5
50
270
51
0
0
ARC
8
0
10
301.775
20
-22.075
40
0.5
50
0
51
90
0
LINE
8
0
10
292.25
20
-35.575
11
294.188
21
-35.575
0
LINE
8
0
10
301.188
20
-35.575
11
301.775
21
-35.575
0
LINE
8
0
10
301.775
20
-21.575
11
300.688
21
-21.575
0
LINE
8
0
10
294.688
20
-21.575
11
292.25
21
-21.575
0
LINE
8
0
10
302.275
20
-35.075
11
302.275
21
-22.075
0
ARC
8
0
10
307.825
20
-35.075
40
0.5
50
180
51
270
0
ARC
8
0
10
320.825
20
-35.075
40
0.5
50
270
51
0
0
ARC
8
0
10
320.825
20
-22.075
40
0.5
50
0
51
90
0
ARC
8
0
10
307.825
20
-22.075
40
0.5
50
90
51
180
0
LINE
8
0
10
307.825
20
-35.575
11
320.825
21
-35.575
0
LINE
8
0
10
320.825
20
-21.575
11
307.825
21
-21.575
0
LINE
8
0
10
321.325
20
-35.075
11
321.325
21
-22.075
0
LINE
8
0
10
307.325
20
-22.075
11
307.325
21
-35.075
0
ARC
8
0
10
3.025
20
-54.125
40
0.5
50
180
51
270
0
ARC
8
0
10
16.025
20
-54.125
40
0.5
50
270
51
0
0
ARC
8
0
10
16.025
20
-41.125
40
0.5
50
0
51
90
0
ARC
8
0
10
3.025
20
-41.125
40
0.5
50
90
51
180
0
LINE
8
0
10
3.025
20
-54.625
11
16.025
21
-54.625
0
LINE
8
0
10
16.025
20
-40.625
11
3.025
21
-40.625
0
LINE
8
0
10
16.525
20
-54.125
11
16.525
21
-41.125
0
LINE
8
0
10
2.525
20
-41.125
11
2.525
21
-54.125
0
ARC
8
0
10
26.8375
20
-54.125
40
0.5
50
180
51
270
0
ARC
8
0
10
39.8375
20
-54.125
40
0.5
50
270
51
0
0
ARC
8
0
10
39.8375
20
-41.125
40
0.5
50
0
51
90
0
ARC
8
0
10
26.8375
20
-41.125
40
0.5
50
90
51
180
0
LINE
8
0
10
26.8375
20
-54.625
11
39.8375
21
-54.625
0
LINE
8
0
10
39.8375
20
-40.625
11
26.8375
21
-40.625
0
LINE
8
0
10
40.3375
20
-54.125
11
40.3375
21
-41.125
0
LINE
8
0
10
26.3375
20
-41.125
11
26.3375
21
-54.125
0
ARC
8
0
10
50.65
20
-54.125
40
0.5
50
180
51
270
0
ARC
8
0
10
63.65
20
-54.125
40
0.5
50
270
51
0
0
ARC
8
0
10
63.65
20
-41.125
40
0.5
50
0
51
90
0
ARC
8
0
10
50.65
20
-41.125
40
0.5
50
90
51
180
0
LINE
8
0
10
50.65
20
-54.625
11
63.65
21
-54.625
0
LINE
8
0
10
63.65
20
-40.625
11
50.65
21
-40.625
0
LINE
8
0
10
64.15
20
-54.125
11
64.15
21
-41.125
0
LINE
8
0
10
50.15
20
-41.125
11
50.15
21
-54.125
0
ARC
8
0
10
69.7
20
-54.125
40
0.5
50
180
51
270
0
ARC
8
0
10
82.7
20
-54.125
40
0.5
50
270
51
0
0
ARC
8
0
10
82.7
20
-41.125
40
0.5
50
0
51
90
0
ARC
8
0
10
69.7
20
-41.125
40
0.5
50
90
51
180
0
LINE
8
0
10
69.7
20
-54.625
11
82.7
21
-54.625
0
LINE
8
0
10
82.7
20
-40.625
11
69.7
21
-40.625
0
LINE
8
0
10
83.2
20
-54.125
11
83.2
21
-41.125
0
LINE
8
0
10
69.2
20
-41.125
11
69.2
21
-54.125
0
ARC
8
0
10
88.75
20
-54.125
40
0.5
50
180
51
270
0
ARC
8
0
10
101.75
20
-54.125
40
0.5
50
270
51
0
0
ARC
8
0
10
101.75
20
-41.125
40
0.5
50
0
51
90
0
ARC
8
0
10
88.75
20
-41.125
40
0.5
50
90
51
180
0
LINE
8
0
10
88.75
20
-54.625
11
101.75
21
-54.625
0
LINE
8
0
10
101.75
20
-40.625
11
88.75
21
-40.625
0
LINE
8
0
10
102.25
20
-54.125
11
102.25
21
-41.125
0
LINE
8
0
10
88.25
20
-41.125
11
88.25
21
-54.125
0
ARC
8
0
10
107.8
20
-54.125
40
0.5
50
180
51
270
0
ARC
8
0
10
120.8
20
-54.125
40
0.5
50
270
51
0
0
ARC
8
0
10
120.8
20
-41.125
40
0.5
50
0
51
90
0
ARC
8
0
10
107.8
20
-41.125
40
0.5
50
90
51
180
0
LINE
8
0
10
107.8
20
-54.625
11
120.8
21
-54.625
0
LINE
8
0
10
120.8
20
-40.625
11
107.8
21
-40.625
0
LINE
8
0
10
121.3
20
-54.125
11
121.3
21
-41.125
0
LINE
8
0
10
107.3
20
-41.125
11
107.3
21
-54.125
0
ARC
8
0
10
126.85
20
-54.125
40
0.5
50
180
51
270
0
ARC
8
0
10
139.85
20
-54.125
40
0.5
50
270
51
0
0
ARC
8
0
10
139.85
20
-41.125
40
0.5
50
0
51
90
0
ARC
8
0
10
126.85
20
-41.125
40
0.5
50
90
51
180
0
LINE
8
0
10
126.85
20
-54.625
11
139.85
21
-54.625
0
LINE
8
0
10
139.85
20
-40.625
11
126.85
21
-40.625
0
LINE
8
0
10
140.35
20
-54.125
11
140.35
21
-41.125
0
LINE
8
0
10
126.35
20
-41.125
11
126.35
21
-54.125
0
ARC
8
0
10
145.9
20
-54.125
40
0.5
50
180
51
270
0
ARC
8
0
10
158.9
20
-54.125
40
0.5
50
270
51
0
0
ARC
8
0
10
158.9
20
-41.125
40
0.5
50
0
51
90
0
ARC
8
0
10
145.9
20
-41.125
40
0.5
50
90
51
180
0
LINE
8
0
10
145.9
20
-54.625
11
158.9
21
-54.625
0
LINE
8
0
10
158.9
20
-40.625
11
145.9
21
-40.625
0
LINE
8
0
10
159.4
20
-54.125
11
159.4
21
-41.125
0
LINE
8
0
10
145.4
20
-41.125
11
145.4
21
-54.125
0
ARC
8
0
10
164.95
20
-54.125
40
0.5
50
180
51
270
0
ARC
8
0
10
177.95
20
-54.125
40
0.5
50
270
51
0
0
ARC
8
0
10
177.95
20
-41.125
40
0.5
50
0
51
90
0
ARC
8
0
10
164.95
20
-41.125
40
0.5
50
90
51
180
0
LINE
8
0
10
164.95
20
-54.625
11
177.95
21
-54.625
0
LINE
8
0
10
177.95
20
-40.625
11
164.95
21
-40.625
0
LINE
8
0
10
178.45
20
-54.125
11
178.45
21
-41.125
0
LINE
8
0
10
164.45
20
-41.125
11
164.45
21
-54.125
0
ARC
8
0
10
184
20
-54.125
40
0.5
50
180
51
270
0
ARC
8
0
10
197
20
-54.125
40
0.5
50
270
51
0
0
ARC
8
0
10
197
20
-41.125
40
0.5
50
0
51
90
0
ARC
8
0
10
184
20
-41.125
40
0.5
50
90
51
180
0
LINE
8
0
10
184
20
-54.625
11
197
21
-54.625
0
LINE
8
0
10
197
20
-40.625
11
184
21
-40.625
0
LINE
8
0
10
197.5
20
-54.125
11
197.5
21
-41.125
0
LINE
8
0
10
183.5
20
-41.125
11
183.5
21
-54.125
0
ARC
8
0
10
203.05
20
-54.125
40
0.5
50
180
51
270
0
ARC
8
0
10
216.05
20
-54.125
40
0.5
50
270
51
0
0
ARC
8
0
10
216.05
20
-41.125
40
0.5
50
0
51
90
0
ARC
8
0
10
203.05
20
-41.125
40
0.5
50
90
51
180
0
LINE
8
0
10
203.05
20
-54.625
11
216.05
21
-54.625
0
LINE
8
0
10
216.05
20
-40.625
11
203.05
21
-40.625
0
LINE
8
0
10
216.55
20
-54.125
11
216.55
21
-41.125
0
LINE
8
0
10
202.55
20
-41.125
11
202.55
21
-54.125
0
ARC
8
0
10
222.1
20
-54.125
40
0.5
50
180
51
270
0
ARC
8
0
10
235.1
20
-54.125
40
0.5
50
270
51
0
0
ARC
8
0
10
235.1
20
-41.125
40
0.5
50
0
51
90
0
ARC
8
0
10
222.1
20
-41.125
40
0.5
50
90
51
180
0
LINE
8
0
10
222.1
20
-54.625
11
235.1
21
-54.625
0
LINE
8
0
10
235.1
20
-40.625
11
222.1
21
-40.625
0
LINE
8
0
10
235.6
20
-54.125
11
235.6
21
-41.125
0
LINE
8
0
10
221.6
20
-41.125
11
221.6
21
-54.125
0
ARC
8
0
10
241.15
20
-54.125
40
0.5
50
180
51
270
0
ARC
8
0
10
254.15
20
-54.125
40
0.5
50
270
51
0
0
ARC
8
0
10
254.15
20
-41.125
40
0.5
50
0
51
90
0
ARC
8
0
10
241.15
20
-41.125
40
0.5
50
90
51
180
0
LINE
8
0
10
241.15
20
-54.625
11
254.15
21
-54.625
0
LINE
8
0
10
254.15
20
-40.625
11
241.15
21
-40.625
0
LINE
8
0
10
254.65
20
-54.125
11
254.65
21
-41.125
0
LINE
8
0
10
240.65
20
-41.125
11
240.65
21
-54.125
0
ARC
8
0
10
260.2
20
-54.125
40
0.5
50
180
51
270
0
ARC
8
0
10
273.2
20
-54.125
40
0.5
50
270
51
0
0
ARC
8
0
10
273.2
20
-41.125
40
0.5
50
0
51
90
0
ARC
8
0
10
260.2
20
-41.125
40
0.5
50
90
51
180
0
LINE
8
0
10
260.2
20
-54.625
11
273.2
21
-54.625
0
LINE
8
0
10
273.2
20
-40.625
11
260.2
21
-40.625
0
LINE
8
0
10
273.7
20
-54.125
11
273.7
21
-41.125
0
LINE
8
0
10
259.7
20
-41.125
11
259.7
21
-54.125
0
ARC
8
0
10
284.0125
20
-54.125
40
0.5
50
180
51
270
0
ARC
8
0
10
297.0125
20
-54.125
40
0.5
50
270
51
0
0
ARC
8
0
10
297.0125
20
-41.125
40
0.5
50
0
51
90
0
ARC
8
0
10
284.0125
20
-41.125
40
0.5
50
90
51
180
0
LINE
8
0
10
284.0125
20
-54.625
11
297.0125
21
-54.625
0
LINE
8
0
10
297.0125
20
-40.625
11
284.0125
21
-40.625
0
LINE
8
0
10
297.5125
20
-54.125
11
297.5125
21
-41.125
0
LINE
8
0
10
283.5125
20
-41.125
11
283.5125
21
-54.125
0
ARC
8
0
10
307.825
20
-54.125
40
0.5
50
180
51
270
0
ARC
8
0
10
320.825
20
-54.125
40
0.5
50
270
51
0
0
ARC
8
0
10
320.825
20
-41.125
40
0.5
50
0
51
90
0
ARC
8
0
10
307.825
20
-41.125
40
0.5
50
90
51
180
0
LINE
8
0
10
307.825
20
-54.625
11
320.825
21
-54.625
0
LINE
8
0
10
320.825
20
-40.625
11
307.825
21
-40.625
0
LINE
8
0
10
321.325
20
-54.125
11
321.325
21
-41.125
0
LINE
8
0
10
307.325
20
-41.125
11
307.325
21
-54.125
0
ARC
8
0
10
3.025
20
-73.175
40
0.5
50
180
51
270
0
ARC
8
0
10
16.025
20
-73.175
40
0.5
50
270
51
0
0
ARC
8
0
10
16.025
20
-60.175
40
0.5
50
0
51
90
0
ARC
8
0
10
3.025
20
-60.175
40
0.5
50
90
51
180
0
LINE
8
0
10
3.025
20
-73.675
11
16.025
21
-73.675
0
LINE
8
0
10
16.025
20
-59.675
11
3.025
21
-59.675
0
LINE
8
0
10
16.525
20
-73.175
11
16.525
21
-60.175
0
LINE
8
0
10
2.525
20
-60.175
11
2.525
21
-73.175
0
ARC
8
0
10
24.45625
20
-73.175
40
0.5
50
180
51
270
0
ARC
8
0
10
24.45625
20
-60.175
40
0.5
50
90
51
180
0
LINE
8
0
10
24.45625
20
-73.675
11
29.21875
21
-73.675
0
LINE
8
0
10
29.21875
20
-73.675
11
37.45625
21
-73.675
0
LINE
8
0
10
37.45625
20
-59.675
11
29.21875
21
-59.675
0
LINE
8
0
10
29.21875
20
-59.675
11
24.45625
21
-59.675
0
LINE
8
0
10
23.95625
20
-60.175
11
23.95625
21
-73.175
0
ARC
8
0
10
42.21875
20
-73.175
40
0.5
50
270
51
0
0
ARC
8
0
10
42.21875
20
-60.175
40
0.5
50
0
51
90
0
LINE
8
0
10
37.45625
20
-73.675
11
42.21875
21
-73.675
0
LINE
8
0
10
42.21875
20
-59.675
11
37.45625
21
-59.675
0
LINE
8
0
10
42.71875
20
-73.175
11
42.71875
21
-60.175
0
ARC
8
0
10
55.4125
20
-73.175
40
0.5
50
180
51
270
0
ARC
8
0
10
68.4125
20
-73.175
40
0.5
50
270
51
0
0
ARC
8
0
10
68.4125
20
-60.175
40
0.5
50
0
51
90
0
ARC
8
0
10
55.4125
20
-60.175
40
0.5
50
90
51
180
0
LINE
8
0
10
55.4125
20
-73.675
11
68.4125
21
-73.675
0
LINE
8
0
10
68.4125
20
-59.675
11
55.4125
21
-59.675
0
LINE
8
0
10
68.9125
20
-73.175
11
68.9125
21
-60.175
0
LINE
8
0
10
54.9125
20
-60.175
11
54.9125
21
-73.175
0
ARC
8
0
10
74.4625
20
-73.175
40
0.5
50
180
51
270
0
ARC
8
0
10
87.4625
20
-73.175
40
0.5
50
270
51
0
0
ARC
8
0
10
87.4625
20
-60.175
40
0.5
50
0
51
90
0
ARC
8
0
10
74.4625
20
-60.175
40
0.5
50
90
51
180
0
LINE
8
0
10
74.4625
20
-73.675
11
87.4625
21
-73.675
0
LINE
8
0
10
87.4625
20
-59.675
11
74.4625
21
-59.675
0
LINE
8
0
10
87.9625
20
-73.175
11
87.9625
21
-60.175
0
LINE
8
0
10
73.9625
20
-60.175
11
73.9625
21
-73.175
0
ARC
8
0
10
93.5125
20
-73.175
40
0.5
50
180
51
270
0
ARC
8
0
10
106.5125
20
-73.175
40
0.5
50
270
51
0
0
ARC
8
0
10
106.5125
20
-60.175
40
0.5
50
0
51
90
0
ARC
8
0
10
93.5125
20
-60.175
40
0.5
50
90
51
180
0
LINE
8
0
10
93.5125
20
-73.675
11
106.5125
21
-73.675
0
LINE
8
0
10
106.5125
20
-59.675
11
93.5125
21
-59.675
0
LINE
8
0
10
107.0125
20
-73.175
11
107.0125
21
-60.175
0
LINE
8
0
10
93.0125
20
-60.175
11
93.0125
21
-73.175
0
ARC
8
0
10
112.5625
20
-73.175
40
0.5
50
180
51
270
0
ARC
8
0
10
125.5625
20
-73.175
40
0.5
50
270
51
0
0
ARC
8
0
10
125.5625
20
-60.175
40
0.5
50
0
51
90
0
ARC
8
0
10
112.5625
20
-60.175
40
0.5
50
90
51
180
0
LINE
8
0
10
112.5625
20
-73.675
11
125.5625
21
-73.675
0
LINE
8
0
10
125.5625
20
-59.675
11
112.5625
21
-59.675
0
LINE
8
0
10
126.0625
20
-73.175
11
126.0625
21
-60.175
0
LINE
8
0
10
112.0625
20
-60.175
11
112.0625
21
-73.175
0
ARC
8
0
10
131.6125
20
-73.175
40
0.5
50
180
51
270
0
ARC
8
0
10
144.6125
20
-73.175
40
0.5
50
270
51
0
0
ARC
8
0
10
144.6125
20
-60.175
40
0.5
50
0
51
90
0
ARC
8
0
10
131.6125
20
-60.175
40
0.5
50
90
51
180
0
LINE
8
0
10
131.6125
20
-73.675
11
144.6125
21
-73.675
0
LINE
8
0
10
144.6125
20
-59.675
11
131.6125
21
-59.675
0
LINE
8
0
10
145.1125
20
-73.175
11
145.1125
21
-60.175
0
LINE
8
0
10
131.1125
20
-60.175
11
131.1125
21
-73.175
0
ARC
8
0
10
150.6625
20
-73.175
40
0.5
50
180
51
270
0
ARC
8
0
10
163.6625
20
-73.175
40
0.5
50
270
51
0
0
ARC
8
0
10
163.6625
20
-60.175
40
0.5
50
0
51
90
0
ARC
8
0
10
150.6625
20
-60.175
40
0.5
50
90
51
180
0
LINE
8
0
10
150.6625
20
-73.675
11
163.6625
21
-73.675
0
LINE
8
0
10
163.6625
20
-59.675
11
150.6625
21
-59.675
0
LINE
8
0
10
164.1625
20
-73.175
11
164.1625
21
-60.175
0
LINE
8
0
10
150.1625
20
-60.175
11
150.1625
21
-73.175
0
ARC
8
0
10
169.7125
20
-73.175
40
0.5
50
180
51
270
0
ARC
8
0
10
182.7125
20
-73.175
40
0.5
50
270
51
0
0
ARC
8
0
10
182.7125
20
-60.175
40
0.5
50
0
51
90
0
ARC
8
0
10
169.7125
20
-60.175
40
0.5
50
90
51
180
0
LINE
8
0
10
169.7125
20
-73.675
11
182.7125
21
-73.675
0
LINE
8
0
10
182.7125
20
-59.675
11
169.7125
21
-59.675
0
LINE
8
0
10
183.2125
20
-73.175
11
183.2125
21
-60.175
0
LINE
8
0
10
169.2125
20
-60.175
11
169.2125
21
-73.175
0
ARC
8
0
10
188.7625
20
-73.175
40
0.5
50
180
51
270
0
ARC
8
0
10
201.7625
20
-73.175
40
0.5
50
270
51
0
0
ARC
8
0
10
201.7625
20
-60.175
40
0.5
50
0
51
90
0
ARC
8
0
10
188.7625
20
-60.175
40
0.5
50
90
51
180
0
LINE
8
0
10
188.7625
20
-73.675
11
201.7625
21
-73.675
0
LINE
8
0
10
201.7625
20
-59.675
11
188.7625
21
-59.675
0
LINE
8
0
10
202.2625
20
-73.175
11
202.2625
21
-60.175
0
LINE
8
0
10
188.2625
20
-60.175
11
188.2625
21
-73.175
0
ARC
8
0
10
207.8125
20
-73.175
40
0.5
50
180
51
270
0
ARC
8
0
10
220.8125
20
-73.175
40
0.5
50
270
51
0
0
ARC
8
0
10
220.8125
20
-60.175
40
0.5
50
0
51
90
0
ARC
8
0
10
207.8125
20
-60.175
40
0.5
50
90
51
180
0
LINE
8
0
10
207.8125
20
-73.675
11
220.8125
21
-73.675
0
LINE
8
0
10
220.8125
20
-59.675
11
207.8125
21
-59.675
0
LINE
8
0
10
221.3125
20
-73.175
11
221.3125
21
-60.175
0
LINE
8
0
10
207.3125
20
-60.175
11
207.3125
21
-73.175
0
ARC
8
0
10
226.8625
20
-73.175
40
0.5
50
180
51
270
0
ARC
8
0
10
239.8625
20
-73.175
40
0.5
50
270
51
0
0
ARC
8
0
10
239.8625
20
-60.175
40
0.5
50
0
51
90
0
ARC
8
0
10
226.8625
20
-60.175
40
0.5
50
90
51
180
0
LINE
8
0
10
226.8625
20
-73.675
11
239.8625
21
-73.675
0
LINE
8
0
10
239.8625
20
-59.675
11
226.8625
21
-59.675
0
LINE
8
0
10
240.3625
20
-73.175
11
240.3625
21
-60.175
0
LINE
8
0
10
226.3625
20
-60.175
11
226.3625
21
-73.175
0
ARC
8
0
10
245.9125
20
-73.175
40
0.5
50
180
51
270
0
ARC
8
0
10
258.9125
20
-73.175
40
0.5
50
270
51
0
0
ARC
8
0
10
258.9125
20
-60.175
40
0.5
50
0
51
90
0
ARC
8
0
10
245.9125
20
-60.175
40
0.5
50
90
51
180
0
LINE
8
0
10
245.9125
20
-73.675
11
258.9125
21
-73.675
0
LINE
8
0
10
258.9125
20
-59.675
11
245.9125
21
-59.675
0
LINE
8
0
10
259.4125
20
-73.175
11
259.4125
21
-60.175
0
LINE
8
0
10
245.4125
20
-60.175
11
245.4125
21
-73.175
0
ARC
8
0
10
276.86875
20
-73.175
40
0.5
50
180
51
270
0
ARC
8
0
10
289.86875
20
-73.175
40
0.5
50
270
51
0
0
ARC
8
0
10
289.86875
20
-60.175
40
0.5
50
0
51
90
0
ARC
8
0
10
276.86875
20
-60.175
40
0.5
50
90
51
180
0
LINE
8
0
10
276.86875
20
-73.675
11
289.86875
21
-73.675
0
LINE
8
0
10
289.86875
20
-59.675
11
276.86875
21
-59.675
0
LINE
8
0
10
290.36875
20
-73.175
11
290.36875
21
-60.175
0
LINE
8
0
10
276.36875
20
-60.175
11
276.36875
21
-73.175
0
ARC
8
0
10
268.43075
20
-74.175
40
0.5
50
180
51
270
0
ARC
8
0
10
274.43075
20
-74.175
40
0.5
50
270
51
0
0
ARC
8
0
10
274.43075
20
-60.175
40
0.5
50
0
51
90
0
ARC
8
0
10
268.43075
20
-60.175
40
0.5
50
90
51
180
0
LINE
8
0
10
268.43075
20
-74.675
11
274.43075
21
-74.675
0
LINE
8
0
10
274.43075
20
-59.675
11
268.43075
21
-59.675
0
LINE
8
0
10
274.93075
20
-74.175
11
274.93075
21
-60.175
0
LINE
8
0
10
267.93075
20
-60.175
11
267.93075
21
-74.175
0
ARC
8
0
10
292.30675
20
-74.175
40
0.5
50
180
51
270
0
ARC
8
0
10
298.30675
20
-74.175
40
0.5
50
270
51
0
0
ARC
8
0
10
298.30675
20
-60.175
40
0.5
50
0
51
90
0
ARC
8
0
10
292.30675
20
-60.175
40
0.5
50
90
51
180
0
LINE
8
0
10
292.30675
20
-74.675
11
298.30675
21
-74.675
0
LINE
8
0
10
298.30675
20
-59.675
11
292.30675
21
-59.675
0
LINE
8
0
10
298.80675
20
-74.175
11
298.80675
21
-60.175
0
LINE
8
0
10
291.80675
20
-60.175
11
291.80675
21
-74.175
0
ARC
8
0
10
307.825
20
-73.175
40
0.5
50
180
51
270
0
ARC
8
0
10
320.825
20
-73.175
40
0.5
50
270
51
0
0
ARC
8
0
10
320.825
20
-60.175
40
0.5
50
0
51
90
0
ARC
8
0
10
307.825
20
-60.175
40
0.5
50
90
51
180
0
LINE
8
0
10
307.825
20
-73.675
11
320.825
21
-73.675
0
LINE
8
0
10
320.825
20
-59.675
11
307.825
21
-59.675
0
LINE
8
0
10
321.325
20
-73.175
11
321.325
21
-60.175
0
LINE
8
0
10
307.325
20
-60.175
11
307.325
21
-73.175
0
ARC
8
0
10
3.025
20
-92.225
40
0.5
50
180
51
270
0
ARC
8
0
10
16.025
20
-92.225
40
0.5
50
270
51
0
0
ARC
8
0
10
16.025
20
-79.225
40
0.5
50
0
51
90
0
ARC
8
0
10
3.025
20
-79.225
40
0.5
50
90
51
180
0
LINE
8
0
10
3.025
20
-92.725
11
16.025
21
-92.725
0
LINE
8
0
10
16.025
20
-78.725
11
3.025
21
-78.725
0
LINE
8
0
10
16.525
20
-92.225
11
16.525
21
-79.225
0
LINE
8
0
10
2.525
20
-79.225
11
2.525
21
-92.225
0
ARC
8
0
10
24.45625
20
-92.225
40
0.5
50
180
51
270
0
ARC
8
0
10
24.45625
20
-79.225
40
0.5
50
90
51
180
0
LINE
8
0
10
24.45625
20
-92.725
11
25.04325
21
-92.725
0
LINE
8
0
10
33.98125
20
-92.725
11
37.45625
21
-92.725
0
LINE
8
0
10
32.04325
20
-92.725
11
33.98125
21
-92.725
0
LINE
8
0
10
37.45625
20
-78.725
11
33.98125
21
-78.725
0
LINE
8
0
10
33.98125
20
-78.725
11
31.54325
21
-78.725
0
LINE
8
0
10
31.54325
20
-78.725
11
25.54325
21
-78.725
0
LINE
8
0
10
25.54325
20
-78.725
11
24.45625
21
-78.725
0
LINE
8
0
10
23.95625
20
-79.225
11
23.95625
21
-92.225
0
LINE
8
0
10
37.45625
20
-92.725
11
45.8875
21
-92.725
0
LINE
8
0
10
45.8875
20
-92.725
11
46.98125
21
-92.725
0
LINE
8
0
10
46.98125
20
-78.725
11
45.8875
21
-78.725
0
LINE
8
0
10
45.8875
20
-78.725
11
37.45625
21
-78.725
0
ARC
8
0
10
25.54325
20
-93.225
40
0.5
50
180
51
270
0
ARC
8
0
10
31.54325
20
-93.225
40
0.5
50
270
51
0
0
LINE
8
0
10
25.54325
20
-93.725
11
31.54325
21
-93.725
0
LINE
8
0
10
32.04325
20
-93.225
11
32.04325
21
-92.725
0
LINE
8
0
10
25.04325
20
-92.725
11
25.04325
21
-93.225
0
ARC
8
0
10
49.41925
20
-93.225
40
0.5
50
180
51
270
0
ARC
8
0
10
55.41925
20
-93.225
40
0.5
50
270
51
0
0
LINE
8
0
10
49.41925
20
-93.725
11
55.41925
21
-93.725
0
LINE
8
0
10
55.41925
20
-78.725
11
49.41925
21
-78.725
0
LINE
8
0
10
55.91925
20
-93.225
11
55.91925
21
-92.725
0
LINE
8
0
10
48.91925
20
-92.725
11
48.91925
21
-93.225
0
ARC
8
0
10
58.8875
20
-92.225
40
0.5
50
270
51
0
0
ARC
8
0
10
58.8875
20
-79.225
40
0.5
50
0
51
90
0
LINE
8
0
10
46.98125
20
-92.725
11
48.91925
21
-92.725
0
LINE
8
0
10
55.91925
20
-92.725
11
58.8875
21
-92.725
0
LINE
8
0
10
58.8875
20
-78.725
11
55.41925
21
-78.725
0
LINE
8
0
10
49.41925
20
-78.725
11
46.98125
21
-78.725
0
LINE
8
0
10
59.3875
20
-92.225
11
59.3875
21
-79.225
0
ARC
8
0
10
64.9375
20
-92.225
40
0.5
50
180
51
270
0
ARC
8
0
10
77.9375
20
-92.225
40
0.5
50
270
51
0
0
ARC
8
0
10
77.9375
20
-79.225
40
0.5
50
0
51
90
0
ARC
8
0
10
64.9375
20
-79.225
40
0.5
50
90
51
180
0
LINE
8
0
10
64.9375
20
-92.725
11
77.9375
21
-92.725
0
LINE
8
0
10
77.9375
20
-78.725
11
64.9375
21
-78.725
0
LINE
8
0
10
78.4375
20
-92.225
11
78.4375
21
-79.225
0
LINE
8
0
10
64.4375
20
-79.225
11
64.4375
21
-92.225
0
ARC
8
0
10
83.9875
20
-92.225
40
0.5
50
180
51
270
0
ARC
8
0
10
96.9875
20
-92.225
40
0.5
50
270
51
0
0
ARC
8
0
10
96.9875
20
-79.225
40
0.5
50
0
51
90
0
ARC
8
0
10
83.9875
20
-79.225
40
0.5
50
90
51
180
0
LINE
8
0
10
83.9875
20
-92.725
11
96.9875
21
-92.725
0
LINE
8
0
10
96.9875
20
-78.725
11
83.9875
21
-78.725
0
LINE
8
0
10
97.4875
20
-92.225
11
97.4875
21
-79.225
0
LINE
8
0
10
83.4875
20
-79.225
11
83.4875
21
-92.225
0
ARC
8
0
10
103.0375
20
-92.225
40
0.5
50
180
51
270
0
ARC
8
0
10
116.0375
20
-92.225
40
0.5
50
270
51
0
0
ARC
8
0
10
116.0375
20
-79.225
40
0.5
50
0
51
90
0
ARC
8
0
10
103.0375
20
-79.225
40
0.5
50
90
51
180
0
LINE
8
0
10
103.0375
20
-92.725
11
116.0375
21
-92.725
0
LINE
8
0
10
116.0375
20
-78.725
11
103.0375
21
-78.725
0
LINE
8
0
10
116.5375
20
-92.225
11
116.5375
21
-79.225
0
LINE
8
0
10
102.5375
20
-79.225
11
102.5375
21
-92.225
0
ARC
8
0
10
122.0875
20
-92.225
40
0.5
50
180
51
270
0
ARC
8
0
10
135.0875
20
-92.225
40
0.5
50
270
51
0
0
ARC
8
0
10
135.0875
20
-79.225
40
0.5
50
0
51
90
0
ARC
8
0
10
122.0875
20
-79.225
40
0.5
50
90
51
180
0
LINE
8
0
10
122.0875
20
-92.725
11
135.0875
21
-92.725
0
LINE
8
0
10
135.0875
20
-78.725
11
122.0875
21
-78.725
0
LINE
8
0
10
135.5875
20
-92.225
11
135.5875
21
-79.225
0
LINE
8
0
10
121.5875
20
-79.225
11
121.5875
21
-92.225
0
ARC
8
0
10
141.1375
20
-92.225
40
0.5
50
180
51
270
0
ARC
8
0
10
154.1375
20
-92.225
40
0.5
50
270
51
0
0
ARC
8
0
10
154.1375
20
-79.225
40
0.5
50
0
51
90
0
ARC
8
0
10
141.1375
20
-79.225
40
0.5
50
90
51
180
0
LINE
8
0
10
141.1375
20
-92.725
11
154.1375
21
-92.725
0
LINE
8
0
10
154.1375
20
-78.725
11
141.1375
21
-78.725
0
LINE
8
0
10
154.6375
20
-92.225
11
154.6375
21
-79.225
0
LINE
8
0
10
140.6375
20
-79.225
11
140.6375
21
-92.225
0
ARC
8
0
10
160.1875
20
-92.225
40
0.5
50
180
51
270
0
ARC
8
0
10
173.1875
20
-92.225
40
0.5
50
270
51
0
0
ARC
8
0
10
173.1875
20
-79.225
40
0.5
50
0
51
90
0
ARC
8
0
10
160.1875
20
-79.225
40
0.5
50
90
51
180
0
LINE
8
0
10
160.1875
20
-92.725
11
173.1875
21
-92.725
0
LINE
8
0
10
173.1875
20
-78.725
11
160.1875
21
-78.725
0
LINE
8
0
10
173.6875
20
-92.225
11
173.6875
21
-79.225
0
LINE
8
0
10
159.6875
20
-79.225
11
159.6875
21
-92.225
0
ARC
8
0
10
179.2375
20
-92.225
40
0.5
50
180
51
270
0
ARC
8
0
10
192.2375
20
-92.225
40
0.5
50
270
51
0
0
ARC
8
0
10
192.2375
20
-79.225
40
0.5
50
0
51
90
0
ARC
8
0
10
179.2375
20
-79.225
40
0.5
50
90
51
180
0
LINE
8
0
10
179.2375
20
-92.725
11
192.2375
21
-92.725
0
LINE
8
0
10
192.2375
20
-78.725
11
179.2375
21
-78.725
0
LINE
8
0
10
192.7375
20
-92.225
11
192.7375
21
-79.225
0
LINE
8
0
10
178.7375
20
-79.225
11
178.7375
21
-92.225
0
ARC
8
0
10
198.2875
20
-92.225
40
0.5
50
180
51
270
0
ARC
8
0
10
211.2875
20
-92.225
40
0.5
50
270
51
0
0
ARC
8
0
10
211.2875
20
-79.225
40
0.5
50
0
51
90
0
ARC
8
0
10
198.2875
20
-79.225
40
0.5
50
90
51
180
0
LINE
8
0
10
198.2875
20
-92.725
11
211.2875
21
-92.725
0
LINE
8
0
10
211.2875
20
-78.725
11
198.2875
21
-78.725
0
LINE
8
0
10
211.7875
20
-92.225
11
211.7875
21
-79.225
0
LINE
8
0
10
197.7875
20
-79.225
11
197.7875
21
-92.225
0
ARC
8
0
10
217.3375
20
-92.225
40
0.5
50
180
51
270
0
ARC
8
0
10
230.3375
20
-92.225
40
0.5
50
270
51
0
0
ARC
8
0
10
230.3375
20
-79.225
40
0.5
50
0
51
90
0
ARC
8
0
10
217.3375
20
-79.225
40
0.5
50
90
51
180
0
LINE
8
0
10
217.3375
20
-92.725
11
230.3375
21
-92.725
0
LINE
8
0
10
230.3375
20
-78.725
11
217.3375
21
-78.725
0
LINE
8
0
10
230.8375
20
-92.225
11
230.8375
21
-79.225
0
LINE
8
0
10
216.8375
20
-79.225
11
216.8375
21
-92.225
0
ARC
8
0
10
236.3875
20
-92.225
40
0.5
50
180
51
270
0
ARC
8
0
10
249.3875
20
-92.225
40
0.5
50
270
51
0
0
ARC
8
0
10
249.3875
20
-79.225
40
0.5
50
0
51
90
0
ARC
8
0
10
236.3875
20
-79.225
40
0.5
50
90
51
180
0
LINE
8
0
10
236.3875
20
-92.725
11
249.3875
21
-92.725
0
LINE
8
0
10
249.3875
20
-78.725
11
236.3875
21
-78.725
0
LINE
8
0
10
249.8875
20
-92.225
11
249.8875
21
-79.225
0
LINE
8
0
10
235.8875
20
-79.225
11
235.8875
21
-92.225
0
ARC
8
0
10
262.58125
20
-92.225
40
0.5
50
180
51
270
0
ARC
8
0
10
275.58125
20
-92.225
40
0.5
50
270
51
0
0
ARC
8
0
10
275.58125
20
-79.225
40
0.5
50
0
51
90
0
ARC
8
0
10
262.58125
20
-79.225
40
0.5
50
90
51
180
0
LINE
8
0
10
262.58125
20
-92.725
11
275.58125
21
-92.725
0
LINE
8
0
10
275.58125
20
-78.725
11
262.58125
21
-78.725
0
LINE
8
0
10
276.08125
20
-92.225
11
276.08125
21
-79.225
0
LINE
8
0
10
262.08125
20
-79.225
11
262.08125
21
-92.225
0
ARC
8
0
10
288.775
20
-92.225
40
0.5
50
180
51
270
0
ARC
8
0
10
301.775
20
-92.225
40
0.5
50
270
51
0
0
ARC
8
0
10
301.775
20
-79.225
40
0.5
50
0
51
90
0
ARC
8
0
10
288.775
20
-79.225
40
0.5
50
90
51
180
0
LINE
8
0
10
288.775
20
-92.725
11
301.775
21
-92.725
0
LINE
8
0
10
301.775
20
-78.725
11
288.775
21
-78.725
0
LINE
8
0
10
302.275
20
-92.225
11
302.275
21
-79.225
0
LINE
8
0
10
288.275
20
-79.225
11
288.275
21
-92.225
0
ARC
8
0
10
307.825
20
-92.225
40
0.5
50
180
51
270
0
ARC
8
0
10
320.825
20
-92.225
40
0.5
50
270
51
0
0
ARC
8
0
10
320.825
20
-79.225
40
0.5
50
0
51
90
0
ARC
8
0
10
307.825
20
-79.225
40
0.5
50
90
51
180
0
LINE
8
0
10
307.825
20
-92.725
11
320.825
21
-92.725
0
LINE
8
0
10
320.825
20
-78.725
11
307.825
21
-78.725
0
LINE
8
0
10
321.325
20
-92.225
11
321.325
21
-79.225
0
LINE
8
0
10
307.325
20
-79.225
11
307.325
21
-92.225
0
ARC
8
0
10
3.025
20
-111.275
40
0.5
50
180
51
270
0
ARC
8
0
10
16.025
20
-111.275
40
0.5
50
270
51
0
0
ARC
8
0
10
16.025
20
-98.275
40
0.5
50
0
51
90
0
ARC
8
0
10
3.025
20
-98.275
40
0.5
50
90
51
180
0
LINE
8
0
10
3.025
20
-111.775
11
16.025
21
-111.775
0
LINE
8
0
10
16.025
20
-97.775
11
3.025
21
-97.775
0
LINE
8
0
10
16.525
20
-111.275
11
16.525
21
-98.275
0
LINE
8
0
10
2.525
20
-98.275
11
2.525
21
-111.275
0
ARC
8
0
10
24.45625
20
-111.275
40
0.5
50
180
51
270
0
ARC
8
0
10
24.45625
20
-98.275
40
0.5
50
90
51
180
0
LINE
8
0
10
24.45625
20
-111.775
11
26.8375
21
-111.775
0
LINE
8
0
10
26.8375
20
-111.775
11
37.45625
21
-111.775
0
LINE
8
0
10
37.45625
20
-97.775
11
26.8375
21
-97.775
0
LINE
8
0
10
26.8375
20
-97.775
11
24.45625
21
-97.775
0
LINE
8
0
10
23.95625
20
-98.275
11
23.95625
21
-111.275
0
ARC
8
0
10
39.8375
20
-111.275
40
0.5
50
270
51
0
0
ARC
8
0
10
39.8375
20
-98.275
40
0.5
50
0
51
90
0
LINE
8
0
10
37.45625
20
-111.775
11
39.8375
21
-111.775
0
LINE
8
0
10
39.8375
20
-97.775
11
37.45625
21
-97.775
0
LINE
8
0
10
40.3375
20
-111.275
11
40.3375
21
-98.275
0
ARC
8
0
10
48.26875
20
-111.275
40
0.5
50
180
51
270
0
ARC
8
0
10
48.26875
20
-98.275
40
0.5
50
90
51
180
0
LINE
8
0
10
48.26875
20
-111.775
11
55.4125
21
-111.775
0
LINE
8
0
10
55.4125
20
-111.775
11
61.26875
21
-111.775
0
LINE
8
0
10
61.26875
20
-97.775
11
55.4125
21
-97.775
0
LINE
8
0
10
55.4125
20
-97.775
11
48.26875
21
-97.775
0
LINE
8
0
10
47.76875
20
-98.275
11
47.76875
21
-111.275
0
ARC
8
0
10
68.4125
20
-111.275
40
0.5
50
270
51
0
0
ARC
8
0
10
68.4125
20
-98.275
40
0.5
50
0
51
90
0
LINE
8
0
10
61.26875
20
-111.775
11
68.4125
21
-111.775
0
LINE
8
0
10
68.4125
20
-97.775
11
61.26875
21
-97.775
0
LINE
8
0
10
68.9125
20
-111.275
11
68.9125
21
-98.275
0
ARC
8
0
10
72.08125
20
-111.275
40
0.5
50
180
51
270
0
ARC
8
0
10
72.08125
20
-98.275
40
0.5
50
90
51
180
0
LINE
8
0
10
72.08125
20
-111.775
11
82.225
21
-111.775
0
LINE
8
0
10
85.08125
20
-97.775
11
82.725
21
-97.775
0
LINE
8
0
10
82.725
20
-97.775
11
72.08125
21
-97.775
0
LINE
8
0
10
71.58125
20
-98.275
11
71.58125
21
-111.275
0
ARC
8
0
10
136.375
20
-111.275
40
0.5
50
180
51
270
0
ARC
8
0
10
136.375
20
-98.275
40
0.5
50
90
51
180
0
LINE
8
0
10
136.375
20
-111.775
11
143.51875
21
-111.775
0
LINE
8
0
10
143.51875
20
-111.775
11
149.375
21
-111.775
0
LINE
8
0
10
149.375
20
-97.775
11
143.51875
21
-97.775
0
LINE
8
0
10
143.51875
20
-97.775
11
136.375
21
-97.775
0
LINE
8
0
10
135.875
20
-98.275
11
135.875
21
-111.275
0
ARC
8
0
10
82.725
20
-112.275
40
0.5
50
180
51
270
0
ARC
8
0
10
88.725
20
-112.275
40
0.5
50
270
51
0
0
ARC
8
0
10
88.725
20
-98.275
40
0.5
50
0
51
90
0
LINE
8
0
10
82.725
20
-112.775
11
88.725
21
-112.775
0
LINE
8
0
10
88.725
20
-97.775
11
85.08125
21
-97.775
0
LINE
8
0
10
89.225
20
-112.275
11
89.225
21
-98.275
0
LINE
8
0
10
82.225
20
-111.775
11
82.225
21
-112.275
0
ARC
8
0
10
203.025
20
-112.275
40
0.5
50
270
51
0
0
ARC
8
0
10
203.025
20
-98.275
40
0.5
50
0
51
90
0
LINE
8
0
10
197.025
20
-112.775
11
203.01875
21
-112.775
0
LINE
8
0
10
203.01875
20
-112.775
11
203.025
21
-112.775
0
LINE
8
0
10
203.025
20
-97.775
11
203.01875
21
-97.775
0
LINE
8
0
10
203.01875
20
-97.775
11
197.025
21
-97.775
0
LINE
8
0
10
203.525
20
-112.275
11
203.525
21
-98.275
0
ARC
8
0
10
156.51875
20
-111.275
40
0.5
50
270
51
0
0
ARC
8
0
10
156.51875
20
-98.275
40
0.5
50
0
51
90
0
LINE
8
0
10
149.375
20
-111.775
11
156.51875
21
-111.775
0
LINE
8
0
10
156.51875
20
-97.775
11
149.375
21
-97.775
0
LINE
8
0
10
157.01875
20
-111.275
11
157.01875
21
-98.275
0
ARC
8
0
10
97.01875
20
-112.275
40
0.5
50
180
51
270
0
ARC
8
0
10
103.01875
20
-112.275
40
0.5
50
270
51
0
0
ARC
8
0
10
103.01875
20
-98.275
40
0.5
50
0
51
90
0
ARC
8
0
10
97.01875
20
-98.275
40
0.5
50
90
51
180
0
LINE
8
0
10
97.01875
20
-112.775
11
103.01875
21
-112.775
0
LINE
8
0
10
103.01875
20
-97.775
11
97.01875
21
-97.775
0
LINE
8
0
10
103.51875
20
-112.275
11
103.51875
21
-98.275
0
LINE
8
0
10
96.51875
20
-98.275
11
96.51875
21
-112.275
0
ARC
8
0
10
197.01875
20
-112.275
40
0.5
50
180
51
270
0
ARC
8
0
10
197.01875
20
-98.275
40
0.5
50
90
51
180
0
LINE
8
0
10
197.01875
20
-112.775
11
197.025
21
-112.775
0
LINE
8
0
10
197.025
20
-97.775
11
197.01875
21
-97.775
0
LINE
8
0
10
196.51875
20
-98.275
11
196.51875
21
-112.275
0
ARC
8
0
10
212.575
20
-111.275
40
0.5
50
180
51
270
0
ARC
8
0
10
212.575
20
-98.275
40
0.5
50
90
51
180
0
LINE
8
0
10
212.575
20
-111.775
11
217.3375
21
-111.775
0
LINE
8
0
10
217.3375
20
-111.775
11
225.575
21
-111.775
0
LINE
8
0
10
225.575
20
-97.775
11
217.3375
21
-97.775
0
LINE
8
0
10
217.3375
20
-97.775
11
212.575
21
-97.775
0
LINE
8
0
10
212.075
20
-98.275
11
212.075
21
-111.275
0
ARC
8
0
10
230.3375
20
-111.275
40
0.5
50
270
51
0
0
ARC
8
0
10
230.3375
20
-98.275
40
0.5
50
0
51
90
0
LINE
8
0
10
225.575
20
-111.775
11
230.3375
21
-111.775
0
LINE
8
0
10
230.3375
20
-97.775
11
225.575
21
-97.775
0
LINE
8
0
10
230.8375
20
-111.275
11
230.8375
21
-98.275
0
ARC
8
0
10
231.625
20
-111.275
40
0.5
50
180
51
270
0
ARC
8
0
10
244.625
20
-111.275
40
0.5
50
270
51
0
0
ARC
8
0
10
244.625
20
-98.275
40
0.5
50
0
51
90
0
ARC
8
0
10
231.625
20
-98.275
40
0.5
50
90
51
180
0
LINE
8
0
10
231.625
20
-111.775
11
244.625
21
-111.775
0
LINE
8
0
10
244.625
20
-97.775
11
231.625
21
-97.775
0
LINE
8
0
10
245.125
20
-111.275
11
245.125
21
-98.275
0
LINE
8
0
10
231.125
20
-98.275
11
231.125
21
-111.275
0
ARC
8
0
10
245.9125
20
-111.275
40
0.5
50
180
51
270
0
ARC
8
0
10
245.9125
20
-98.275
40
0.5
50
90
51
180
0
LINE
8
0
10
245.9125
20
-111.775
11
250.675
21
-111.775
0
LINE
8
0
10
250.675
20
-111.775
11
258.9125
21
-111.775
0
LINE
8
0
10
258.9125
20
-97.775
11
250.675
21
-97.775
0
LINE
8
0
10
250.675
20
-97.775
11
245.9125
21
-97.775
0
LINE
8
0
10
245.4125
20
-98.275
11
245.4125
21
-111.275
0
ARC
8
0
10
263.675
20
-111.275
40
0.5
50
270
51
0
0
ARC
8
0
10
263.675
20
-98.275
40
0.5
50
0
51
90
0
LINE
8
0
10
258.9125
20
-111.775
11
263.675
21
-111.775
0
LINE
8
0
10
263.675
20
-97.775
11
258.9125
21
-97.775
0
LINE
8
0
10
264.175
20
-111.275
11
264.175
21
-98.275
0
ARC
8
0
10
269.725
20
-111.275
40
0.5
50
180
51
270
0
ARC
8
0
10
282.725
20
-111.275
40
0.5
50
270
51
0
0
ARC
8
0
10
282.725
20
-98.275
40
0.5
50
0
51
90
0
ARC
8
0
10
269.725
20
-98.275
40
0.5
50
90
51
180
0
LINE
8
0
10
269.725
20
-111.775
11
282.725
21
-111.775
0
LINE
8
0
10
282.725
20
-97.775
11
269.725
21
-97.775
0
LINE
8
0
10
283.225
20
-111.275
11
283.225
21
-98.275
0
LINE
8
0
10
269.225
20
-98.275
11
269.225
21
-111.275
0
ARC
8
0
10
288.775
20
-111.275
40
0.5
50
180
51
270
0
ARC
8
0
10
301.775
20
-111.275
40
0.5
50
270
51
0
0
ARC
8
0
10
301.775
20
-98.275
40
0.5
50
0
51
90
0
ARC
8
0
10
288.775
20
-98.275
40
0.5
50
90
51
180
0
LINE
8
0
10
288.775
20
-111.775
11
301.775
21
-111.775
0
LINE
8
0
10
301.775
20
-97.775
11
288.775
21
-97.775
0
LINE
8
0
10
302.275
20
-111.275
11
302.275
21
-98.275
0
LINE
8
0
10
288.275
20
-98.275
11
288.275
21
-111.275
0
ARC
8
0
10
307.825
20
-111.275
40
0.5
50
180
51
270
0
ARC
8
0
10
320.825
20
-111.275
40
0.5
50
270
51
0
0
ARC
8
0
10
320.825
20
-98.275
40
0.5
50
0
51
90
0
ARC
8
0
10
307.825
20
-98.275
40
0.5
50
90
51
180
0
LINE
8
0
10
307.825
20
-111.775
11
320.825
21
-111.775
0
LINE
8
0
10
320.825
20
-97.775
11
307.825
21
-97.775
0
LINE
8
0
10
321.325
20
-111.275
11
321.325
21
-98.275
0
LINE
8
0
10
307.325
20
-98.275
11
307.325
21
-111.275
0
ENDSEC
0
EOF