0
SECTION
2
HEADER
9
$INSUNITS
70
4
9
$ACADVER
1
AC1014
9
$HANDSEED
5
FFFF
0
ENDSEC
0
SECTION
2
TABLES
0
TABLE
2
VPORT
5
8
100
AcDbSymbolTable
0
ENDTAB
0
TABLE
2
LTYPE
5
5
100
AcDbSymbolTable
0
LTYPE
5
14
100
AcDbSymbolTableRecord
100
AcDbLinetypeTableRecord
2
BYBLOCK
70
0
0
LTYPE
5
15
100
AcDbSymbolTableRecord
100
AcDbLinetypeTableRecord
2
BYLAYER
70
0
0
ENDTAB
0
TABLE
2
LAYER
5
2
100
AcDbSymbolTable
70
2
0
LAYER
5
50
100
AcDbSymbolTableRecord
100
AcDbLayerTableRecord
2
0
70
0
6
CONTINUOUS
0
ENDTAB
0
TABLE
2
STYLE
5
3
100
AcDbSymbolTable
70
1
0
STYLE
5
11
100
AcDbSymbolTableRecord
100
AcDbTextStyleTableRecord
2
STANDARD
70
0
0
ENDTAB
0
TABLE
2
VIEW
5
6
100
AcDbSymbolTable
70
0
0
ENDTAB
0
TABLE
2
UCS
5
7
100
AcDbSymbolTable
70
0
0
ENDTAB
0
TABLE
2
APPID
5
9
100
AcDbSymbolTable
70
2
0
APPID
5
12
100
AcDbSymbolTableRecord
100
AcDbRegAppTableRecord
2
ACAD
70
0
0
ENDTAB
0
TABLE
2
DIMSTYLE
5
A
100
AcDbSymbolTable
70
1
0
ENDTAB
0
TABLE
2
BLOCK_RECORD
5
1
100
AcDbSymbolTable
70
1
0
BLOCK_RECORD
5
1F
100
AcDbSymbolTableRecord
100
AcDbBlockTableRecord
2
*MODEL_SPACE
0
BLOCK_RECORD
5
1B
100
AcDbSymbolTableRecord
100
AcDbBlockTableRecord
2
*PAPER_SPACE
0
ENDTAB
0
ENDSEC
0
SECTION
2
BLOCKS
0
BLOCK
5
20
100
AcDbEntity
100
AcDbBlockBegin
2
*MODEL_SPACE
0
ENDBLK
5
21
100
AcDbEntity
100
AcDbBlockEnd
0
BLOCK
5
1C
100
AcDbEntity
100
AcDbBlockBegin
2
*PAPER_SPACE
0
ENDBLK
5
1D
100
AcDbEntity
100
AcDbBlockEnd
0
ENDSEC
0
SECTION
2
ENTITIES
0
ARC
5
100
100
AcDbEntity
8
0
100
AcDbCircle
10
-322.35000000000002
20
112.80000000000001
30
0
40
1.5000000000000036
210
0
220
-0
230
1
100
AcDbArc
50
90
51
180
0
LINE
5
101
100
AcDbEntity
8
0
100
AcDbLine
10
-323.84999999999997
20
112.80000000000001
30
0
11
-323.84999999999997
21
19.074999999999989
31
0
0
LINE
5
102
100
AcDbEntity
8
0
100
AcDbLine
10
-323.84999999999997
20
19.074999999999989
30
0
11
-285.72500000000002
21
19.074999999999985
31
0
0
LINE
5
103
100
AcDbEntity
8
0
100
AcDbLine
10
-285.72500000000002
20
19.074999999999985
30
0
11
-285.72500000000002
21
0
31
0
0
LINE
5
104
100
AcDbEntity
8
0
100
AcDbLine
10
-285.72500000000002
20
0
30
0
11
-19.074999999999989
21
0
31
0
0
LINE
5
105
100
AcDbEntity
8
0
100
AcDbLine
10
0
20
19.075000000000006
30
0
11
0
21
112.8
31
0
0
ARC
5
106
100
AcDbEntity
8
0
100
AcDbCircle
10
-1.5000000000000002
20
112.8
30
0
40
1.5000000000000002
210
0
220
0
230
1
100
AcDbArc
50
0
51
90.000000000000128
0
LINE
5
107
100
AcDbEntity
8
0
100
AcDbLine
10
-1.5000000000000036
20
114.3
30
0
11
-322.35000000000002
21
114.30000000000001
31
0
0
LWPOLYLINE
5
108
100
AcDbEntity
8
0
100
AcDbPolyline
90
8
70
1
43
0.0
10
-92.224999999999994
20
2.5249999999999928
42
-0.41421356237309503
10
-92.725000000000009
20
3.0249999999999999
10
-92.725000000000009
20
16.024999999999991
42
-0.41421356237310025
10
-92.224999999999994
20
16.525000000000002
10
-79.224999999999994
20
16.524999999999999
42
-0.41421356237309503
10
-78.724999999999994
20
16.024999999999999
10
-78.724999999999994
20
3.0250000000000021
42
-0.41421356237309631
10
-79.224999999999994
20
2.5249999999999999
0
LWPOLYLINE
5
109
100
AcDbEntity
8
0
100
AcDbPolyline
90
8
70
1
43
0.0
10
-40.625
20
3.0250000000000021
10
-40.625
20
16.024999999999991
42
0.41421356237310542
10
-41.125000000000007
20
16.524999999999999
10
-54.125000000000007
20
16.525000000000002
42
0.41421356237310025
10
-54.624999999999986
20
16.024999999999991
10
-54.625
20
3.0249999999999999
42
0.41421356237308982
10
-54.125000000000014
20
2.524999999999995
10
-41.125
20
2.5249999999999999
42
0.41421356237309631
0
LWPOLYLINE
5
110
100
AcDbEntity
8
0
100
AcDbPolyline
90
8
70
1
43
0.0
10
-73.674999999999997
20
16.024999999999999
42
-0.41421356237309503
10
-73.174999999999997
20
16.525000000000002
10
-60.174999999999983
20
16.524999999999999
42
-0.4142135623730846
10
-59.675000000000004
20
16.024999999999999
10
-59.675000000000004
20
3.0250000000000021
42
-0.41421356237309631
10
-60.174999999999997
20
2.5249999999999999
10
-73.174999999999983
20
2.5250000000000017
42
-0.41421356237310025
10
-73.674999999999997
20
3.0249999999999999
0
LWPOLYLINE
5
111
100
AcDbEntity
8
0
100
AcDbPolyline
90
8
70
1
43
0.0
10
-97.775000000000006
20
3.0249999999999999
42
-0.41421356237309503
10
-98.275000000000006
20
2.5249999999999999
10
-111.27500000000001
20
2.5249999999999928
42
-0.41421356237309503
10
-111.77500000000002
20
3.0249999999999999
10
-111.77500000000002
20
16.024999999999991
42
-0.41421356237310025
10
-111.27500000000001
20
16.525000000000002
10
-98.275000000000006
20
16.525000000000006
42
-0.41421356237309503
10
-97.775000000000006
20
16.024999999999999
0
LWPOLYLINE
5
112
100
AcDbEntity
8
0
100
AcDbPolyline
90
8
70
1
43
0.0
10
-35.075000000000003
20
2.5250000000000017
42
-0.41421356237309503
10
-35.575000000000003
20
3.0249999999999999
10
-35.575000000000003
20
16.024999999999991
42
-0.41421356237310025
10
-35.075000000000003
20
16.525000000000002
10
-22.074999999999996
20
16.524999999999999
42
-0.41421356237309243
10
-21.575000000000003
20
16.024999999999999
10
-21.575000000000003
20
3.0250000000000021
42
-0.41421356237309631
10
-22.074999999999999
20
2.5249999999999999
0
LWPOLYLINE
5
113
100
AcDbEntity
8
0
100
AcDbPolyline
90
8
70
1
43
0.0
10
-173.97500000000002
20
3.0249999999999999
42
-0.41421356237309503
10
-174.47500000000002
20
2.5249999999999999
10
-187.47499999999999
20
2.5249999999999928
42
-0.41421356237309503
10
-187.97499999999999
20
3.0249999999999999
10
-187.97499999999999
20
16.024999999999991
42
-0.41421356237310025
10
-187.47499999999999
20
16.525000000000002
10
-174.47500000000002
20
16.525000000000006
42
-0.41421356237309503
10
-173.97500000000002
20
16.024999999999999
0
LWPOLYLINE
5
114
100
AcDbEntity
8
0
100
AcDbPolyline
90
8
70
1
43
0.0
10
-244.62500000000003
20
2.5249999999999928
42
-0.41421356237309503
10
-245.12500000000003
20
3.0249999999999999
10
-245.12500000000003
20
16.024999999999991
42
-0.41421356237310025
10
-244.62500000000003
20
16.525000000000002
10
-231.625
20
16.525000000000006
42
-0.41421356237309503
10
-231.125
20
16.024999999999999
10
-231.125
20
3.0250000000000021
42
-0.41421356237309631
10
-231.625
20
2.5249999999999999
0
LWPOLYLINE
5
115
100
AcDbEntity
8
0
100
AcDbPolyline
90
8
70
1
43
0.0
10
-250.17500000000001
20
3.0249999999999999
42
-0.41421356237309503
10
-250.67500000000001
20
2.5249999999999999
10
-263.67500000000001
20
2.5249999999999928
42
-0.41421356237309503
10
-264.17500000000007
20
3.0249999999999999
10
-264.17500000000007
20
16.024999999999991
42
-0.41421356237310025
10
-263.67500000000001
20
16.525000000000002
10
-250.67500000000001
20
16.525000000000006
42
-0.41421356237309503
10
-250.17500000000001
20
16.024999999999999
0
LWPOLYLINE
5
116
100
AcDbEntity
8
0
100
AcDbPolyline
90
8
70
1
43
0.0
10
-136.375
20
16.525000000000006
42
-0.41421356237309503
10
-135.875
20
16.024999999999999
10
-135.875
20
3.0250000000000021
42
-0.41421356237309631
10
-136.375
20
2.5249999999999999
10
-149.375
20
2.5249999999999928
42
-0.41421356237309503
10
-149.875
20
3.0249999999999999
10
-149.875
20
16.024999999999991
42
-0.41421356237310025
10
-149.375
20
16.525000000000002
0
LWPOLYLINE
5
117
100
AcDbEntity
8
0
100
AcDbPolyline
90
8
70
1
43
0.0
10
-168.92500000000001
20
16.024999999999999
42
-0.41421356237309503
10
-168.42500000000001
20
16.525000000000002
10
-155.42500000000004
20
16.525000000000006
42
-0.41421356237310542
10
-154.92500000000001
20
16.024999999999999
10
-154.92500000000001
20
3.0250000000000021
42
-0.41421356237309631
10
-155.42500000000001
20
2.5249999999999999
10
-168.42500000000001
20
2.5249999999999928
42
-0.41421356237309503
10
-168.92500000000001
20
3.0249999999999999
0
LWPOLYLINE
5
118
100
AcDbEntity
8
0
100
AcDbPolyline
90
8
70
1
43
0.0
10
-130.82499999999999
20
16.024999999999999
42
-0.41421356237309503
10
-130.32499999999999
20
16.525000000000002
10
-117.32500000000002
20
16.525000000000006
42
-0.41421356237309503
10
-116.82500000000002
20
16.024999999999999
10
-116.82500000000002
20
3.0250000000000021
42
-0.41421356237309631
10
-117.32500000000002
20
2.5249999999999999
10
-130.32499999999999
20
2.5249999999999928
42
-0.41421356237309503
10
-130.82499999999999
20
3.0249999999999999
0
LWPOLYLINE
5
119
100
AcDbEntity
8
0
100
AcDbPolyline
90
8
70
1
43
0.0
10
-207.02500000000003
20
16.024999999999999
42
-0.41421356237309503
10
-206.52500000000003
20
16.525000000000002
10
-193.52500000000003
20
16.525000000000006
42
-0.41421356237309503
10
-193.02500000000003
20
16.024999999999999
10
-193.02500000000003
20
3.0250000000000021
42
-0.41421356237309631
10
-193.52500000000003
20
2.5249999999999999
10
-206.52500000000003
20
2.5249999999999928
42
-0.41421356237309503
10
-207.02500000000003
20
3.0249999999999999
0
LWPOLYLINE
5
120
100
AcDbEntity
8
0
100
AcDbPolyline
90
8
70
1
43
0.0
10
-212.57499999999999
20
16.525000000000006
42
-0.41421356237309503
10
-212.07499999999999
20
16.024999999999999
10
-212.07499999999999
20
3.0250000000000021
42
-0.41421356237309631
10
-212.57499999999999
20
2.5249999999999999
10
-225.57500000000002
20
2.5249999999999928
42
-0.41421356237309503
10
-226.07500000000002
20
3.0249999999999999
10
-226.07500000000002
20
16.024999999999991
42
-0.41421356237310025
10
-225.57500000000002
20
16.525000000000002
0
LWPOLYLINE
5
121
100
AcDbEntity
8
0
100
AcDbPolyline
90
8
70
1
43
0.0
10
-282.72500000000002
20
2.5249999999999928
42
-0.41421356237309503
10
-283.22500000000002
20
3.0249999999999999
10
-283.22500000000002
20
16.024999999999991
42
-0.41421356237310025
10
-282.72500000000002
20
16.525000000000002
10
-269.72500000000002
20
16.525000000000006
42
-0.41421356237309503
10
-269.22500000000002
20
16.024999999999999
10
-269.22500000000002
20
3.0250000000000021
42
-0.41421356237309631
10
-269.72500000000002
20
2.5249999999999999
0
LWPOLYLINE
5
122
100
AcDbEntity
8
0
100
AcDbPolyline
90
8
70
1
43
0.0
10
-60.174999999999983
20
35.57500000000001
10
-73.174999999999983
20
35.57500000000001
42
0.41421356237310025
10
-73.674999999999997
20
35.075000000000003
10
-73.674999999999997
20
22.074999999999999
42
0.41421356237310025
10
-73.174999999999983
20
21.575000000000006
10
-60.174999999999997
20
21.575000000000003
42
0.41421356237309243
10
-59.675000000000011
20
22.074999999999996
10
-59.675000000000004
20
35.075000000000003
42
0.4142135623730846
0
LWPOLYLINE
5
123
100
AcDbEntity
8
0
100
AcDbPolyline
90
8
70
1
43
0.0
10
-78.724999999999994
20
22.074999999999996
10
-78.724999999999994
20
35.075000000000003
42
0.41421356237309503
10
-79.224999999999994
20
35.57500000000001
10
-92.224999999999994
20
35.575000000000003
42
0.41421356237309503
10
-92.725000000000009
20
35.075000000000003
10
-92.725000000000009
20
22.074999999999999
42
0.41421356237309503
10
-92.224999999999994
20
21.575000000000006
10
-79.224999999999994
20
21.575000000000003
42
0.41421356237309243
0
LWPOLYLINE
5
124
100
AcDbEntity
8
0
100
AcDbPolyline
90
8
70
1
43
0.0
10
-130.32499999999999
20
21.574999999999989
10
-117.32500000000002
20
21.575000000000006
42
0.41421356237309243
10
-116.82500000000002
20
22.074999999999996
10
-116.82500000000002
20
35.075000000000003
42
0.41421356237309503
10
-117.32500000000002
20
35.57500000000001
10
-130.32499999999999
20
35.575000000000003
42
0.41421356237309503
10
-130.82499999999999
20
35.075000000000003
10
-130.82499999999999
20
22.074999999999999
42
0.41421356237309503
0
LWPOLYLINE
5
125
100
AcDbEntity
8
0
100
AcDbPolyline
90
8
70
1
43
0.0
10
-35.075000000000003
20
21.575000000000006
10
-22.074999999999996
20
21.575000000000006
42
0.41421356237308982
10
-21.574999999999989
20
22.074999999999996
10
-21.575000000000003
20
35.075000000000003
42
0.41421356237309243
10
-22.074999999999996
20
35.57500000000001
10
-35.075000000000003
20
35.575000000000003
42
0.41421356237309503
10
-35.57500000000001
20
35.075000000000003
10
-35.575000000000003
20
22.074999999999999
42
0.41421356237309503
0
LWPOLYLINE
5
126
100
AcDbEntity
8
0
100
AcDbPolyline
90
8
70
1
43
0.0
10
-2.5249999999999773
20
22.074999999999996
10
-2.5249999999999773
20
35.075000000000003
42
0.41421356237310675
10
-3.0250000000000199
20
35.57500000000001
10
-16.024999999999999
20
35.575000000000003
42
0.41421356237309503
10
-16.524999999999999
20
35.075000000000003
10
-16.525000000000002
20
22.074999999999999
42
0.41421356237310025
10
-16.024999999999991
20
21.575000000000006
10
-3.0249999999999999
20
21.575000000000003
42
0.41421356237309243
0
LWPOLYLINE
5
127
100
AcDbEntity
8
0
100
AcDbPolyline
90
8
70
1
43
0.0
10
-98.275000000000006
20
35.57500000000001
42
-0.41421356237309503
10
-97.775000000000006
20
35.075000000000003
10
-97.775000000000006
20
22.074999999999996
42
-0.41421356237309243
10
-98.275000000000006
20
21.575000000000003
10
-111.27500000000001
20
21.574999999999992
42
-0.41421356237309503
10
-111.77500000000002
20
22.074999999999999
10
-111.77500000000002
20
35.075000000000003
42
-0.41421356237309503
10
-111.27500000000001
20
35.575000000000003
0
LWPOLYLINE
5
128
100
AcDbEntity
8
0
100
AcDbPolyline
90
8
70
1
43
0.0
10
-54.624999999999986
20
35.075000000000003
10
-54.624999999999986
20
22.074999999999996
42
0.41421356237308721
10
-54.125000000000014
20
21.575000000000006
10
-41.125
20
21.575000000000003
42
0.41421356237309243
10
-40.625
20
22.074999999999996
10
-40.625
20
35.075000000000003
42
0.41421356237310025
10
-41.125000000000007
20
35.57500000000001
10
-54.125000000000007
20
35.575000000000003
42
0.41421356237309503
0
LWPOLYLINE
5
129
100
AcDbEntity
8
0
100
AcDbPolyline
90
8
70
1
43
0.0
10
-207.02500000000003
20
35.075000000000003
42
-0.41421356237309503
10
-206.52500000000003
20
35.575000000000003
10
-193.52500000000003
20
35.57500000000001
42
-0.41421356237309503
10
-193.02500000000003
20
35.075000000000003
10
-193.02500000000003
20
22.074999999999996
42
-0.41421356237309243
10
-193.52500000000003
20
21.575000000000003
10
-206.52500000000003
20
21.574999999999992
42
-0.41421356237309503
10
-207.02500000000003
20
22.074999999999999
0
LWPOLYLINE
5
130
100
AcDbEntity
8
0
100
AcDbPolyline
90
8
70
1
43
0.0
10
-173.97500000000002
20
22.074999999999999
42
-0.41421356237309503
10
-174.47500000000002
20
21.575000000000003
10
-187.47499999999999
20
21.574999999999992
42
-0.41421356237309503
10
-187.97499999999999
20
22.074999999999999
10
-187.97499999999999
20
35.075000000000003
42
-0.41421356237309503
10
-187.47499999999999
20
35.575000000000003
10
-174.47500000000002
20
35.57500000000001
42
-0.41421356237309503
10
-173.97500000000002
20
35.075000000000003
0
LWPOLYLINE
5
131
100
AcDbEntity
8
0
100
AcDbPolyline
90
8
70
1
43
0.0
10
-149.375
20
21.574999999999992
42
-0.41421356237309503
10
-149.875
20
22.074999999999999
10
-149.875
20
35.075000000000003
42
-0.41421356237309503
10
-149.375
20
35.575000000000003
10
-136.37500000000003
20
35.57500000000001
42
-0.41421356237310542
10
-135.875
20
35.075000000000003
10
-135.87500000000003
20
22.074999999999996
42
-0.41421356237309243
10
-136.375
20
21.575000000000003
0
LWPOLYLINE
5
132
100
AcDbEntity
8
0
100
AcDbPolyline
90
8
70
1
43
0.0
10
-155.42500000000001
20
35.57500000000001
42
-0.41421356237309503
10
-154.92500000000001
20
35.075000000000003
10
-154.92500000000004
20
22.074999999999996
42
-0.41421356237309243
10
-155.42500000000001
20
21.575000000000003
10
-168.42500000000001
20
21.574999999999992
42
-0.41421356237309503
10
-168.92500000000001
20
22.074999999999999
10
-168.92500000000001
20
35.075000000000003
42
-0.41421356237309503
10
-168.42500000000001
20
35.575000000000003
0
LWPOLYLINE
5
133
100
AcDbEntity
8
0
100
AcDbPolyline
90
8
70
1
43
0.0
10
-245.12500000000003
20
35.075000000000003
10
-245.12500000000003
20
22.074999999999996
42
0.41421356237309243
10
-244.62500000000003
20
21.574999999999989
10
-231.625
20
21.575000000000003
42
0.41421356237309243
10
-231.125
20
22.074999999999996
10
-231.125
20
35.075000000000003
42
0.41421356237309503
10
-231.625
20
35.57500000000001
10
-244.62500000000003
20
35.575000000000003
42
0.41421356237309503
0
LWPOLYLINE
5
134
100
AcDbEntity
8
0
100
AcDbPolyline
90
8
70
1
43
0.0
10
-264.17500000000007
20
35.075000000000003
10
-264.17500000000007
20
22.074999999999996
42
0.41421356237309243
10
-263.67500000000001
20
21.574999999999989
10
-250.67500000000001
20
21.575000000000003
42
0.41421356237309243
10
-250.17500000000001
20
22.074999999999996
10
-250.17500000000001
20
35.075000000000003
42
0.41421356237309503
10
-250.67500000000001
20
35.57500000000001
10
-263.67500000000001
20
35.575000000000003
42
0.41421356237309503
0
LWPOLYLINE
5
135
100
AcDbEntity
8
0
100
AcDbPolyline
90
8
70
1
43
0.0
10
-212.07499999999999
20
22.074999999999996
10
-212.07499999999999
20
35.075000000000003
42
0.41421356237309503
10
-212.57499999999999
20
35.57500000000001
10
-225.57500000000002
20
35.575000000000003
42
0.41421356237309503
10
-226.07500000000002
20
35.075000000000003
10
-226.07500000000002
20
22.074999999999999
42
0.41421356237309503
10
-225.57500000000002
20
21.574999999999989
10
-212.57499999999999
20
21.575000000000003
42
0.41421356237309243
0
LWPOLYLINE
5
136
100
AcDbEntity
8
0
100
AcDbPolyline
90
8
70
1
43
0.0
10
-63.650000000000006
20
40.625
42
-0.41421356237309503
10
-64.150000000000006
20
41.125
10
-64.150000000000006
20
54.125000000000007
42
-0.41421356237309503
10
-63.650000000000006
20
54.625
10
-50.650000000000013
20
54.625
42
-0.41421356237310025
10
-50.150000000000006
20
54.125000000000007
10
-50.150000000000006
20
41.125
42
-0.41421356237309503
10
-50.650000000000006
20
40.625
0
LWPOLYLINE
5
137
100
AcDbEntity
8
0
100
AcDbPolyline
90
8
70
1
43
0.0
10
-40.337499999999991
20
54.125000000000007
42
-0.41421356237309503
10
-39.837499999999999
20
54.625
10
-26.837499999999999
20
54.625
42
-0.41421356237309503
10
-26.337499999999999
20
54.125000000000007
10
-26.337499999999999
20
41.125
42
-0.41421356237309503
10
-26.837499999999999
20
40.625
10
-39.837500000000006
20
40.625
42
-0.41421356237309243
10
-40.337500000000006
20
41.125
0
LWPOLYLINE
5
138
100
AcDbEntity
8
0
100
AcDbPolyline
90
8
70
1
43
0.0
10
-69.200000000000017
20
41.125
10
-69.200000000000017
20
54.125000000000007
42
0.4142135623730846
10
-69.699999999999989
20
54.625
10
-82.700000000000017
20
54.625
42
0.41421356237309503
10
-83.200000000000003
20
54.125000000000007
10
-83.200000000000017
20
41.125
42
0.4142135623730846
10
-82.700000000000031
20
40.625
10
-69.700000000000003
20
40.625
42
0.41421356237309503
0
LWPOLYLINE
5
139
100
AcDbEntity
8
0
100
AcDbPolyline
90
8
70
1
43
0.0
10
-320.82500000000005
20
21.575000000000028
42
-0.41421356237309503
10
-321.32499999999999
20
22.074999999999999
10
-321.32499999999999
20
35.075000000000003
42
-0.41421356237309503
10
-320.82500000000005
20
35.575000000000003
10
-307.82499999999999
20
35.57500000000001
42
-0.41421356237309503
10
-307.32499999999999
20
35.075000000000003
10
-307.32499999999999
20
22.074999999999996
42
-0.41421356237309243
10
-307.82499999999999
20
21.575000000000003
0
LWPOLYLINE
5
140
100
AcDbEntity
8
0
100
AcDbPolyline
90
8
70
1
43
0.0
10
-3.0250000000000199
20
54.625
10
-16.024999999999991
20
54.625
42
0.41421356237310025
10
-16.524999999999999
20
54.125000000000007
10
-16.525000000000002
20
41.125
42
0.41421356237310025
10
-16.024999999999991
20
40.625
10
-3.0249999999999999
20
40.625
42
0.41421356237309503
10
-2.5249999999999773
20
41.125
10
-2.5249999999999999
20
54.125000000000007
42
0.41421356237310675
0
LWPOLYLINE
5
141
100
AcDbEntity
8
0
100
AcDbPolyline
90
20
70
1
43
0.0
10
-301.18799999999999
20
35.57500000000001
10
-301.77499999999998
20
35.57500000000001
42
0.41421356237309503
10
-302.27499999999998
20
35.075000000000003
10
-302.27499999999998
20
22.074999999999999
42
0.41421356237309503
10
-301.77499999999998
20
21.574999999999989
10
-269.72500000000002
20
21.575000000000003
42
0.41421356237309243
10
-269.22500000000002
20
22.074999999999996
10
-269.22500000000002
20
35.075000000000003
42
0.41421356237309503
10
-269.72500000000002
20
35.57500000000001
10
-270.31200000000001
20
35.57500000000001
10
-270.31200000000001
20
36.075000000000003
42
0.41421356237309503
10
-270.81200000000001
20
36.575000000000003
10
-276.81200000000001
20
36.575000000000003
42
0.41421356237309764
10
-277.31200000000007
20
36.075000000000003
10
-277.31200000000001
20
35.57500000000001
10
-294.18799999999999
20
35.57500000000001
10
-294.18799999999999
20
36.075000000000003
42
0.41421356237309503
10
-294.68799999999999
20
36.575000000000003
10
-300.68799999999999
20
36.575000000000003
42
0.41421356237309764
10
-301.18799999999999
20
36.075000000000003
0
LWPOLYLINE
5
142
100
AcDbEntity
8
0
100
AcDbPolyline
90
8
70
1
43
0.0
10
-145.40000000000003
20
41.125
42
-0.41421356237309503
10
-145.90000000000001
20
40.625
10
-158.90000000000001
20
40.624999999999993
42
-0.41421356237309503
10
-159.40000000000001
20
41.125
10
-159.40000000000001
20
54.125000000000007
42
-0.41421356237309503
10
-158.90000000000001
20
54.625
10
-145.90000000000003
20
54.625000000000014
42
-0.41421356237310542
10
-145.40000000000001
20
54.125000000000007
0
LWPOLYLINE
5
143
100
AcDbEntity
8
0
100
AcDbPolyline
90
8
70
1
43
0.0
10
-216.05000000000004
20
40.624999999999993
42
-0.41421356237309503
10
-216.55000000000004
20
41.125
10
-216.55000000000004
20
54.125000000000007
42
-0.41421356237309503
10
-216.05000000000004
20
54.625
10
-203.05000000000004
20
54.625000000000014
42
-0.41421356237309503
10
-202.55000000000001
20
54.125000000000007
10
-202.55000000000001
20
41.125
42
-0.41421356237309503
10
-203.05000000000004
20
40.625
0
LWPOLYLINE
5
144
100
AcDbEntity
8
0
100
AcDbPolyline
90
8
70
1
43
0.0
10
-221.59999999999999
20
41.125
42
-0.41421356237309503
10
-222.10000000000002
20
40.625
10
-235.10000000000002
20
40.624999999999993
42
-0.41421356237309503
10
-235.60000000000002
20
41.125
10
-235.60000000000002
20
54.125000000000007
42
-0.41421356237309503
10
-235.10000000000002
20
54.625
10
-222.10000000000002
20
54.625000000000014
42
-0.41421356237309503
10
-221.59999999999999
20
54.125000000000007
0
LWPOLYLINE
5
145
100
AcDbEntity
8
0
100
AcDbPolyline
90
8
70
1
43
0.0
10
-107.80000000000001
20
54.625000000000014
42
-0.41421356237309503
10
-107.30000000000001
20
54.125000000000007
10
-107.30000000000001
20
41.125
42
-0.41421356237309503
10
-107.80000000000001
20
40.625
10
-120.79999999999998
20
40.624999999999993
42
-0.41421356237310542
10
-121.30000000000001
20
41.125
10
-121.29999999999998
20
54.125000000000007
42
-0.41421356237309503
10
-120.8
20
54.625
0
LWPOLYLINE
5
146
100
AcDbEntity
8
0
100
AcDbPolyline
90
8
70
1
43
0.0
10
-140.34999999999999
20
54.125000000000007
42
-0.41421356237309503
10
-139.84999999999999
20
54.625
10
-126.85000000000002
20
54.625000000000014
42
-0.41421356237310542
10
-126.34999999999999
20
54.125000000000007
10
-126.35000000000002
20
41.125
42
-0.41421356237309503
10
-126.85000000000001
20
40.625
10
-139.84999999999999
20
40.624999999999993
42
-0.41421356237309503
10
-140.34999999999999
20
41.125
0
LWPOLYLINE
5
147
100
AcDbEntity
8
0
100
AcDbPolyline
90
8
70
1
43
0.0
10
-102.25000000000001
20
54.125000000000007
42
-0.41421356237309503
10
-101.75
20
54.625
10
-88.75
20
54.625000000000014
42
-0.41421356237309503
10
-88.25
20
54.125000000000007
10
-88.25
20
41.125
42
-0.41421356237309503
10
-88.75
20
40.625
10
-101.75
20
40.624999999999993
42
-0.41421356237309503
10
-102.25000000000001
20
41.125
0
LWPOLYLINE
5
148
100
AcDbEntity
8
0
100
AcDbPolyline
90
8
70
1
43
0.0
10
-178.44999999999999
20
54.125000000000007
42
-0.41421356237309503
10
-177.94999999999999
20
54.625
10
-164.95000000000002
20
54.625000000000014
42
-0.41421356237309503
10
-164.44999999999999
20
54.125000000000007
10
-164.44999999999999
20
41.125
42
-0.41421356237309503
10
-164.95000000000002
20
40.625
10
-177.94999999999999
20
40.624999999999993
42
-0.41421356237309503
10
-178.44999999999999
20
41.125
0
LWPOLYLINE
5
149
100
AcDbEntity
8
0
100
AcDbPolyline
90
8
70
1
43
0.0
10
-184.00000000000003
20
54.625000000000014
42
-0.41421356237309503
10
-183.5
20
54.125000000000007
10
-183.5
20
41.125
42
-0.41421356237309503
10
-184.00000000000003
20
40.625
10
-197.00000000000003
20
40.624999999999993
42
-0.41421356237309503
10
-197.50000000000003
20
41.125
10
-197.50000000000003
20
54.125000000000007
42
-0.41421356237309503
10
-197.00000000000003
20
54.625
0
LWPOLYLINE
5
150
100
AcDbEntity
8
0
100
AcDbPolyline
90
8
70
1
43
0.0
10
-254.15000000000003
20
40.624999999999993
42
-0.41421356237309503
10
-254.65000000000003
20
41.125
10
-254.65000000000003
20
54.125000000000007
42
-0.41421356237309503
10
-254.15000000000003
20
54.625
10
-241.15000000000003
20
54.625000000000014
42
-0.41421356237309503
10
-240.65000000000001
20
54.125000000000007
10
-240.65000000000001
20
41.125
42
-0.41421356237309503
10
-241.15000000000003
20
40.625
0
LWPOLYLINE
5
151
100
AcDbEntity
8
0
100
AcDbPolyline
90
8
70
1
43
0.0
10
-87.962500000000006
20
73.174999999999997
42
-0.41421356237309503
10
-87.46250000000002
20
73.674999999999997
10
-74.462499999999991
20
73.674999999999997
42
-0.4142135623730846
10
-73.962500000000006
20
73.174999999999997
10
-73.962500000000006
20
60.174999999999997
42
-0.41421356237309503
10
-74.462500000000006
20
59.675000000000004
10
-87.462500000000034
20
59.674999999999997
42
-0.4142135623730846
10
-87.96250000000002
20
60.174999999999997
0
LWPOLYLINE
5
152
100
AcDbEntity
8
0
100
AcDbPolyline
90
8
70
1
43
0.0
10
-3.0250000000000199
20
73.674999999999997
10
-16.024999999999991
20
73.674999999999997
42
0.41421356237310025
10
-16.524999999999999
20
73.174999999999997
10
-16.525000000000002
20
60.174999999999997
42
0.41421356237310025
10
-16.024999999999991
20
59.675000000000004
10
-3.0249999999999999
20
59.675000000000004
42
0.41421356237309503
10
-2.5249999999999773
20
60.174999999999997
10
-2.5249999999999999
20
73.174999999999997
42
0.41421356237310675
0
LWPOLYLINE
5
153
100
AcDbEntity
8
0
100
AcDbPolyline
90
8
70
1
43
0.0
10
-23.95624999999999
20
60.174999999999997
10
-23.95624999999999
20
73.174999999999997
42
0.41421356237309243
10
-24.456249999999997
20
73.674999999999997
10
-42.21875
20
73.674999999999997
42
0.41421356237309503
10
-42.718750000000014
20
73.174999999999997
10
-42.71875
20
60.174999999999997
42
0.41421356237308982
10
-42.218750000000007
20
59.675000000000004
10
-24.456250000000001
20
59.675000000000004
42
0.41421356237309503
0
LWPOLYLINE
5
154
100
AcDbEntity
8
0
100
AcDbPolyline
90
8
70
1
43
0.0
10
-297.01250000000005
20
40.625
10
-284.01249999999999
20
40.625
42
0.41421356237309503
10
-283.51249999999999
20
41.125
10
-283.51249999999999
20
54.125000000000007
42
0.41421356237309503
10
-284.01249999999999
20
54.625
10
-297.01250000000005
20
54.625
42
0.41421356237309503
10
-297.51250000000005
20
54.125000000000007
10
-297.51250000000005
20
41.125
42
0.41421356237309503
0
LWPOLYLINE
5
155
100
AcDbEntity
8
0
100
AcDbPolyline
90
8
70
1
43
0.0
10
-259.69999999999999
20
41.125
10
-259.69999999999999
20
54.125000000000007
42
0.41421356237309503
10
-260.19999999999999
20
54.625000000000014
10
-273.19999999999999
20
54.625
42
0.41421356237309503
10
-273.69999999999999
20
54.125000000000007
10
-273.69999999999999
20
41.125
42
0.41421356237309503
10
-273.19999999999999
20
40.625
10
-260.19999999999999
20
40.625
42
0.41421356237309503
0
LWPOLYLINE
5
156
100
AcDbEntity
8
0
100
AcDbPolyline
90
8
70
1
43
0.0
10
-54.912500000000009
20
60.174999999999997
10
-54.912500000000009
20
73.174999999999997
42
0.41421356237310025
10
-55.412500000000016
20
73.674999999999997
10
-68.412499999999994
20
73.674999999999997
42
0.41421356237309503
10
-68.912499999999994
20
73.174999999999997
10
-68.912499999999994
20
60.174999999999997
42
0.41421356237310025
10
-68.412499999999994
20
59.675000000000004
10
-55.412500000000009
20
59.675000000000004
42
0.41421356237309503
0
LWPOLYLINE
5
157
100
AcDbEntity
8
0
100
AcDbPolyline
90
8
70
1
43
0.0
10
-321.32499999999999
20
54.125000000000007
10
-321.32499999999999
20
41.125
42
0.41421356237309503
10
-320.82500000000005
20
40.625000000000028
10
-307.82499999999999
20
40.625
42
0.41421356237309503
10
-307.32499999999999
20
41.125
10
-307.32499999999999
20
54.125000000000007
42
0.41421356237309503
10
-307.82499999999999
20
54.625000000000014
10
-320.82500000000005
20
54.625
42
0.41421356237309503
0
LWPOLYLINE
5
158
100
AcDbEntity
8
0
100
AcDbPolyline
90
8
70
1
43
0.0
10
-221.3125
20
73.174999999999997
42
-0.41421356237309503
10
-220.8125
20
73.674999999999997
10
-207.8125
20
73.675000000000011
42
-0.41421356237309503
10
-207.3125
20
73.174999999999997
10
-207.3125
20
60.174999999999997
42
-0.41421356237309503
10
-207.8125
20
59.675000000000004
10
-220.8125
20
59.674999999999997
42
-0.41421356237309503
10
-221.3125
20
60.174999999999997
0
LWPOLYLINE
5
159
100
AcDbEntity
8
0
100
AcDbPolyline
90
8
70
1
43
0.0
10
-144.61250000000001
20
59.674999999999997
10
-131.61250000000001
20
59.675000000000004
42
0.41421356237309503
10
-131.11250000000001
20
60.174999999999997
10
-131.11250000000001
20
73.174999999999997
42
0.41421356237309503
10
-131.61250000000001
20
73.675000000000011
10
-144.61250000000001
20
73.674999999999997
42
0.41421356237309503
10
-145.11250000000004
20
73.174999999999997
10
-145.11250000000001
20
60.174999999999997
42
0.41421356237310542
0
LWPOLYLINE
5
160
100
AcDbEntity
8
0
100
AcDbPolyline
90
8
70
1
43
0.0
10
-226.36250000000001
20
60.174999999999997
42
-0.41421356237309503
10
-226.86250000000001
20
59.675000000000004
10
-239.86250000000001
20
59.674999999999997
42
-0.41421356237309503
10
-240.36250000000001
20
60.174999999999997
10
-240.36250000000001
20
73.174999999999997
42
-0.41421356237309503
10
-239.86250000000001
20
73.674999999999997
10
-226.86250000000001
20
73.675000000000011
42
-0.41421356237309503
10
-226.36250000000001
20
73.174999999999997
0
LWPOLYLINE
5
161
100
AcDbEntity
8
0
100
AcDbPolyline
90
8
70
1
43
0.0
10
-106.51250000000002
20
59.674999999999997
42
-0.41421356237309503
10
-107.01250000000002
20
60.174999999999997
10
-107.01250000000002
20
73.174999999999997
42
-0.41421356237309503
10
-106.51250000000002
20
73.674999999999997
10
-93.512500000000003
20
73.675000000000011
42
-0.41421356237309503
10
-93.012499999999989
20
73.174999999999997
10
-93.012499999999989
20
60.174999999999997
42
-0.41421356237309503
10
-93.512500000000003
20
59.675000000000004
0
LWPOLYLINE
5
162
100
AcDbEntity
8
0
100
AcDbPolyline
90
8
70
1
43
0.0
10
-112.0625
20
60.174999999999997
10
-112.0625
20
73.174999999999997
42
0.41421356237309503
10
-112.56250000000001
20
73.675000000000011
10
-125.5625
20
73.674999999999997
42
0.41421356237309503
10
-126.06250000000003
20
73.174999999999997
10
-126.06250000000001
20
60.174999999999997
42
0.41421356237310542
10
-125.56249999999999
20
59.675000000000004
10
-112.56250000000001
20
59.675000000000004
42
0.41421356237309503
0
LWPOLYLINE
5
163
100
AcDbEntity
8
0
100
AcDbPolyline
90
8
70
1
43
0.0
10
-183.21250000000003
20
73.174999999999997
42
-0.41421356237309503
10
-182.71250000000003
20
73.674999999999997
10
-169.71250000000001
20
73.675000000000011
42
-0.41421356237309503
10
-169.21250000000001
20
73.174999999999997
10
-169.21250000000001
20
60.174999999999997
42
-0.41421356237309503
10
-169.71250000000001
20
59.675000000000004
10
-182.71250000000003
20
59.674999999999997
42
-0.41421356237309503
10
-183.21250000000003
20
60.174999999999997
0
LWPOLYLINE
5
164
100
AcDbEntity
8
0
100
AcDbPolyline
90
8
70
1
43
0.0
10
-202.26249999999999
20
73.174999999999997
42
-0.41421356237309503
10
-201.76249999999999
20
73.674999999999997
10
-188.76249999999999
20
73.675000000000011
42
-0.41421356237309503
10
-188.26249999999999
20
73.174999999999997
10
-188.26249999999999
20
60.174999999999997
42
-0.41421356237309503
10
-188.76249999999999
20
59.675000000000004
10
-201.76249999999999
20
59.674999999999997
42
-0.41421356237309503
10
-202.26249999999999
20
60.174999999999997
0
LWPOLYLINE
5
165
100
AcDbEntity
8
0
100
AcDbPolyline
90
8
70
1
43
0.0
10
-150.66249999999999
20
73.675000000000011
42
-0.41421356237309503
10
-150.16249999999999
20
73.174999999999997
10
-150.16249999999999
20
60.174999999999997
42
-0.41421356237309503
10
-150.66249999999999
20
59.675000000000004
10
-163.66250000000002
20
59.674999999999997
42
-0.41421356237309503
10
-164.16250000000002
20
60.174999999999997
10
-164.16250000000002
20
73.174999999999997
42
-0.41421356237309503
10
-163.66250000000002
20
73.674999999999997
0
LWPOLYLINE
5
166
100
AcDbEntity
8
0
100
AcDbPolyline
90
8
70
1
43
0.0
10
-307.82499999999999
20
73.674999999999997
10
-320.82500000000005
20
73.674999999999997
42
0.41421356237309503
10
-321.32499999999999
20
73.174999999999997
10
-321.32499999999999
20
60.174999999999997
42
0.41421356237309503
10
-320.82500000000005
20
59.675000000000026
10
-307.82499999999999
20
59.675000000000004
42
0.41421356237309503
10
-307.32499999999999
20
60.174999999999997
10
-307.32499999999999
20
73.174999999999997
42
0.41421356237309503
0
LWPOLYLINE
5
167
100
AcDbEntity
8
0
100
AcDbPolyline
90
8
70
1
43
0.0
10
-16.524999999999999
20
92.224999999999994
10
-16.524999999999999
20
79.224999999999994
42
0.41421356237310025
10
-16.024999999999991
20
78.724999999999994
10
-3.0249999999999999
20
78.724999999999994
42
0.41421356237309503
10
-2.5249999999999773
20
79.224999999999994
10
-2.5249999999999999
20
92.224999999999994
42
0.41421356237310675
10
-3.0250000000000199
20
92.725000000000009
10
-16.024999999999999
20
92.725000000000009
42
0.41421356237309503
0
LWPOLYLINE
5
168
100
AcDbEntity
8
0
100
AcDbPolyline
90
14
70
1
43
0.0
10
-291.30675000000002
20
73.674999999999983
42
-0.41421356237310025
10
-291.80675000000002
20
74.175000000000011
42
0.41421356237309503
10
-292.30675000000008
20
74.674999999999997
10
-298.30675000000002
20
74.674999999999997
42
0.41421356237309503
10
-298.80675000000002
20
74.175000000000011
10
-298.80675000000002
20
60.174999999999997
42
0.41421356237309503
10
-298.30675000000002
20
59.675000000000004
10
-268.43074999999999
20
59.675000000000004
42
0.41421356237309503
10
-267.93074999999999
20
60.174999999999997
10
-267.93074999999999
20
74.175000000000011
42
0.41421356237309503
10
-268.43074999999999
20
74.675000000000011
10
-274.43074999999999
20
74.674999999999997
42
0.41421356237309503
10
-274.93074999999999
20
74.175000000000011
42
-0.41421356237310025
10
-275.43074999999999
20
73.674999999999997
0
LWPOLYLINE
5
169
100
AcDbEntity
8
0
100
AcDbPolyline
90
8
70
1
43
0.0
10
-258.91250000000002
20
59.674999999999997
42
-0.41421356237309503
10
-259.41250000000002
20
60.174999999999997
10
-259.41250000000002
20
73.174999999999997
42
-0.41421356237309503
10
-258.91250000000002
20
73.674999999999997
10
-245.91250000000002
20
73.675000000000011
42
-0.41421356237309503
10
-245.41250000000002
20
73.174999999999997
10
-245.41250000000002
20
60.174999999999997
42
-0.41421356237309503
10
-245.91250000000002
20
59.675000000000004
0
LWPOLYLINE
5
170
100
AcDbEntity
8
0
100
AcDbPolyline
90
20
70
1
43
0.0
10
-59.387500000000017
20
92.224999999999994
42
-0.41421356237309503
10
-58.88750000000001
20
92.725000000000009
10
-55.919249999999998
20
92.724999999999994
10
-55.919250000000005
20
93.224999999999994
42
-0.41421356237309503
10
-55.419249999999998
20
93.725000000000009
10
-49.419250000000012
20
93.724999999999994
42
-0.41421356237310025
10
-48.919250000000005
20
93.224999999999994
10
-48.919250000000005
20
92.724999999999994
10
-32.043250000000008
20
92.724999999999994
10
-32.043250000000008
20
93.224999999999994
42
-0.41421356237309503
10
-31.54325
20
93.725000000000009
10
-25.543249999999986
20
93.724999999999994
42
-0.4142135623730846
10
-25.043250000000008
20
93.224999999999994
10
-25.043250000000015
20
92.724999999999994
10
-24.456249999999997
20
92.725000000000009
42
-0.41421356237309243
10
-23.956250000000004
20
92.224999999999994
10
-23.956250000000004
20
79.224999999999994
42
-0.41421356237309503
10
-24.456250000000001
20
78.724999999999994
10
-58.887500000000017
20
78.724999999999994
42
-0.41421356237308982
10
-59.387500000000003
20
79.224999999999994
0
LWPOLYLINE
5
171
100
AcDbEntity
8
0
100
AcDbPolyline
90
8
70
1
43
0.0
10
-78.437500000000014
20
92.224999999999994
42
-0.41421356237309503
10
-77.9375
20
92.725000000000009
10
-64.937499999999986
20
92.725000000000009
42
-0.4142135623730846
10
-64.4375
20
92.224999999999994
10
-64.4375
20
79.224999999999994
42
-0.41421356237309503
10
-64.9375
20
78.724999999999994
10
-77.9375
20
78.724999999999994
42
-0.41421356237310025
10
-78.4375
20
79.224999999999994
0
LWPOLYLINE
5
172
100
AcDbEntity
8
0
100
AcDbPolyline
90
8
70
1
43
0.0
10
-192.23750000000001
20
78.724999999999994
10
-179.23750000000001
20
78.724999999999994
42
0.41421356237309503
10
-178.73750000000001
20
79.224999999999994
10
-178.73750000000001
20
92.224999999999994
42
0.41421356237309503
10
-179.23750000000001
20
92.725000000000009
10
-192.23750000000001
20
92.725000000000009
42
0.41421356237309503
10
-192.73750000000004
20
92.224999999999994
10
-192.73750000000004
20
79.224999999999994
42
0.41421356237309503
0
LWPOLYLINE
5
173
100
AcDbEntity
8
0
100
AcDbPolyline
90
8
70
1
43
0.0
10
-198.28749999999999
20
92.725000000000009
10
-211.28749999999999
20
92.725000000000009
42
0.41421356237309503
10
-211.78750000000002
20
92.224999999999994
10
-211.78750000000002
20
79.224999999999994
42
0.41421356237309503
10
-211.28749999999999
20
78.724999999999994
10
-198.28749999999999
20
78.724999999999994
42
0.41421356237309503
10
-197.78749999999999
20
79.224999999999994
10
-197.78749999999999
20
92.224999999999994
42
0.41421356237309503
0
LWPOLYLINE
5
174
100
AcDbEntity
8
0
100
AcDbPolyline
90
8
70
1
43
0.0
10
-160.1875
20
92.725000000000009
42
-0.41421356237309503
10
-159.6875
20
92.224999999999994
10
-159.6875
20
79.224999999999994
42
-0.41421356237309503
10
-160.1875
20
78.724999999999994
10
-173.1875
20
78.724999999999994
42
-0.41421356237309503
10
-173.68750000000003
20
79.224999999999994
10
-173.68750000000003
20
92.224999999999994
42
-0.41421356237309503
10
-173.1875
20
92.725000000000009
0
LWPOLYLINE
5
175
100
AcDbEntity
8
0
100
AcDbPolyline
90
8
70
1
43
0.0
10
-96.987500000000011
20
78.724999999999994
42
-0.41421356237309503
10
-97.487500000000011
20
79.224999999999994
10
-97.487500000000011
20
92.224999999999994
42
-0.41421356237309503
10
-96.987500000000011
20
92.725000000000009
10
-83.987499999999997
20
92.725000000000009
42
-0.41421356237309503
10
-83.487499999999983
20
92.224999999999994
10
-83.487499999999983
20
79.224999999999994
42
-0.41421356237309503
10
-83.987499999999997
20
78.724999999999994
0
LWPOLYLINE
5
176
100
AcDbEntity
8
0
100
AcDbPolyline
90
8
70
1
43
0.0
10
-135.08750000000001
20
78.724999999999994
42
-0.41421356237309503
10
-135.58750000000001
20
79.224999999999994
10
-135.58750000000001
20
92.224999999999994
42
-0.41421356237309503
10
-135.08750000000001
20
92.725000000000009
10
-122.08750000000002
20
92.725000000000009
42
-0.41421356237309503
10
-121.58750000000001
20
92.224999999999994
10
-121.58750000000001
20
79.224999999999994
42
-0.41421356237309503
10
-122.08750000000002
20
78.724999999999994
0
LWPOLYLINE
5
177
100
AcDbEntity
8
0
100
AcDbPolyline
90
8
70
1
43
0.0
10
-116.53750000000002
20
92.224999999999994
10
-116.53750000000002
20
79.224999999999994
42
0.41421356237310542
10
-116.03749999999998
20
78.724999999999994
10
-103.03750000000001
20
78.724999999999994
42
0.41421356237309503
10
-102.53749999999999
20
79.224999999999994
10
-102.53749999999999
20
92.224999999999994
42
0.41421356237309503
10
-103.03750000000001
20
92.725000000000009
10
-116.03749999999999
20
92.725000000000009
42
0.41421356237309503
0
LWPOLYLINE
5
178
100
AcDbEntity
8
0
100
AcDbPolyline
90
8
70
1
43
0.0
10
-154.63750000000002
20
92.224999999999994
42
-0.41421356237309503
10
-154.13749999999999
20
92.725000000000009
10
-141.13749999999999
20
92.725000000000009
42
-0.41421356237309503
10
-140.63749999999999
20
92.224999999999994
10
-140.63749999999999
20
79.224999999999994
42
-0.41421356237309503
10
-141.13749999999999
20
78.724999999999994
10
-154.13749999999999
20
78.724999999999994
42
-0.41421356237309503
10
-154.63750000000002
20
79.224999999999994
0
LWPOLYLINE
5
179
100
AcDbEntity
8
0
100
AcDbPolyline
90
8
70
1
43
0.0
10
-301.77499999999998
20
78.724999999999994
10
-288.77499999999998
20
78.724999999999994
42
0.41421356237309503
10
-288.27499999999998
20
79.224999999999994
10
-288.27499999999998
20
92.224999999999994
42
0.41421356237309503
10
-288.77499999999998
20
92.725000000000009
10
-301.77499999999998
20
92.725000000000009
42
0.41421356237309503
10
-302.27499999999998
20
92.224999999999994
10
-302.27499999999998
20
79.224999999999994
42
0.41421356237309503
0
LWPOLYLINE
5
180
100
AcDbEntity
8
0
100
AcDbPolyline
90
8
70
1
43
0.0
10
-16.525000000000006
20
111.27500000000001
42
-0.41421356237309503
10
-16.024999999999999
20
111.77500000000002
10
-3.0250000000000199
20
111.77500000000002
42
-0.41421356237310675
10
-2.5249999999999999
20
111.27500000000001
10
-2.5249999999999928
20
98.275000000000006
42
-0.41421356237309503
10
-3.0249999999999999
20
97.775000000000006
10
-16.024999999999991
20
97.775000000000006
42
-0.41421356237310025
10
-16.525000000000002
20
98.275000000000006
0
LWPOLYLINE
5
181
100
AcDbEntity
8
0
100
AcDbPolyline
90
8
70
1
43
0.0
10
-262.58125000000001
20
92.725000000000009
42
-0.41421356237309503
10
-262.08125000000001
20
92.224999999999994
10
-262.08125000000001
20
79.224999999999994
42
-0.41421356237309503
10
-262.58125000000001
20
78.724999999999994
10
-275.58125000000007
20
78.724999999999994
42
-0.41421356237309503
10
-276.08125000000007
20
79.224999999999994
10
-276.08125000000007
20
92.224999999999994
42
-0.41421356237309503
10
-275.58125000000007
20
92.725000000000009
0
LWPOLYLINE
5
182
100
AcDbEntity
8
0
100
AcDbPolyline
90
8
70
1
43
0.0
10
-236.38750000000002
20
92.725000000000009
10
-249.38749999999999
20
92.725000000000009
42
0.41421356237309503
10
-249.88749999999999
20
92.224999999999994
10
-249.88749999999999
20
79.224999999999994
42
0.41421356237309503
10
-249.38749999999999
20
78.724999999999994
10
-236.38750000000002
20
78.724999999999994
42
0.41421356237309503
10
-235.88750000000002
20
79.224999999999994
10
-235.88750000000002
20
92.224999999999994
42
0.41421356237309503
0
LWPOLYLINE
5
183
100
AcDbEntity
8
0
100
AcDbPolyline
90
8
70
1
43
0.0
10
-40.337500000000013
20
111.27500000000001
10
-40.337500000000013
20
98.275000000000006
42
0.41421356237309243
10
-39.837500000000006
20
97.775000000000006
10
-24.456250000000001
20
97.775000000000006
42
0.41421356237309503
10
-23.95624999999999
20
98.275000000000006
10
-23.956250000000004
20
111.27500000000001
42
0.41421356237309243
10
-24.456249999999997
20
111.77500000000002
10
-39.837499999999999
20
111.77500000000002
42
0.41421356237309503
0
LWPOLYLINE
5
184
100
AcDbEntity
8
0
100
AcDbPolyline
90
8
70
1
43
0.0
10
-307.32499999999999
20
79.224999999999994
10
-307.32499999999999
20
92.224999999999994
42
0.41421356237309503
10
-307.82499999999999
20
92.725000000000009
10
-320.82500000000005
20
92.725000000000009
42
0.41421356237309503
10
-321.32499999999999
20
92.224999999999994
10
-321.32499999999999
20
79.224999999999994
42
0.41421356237309503
10
-320.82500000000005
20
78.725000000000023
10
-307.82499999999999
20
78.724999999999994
42
0.41421356237309503
0
LWPOLYLINE
5
185
100
AcDbEntity
8
0
100
AcDbPolyline
90
8
70
1
43
0.0
10
-230.83750000000003
20
92.224999999999994
42
-0.41421356237309503
10
-230.33750000000001
20
92.725000000000009
10
-217.33750000000001
20
92.725000000000009
42
-0.41421356237309503
10
-216.83750000000001
20
92.224999999999994
10
-216.83750000000001
20
79.224999999999994
42
-0.41421356237309503
10
-217.33750000000001
20
78.724999999999994
10
-230.33750000000001
20
78.724999999999994
42
-0.41421356237309503
10
-230.83750000000003
20
79.224999999999994
0
LWPOLYLINE
5
186
100
AcDbEntity
8
0
100
AcDbPolyline
90
8
70
1
43
0.0
10
-68.412499999999994
20
97.775000000000006
42
-0.41421356237309503
10
-68.912499999999994
20
98.275000000000006
10
-68.912500000000009
20
111.27500000000001
42
-0.41421356237309503
10
-68.412499999999994
20
111.77500000000002
10
-48.268750000000011
20
111.77500000000002
42
-0.41421356237310025
10
-47.768750000000004
20
111.27500000000001
10
-47.768749999999997
20
98.275000000000006
42
-0.41421356237309503
10
-48.268750000000004
20
97.775000000000006
0
LWPOLYLINE
5
187
100
AcDbEntity
8
0
100
AcDbPolyline
90
11
70
1
43
0.0
10
-81.724999999999966
20
111.77500000000002
42
-0.4142135623730846
10
-82.224999999999966
20
112.27500000000001
42
0.41421356237310542
10
-82.725000000000009
20
112.77500000000002
10
-88.725000000000009
20
112.77500000000002
42
0.41421356237309503
10
-89.224999999999994
20
112.27500000000001
10
-89.225000000000009
20
98.275000000000006
42
0.4142135623730846
10
-88.725000000000023
20
97.775000000000006
10
-72.081249999999997
20
97.775000000000006
42
0.41421356237309503
10
-71.581249999999983
20
98.275000000000006
10
-71.581249999999997
20
111.27500000000001
42
0.41421356237308982
10
-72.081249999999983
20
111.77500000000002
0
LWPOLYLINE
5
188
100
AcDbEntity
8
0
100
AcDbPolyline
90
8
70
1
43
0.0
10
-302.27499999999998
20
111.27500000000001
10
-302.27499999999998
20
98.275000000000006
42
0.41421356237309503
10
-301.77499999999998
20
97.775000000000006
10
-288.77499999999998
20
97.775000000000006
42
0.41421356237309503
10
-288.27499999999998
20
98.275000000000006
10
-288.27499999999998
20
111.27500000000001
42
0.41421356237309503
10
-288.77499999999998
20
111.77500000000002
10
-301.77499999999998
20
111.77500000000002
42
0.41421356237309503
0
LWPOLYLINE
5
189
100
AcDbEntity
8
0
100
AcDbPolyline
90
8
70
1
43
0.0
10
-283.22500000000002
20
111.27500000000001
42
-0.41421356237309503
10
-282.72500000000002
20
111.77500000000002
10
-269.72500000000002
20
111.77500000000002
42
-0.41421356237309503
10
-269.22500000000002
20
111.27500000000001
10
-269.22500000000002
20
98.275000000000006
42
-0.41421356237309503
10
-269.72500000000002
20
97.775000000000006
10
-282.72500000000002
20
97.775000000000006
42
-0.41421356237309503
10
-283.22500000000002
20
98.275000000000006
0
LWPOLYLINE
5
190
100
AcDbEntity
8
0
100
AcDbPolyline
90
8
70
1
43
0.0
10
-321.32500000000005
20
111.27500000000001
10
-321.32499999999999
20
98.275000000000006
42
0.41421356237309503
10
-320.82500000000005
20
97.775000000000034
10
-307.82499999999999
20
97.775000000000006
42
0.41421356237309503
10
-307.32499999999999
20
98.275000000000006
10
-307.32499999999999
20
111.27500000000001
42
0.41421356237309503
10
-307.82499999999999
20
111.77500000000002
10
-320.82500000000005
20
111.77500000000002
42
0.41421356237309503
0
LWPOLYLINE
5
191
100
AcDbEntity
8
0
100
AcDbPolyline
90
8
70
1
43
0.0
10
-263.67500000000001
20
97.775000000000006
10
-212.57499999999999
20
97.775000000000006
42
0.41421356237309503
10
-212.07499999999999
20
98.275000000000006
10
-212.07499999999999
20
111.27500000000001
42
0.41421356237309503
10
-212.57499999999999
20
111.77500000000002
10
-263.67500000000001
20
111.77500000000002
42
0.41421356237309503
10
-264.17500000000007
20
111.27500000000001
10
-264.17500000000007
20
98.275000000000006
42
0.41421356237309503
0
LINE
5
192
100
AcDbEntity
8
0
100
AcDbLine
10
-203.52500000000003
20
96.775000000000006
30
0
11
-203.52500000000003
21
112.27500000000001
31
0
0
ARC
5
193
100
AcDbEntity
8
0
100
AcDbCircle
10
-203.02500000000003
20
112.27500000000001
30
0
40
0.50000000000000711
210
0
220
-0
230
1
100
AcDbArc
50
90
51
180
0
LINE
5
194
100
AcDbEntity
8
0
100
AcDbLine
10
-203.02500000000003
20
112.77500000000002
30
0
11
-103.02048125903514
21
112.77500000000003
31
0
0
LINE
5
195
100
AcDbEntity
8
0
100
AcDbLine
10
-103.01875000000001
20
112.77500000000002
30
0
11
-97.018750000000011
21
112.77500000000002
31
0
0
ARC
5
196
100
AcDbEntity
8
0
100
AcDbCircle
10
-97.018750000000011
20
112.27500000000001
30
0
40
0.50000000000000711
210
0
220
0
230
1
100
AcDbArc
50
0
51
90
0
LINE
5
197
100
AcDbEntity
8
0
100
AcDbLine
10
-96.518750000000011
20
112.27500000000001
30
0
11
-96.518750000000011
21
96.775000000000006
31
0
0
LINE
5
198
100
AcDbEntity
8
0
100
AcDbLine
10
-96.518750000000011
20
96.775000000000006
30
0
11
-127.01875000000001
21
96.775000000000006
31
0
0
LINE
5
199
100
AcDbEntity
8
0
100
AcDbLine
10
-127.01875000000001
20
96.775000000000006
30
0
11
-127.01875000000001
21
97.775000000000006
31
0
0
LINE
5
200
100
AcDbEntity
8
0
100
AcDbLine
10
-127.01875000000001
20
97.775000000000006
30
0
11
-183.02500000000003
21
97.775000000000006
31
0
0
LINE
5
201
100
AcDbEntity
8
0
100
AcDbLine
10
-183.02500000000003
20
97.775000000000006
30
0
11
-183.02500000000003
21
96.775000000000006
31
0
0
LINE
5
202
100
AcDbEntity
8
0
100
AcDbLine
10
-183.02500000000003
20
96.775000000000006
30
0
11
-203.52500000000003
21
96.775000000000006
31
0
0
CIRCLE
5
203
100
AcDbEntity
8
0
100
AcDbCircle
10
-57.355979267920212
20
19.130118605461849
30
0
40
2.2999662737494653
210
0
220
0
230
1
0
CIRCLE
5
204
100
AcDbEntity
8
0
100
AcDbCircle
10
-114.35000543133356
20
18.867500896158163
30
0
40
2.251242352140661
210
0
220
0
230
1
0
CIRCLE
5
205
100
AcDbEntity
8
0
100
AcDbCircle
10
-152.35000723623671
20
19.120000908151269
30
0
40
2.2765945657290665
210
0
220
0
230
1
0
CIRCLE
5
206
100
AcDbEntity
8
0
100
AcDbCircle
10
-209.59834371576216
20
18.872473770334043
30
0
40
2.2748618055335967
210
0
220
0
230
1
0
CIRCLE
5
207
100
AcDbEntity
8
0
100
AcDbCircle
10
-266.59999404102564
20
19.099999573081732
30
0
40
2.3021728351866955
210
0
220
0
230
1
0
CIRCLE
5
208
100
AcDbEntity
8
0
100
AcDbCircle
10
-281.57856025150966
20
93.788080587458523
30
0
40
2.3039044323851599
210
0
220
0
230
1
0
CIRCLE
5
209
100
AcDbEntity
8
0
100
AcDbCircle
10
-20.355420384360592
20
76.120454687611542
30
0
40
2.2535321613516728
210
0
220
0
230
1
0
CIRCLE
5
210
100
AcDbEntity
8
0
100
AcDbCircle
10
-19.09863918599984
20
38.120329451356987
30
0
40
2.2762312409769434
210
0
220
0
230
1
0
CIRCLE
5
211
100
AcDbEntity
8
0
100
AcDbCircle
10
-47.351181696343346
20
57.370543847597347
30
0
40
2.2771056369135891
210
0
220
0
230
1
0
CIRCLE
5
212
100
AcDbEntity
8
0
100
AcDbCircle
10
-255.35001212847419
20
76.610003638779745
30
0
40
2.2949008488086835
210
0
220
0
230
1
0
CIRCLE
5
213
100
AcDbEntity
8
0
100
AcDbCircle
10
-281.57856025150966
20
93.788080587458523
30
0
40
2.3039044323851505
210
0
220
0
230
1
0
CIRCLE
5
214
100
AcDbEntity
8
0
100
AcDbCircle
10
-219.09906589178536
20
56.61937341443803
30
0
40
2.2999823888955171
210
0
220
0
230
1
0
LINE
5
215
100
AcDbEntity
8
0
100
AcDbLine
10
0
20
0
30
0
11
-19.074999999999992
21
0
31
0
0
LINE
5
216
100
AcDbEntity
8
0
100
AcDbLine
10
0
20
1.993967447388052
30
0
11
0
21
0
31
0
0
LWPOLYLINE
5
217
100
AcDbEntity
8
0
100
AcDbPolyline
90
4
70
1
43
0.0
10
-2.017290758291499
20
19.075000000000006
10
-2.017290758291499
20
1.993967447388052
10
-19.074999999999992
20
1.993967447388052
10
-19.074999999999992
20
19.075000000000006
0
LINE
5
218
100
AcDbEntity
8
0
100
AcDbLine
10
0
20
19.075000000000006
30
0
11
0
21
1.993967447388052
31
0
0
LINE
5
219
100
AcDbEntity
8
0
100
AcDbLine
10
-285.72500000000002
20
0
30
0
11
-321.51923244652778
21
0
31
0
0
LINE
5
220
100
AcDbEntity
8
0
100
AcDbLine
10
-321.51923244652778
20
0
30
0
11
-323.84999999999997
21
0
31
0
0
LINE
5
221
100
AcDbEntity
8
0
100
AcDbLine
10
-323.84999999999997
20
0
30
0
11
-323.84999999999997
21
19.074999999999989
31
0
0
LINE
5
222
100
AcDbEntity
8
0
100
AcDbLine
10
-321.51923244652778
20
1.993967447388052
30
0
11
-321.51923244652778
21
19.074999999999989
31
0
0
LINE
5
223
100
AcDbEntity
8
0
100
AcDbLine
10
-321.51923244652778
20
1.993967447388052
30
0
11
-285.72500000000002
21
1.993967447388052
31
0
0
ENDSEC
0
SECTION
2
OBJECTS
0
DICTIONARY
5
C
100
AcDbDictionary
3
ACAD_GROUP
350
D
3
ACAD_MLINESTYLE
350
17
0
DICTIONARY
5
D
100
AcDbDictionary
0
DICTIONARY
5
1A
330
C
100
AcDbDictionary
0
DICTIONARY
5
17
100
AcDbDictionary
0
ENDSEC
0
EOF
