  0
SECTION
  2
HEADER
  9
$ACADVER
  1
AC1009
  9
$EXTMIN
 10
0.0
 20
0.0
 30
0.0
  9
$EXTMAX
 10
1000.0
 20
1000.0
 30
0.0
  9
$FILLMODE
 70
 0
  9
$SPLFRAME
 70
 1
  0
ENDSEC
  0
SECTION
  2
TABLES
  0
TABLE
  2
LAYER
 70
1
  0
LAYER
  2
0
 70
     0
 62
     7
  6
CONTINUOUS
  0
ENDTAB
  0
ENDSEC
  0
SECTION
  2
ENTITIES
  0
LINE
  8
0
 62
     0
 10
0.0950846
 20
124.435
 30
0.0
 11
333.945
 21
124.435
 31
0.0
  0
LINE
  8
0
 62
     0
 10
333.945
 20
124.435
 30
0.0
 11
333.945
 21
0.136426
 31
0.0
  0
LINE
  8
0
 62
     0
 10
333.945
 20
0.136426
 30
0.0
 11
0.0950846
 21
0.136426
 31
0.0
  0
LINE
  8
0
 62
     0
 10
0.0950846
 20
0.136426
 30
0.0
 11
0.0950846
 21
124.435
 31
0.0
  0
LINE
  8
0
 62
     0
 10
1.97611
 20
4.53789
 30
0.0
 11
1.418
 21
4.25401
 31
0.0
  0
LINE
  8
0
 62
     0
 10
1.418
 20
4.25401
 30
0.0
 11
0.975653
 21
3.81166
 31
0.0
  0
LINE
  8
0
 62
     0
 10
0.975653
 20
3.81166
 30
0.0
 11
0.691776
 21
3.25355
 31
0.0
  0
LINE
  8
0
 62
     0
 10
0.691776
 20
3.25355
 30
0.0
 11
0.593933
 21
2.63481
 31
0.0
  0
LINE
  8
0
 62
     0
 10
0.593933
 20
2.63481
 30
0.0
 11
0.691776
 21
2.01745
 31
0.0
  0
LINE
  8
0
 62
     0
 10
0.691776
 20
2.01745
 30
0.0
 11
0.975653
 21
1.46072
 31
0.0
  0
LINE
  8
0
 62
     0
 10
0.975653
 20
1.46072
 30
0.0
 11
1.418
 21
1.01699
 31
0.0
  0
LINE
  8
0
 62
     0
 10
1.418
 20
1.01699
 30
0.0
 11
1.97611
 21
0.733118
 31
0.0
  0
LINE
  8
0
 62
     0
 10
1.97611
 20
0.733118
 30
0.0
 11
2.59485
 21
0.636655
 31
0.0
  0
LINE
  8
0
 62
     0
 10
2.59485
 20
0.636655
 30
0.0
 11
3.21221
 21
0.733118
 31
0.0
  0
LINE
  8
0
 62
     0
 10
3.21221
 20
0.733118
 30
0.0
 11
3.76894
 21
1.01699
 31
0.0
  0
LINE
  8
0
 62
     0
 10
3.76894
 20
1.01699
 30
0.0
 11
4.21266
 21
1.46072
 31
0.0
  0
LINE
  8
0
 62
     0
 10
4.21266
 20
1.46072
 30
0.0
 11
4.49654
 21
2.01745
 31
0.0
  0
LINE
  8
0
 62
     0
 10
4.49654
 20
2.01745
 30
0.0
 11
4.59437
 21
2.63619
 31
0.0
  0
LINE
  8
0
 62
     0
 10
4.59437
 20
2.63619
 30
0.0
 11
4.49654
 21
3.25355
 31
0.0
  0
LINE
  8
0
 62
     0
 10
4.49654
 20
3.25355
 30
0.0
 11
4.21266
 21
3.81166
 31
0.0
  0
LINE
  8
0
 62
     0
 10
4.21266
 20
3.81166
 30
0.0
 11
3.76894
 21
4.25401
 31
0.0
  0
LINE
  8
0
 62
     0
 10
3.76894
 20
4.25401
 30
0.0
 11
3.21221
 21
4.53789
 31
0.0
  0
LINE
  8
0
 62
     0
 10
3.21221
 20
4.53789
 30
0.0
 11
2.59485
 21
4.63571
 31
0.0
  0
LINE
  8
0
 62
     0
 10
2.59485
 20
4.63571
 30
0.0
 11
1.97611
 21
4.53789
 31
0.0
  0
LINE
  8
0
 62
     0
 10
111.592
 20
4.53789
 30
0.0
 11
111.035
 21
4.25401
 31
0.0
  0
LINE
  8
0
 62
     0
 10
111.035
 20
4.25401
 30
0.0
 11
110.593
 21
3.81166
 31
0.0
  0
LINE
  8
0
 62
     0
 10
110.593
 20
3.81166
 30
0.0
 11
110.308
 21
3.25355
 31
0.0
  0
LINE
  8
0
 62
     0
 10
110.308
 20
3.25355
 30
0.0
 11
110.211
 21
2.63481
 31
0.0
  0
LINE
  8
0
 62
     0
 10
110.211
 20
2.63481
 30
0.0
 11
110.308
 21
2.01745
 31
0.0
  0
LINE
  8
0
 62
     0
 10
110.308
 20
2.01745
 30
0.0
 11
110.593
 21
1.46072
 31
0.0
  0
LINE
  8
0
 62
     0
 10
110.593
 20
1.46072
 30
0.0
 11
111.035
 21
1.01699
 31
0.0
  0
LINE
  8
0
 62
     0
 10
111.035
 20
1.01699
 30
0.0
 11
111.592
 21
0.733118
 31
0.0
  0
LINE
  8
0
 62
     0
 10
111.592
 20
0.733118
 30
0.0
 11
112.211
 21
0.636655
 31
0.0
  0
LINE
  8
0
 62
     0
 10
112.211
 20
0.636655
 30
0.0
 11
112.83
 21
0.733118
 31
0.0
  0
LINE
  8
0
 62
     0
 10
112.83
 20
0.733118
 30
0.0
 11
113.386
 21
1.01699
 31
0.0
  0
LINE
  8
0
 62
     0
 10
113.386
 20
1.01699
 30
0.0
 11
113.83
 21
1.46072
 31
0.0
  0
LINE
  8
0
 62
     0
 10
113.83
 20
1.46072
 30
0.0
 11
114.114
 21
2.01745
 31
0.0
  0
LINE
  8
0
 62
     0
 10
114.114
 20
2.01745
 30
0.0
 11
114.212
 21
2.63619
 31
0.0
  0
LINE
  8
0
 62
     0
 10
114.212
 20
2.63619
 30
0.0
 11
114.114
 21
3.25355
 31
0.0
  0
LINE
  8
0
 62
     0
 10
114.114
 20
3.25355
 30
0.0
 11
113.83
 21
3.81166
 31
0.0
  0
LINE
  8
0
 62
     0
 10
113.83
 20
3.81166
 30
0.0
 11
113.386
 21
4.25401
 31
0.0
  0
LINE
  8
0
 62
     0
 10
113.386
 20
4.25401
 30
0.0
 11
112.83
 21
4.53789
 31
0.0
  0
LINE
  8
0
 62
     0
 10
112.83
 20
4.53789
 30
0.0
 11
112.211
 21
4.63571
 31
0.0
  0
LINE
  8
0
 62
     0
 10
112.211
 20
4.63571
 30
0.0
 11
111.592
 21
4.53789
 31
0.0
  0
LINE
  8
0
 62
     0
 10
221.21
 20
4.53789
 30
0.0
 11
220.653
 21
4.25401
 31
0.0
  0
LINE
  8
0
 62
     0
 10
220.653
 20
4.25401
 30
0.0
 11
220.209
 21
3.81166
 31
0.0
  0
LINE
  8
0
 62
     0
 10
220.209
 20
3.81166
 30
0.0
 11
219.925
 21
3.25355
 31
0.0
  0
LINE
  8
0
 62
     0
 10
219.925
 20
3.25355
 30
0.0
 11
219.829
 21
2.63481
 31
0.0
  0
LINE
  8
0
 62
     0
 10
219.829
 20
2.63481
 30
0.0
 11
219.925
 21
2.01745
 31
0.0
  0
LINE
  8
0
 62
     0
 10
219.925
 20
2.01745
 30
0.0
 11
220.209
 21
1.46072
 31
0.0
  0
LINE
  8
0
 62
     0
 10
220.209
 20
1.46072
 30
0.0
 11
220.653
 21
1.01699
 31
0.0
  0
LINE
  8
0
 62
     0
 10
220.653
 20
1.01699
 30
0.0
 11
221.21
 21
0.733118
 31
0.0
  0
LINE
  8
0
 62
     0
 10
221.21
 20
0.733118
 30
0.0
 11
221.828
 21
0.636655
 31
0.0
  0
LINE
  8
0
 62
     0
 10
221.828
 20
0.636655
 30
0.0
 11
222.447
 21
0.733118
 31
0.0
  0
LINE
  8
0
 62
     0
 10
222.447
 20
0.733118
 30
0.0
 11
223.004
 21
1.01699
 31
0.0
  0
LINE
  8
0
 62
     0
 10
223.004
 20
1.01699
 30
0.0
 11
223.446
 21
1.46072
 31
0.0
  0
LINE
  8
0
 62
     0
 10
223.446
 20
1.46072
 30
0.0
 11
223.73
 21
2.01745
 31
0.0
  0
LINE
  8
0
 62
     0
 10
223.73
 20
2.01745
 30
0.0
 11
223.828
 21
2.63619
 31
0.0
  0
LINE
  8
0
 62
     0
 10
223.828
 20
2.63619
 30
0.0
 11
223.73
 21
3.25355
 31
0.0
  0
LINE
  8
0
 62
     0
 10
223.73
 20
3.25355
 30
0.0
 11
223.446
 21
3.81166
 31
0.0
  0
LINE
  8
0
 62
     0
 10
223.446
 20
3.81166
 30
0.0
 11
223.004
 21
4.25401
 31
0.0
  0
LINE
  8
0
 62
     0
 10
223.004
 20
4.25401
 30
0.0
 11
222.447
 21
4.53789
 31
0.0
  0
LINE
  8
0
 62
     0
 10
222.447
 20
4.53789
 30
0.0
 11
221.828
 21
4.63571
 31
0.0
  0
LINE
  8
0
 62
     0
 10
221.828
 20
4.63571
 30
0.0
 11
221.21
 21
4.53789
 31
0.0
  0
LINE
  8
0
 62
     0
 10
330.827
 20
4.53789
 30
0.0
 11
330.269
 21
4.25401
 31
0.0
  0
LINE
  8
0
 62
     0
 10
330.269
 20
4.25401
 30
0.0
 11
329.826
 21
3.81166
 31
0.0
  0
LINE
  8
0
 62
     0
 10
329.826
 20
3.81166
 30
0.0
 11
329.543
 21
3.25355
 31
0.0
  0
LINE
  8
0
 62
     0
 10
329.543
 20
3.25355
 30
0.0
 11
329.445
 21
2.63481
 31
0.0
  0
LINE
  8
0
 62
     0
 10
329.445
 20
2.63481
 30
0.0
 11
329.543
 21
2.01745
 31
0.0
  0
LINE
  8
0
 62
     0
 10
329.543
 20
2.01745
 30
0.0
 11
329.826
 21
1.46072
 31
0.0
  0
LINE
  8
0
 62
     0
 10
329.826
 20
1.46072
 30
0.0
 11
330.269
 21
1.01699
 31
0.0
  0
LINE
  8
0
 62
     0
 10
330.269
 20
1.01699
 30
0.0
 11
330.827
 21
0.733118
 31
0.0
  0
LINE
  8
0
 62
     0
 10
330.827
 20
0.733118
 30
0.0
 11
331.446
 21
0.636655
 31
0.0
  0
LINE
  8
0
 62
     0
 10
331.446
 20
0.636655
 30
0.0
 11
332.063
 21
0.733118
 31
0.0
  0
LINE
  8
0
 62
     0
 10
332.063
 20
0.733118
 30
0.0
 11
332.62
 21
1.01699
 31
0.0
  0
LINE
  8
0
 62
     0
 10
332.62
 20
1.01699
 30
0.0
 11
333.064
 21
1.46072
 31
0.0
  0
LINE
  8
0
 62
     0
 10
333.064
 20
1.46072
 30
0.0
 11
333.347
 21
2.01745
 31
0.0
  0
LINE
  8
0
 62
     0
 10
333.347
 20
2.01745
 30
0.0
 11
333.445
 21
2.63619
 31
0.0
  0
LINE
  8
0
 62
     0
 10
333.445
 20
2.63619
 30
0.0
 11
333.347
 21
3.25355
 31
0.0
  0
LINE
  8
0
 62
     0
 10
333.347
 20
3.25355
 30
0.0
 11
333.064
 21
3.81166
 31
0.0
  0
LINE
  8
0
 62
     0
 10
333.064
 20
3.81166
 30
0.0
 11
332.62
 21
4.25401
 31
0.0
  0
LINE
  8
0
 62
     0
 10
332.62
 20
4.25401
 30
0.0
 11
332.063
 21
4.53789
 31
0.0
  0
LINE
  8
0
 62
     0
 10
332.063
 20
4.53789
 30
0.0
 11
331.446
 21
4.63571
 31
0.0
  0
LINE
  8
0
 62
     0
 10
331.446
 20
4.63571
 30
0.0
 11
330.827
 21
4.53789
 31
0.0
  0
LINE
  8
0
 62
     0
 10
76.6755
 20
21.6614
 30
0.0
 11
76.6755
 21
20.6623
 31
0.0
  0
LINE
  8
0
 62
     0
 10
76.6755
 20
20.6623
 30
0.0
 11
75.8762
 21
20.6623
 31
0.0
  0
LINE
  8
0
 62
     0
 10
75.8762
 20
20.6623
 30
0.0
 11
75.8762
 21
17.5617
 31
0.0
  0
LINE
  8
0
 62
     0
 10
75.8762
 20
17.5617
 30
0.0
 11
76.6755
 21
17.5617
 31
0.0
  0
LINE
  8
0
 62
     0
 10
76.6755
 20
17.5617
 30
0.0
 11
76.6755
 21
11.7615
 31
0.0
  0
LINE
  8
0
 62
     0
 10
76.6755
 20
11.7615
 30
0.0
 11
75.8762
 21
11.7615
 31
0.0
  0
LINE
  8
0
 62
     0
 10
75.8762
 20
11.7615
 30
0.0
 11
75.8762
 21
8.66235
 31
0.0
  0
LINE
  8
0
 62
     0
 10
75.8762
 20
8.66235
 30
0.0
 11
76.6755
 21
8.66235
 31
0.0
  0
LINE
  8
0
 62
     0
 10
76.6755
 20
8.66235
 30
0.0
 11
76.6755
 21
7.66191
 31
0.0
  0
LINE
  8
0
 62
     0
 10
76.6755
 20
7.66191
 30
0.0
 11
89.1702
 21
7.66191
 31
0.0
  0
LINE
  8
0
 62
     0
 10
89.1702
 20
7.66191
 30
0.0
 11
89.1702
 21
6.69177
 31
0.0
  0
LINE
  8
0
 62
     0
 10
89.1702
 20
6.69177
 30
0.0
 11
92.4691
 21
6.69177
 31
0.0
  0
LINE
  8
0
 62
     0
 10
92.4691
 20
6.69177
 30
0.0
 11
92.4691
 21
7.89203
 31
0.0
  0
LINE
  8
0
 62
     0
 10
92.4691
 20
7.89203
 30
0.0
 11
94.1945
 21
7.89203
 31
0.0
  0
LINE
  8
0
 62
     0
 10
94.1945
 20
7.89203
 30
0.0
 11
94.1945
 21
12.3624
 31
0.0
  0
LINE
  8
0
 62
     0
 10
94.1945
 20
12.3624
 30
0.0
 11
101.738
 21
12.3624
 31
0.0
  0
LINE
  8
0
 62
     0
 10
101.738
 20
12.3624
 30
0.0
 11
101.738
 21
7.89203
 31
0.0
  0
LINE
  8
0
 62
     0
 10
101.738
 20
7.89203
 30
0.0
 11
103.463
 21
7.89203
 31
0.0
  0
LINE
  8
0
 62
     0
 10
103.463
 20
7.89203
 30
0.0
 11
103.463
 21
6.69177
 31
0.0
  0
LINE
  8
0
 62
     0
 10
103.463
 20
6.69177
 30
0.0
 11
106.762
 21
6.69177
 31
0.0
  0
LINE
  8
0
 62
     0
 10
106.762
 20
6.69177
 30
0.0
 11
106.762
 21
7.89203
 31
0.0
  0
LINE
  8
0
 62
     0
 10
106.762
 20
7.89203
 30
0.0
 11
108.487
 21
7.89203
 31
0.0
  0
LINE
  8
0
 62
     0
 10
108.487
 20
7.89203
 30
0.0
 11
108.487
 21
12.3624
 31
0.0
  0
LINE
  8
0
 62
     0
 10
108.487
 20
12.3624
 30
0.0
 11
140.969
 21
12.3624
 31
0.0
  0
LINE
  8
0
 62
     0
 10
140.969
 20
12.3624
 30
0.0
 11
140.969
 21
11.7615
 31
0.0
  0
LINE
  8
0
 62
     0
 10
140.969
 20
11.7615
 30
0.0
 11
140.17
 21
11.7615
 31
0.0
  0
LINE
  8
0
 62
     0
 10
140.17
 20
11.7615
 30
0.0
 11
140.17
 21
8.66235
 31
0.0
  0
LINE
  8
0
 62
     0
 10
140.17
 20
8.66235
 30
0.0
 11
140.969
 21
8.66235
 31
0.0
  0
LINE
  8
0
 62
     0
 10
140.969
 20
8.66235
 30
0.0
 11
140.969
 21
7.66191
 31
0.0
  0
LINE
  8
0
 62
     0
 10
140.969
 20
7.66191
 30
0.0
 11
162.112
 21
7.66191
 31
0.0
  0
LINE
  8
0
 62
     0
 10
162.112
 20
7.66191
 30
0.0
 11
162.112
 21
8.66235
 31
0.0
  0
LINE
  8
0
 62
     0
 10
162.112
 20
8.66235
 30
0.0
 11
162.913
 21
8.66235
 31
0.0
  0
LINE
  8
0
 62
     0
 10
162.913
 20
8.66235
 30
0.0
 11
162.913
 21
11.7615
 31
0.0
  0
LINE
  8
0
 62
     0
 10
162.913
 20
11.7615
 30
0.0
 11
162.112
 21
11.7615
 31
0.0
  0
LINE
  8
0
 62
     0
 10
162.112
 20
11.7615
 30
0.0
 11
162.112
 21
12.3624
 31
0.0
  0
LINE
  8
0
 62
     0
 10
162.112
 20
12.3624
 30
0.0
 11
201.738
 21
12.3624
 31
0.0
  0
LINE
  8
0
 62
     0
 10
201.738
 20
12.3624
 30
0.0
 11
201.738
 21
7.89203
 31
0.0
  0
LINE
  8
0
 62
     0
 10
201.738
 20
7.89203
 30
0.0
 11
203.462
 21
7.89203
 31
0.0
  0
LINE
  8
0
 62
     0
 10
203.462
 20
7.89203
 30
0.0
 11
203.462
 21
6.69177
 31
0.0
  0
LINE
  8
0
 62
     0
 10
203.462
 20
6.69177
 30
0.0
 11
206.769
 21
6.69177
 31
0.0
  0
LINE
  8
0
 62
     0
 10
206.769
 20
6.69177
 30
0.0
 11
206.769
 21
7.89203
 31
0.0
  0
LINE
  8
0
 62
     0
 10
206.769
 20
7.89203
 30
0.0
 11
208.494
 21
7.89203
 31
0.0
  0
LINE
  8
0
 62
     0
 10
208.494
 20
7.89203
 30
0.0
 11
208.494
 21
14.1621
 31
0.0
  0
LINE
  8
0
 62
     0
 10
208.494
 20
14.1621
 30
0.0
 11
209.32
 21
14.1621
 31
0.0
  0
LINE
  8
0
 62
     0
 10
209.32
 20
14.1621
 30
0.0
 11
209.32
 21
16.9609
 31
0.0
  0
LINE
  8
0
 62
     0
 10
209.32
 20
16.9609
 30
0.0
 11
208.494
 21
16.9609
 31
0.0
  0
LINE
  8
0
 62
     0
 10
208.494
 20
16.9609
 30
0.0
 11
208.494
 21
20.1924
 31
0.0
  0
LINE
  8
0
 62
     0
 10
208.494
 20
20.1924
 30
0.0
 11
201.738
 21
20.1924
 31
0.0
  0
LINE
  8
0
 62
     0
 10
201.738
 20
20.1924
 30
0.0
 11
201.738
 21
16.9609
 31
0.0
  0
LINE
  8
0
 62
     0
 10
201.738
 20
16.9609
 30
0.0
 11
162.112
 21
16.9609
 31
0.0
  0
LINE
  8
0
 62
     0
 10
162.112
 20
16.9609
 30
0.0
 11
162.112
 21
17.5617
 31
0.0
  0
LINE
  8
0
 62
     0
 10
162.112
 20
17.5617
 30
0.0
 11
162.913
 21
17.5617
 31
0.0
  0
LINE
  8
0
 62
     0
 10
162.913
 20
17.5617
 30
0.0
 11
162.913
 21
20.6623
 31
0.0
  0
LINE
  8
0
 62
     0
 10
162.913
 20
20.6623
 30
0.0
 11
162.112
 21
20.6623
 31
0.0
  0
LINE
  8
0
 62
     0
 10
162.112
 20
20.6623
 30
0.0
 11
162.112
 21
21.6614
 31
0.0
  0
LINE
  8
0
 62
     0
 10
162.112
 20
21.6614
 30
0.0
 11
140.969
 21
21.6614
 31
0.0
  0
LINE
  8
0
 62
     0
 10
140.969
 20
21.6614
 30
0.0
 11
140.969
 21
20.6623
 31
0.0
  0
LINE
  8
0
 62
     0
 10
140.969
 20
20.6623
 30
0.0
 11
140.17
 21
20.6623
 31
0.0
  0
LINE
  8
0
 62
     0
 10
140.17
 20
20.6623
 30
0.0
 11
140.17
 21
17.5617
 31
0.0
  0
LINE
  8
0
 62
     0
 10
140.17
 20
17.5617
 30
0.0
 11
140.969
 21
17.5617
 31
0.0
  0
LINE
  8
0
 62
     0
 10
140.969
 20
17.5617
 30
0.0
 11
140.969
 21
16.9609
 31
0.0
  0
LINE
  8
0
 62
     0
 10
140.969
 20
16.9609
 30
0.0
 11
108.487
 21
16.9609
 31
0.0
  0
LINE
  8
0
 62
     0
 10
108.487
 20
16.9609
 30
0.0
 11
108.487
 21
20.1924
 31
0.0
  0
LINE
  8
0
 62
     0
 10
108.487
 20
20.1924
 30
0.0
 11
101.738
 21
20.1924
 31
0.0
  0
LINE
  8
0
 62
     0
 10
101.738
 20
20.1924
 30
0.0
 11
101.738
 21
16.9609
 31
0.0
  0
LINE
  8
0
 62
     0
 10
101.738
 20
16.9609
 30
0.0
 11
94.1945
 21
16.9609
 31
0.0
  0
LINE
  8
0
 62
     0
 10
94.1945
 20
16.9609
 30
0.0
 11
94.1945
 21
20.1924
 31
0.0
  0
LINE
  8
0
 62
     0
 10
94.1945
 20
20.1924
 30
0.0
 11
91.4756
 21
20.1924
 31
0.0
  0
LINE
  8
0
 62
     0
 10
91.4756
 20
20.1924
 30
0.0
 11
91.4756
 21
20.6623
 31
0.0
  0
LINE
  8
0
 62
     0
 10
91.4756
 20
20.6623
 30
0.0
 11
90.6748
 21
20.6623
 31
0.0
  0
LINE
  8
0
 62
     0
 10
90.6748
 20
20.6623
 30
0.0
 11
90.6748
 21
21.6614
 31
0.0
  0
LINE
  8
0
 62
     0
 10
90.6748
 20
21.6614
 30
0.0
 11
76.6755
 21
21.6614
 31
0.0
  0
LINE
  8
0
 62
     0
 10
312.419
 20
21.6614
 30
0.0
 11
312.419
 21
20.6623
 31
0.0
  0
LINE
  8
0
 62
     0
 10
312.419
 20
20.6623
 30
0.0
 11
311.62
 21
20.6623
 31
0.0
  0
LINE
  8
0
 62
     0
 10
311.62
 20
20.6623
 30
0.0
 11
311.62
 21
17.5617
 31
0.0
  0
LINE
  8
0
 62
     0
 10
311.62
 20
17.5617
 30
0.0
 11
312.419
 21
17.5617
 31
0.0
  0
LINE
  8
0
 62
     0
 10
312.419
 20
17.5617
 30
0.0
 11
312.419
 21
11.7615
 31
0.0
  0
LINE
  8
0
 62
     0
 10
312.419
 20
11.7615
 30
0.0
 11
311.62
 21
11.7615
 31
0.0
  0
LINE
  8
0
 62
     0
 10
311.62
 20
11.7615
 30
0.0
 11
311.62
 21
8.66235
 31
0.0
  0
LINE
  8
0
 62
     0
 10
311.62
 20
8.66235
 30
0.0
 11
312.419
 21
8.66235
 31
0.0
  0
LINE
  8
0
 62
     0
 10
312.419
 20
8.66235
 30
0.0
 11
312.419
 21
7.66191
 31
0.0
  0
LINE
  8
0
 62
     0
 10
312.419
 20
7.66191
 30
0.0
 11
326.42
 21
7.66191
 31
0.0
  0
LINE
  8
0
 62
     0
 10
326.42
 20
7.66191
 30
0.0
 11
326.42
 21
8.66235
 31
0.0
  0
LINE
  8
0
 62
     0
 10
326.42
 20
8.66235
 30
0.0
 11
327.219
 21
8.66235
 31
0.0
  0
LINE
  8
0
 62
     0
 10
327.219
 20
8.66235
 30
0.0
 11
327.219
 21
11.7615
 31
0.0
  0
LINE
  8
0
 62
     0
 10
327.219
 20
11.7615
 30
0.0
 11
326.42
 21
11.7615
 31
0.0
  0
LINE
  8
0
 62
     0
 10
326.42
 20
11.7615
 30
0.0
 11
326.42
 21
17.5617
 31
0.0
  0
LINE
  8
0
 62
     0
 10
326.42
 20
17.5617
 30
0.0
 11
327.219
 21
17.5617
 31
0.0
  0
LINE
  8
0
 62
     0
 10
327.219
 20
17.5617
 30
0.0
 11
327.219
 21
20.6623
 31
0.0
  0
LINE
  8
0
 62
     0
 10
327.219
 20
20.6623
 30
0.0
 11
326.42
 21
20.6623
 31
0.0
  0
LINE
  8
0
 62
     0
 10
326.42
 20
20.6623
 30
0.0
 11
326.42
 21
21.6614
 31
0.0
  0
LINE
  8
0
 62
     0
 10
326.42
 20
21.6614
 30
0.0
 11
312.419
 21
21.6614
 31
0.0
  0
LINE
  8
0
 62
     0
 10
293.369
 20
21.6614
 30
0.0
 11
293.369
 21
20.6623
 31
0.0
  0
LINE
  8
0
 62
     0
 10
293.369
 20
20.6623
 30
0.0
 11
292.57
 21
20.6623
 31
0.0
  0
LINE
  8
0
 62
     0
 10
292.57
 20
20.6623
 30
0.0
 11
292.57
 21
17.5617
 31
0.0
  0
LINE
  8
0
 62
     0
 10
292.57
 20
17.5617
 30
0.0
 11
293.369
 21
17.5617
 31
0.0
  0
LINE
  8
0
 62
     0
 10
293.369
 20
17.5617
 30
0.0
 11
293.369
 21
11.7615
 31
0.0
  0
LINE
  8
0
 62
     0
 10
293.369
 20
11.7615
 30
0.0
 11
292.57
 21
11.7615
 31
0.0
  0
LINE
  8
0
 62
     0
 10
292.57
 20
11.7615
 30
0.0
 11
292.57
 21
8.66235
 31
0.0
  0
LINE
  8
0
 62
     0
 10
292.57
 20
8.66235
 30
0.0
 11
293.369
 21
8.66235
 31
0.0
  0
LINE
  8
0
 62
     0
 10
293.369
 20
8.66235
 30
0.0
 11
293.369
 21
7.66191
 31
0.0
  0
LINE
  8
0
 62
     0
 10
293.369
 20
7.66191
 30
0.0
 11
307.37
 21
7.66191
 31
0.0
  0
LINE
  8
0
 62
     0
 10
307.37
 20
7.66191
 30
0.0
 11
307.37
 21
8.66235
 31
0.0
  0
LINE
  8
0
 62
     0
 10
307.37
 20
8.66235
 30
0.0
 11
308.169
 21
8.66235
 31
0.0
  0
LINE
  8
0
 62
     0
 10
308.169
 20
8.66235
 30
0.0
 11
308.169
 21
11.7615
 31
0.0
  0
LINE
  8
0
 62
     0
 10
308.169
 20
11.7615
 30
0.0
 11
307.37
 21
11.7615
 31
0.0
  0
LINE
  8
0
 62
     0
 10
307.37
 20
11.7615
 30
0.0
 11
307.37
 21
17.5617
 31
0.0
  0
LINE
  8
0
 62
     0
 10
307.37
 20
17.5617
 30
0.0
 11
308.169
 21
17.5617
 31
0.0
  0
LINE
  8
0
 62
     0
 10
308.169
 20
17.5617
 30
0.0
 11
308.169
 21
20.6623
 31
0.0
  0
LINE
  8
0
 62
     0
 10
308.169
 20
20.6623
 30
0.0
 11
307.37
 21
20.6623
 31
0.0
  0
LINE
  8
0
 62
     0
 10
307.37
 20
20.6623
 30
0.0
 11
307.37
 21
21.6614
 31
0.0
  0
LINE
  8
0
 62
     0
 10
307.37
 20
21.6614
 30
0.0
 11
293.369
 21
21.6614
 31
0.0
  0
LINE
  8
0
 62
     0
 10
274.319
 20
21.6614
 30
0.0
 11
274.319
 21
20.6623
 31
0.0
  0
LINE
  8
0
 62
     0
 10
274.319
 20
20.6623
 30
0.0
 11
273.52
 21
20.6623
 31
0.0
  0
LINE
  8
0
 62
     0
 10
273.52
 20
20.6623
 30
0.0
 11
273.52
 21
17.5617
 31
0.0
  0
LINE
  8
0
 62
     0
 10
273.52
 20
17.5617
 30
0.0
 11
274.319
 21
17.5617
 31
0.0
  0
LINE
  8
0
 62
     0
 10
274.319
 20
17.5617
 30
0.0
 11
274.319
 21
11.7615
 31
0.0
  0
LINE
  8
0
 62
     0
 10
274.319
 20
11.7615
 30
0.0
 11
273.52
 21
11.7615
 31
0.0
  0
LINE
  8
0
 62
     0
 10
273.52
 20
11.7615
 30
0.0
 11
273.52
 21
8.66235
 31
0.0
  0
LINE
  8
0
 62
     0
 10
273.52
 20
8.66235
 30
0.0
 11
274.319
 21
8.66235
 31
0.0
  0
LINE
  8
0
 62
     0
 10
274.319
 20
8.66235
 30
0.0
 11
274.319
 21
7.66191
 31
0.0
  0
LINE
  8
0
 62
     0
 10
274.319
 20
7.66191
 30
0.0
 11
288.32
 21
7.66191
 31
0.0
  0
LINE
  8
0
 62
     0
 10
288.32
 20
7.66191
 30
0.0
 11
288.32
 21
8.66235
 31
0.0
  0
LINE
  8
0
 62
     0
 10
288.32
 20
8.66235
 30
0.0
 11
289.119
 21
8.66235
 31
0.0
  0
LINE
  8
0
 62
     0
 10
289.119
 20
8.66235
 30
0.0
 11
289.119
 21
11.7615
 31
0.0
  0
LINE
  8
0
 62
     0
 10
289.119
 20
11.7615
 30
0.0
 11
288.32
 21
11.7615
 31
0.0
  0
LINE
  8
0
 62
     0
 10
288.32
 20
11.7615
 30
0.0
 11
288.32
 21
17.5617
 31
0.0
  0
LINE
  8
0
 62
     0
 10
288.32
 20
17.5617
 30
0.0
 11
289.119
 21
17.5617
 31
0.0
  0
LINE
  8
0
 62
     0
 10
289.119
 20
17.5617
 30
0.0
 11
289.119
 21
20.6623
 31
0.0
  0
LINE
  8
0
 62
     0
 10
289.119
 20
20.6623
 30
0.0
 11
288.32
 21
20.6623
 31
0.0
  0
LINE
  8
0
 62
     0
 10
288.32
 20
20.6623
 30
0.0
 11
288.32
 21
21.6614
 31
0.0
  0
LINE
  8
0
 62
     0
 10
288.32
 20
21.6614
 30
0.0
 11
274.319
 21
21.6614
 31
0.0
  0
LINE
  8
0
 62
     0
 10
217.169
 20
21.6614
 30
0.0
 11
217.169
 21
20.6623
 31
0.0
  0
LINE
  8
0
 62
     0
 10
217.169
 20
20.6623
 30
0.0
 11
216.37
 21
20.6623
 31
0.0
  0
LINE
  8
0
 62
     0
 10
216.37
 20
20.6623
 30
0.0
 11
216.37
 21
17.5617
 31
0.0
  0
LINE
  8
0
 62
     0
 10
216.37
 20
17.5617
 30
0.0
 11
217.169
 21
17.5617
 31
0.0
  0
LINE
  8
0
 62
     0
 10
217.169
 20
17.5617
 30
0.0
 11
217.169
 21
11.7615
 31
0.0
  0
LINE
  8
0
 62
     0
 10
217.169
 20
11.7615
 30
0.0
 11
216.37
 21
11.7615
 31
0.0
  0
LINE
  8
0
 62
     0
 10
216.37
 20
11.7615
 30
0.0
 11
216.37
 21
8.66235
 31
0.0
  0
LINE
  8
0
 62
     0
 10
216.37
 20
8.66235
 30
0.0
 11
217.169
 21
8.66235
 31
0.0
  0
LINE
  8
0
 62
     0
 10
217.169
 20
8.66235
 30
0.0
 11
217.169
 21
7.66191
 31
0.0
  0
LINE
  8
0
 62
     0
 10
217.169
 20
7.66191
 30
0.0
 11
235.931
 21
7.66191
 31
0.0
  0
LINE
  8
0
 62
     0
 10
235.931
 20
7.66191
 30
0.0
 11
235.931
 21
8.66235
 31
0.0
  0
LINE
  8
0
 62
     0
 10
235.931
 20
8.66235
 30
0.0
 11
236.219
 21
8.66235
 31
0.0
  0
LINE
  8
0
 62
     0
 10
236.219
 20
8.66235
 30
0.0
 11
236.219
 21
7.66191
 31
0.0
  0
LINE
  8
0
 62
     0
 10
236.219
 20
7.66191
 30
0.0
 11
250.22
 21
7.66191
 31
0.0
  0
LINE
  8
0
 62
     0
 10
250.22
 20
7.66191
 30
0.0
 11
250.22
 21
8.66235
 31
0.0
  0
LINE
  8
0
 62
     0
 10
250.22
 20
8.66235
 30
0.0
 11
250.507
 21
8.66235
 31
0.0
  0
LINE
  8
0
 62
     0
 10
250.507
 20
8.66235
 30
0.0
 11
250.507
 21
7.66191
 31
0.0
  0
LINE
  8
0
 62
     0
 10
250.507
 20
7.66191
 30
0.0
 11
269.27
 21
7.66191
 31
0.0
  0
LINE
  8
0
 62
     0
 10
269.27
 20
7.66191
 30
0.0
 11
269.27
 21
8.66235
 31
0.0
  0
LINE
  8
0
 62
     0
 10
269.27
 20
8.66235
 30
0.0
 11
270.069
 21
8.66235
 31
0.0
  0
LINE
  8
0
 62
     0
 10
270.069
 20
8.66235
 30
0.0
 11
270.069
 21
11.7615
 31
0.0
  0
LINE
  8
0
 62
     0
 10
270.069
 20
11.7615
 30
0.0
 11
269.27
 21
11.7615
 31
0.0
  0
LINE
  8
0
 62
     0
 10
269.27
 20
11.7615
 30
0.0
 11
269.27
 21
17.5617
 31
0.0
  0
LINE
  8
0
 62
     0
 10
269.27
 20
17.5617
 30
0.0
 11
270.069
 21
17.5617
 31
0.0
  0
LINE
  8
0
 62
     0
 10
270.069
 20
17.5617
 30
0.0
 11
270.069
 21
20.6623
 31
0.0
  0
LINE
  8
0
 62
     0
 10
270.069
 20
20.6623
 30
0.0
 11
269.27
 21
20.6623
 31
0.0
  0
LINE
  8
0
 62
     0
 10
269.27
 20
20.6623
 30
0.0
 11
269.27
 21
21.6614
 31
0.0
  0
LINE
  8
0
 62
     0
 10
269.27
 20
21.6614
 30
0.0
 11
250.507
 21
21.6614
 31
0.0
  0
LINE
  8
0
 62
     0
 10
250.507
 20
21.6614
 30
0.0
 11
250.507
 21
20.6623
 31
0.0
  0
LINE
  8
0
 62
     0
 10
250.507
 20
20.6623
 30
0.0
 11
250.22
 21
20.6623
 31
0.0
  0
LINE
  8
0
 62
     0
 10
250.22
 20
20.6623
 30
0.0
 11
250.22
 21
21.6614
 31
0.0
  0
LINE
  8
0
 62
     0
 10
250.22
 20
21.6614
 30
0.0
 11
236.219
 21
21.6614
 31
0.0
  0
LINE
  8
0
 62
     0
 10
236.219
 20
21.6614
 30
0.0
 11
236.219
 21
20.6623
 31
0.0
  0
LINE
  8
0
 62
     0
 10
236.219
 20
20.6623
 30
0.0
 11
235.931
 21
20.6623
 31
0.0
  0
LINE
  8
0
 62
     0
 10
235.931
 20
20.6623
 30
0.0
 11
235.931
 21
21.6614
 31
0.0
  0
LINE
  8
0
 62
     0
 10
235.931
 20
21.6614
 30
0.0
 11
217.169
 21
21.6614
 31
0.0
  0
LINE
  8
0
 62
     0
 10
52.863
 20
21.6614
 30
0.0
 11
52.863
 21
20.6623
 31
0.0
  0
LINE
  8
0
 62
     0
 10
52.863
 20
20.6623
 30
0.0
 11
52.0622
 21
20.6623
 31
0.0
  0
LINE
  8
0
 62
     0
 10
52.0622
 20
20.6623
 30
0.0
 11
52.0622
 21
17.5617
 31
0.0
  0
LINE
  8
0
 62
     0
 10
52.0622
 20
17.5617
 30
0.0
 11
52.863
 21
17.5617
 31
0.0
  0
LINE
  8
0
 62
     0
 10
52.863
 20
17.5617
 30
0.0
 11
52.863
 21
11.7615
 31
0.0
  0
LINE
  8
0
 62
     0
 10
52.863
 20
11.7615
 30
0.0
 11
52.0622
 21
11.7615
 31
0.0
  0
LINE
  8
0
 62
     0
 10
52.0622
 20
11.7615
 30
0.0
 11
52.0622
 21
8.66235
 31
0.0
  0
LINE
  8
0
 62
     0
 10
52.0622
 20
8.66235
 30
0.0
 11
52.863
 21
8.66235
 31
0.0
  0
LINE
  8
0
 62
     0
 10
52.863
 20
8.66235
 30
0.0
 11
52.863
 21
7.66191
 31
0.0
  0
LINE
  8
0
 62
     0
 10
52.863
 20
7.66191
 30
0.0
 11
74.0061
 21
7.66191
 31
0.0
  0
LINE
  8
0
 62
     0
 10
74.0061
 20
7.66191
 30
0.0
 11
74.0061
 21
8.66235
 31
0.0
  0
LINE
  8
0
 62
     0
 10
74.0061
 20
8.66235
 30
0.0
 11
74.8069
 21
8.66235
 31
0.0
  0
LINE
  8
0
 62
     0
 10
74.8069
 20
8.66235
 30
0.0
 11
74.8069
 21
11.7615
 31
0.0
  0
LINE
  8
0
 62
     0
 10
74.8069
 20
11.7615
 30
0.0
 11
74.0061
 21
11.7615
 31
0.0
  0
LINE
  8
0
 62
     0
 10
74.0061
 20
11.7615
 30
0.0
 11
74.0061
 21
17.5617
 31
0.0
  0
LINE
  8
0
 62
     0
 10
74.0061
 20
17.5617
 30
0.0
 11
74.8069
 21
17.5617
 31
0.0
  0
LINE
  8
0
 62
     0
 10
74.8069
 20
17.5617
 30
0.0
 11
74.8069
 21
20.6623
 31
0.0
  0
LINE
  8
0
 62
     0
 10
74.8069
 20
20.6623
 30
0.0
 11
74.0061
 21
20.6623
 31
0.0
  0
LINE
  8
0
 62
     0
 10
74.0061
 20
20.6623
 30
0.0
 11
74.0061
 21
21.6614
 31
0.0
  0
LINE
  8
0
 62
     0
 10
74.0061
 20
21.6614
 30
0.0
 11
52.863
 21
21.6614
 31
0.0
  0
LINE
  8
0
 62
     0
 10
29.0504
 20
21.6614
 30
0.0
 11
29.0504
 21
20.6623
 31
0.0
  0
LINE
  8
0
 62
     0
 10
29.0504
 20
20.6623
 30
0.0
 11
28.2512
 21
20.6623
 31
0.0
  0
LINE
  8
0
 62
     0
 10
28.2512
 20
20.6623
 30
0.0
 11
28.2512
 21
17.5617
 31
0.0
  0
LINE
  8
0
 62
     0
 10
28.2512
 20
17.5617
 30
0.0
 11
29.0504
 21
17.5617
 31
0.0
  0
LINE
  8
0
 62
     0
 10
29.0504
 20
17.5617
 30
0.0
 11
29.0504
 21
11.7615
 31
0.0
  0
LINE
  8
0
 62
     0
 10
29.0504
 20
11.7615
 30
0.0
 11
28.2512
 21
11.7615
 31
0.0
  0
LINE
  8
0
 62
     0
 10
28.2512
 20
11.7615
 30
0.0
 11
28.2512
 21
8.66235
 31
0.0
  0
LINE
  8
0
 62
     0
 10
28.2512
 20
8.66235
 30
0.0
 11
29.0504
 21
8.66235
 31
0.0
  0
LINE
  8
0
 62
     0
 10
29.0504
 20
8.66235
 30
0.0
 11
29.0504
 21
7.66191
 31
0.0
  0
LINE
  8
0
 62
     0
 10
29.0504
 20
7.66191
 30
0.0
 11
45.4311
 21
7.66191
 31
0.0
  0
LINE
  8
0
 62
     0
 10
45.4311
 20
7.66191
 30
0.0
 11
45.4311
 21
8.66235
 31
0.0
  0
LINE
  8
0
 62
     0
 10
45.4311
 20
8.66235
 30
0.0
 11
46.2319
 21
8.66235
 31
0.0
  0
LINE
  8
0
 62
     0
 10
46.2319
 20
8.66235
 30
0.0
 11
46.2319
 21
11.7615
 31
0.0
  0
LINE
  8
0
 62
     0
 10
46.2319
 20
11.7615
 30
0.0
 11
45.4311
 21
11.7615
 31
0.0
  0
LINE
  8
0
 62
     0
 10
45.4311
 20
11.7615
 30
0.0
 11
45.4311
 21
17.5617
 31
0.0
  0
LINE
  8
0
 62
     0
 10
45.4311
 20
17.5617
 30
0.0
 11
46.2319
 21
17.5617
 31
0.0
  0
LINE
  8
0
 62
     0
 10
46.2319
 20
17.5617
 30
0.0
 11
46.2319
 21
20.6623
 31
0.0
  0
LINE
  8
0
 62
     0
 10
46.2319
 20
20.6623
 30
0.0
 11
45.4311
 21
20.6623
 31
0.0
  0
LINE
  8
0
 62
     0
 10
45.4311
 20
20.6623
 30
0.0
 11
45.4311
 21
21.6614
 31
0.0
  0
LINE
  8
0
 62
     0
 10
45.4311
 20
21.6614
 30
0.0
 11
29.0504
 21
21.6614
 31
0.0
  0
LINE
  8
0
 62
     0
 10
7.61919
 20
21.6614
 30
0.0
 11
7.61919
 21
20.6623
 31
0.0
  0
LINE
  8
0
 62
     0
 10
7.61919
 20
20.6623
 30
0.0
 11
6.81852
 21
20.6623
 31
0.0
  0
LINE
  8
0
 62
     0
 10
6.81852
 20
20.6623
 30
0.0
 11
6.81852
 21
17.5617
 31
0.0
  0
LINE
  8
0
 62
     0
 10
6.81852
 20
17.5617
 30
0.0
 11
7.61919
 21
17.5617
 31
0.0
  0
LINE
  8
0
 62
     0
 10
7.61919
 20
17.5617
 30
0.0
 11
7.61919
 21
11.7615
 31
0.0
  0
LINE
  8
0
 62
     0
 10
7.61919
 20
11.7615
 30
0.0
 11
6.81852
 21
11.7615
 31
0.0
  0
LINE
  8
0
 62
     0
 10
6.81852
 20
11.7615
 30
0.0
 11
6.81852
 21
8.66235
 31
0.0
  0
LINE
  8
0
 62
     0
 10
6.81852
 20
8.66235
 30
0.0
 11
7.61919
 21
8.66235
 31
0.0
  0
LINE
  8
0
 62
     0
 10
7.61919
 20
8.66235
 30
0.0
 11
7.61919
 21
7.66191
 31
0.0
  0
LINE
  8
0
 62
     0
 10
7.61919
 20
7.66191
 30
0.0
 11
21.6201
 21
7.66191
 31
0.0
  0
LINE
  8
0
 62
     0
 10
21.6201
 20
7.66191
 30
0.0
 11
21.6201
 21
8.66235
 31
0.0
  0
LINE
  8
0
 62
     0
 10
21.6201
 20
8.66235
 30
0.0
 11
22.4193
 21
8.66235
 31
0.0
  0
LINE
  8
0
 62
     0
 10
22.4193
 20
8.66235
 30
0.0
 11
22.4193
 21
11.7615
 31
0.0
  0
LINE
  8
0
 62
     0
 10
22.4193
 20
11.7615
 30
0.0
 11
21.6201
 21
11.7615
 31
0.0
  0
LINE
  8
0
 62
     0
 10
21.6201
 20
11.7615
 30
0.0
 11
21.6201
 21
17.5617
 31
0.0
  0
LINE
  8
0
 62
     0
 10
21.6201
 20
17.5617
 30
0.0
 11
22.4193
 21
17.5617
 31
0.0
  0
LINE
  8
0
 62
     0
 10
22.4193
 20
17.5617
 30
0.0
 11
22.4193
 21
20.6623
 31
0.0
  0
LINE
  8
0
 62
     0
 10
22.4193
 20
20.6623
 30
0.0
 11
21.6201
 21
20.6623
 31
0.0
  0
LINE
  8
0
 62
     0
 10
21.6201
 20
20.6623
 30
0.0
 11
21.6201
 21
21.6614
 31
0.0
  0
LINE
  8
0
 62
     0
 10
21.6201
 20
21.6614
 30
0.0
 11
7.61919
 21
21.6614
 31
0.0
  0
LINE
  8
0
 62
     0
 10
250.22
 20
17.5617
 30
0.0
 11
250.507
 21
17.5617
 31
0.0
  0
LINE
  8
0
 62
     0
 10
250.507
 20
17.5617
 30
0.0
 11
250.507
 21
11.7615
 31
0.0
  0
LINE
  8
0
 62
     0
 10
250.507
 20
11.7615
 30
0.0
 11
250.22
 21
11.7615
 31
0.0
  0
LINE
  8
0
 62
     0
 10
250.22
 20
11.7615
 30
0.0
 11
250.22
 21
17.5617
 31
0.0
  0
LINE
  8
0
 62
     0
 10
235.931
 20
17.5617
 30
0.0
 11
236.219
 21
17.5617
 31
0.0
  0
LINE
  8
0
 62
     0
 10
236.219
 20
17.5617
 30
0.0
 11
236.219
 21
11.7615
 31
0.0
  0
LINE
  8
0
 62
     0
 10
236.219
 20
11.7615
 30
0.0
 11
235.931
 21
11.7615
 31
0.0
  0
LINE
  8
0
 62
     0
 10
235.931
 20
11.7615
 30
0.0
 11
235.931
 21
17.5617
 31
0.0
  0
LINE
  8
0
 62
     0
 10
38.5755
 20
40.7113
 30
0.0
 11
38.5755
 21
39.7108
 31
0.0
  0
LINE
  8
0
 62
     0
 10
38.5755
 20
39.7108
 30
0.0
 11
37.7762
 21
39.7108
 31
0.0
  0
LINE
  8
0
 62
     0
 10
37.7762
 20
39.7108
 30
0.0
 11
37.7762
 21
36.6116
 31
0.0
  0
LINE
  8
0
 62
     0
 10
37.7762
 20
36.6116
 30
0.0
 11
38.5755
 21
36.6116
 31
0.0
  0
LINE
  8
0
 62
     0
 10
38.5755
 20
36.6116
 30
0.0
 11
38.5755
 21
36.0109
 31
0.0
  0
LINE
  8
0
 62
     0
 10
38.5755
 20
36.0109
 30
0.0
 11
37.0498
 21
36.0109
 31
0.0
  0
LINE
  8
0
 62
     0
 10
37.0498
 20
36.0109
 30
0.0
 11
37.0498
 21
39.2409
 31
0.0
  0
LINE
  8
0
 62
     0
 10
37.0498
 20
39.2409
 30
0.0
 11
30.3003
 21
39.2409
 31
0.0
  0
LINE
  8
0
 62
     0
 10
30.3003
 20
39.2409
 30
0.0
 11
30.3003
 21
36.0109
 31
0.0
  0
LINE
  8
0
 62
     0
 10
30.3003
 20
36.0109
 30
0.0
 11
29.4749
 21
36.0109
 31
0.0
  0
LINE
  8
0
 62
     0
 10
29.4749
 20
36.0109
 30
0.0
 11
29.4749
 21
33.2107
 31
0.0
  0
LINE
  8
0
 62
     0
 10
29.4749
 20
33.2107
 30
0.0
 11
30.3003
 21
33.2107
 31
0.0
  0
LINE
  8
0
 62
     0
 10
30.3003
 20
33.2107
 30
0.0
 11
30.3003
 21
26.942
 31
0.0
  0
LINE
  8
0
 62
     0
 10
30.3003
 20
26.942
 30
0.0
 11
32.0256
 21
26.942
 31
0.0
  0
LINE
  8
0
 62
     0
 10
32.0256
 20
26.942
 30
0.0
 11
32.0256
 21
25.7404
 31
0.0
  0
LINE
  8
0
 62
     0
 10
32.0256
 20
25.7404
 30
0.0
 11
35.3261
 21
25.7404
 31
0.0
  0
LINE
  8
0
 62
     0
 10
35.3261
 20
25.7404
 30
0.0
 11
35.3261
 21
26.942
 31
0.0
  0
LINE
  8
0
 62
     0
 10
35.3261
 20
26.942
 30
0.0
 11
37.0498
 21
26.942
 31
0.0
  0
LINE
  8
0
 62
     0
 10
37.0498
 20
26.942
 30
0.0
 11
37.0498
 21
31.4124
 31
0.0
  0
LINE
  8
0
 62
     0
 10
37.0498
 20
31.4124
 30
0.0
 11
38.5755
 21
31.4124
 31
0.0
  0
LINE
  8
0
 62
     0
 10
38.5755
 20
31.4124
 30
0.0
 11
38.5755
 21
30.8115
 31
0.0
  0
LINE
  8
0
 62
     0
 10
38.5755
 20
30.8115
 30
0.0
 11
37.7762
 21
30.8115
 31
0.0
  0
LINE
  8
0
 62
     0
 10
37.7762
 20
30.8115
 30
0.0
 11
37.7762
 21
27.711
 31
0.0
  0
LINE
  8
0
 62
     0
 10
37.7762
 20
27.711
 30
0.0
 11
38.5755
 21
27.711
 31
0.0
  0
LINE
  8
0
 62
     0
 10
38.5755
 20
27.711
 30
0.0
 11
38.5755
 21
26.7105
 31
0.0
  0
LINE
  8
0
 62
     0
 10
38.5755
 20
26.7105
 30
0.0
 11
52.5748
 21
26.7105
 31
0.0
  0
LINE
  8
0
 62
     0
 10
52.5748
 20
26.7105
 30
0.0
 11
52.5748
 21
27.711
 31
0.0
  0
LINE
  8
0
 62
     0
 10
52.5748
 20
27.711
 30
0.0
 11
53.3756
 21
27.711
 31
0.0
  0
LINE
  8
0
 62
     0
 10
53.3756
 20
27.711
 30
0.0
 11
53.3756
 21
30.8115
 31
0.0
  0
LINE
  8
0
 62
     0
 10
53.3756
 20
30.8115
 30
0.0
 11
52.5748
 21
30.8115
 31
0.0
  0
LINE
  8
0
 62
     0
 10
52.5748
 20
30.8115
 30
0.0
 11
52.5748
 21
31.4124
 31
0.0
  0
LINE
  8
0
 62
     0
 10
52.5748
 20
31.4124
 30
0.0
 11
54.1002
 21
31.4124
 31
0.0
  0
LINE
  8
0
 62
     0
 10
54.1002
 20
31.4124
 30
0.0
 11
54.1002
 21
26.942
 31
0.0
  0
LINE
  8
0
 62
     0
 10
54.1002
 20
26.942
 30
0.0
 11
55.8257
 21
26.942
 31
0.0
  0
LINE
  8
0
 62
     0
 10
55.8257
 20
26.942
 30
0.0
 11
55.8257
 21
25.7404
 31
0.0
  0
LINE
  8
0
 62
     0
 10
55.8257
 20
25.7404
 30
0.0
 11
59.1263
 21
25.7404
 31
0.0
  0
LINE
  8
0
 62
     0
 10
59.1263
 20
25.7404
 30
0.0
 11
59.1263
 21
26.942
 31
0.0
  0
LINE
  8
0
 62
     0
 10
59.1263
 20
26.942
 30
0.0
 11
60.8499
 21
26.942
 31
0.0
  0
LINE
  8
0
 62
     0
 10
60.8499
 20
26.942
 30
0.0
 11
60.8499
 21
33.2107
 31
0.0
  0
LINE
  8
0
 62
     0
 10
60.8499
 20
33.2107
 30
0.0
 11
61.6754
 21
33.2107
 31
0.0
  0
LINE
  8
0
 62
     0
 10
61.6754
 20
33.2107
 30
0.0
 11
61.6754
 21
36.0109
 31
0.0
  0
LINE
  8
0
 62
     0
 10
61.6754
 20
36.0109
 30
0.0
 11
60.8499
 21
36.0109
 31
0.0
  0
LINE
  8
0
 62
     0
 10
60.8499
 20
36.0109
 30
0.0
 11
60.8499
 21
39.2409
 31
0.0
  0
LINE
  8
0
 62
     0
 10
60.8499
 20
39.2409
 30
0.0
 11
54.1002
 21
39.2409
 31
0.0
  0
LINE
  8
0
 62
     0
 10
54.1002
 20
39.2409
 30
0.0
 11
54.1002
 21
36.0109
 31
0.0
  0
LINE
  8
0
 62
     0
 10
54.1002
 20
36.0109
 30
0.0
 11
52.5748
 21
36.0109
 31
0.0
  0
LINE
  8
0
 62
     0
 10
52.5748
 20
36.0109
 30
0.0
 11
52.5748
 21
36.6116
 31
0.0
  0
LINE
  8
0
 62
     0
 10
52.5748
 20
36.6116
 30
0.0
 11
53.3756
 21
36.6116
 31
0.0
  0
LINE
  8
0
 62
     0
 10
53.3756
 20
36.6116
 30
0.0
 11
53.3756
 21
39.7108
 31
0.0
  0
LINE
  8
0
 62
     0
 10
53.3756
 20
39.7108
 30
0.0
 11
52.5748
 21
39.7108
 31
0.0
  0
LINE
  8
0
 62
     0
 10
52.5748
 20
39.7108
 30
0.0
 11
52.5748
 21
40.7113
 31
0.0
  0
LINE
  8
0
 62
     0
 10
52.5748
 20
40.7113
 30
0.0
 11
38.5755
 21
40.7113
 31
0.0
  0
LINE
  8
0
 62
     0
 10
312.419
 20
40.7113
 30
0.0
 11
312.419
 21
39.7108
 31
0.0
  0
LINE
  8
0
 62
     0
 10
312.419
 20
39.7108
 30
0.0
 11
311.62
 21
39.7108
 31
0.0
  0
LINE
  8
0
 62
     0
 10
311.62
 20
39.7108
 30
0.0
 11
311.62
 21
36.6116
 31
0.0
  0
LINE
  8
0
 62
     0
 10
311.62
 20
36.6116
 30
0.0
 11
312.419
 21
36.6116
 31
0.0
  0
LINE
  8
0
 62
     0
 10
312.419
 20
36.6116
 30
0.0
 11
312.419
 21
30.8115
 31
0.0
  0
LINE
  8
0
 62
     0
 10
312.419
 20
30.8115
 30
0.0
 11
311.62
 21
30.8115
 31
0.0
  0
LINE
  8
0
 62
     0
 10
311.62
 20
30.8115
 30
0.0
 11
311.62
 21
27.711
 31
0.0
  0
LINE
  8
0
 62
     0
 10
311.62
 20
27.711
 30
0.0
 11
312.419
 21
27.711
 31
0.0
  0
LINE
  8
0
 62
     0
 10
312.419
 20
27.711
 30
0.0
 11
312.419
 21
26.7105
 31
0.0
  0
LINE
  8
0
 62
     0
 10
312.419
 20
26.7105
 30
0.0
 11
326.42
 21
26.7105
 31
0.0
  0
LINE
  8
0
 62
     0
 10
326.42
 20
26.7105
 30
0.0
 11
326.42
 21
27.711
 31
0.0
  0
LINE
  8
0
 62
     0
 10
326.42
 20
27.711
 30
0.0
 11
327.219
 21
27.711
 31
0.0
  0
LINE
  8
0
 62
     0
 10
327.219
 20
27.711
 30
0.0
 11
327.219
 21
30.8115
 31
0.0
  0
LINE
  8
0
 62
     0
 10
327.219
 20
30.8115
 30
0.0
 11
326.42
 21
30.8115
 31
0.0
  0
LINE
  8
0
 62
     0
 10
326.42
 20
30.8115
 30
0.0
 11
326.42
 21
36.6116
 31
0.0
  0
LINE
  8
0
 62
     0
 10
326.42
 20
36.6116
 30
0.0
 11
327.219
 21
36.6116
 31
0.0
  0
LINE
  8
0
 62
     0
 10
327.219
 20
36.6116
 30
0.0
 11
327.219
 21
39.7108
 31
0.0
  0
LINE
  8
0
 62
     0
 10
327.219
 20
39.7108
 30
0.0
 11
326.42
 21
39.7108
 31
0.0
  0
LINE
  8
0
 62
     0
 10
326.42
 20
39.7108
 30
0.0
 11
326.42
 21
40.7113
 31
0.0
  0
LINE
  8
0
 62
     0
 10
326.42
 20
40.7113
 30
0.0
 11
312.419
 21
40.7113
 31
0.0
  0
LINE
  8
0
 62
     0
 10
293.369
 20
40.7113
 30
0.0
 11
293.369
 21
39.7108
 31
0.0
  0
LINE
  8
0
 62
     0
 10
293.369
 20
39.7108
 30
0.0
 11
292.57
 21
39.7108
 31
0.0
  0
LINE
  8
0
 62
     0
 10
292.57
 20
39.7108
 30
0.0
 11
292.57
 21
36.6116
 31
0.0
  0
LINE
  8
0
 62
     0
 10
292.57
 20
36.6116
 30
0.0
 11
293.369
 21
36.6116
 31
0.0
  0
LINE
  8
0
 62
     0
 10
293.369
 20
36.6116
 30
0.0
 11
293.369
 21
30.8115
 31
0.0
  0
LINE
  8
0
 62
     0
 10
293.369
 20
30.8115
 30
0.0
 11
292.57
 21
30.8115
 31
0.0
  0
LINE
  8
0
 62
     0
 10
292.57
 20
30.8115
 30
0.0
 11
292.57
 21
27.711
 31
0.0
  0
LINE
  8
0
 62
     0
 10
292.57
 20
27.711
 30
0.0
 11
293.369
 21
27.711
 31
0.0
  0
LINE
  8
0
 62
     0
 10
293.369
 20
27.711
 30
0.0
 11
293.369
 21
26.7105
 31
0.0
  0
LINE
  8
0
 62
     0
 10
293.369
 20
26.7105
 30
0.0
 11
307.37
 21
26.7105
 31
0.0
  0
LINE
  8
0
 62
     0
 10
307.37
 20
26.7105
 30
0.0
 11
307.37
 21
27.711
 31
0.0
  0
LINE
  8
0
 62
     0
 10
307.37
 20
27.711
 30
0.0
 11
308.169
 21
27.711
 31
0.0
  0
LINE
  8
0
 62
     0
 10
308.169
 20
27.711
 30
0.0
 11
308.169
 21
30.8115
 31
0.0
  0
LINE
  8
0
 62
     0
 10
308.169
 20
30.8115
 30
0.0
 11
307.37
 21
30.8115
 31
0.0
  0
LINE
  8
0
 62
     0
 10
307.37
 20
30.8115
 30
0.0
 11
307.37
 21
36.6116
 31
0.0
  0
LINE
  8
0
 62
     0
 10
307.37
 20
36.6116
 30
0.0
 11
308.169
 21
36.6116
 31
0.0
  0
LINE
  8
0
 62
     0
 10
308.169
 20
36.6116
 30
0.0
 11
308.169
 21
39.7108
 31
0.0
  0
LINE
  8
0
 62
     0
 10
308.169
 20
39.7108
 30
0.0
 11
307.37
 21
39.7108
 31
0.0
  0
LINE
  8
0
 62
     0
 10
307.37
 20
39.7108
 30
0.0
 11
307.37
 21
40.7113
 31
0.0
  0
LINE
  8
0
 62
     0
 10
307.37
 20
40.7113
 30
0.0
 11
293.369
 21
40.7113
 31
0.0
  0
LINE
  8
0
 62
     0
 10
267.176
 20
40.7113
 30
0.0
 11
267.176
 21
39.7108
 31
0.0
  0
LINE
  8
0
 62
     0
 10
267.176
 20
39.7108
 30
0.0
 11
266.376
 21
39.7108
 31
0.0
  0
LINE
  8
0
 62
     0
 10
266.376
 20
39.7108
 30
0.0
 11
266.376
 21
36.6116
 31
0.0
  0
LINE
  8
0
 62
     0
 10
266.376
 20
36.6116
 30
0.0
 11
267.176
 21
36.6116
 31
0.0
  0
LINE
  8
0
 62
     0
 10
267.176
 20
36.6116
 30
0.0
 11
267.176
 21
30.8115
 31
0.0
  0
LINE
  8
0
 62
     0
 10
267.176
 20
30.8115
 30
0.0
 11
266.376
 21
30.8115
 31
0.0
  0
LINE
  8
0
 62
     0
 10
266.376
 20
30.8115
 30
0.0
 11
266.376
 21
27.711
 31
0.0
  0
LINE
  8
0
 62
     0
 10
266.376
 20
27.711
 30
0.0
 11
267.176
 21
27.711
 31
0.0
  0
LINE
  8
0
 62
     0
 10
267.176
 20
27.711
 30
0.0
 11
267.176
 21
26.7105
 31
0.0
  0
LINE
  8
0
 62
     0
 10
267.176
 20
26.7105
 30
0.0
 11
281.175
 21
26.7105
 31
0.0
  0
LINE
  8
0
 62
     0
 10
281.175
 20
26.7105
 30
0.0
 11
281.175
 21
27.711
 31
0.0
  0
LINE
  8
0
 62
     0
 10
281.175
 20
27.711
 30
0.0
 11
281.976
 21
27.711
 31
0.0
  0
LINE
  8
0
 62
     0
 10
281.976
 20
27.711
 30
0.0
 11
281.976
 21
30.8115
 31
0.0
  0
LINE
  8
0
 62
     0
 10
281.976
 20
30.8115
 30
0.0
 11
281.175
 21
30.8115
 31
0.0
  0
LINE
  8
0
 62
     0
 10
281.175
 20
30.8115
 30
0.0
 11
281.175
 21
36.6116
 31
0.0
  0
LINE
  8
0
 62
     0
 10
281.175
 20
36.6116
 30
0.0
 11
281.976
 21
36.6116
 31
0.0
  0
LINE
  8
0
 62
     0
 10
281.976
 20
36.6116
 30
0.0
 11
281.976
 21
39.7108
 31
0.0
  0
LINE
  8
0
 62
     0
 10
281.976
 20
39.7108
 30
0.0
 11
281.175
 21
39.7108
 31
0.0
  0
LINE
  8
0
 62
     0
 10
281.175
 20
39.7108
 30
0.0
 11
281.175
 21
40.7113
 31
0.0
  0
LINE
  8
0
 62
     0
 10
281.175
 20
40.7113
 30
0.0
 11
267.176
 21
40.7113
 31
0.0
  0
LINE
  8
0
 62
     0
 10
240.982
 20
40.7113
 30
0.0
 11
240.982
 21
39.7108
 31
0.0
  0
LINE
  8
0
 62
     0
 10
240.982
 20
39.7108
 30
0.0
 11
240.181
 21
39.7108
 31
0.0
  0
LINE
  8
0
 62
     0
 10
240.181
 20
39.7108
 30
0.0
 11
240.181
 21
36.6116
 31
0.0
  0
LINE
  8
0
 62
     0
 10
240.181
 20
36.6116
 30
0.0
 11
240.982
 21
36.6116
 31
0.0
  0
LINE
  8
0
 62
     0
 10
240.982
 20
36.6116
 30
0.0
 11
240.982
 21
30.8115
 31
0.0
  0
LINE
  8
0
 62
     0
 10
240.982
 20
30.8115
 30
0.0
 11
240.181
 21
30.8115
 31
0.0
  0
LINE
  8
0
 62
     0
 10
240.181
 20
30.8115
 30
0.0
 11
240.181
 21
27.711
 31
0.0
  0
LINE
  8
0
 62
     0
 10
240.181
 20
27.711
 30
0.0
 11
240.982
 21
27.711
 31
0.0
  0
LINE
  8
0
 62
     0
 10
240.982
 20
27.711
 30
0.0
 11
240.982
 21
26.7105
 31
0.0
  0
LINE
  8
0
 62
     0
 10
240.982
 20
26.7105
 30
0.0
 11
254.981
 21
26.7105
 31
0.0
  0
LINE
  8
0
 62
     0
 10
254.981
 20
26.7105
 30
0.0
 11
254.981
 21
27.711
 31
0.0
  0
LINE
  8
0
 62
     0
 10
254.981
 20
27.711
 30
0.0
 11
255.782
 21
27.711
 31
0.0
  0
LINE
  8
0
 62
     0
 10
255.782
 20
27.711
 30
0.0
 11
255.782
 21
30.8115
 31
0.0
  0
LINE
  8
0
 62
     0
 10
255.782
 20
30.8115
 30
0.0
 11
254.981
 21
30.8115
 31
0.0
  0
LINE
  8
0
 62
     0
 10
254.981
 20
30.8115
 30
0.0
 11
254.981
 21
36.6116
 31
0.0
  0
LINE
  8
0
 62
     0
 10
254.981
 20
36.6116
 30
0.0
 11
255.782
 21
36.6116
 31
0.0
  0
LINE
  8
0
 62
     0
 10
255.782
 20
36.6116
 30
0.0
 11
255.782
 21
39.7108
 31
0.0
  0
LINE
  8
0
 62
     0
 10
255.782
 20
39.7108
 30
0.0
 11
254.981
 21
39.7108
 31
0.0
  0
LINE
  8
0
 62
     0
 10
254.981
 20
39.7108
 30
0.0
 11
254.981
 21
40.7113
 31
0.0
  0
LINE
  8
0
 62
     0
 10
254.981
 20
40.7113
 30
0.0
 11
240.982
 21
40.7113
 31
0.0
  0
LINE
  8
0
 62
     0
 10
221.932
 20
40.7113
 30
0.0
 11
221.932
 21
39.7108
 31
0.0
  0
LINE
  8
0
 62
     0
 10
221.932
 20
39.7108
 30
0.0
 11
221.131
 21
39.7108
 31
0.0
  0
LINE
  8
0
 62
     0
 10
221.131
 20
39.7108
 30
0.0
 11
221.131
 21
36.6116
 31
0.0
  0
LINE
  8
0
 62
     0
 10
221.131
 20
36.6116
 30
0.0
 11
221.932
 21
36.6116
 31
0.0
  0
LINE
  8
0
 62
     0
 10
221.932
 20
36.6116
 30
0.0
 11
221.932
 21
30.8115
 31
0.0
  0
LINE
  8
0
 62
     0
 10
221.932
 20
30.8115
 30
0.0
 11
221.131
 21
30.8115
 31
0.0
  0
LINE
  8
0
 62
     0
 10
221.131
 20
30.8115
 30
0.0
 11
221.131
 21
27.711
 31
0.0
  0
LINE
  8
0
 62
     0
 10
221.131
 20
27.711
 30
0.0
 11
221.932
 21
27.711
 31
0.0
  0
LINE
  8
0
 62
     0
 10
221.932
 20
27.711
 30
0.0
 11
221.932
 21
26.7105
 31
0.0
  0
LINE
  8
0
 62
     0
 10
221.932
 20
26.7105
 30
0.0
 11
235.931
 21
26.7105
 31
0.0
  0
LINE
  8
0
 62
     0
 10
235.931
 20
26.7105
 30
0.0
 11
235.931
 21
27.711
 31
0.0
  0
LINE
  8
0
 62
     0
 10
235.931
 20
27.711
 30
0.0
 11
236.732
 21
27.711
 31
0.0
  0
LINE
  8
0
 62
     0
 10
236.732
 20
27.711
 30
0.0
 11
236.732
 21
30.8115
 31
0.0
  0
LINE
  8
0
 62
     0
 10
236.732
 20
30.8115
 30
0.0
 11
235.931
 21
30.8115
 31
0.0
  0
LINE
  8
0
 62
     0
 10
235.931
 20
30.8115
 30
0.0
 11
235.931
 21
36.6116
 31
0.0
  0
LINE
  8
0
 62
     0
 10
235.931
 20
36.6116
 30
0.0
 11
236.732
 21
36.6116
 31
0.0
  0
LINE
  8
0
 62
     0
 10
236.732
 20
36.6116
 30
0.0
 11
236.732
 21
39.7108
 31
0.0
  0
LINE
  8
0
 62
     0
 10
236.732
 20
39.7108
 30
0.0
 11
235.931
 21
39.7108
 31
0.0
  0
LINE
  8
0
 62
     0
 10
235.931
 20
39.7108
 30
0.0
 11
235.931
 21
40.7113
 31
0.0
  0
LINE
  8
0
 62
     0
 10
235.931
 20
40.7113
 30
0.0
 11
221.932
 21
40.7113
 31
0.0
  0
LINE
  8
0
 62
     0
 10
202.882
 20
40.7113
 30
0.0
 11
202.882
 21
39.7108
 31
0.0
  0
LINE
  8
0
 62
     0
 10
202.882
 20
39.7108
 30
0.0
 11
202.081
 21
39.7108
 31
0.0
  0
LINE
  8
0
 62
     0
 10
202.081
 20
39.7108
 30
0.0
 11
202.081
 21
36.6116
 31
0.0
  0
LINE
  8
0
 62
     0
 10
202.081
 20
36.6116
 30
0.0
 11
202.882
 21
36.6116
 31
0.0
  0
LINE
  8
0
 62
     0
 10
202.882
 20
36.6116
 30
0.0
 11
202.882
 21
30.8115
 31
0.0
  0
LINE
  8
0
 62
     0
 10
202.882
 20
30.8115
 30
0.0
 11
202.081
 21
30.8115
 31
0.0
  0
LINE
  8
0
 62
     0
 10
202.081
 20
30.8115
 30
0.0
 11
202.081
 21
27.711
 31
0.0
  0
LINE
  8
0
 62
     0
 10
202.081
 20
27.711
 30
0.0
 11
202.882
 21
27.711
 31
0.0
  0
LINE
  8
0
 62
     0
 10
202.882
 20
27.711
 30
0.0
 11
202.882
 21
26.7105
 31
0.0
  0
LINE
  8
0
 62
     0
 10
202.882
 20
26.7105
 30
0.0
 11
216.881
 21
26.7105
 31
0.0
  0
LINE
  8
0
 62
     0
 10
216.881
 20
26.7105
 30
0.0
 11
216.881
 21
27.711
 31
0.0
  0
LINE
  8
0
 62
     0
 10
216.881
 20
27.711
 30
0.0
 11
217.682
 21
27.711
 31
0.0
  0
LINE
  8
0
 62
     0
 10
217.682
 20
27.711
 30
0.0
 11
217.682
 21
30.8115
 31
0.0
  0
LINE
  8
0
 62
     0
 10
217.682
 20
30.8115
 30
0.0
 11
216.881
 21
30.8115
 31
0.0
  0
LINE
  8
0
 62
     0
 10
216.881
 20
30.8115
 30
0.0
 11
216.881
 21
36.6116
 31
0.0
  0
LINE
  8
0
 62
     0
 10
216.881
 20
36.6116
 30
0.0
 11
217.682
 21
36.6116
 31
0.0
  0
LINE
  8
0
 62
     0
 10
217.682
 20
36.6116
 30
0.0
 11
217.682
 21
39.7108
 31
0.0
  0
LINE
  8
0
 62
     0
 10
217.682
 20
39.7108
 30
0.0
 11
216.881
 21
39.7108
 31
0.0
  0
LINE
  8
0
 62
     0
 10
216.881
 20
39.7108
 30
0.0
 11
216.881
 21
40.7113
 31
0.0
  0
LINE
  8
0
 62
     0
 10
216.881
 20
40.7113
 30
0.0
 11
202.882
 21
40.7113
 31
0.0
  0
LINE
  8
0
 62
     0
 10
183.832
 20
40.7113
 30
0.0
 11
183.832
 21
39.7108
 31
0.0
  0
LINE
  8
0
 62
     0
 10
183.832
 20
39.7108
 30
0.0
 11
183.031
 21
39.7108
 31
0.0
  0
LINE
  8
0
 62
     0
 10
183.031
 20
39.7108
 30
0.0
 11
183.031
 21
36.6116
 31
0.0
  0
LINE
  8
0
 62
     0
 10
183.031
 20
36.6116
 30
0.0
 11
183.832
 21
36.6116
 31
0.0
  0
LINE
  8
0
 62
     0
 10
183.832
 20
36.6116
 30
0.0
 11
183.832
 21
30.8115
 31
0.0
  0
LINE
  8
0
 62
     0
 10
183.832
 20
30.8115
 30
0.0
 11
183.031
 21
30.8115
 31
0.0
  0
LINE
  8
0
 62
     0
 10
183.031
 20
30.8115
 30
0.0
 11
183.031
 21
27.711
 31
0.0
  0
LINE
  8
0
 62
     0
 10
183.031
 20
27.711
 30
0.0
 11
183.832
 21
27.711
 31
0.0
  0
LINE
  8
0
 62
     0
 10
183.832
 20
27.711
 30
0.0
 11
183.832
 21
26.7105
 31
0.0
  0
LINE
  8
0
 62
     0
 10
183.832
 20
26.7105
 30
0.0
 11
197.831
 21
26.7105
 31
0.0
  0
LINE
  8
0
 62
     0
 10
197.831
 20
26.7105
 30
0.0
 11
197.831
 21
27.711
 31
0.0
  0
LINE
  8
0
 62
     0
 10
197.831
 20
27.711
 30
0.0
 11
198.632
 21
27.711
 31
0.0
  0
LINE
  8
0
 62
     0
 10
198.632
 20
27.711
 30
0.0
 11
198.632
 21
30.8115
 31
0.0
  0
LINE
  8
0
 62
     0
 10
198.632
 20
30.8115
 30
0.0
 11
197.831
 21
30.8115
 31
0.0
  0
LINE
  8
0
 62
     0
 10
197.831
 20
30.8115
 30
0.0
 11
197.831
 21
36.6116
 31
0.0
  0
LINE
  8
0
 62
     0
 10
197.831
 20
36.6116
 30
0.0
 11
198.632
 21
36.6116
 31
0.0
  0
LINE
  8
0
 62
     0
 10
198.632
 20
36.6116
 30
0.0
 11
198.632
 21
39.7108
 31
0.0
  0
LINE
  8
0
 62
     0
 10
198.632
 20
39.7108
 30
0.0
 11
197.831
 21
39.7108
 31
0.0
  0
LINE
  8
0
 62
     0
 10
197.831
 20
39.7108
 30
0.0
 11
197.831
 21
40.7113
 31
0.0
  0
LINE
  8
0
 62
     0
 10
197.831
 20
40.7113
 30
0.0
 11
183.832
 21
40.7113
 31
0.0
  0
LINE
  8
0
 62
     0
 10
164.782
 20
40.7113
 30
0.0
 11
164.782
 21
39.7108
 31
0.0
  0
LINE
  8
0
 62
     0
 10
164.782
 20
39.7108
 30
0.0
 11
163.981
 21
39.7108
 31
0.0
  0
LINE
  8
0
 62
     0
 10
163.981
 20
39.7108
 30
0.0
 11
163.981
 21
36.6116
 31
0.0
  0
LINE
  8
0
 62
     0
 10
163.981
 20
36.6116
 30
0.0
 11
164.782
 21
36.6116
 31
0.0
  0
LINE
  8
0
 62
     0
 10
164.782
 20
36.6116
 30
0.0
 11
164.782
 21
30.8115
 31
0.0
  0
LINE
  8
0
 62
     0
 10
164.782
 20
30.8115
 30
0.0
 11
163.981
 21
30.8115
 31
0.0
  0
LINE
  8
0
 62
     0
 10
163.981
 20
30.8115
 30
0.0
 11
163.981
 21
27.711
 31
0.0
  0
LINE
  8
0
 62
     0
 10
163.981
 20
27.711
 30
0.0
 11
164.782
 21
27.711
 31
0.0
  0
LINE
  8
0
 62
     0
 10
164.782
 20
27.711
 30
0.0
 11
164.782
 21
26.7105
 31
0.0
  0
LINE
  8
0
 62
     0
 10
164.782
 20
26.7105
 30
0.0
 11
178.781
 21
26.7105
 31
0.0
  0
LINE
  8
0
 62
     0
 10
178.781
 20
26.7105
 30
0.0
 11
178.781
 21
27.711
 31
0.0
  0
LINE
  8
0
 62
     0
 10
178.781
 20
27.711
 30
0.0
 11
179.582
 21
27.711
 31
0.0
  0
LINE
  8
0
 62
     0
 10
179.582
 20
27.711
 30
0.0
 11
179.582
 21
30.8115
 31
0.0
  0
LINE
  8
0
 62
     0
 10
179.582
 20
30.8115
 30
0.0
 11
178.781
 21
30.8115
 31
0.0
  0
LINE
  8
0
 62
     0
 10
178.781
 20
30.8115
 30
0.0
 11
178.781
 21
36.6116
 31
0.0
  0
LINE
  8
0
 62
     0
 10
178.781
 20
36.6116
 30
0.0
 11
179.582
 21
36.6116
 31
0.0
  0
LINE
  8
0
 62
     0
 10
179.582
 20
36.6116
 30
0.0
 11
179.582
 21
39.7108
 31
0.0
  0
LINE
  8
0
 62
     0
 10
179.582
 20
39.7108
 30
0.0
 11
178.781
 21
39.7108
 31
0.0
  0
LINE
  8
0
 62
     0
 10
178.781
 20
39.7108
 30
0.0
 11
178.781
 21
40.7113
 31
0.0
  0
LINE
  8
0
 62
     0
 10
178.781
 20
40.7113
 30
0.0
 11
164.782
 21
40.7113
 31
0.0
  0
LINE
  8
0
 62
     0
 10
145.732
 20
40.7113
 30
0.0
 11
145.732
 21
39.7108
 31
0.0
  0
LINE
  8
0
 62
     0
 10
145.732
 20
39.7108
 30
0.0
 11
144.931
 21
39.7108
 31
0.0
  0
LINE
  8
0
 62
     0
 10
144.931
 20
39.7108
 30
0.0
 11
144.931
 21
36.6116
 31
0.0
  0
LINE
  8
0
 62
     0
 10
144.931
 20
36.6116
 30
0.0
 11
145.732
 21
36.6116
 31
0.0
  0
LINE
  8
0
 62
     0
 10
145.732
 20
36.6116
 30
0.0
 11
145.732
 21
30.8115
 31
0.0
  0
LINE
  8
0
 62
     0
 10
145.732
 20
30.8115
 30
0.0
 11
144.931
 21
30.8115
 31
0.0
  0
LINE
  8
0
 62
     0
 10
144.931
 20
30.8115
 30
0.0
 11
144.931
 21
27.711
 31
0.0
  0
LINE
  8
0
 62
     0
 10
144.931
 20
27.711
 30
0.0
 11
145.732
 21
27.711
 31
0.0
  0
LINE
  8
0
 62
     0
 10
145.732
 20
27.711
 30
0.0
 11
145.732
 21
26.7105
 31
0.0
  0
LINE
  8
0
 62
     0
 10
145.732
 20
26.7105
 30
0.0
 11
159.731
 21
26.7105
 31
0.0
  0
LINE
  8
0
 62
     0
 10
159.731
 20
26.7105
 30
0.0
 11
159.731
 21
27.711
 31
0.0
  0
LINE
  8
0
 62
     0
 10
159.731
 20
27.711
 30
0.0
 11
160.532
 21
27.711
 31
0.0
  0
LINE
  8
0
 62
     0
 10
160.532
 20
27.711
 30
0.0
 11
160.532
 21
30.8115
 31
0.0
  0
LINE
  8
0
 62
     0
 10
160.532
 20
30.8115
 30
0.0
 11
159.731
 21
30.8115
 31
0.0
  0
LINE
  8
0
 62
     0
 10
159.731
 20
30.8115
 30
0.0
 11
159.731
 21
36.6116
 31
0.0
  0
LINE
  8
0
 62
     0
 10
159.731
 20
36.6116
 30
0.0
 11
160.532
 21
36.6116
 31
0.0
  0
LINE
  8
0
 62
     0
 10
160.532
 20
36.6116
 30
0.0
 11
160.532
 21
39.7108
 31
0.0
  0
LINE
  8
0
 62
     0
 10
160.532
 20
39.7108
 30
0.0
 11
159.731
 21
39.7108
 31
0.0
  0
LINE
  8
0
 62
     0
 10
159.731
 20
39.7108
 30
0.0
 11
159.731
 21
40.7113
 31
0.0
  0
LINE
  8
0
 62
     0
 10
159.731
 20
40.7113
 30
0.0
 11
145.732
 21
40.7113
 31
0.0
  0
LINE
  8
0
 62
     0
 10
126.682
 20
40.7113
 30
0.0
 11
126.682
 21
39.7108
 31
0.0
  0
LINE
  8
0
 62
     0
 10
126.682
 20
39.7108
 30
0.0
 11
125.881
 21
39.7108
 31
0.0
  0
LINE
  8
0
 62
     0
 10
125.881
 20
39.7108
 30
0.0
 11
125.881
 21
36.6116
 31
0.0
  0
LINE
  8
0
 62
     0
 10
125.881
 20
36.6116
 30
0.0
 11
126.682
 21
36.6116
 31
0.0
  0
LINE
  8
0
 62
     0
 10
126.682
 20
36.6116
 30
0.0
 11
126.682
 21
30.8115
 31
0.0
  0
LINE
  8
0
 62
     0
 10
126.682
 20
30.8115
 30
0.0
 11
125.881
 21
30.8115
 31
0.0
  0
LINE
  8
0
 62
     0
 10
125.881
 20
30.8115
 30
0.0
 11
125.881
 21
27.711
 31
0.0
  0
LINE
  8
0
 62
     0
 10
125.881
 20
27.711
 30
0.0
 11
126.682
 21
27.711
 31
0.0
  0
LINE
  8
0
 62
     0
 10
126.682
 20
27.711
 30
0.0
 11
126.682
 21
26.7105
 31
0.0
  0
LINE
  8
0
 62
     0
 10
126.682
 20
26.7105
 30
0.0
 11
140.681
 21
26.7105
 31
0.0
  0
LINE
  8
0
 62
     0
 10
140.681
 20
26.7105
 30
0.0
 11
140.681
 21
27.711
 31
0.0
  0
LINE
  8
0
 62
     0
 10
140.681
 20
27.711
 30
0.0
 11
141.482
 21
27.711
 31
0.0
  0
LINE
  8
0
 62
     0
 10
141.482
 20
27.711
 30
0.0
 11
141.482
 21
30.8115
 31
0.0
  0
LINE
  8
0
 62
     0
 10
141.482
 20
30.8115
 30
0.0
 11
140.681
 21
30.8115
 31
0.0
  0
LINE
  8
0
 62
     0
 10
140.681
 20
30.8115
 30
0.0
 11
140.681
 21
36.6116
 31
0.0
  0
LINE
  8
0
 62
     0
 10
140.681
 20
36.6116
 30
0.0
 11
141.482
 21
36.6116
 31
0.0
  0
LINE
  8
0
 62
     0
 10
141.482
 20
36.6116
 30
0.0
 11
141.482
 21
39.7108
 31
0.0
  0
LINE
  8
0
 62
     0
 10
141.482
 20
39.7108
 30
0.0
 11
140.681
 21
39.7108
 31
0.0
  0
LINE
  8
0
 62
     0
 10
140.681
 20
39.7108
 30
0.0
 11
140.681
 21
40.7113
 31
0.0
  0
LINE
  8
0
 62
     0
 10
140.681
 20
40.7113
 30
0.0
 11
126.682
 21
40.7113
 31
0.0
  0
LINE
  8
0
 62
     0
 10
107.632
 20
40.7113
 30
0.0
 11
107.632
 21
39.7108
 31
0.0
  0
LINE
  8
0
 62
     0
 10
107.632
 20
39.7108
 30
0.0
 11
106.831
 21
39.7108
 31
0.0
  0
LINE
  8
0
 62
     0
 10
106.831
 20
39.7108
 30
0.0
 11
106.831
 21
36.6116
 31
0.0
  0
LINE
  8
0
 62
     0
 10
106.831
 20
36.6116
 30
0.0
 11
107.632
 21
36.6116
 31
0.0
  0
LINE
  8
0
 62
     0
 10
107.632
 20
36.6116
 30
0.0
 11
107.632
 21
30.8115
 31
0.0
  0
LINE
  8
0
 62
     0
 10
107.632
 20
30.8115
 30
0.0
 11
106.831
 21
30.8115
 31
0.0
  0
LINE
  8
0
 62
     0
 10
106.831
 20
30.8115
 30
0.0
 11
106.831
 21
27.711
 31
0.0
  0
LINE
  8
0
 62
     0
 10
106.831
 20
27.711
 30
0.0
 11
107.632
 21
27.711
 31
0.0
  0
LINE
  8
0
 62
     0
 10
107.632
 20
27.711
 30
0.0
 11
107.632
 21
26.7105
 31
0.0
  0
LINE
  8
0
 62
     0
 10
107.632
 20
26.7105
 30
0.0
 11
121.631
 21
26.7105
 31
0.0
  0
LINE
  8
0
 62
     0
 10
121.631
 20
26.7105
 30
0.0
 11
121.631
 21
27.711
 31
0.0
  0
LINE
  8
0
 62
     0
 10
121.631
 20
27.711
 30
0.0
 11
122.432
 21
27.711
 31
0.0
  0
LINE
  8
0
 62
     0
 10
122.432
 20
27.711
 30
0.0
 11
122.432
 21
30.8115
 31
0.0
  0
LINE
  8
0
 62
     0
 10
122.432
 20
30.8115
 30
0.0
 11
121.631
 21
30.8115
 31
0.0
  0
LINE
  8
0
 62
     0
 10
121.631
 20
30.8115
 30
0.0
 11
121.631
 21
36.6116
 31
0.0
  0
LINE
  8
0
 62
     0
 10
121.631
 20
36.6116
 30
0.0
 11
122.432
 21
36.6116
 31
0.0
  0
LINE
  8
0
 62
     0
 10
122.432
 20
36.6116
 30
0.0
 11
122.432
 21
39.7108
 31
0.0
  0
LINE
  8
0
 62
     0
 10
122.432
 20
39.7108
 30
0.0
 11
121.631
 21
39.7108
 31
0.0
  0
LINE
  8
0
 62
     0
 10
121.631
 20
39.7108
 30
0.0
 11
121.631
 21
40.7113
 31
0.0
  0
LINE
  8
0
 62
     0
 10
121.631
 20
40.7113
 30
0.0
 11
107.632
 21
40.7113
 31
0.0
  0
LINE
  8
0
 62
     0
 10
88.5818
 20
40.7113
 30
0.0
 11
88.5818
 21
39.7108
 31
0.0
  0
LINE
  8
0
 62
     0
 10
88.5818
 20
39.7108
 30
0.0
 11
87.781
 21
39.7108
 31
0.0
  0
LINE
  8
0
 62
     0
 10
87.781
 20
39.7108
 30
0.0
 11
87.781
 21
36.6116
 31
0.0
  0
LINE
  8
0
 62
     0
 10
87.781
 20
36.6116
 30
0.0
 11
88.5818
 21
36.6116
 31
0.0
  0
LINE
  8
0
 62
     0
 10
88.5818
 20
36.6116
 30
0.0
 11
88.5818
 21
30.8115
 31
0.0
  0
LINE
  8
0
 62
     0
 10
88.5818
 20
30.8115
 30
0.0
 11
87.781
 21
30.8115
 31
0.0
  0
LINE
  8
0
 62
     0
 10
87.781
 20
30.8115
 30
0.0
 11
87.781
 21
27.711
 31
0.0
  0
LINE
  8
0
 62
     0
 10
87.781
 20
27.711
 30
0.0
 11
88.5818
 21
27.711
 31
0.0
  0
LINE
  8
0
 62
     0
 10
88.5818
 20
27.711
 30
0.0
 11
88.5818
 21
26.7105
 31
0.0
  0
LINE
  8
0
 62
     0
 10
88.5818
 20
26.7105
 30
0.0
 11
102.581
 21
26.7105
 31
0.0
  0
LINE
  8
0
 62
     0
 10
102.581
 20
26.7105
 30
0.0
 11
102.581
 21
27.711
 31
0.0
  0
LINE
  8
0
 62
     0
 10
102.581
 20
27.711
 30
0.0
 11
103.382
 21
27.711
 31
0.0
  0
LINE
  8
0
 62
     0
 10
103.382
 20
27.711
 30
0.0
 11
103.382
 21
30.8115
 31
0.0
  0
LINE
  8
0
 62
     0
 10
103.382
 20
30.8115
 30
0.0
 11
102.581
 21
30.8115
 31
0.0
  0
LINE
  8
0
 62
     0
 10
102.581
 20
30.8115
 30
0.0
 11
102.581
 21
36.6116
 31
0.0
  0
LINE
  8
0
 62
     0
 10
102.581
 20
36.6116
 30
0.0
 11
103.382
 21
36.6116
 31
0.0
  0
LINE
  8
0
 62
     0
 10
103.382
 20
36.6116
 30
0.0
 11
103.382
 21
39.7108
 31
0.0
  0
LINE
  8
0
 62
     0
 10
103.382
 20
39.7108
 30
0.0
 11
102.581
 21
39.7108
 31
0.0
  0
LINE
  8
0
 62
     0
 10
102.581
 20
39.7108
 30
0.0
 11
102.581
 21
40.7113
 31
0.0
  0
LINE
  8
0
 62
     0
 10
102.581
 20
40.7113
 30
0.0
 11
88.5818
 21
40.7113
 31
0.0
  0
LINE
  8
0
 62
     0
 10
69.5318
 20
40.7113
 30
0.0
 11
69.5318
 21
39.7108
 31
0.0
  0
LINE
  8
0
 62
     0
 10
69.5318
 20
39.7108
 30
0.0
 11
68.731
 21
39.7108
 31
0.0
  0
LINE
  8
0
 62
     0
 10
68.731
 20
39.7108
 30
0.0
 11
68.731
 21
36.6116
 31
0.0
  0
LINE
  8
0
 62
     0
 10
68.731
 20
36.6116
 30
0.0
 11
69.5318
 21
36.6116
 31
0.0
  0
LINE
  8
0
 62
     0
 10
69.5318
 20
36.6116
 30
0.0
 11
69.5318
 21
30.8115
 31
0.0
  0
LINE
  8
0
 62
     0
 10
69.5318
 20
30.8115
 30
0.0
 11
68.731
 21
30.8115
 31
0.0
  0
LINE
  8
0
 62
     0
 10
68.731
 20
30.8115
 30
0.0
 11
68.731
 21
27.711
 31
0.0
  0
LINE
  8
0
 62
     0
 10
68.731
 20
27.711
 30
0.0
 11
69.5318
 21
27.711
 31
0.0
  0
LINE
  8
0
 62
     0
 10
69.5318
 20
27.711
 30
0.0
 11
69.5318
 21
26.7105
 31
0.0
  0
LINE
  8
0
 62
     0
 10
69.5318
 20
26.7105
 30
0.0
 11
83.5311
 21
26.7105
 31
0.0
  0
LINE
  8
0
 62
     0
 10
83.5311
 20
26.7105
 30
0.0
 11
83.5311
 21
27.711
 31
0.0
  0
LINE
  8
0
 62
     0
 10
83.5311
 20
27.711
 30
0.0
 11
84.3319
 21
27.711
 31
0.0
  0
LINE
  8
0
 62
     0
 10
84.3319
 20
27.711
 30
0.0
 11
84.3319
 21
30.8115
 31
0.0
  0
LINE
  8
0
 62
     0
 10
84.3319
 20
30.8115
 30
0.0
 11
83.5311
 21
30.8115
 31
0.0
  0
LINE
  8
0
 62
     0
 10
83.5311
 20
30.8115
 30
0.0
 11
83.5311
 21
36.6116
 31
0.0
  0
LINE
  8
0
 62
     0
 10
83.5311
 20
36.6116
 30
0.0
 11
84.3319
 21
36.6116
 31
0.0
  0
LINE
  8
0
 62
     0
 10
84.3319
 20
36.6116
 30
0.0
 11
84.3319
 21
39.7108
 31
0.0
  0
LINE
  8
0
 62
     0
 10
84.3319
 20
39.7108
 30
0.0
 11
83.5311
 21
39.7108
 31
0.0
  0
LINE
  8
0
 62
     0
 10
83.5311
 20
39.7108
 30
0.0
 11
83.5311
 21
40.7113
 31
0.0
  0
LINE
  8
0
 62
     0
 10
83.5311
 20
40.7113
 30
0.0
 11
69.5318
 21
40.7113
 31
0.0
  0
LINE
  8
0
 62
     0
 10
7.61919
 20
40.7113
 30
0.0
 11
7.61919
 21
39.7108
 31
0.0
  0
LINE
  8
0
 62
     0
 10
7.61919
 20
39.7108
 30
0.0
 11
6.81852
 21
39.7108
 31
0.0
  0
LINE
  8
0
 62
     0
 10
6.81852
 20
39.7108
 30
0.0
 11
6.81852
 21
36.6116
 31
0.0
  0
LINE
  8
0
 62
     0
 10
6.81852
 20
36.6116
 30
0.0
 11
7.61919
 21
36.6116
 31
0.0
  0
LINE
  8
0
 62
     0
 10
7.61919
 20
36.6116
 30
0.0
 11
7.61919
 21
30.8115
 31
0.0
  0
LINE
  8
0
 62
     0
 10
7.61919
 20
30.8115
 30
0.0
 11
6.81852
 21
30.8115
 31
0.0
  0
LINE
  8
0
 62
     0
 10
6.81852
 20
30.8115
 30
0.0
 11
6.81852
 21
27.711
 31
0.0
  0
LINE
  8
0
 62
     0
 10
6.81852
 20
27.711
 30
0.0
 11
7.61919
 21
27.711
 31
0.0
  0
LINE
  8
0
 62
     0
 10
7.61919
 20
27.711
 30
0.0
 11
7.61919
 21
26.7105
 31
0.0
  0
LINE
  8
0
 62
     0
 10
7.61919
 20
26.7105
 30
0.0
 11
21.6201
 21
26.7105
 31
0.0
  0
LINE
  8
0
 62
     0
 10
21.6201
 20
26.7105
 30
0.0
 11
21.6201
 21
27.711
 31
0.0
  0
LINE
  8
0
 62
     0
 10
21.6201
 20
27.711
 30
0.0
 11
22.4193
 21
27.711
 31
0.0
  0
LINE
  8
0
 62
     0
 10
22.4193
 20
27.711
 30
0.0
 11
22.4193
 21
30.8115
 31
0.0
  0
LINE
  8
0
 62
     0
 10
22.4193
 20
30.8115
 30
0.0
 11
21.6201
 21
30.8115
 31
0.0
  0
LINE
  8
0
 62
     0
 10
21.6201
 20
30.8115
 30
0.0
 11
21.6201
 21
36.6116
 31
0.0
  0
LINE
  8
0
 62
     0
 10
21.6201
 20
36.6116
 30
0.0
 11
22.4193
 21
36.6116
 31
0.0
  0
LINE
  8
0
 62
     0
 10
22.4193
 20
36.6116
 30
0.0
 11
22.4193
 21
39.7108
 31
0.0
  0
LINE
  8
0
 62
     0
 10
22.4193
 20
39.7108
 30
0.0
 11
21.6201
 21
39.7108
 31
0.0
  0
LINE
  8
0
 62
     0
 10
21.6201
 20
39.7108
 30
0.0
 11
21.6201
 21
40.7113
 31
0.0
  0
LINE
  8
0
 62
     0
 10
21.6201
 20
40.7113
 30
0.0
 11
7.61919
 21
40.7113
 31
0.0
  0
LINE
  8
0
 62
     0
 10
281.463
 20
59.7613
 30
0.0
 11
281.463
 21
58.7608
 31
0.0
  0
LINE
  8
0
 62
     0
 10
281.463
 20
58.7608
 30
0.0
 11
280.662
 21
58.7608
 31
0.0
  0
LINE
  8
0
 62
     0
 10
280.662
 20
58.7608
 30
0.0
 11
280.662
 21
55.6616
 31
0.0
  0
LINE
  8
0
 62
     0
 10
280.662
 20
55.6616
 30
0.0
 11
281.463
 21
55.6616
 31
0.0
  0
LINE
  8
0
 62
     0
 10
281.463
 20
55.6616
 30
0.0
 11
281.463
 21
55.0609
 31
0.0
  0
LINE
  8
0
 62
     0
 10
281.463
 20
55.0609
 30
0.0
 11
279.937
 21
55.0609
 31
0.0
  0
LINE
  8
0
 62
     0
 10
279.937
 20
55.0609
 30
0.0
 11
279.937
 21
58.2909
 31
0.0
  0
LINE
  8
0
 62
     0
 10
279.937
 20
58.2909
 30
0.0
 11
273.188
 21
58.2909
 31
0.0
  0
LINE
  8
0
 62
     0
 10
273.188
 20
58.2909
 30
0.0
 11
273.188
 21
55.0609
 31
0.0
  0
LINE
  8
0
 62
     0
 10
273.188
 20
55.0609
 30
0.0
 11
272.362
 21
55.0609
 31
0.0
  0
LINE
  8
0
 62
     0
 10
272.362
 20
55.0609
 30
0.0
 11
272.362
 21
52.2609
 31
0.0
  0
LINE
  8
0
 62
     0
 10
272.362
 20
52.2609
 30
0.0
 11
273.188
 21
52.2609
 31
0.0
  0
LINE
  8
0
 62
     0
 10
273.188
 20
52.2609
 30
0.0
 11
273.188
 21
45.9906
 31
0.0
  0
LINE
  8
0
 62
     0
 10
273.188
 20
45.9906
 30
0.0
 11
274.913
 21
45.9906
 31
0.0
  0
LINE
  8
0
 62
     0
 10
274.913
 20
45.9906
 30
0.0
 11
274.913
 21
44.7918
 31
0.0
  0
LINE
  8
0
 62
     0
 10
274.913
 20
44.7918
 30
0.0
 11
278.212
 21
44.7918
 31
0.0
  0
LINE
  8
0
 62
     0
 10
278.212
 20
44.7918
 30
0.0
 11
278.212
 21
45.9906
 31
0.0
  0
LINE
  8
0
 62
     0
 10
278.212
 20
45.9906
 30
0.0
 11
279.937
 21
45.9906
 31
0.0
  0
LINE
  8
0
 62
     0
 10
279.937
 20
45.9906
 30
0.0
 11
279.937
 21
50.461
 31
0.0
  0
LINE
  8
0
 62
     0
 10
279.937
 20
50.461
 30
0.0
 11
281.463
 21
50.461
 31
0.0
  0
LINE
  8
0
 62
     0
 10
281.463
 20
50.461
 30
0.0
 11
281.463
 21
49.8616
 31
0.0
  0
LINE
  8
0
 62
     0
 10
281.463
 20
49.8616
 30
0.0
 11
280.662
 21
49.8616
 31
0.0
  0
LINE
  8
0
 62
     0
 10
280.662
 20
49.8616
 30
0.0
 11
280.662
 21
46.761
 31
0.0
  0
LINE
  8
0
 62
     0
 10
280.662
 20
46.761
 30
0.0
 11
281.463
 21
46.761
 31
0.0
  0
LINE
  8
0
 62
     0
 10
281.463
 20
46.761
 30
0.0
 11
281.463
 21
45.7606
 31
0.0
  0
LINE
  8
0
 62
     0
 10
281.463
 20
45.7606
 30
0.0
 11
295.462
 21
45.7606
 31
0.0
  0
LINE
  8
0
 62
     0
 10
295.462
 20
45.7606
 30
0.0
 11
295.462
 21
46.761
 31
0.0
  0
LINE
  8
0
 62
     0
 10
295.462
 20
46.761
 30
0.0
 11
296.263
 21
46.761
 31
0.0
  0
LINE
  8
0
 62
     0
 10
296.263
 20
46.761
 30
0.0
 11
296.263
 21
49.8616
 31
0.0
  0
LINE
  8
0
 62
     0
 10
296.263
 20
49.8616
 30
0.0
 11
295.462
 21
49.8616
 31
0.0
  0
LINE
  8
0
 62
     0
 10
295.462
 20
49.8616
 30
0.0
 11
295.462
 21
50.461
 31
0.0
  0
LINE
  8
0
 62
     0
 10
295.462
 20
50.461
 30
0.0
 11
296.988
 21
50.461
 31
0.0
  0
LINE
  8
0
 62
     0
 10
296.988
 20
50.461
 30
0.0
 11
296.988
 21
45.9906
 31
0.0
  0
LINE
  8
0
 62
     0
 10
296.988
 20
45.9906
 30
0.0
 11
298.712
 21
45.9906
 31
0.0
  0
LINE
  8
0
 62
     0
 10
298.712
 20
45.9906
 30
0.0
 11
298.712
 21
44.7918
 31
0.0
  0
LINE
  8
0
 62
     0
 10
298.712
 20
44.7918
 30
0.0
 11
302.012
 21
44.7918
 31
0.0
  0
LINE
  8
0
 62
     0
 10
302.012
 20
44.7918
 30
0.0
 11
302.012
 21
45.9906
 31
0.0
  0
LINE
  8
0
 62
     0
 10
302.012
 20
45.9906
 30
0.0
 11
303.737
 21
45.9906
 31
0.0
  0
LINE
  8
0
 62
     0
 10
303.737
 20
45.9906
 30
0.0
 11
303.737
 21
52.2609
 31
0.0
  0
LINE
  8
0
 62
     0
 10
303.737
 20
52.2609
 30
0.0
 11
304.563
 21
52.2609
 31
0.0
  0
LINE
  8
0
 62
     0
 10
304.563
 20
52.2609
 30
0.0
 11
304.563
 21
55.0609
 31
0.0
  0
LINE
  8
0
 62
     0
 10
304.563
 20
55.0609
 30
0.0
 11
303.737
 21
55.0609
 31
0.0
  0
LINE
  8
0
 62
     0
 10
303.737
 20
55.0609
 30
0.0
 11
303.737
 21
58.2909
 31
0.0
  0
LINE
  8
0
 62
     0
 10
303.737
 20
58.2909
 30
0.0
 11
296.988
 21
58.2909
 31
0.0
  0
LINE
  8
0
 62
     0
 10
296.988
 20
58.2909
 30
0.0
 11
296.988
 21
55.0609
 31
0.0
  0
LINE
  8
0
 62
     0
 10
296.988
 20
55.0609
 30
0.0
 11
295.462
 21
55.0609
 31
0.0
  0
LINE
  8
0
 62
     0
 10
295.462
 20
55.0609
 30
0.0
 11
295.462
 21
55.6616
 31
0.0
  0
LINE
  8
0
 62
     0
 10
295.462
 20
55.6616
 30
0.0
 11
296.263
 21
55.6616
 31
0.0
  0
LINE
  8
0
 62
     0
 10
296.263
 20
55.6616
 30
0.0
 11
296.263
 21
58.7608
 31
0.0
  0
LINE
  8
0
 62
     0
 10
296.263
 20
58.7608
 30
0.0
 11
295.462
 21
58.7608
 31
0.0
  0
LINE
  8
0
 62
     0
 10
295.462
 20
58.7608
 30
0.0
 11
295.462
 21
59.7613
 31
0.0
  0
LINE
  8
0
 62
     0
 10
295.462
 20
59.7613
 30
0.0
 11
281.463
 21
59.7613
 31
0.0
  0
LINE
  8
0
 62
     0
 10
312.419
 20
59.7613
 30
0.0
 11
312.419
 21
58.7608
 31
0.0
  0
LINE
  8
0
 62
     0
 10
312.419
 20
58.7608
 30
0.0
 11
311.62
 21
58.7608
 31
0.0
  0
LINE
  8
0
 62
     0
 10
311.62
 20
58.7608
 30
0.0
 11
311.62
 21
55.6616
 31
0.0
  0
LINE
  8
0
 62
     0
 10
311.62
 20
55.6616
 30
0.0
 11
312.419
 21
55.6616
 31
0.0
  0
LINE
  8
0
 62
     0
 10
312.419
 20
55.6616
 30
0.0
 11
312.419
 21
49.8616
 31
0.0
  0
LINE
  8
0
 62
     0
 10
312.419
 20
49.8616
 30
0.0
 11
311.62
 21
49.8616
 31
0.0
  0
LINE
  8
0
 62
     0
 10
311.62
 20
49.8616
 30
0.0
 11
311.62
 21
46.761
 31
0.0
  0
LINE
  8
0
 62
     0
 10
311.62
 20
46.761
 30
0.0
 11
312.419
 21
46.761
 31
0.0
  0
LINE
  8
0
 62
     0
 10
312.419
 20
46.761
 30
0.0
 11
312.419
 21
45.7606
 31
0.0
  0
LINE
  8
0
 62
     0
 10
312.419
 20
45.7606
 30
0.0
 11
326.42
 21
45.7606
 31
0.0
  0
LINE
  8
0
 62
     0
 10
326.42
 20
45.7606
 30
0.0
 11
326.42
 21
46.761
 31
0.0
  0
LINE
  8
0
 62
     0
 10
326.42
 20
46.761
 30
0.0
 11
327.219
 21
46.761
 31
0.0
  0
LINE
  8
0
 62
     0
 10
327.219
 20
46.761
 30
0.0
 11
327.219
 21
49.8616
 31
0.0
  0
LINE
  8
0
 62
     0
 10
327.219
 20
49.8616
 30
0.0
 11
326.42
 21
49.8616
 31
0.0
  0
LINE
  8
0
 62
     0
 10
326.42
 20
49.8616
 30
0.0
 11
326.42
 21
55.6616
 31
0.0
  0
LINE
  8
0
 62
     0
 10
326.42
 20
55.6616
 30
0.0
 11
327.219
 21
55.6616
 31
0.0
  0
LINE
  8
0
 62
     0
 10
327.219
 20
55.6616
 30
0.0
 11
327.219
 21
58.7608
 31
0.0
  0
LINE
  8
0
 62
     0
 10
327.219
 20
58.7608
 30
0.0
 11
326.42
 21
58.7608
 31
0.0
  0
LINE
  8
0
 62
     0
 10
326.42
 20
58.7608
 30
0.0
 11
326.42
 21
59.7613
 31
0.0
  0
LINE
  8
0
 62
     0
 10
326.42
 20
59.7613
 30
0.0
 11
312.419
 21
59.7613
 31
0.0
  0
LINE
  8
0
 62
     0
 10
250.507
 20
59.7613
 30
0.0
 11
250.507
 21
58.7608
 31
0.0
  0
LINE
  8
0
 62
     0
 10
250.507
 20
58.7608
 30
0.0
 11
249.706
 21
58.7608
 31
0.0
  0
LINE
  8
0
 62
     0
 10
249.706
 20
58.7608
 30
0.0
 11
249.706
 21
55.6616
 31
0.0
  0
LINE
  8
0
 62
     0
 10
249.706
 20
55.6616
 30
0.0
 11
250.507
 21
55.6616
 31
0.0
  0
LINE
  8
0
 62
     0
 10
250.507
 20
55.6616
 30
0.0
 11
250.507
 21
49.8616
 31
0.0
  0
LINE
  8
0
 62
     0
 10
250.507
 20
49.8616
 30
0.0
 11
249.706
 21
49.8616
 31
0.0
  0
LINE
  8
0
 62
     0
 10
249.706
 20
49.8616
 30
0.0
 11
249.706
 21
46.761
 31
0.0
  0
LINE
  8
0
 62
     0
 10
249.706
 20
46.761
 30
0.0
 11
250.507
 21
46.761
 31
0.0
  0
LINE
  8
0
 62
     0
 10
250.507
 20
46.761
 30
0.0
 11
250.507
 21
45.7606
 31
0.0
  0
LINE
  8
0
 62
     0
 10
250.507
 20
45.7606
 30
0.0
 11
264.506
 21
45.7606
 31
0.0
  0
LINE
  8
0
 62
     0
 10
264.506
 20
45.7606
 30
0.0
 11
264.506
 21
46.761
 31
0.0
  0
LINE
  8
0
 62
     0
 10
264.506
 20
46.761
 30
0.0
 11
265.307
 21
46.761
 31
0.0
  0
LINE
  8
0
 62
     0
 10
265.307
 20
46.761
 30
0.0
 11
265.307
 21
49.8616
 31
0.0
  0
LINE
  8
0
 62
     0
 10
265.307
 20
49.8616
 30
0.0
 11
264.506
 21
49.8616
 31
0.0
  0
LINE
  8
0
 62
     0
 10
264.506
 20
49.8616
 30
0.0
 11
264.506
 21
55.6616
 31
0.0
  0
LINE
  8
0
 62
     0
 10
264.506
 20
55.6616
 30
0.0
 11
265.307
 21
55.6616
 31
0.0
  0
LINE
  8
0
 62
     0
 10
265.307
 20
55.6616
 30
0.0
 11
265.307
 21
58.7608
 31
0.0
  0
LINE
  8
0
 62
     0
 10
265.307
 20
58.7608
 30
0.0
 11
264.506
 21
58.7608
 31
0.0
  0
LINE
  8
0
 62
     0
 10
264.506
 20
58.7608
 30
0.0
 11
264.506
 21
59.7613
 31
0.0
  0
LINE
  8
0
 62
     0
 10
264.506
 20
59.7613
 30
0.0
 11
250.507
 21
59.7613
 31
0.0
  0
LINE
  8
0
 62
     0
 10
231.457
 20
59.7613
 30
0.0
 11
231.457
 21
58.7608
 31
0.0
  0
LINE
  8
0
 62
     0
 10
231.457
 20
58.7608
 30
0.0
 11
230.656
 21
58.7608
 31
0.0
  0
LINE
  8
0
 62
     0
 10
230.656
 20
58.7608
 30
0.0
 11
230.656
 21
55.6616
 31
0.0
  0
LINE
  8
0
 62
     0
 10
230.656
 20
55.6616
 30
0.0
 11
231.457
 21
55.6616
 31
0.0
  0
LINE
  8
0
 62
     0
 10
231.457
 20
55.6616
 30
0.0
 11
231.457
 21
49.8616
 31
0.0
  0
LINE
  8
0
 62
     0
 10
231.457
 20
49.8616
 30
0.0
 11
230.656
 21
49.8616
 31
0.0
  0
LINE
  8
0
 62
     0
 10
230.656
 20
49.8616
 30
0.0
 11
230.656
 21
46.761
 31
0.0
  0
LINE
  8
0
 62
     0
 10
230.656
 20
46.761
 30
0.0
 11
231.457
 21
46.761
 31
0.0
  0
LINE
  8
0
 62
     0
 10
231.457
 20
46.761
 30
0.0
 11
231.457
 21
45.7606
 31
0.0
  0
LINE
  8
0
 62
     0
 10
231.457
 20
45.7606
 30
0.0
 11
245.456
 21
45.7606
 31
0.0
  0
LINE
  8
0
 62
     0
 10
245.456
 20
45.7606
 30
0.0
 11
245.456
 21
46.761
 31
0.0
  0
LINE
  8
0
 62
     0
 10
245.456
 20
46.761
 30
0.0
 11
246.257
 21
46.761
 31
0.0
  0
LINE
  8
0
 62
     0
 10
246.257
 20
46.761
 30
0.0
 11
246.257
 21
49.8616
 31
0.0
  0
LINE
  8
0
 62
     0
 10
246.257
 20
49.8616
 30
0.0
 11
245.456
 21
49.8616
 31
0.0
  0
LINE
  8
0
 62
     0
 10
245.456
 20
49.8616
 30
0.0
 11
245.456
 21
55.6616
 31
0.0
  0
LINE
  8
0
 62
     0
 10
245.456
 20
55.6616
 30
0.0
 11
246.257
 21
55.6616
 31
0.0
  0
LINE
  8
0
 62
     0
 10
246.257
 20
55.6616
 30
0.0
 11
246.257
 21
58.7608
 31
0.0
  0
LINE
  8
0
 62
     0
 10
246.257
 20
58.7608
 30
0.0
 11
245.456
 21
58.7608
 31
0.0
  0
LINE
  8
0
 62
     0
 10
245.456
 20
58.7608
 30
0.0
 11
245.456
 21
59.7613
 31
0.0
  0
LINE
  8
0
 62
     0
 10
245.456
 20
59.7613
 30
0.0
 11
231.457
 21
59.7613
 31
0.0
  0
LINE
  8
0
 62
     0
 10
212.407
 20
59.7613
 30
0.0
 11
212.407
 21
58.7608
 31
0.0
  0
LINE
  8
0
 62
     0
 10
212.407
 20
58.7608
 30
0.0
 11
211.606
 21
58.7608
 31
0.0
  0
LINE
  8
0
 62
     0
 10
211.606
 20
58.7608
 30
0.0
 11
211.606
 21
55.6616
 31
0.0
  0
LINE
  8
0
 62
     0
 10
211.606
 20
55.6616
 30
0.0
 11
212.407
 21
55.6616
 31
0.0
  0
LINE
  8
0
 62
     0
 10
212.407
 20
55.6616
 30
0.0
 11
212.407
 21
49.8616
 31
0.0
  0
LINE
  8
0
 62
     0
 10
212.407
 20
49.8616
 30
0.0
 11
211.606
 21
49.8616
 31
0.0
  0
LINE
  8
0
 62
     0
 10
211.606
 20
49.8616
 30
0.0
 11
211.606
 21
46.761
 31
0.0
  0
LINE
  8
0
 62
     0
 10
211.606
 20
46.761
 30
0.0
 11
212.407
 21
46.761
 31
0.0
  0
LINE
  8
0
 62
     0
 10
212.407
 20
46.761
 30
0.0
 11
212.407
 21
45.7606
 31
0.0
  0
LINE
  8
0
 62
     0
 10
212.407
 20
45.7606
 30
0.0
 11
226.406
 21
45.7606
 31
0.0
  0
LINE
  8
0
 62
     0
 10
226.406
 20
45.7606
 30
0.0
 11
226.406
 21
46.761
 31
0.0
  0
LINE
  8
0
 62
     0
 10
226.406
 20
46.761
 30
0.0
 11
227.207
 21
46.761
 31
0.0
  0
LINE
  8
0
 62
     0
 10
227.207
 20
46.761
 30
0.0
 11
227.207
 21
49.8616
 31
0.0
  0
LINE
  8
0
 62
     0
 10
227.207
 20
49.8616
 30
0.0
 11
226.406
 21
49.8616
 31
0.0
  0
LINE
  8
0
 62
     0
 10
226.406
 20
49.8616
 30
0.0
 11
226.406
 21
55.6616
 31
0.0
  0
LINE
  8
0
 62
     0
 10
226.406
 20
55.6616
 30
0.0
 11
227.207
 21
55.6616
 31
0.0
  0
LINE
  8
0
 62
     0
 10
227.207
 20
55.6616
 30
0.0
 11
227.207
 21
58.7608
 31
0.0
  0
LINE
  8
0
 62
     0
 10
227.207
 20
58.7608
 30
0.0
 11
226.406
 21
58.7608
 31
0.0
  0
LINE
  8
0
 62
     0
 10
226.406
 20
58.7608
 30
0.0
 11
226.406
 21
59.7613
 31
0.0
  0
LINE
  8
0
 62
     0
 10
226.406
 20
59.7613
 30
0.0
 11
212.407
 21
59.7613
 31
0.0
  0
LINE
  8
0
 62
     0
 10
193.357
 20
59.7613
 30
0.0
 11
193.357
 21
58.7608
 31
0.0
  0
LINE
  8
0
 62
     0
 10
193.357
 20
58.7608
 30
0.0
 11
192.556
 21
58.7608
 31
0.0
  0
LINE
  8
0
 62
     0
 10
192.556
 20
58.7608
 30
0.0
 11
192.556
 21
55.6616
 31
0.0
  0
LINE
  8
0
 62
     0
 10
192.556
 20
55.6616
 30
0.0
 11
193.357
 21
55.6616
 31
0.0
  0
LINE
  8
0
 62
     0
 10
193.357
 20
55.6616
 30
0.0
 11
193.357
 21
49.8616
 31
0.0
  0
LINE
  8
0
 62
     0
 10
193.357
 20
49.8616
 30
0.0
 11
192.556
 21
49.8616
 31
0.0
  0
LINE
  8
0
 62
     0
 10
192.556
 20
49.8616
 30
0.0
 11
192.556
 21
46.761
 31
0.0
  0
LINE
  8
0
 62
     0
 10
192.556
 20
46.761
 30
0.0
 11
193.357
 21
46.761
 31
0.0
  0
LINE
  8
0
 62
     0
 10
193.357
 20
46.761
 30
0.0
 11
193.357
 21
45.7606
 31
0.0
  0
LINE
  8
0
 62
     0
 10
193.357
 20
45.7606
 30
0.0
 11
207.356
 21
45.7606
 31
0.0
  0
LINE
  8
0
 62
     0
 10
207.356
 20
45.7606
 30
0.0
 11
207.356
 21
46.761
 31
0.0
  0
LINE
  8
0
 62
     0
 10
207.356
 20
46.761
 30
0.0
 11
208.157
 21
46.761
 31
0.0
  0
LINE
  8
0
 62
     0
 10
208.157
 20
46.761
 30
0.0
 11
208.157
 21
49.8616
 31
0.0
  0
LINE
  8
0
 62
     0
 10
208.157
 20
49.8616
 30
0.0
 11
207.356
 21
49.8616
 31
0.0
  0
LINE
  8
0
 62
     0
 10
207.356
 20
49.8616
 30
0.0
 11
207.356
 21
55.6616
 31
0.0
  0
LINE
  8
0
 62
     0
 10
207.356
 20
55.6616
 30
0.0
 11
208.157
 21
55.6616
 31
0.0
  0
LINE
  8
0
 62
     0
 10
208.157
 20
55.6616
 30
0.0
 11
208.157
 21
58.7608
 31
0.0
  0
LINE
  8
0
 62
     0
 10
208.157
 20
58.7608
 30
0.0
 11
207.356
 21
58.7608
 31
0.0
  0
LINE
  8
0
 62
     0
 10
207.356
 20
58.7608
 30
0.0
 11
207.356
 21
59.7613
 31
0.0
  0
LINE
  8
0
 62
     0
 10
207.356
 20
59.7613
 30
0.0
 11
193.357
 21
59.7613
 31
0.0
  0
LINE
  8
0
 62
     0
 10
174.307
 20
59.7613
 30
0.0
 11
174.307
 21
58.7608
 31
0.0
  0
LINE
  8
0
 62
     0
 10
174.307
 20
58.7608
 30
0.0
 11
173.506
 21
58.7608
 31
0.0
  0
LINE
  8
0
 62
     0
 10
173.506
 20
58.7608
 30
0.0
 11
173.506
 21
55.6616
 31
0.0
  0
LINE
  8
0
 62
     0
 10
173.506
 20
55.6616
 30
0.0
 11
174.307
 21
55.6616
 31
0.0
  0
LINE
  8
0
 62
     0
 10
174.307
 20
55.6616
 30
0.0
 11
174.307
 21
49.8616
 31
0.0
  0
LINE
  8
0
 62
     0
 10
174.307
 20
49.8616
 30
0.0
 11
173.506
 21
49.8616
 31
0.0
  0
LINE
  8
0
 62
     0
 10
173.506
 20
49.8616
 30
0.0
 11
173.506
 21
46.761
 31
0.0
  0
LINE
  8
0
 62
     0
 10
173.506
 20
46.761
 30
0.0
 11
174.307
 21
46.761
 31
0.0
  0
LINE
  8
0
 62
     0
 10
174.307
 20
46.761
 30
0.0
 11
174.307
 21
45.7606
 31
0.0
  0
LINE
  8
0
 62
     0
 10
174.307
 20
45.7606
 30
0.0
 11
188.306
 21
45.7606
 31
0.0
  0
LINE
  8
0
 62
     0
 10
188.306
 20
45.7606
 30
0.0
 11
188.306
 21
46.761
 31
0.0
  0
LINE
  8
0
 62
     0
 10
188.306
 20
46.761
 30
0.0
 11
189.107
 21
46.761
 31
0.0
  0
LINE
  8
0
 62
     0
 10
189.107
 20
46.761
 30
0.0
 11
189.107
 21
49.8616
 31
0.0
  0
LINE
  8
0
 62
     0
 10
189.107
 20
49.8616
 30
0.0
 11
188.306
 21
49.8616
 31
0.0
  0
LINE
  8
0
 62
     0
 10
188.306
 20
49.8616
 30
0.0
 11
188.306
 21
55.6616
 31
0.0
  0
LINE
  8
0
 62
     0
 10
188.306
 20
55.6616
 30
0.0
 11
189.107
 21
55.6616
 31
0.0
  0
LINE
  8
0
 62
     0
 10
189.107
 20
55.6616
 30
0.0
 11
189.107
 21
58.7608
 31
0.0
  0
LINE
  8
0
 62
     0
 10
189.107
 20
58.7608
 30
0.0
 11
188.306
 21
58.7608
 31
0.0
  0
LINE
  8
0
 62
     0
 10
188.306
 20
58.7608
 30
0.0
 11
188.306
 21
59.7613
 31
0.0
  0
LINE
  8
0
 62
     0
 10
188.306
 20
59.7613
 30
0.0
 11
174.307
 21
59.7613
 31
0.0
  0
LINE
  8
0
 62
     0
 10
155.257
 20
59.7613
 30
0.0
 11
155.257
 21
58.7608
 31
0.0
  0
LINE
  8
0
 62
     0
 10
155.257
 20
58.7608
 30
0.0
 11
154.456
 21
58.7608
 31
0.0
  0
LINE
  8
0
 62
     0
 10
154.456
 20
58.7608
 30
0.0
 11
154.456
 21
55.6616
 31
0.0
  0
LINE
  8
0
 62
     0
 10
154.456
 20
55.6616
 30
0.0
 11
155.257
 21
55.6616
 31
0.0
  0
LINE
  8
0
 62
     0
 10
155.257
 20
55.6616
 30
0.0
 11
155.257
 21
49.8616
 31
0.0
  0
LINE
  8
0
 62
     0
 10
155.257
 20
49.8616
 30
0.0
 11
154.456
 21
49.8616
 31
0.0
  0
LINE
  8
0
 62
     0
 10
154.456
 20
49.8616
 30
0.0
 11
154.456
 21
46.761
 31
0.0
  0
LINE
  8
0
 62
     0
 10
154.456
 20
46.761
 30
0.0
 11
155.257
 21
46.761
 31
0.0
  0
LINE
  8
0
 62
     0
 10
155.257
 20
46.761
 30
0.0
 11
155.257
 21
45.7606
 31
0.0
  0
LINE
  8
0
 62
     0
 10
155.257
 20
45.7606
 30
0.0
 11
169.256
 21
45.7606
 31
0.0
  0
LINE
  8
0
 62
     0
 10
169.256
 20
45.7606
 30
0.0
 11
169.256
 21
46.761
 31
0.0
  0
LINE
  8
0
 62
     0
 10
169.256
 20
46.761
 30
0.0
 11
170.057
 21
46.761
 31
0.0
  0
LINE
  8
0
 62
     0
 10
170.057
 20
46.761
 30
0.0
 11
170.057
 21
49.8616
 31
0.0
  0
LINE
  8
0
 62
     0
 10
170.057
 20
49.8616
 30
0.0
 11
169.256
 21
49.8616
 31
0.0
  0
LINE
  8
0
 62
     0
 10
169.256
 20
49.8616
 30
0.0
 11
169.256
 21
55.6616
 31
0.0
  0
LINE
  8
0
 62
     0
 10
169.256
 20
55.6616
 30
0.0
 11
170.057
 21
55.6616
 31
0.0
  0
LINE
  8
0
 62
     0
 10
170.057
 20
55.6616
 30
0.0
 11
170.057
 21
58.7608
 31
0.0
  0
LINE
  8
0
 62
     0
 10
170.057
 20
58.7608
 30
0.0
 11
169.256
 21
58.7608
 31
0.0
  0
LINE
  8
0
 62
     0
 10
169.256
 20
58.7608
 30
0.0
 11
169.256
 21
59.7613
 31
0.0
  0
LINE
  8
0
 62
     0
 10
169.256
 20
59.7613
 30
0.0
 11
155.257
 21
59.7613
 31
0.0
  0
LINE
  8
0
 62
     0
 10
136.207
 20
59.7613
 30
0.0
 11
136.207
 21
58.7608
 31
0.0
  0
LINE
  8
0
 62
     0
 10
136.207
 20
58.7608
 30
0.0
 11
135.406
 21
58.7608
 31
0.0
  0
LINE
  8
0
 62
     0
 10
135.406
 20
58.7608
 30
0.0
 11
135.406
 21
55.6616
 31
0.0
  0
LINE
  8
0
 62
     0
 10
135.406
 20
55.6616
 30
0.0
 11
136.207
 21
55.6616
 31
0.0
  0
LINE
  8
0
 62
     0
 10
136.207
 20
55.6616
 30
0.0
 11
136.207
 21
49.8616
 31
0.0
  0
LINE
  8
0
 62
     0
 10
136.207
 20
49.8616
 30
0.0
 11
135.406
 21
49.8616
 31
0.0
  0
LINE
  8
0
 62
     0
 10
135.406
 20
49.8616
 30
0.0
 11
135.406
 21
46.761
 31
0.0
  0
LINE
  8
0
 62
     0
 10
135.406
 20
46.761
 30
0.0
 11
136.207
 21
46.761
 31
0.0
  0
LINE
  8
0
 62
     0
 10
136.207
 20
46.761
 30
0.0
 11
136.207
 21
45.7606
 31
0.0
  0
LINE
  8
0
 62
     0
 10
136.207
 20
45.7606
 30
0.0
 11
150.206
 21
45.7606
 31
0.0
  0
LINE
  8
0
 62
     0
 10
150.206
 20
45.7606
 30
0.0
 11
150.206
 21
46.761
 31
0.0
  0
LINE
  8
0
 62
     0
 10
150.206
 20
46.761
 30
0.0
 11
151.007
 21
46.761
 31
0.0
  0
LINE
  8
0
 62
     0
 10
151.007
 20
46.761
 30
0.0
 11
151.007
 21
49.8616
 31
0.0
  0
LINE
  8
0
 62
     0
 10
151.007
 20
49.8616
 30
0.0
 11
150.206
 21
49.8616
 31
0.0
  0
LINE
  8
0
 62
     0
 10
150.206
 20
49.8616
 30
0.0
 11
150.206
 21
55.6616
 31
0.0
  0
LINE
  8
0
 62
     0
 10
150.206
 20
55.6616
 30
0.0
 11
151.007
 21
55.6616
 31
0.0
  0
LINE
  8
0
 62
     0
 10
151.007
 20
55.6616
 30
0.0
 11
151.007
 21
58.7608
 31
0.0
  0
LINE
  8
0
 62
     0
 10
151.007
 20
58.7608
 30
0.0
 11
150.206
 21
58.7608
 31
0.0
  0
LINE
  8
0
 62
     0
 10
150.206
 20
58.7608
 30
0.0
 11
150.206
 21
59.7613
 31
0.0
  0
LINE
  8
0
 62
     0
 10
150.206
 20
59.7613
 30
0.0
 11
136.207
 21
59.7613
 31
0.0
  0
LINE
  8
0
 62
     0
 10
117.157
 20
59.7613
 30
0.0
 11
117.157
 21
58.7608
 31
0.0
  0
LINE
  8
0
 62
     0
 10
117.157
 20
58.7608
 30
0.0
 11
116.356
 21
58.7608
 31
0.0
  0
LINE
  8
0
 62
     0
 10
116.356
 20
58.7608
 30
0.0
 11
116.356
 21
55.6616
 31
0.0
  0
LINE
  8
0
 62
     0
 10
116.356
 20
55.6616
 30
0.0
 11
117.157
 21
55.6616
 31
0.0
  0
LINE
  8
0
 62
     0
 10
117.157
 20
55.6616
 30
0.0
 11
117.157
 21
49.8616
 31
0.0
  0
LINE
  8
0
 62
     0
 10
117.157
 20
49.8616
 30
0.0
 11
116.356
 21
49.8616
 31
0.0
  0
LINE
  8
0
 62
     0
 10
116.356
 20
49.8616
 30
0.0
 11
116.356
 21
46.761
 31
0.0
  0
LINE
  8
0
 62
     0
 10
116.356
 20
46.761
 30
0.0
 11
117.157
 21
46.761
 31
0.0
  0
LINE
  8
0
 62
     0
 10
117.157
 20
46.761
 30
0.0
 11
117.157
 21
45.7606
 31
0.0
  0
LINE
  8
0
 62
     0
 10
117.157
 20
45.7606
 30
0.0
 11
131.156
 21
45.7606
 31
0.0
  0
LINE
  8
0
 62
     0
 10
131.156
 20
45.7606
 30
0.0
 11
131.156
 21
46.761
 31
0.0
  0
LINE
  8
0
 62
     0
 10
131.156
 20
46.761
 30
0.0
 11
131.957
 21
46.761
 31
0.0
  0
LINE
  8
0
 62
     0
 10
131.957
 20
46.761
 30
0.0
 11
131.957
 21
49.8616
 31
0.0
  0
LINE
  8
0
 62
     0
 10
131.957
 20
49.8616
 30
0.0
 11
131.156
 21
49.8616
 31
0.0
  0
LINE
  8
0
 62
     0
 10
131.156
 20
49.8616
 30
0.0
 11
131.156
 21
55.6616
 31
0.0
  0
LINE
  8
0
 62
     0
 10
131.156
 20
55.6616
 30
0.0
 11
131.957
 21
55.6616
 31
0.0
  0
LINE
  8
0
 62
     0
 10
131.957
 20
55.6616
 30
0.0
 11
131.957
 21
58.7608
 31
0.0
  0
LINE
  8
0
 62
     0
 10
131.957
 20
58.7608
 30
0.0
 11
131.156
 21
58.7608
 31
0.0
  0
LINE
  8
0
 62
     0
 10
131.156
 20
58.7608
 30
0.0
 11
131.156
 21
59.7613
 31
0.0
  0
LINE
  8
0
 62
     0
 10
131.156
 20
59.7613
 30
0.0
 11
117.157
 21
59.7613
 31
0.0
  0
LINE
  8
0
 62
     0
 10
98.1068
 20
59.7613
 30
0.0
 11
98.1068
 21
58.7608
 31
0.0
  0
LINE
  8
0
 62
     0
 10
98.1068
 20
58.7608
 30
0.0
 11
97.306
 21
58.7608
 31
0.0
  0
LINE
  8
0
 62
     0
 10
97.306
 20
58.7608
 30
0.0
 11
97.306
 21
55.6616
 31
0.0
  0
LINE
  8
0
 62
     0
 10
97.306
 20
55.6616
 30
0.0
 11
98.1068
 21
55.6616
 31
0.0
  0
LINE
  8
0
 62
     0
 10
98.1068
 20
55.6616
 30
0.0
 11
98.1068
 21
49.8616
 31
0.0
  0
LINE
  8
0
 62
     0
 10
98.1068
 20
49.8616
 30
0.0
 11
97.306
 21
49.8616
 31
0.0
  0
LINE
  8
0
 62
     0
 10
97.306
 20
49.8616
 30
0.0
 11
97.306
 21
46.761
 31
0.0
  0
LINE
  8
0
 62
     0
 10
97.306
 20
46.761
 30
0.0
 11
98.1068
 21
46.761
 31
0.0
  0
LINE
  8
0
 62
     0
 10
98.1068
 20
46.761
 30
0.0
 11
98.1068
 21
45.7606
 31
0.0
  0
LINE
  8
0
 62
     0
 10
98.1068
 20
45.7606
 30
0.0
 11
112.106
 21
45.7606
 31
0.0
  0
LINE
  8
0
 62
     0
 10
112.106
 20
45.7606
 30
0.0
 11
112.106
 21
46.761
 31
0.0
  0
LINE
  8
0
 62
     0
 10
112.106
 20
46.761
 30
0.0
 11
112.907
 21
46.761
 31
0.0
  0
LINE
  8
0
 62
     0
 10
112.907
 20
46.761
 30
0.0
 11
112.907
 21
49.8616
 31
0.0
  0
LINE
  8
0
 62
     0
 10
112.907
 20
49.8616
 30
0.0
 11
112.106
 21
49.8616
 31
0.0
  0
LINE
  8
0
 62
     0
 10
112.106
 20
49.8616
 30
0.0
 11
112.106
 21
55.6616
 31
0.0
  0
LINE
  8
0
 62
     0
 10
112.106
 20
55.6616
 30
0.0
 11
112.907
 21
55.6616
 31
0.0
  0
LINE
  8
0
 62
     0
 10
112.907
 20
55.6616
 30
0.0
 11
112.907
 21
58.7608
 31
0.0
  0
LINE
  8
0
 62
     0
 10
112.907
 20
58.7608
 30
0.0
 11
112.106
 21
58.7608
 31
0.0
  0
LINE
  8
0
 62
     0
 10
112.106
 20
58.7608
 30
0.0
 11
112.106
 21
59.7613
 31
0.0
  0
LINE
  8
0
 62
     0
 10
112.106
 20
59.7613
 30
0.0
 11
98.1068
 21
59.7613
 31
0.0
  0
LINE
  8
0
 62
     0
 10
79.0568
 20
59.7613
 30
0.0
 11
79.0568
 21
58.7608
 31
0.0
  0
LINE
  8
0
 62
     0
 10
79.0568
 20
58.7608
 30
0.0
 11
78.256
 21
58.7608
 31
0.0
  0
LINE
  8
0
 62
     0
 10
78.256
 20
58.7608
 30
0.0
 11
78.256
 21
55.6616
 31
0.0
  0
LINE
  8
0
 62
     0
 10
78.256
 20
55.6616
 30
0.0
 11
79.0568
 21
55.6616
 31
0.0
  0
LINE
  8
0
 62
     0
 10
79.0568
 20
55.6616
 30
0.0
 11
79.0568
 21
49.8616
 31
0.0
  0
LINE
  8
0
 62
     0
 10
79.0568
 20
49.8616
 30
0.0
 11
78.256
 21
49.8616
 31
0.0
  0
LINE
  8
0
 62
     0
 10
78.256
 20
49.8616
 30
0.0
 11
78.256
 21
46.761
 31
0.0
  0
LINE
  8
0
 62
     0
 10
78.256
 20
46.761
 30
0.0
 11
79.0568
 21
46.761
 31
0.0
  0
LINE
  8
0
 62
     0
 10
79.0568
 20
46.761
 30
0.0
 11
79.0568
 21
45.7606
 31
0.0
  0
LINE
  8
0
 62
     0
 10
79.0568
 20
45.7606
 30
0.0
 11
93.0561
 21
45.7606
 31
0.0
  0
LINE
  8
0
 62
     0
 10
93.0561
 20
45.7606
 30
0.0
 11
93.0561
 21
46.761
 31
0.0
  0
LINE
  8
0
 62
     0
 10
93.0561
 20
46.761
 30
0.0
 11
93.8569
 21
46.761
 31
0.0
  0
LINE
  8
0
 62
     0
 10
93.8569
 20
46.761
 30
0.0
 11
93.8569
 21
49.8616
 31
0.0
  0
LINE
  8
0
 62
     0
 10
93.8569
 20
49.8616
 30
0.0
 11
93.0561
 21
49.8616
 31
0.0
  0
LINE
  8
0
 62
     0
 10
93.0561
 20
49.8616
 30
0.0
 11
93.0561
 21
55.6616
 31
0.0
  0
LINE
  8
0
 62
     0
 10
93.0561
 20
55.6616
 30
0.0
 11
93.8569
 21
55.6616
 31
0.0
  0
LINE
  8
0
 62
     0
 10
93.8569
 20
55.6616
 30
0.0
 11
93.8569
 21
58.7608
 31
0.0
  0
LINE
  8
0
 62
     0
 10
93.8569
 20
58.7608
 30
0.0
 11
93.0561
 21
58.7608
 31
0.0
  0
LINE
  8
0
 62
     0
 10
93.0561
 20
58.7608
 30
0.0
 11
93.0561
 21
59.7613
 31
0.0
  0
LINE
  8
0
 62
     0
 10
93.0561
 20
59.7613
 30
0.0
 11
79.0568
 21
59.7613
 31
0.0
  0
LINE
  8
0
 62
     0
 10
60.0068
 20
59.7613
 30
0.0
 11
60.0068
 21
58.7608
 31
0.0
  0
LINE
  8
0
 62
     0
 10
60.0068
 20
58.7608
 30
0.0
 11
59.206
 21
58.7608
 31
0.0
  0
LINE
  8
0
 62
     0
 10
59.206
 20
58.7608
 30
0.0
 11
59.206
 21
55.6616
 31
0.0
  0
LINE
  8
0
 62
     0
 10
59.206
 20
55.6616
 30
0.0
 11
60.0068
 21
55.6616
 31
0.0
  0
LINE
  8
0
 62
     0
 10
60.0068
 20
55.6616
 30
0.0
 11
60.0068
 21
49.8616
 31
0.0
  0
LINE
  8
0
 62
     0
 10
60.0068
 20
49.8616
 30
0.0
 11
59.206
 21
49.8616
 31
0.0
  0
LINE
  8
0
 62
     0
 10
59.206
 20
49.8616
 30
0.0
 11
59.206
 21
46.761
 31
0.0
  0
LINE
  8
0
 62
     0
 10
59.206
 20
46.761
 30
0.0
 11
60.0068
 21
46.761
 31
0.0
  0
LINE
  8
0
 62
     0
 10
60.0068
 20
46.761
 30
0.0
 11
60.0068
 21
45.7606
 31
0.0
  0
LINE
  8
0
 62
     0
 10
60.0068
 20
45.7606
 30
0.0
 11
74.0061
 21
45.7606
 31
0.0
  0
LINE
  8
0
 62
     0
 10
74.0061
 20
45.7606
 30
0.0
 11
74.0061
 21
46.761
 31
0.0
  0
LINE
  8
0
 62
     0
 10
74.0061
 20
46.761
 30
0.0
 11
74.8069
 21
46.761
 31
0.0
  0
LINE
  8
0
 62
     0
 10
74.8069
 20
46.761
 30
0.0
 11
74.8069
 21
49.8616
 31
0.0
  0
LINE
  8
0
 62
     0
 10
74.8069
 20
49.8616
 30
0.0
 11
74.0061
 21
49.8616
 31
0.0
  0
LINE
  8
0
 62
     0
 10
74.0061
 20
49.8616
 30
0.0
 11
74.0061
 21
55.6616
 31
0.0
  0
LINE
  8
0
 62
     0
 10
74.0061
 20
55.6616
 30
0.0
 11
74.8069
 21
55.6616
 31
0.0
  0
LINE
  8
0
 62
     0
 10
74.8069
 20
55.6616
 30
0.0
 11
74.8069
 21
58.7608
 31
0.0
  0
LINE
  8
0
 62
     0
 10
74.8069
 20
58.7608
 30
0.0
 11
74.0061
 21
58.7608
 31
0.0
  0
LINE
  8
0
 62
     0
 10
74.0061
 20
58.7608
 30
0.0
 11
74.0061
 21
59.7613
 31
0.0
  0
LINE
  8
0
 62
     0
 10
74.0061
 20
59.7613
 30
0.0
 11
60.0068
 21
59.7613
 31
0.0
  0
LINE
  8
0
 62
     0
 10
29.0504
 20
59.7613
 30
0.0
 11
29.0504
 21
58.7608
 31
0.0
  0
LINE
  8
0
 62
     0
 10
29.0504
 20
58.7608
 30
0.0
 11
28.2512
 21
58.7608
 31
0.0
  0
LINE
  8
0
 62
     0
 10
28.2512
 20
58.7608
 30
0.0
 11
28.2512
 21
55.6616
 31
0.0
  0
LINE
  8
0
 62
     0
 10
28.2512
 20
55.6616
 30
0.0
 11
29.0504
 21
55.6616
 31
0.0
  0
LINE
  8
0
 62
     0
 10
29.0504
 20
55.6616
 30
0.0
 11
29.0504
 21
49.8616
 31
0.0
  0
LINE
  8
0
 62
     0
 10
29.0504
 20
49.8616
 30
0.0
 11
28.2512
 21
49.8616
 31
0.0
  0
LINE
  8
0
 62
     0
 10
28.2512
 20
49.8616
 30
0.0
 11
28.2512
 21
46.761
 31
0.0
  0
LINE
  8
0
 62
     0
 10
28.2512
 20
46.761
 30
0.0
 11
29.0504
 21
46.761
 31
0.0
  0
LINE
  8
0
 62
     0
 10
29.0504
 20
46.761
 30
0.0
 11
29.0504
 21
45.7606
 31
0.0
  0
LINE
  8
0
 62
     0
 10
29.0504
 20
45.7606
 30
0.0
 11
47.8123
 21
45.7606
 31
0.0
  0
LINE
  8
0
 62
     0
 10
47.8123
 20
45.7606
 30
0.0
 11
47.8123
 21
46.761
 31
0.0
  0
LINE
  8
0
 62
     0
 10
47.8123
 20
46.761
 30
0.0
 11
48.6131
 21
46.761
 31
0.0
  0
LINE
  8
0
 62
     0
 10
48.6131
 20
46.761
 30
0.0
 11
48.6131
 21
49.8616
 31
0.0
  0
LINE
  8
0
 62
     0
 10
48.6131
 20
49.8616
 30
0.0
 11
47.8123
 21
49.8616
 31
0.0
  0
LINE
  8
0
 62
     0
 10
47.8123
 20
49.8616
 30
0.0
 11
47.8123
 21
55.6616
 31
0.0
  0
LINE
  8
0
 62
     0
 10
47.8123
 20
55.6616
 30
0.0
 11
48.6131
 21
55.6616
 31
0.0
  0
LINE
  8
0
 62
     0
 10
48.6131
 20
55.6616
 30
0.0
 11
48.6131
 21
58.7608
 31
0.0
  0
LINE
  8
0
 62
     0
 10
48.6131
 20
58.7608
 30
0.0
 11
47.8123
 21
58.7608
 31
0.0
  0
LINE
  8
0
 62
     0
 10
47.8123
 20
58.7608
 30
0.0
 11
47.8123
 21
59.7613
 31
0.0
  0
LINE
  8
0
 62
     0
 10
47.8123
 20
59.7613
 30
0.0
 11
29.0504
 21
59.7613
 31
0.0
  0
LINE
  8
0
 62
     0
 10
7.61919
 20
59.7613
 30
0.0
 11
7.61919
 21
58.7608
 31
0.0
  0
LINE
  8
0
 62
     0
 10
7.61919
 20
58.7608
 30
0.0
 11
6.81852
 21
58.7608
 31
0.0
  0
LINE
  8
0
 62
     0
 10
6.81852
 20
58.7608
 30
0.0
 11
6.81852
 21
55.6616
 31
0.0
  0
LINE
  8
0
 62
     0
 10
6.81852
 20
55.6616
 30
0.0
 11
7.61919
 21
55.6616
 31
0.0
  0
LINE
  8
0
 62
     0
 10
7.61919
 20
55.6616
 30
0.0
 11
7.61919
 21
49.8616
 31
0.0
  0
LINE
  8
0
 62
     0
 10
7.61919
 20
49.8616
 30
0.0
 11
6.81852
 21
49.8616
 31
0.0
  0
LINE
  8
0
 62
     0
 10
6.81852
 20
49.8616
 30
0.0
 11
6.81852
 21
46.761
 31
0.0
  0
LINE
  8
0
 62
     0
 10
6.81852
 20
46.761
 30
0.0
 11
7.61919
 21
46.761
 31
0.0
  0
LINE
  8
0
 62
     0
 10
7.61919
 20
46.761
 30
0.0
 11
7.61919
 21
45.7606
 31
0.0
  0
LINE
  8
0
 62
     0
 10
7.61919
 20
45.7606
 30
0.0
 11
21.6201
 21
45.7606
 31
0.0
  0
LINE
  8
0
 62
     0
 10
21.6201
 20
45.7606
 30
0.0
 11
21.6201
 21
46.761
 31
0.0
  0
LINE
  8
0
 62
     0
 10
21.6201
 20
46.761
 30
0.0
 11
22.4193
 21
46.761
 31
0.0
  0
LINE
  8
0
 62
     0
 10
22.4193
 20
46.761
 30
0.0
 11
22.4193
 21
49.8616
 31
0.0
  0
LINE
  8
0
 62
     0
 10
22.4193
 20
49.8616
 30
0.0
 11
21.6201
 21
49.8616
 31
0.0
  0
LINE
  8
0
 62
     0
 10
21.6201
 20
49.8616
 30
0.0
 11
21.6201
 21
55.6616
 31
0.0
  0
LINE
  8
0
 62
     0
 10
21.6201
 20
55.6616
 30
0.0
 11
22.4193
 21
55.6616
 31
0.0
  0
LINE
  8
0
 62
     0
 10
22.4193
 20
55.6616
 30
0.0
 11
22.4193
 21
58.7608
 31
0.0
  0
LINE
  8
0
 62
     0
 10
22.4193
 20
58.7608
 30
0.0
 11
21.6201
 21
58.7608
 31
0.0
  0
LINE
  8
0
 62
     0
 10
21.6201
 20
58.7608
 30
0.0
 11
21.6201
 21
59.7613
 31
0.0
  0
LINE
  8
0
 62
     0
 10
21.6201
 20
59.7613
 30
0.0
 11
7.61919
 21
59.7613
 31
0.0
  0
LINE
  8
0
 62
     0
 10
312.419
 20
78.8113
 30
0.0
 11
312.419
 21
77.8108
 31
0.0
  0
LINE
  8
0
 62
     0
 10
312.419
 20
77.8108
 30
0.0
 11
311.62
 21
77.8108
 31
0.0
  0
LINE
  8
0
 62
     0
 10
311.62
 20
77.8108
 30
0.0
 11
311.62
 21
74.7116
 31
0.0
  0
LINE
  8
0
 62
     0
 10
311.62
 20
74.7116
 30
0.0
 11
312.419
 21
74.7116
 31
0.0
  0
LINE
  8
0
 62
     0
 10
312.419
 20
74.7116
 30
0.0
 11
312.419
 21
68.9116
 31
0.0
  0
LINE
  8
0
 62
     0
 10
312.419
 20
68.9116
 30
0.0
 11
311.62
 21
68.9116
 31
0.0
  0
LINE
  8
0
 62
     0
 10
311.62
 20
68.9116
 30
0.0
 11
311.62
 21
65.811
 31
0.0
  0
LINE
  8
0
 62
     0
 10
311.62
 20
65.811
 30
0.0
 11
312.419
 21
65.811
 31
0.0
  0
LINE
  8
0
 62
     0
 10
312.419
 20
65.811
 30
0.0
 11
312.419
 21
64.8106
 31
0.0
  0
LINE
  8
0
 62
     0
 10
312.419
 20
64.8106
 30
0.0
 11
326.42
 21
64.8106
 31
0.0
  0
LINE
  8
0
 62
     0
 10
326.42
 20
64.8106
 30
0.0
 11
326.42
 21
65.811
 31
0.0
  0
LINE
  8
0
 62
     0
 10
326.42
 20
65.811
 30
0.0
 11
327.219
 21
65.811
 31
0.0
  0
LINE
  8
0
 62
     0
 10
327.219
 20
65.811
 30
0.0
 11
327.219
 21
68.9116
 31
0.0
  0
LINE
  8
0
 62
     0
 10
327.219
 20
68.9116
 30
0.0
 11
326.42
 21
68.9116
 31
0.0
  0
LINE
  8
0
 62
     0
 10
326.42
 20
68.9116
 30
0.0
 11
326.42
 21
74.7116
 31
0.0
  0
LINE
  8
0
 62
     0
 10
326.42
 20
74.7116
 30
0.0
 11
327.219
 21
74.7116
 31
0.0
  0
LINE
  8
0
 62
     0
 10
327.219
 20
74.7116
 30
0.0
 11
327.219
 21
77.8108
 31
0.0
  0
LINE
  8
0
 62
     0
 10
327.219
 20
77.8108
 30
0.0
 11
326.42
 21
77.8108
 31
0.0
  0
LINE
  8
0
 62
     0
 10
326.42
 20
77.8108
 30
0.0
 11
326.42
 21
78.8113
 31
0.0
  0
LINE
  8
0
 62
     0
 10
326.42
 20
78.8113
 30
0.0
 11
312.419
 21
78.8113
 31
0.0
  0
LINE
  8
0
 62
     0
 10
288.607
 20
78.8113
 30
0.0
 11
288.607
 21
77.8108
 31
0.0
  0
LINE
  8
0
 62
     0
 10
288.607
 20
77.8108
 30
0.0
 11
287.806
 21
77.8108
 31
0.0
  0
LINE
  8
0
 62
     0
 10
287.806
 20
77.8108
 30
0.0
 11
287.806
 21
74.7116
 31
0.0
  0
LINE
  8
0
 62
     0
 10
287.806
 20
74.7116
 30
0.0
 11
288.607
 21
74.7116
 31
0.0
  0
LINE
  8
0
 62
     0
 10
288.607
 20
74.7116
 30
0.0
 11
288.607
 21
68.9116
 31
0.0
  0
LINE
  8
0
 62
     0
 10
288.607
 20
68.9116
 30
0.0
 11
287.806
 21
68.9116
 31
0.0
  0
LINE
  8
0
 62
     0
 10
287.806
 20
68.9116
 30
0.0
 11
287.806
 21
65.811
 31
0.0
  0
LINE
  8
0
 62
     0
 10
287.806
 20
65.811
 30
0.0
 11
288.607
 21
65.811
 31
0.0
  0
LINE
  8
0
 62
     0
 10
288.607
 20
65.811
 30
0.0
 11
288.607
 21
64.8106
 31
0.0
  0
LINE
  8
0
 62
     0
 10
288.607
 20
64.8106
 30
0.0
 11
302.606
 21
64.8106
 31
0.0
  0
LINE
  8
0
 62
     0
 10
302.606
 20
64.8106
 30
0.0
 11
302.606
 21
65.811
 31
0.0
  0
LINE
  8
0
 62
     0
 10
302.606
 20
65.811
 30
0.0
 11
303.407
 21
65.811
 31
0.0
  0
LINE
  8
0
 62
     0
 10
303.407
 20
65.811
 30
0.0
 11
303.407
 21
68.9116
 31
0.0
  0
LINE
  8
0
 62
     0
 10
303.407
 20
68.9116
 30
0.0
 11
302.606
 21
68.9116
 31
0.0
  0
LINE
  8
0
 62
     0
 10
302.606
 20
68.9116
 30
0.0
 11
302.606
 21
74.7116
 31
0.0
  0
LINE
  8
0
 62
     0
 10
302.606
 20
74.7116
 30
0.0
 11
303.407
 21
74.7116
 31
0.0
  0
LINE
  8
0
 62
     0
 10
303.407
 20
74.7116
 30
0.0
 11
303.407
 21
77.8108
 31
0.0
  0
LINE
  8
0
 62
     0
 10
303.407
 20
77.8108
 30
0.0
 11
302.606
 21
77.8108
 31
0.0
  0
LINE
  8
0
 62
     0
 10
302.606
 20
77.8108
 30
0.0
 11
302.606
 21
78.8113
 31
0.0
  0
LINE
  8
0
 62
     0
 10
302.606
 20
78.8113
 30
0.0
 11
288.607
 21
78.8113
 31
0.0
  0
LINE
  8
0
 62
     0
 10
264.794
 20
78.8113
 30
0.0
 11
264.794
 21
77.8108
 31
0.0
  0
LINE
  8
0
 62
     0
 10
264.794
 20
77.8108
 30
0.0
 11
263.995
 21
77.8108
 31
0.0
  0
LINE
  8
0
 62
     0
 10
263.995
 20
77.8108
 30
0.0
 11
263.995
 21
74.7116
 31
0.0
  0
LINE
  8
0
 62
     0
 10
263.995
 20
74.7116
 30
0.0
 11
264.794
 21
74.7116
 31
0.0
  0
LINE
  8
0
 62
     0
 10
264.794
 20
74.7116
 30
0.0
 11
264.794
 21
68.9116
 31
0.0
  0
LINE
  8
0
 62
     0
 10
264.794
 20
68.9116
 30
0.0
 11
263.995
 21
68.9116
 31
0.0
  0
LINE
  8
0
 62
     0
 10
263.995
 20
68.9116
 30
0.0
 11
263.995
 21
65.811
 31
0.0
  0
LINE
  8
0
 62
     0
 10
263.995
 20
65.811
 30
0.0
 11
264.794
 21
65.811
 31
0.0
  0
LINE
  8
0
 62
     0
 10
264.794
 20
65.811
 30
0.0
 11
264.794
 21
64.8106
 31
0.0
  0
LINE
  8
0
 62
     0
 10
264.794
 20
64.8106
 30
0.0
 11
278.795
 21
64.8106
 31
0.0
  0
LINE
  8
0
 62
     0
 10
278.795
 20
64.8106
 30
0.0
 11
278.795
 21
65.811
 31
0.0
  0
LINE
  8
0
 62
     0
 10
278.795
 20
65.811
 30
0.0
 11
279.594
 21
65.811
 31
0.0
  0
LINE
  8
0
 62
     0
 10
279.594
 20
65.811
 30
0.0
 11
279.594
 21
68.9116
 31
0.0
  0
LINE
  8
0
 62
     0
 10
279.594
 20
68.9116
 30
0.0
 11
278.795
 21
68.9116
 31
0.0
  0
LINE
  8
0
 62
     0
 10
278.795
 20
68.9116
 30
0.0
 11
278.795
 21
74.7116
 31
0.0
  0
LINE
  8
0
 62
     0
 10
278.795
 20
74.7116
 30
0.0
 11
279.594
 21
74.7116
 31
0.0
  0
LINE
  8
0
 62
     0
 10
279.594
 20
74.7116
 30
0.0
 11
279.594
 21
77.8108
 31
0.0
  0
LINE
  8
0
 62
     0
 10
279.594
 20
77.8108
 30
0.0
 11
278.795
 21
77.8108
 31
0.0
  0
LINE
  8
0
 62
     0
 10
278.795
 20
77.8108
 30
0.0
 11
278.795
 21
78.8113
 31
0.0
  0
LINE
  8
0
 62
     0
 10
278.795
 20
78.8113
 30
0.0
 11
264.794
 21
78.8113
 31
0.0
  0
LINE
  8
0
 62
     0
 10
245.744
 20
78.8113
 30
0.0
 11
245.744
 21
77.8108
 31
0.0
  0
LINE
  8
0
 62
     0
 10
245.744
 20
77.8108
 30
0.0
 11
244.945
 21
77.8108
 31
0.0
  0
LINE
  8
0
 62
     0
 10
244.945
 20
77.8108
 30
0.0
 11
244.945
 21
74.7116
 31
0.0
  0
LINE
  8
0
 62
     0
 10
244.945
 20
74.7116
 30
0.0
 11
245.744
 21
74.7116
 31
0.0
  0
LINE
  8
0
 62
     0
 10
245.744
 20
74.7116
 30
0.0
 11
245.744
 21
68.9116
 31
0.0
  0
LINE
  8
0
 62
     0
 10
245.744
 20
68.9116
 30
0.0
 11
244.945
 21
68.9116
 31
0.0
  0
LINE
  8
0
 62
     0
 10
244.945
 20
68.9116
 30
0.0
 11
244.945
 21
65.811
 31
0.0
  0
LINE
  8
0
 62
     0
 10
244.945
 20
65.811
 30
0.0
 11
245.744
 21
65.811
 31
0.0
  0
LINE
  8
0
 62
     0
 10
245.744
 20
65.811
 30
0.0
 11
245.744
 21
64.8106
 31
0.0
  0
LINE
  8
0
 62
     0
 10
245.744
 20
64.8106
 30
0.0
 11
259.745
 21
64.8106
 31
0.0
  0
LINE
  8
0
 62
     0
 10
259.745
 20
64.8106
 30
0.0
 11
259.745
 21
65.811
 31
0.0
  0
LINE
  8
0
 62
     0
 10
259.745
 20
65.811
 30
0.0
 11
260.544
 21
65.811
 31
0.0
  0
LINE
  8
0
 62
     0
 10
260.544
 20
65.811
 30
0.0
 11
260.544
 21
68.9116
 31
0.0
  0
LINE
  8
0
 62
     0
 10
260.544
 20
68.9116
 30
0.0
 11
259.745
 21
68.9116
 31
0.0
  0
LINE
  8
0
 62
     0
 10
259.745
 20
68.9116
 30
0.0
 11
259.745
 21
74.7116
 31
0.0
  0
LINE
  8
0
 62
     0
 10
259.745
 20
74.7116
 30
0.0
 11
260.544
 21
74.7116
 31
0.0
  0
LINE
  8
0
 62
     0
 10
260.544
 20
74.7116
 30
0.0
 11
260.544
 21
77.8108
 31
0.0
  0
LINE
  8
0
 62
     0
 10
260.544
 20
77.8108
 30
0.0
 11
259.745
 21
77.8108
 31
0.0
  0
LINE
  8
0
 62
     0
 10
259.745
 20
77.8108
 30
0.0
 11
259.745
 21
78.8113
 31
0.0
  0
LINE
  8
0
 62
     0
 10
259.745
 20
78.8113
 30
0.0
 11
245.744
 21
78.8113
 31
0.0
  0
LINE
  8
0
 62
     0
 10
226.694
 20
78.8113
 30
0.0
 11
226.694
 21
77.8108
 31
0.0
  0
LINE
  8
0
 62
     0
 10
226.694
 20
77.8108
 30
0.0
 11
225.895
 21
77.8108
 31
0.0
  0
LINE
  8
0
 62
     0
 10
225.895
 20
77.8108
 30
0.0
 11
225.895
 21
74.7116
 31
0.0
  0
LINE
  8
0
 62
     0
 10
225.895
 20
74.7116
 30
0.0
 11
226.694
 21
74.7116
 31
0.0
  0
LINE
  8
0
 62
     0
 10
226.694
 20
74.7116
 30
0.0
 11
226.694
 21
68.9116
 31
0.0
  0
LINE
  8
0
 62
     0
 10
226.694
 20
68.9116
 30
0.0
 11
225.895
 21
68.9116
 31
0.0
  0
LINE
  8
0
 62
     0
 10
225.895
 20
68.9116
 30
0.0
 11
225.895
 21
65.811
 31
0.0
  0
LINE
  8
0
 62
     0
 10
225.895
 20
65.811
 30
0.0
 11
226.694
 21
65.811
 31
0.0
  0
LINE
  8
0
 62
     0
 10
226.694
 20
65.811
 30
0.0
 11
226.694
 21
64.8106
 31
0.0
  0
LINE
  8
0
 62
     0
 10
226.694
 20
64.8106
 30
0.0
 11
240.695
 21
64.8106
 31
0.0
  0
LINE
  8
0
 62
     0
 10
240.695
 20
64.8106
 30
0.0
 11
240.695
 21
65.811
 31
0.0
  0
LINE
  8
0
 62
     0
 10
240.695
 20
65.811
 30
0.0
 11
241.494
 21
65.811
 31
0.0
  0
LINE
  8
0
 62
     0
 10
241.494
 20
65.811
 30
0.0
 11
241.494
 21
68.9116
 31
0.0
  0
LINE
  8
0
 62
     0
 10
241.494
 20
68.9116
 30
0.0
 11
240.695
 21
68.9116
 31
0.0
  0
LINE
  8
0
 62
     0
 10
240.695
 20
68.9116
 30
0.0
 11
240.695
 21
74.7116
 31
0.0
  0
LINE
  8
0
 62
     0
 10
240.695
 20
74.7116
 30
0.0
 11
241.494
 21
74.7116
 31
0.0
  0
LINE
  8
0
 62
     0
 10
241.494
 20
74.7116
 30
0.0
 11
241.494
 21
77.8108
 31
0.0
  0
LINE
  8
0
 62
     0
 10
241.494
 20
77.8108
 30
0.0
 11
240.695
 21
77.8108
 31
0.0
  0
LINE
  8
0
 62
     0
 10
240.695
 20
77.8108
 30
0.0
 11
240.695
 21
78.8113
 31
0.0
  0
LINE
  8
0
 62
     0
 10
240.695
 20
78.8113
 30
0.0
 11
226.694
 21
78.8113
 31
0.0
  0
LINE
  8
0
 62
     0
 10
207.644
 20
78.8113
 30
0.0
 11
207.644
 21
77.8108
 31
0.0
  0
LINE
  8
0
 62
     0
 10
207.644
 20
77.8108
 30
0.0
 11
206.845
 21
77.8108
 31
0.0
  0
LINE
  8
0
 62
     0
 10
206.845
 20
77.8108
 30
0.0
 11
206.845
 21
74.7116
 31
0.0
  0
LINE
  8
0
 62
     0
 10
206.845
 20
74.7116
 30
0.0
 11
207.644
 21
74.7116
 31
0.0
  0
LINE
  8
0
 62
     0
 10
207.644
 20
74.7116
 30
0.0
 11
207.644
 21
68.9116
 31
0.0
  0
LINE
  8
0
 62
     0
 10
207.644
 20
68.9116
 30
0.0
 11
206.845
 21
68.9116
 31
0.0
  0
LINE
  8
0
 62
     0
 10
206.845
 20
68.9116
 30
0.0
 11
206.845
 21
65.811
 31
0.0
  0
LINE
  8
0
 62
     0
 10
206.845
 20
65.811
 30
0.0
 11
207.644
 21
65.811
 31
0.0
  0
LINE
  8
0
 62
     0
 10
207.644
 20
65.811
 30
0.0
 11
207.644
 21
64.8106
 31
0.0
  0
LINE
  8
0
 62
     0
 10
207.644
 20
64.8106
 30
0.0
 11
221.645
 21
64.8106
 31
0.0
  0
LINE
  8
0
 62
     0
 10
221.645
 20
64.8106
 30
0.0
 11
221.645
 21
65.811
 31
0.0
  0
LINE
  8
0
 62
     0
 10
221.645
 20
65.811
 30
0.0
 11
222.444
 21
65.811
 31
0.0
  0
LINE
  8
0
 62
     0
 10
222.444
 20
65.811
 30
0.0
 11
222.444
 21
68.9116
 31
0.0
  0
LINE
  8
0
 62
     0
 10
222.444
 20
68.9116
 30
0.0
 11
221.645
 21
68.9116
 31
0.0
  0
LINE
  8
0
 62
     0
 10
221.645
 20
68.9116
 30
0.0
 11
221.645
 21
74.7116
 31
0.0
  0
LINE
  8
0
 62
     0
 10
221.645
 20
74.7116
 30
0.0
 11
222.444
 21
74.7116
 31
0.0
  0
LINE
  8
0
 62
     0
 10
222.444
 20
74.7116
 30
0.0
 11
222.444
 21
77.8108
 31
0.0
  0
LINE
  8
0
 62
     0
 10
222.444
 20
77.8108
 30
0.0
 11
221.645
 21
77.8108
 31
0.0
  0
LINE
  8
0
 62
     0
 10
221.645
 20
77.8108
 30
0.0
 11
221.645
 21
78.8113
 31
0.0
  0
LINE
  8
0
 62
     0
 10
221.645
 20
78.8113
 30
0.0
 11
207.644
 21
78.8113
 31
0.0
  0
LINE
  8
0
 62
     0
 10
188.594
 20
78.8113
 30
0.0
 11
188.594
 21
77.8108
 31
0.0
  0
LINE
  8
0
 62
     0
 10
188.594
 20
77.8108
 30
0.0
 11
187.795
 21
77.8108
 31
0.0
  0
LINE
  8
0
 62
     0
 10
187.795
 20
77.8108
 30
0.0
 11
187.795
 21
74.7116
 31
0.0
  0
LINE
  8
0
 62
     0
 10
187.795
 20
74.7116
 30
0.0
 11
188.594
 21
74.7116
 31
0.0
  0
LINE
  8
0
 62
     0
 10
188.594
 20
74.7116
 30
0.0
 11
188.594
 21
68.9116
 31
0.0
  0
LINE
  8
0
 62
     0
 10
188.594
 20
68.9116
 30
0.0
 11
187.795
 21
68.9116
 31
0.0
  0
LINE
  8
0
 62
     0
 10
187.795
 20
68.9116
 30
0.0
 11
187.795
 21
65.811
 31
0.0
  0
LINE
  8
0
 62
     0
 10
187.795
 20
65.811
 30
0.0
 11
188.594
 21
65.811
 31
0.0
  0
LINE
  8
0
 62
     0
 10
188.594
 20
65.811
 30
0.0
 11
188.594
 21
64.8106
 31
0.0
  0
LINE
  8
0
 62
     0
 10
188.594
 20
64.8106
 30
0.0
 11
202.595
 21
64.8106
 31
0.0
  0
LINE
  8
0
 62
     0
 10
202.595
 20
64.8106
 30
0.0
 11
202.595
 21
65.811
 31
0.0
  0
LINE
  8
0
 62
     0
 10
202.595
 20
65.811
 30
0.0
 11
203.394
 21
65.811
 31
0.0
  0
LINE
  8
0
 62
     0
 10
203.394
 20
65.811
 30
0.0
 11
203.394
 21
68.9116
 31
0.0
  0
LINE
  8
0
 62
     0
 10
203.394
 20
68.9116
 30
0.0
 11
202.595
 21
68.9116
 31
0.0
  0
LINE
  8
0
 62
     0
 10
202.595
 20
68.9116
 30
0.0
 11
202.595
 21
74.7116
 31
0.0
  0
LINE
  8
0
 62
     0
 10
202.595
 20
74.7116
 30
0.0
 11
203.394
 21
74.7116
 31
0.0
  0
LINE
  8
0
 62
     0
 10
203.394
 20
74.7116
 30
0.0
 11
203.394
 21
77.8108
 31
0.0
  0
LINE
  8
0
 62
     0
 10
203.394
 20
77.8108
 30
0.0
 11
202.595
 21
77.8108
 31
0.0
  0
LINE
  8
0
 62
     0
 10
202.595
 20
77.8108
 30
0.0
 11
202.595
 21
78.8113
 31
0.0
  0
LINE
  8
0
 62
     0
 10
202.595
 20
78.8113
 30
0.0
 11
188.594
 21
78.8113
 31
0.0
  0
LINE
  8
0
 62
     0
 10
169.544
 20
78.8113
 30
0.0
 11
169.544
 21
77.8108
 31
0.0
  0
LINE
  8
0
 62
     0
 10
169.544
 20
77.8108
 30
0.0
 11
168.745
 21
77.8108
 31
0.0
  0
LINE
  8
0
 62
     0
 10
168.745
 20
77.8108
 30
0.0
 11
168.745
 21
74.7116
 31
0.0
  0
LINE
  8
0
 62
     0
 10
168.745
 20
74.7116
 30
0.0
 11
169.544
 21
74.7116
 31
0.0
  0
LINE
  8
0
 62
     0
 10
169.544
 20
74.7116
 30
0.0
 11
169.544
 21
68.9116
 31
0.0
  0
LINE
  8
0
 62
     0
 10
169.544
 20
68.9116
 30
0.0
 11
168.745
 21
68.9116
 31
0.0
  0
LINE
  8
0
 62
     0
 10
168.745
 20
68.9116
 30
0.0
 11
168.745
 21
65.811
 31
0.0
  0
LINE
  8
0
 62
     0
 10
168.745
 20
65.811
 30
0.0
 11
169.544
 21
65.811
 31
0.0
  0
LINE
  8
0
 62
     0
 10
169.544
 20
65.811
 30
0.0
 11
169.544
 21
64.8106
 31
0.0
  0
LINE
  8
0
 62
     0
 10
169.544
 20
64.8106
 30
0.0
 11
183.545
 21
64.8106
 31
0.0
  0
LINE
  8
0
 62
     0
 10
183.545
 20
64.8106
 30
0.0
 11
183.545
 21
65.811
 31
0.0
  0
LINE
  8
0
 62
     0
 10
183.545
 20
65.811
 30
0.0
 11
184.344
 21
65.811
 31
0.0
  0
LINE
  8
0
 62
     0
 10
184.344
 20
65.811
 30
0.0
 11
184.344
 21
68.9116
 31
0.0
  0
LINE
  8
0
 62
     0
 10
184.344
 20
68.9116
 30
0.0
 11
183.545
 21
68.9116
 31
0.0
  0
LINE
  8
0
 62
     0
 10
183.545
 20
68.9116
 30
0.0
 11
183.545
 21
74.7116
 31
0.0
  0
LINE
  8
0
 62
     0
 10
183.545
 20
74.7116
 30
0.0
 11
184.344
 21
74.7116
 31
0.0
  0
LINE
  8
0
 62
     0
 10
184.344
 20
74.7116
 30
0.0
 11
184.344
 21
77.8108
 31
0.0
  0
LINE
  8
0
 62
     0
 10
184.344
 20
77.8108
 30
0.0
 11
183.545
 21
77.8108
 31
0.0
  0
LINE
  8
0
 62
     0
 10
183.545
 20
77.8108
 30
0.0
 11
183.545
 21
78.8113
 31
0.0
  0
LINE
  8
0
 62
     0
 10
183.545
 20
78.8113
 30
0.0
 11
169.544
 21
78.8113
 31
0.0
  0
LINE
  8
0
 62
     0
 10
150.494
 20
78.8113
 30
0.0
 11
150.494
 21
77.8108
 31
0.0
  0
LINE
  8
0
 62
     0
 10
150.494
 20
77.8108
 30
0.0
 11
149.695
 21
77.8108
 31
0.0
  0
LINE
  8
0
 62
     0
 10
149.695
 20
77.8108
 30
0.0
 11
149.695
 21
74.7116
 31
0.0
  0
LINE
  8
0
 62
     0
 10
149.695
 20
74.7116
 30
0.0
 11
150.494
 21
74.7116
 31
0.0
  0
LINE
  8
0
 62
     0
 10
150.494
 20
74.7116
 30
0.0
 11
150.494
 21
68.9116
 31
0.0
  0
LINE
  8
0
 62
     0
 10
150.494
 20
68.9116
 30
0.0
 11
149.695
 21
68.9116
 31
0.0
  0
LINE
  8
0
 62
     0
 10
149.695
 20
68.9116
 30
0.0
 11
149.695
 21
65.811
 31
0.0
  0
LINE
  8
0
 62
     0
 10
149.695
 20
65.811
 30
0.0
 11
150.494
 21
65.811
 31
0.0
  0
LINE
  8
0
 62
     0
 10
150.494
 20
65.811
 30
0.0
 11
150.494
 21
64.8106
 31
0.0
  0
LINE
  8
0
 62
     0
 10
150.494
 20
64.8106
 30
0.0
 11
164.495
 21
64.8106
 31
0.0
  0
LINE
  8
0
 62
     0
 10
164.495
 20
64.8106
 30
0.0
 11
164.495
 21
65.811
 31
0.0
  0
LINE
  8
0
 62
     0
 10
164.495
 20
65.811
 30
0.0
 11
165.294
 21
65.811
 31
0.0
  0
LINE
  8
0
 62
     0
 10
165.294
 20
65.811
 30
0.0
 11
165.294
 21
68.9116
 31
0.0
  0
LINE
  8
0
 62
     0
 10
165.294
 20
68.9116
 30
0.0
 11
164.495
 21
68.9116
 31
0.0
  0
LINE
  8
0
 62
     0
 10
164.495
 20
68.9116
 30
0.0
 11
164.495
 21
74.7116
 31
0.0
  0
LINE
  8
0
 62
     0
 10
164.495
 20
74.7116
 30
0.0
 11
165.294
 21
74.7116
 31
0.0
  0
LINE
  8
0
 62
     0
 10
165.294
 20
74.7116
 30
0.0
 11
165.294
 21
77.8108
 31
0.0
  0
LINE
  8
0
 62
     0
 10
165.294
 20
77.8108
 30
0.0
 11
164.495
 21
77.8108
 31
0.0
  0
LINE
  8
0
 62
     0
 10
164.495
 20
77.8108
 30
0.0
 11
164.495
 21
78.8113
 31
0.0
  0
LINE
  8
0
 62
     0
 10
164.495
 20
78.8113
 30
0.0
 11
150.494
 21
78.8113
 31
0.0
  0
LINE
  8
0
 62
     0
 10
131.444
 20
78.8113
 30
0.0
 11
131.444
 21
77.8108
 31
0.0
  0
LINE
  8
0
 62
     0
 10
131.444
 20
77.8108
 30
0.0
 11
130.643
 21
77.8108
 31
0.0
  0
LINE
  8
0
 62
     0
 10
130.643
 20
77.8108
 30
0.0
 11
130.643
 21
74.7116
 31
0.0
  0
LINE
  8
0
 62
     0
 10
130.643
 20
74.7116
 30
0.0
 11
131.444
 21
74.7116
 31
0.0
  0
LINE
  8
0
 62
     0
 10
131.444
 20
74.7116
 30
0.0
 11
131.444
 21
68.9116
 31
0.0
  0
LINE
  8
0
 62
     0
 10
131.444
 20
68.9116
 30
0.0
 11
130.643
 21
68.9116
 31
0.0
  0
LINE
  8
0
 62
     0
 10
130.643
 20
68.9116
 30
0.0
 11
130.643
 21
65.811
 31
0.0
  0
LINE
  8
0
 62
     0
 10
130.643
 20
65.811
 30
0.0
 11
131.444
 21
65.811
 31
0.0
  0
LINE
  8
0
 62
     0
 10
131.444
 20
65.811
 30
0.0
 11
131.444
 21
64.8106
 31
0.0
  0
LINE
  8
0
 62
     0
 10
131.444
 20
64.8106
 30
0.0
 11
145.445
 21
64.8106
 31
0.0
  0
LINE
  8
0
 62
     0
 10
145.445
 20
64.8106
 30
0.0
 11
145.445
 21
65.811
 31
0.0
  0
LINE
  8
0
 62
     0
 10
145.445
 20
65.811
 30
0.0
 11
146.244
 21
65.811
 31
0.0
  0
LINE
  8
0
 62
     0
 10
146.244
 20
65.811
 30
0.0
 11
146.244
 21
68.9116
 31
0.0
  0
LINE
  8
0
 62
     0
 10
146.244
 20
68.9116
 30
0.0
 11
145.445
 21
68.9116
 31
0.0
  0
LINE
  8
0
 62
     0
 10
145.445
 20
68.9116
 30
0.0
 11
145.445
 21
74.7116
 31
0.0
  0
LINE
  8
0
 62
     0
 10
145.445
 20
74.7116
 30
0.0
 11
146.244
 21
74.7116
 31
0.0
  0
LINE
  8
0
 62
     0
 10
146.244
 20
74.7116
 30
0.0
 11
146.244
 21
77.8108
 31
0.0
  0
LINE
  8
0
 62
     0
 10
146.244
 20
77.8108
 30
0.0
 11
145.445
 21
77.8108
 31
0.0
  0
LINE
  8
0
 62
     0
 10
145.445
 20
77.8108
 30
0.0
 11
145.445
 21
78.8113
 31
0.0
  0
LINE
  8
0
 62
     0
 10
145.445
 20
78.8113
 30
0.0
 11
131.444
 21
78.8113
 31
0.0
  0
LINE
  8
0
 62
     0
 10
112.394
 20
78.8113
 30
0.0
 11
112.394
 21
77.8108
 31
0.0
  0
LINE
  8
0
 62
     0
 10
112.394
 20
77.8108
 30
0.0
 11
111.595
 21
77.8108
 31
0.0
  0
LINE
  8
0
 62
     0
 10
111.595
 20
77.8108
 30
0.0
 11
111.595
 21
74.7116
 31
0.0
  0
LINE
  8
0
 62
     0
 10
111.595
 20
74.7116
 30
0.0
 11
112.394
 21
74.7116
 31
0.0
  0
LINE
  8
0
 62
     0
 10
112.394
 20
74.7116
 30
0.0
 11
112.394
 21
68.9116
 31
0.0
  0
LINE
  8
0
 62
     0
 10
112.394
 20
68.9116
 30
0.0
 11
111.595
 21
68.9116
 31
0.0
  0
LINE
  8
0
 62
     0
 10
111.595
 20
68.9116
 30
0.0
 11
111.595
 21
65.811
 31
0.0
  0
LINE
  8
0
 62
     0
 10
111.595
 20
65.811
 30
0.0
 11
112.394
 21
65.811
 31
0.0
  0
LINE
  8
0
 62
     0
 10
112.394
 20
65.811
 30
0.0
 11
112.394
 21
64.8106
 31
0.0
  0
LINE
  8
0
 62
     0
 10
112.394
 20
64.8106
 30
0.0
 11
126.395
 21
64.8106
 31
0.0
  0
LINE
  8
0
 62
     0
 10
126.395
 20
64.8106
 30
0.0
 11
126.395
 21
65.811
 31
0.0
  0
LINE
  8
0
 62
     0
 10
126.395
 20
65.811
 30
0.0
 11
127.194
 21
65.811
 31
0.0
  0
LINE
  8
0
 62
     0
 10
127.194
 20
65.811
 30
0.0
 11
127.194
 21
68.9116
 31
0.0
  0
LINE
  8
0
 62
     0
 10
127.194
 20
68.9116
 30
0.0
 11
126.395
 21
68.9116
 31
0.0
  0
LINE
  8
0
 62
     0
 10
126.395
 20
68.9116
 30
0.0
 11
126.395
 21
74.7116
 31
0.0
  0
LINE
  8
0
 62
     0
 10
126.395
 20
74.7116
 30
0.0
 11
127.194
 21
74.7116
 31
0.0
  0
LINE
  8
0
 62
     0
 10
127.194
 20
74.7116
 30
0.0
 11
127.194
 21
77.8108
 31
0.0
  0
LINE
  8
0
 62
     0
 10
127.194
 20
77.8108
 30
0.0
 11
126.395
 21
77.8108
 31
0.0
  0
LINE
  8
0
 62
     0
 10
126.395
 20
77.8108
 30
0.0
 11
126.395
 21
78.8113
 31
0.0
  0
LINE
  8
0
 62
     0
 10
126.395
 20
78.8113
 30
0.0
 11
112.394
 21
78.8113
 31
0.0
  0
LINE
  8
0
 62
     0
 10
93.3443
 20
78.8113
 30
0.0
 11
93.3443
 21
77.8108
 31
0.0
  0
LINE
  8
0
 62
     0
 10
93.3443
 20
77.8108
 30
0.0
 11
92.5449
 21
77.8108
 31
0.0
  0
LINE
  8
0
 62
     0
 10
92.5449
 20
77.8108
 30
0.0
 11
92.5449
 21
74.7116
 31
0.0
  0
LINE
  8
0
 62
     0
 10
92.5449
 20
74.7116
 30
0.0
 11
93.3443
 21
74.7116
 31
0.0
  0
LINE
  8
0
 62
     0
 10
93.3443
 20
74.7116
 30
0.0
 11
93.3443
 21
68.9116
 31
0.0
  0
LINE
  8
0
 62
     0
 10
93.3443
 20
68.9116
 30
0.0
 11
92.5449
 21
68.9116
 31
0.0
  0
LINE
  8
0
 62
     0
 10
92.5449
 20
68.9116
 30
0.0
 11
92.5449
 21
65.811
 31
0.0
  0
LINE
  8
0
 62
     0
 10
92.5449
 20
65.811
 30
0.0
 11
93.3443
 21
65.811
 31
0.0
  0
LINE
  8
0
 62
     0
 10
93.3443
 20
65.811
 30
0.0
 11
93.3443
 21
64.8106
 31
0.0
  0
LINE
  8
0
 62
     0
 10
93.3443
 20
64.8106
 30
0.0
 11
107.345
 21
64.8106
 31
0.0
  0
LINE
  8
0
 62
     0
 10
107.345
 20
64.8106
 30
0.0
 11
107.345
 21
65.811
 31
0.0
  0
LINE
  8
0
 62
     0
 10
107.345
 20
65.811
 30
0.0
 11
108.144
 21
65.811
 31
0.0
  0
LINE
  8
0
 62
     0
 10
108.144
 20
65.811
 30
0.0
 11
108.144
 21
68.9116
 31
0.0
  0
LINE
  8
0
 62
     0
 10
108.144
 20
68.9116
 30
0.0
 11
107.345
 21
68.9116
 31
0.0
  0
LINE
  8
0
 62
     0
 10
107.345
 20
68.9116
 30
0.0
 11
107.345
 21
74.7116
 31
0.0
  0
LINE
  8
0
 62
     0
 10
107.345
 20
74.7116
 30
0.0
 11
108.144
 21
74.7116
 31
0.0
  0
LINE
  8
0
 62
     0
 10
108.144
 20
74.7116
 30
0.0
 11
108.144
 21
77.8108
 31
0.0
  0
LINE
  8
0
 62
     0
 10
108.144
 20
77.8108
 30
0.0
 11
107.345
 21
77.8108
 31
0.0
  0
LINE
  8
0
 62
     0
 10
107.345
 20
77.8108
 30
0.0
 11
107.345
 21
78.8113
 31
0.0
  0
LINE
  8
0
 62
     0
 10
107.345
 20
78.8113
 30
0.0
 11
93.3443
 21
78.8113
 31
0.0
  0
LINE
  8
0
 62
     0
 10
74.2943
 20
78.8113
 30
0.0
 11
74.2943
 21
77.8108
 31
0.0
  0
LINE
  8
0
 62
     0
 10
74.2943
 20
77.8108
 30
0.0
 11
73.4949
 21
77.8108
 31
0.0
  0
LINE
  8
0
 62
     0
 10
73.4949
 20
77.8108
 30
0.0
 11
73.4949
 21
74.7116
 31
0.0
  0
LINE
  8
0
 62
     0
 10
73.4949
 20
74.7116
 30
0.0
 11
74.2943
 21
74.7116
 31
0.0
  0
LINE
  8
0
 62
     0
 10
74.2943
 20
74.7116
 30
0.0
 11
74.2943
 21
68.9116
 31
0.0
  0
LINE
  8
0
 62
     0
 10
74.2943
 20
68.9116
 30
0.0
 11
73.4949
 21
68.9116
 31
0.0
  0
LINE
  8
0
 62
     0
 10
73.4949
 20
68.9116
 30
0.0
 11
73.4949
 21
65.811
 31
0.0
  0
LINE
  8
0
 62
     0
 10
73.4949
 20
65.811
 30
0.0
 11
74.2943
 21
65.811
 31
0.0
  0
LINE
  8
0
 62
     0
 10
74.2943
 20
65.811
 30
0.0
 11
74.2943
 21
64.8106
 31
0.0
  0
LINE
  8
0
 62
     0
 10
74.2943
 20
64.8106
 30
0.0
 11
88.295
 21
64.8106
 31
0.0
  0
LINE
  8
0
 62
     0
 10
88.295
 20
64.8106
 30
0.0
 11
88.295
 21
65.811
 31
0.0
  0
LINE
  8
0
 62
     0
 10
88.295
 20
65.811
 30
0.0
 11
89.0944
 21
65.811
 31
0.0
  0
LINE
  8
0
 62
     0
 10
89.0944
 20
65.811
 30
0.0
 11
89.0944
 21
68.9116
 31
0.0
  0
LINE
  8
0
 62
     0
 10
89.0944
 20
68.9116
 30
0.0
 11
88.295
 21
68.9116
 31
0.0
  0
LINE
  8
0
 62
     0
 10
88.295
 20
68.9116
 30
0.0
 11
88.295
 21
74.7116
 31
0.0
  0
LINE
  8
0
 62
     0
 10
88.295
 20
74.7116
 30
0.0
 11
89.0944
 21
74.7116
 31
0.0
  0
LINE
  8
0
 62
     0
 10
89.0944
 20
74.7116
 30
0.0
 11
89.0944
 21
77.8108
 31
0.0
  0
LINE
  8
0
 62
     0
 10
89.0944
 20
77.8108
 30
0.0
 11
88.295
 21
77.8108
 31
0.0
  0
LINE
  8
0
 62
     0
 10
88.295
 20
77.8108
 30
0.0
 11
88.295
 21
78.8113
 31
0.0
  0
LINE
  8
0
 62
     0
 10
88.295
 20
78.8113
 30
0.0
 11
74.2943
 21
78.8113
 31
0.0
  0
LINE
  8
0
 62
     0
 10
55.2443
 20
78.8113
 30
0.0
 11
55.2443
 21
77.8108
 31
0.0
  0
LINE
  8
0
 62
     0
 10
55.2443
 20
77.8108
 30
0.0
 11
54.4449
 21
77.8108
 31
0.0
  0
LINE
  8
0
 62
     0
 10
54.4449
 20
77.8108
 30
0.0
 11
54.4449
 21
74.7116
 31
0.0
  0
LINE
  8
0
 62
     0
 10
54.4449
 20
74.7116
 30
0.0
 11
55.2443
 21
74.7116
 31
0.0
  0
LINE
  8
0
 62
     0
 10
55.2443
 20
74.7116
 30
0.0
 11
55.2443
 21
68.9116
 31
0.0
  0
LINE
  8
0
 62
     0
 10
55.2443
 20
68.9116
 30
0.0
 11
54.4449
 21
68.9116
 31
0.0
  0
LINE
  8
0
 62
     0
 10
54.4449
 20
68.9116
 30
0.0
 11
54.4449
 21
65.811
 31
0.0
  0
LINE
  8
0
 62
     0
 10
54.4449
 20
65.811
 30
0.0
 11
55.2443
 21
65.811
 31
0.0
  0
LINE
  8
0
 62
     0
 10
55.2443
 20
65.811
 30
0.0
 11
55.2443
 21
64.8106
 31
0.0
  0
LINE
  8
0
 62
     0
 10
55.2443
 20
64.8106
 30
0.0
 11
69.245
 21
64.8106
 31
0.0
  0
LINE
  8
0
 62
     0
 10
69.245
 20
64.8106
 30
0.0
 11
69.245
 21
65.811
 31
0.0
  0
LINE
  8
0
 62
     0
 10
69.245
 20
65.811
 30
0.0
 11
70.0444
 21
65.811
 31
0.0
  0
LINE
  8
0
 62
     0
 10
70.0444
 20
65.811
 30
0.0
 11
70.0444
 21
68.9116
 31
0.0
  0
LINE
  8
0
 62
     0
 10
70.0444
 20
68.9116
 30
0.0
 11
69.245
 21
68.9116
 31
0.0
  0
LINE
  8
0
 62
     0
 10
69.245
 20
68.9116
 30
0.0
 11
69.245
 21
74.7116
 31
0.0
  0
LINE
  8
0
 62
     0
 10
69.245
 20
74.7116
 30
0.0
 11
70.0444
 21
74.7116
 31
0.0
  0
LINE
  8
0
 62
     0
 10
70.0444
 20
74.7116
 30
0.0
 11
70.0444
 21
77.8108
 31
0.0
  0
LINE
  8
0
 62
     0
 10
70.0444
 20
77.8108
 30
0.0
 11
69.245
 21
77.8108
 31
0.0
  0
LINE
  8
0
 62
     0
 10
69.245
 20
77.8108
 30
0.0
 11
69.245
 21
78.8113
 31
0.0
  0
LINE
  8
0
 62
     0
 10
69.245
 20
78.8113
 30
0.0
 11
55.2443
 21
78.8113
 31
0.0
  0
LINE
  8
0
 62
     0
 10
31.4317
 20
78.8113
 30
0.0
 11
31.4317
 21
77.8108
 31
0.0
  0
LINE
  8
0
 62
     0
 10
31.4317
 20
77.8108
 30
0.0
 11
30.631
 21
77.8108
 31
0.0
  0
LINE
  8
0
 62
     0
 10
30.631
 20
77.8108
 30
0.0
 11
30.631
 21
74.7116
 31
0.0
  0
LINE
  8
0
 62
     0
 10
30.631
 20
74.7116
 30
0.0
 11
31.4317
 21
74.7116
 31
0.0
  0
LINE
  8
0
 62
     0
 10
31.4317
 20
74.7116
 30
0.0
 11
31.4317
 21
68.9116
 31
0.0
  0
LINE
  8
0
 62
     0
 10
31.4317
 20
68.9116
 30
0.0
 11
30.631
 21
68.9116
 31
0.0
  0
LINE
  8
0
 62
     0
 10
30.631
 20
68.9116
 30
0.0
 11
30.631
 21
65.811
 31
0.0
  0
LINE
  8
0
 62
     0
 10
30.631
 20
65.811
 30
0.0
 11
31.4317
 21
65.811
 31
0.0
  0
LINE
  8
0
 62
     0
 10
31.4317
 20
65.811
 30
0.0
 11
31.4317
 21
64.8106
 31
0.0
  0
LINE
  8
0
 62
     0
 10
31.4317
 20
64.8106
 30
0.0
 11
45.4311
 21
64.8106
 31
0.0
  0
LINE
  8
0
 62
     0
 10
45.4311
 20
64.8106
 30
0.0
 11
45.4311
 21
65.811
 31
0.0
  0
LINE
  8
0
 62
     0
 10
45.4311
 20
65.811
 30
0.0
 11
46.2319
 21
65.811
 31
0.0
  0
LINE
  8
0
 62
     0
 10
46.2319
 20
65.811
 30
0.0
 11
46.2319
 21
68.9116
 31
0.0
  0
LINE
  8
0
 62
     0
 10
46.2319
 20
68.9116
 30
0.0
 11
45.4311
 21
68.9116
 31
0.0
  0
LINE
  8
0
 62
     0
 10
45.4311
 20
68.9116
 30
0.0
 11
45.4311
 21
74.7116
 31
0.0
  0
LINE
  8
0
 62
     0
 10
45.4311
 20
74.7116
 30
0.0
 11
46.2319
 21
74.7116
 31
0.0
  0
LINE
  8
0
 62
     0
 10
46.2319
 20
74.7116
 30
0.0
 11
46.2319
 21
77.8108
 31
0.0
  0
LINE
  8
0
 62
     0
 10
46.2319
 20
77.8108
 30
0.0
 11
45.4311
 21
77.8108
 31
0.0
  0
LINE
  8
0
 62
     0
 10
45.4311
 20
77.8108
 30
0.0
 11
45.4311
 21
78.8113
 31
0.0
  0
LINE
  8
0
 62
     0
 10
45.4311
 20
78.8113
 30
0.0
 11
31.4317
 21
78.8113
 31
0.0
  0
LINE
  8
0
 62
     0
 10
7.61919
 20
78.8113
 30
0.0
 11
7.61919
 21
77.8108
 31
0.0
  0
LINE
  8
0
 62
     0
 10
7.61919
 20
77.8108
 30
0.0
 11
6.81852
 21
77.8108
 31
0.0
  0
LINE
  8
0
 62
     0
 10
6.81852
 20
77.8108
 30
0.0
 11
6.81852
 21
74.7116
 31
0.0
  0
LINE
  8
0
 62
     0
 10
6.81852
 20
74.7116
 30
0.0
 11
7.61919
 21
74.7116
 31
0.0
  0
LINE
  8
0
 62
     0
 10
7.61919
 20
74.7116
 30
0.0
 11
7.61919
 21
68.9116
 31
0.0
  0
LINE
  8
0
 62
     0
 10
7.61919
 20
68.9116
 30
0.0
 11
6.81852
 21
68.9116
 31
0.0
  0
LINE
  8
0
 62
     0
 10
6.81852
 20
68.9116
 30
0.0
 11
6.81852
 21
65.811
 31
0.0
  0
LINE
  8
0
 62
     0
 10
6.81852
 20
65.811
 30
0.0
 11
7.61919
 21
65.811
 31
0.0
  0
LINE
  8
0
 62
     0
 10
7.61919
 20
65.811
 30
0.0
 11
7.61919
 21
64.8106
 31
0.0
  0
LINE
  8
0
 62
     0
 10
7.61919
 20
64.8106
 30
0.0
 11
21.6201
 21
64.8106
 31
0.0
  0
LINE
  8
0
 62
     0
 10
21.6201
 20
64.8106
 30
0.0
 11
21.6201
 21
65.811
 31
0.0
  0
LINE
  8
0
 62
     0
 10
21.6201
 20
65.811
 30
0.0
 11
22.4193
 21
65.811
 31
0.0
  0
LINE
  8
0
 62
     0
 10
22.4193
 20
65.811
 30
0.0
 11
22.4193
 21
68.9116
 31
0.0
  0
LINE
  8
0
 62
     0
 10
22.4193
 20
68.9116
 30
0.0
 11
21.6201
 21
68.9116
 31
0.0
  0
LINE
  8
0
 62
     0
 10
21.6201
 20
68.9116
 30
0.0
 11
21.6201
 21
74.7116
 31
0.0
  0
LINE
  8
0
 62
     0
 10
21.6201
 20
74.7116
 30
0.0
 11
22.4193
 21
74.7116
 31
0.0
  0
LINE
  8
0
 62
     0
 10
22.4193
 20
74.7116
 30
0.0
 11
22.4193
 21
77.8108
 31
0.0
  0
LINE
  8
0
 62
     0
 10
22.4193
 20
77.8108
 30
0.0
 11
21.6201
 21
77.8108
 31
0.0
  0
LINE
  8
0
 62
     0
 10
21.6201
 20
77.8108
 30
0.0
 11
21.6201
 21
78.8113
 31
0.0
  0
LINE
  8
0
 62
     0
 10
21.6201
 20
78.8113
 30
0.0
 11
7.61919
 21
78.8113
 31
0.0
  0
LINE
  8
0
 62
     0
 10
283.844
 20
97.8613
 30
0.0
 11
283.844
 21
96.8608
 31
0.0
  0
LINE
  8
0
 62
     0
 10
283.844
 20
96.8608
 30
0.0
 11
283.045
 21
96.8608
 31
0.0
  0
LINE
  8
0
 62
     0
 10
283.045
 20
96.8608
 30
0.0
 11
283.045
 21
93.7616
 31
0.0
  0
LINE
  8
0
 62
     0
 10
283.045
 20
93.7616
 30
0.0
 11
283.844
 21
93.7616
 31
0.0
  0
LINE
  8
0
 62
     0
 10
283.844
 20
93.7616
 30
0.0
 11
283.844
 21
93.1609
 31
0.0
  0
LINE
  8
0
 62
     0
 10
283.844
 20
93.1609
 30
0.0
 11
282.32
 21
93.1609
 31
0.0
  0
LINE
  8
0
 62
     0
 10
282.32
 20
93.1609
 30
0.0
 11
282.32
 21
96.3909
 31
0.0
  0
LINE
  8
0
 62
     0
 10
282.32
 20
96.3909
 30
0.0
 11
275.569
 21
96.3909
 31
0.0
  0
LINE
  8
0
 62
     0
 10
275.569
 20
96.3909
 30
0.0
 11
275.569
 21
93.1609
 31
0.0
  0
LINE
  8
0
 62
     0
 10
275.569
 20
93.1609
 30
0.0
 11
274.745
 21
93.1609
 31
0.0
  0
LINE
  8
0
 62
     0
 10
274.745
 20
93.1609
 30
0.0
 11
274.745
 21
90.3609
 31
0.0
  0
LINE
  8
0
 62
     0
 10
274.745
 20
90.3609
 30
0.0
 11
275.569
 21
90.3609
 31
0.0
  0
LINE
  8
0
 62
     0
 10
275.569
 20
90.3609
 30
0.0
 11
275.569
 21
84.0906
 31
0.0
  0
LINE
  8
0
 62
     0
 10
275.569
 20
84.0906
 30
0.0
 11
277.294
 21
84.0906
 31
0.0
  0
LINE
  8
0
 62
     0
 10
277.294
 20
84.0906
 30
0.0
 11
277.294
 21
82.8918
 31
0.0
  0
LINE
  8
0
 62
     0
 10
277.294
 20
82.8918
 30
0.0
 11
280.595
 21
82.8918
 31
0.0
  0
LINE
  8
0
 62
     0
 10
280.595
 20
82.8918
 30
0.0
 11
280.595
 21
84.0906
 31
0.0
  0
LINE
  8
0
 62
     0
 10
280.595
 20
84.0906
 30
0.0
 11
282.32
 21
84.0906
 31
0.0
  0
LINE
  8
0
 62
     0
 10
282.32
 20
84.0906
 30
0.0
 11
282.32
 21
88.561
 31
0.0
  0
LINE
  8
0
 62
     0
 10
282.32
 20
88.561
 30
0.0
 11
283.844
 21
88.561
 31
0.0
  0
LINE
  8
0
 62
     0
 10
283.844
 20
88.561
 30
0.0
 11
283.844
 21
87.9616
 31
0.0
  0
LINE
  8
0
 62
     0
 10
283.844
 20
87.9616
 30
0.0
 11
283.045
 21
87.9616
 31
0.0
  0
LINE
  8
0
 62
     0
 10
283.045
 20
87.9616
 30
0.0
 11
283.045
 21
84.861
 31
0.0
  0
LINE
  8
0
 62
     0
 10
283.045
 20
84.861
 30
0.0
 11
283.844
 21
84.861
 31
0.0
  0
LINE
  8
0
 62
     0
 10
283.844
 20
84.861
 30
0.0
 11
283.844
 21
83.8606
 31
0.0
  0
LINE
  8
0
 62
     0
 10
283.844
 20
83.8606
 30
0.0
 11
297.845
 21
83.8606
 31
0.0
  0
LINE
  8
0
 62
     0
 10
297.845
 20
83.8606
 30
0.0
 11
297.845
 21
84.861
 31
0.0
  0
LINE
  8
0
 62
     0
 10
297.845
 20
84.861
 30
0.0
 11
298.644
 21
84.861
 31
0.0
  0
LINE
  8
0
 62
     0
 10
298.644
 20
84.861
 30
0.0
 11
298.644
 21
87.9616
 31
0.0
  0
LINE
  8
0
 62
     0
 10
298.644
 20
87.9616
 30
0.0
 11
297.845
 21
87.9616
 31
0.0
  0
LINE
  8
0
 62
     0
 10
297.845
 20
87.9616
 30
0.0
 11
297.845
 21
88.561
 31
0.0
  0
LINE
  8
0
 62
     0
 10
297.845
 20
88.561
 30
0.0
 11
299.369
 21
88.561
 31
0.0
  0
LINE
  8
0
 62
     0
 10
299.369
 20
88.561
 30
0.0
 11
299.369
 21
84.0906
 31
0.0
  0
LINE
  8
0
 62
     0
 10
299.369
 20
84.0906
 30
0.0
 11
301.094
 21
84.0906
 31
0.0
  0
LINE
  8
0
 62
     0
 10
301.094
 20
84.0906
 30
0.0
 11
301.094
 21
82.8918
 31
0.0
  0
LINE
  8
0
 62
     0
 10
301.094
 20
82.8918
 30
0.0
 11
304.395
 21
82.8918
 31
0.0
  0
LINE
  8
0
 62
     0
 10
304.395
 20
82.8918
 30
0.0
 11
304.395
 21
84.0906
 31
0.0
  0
LINE
  8
0
 62
     0
 10
304.395
 20
84.0906
 30
0.0
 11
306.12
 21
84.0906
 31
0.0
  0
LINE
  8
0
 62
     0
 10
306.12
 20
84.0906
 30
0.0
 11
306.12
 21
90.3609
 31
0.0
  0
LINE
  8
0
 62
     0
 10
306.12
 20
90.3609
 30
0.0
 11
306.944
 21
90.3609
 31
0.0
  0
LINE
  8
0
 62
     0
 10
306.944
 20
90.3609
 30
0.0
 11
306.944
 21
93.1609
 31
0.0
  0
LINE
  8
0
 62
     0
 10
306.944
 20
93.1609
 30
0.0
 11
306.12
 21
93.1609
 31
0.0
  0
LINE
  8
0
 62
     0
 10
306.12
 20
93.1609
 30
0.0
 11
306.12
 21
96.3909
 31
0.0
  0
LINE
  8
0
 62
     0
 10
306.12
 20
96.3909
 30
0.0
 11
299.369
 21
96.3909
 31
0.0
  0
LINE
  8
0
 62
     0
 10
299.369
 20
96.3909
 30
0.0
 11
299.369
 21
93.1609
 31
0.0
  0
LINE
  8
0
 62
     0
 10
299.369
 20
93.1609
 30
0.0
 11
297.845
 21
93.1609
 31
0.0
  0
LINE
  8
0
 62
     0
 10
297.845
 20
93.1609
 30
0.0
 11
297.845
 21
93.7616
 31
0.0
  0
LINE
  8
0
 62
     0
 10
297.845
 20
93.7616
 30
0.0
 11
298.644
 21
93.7616
 31
0.0
  0
LINE
  8
0
 62
     0
 10
298.644
 20
93.7616
 30
0.0
 11
298.644
 21
96.8608
 31
0.0
  0
LINE
  8
0
 62
     0
 10
298.644
 20
96.8608
 30
0.0
 11
297.845
 21
96.8608
 31
0.0
  0
LINE
  8
0
 62
     0
 10
297.845
 20
96.8608
 30
0.0
 11
297.845
 21
97.8613
 31
0.0
  0
LINE
  8
0
 62
     0
 10
297.845
 20
97.8613
 30
0.0
 11
283.844
 21
97.8613
 31
0.0
  0
LINE
  8
0
 62
     0
 10
312.419
 20
97.8613
 30
0.0
 11
312.419
 21
96.8608
 31
0.0
  0
LINE
  8
0
 62
     0
 10
312.419
 20
96.8608
 30
0.0
 11
311.62
 21
96.8608
 31
0.0
  0
LINE
  8
0
 62
     0
 10
311.62
 20
96.8608
 30
0.0
 11
311.62
 21
93.7616
 31
0.0
  0
LINE
  8
0
 62
     0
 10
311.62
 20
93.7616
 30
0.0
 11
312.419
 21
93.7616
 31
0.0
  0
LINE
  8
0
 62
     0
 10
312.419
 20
93.7616
 30
0.0
 11
312.419
 21
87.9616
 31
0.0
  0
LINE
  8
0
 62
     0
 10
312.419
 20
87.9616
 30
0.0
 11
311.62
 21
87.9616
 31
0.0
  0
LINE
  8
0
 62
     0
 10
311.62
 20
87.9616
 30
0.0
 11
311.62
 21
84.861
 31
0.0
  0
LINE
  8
0
 62
     0
 10
311.62
 20
84.861
 30
0.0
 11
312.419
 21
84.861
 31
0.0
  0
LINE
  8
0
 62
     0
 10
312.419
 20
84.861
 30
0.0
 11
312.419
 21
83.8606
 31
0.0
  0
LINE
  8
0
 62
     0
 10
312.419
 20
83.8606
 30
0.0
 11
326.42
 21
83.8606
 31
0.0
  0
LINE
  8
0
 62
     0
 10
326.42
 20
83.8606
 30
0.0
 11
326.42
 21
84.861
 31
0.0
  0
LINE
  8
0
 62
     0
 10
326.42
 20
84.861
 30
0.0
 11
327.219
 21
84.861
 31
0.0
  0
LINE
  8
0
 62
     0
 10
327.219
 20
84.861
 30
0.0
 11
327.219
 21
87.9616
 31
0.0
  0
LINE
  8
0
 62
     0
 10
327.219
 20
87.9616
 30
0.0
 11
326.42
 21
87.9616
 31
0.0
  0
LINE
  8
0
 62
     0
 10
326.42
 20
87.9616
 30
0.0
 11
326.42
 21
93.7616
 31
0.0
  0
LINE
  8
0
 62
     0
 10
326.42
 20
93.7616
 30
0.0
 11
327.219
 21
93.7616
 31
0.0
  0
LINE
  8
0
 62
     0
 10
327.219
 20
93.7616
 30
0.0
 11
327.219
 21
96.8608
 31
0.0
  0
LINE
  8
0
 62
     0
 10
327.219
 20
96.8608
 30
0.0
 11
326.42
 21
96.8608
 31
0.0
  0
LINE
  8
0
 62
     0
 10
326.42
 20
96.8608
 30
0.0
 11
326.42
 21
97.8613
 31
0.0
  0
LINE
  8
0
 62
     0
 10
326.42
 20
97.8613
 30
0.0
 11
312.419
 21
97.8613
 31
0.0
  0
LINE
  8
0
 62
     0
 10
255.269
 20
97.8613
 30
0.0
 11
255.269
 21
96.8608
 31
0.0
  0
LINE
  8
0
 62
     0
 10
255.269
 20
96.8608
 30
0.0
 11
254.47
 21
96.8608
 31
0.0
  0
LINE
  8
0
 62
     0
 10
254.47
 20
96.8608
 30
0.0
 11
254.47
 21
93.7616
 31
0.0
  0
LINE
  8
0
 62
     0
 10
254.47
 20
93.7616
 30
0.0
 11
255.269
 21
93.7616
 31
0.0
  0
LINE
  8
0
 62
     0
 10
255.269
 20
93.7616
 30
0.0
 11
255.269
 21
87.9616
 31
0.0
  0
LINE
  8
0
 62
     0
 10
255.269
 20
87.9616
 30
0.0
 11
254.47
 21
87.9616
 31
0.0
  0
LINE
  8
0
 62
     0
 10
254.47
 20
87.9616
 30
0.0
 11
254.47
 21
84.861
 31
0.0
  0
LINE
  8
0
 62
     0
 10
254.47
 20
84.861
 30
0.0
 11
255.269
 21
84.861
 31
0.0
  0
LINE
  8
0
 62
     0
 10
255.269
 20
84.861
 30
0.0
 11
255.269
 21
83.8606
 31
0.0
  0
LINE
  8
0
 62
     0
 10
255.269
 20
83.8606
 30
0.0
 11
269.27
 21
83.8606
 31
0.0
  0
LINE
  8
0
 62
     0
 10
269.27
 20
83.8606
 30
0.0
 11
269.27
 21
84.861
 31
0.0
  0
LINE
  8
0
 62
     0
 10
269.27
 20
84.861
 30
0.0
 11
270.069
 21
84.861
 31
0.0
  0
LINE
  8
0
 62
     0
 10
270.069
 20
84.861
 30
0.0
 11
270.069
 21
87.9616
 31
0.0
  0
LINE
  8
0
 62
     0
 10
270.069
 20
87.9616
 30
0.0
 11
269.27
 21
87.9616
 31
0.0
  0
LINE
  8
0
 62
     0
 10
269.27
 20
87.9616
 30
0.0
 11
269.27
 21
93.7616
 31
0.0
  0
LINE
  8
0
 62
     0
 10
269.27
 20
93.7616
 30
0.0
 11
270.069
 21
93.7616
 31
0.0
  0
LINE
  8
0
 62
     0
 10
270.069
 20
93.7616
 30
0.0
 11
270.069
 21
96.8608
 31
0.0
  0
LINE
  8
0
 62
     0
 10
270.069
 20
96.8608
 30
0.0
 11
269.27
 21
96.8608
 31
0.0
  0
LINE
  8
0
 62
     0
 10
269.27
 20
96.8608
 30
0.0
 11
269.27
 21
97.8613
 31
0.0
  0
LINE
  8
0
 62
     0
 10
269.27
 20
97.8613
 30
0.0
 11
255.269
 21
97.8613
 31
0.0
  0
LINE
  8
0
 62
     0
 10
236.219
 20
97.8613
 30
0.0
 11
236.219
 21
96.8608
 31
0.0
  0
LINE
  8
0
 62
     0
 10
236.219
 20
96.8608
 30
0.0
 11
235.42
 21
96.8608
 31
0.0
  0
LINE
  8
0
 62
     0
 10
235.42
 20
96.8608
 30
0.0
 11
235.42
 21
93.7616
 31
0.0
  0
LINE
  8
0
 62
     0
 10
235.42
 20
93.7616
 30
0.0
 11
236.219
 21
93.7616
 31
0.0
  0
LINE
  8
0
 62
     0
 10
236.219
 20
93.7616
 30
0.0
 11
236.219
 21
87.9616
 31
0.0
  0
LINE
  8
0
 62
     0
 10
236.219
 20
87.9616
 30
0.0
 11
235.42
 21
87.9616
 31
0.0
  0
LINE
  8
0
 62
     0
 10
235.42
 20
87.9616
 30
0.0
 11
235.42
 21
84.861
 31
0.0
  0
LINE
  8
0
 62
     0
 10
235.42
 20
84.861
 30
0.0
 11
236.219
 21
84.861
 31
0.0
  0
LINE
  8
0
 62
     0
 10
236.219
 20
84.861
 30
0.0
 11
236.219
 21
83.8606
 31
0.0
  0
LINE
  8
0
 62
     0
 10
236.219
 20
83.8606
 30
0.0
 11
250.22
 21
83.8606
 31
0.0
  0
LINE
  8
0
 62
     0
 10
250.22
 20
83.8606
 30
0.0
 11
250.22
 21
84.861
 31
0.0
  0
LINE
  8
0
 62
     0
 10
250.22
 20
84.861
 30
0.0
 11
251.019
 21
84.861
 31
0.0
  0
LINE
  8
0
 62
     0
 10
251.019
 20
84.861
 30
0.0
 11
251.019
 21
87.9616
 31
0.0
  0
LINE
  8
0
 62
     0
 10
251.019
 20
87.9616
 30
0.0
 11
250.22
 21
87.9616
 31
0.0
  0
LINE
  8
0
 62
     0
 10
250.22
 20
87.9616
 30
0.0
 11
250.22
 21
93.7616
 31
0.0
  0
LINE
  8
0
 62
     0
 10
250.22
 20
93.7616
 30
0.0
 11
251.019
 21
93.7616
 31
0.0
  0
LINE
  8
0
 62
     0
 10
251.019
 20
93.7616
 30
0.0
 11
251.019
 21
96.8608
 31
0.0
  0
LINE
  8
0
 62
     0
 10
251.019
 20
96.8608
 30
0.0
 11
250.22
 21
96.8608
 31
0.0
  0
LINE
  8
0
 62
     0
 10
250.22
 20
96.8608
 30
0.0
 11
250.22
 21
97.8613
 31
0.0
  0
LINE
  8
0
 62
     0
 10
250.22
 20
97.8613
 30
0.0
 11
236.219
 21
97.8613
 31
0.0
  0
LINE
  8
0
 62
     0
 10
217.169
 20
97.8613
 30
0.0
 11
217.169
 21
96.8608
 31
0.0
  0
LINE
  8
0
 62
     0
 10
217.169
 20
96.8608
 30
0.0
 11
216.37
 21
96.8608
 31
0.0
  0
LINE
  8
0
 62
     0
 10
216.37
 20
96.8608
 30
0.0
 11
216.37
 21
93.7616
 31
0.0
  0
LINE
  8
0
 62
     0
 10
216.37
 20
93.7616
 30
0.0
 11
217.169
 21
93.7616
 31
0.0
  0
LINE
  8
0
 62
     0
 10
217.169
 20
93.7616
 30
0.0
 11
217.169
 21
87.9616
 31
0.0
  0
LINE
  8
0
 62
     0
 10
217.169
 20
87.9616
 30
0.0
 11
216.37
 21
87.9616
 31
0.0
  0
LINE
  8
0
 62
     0
 10
216.37
 20
87.9616
 30
0.0
 11
216.37
 21
84.861
 31
0.0
  0
LINE
  8
0
 62
     0
 10
216.37
 20
84.861
 30
0.0
 11
217.169
 21
84.861
 31
0.0
  0
LINE
  8
0
 62
     0
 10
217.169
 20
84.861
 30
0.0
 11
217.169
 21
83.8606
 31
0.0
  0
LINE
  8
0
 62
     0
 10
217.169
 20
83.8606
 30
0.0
 11
231.17
 21
83.8606
 31
0.0
  0
LINE
  8
0
 62
     0
 10
231.17
 20
83.8606
 30
0.0
 11
231.17
 21
84.861
 31
0.0
  0
LINE
  8
0
 62
     0
 10
231.17
 20
84.861
 30
0.0
 11
231.969
 21
84.861
 31
0.0
  0
LINE
  8
0
 62
     0
 10
231.969
 20
84.861
 30
0.0
 11
231.969
 21
87.9616
 31
0.0
  0
LINE
  8
0
 62
     0
 10
231.969
 20
87.9616
 30
0.0
 11
231.17
 21
87.9616
 31
0.0
  0
LINE
  8
0
 62
     0
 10
231.17
 20
87.9616
 30
0.0
 11
231.17
 21
93.7616
 31
0.0
  0
LINE
  8
0
 62
     0
 10
231.17
 20
93.7616
 30
0.0
 11
231.969
 21
93.7616
 31
0.0
  0
LINE
  8
0
 62
     0
 10
231.969
 20
93.7616
 30
0.0
 11
231.969
 21
96.8608
 31
0.0
  0
LINE
  8
0
 62
     0
 10
231.969
 20
96.8608
 30
0.0
 11
231.17
 21
96.8608
 31
0.0
  0
LINE
  8
0
 62
     0
 10
231.17
 20
96.8608
 30
0.0
 11
231.17
 21
97.8613
 31
0.0
  0
LINE
  8
0
 62
     0
 10
231.17
 20
97.8613
 30
0.0
 11
217.169
 21
97.8613
 31
0.0
  0
LINE
  8
0
 62
     0
 10
198.119
 20
97.8613
 30
0.0
 11
198.119
 21
96.8608
 31
0.0
  0
LINE
  8
0
 62
     0
 10
198.119
 20
96.8608
 30
0.0
 11
197.32
 21
96.8608
 31
0.0
  0
LINE
  8
0
 62
     0
 10
197.32
 20
96.8608
 30
0.0
 11
197.32
 21
93.7616
 31
0.0
  0
LINE
  8
0
 62
     0
 10
197.32
 20
93.7616
 30
0.0
 11
198.119
 21
93.7616
 31
0.0
  0
LINE
  8
0
 62
     0
 10
198.119
 20
93.7616
 30
0.0
 11
198.119
 21
87.9616
 31
0.0
  0
LINE
  8
0
 62
     0
 10
198.119
 20
87.9616
 30
0.0
 11
197.32
 21
87.9616
 31
0.0
  0
LINE
  8
0
 62
     0
 10
197.32
 20
87.9616
 30
0.0
 11
197.32
 21
84.861
 31
0.0
  0
LINE
  8
0
 62
     0
 10
197.32
 20
84.861
 30
0.0
 11
198.119
 21
84.861
 31
0.0
  0
LINE
  8
0
 62
     0
 10
198.119
 20
84.861
 30
0.0
 11
198.119
 21
83.8606
 31
0.0
  0
LINE
  8
0
 62
     0
 10
198.119
 20
83.8606
 30
0.0
 11
212.12
 21
83.8606
 31
0.0
  0
LINE
  8
0
 62
     0
 10
212.12
 20
83.8606
 30
0.0
 11
212.12
 21
84.861
 31
0.0
  0
LINE
  8
0
 62
     0
 10
212.12
 20
84.861
 30
0.0
 11
212.919
 21
84.861
 31
0.0
  0
LINE
  8
0
 62
     0
 10
212.919
 20
84.861
 30
0.0
 11
212.919
 21
87.9616
 31
0.0
  0
LINE
  8
0
 62
     0
 10
212.919
 20
87.9616
 30
0.0
 11
212.12
 21
87.9616
 31
0.0
  0
LINE
  8
0
 62
     0
 10
212.12
 20
87.9616
 30
0.0
 11
212.12
 21
93.7616
 31
0.0
  0
LINE
  8
0
 62
     0
 10
212.12
 20
93.7616
 30
0.0
 11
212.919
 21
93.7616
 31
0.0
  0
LINE
  8
0
 62
     0
 10
212.919
 20
93.7616
 30
0.0
 11
212.919
 21
96.8608
 31
0.0
  0
LINE
  8
0
 62
     0
 10
212.919
 20
96.8608
 30
0.0
 11
212.12
 21
96.8608
 31
0.0
  0
LINE
  8
0
 62
     0
 10
212.12
 20
96.8608
 30
0.0
 11
212.12
 21
97.8613
 31
0.0
  0
LINE
  8
0
 62
     0
 10
212.12
 20
97.8613
 30
0.0
 11
198.119
 21
97.8613
 31
0.0
  0
LINE
  8
0
 62
     0
 10
179.069
 20
97.8613
 30
0.0
 11
179.069
 21
96.8608
 31
0.0
  0
LINE
  8
0
 62
     0
 10
179.069
 20
96.8608
 30
0.0
 11
178.27
 21
96.8608
 31
0.0
  0
LINE
  8
0
 62
     0
 10
178.27
 20
96.8608
 30
0.0
 11
178.27
 21
93.7616
 31
0.0
  0
LINE
  8
0
 62
     0
 10
178.27
 20
93.7616
 30
0.0
 11
179.069
 21
93.7616
 31
0.0
  0
LINE
  8
0
 62
     0
 10
179.069
 20
93.7616
 30
0.0
 11
179.069
 21
87.9616
 31
0.0
  0
LINE
  8
0
 62
     0
 10
179.069
 20
87.9616
 30
0.0
 11
178.27
 21
87.9616
 31
0.0
  0
LINE
  8
0
 62
     0
 10
178.27
 20
87.9616
 30
0.0
 11
178.27
 21
84.861
 31
0.0
  0
LINE
  8
0
 62
     0
 10
178.27
 20
84.861
 30
0.0
 11
179.069
 21
84.861
 31
0.0
  0
LINE
  8
0
 62
     0
 10
179.069
 20
84.861
 30
0.0
 11
179.069
 21
83.8606
 31
0.0
  0
LINE
  8
0
 62
     0
 10
179.069
 20
83.8606
 30
0.0
 11
193.07
 21
83.8606
 31
0.0
  0
LINE
  8
0
 62
     0
 10
193.07
 20
83.8606
 30
0.0
 11
193.07
 21
84.861
 31
0.0
  0
LINE
  8
0
 62
     0
 10
193.07
 20
84.861
 30
0.0
 11
193.869
 21
84.861
 31
0.0
  0
LINE
  8
0
 62
     0
 10
193.869
 20
84.861
 30
0.0
 11
193.869
 21
87.9616
 31
0.0
  0
LINE
  8
0
 62
     0
 10
193.869
 20
87.9616
 30
0.0
 11
193.07
 21
87.9616
 31
0.0
  0
LINE
  8
0
 62
     0
 10
193.07
 20
87.9616
 30
0.0
 11
193.07
 21
93.7616
 31
0.0
  0
LINE
  8
0
 62
     0
 10
193.07
 20
93.7616
 30
0.0
 11
193.869
 21
93.7616
 31
0.0
  0
LINE
  8
0
 62
     0
 10
193.869
 20
93.7616
 30
0.0
 11
193.869
 21
96.8608
 31
0.0
  0
LINE
  8
0
 62
     0
 10
193.869
 20
96.8608
 30
0.0
 11
193.07
 21
96.8608
 31
0.0
  0
LINE
  8
0
 62
     0
 10
193.07
 20
96.8608
 30
0.0
 11
193.07
 21
97.8613
 31
0.0
  0
LINE
  8
0
 62
     0
 10
193.07
 20
97.8613
 30
0.0
 11
179.069
 21
97.8613
 31
0.0
  0
LINE
  8
0
 62
     0
 10
160.019
 20
97.8613
 30
0.0
 11
160.019
 21
96.8608
 31
0.0
  0
LINE
  8
0
 62
     0
 10
160.019
 20
96.8608
 30
0.0
 11
159.22
 21
96.8608
 31
0.0
  0
LINE
  8
0
 62
     0
 10
159.22
 20
96.8608
 30
0.0
 11
159.22
 21
93.7616
 31
0.0
  0
LINE
  8
0
 62
     0
 10
159.22
 20
93.7616
 30
0.0
 11
160.019
 21
93.7616
 31
0.0
  0
LINE
  8
0
 62
     0
 10
160.019
 20
93.7616
 30
0.0
 11
160.019
 21
87.9616
 31
0.0
  0
LINE
  8
0
 62
     0
 10
160.019
 20
87.9616
 30
0.0
 11
159.22
 21
87.9616
 31
0.0
  0
LINE
  8
0
 62
     0
 10
159.22
 20
87.9616
 30
0.0
 11
159.22
 21
84.861
 31
0.0
  0
LINE
  8
0
 62
     0
 10
159.22
 20
84.861
 30
0.0
 11
160.019
 21
84.861
 31
0.0
  0
LINE
  8
0
 62
     0
 10
160.019
 20
84.861
 30
0.0
 11
160.019
 21
83.8606
 31
0.0
  0
LINE
  8
0
 62
     0
 10
160.019
 20
83.8606
 30
0.0
 11
174.02
 21
83.8606
 31
0.0
  0
LINE
  8
0
 62
     0
 10
174.02
 20
83.8606
 30
0.0
 11
174.02
 21
84.861
 31
0.0
  0
LINE
  8
0
 62
     0
 10
174.02
 20
84.861
 30
0.0
 11
174.819
 21
84.861
 31
0.0
  0
LINE
  8
0
 62
     0
 10
174.819
 20
84.861
 30
0.0
 11
174.819
 21
87.9616
 31
0.0
  0
LINE
  8
0
 62
     0
 10
174.819
 20
87.9616
 30
0.0
 11
174.02
 21
87.9616
 31
0.0
  0
LINE
  8
0
 62
     0
 10
174.02
 20
87.9616
 30
0.0
 11
174.02
 21
93.7616
 31
0.0
  0
LINE
  8
0
 62
     0
 10
174.02
 20
93.7616
 30
0.0
 11
174.819
 21
93.7616
 31
0.0
  0
LINE
  8
0
 62
     0
 10
174.819
 20
93.7616
 30
0.0
 11
174.819
 21
96.8608
 31
0.0
  0
LINE
  8
0
 62
     0
 10
174.819
 20
96.8608
 30
0.0
 11
174.02
 21
96.8608
 31
0.0
  0
LINE
  8
0
 62
     0
 10
174.02
 20
96.8608
 30
0.0
 11
174.02
 21
97.8613
 31
0.0
  0
LINE
  8
0
 62
     0
 10
174.02
 20
97.8613
 30
0.0
 11
160.019
 21
97.8613
 31
0.0
  0
LINE
  8
0
 62
     0
 10
140.969
 20
97.8613
 30
0.0
 11
140.969
 21
96.8608
 31
0.0
  0
LINE
  8
0
 62
     0
 10
140.969
 20
96.8608
 30
0.0
 11
140.17
 21
96.8608
 31
0.0
  0
LINE
  8
0
 62
     0
 10
140.17
 20
96.8608
 30
0.0
 11
140.17
 21
93.7616
 31
0.0
  0
LINE
  8
0
 62
     0
 10
140.17
 20
93.7616
 30
0.0
 11
140.969
 21
93.7616
 31
0.0
  0
LINE
  8
0
 62
     0
 10
140.969
 20
93.7616
 30
0.0
 11
140.969
 21
87.9616
 31
0.0
  0
LINE
  8
0
 62
     0
 10
140.969
 20
87.9616
 30
0.0
 11
140.17
 21
87.9616
 31
0.0
  0
LINE
  8
0
 62
     0
 10
140.17
 20
87.9616
 30
0.0
 11
140.17
 21
84.861
 31
0.0
  0
LINE
  8
0
 62
     0
 10
140.17
 20
84.861
 30
0.0
 11
140.969
 21
84.861
 31
0.0
  0
LINE
  8
0
 62
     0
 10
140.969
 20
84.861
 30
0.0
 11
140.969
 21
83.8606
 31
0.0
  0
LINE
  8
0
 62
     0
 10
140.969
 20
83.8606
 30
0.0
 11
154.97
 21
83.8606
 31
0.0
  0
LINE
  8
0
 62
     0
 10
154.97
 20
83.8606
 30
0.0
 11
154.97
 21
84.861
 31
0.0
  0
LINE
  8
0
 62
     0
 10
154.97
 20
84.861
 30
0.0
 11
155.769
 21
84.861
 31
0.0
  0
LINE
  8
0
 62
     0
 10
155.769
 20
84.861
 30
0.0
 11
155.769
 21
87.9616
 31
0.0
  0
LINE
  8
0
 62
     0
 10
155.769
 20
87.9616
 30
0.0
 11
154.97
 21
87.9616
 31
0.0
  0
LINE
  8
0
 62
     0
 10
154.97
 20
87.9616
 30
0.0
 11
154.97
 21
93.7616
 31
0.0
  0
LINE
  8
0
 62
     0
 10
154.97
 20
93.7616
 30
0.0
 11
155.769
 21
93.7616
 31
0.0
  0
LINE
  8
0
 62
     0
 10
155.769
 20
93.7616
 30
0.0
 11
155.769
 21
96.8608
 31
0.0
  0
LINE
  8
0
 62
     0
 10
155.769
 20
96.8608
 30
0.0
 11
154.97
 21
96.8608
 31
0.0
  0
LINE
  8
0
 62
     0
 10
154.97
 20
96.8608
 30
0.0
 11
154.97
 21
97.8613
 31
0.0
  0
LINE
  8
0
 62
     0
 10
154.97
 20
97.8613
 30
0.0
 11
140.969
 21
97.8613
 31
0.0
  0
LINE
  8
0
 62
     0
 10
121.919
 20
97.8613
 30
0.0
 11
121.919
 21
96.8608
 31
0.0
  0
LINE
  8
0
 62
     0
 10
121.919
 20
96.8608
 30
0.0
 11
121.118
 21
96.8608
 31
0.0
  0
LINE
  8
0
 62
     0
 10
121.118
 20
96.8608
 30
0.0
 11
121.118
 21
93.7616
 31
0.0
  0
LINE
  8
0
 62
     0
 10
121.118
 20
93.7616
 30
0.0
 11
121.919
 21
93.7616
 31
0.0
  0
LINE
  8
0
 62
     0
 10
121.919
 20
93.7616
 30
0.0
 11
121.919
 21
87.9616
 31
0.0
  0
LINE
  8
0
 62
     0
 10
121.919
 20
87.9616
 30
0.0
 11
121.118
 21
87.9616
 31
0.0
  0
LINE
  8
0
 62
     0
 10
121.118
 20
87.9616
 30
0.0
 11
121.118
 21
84.861
 31
0.0
  0
LINE
  8
0
 62
     0
 10
121.118
 20
84.861
 30
0.0
 11
121.919
 21
84.861
 31
0.0
  0
LINE
  8
0
 62
     0
 10
121.919
 20
84.861
 30
0.0
 11
121.919
 21
83.8606
 31
0.0
  0
LINE
  8
0
 62
     0
 10
121.919
 20
83.8606
 30
0.0
 11
135.92
 21
83.8606
 31
0.0
  0
LINE
  8
0
 62
     0
 10
135.92
 20
83.8606
 30
0.0
 11
135.92
 21
84.861
 31
0.0
  0
LINE
  8
0
 62
     0
 10
135.92
 20
84.861
 30
0.0
 11
136.719
 21
84.861
 31
0.0
  0
LINE
  8
0
 62
     0
 10
136.719
 20
84.861
 30
0.0
 11
136.719
 21
87.9616
 31
0.0
  0
LINE
  8
0
 62
     0
 10
136.719
 20
87.9616
 30
0.0
 11
135.92
 21
87.9616
 31
0.0
  0
LINE
  8
0
 62
     0
 10
135.92
 20
87.9616
 30
0.0
 11
135.92
 21
93.7616
 31
0.0
  0
LINE
  8
0
 62
     0
 10
135.92
 20
93.7616
 30
0.0
 11
136.719
 21
93.7616
 31
0.0
  0
LINE
  8
0
 62
     0
 10
136.719
 20
93.7616
 30
0.0
 11
136.719
 21
96.8608
 31
0.0
  0
LINE
  8
0
 62
     0
 10
136.719
 20
96.8608
 30
0.0
 11
135.92
 21
96.8608
 31
0.0
  0
LINE
  8
0
 62
     0
 10
135.92
 20
96.8608
 30
0.0
 11
135.92
 21
97.8613
 31
0.0
  0
LINE
  8
0
 62
     0
 10
135.92
 20
97.8613
 30
0.0
 11
121.919
 21
97.8613
 31
0.0
  0
LINE
  8
0
 62
     0
 10
102.869
 20
97.8613
 30
0.0
 11
102.869
 21
96.8608
 31
0.0
  0
LINE
  8
0
 62
     0
 10
102.869
 20
96.8608
 30
0.0
 11
102.07
 21
96.8608
 31
0.0
  0
LINE
  8
0
 62
     0
 10
102.07
 20
96.8608
 30
0.0
 11
102.07
 21
93.7616
 31
0.0
  0
LINE
  8
0
 62
     0
 10
102.07
 20
93.7616
 30
0.0
 11
102.869
 21
93.7616
 31
0.0
  0
LINE
  8
0
 62
     0
 10
102.869
 20
93.7616
 30
0.0
 11
102.869
 21
87.9616
 31
0.0
  0
LINE
  8
0
 62
     0
 10
102.869
 20
87.9616
 30
0.0
 11
102.07
 21
87.9616
 31
0.0
  0
LINE
  8
0
 62
     0
 10
102.07
 20
87.9616
 30
0.0
 11
102.07
 21
84.861
 31
0.0
  0
LINE
  8
0
 62
     0
 10
102.07
 20
84.861
 30
0.0
 11
102.869
 21
84.861
 31
0.0
  0
LINE
  8
0
 62
     0
 10
102.869
 20
84.861
 30
0.0
 11
102.869
 21
83.8606
 31
0.0
  0
LINE
  8
0
 62
     0
 10
102.869
 20
83.8606
 30
0.0
 11
116.869
 21
83.8606
 31
0.0
  0
LINE
  8
0
 62
     0
 10
116.869
 20
83.8606
 30
0.0
 11
116.869
 21
84.861
 31
0.0
  0
LINE
  8
0
 62
     0
 10
116.869
 20
84.861
 30
0.0
 11
117.668
 21
84.861
 31
0.0
  0
LINE
  8
0
 62
     0
 10
117.668
 20
84.861
 30
0.0
 11
117.668
 21
87.9616
 31
0.0
  0
LINE
  8
0
 62
     0
 10
117.668
 20
87.9616
 30
0.0
 11
116.869
 21
87.9616
 31
0.0
  0
LINE
  8
0
 62
     0
 10
116.869
 20
87.9616
 30
0.0
 11
116.869
 21
93.7616
 31
0.0
  0
LINE
  8
0
 62
     0
 10
116.869
 20
93.7616
 30
0.0
 11
117.668
 21
93.7616
 31
0.0
  0
LINE
  8
0
 62
     0
 10
117.668
 20
93.7616
 30
0.0
 11
117.668
 21
96.8608
 31
0.0
  0
LINE
  8
0
 62
     0
 10
117.668
 20
96.8608
 30
0.0
 11
116.869
 21
96.8608
 31
0.0
  0
LINE
  8
0
 62
     0
 10
116.869
 20
96.8608
 30
0.0
 11
116.869
 21
97.8613
 31
0.0
  0
LINE
  8
0
 62
     0
 10
116.869
 20
97.8613
 30
0.0
 11
102.869
 21
97.8613
 31
0.0
  0
LINE
  8
0
 62
     0
 10
83.8193
 20
97.8613
 30
0.0
 11
83.8193
 21
96.8608
 31
0.0
  0
LINE
  8
0
 62
     0
 10
83.8193
 20
96.8608
 30
0.0
 11
83.0199
 21
96.8608
 31
0.0
  0
LINE
  8
0
 62
     0
 10
83.0199
 20
96.8608
 30
0.0
 11
83.0199
 21
93.7616
 31
0.0
  0
LINE
  8
0
 62
     0
 10
83.0199
 20
93.7616
 30
0.0
 11
83.8193
 21
93.7616
 31
0.0
  0
LINE
  8
0
 62
     0
 10
83.8193
 20
93.7616
 30
0.0
 11
83.8193
 21
87.9616
 31
0.0
  0
LINE
  8
0
 62
     0
 10
83.8193
 20
87.9616
 30
0.0
 11
83.0199
 21
87.9616
 31
0.0
  0
LINE
  8
0
 62
     0
 10
83.0199
 20
87.9616
 30
0.0
 11
83.0199
 21
84.861
 31
0.0
  0
LINE
  8
0
 62
     0
 10
83.0199
 20
84.861
 30
0.0
 11
83.8193
 21
84.861
 31
0.0
  0
LINE
  8
0
 62
     0
 10
83.8193
 20
84.861
 30
0.0
 11
83.8193
 21
83.8606
 31
0.0
  0
LINE
  8
0
 62
     0
 10
83.8193
 20
83.8606
 30
0.0
 11
97.82
 21
83.8606
 31
0.0
  0
LINE
  8
0
 62
     0
 10
97.82
 20
83.8606
 30
0.0
 11
97.82
 21
84.861
 31
0.0
  0
LINE
  8
0
 62
     0
 10
97.82
 20
84.861
 30
0.0
 11
98.618
 21
84.861
 31
0.0
  0
LINE
  8
0
 62
     0
 10
98.618
 20
84.861
 30
0.0
 11
98.618
 21
87.9616
 31
0.0
  0
LINE
  8
0
 62
     0
 10
98.618
 20
87.9616
 30
0.0
 11
97.82
 21
87.9616
 31
0.0
  0
LINE
  8
0
 62
     0
 10
97.82
 20
87.9616
 30
0.0
 11
97.82
 21
93.7616
 31
0.0
  0
LINE
  8
0
 62
     0
 10
97.82
 20
93.7616
 30
0.0
 11
98.618
 21
93.7616
 31
0.0
  0
LINE
  8
0
 62
     0
 10
98.618
 20
93.7616
 30
0.0
 11
98.618
 21
96.8608
 31
0.0
  0
LINE
  8
0
 62
     0
 10
98.618
 20
96.8608
 30
0.0
 11
97.82
 21
96.8608
 31
0.0
  0
LINE
  8
0
 62
     0
 10
97.82
 20
96.8608
 30
0.0
 11
97.82
 21
97.8613
 31
0.0
  0
LINE
  8
0
 62
     0
 10
97.82
 20
97.8613
 30
0.0
 11
83.8193
 21
97.8613
 31
0.0
  0
LINE
  8
0
 62
     0
 10
64.7693
 20
97.8613
 30
0.0
 11
64.7693
 21
96.8608
 31
0.0
  0
LINE
  8
0
 62
     0
 10
64.7693
 20
96.8608
 30
0.0
 11
63.9699
 21
96.8608
 31
0.0
  0
LINE
  8
0
 62
     0
 10
63.9699
 20
96.8608
 30
0.0
 11
63.9699
 21
93.7616
 31
0.0
  0
LINE
  8
0
 62
     0
 10
63.9699
 20
93.7616
 30
0.0
 11
64.7693
 21
93.7616
 31
0.0
  0
LINE
  8
0
 62
     0
 10
64.7693
 20
93.7616
 30
0.0
 11
64.7693
 21
87.9616
 31
0.0
  0
LINE
  8
0
 62
     0
 10
64.7693
 20
87.9616
 30
0.0
 11
63.9699
 21
87.9616
 31
0.0
  0
LINE
  8
0
 62
     0
 10
63.9699
 20
87.9616
 30
0.0
 11
63.9699
 21
84.861
 31
0.0
  0
LINE
  8
0
 62
     0
 10
63.9699
 20
84.861
 30
0.0
 11
64.7693
 21
84.861
 31
0.0
  0
LINE
  8
0
 62
     0
 10
64.7693
 20
84.861
 30
0.0
 11
64.7693
 21
83.8606
 31
0.0
  0
LINE
  8
0
 62
     0
 10
64.7693
 20
83.8606
 30
0.0
 11
78.77
 21
83.8606
 31
0.0
  0
LINE
  8
0
 62
     0
 10
78.77
 20
83.8606
 30
0.0
 11
78.77
 21
84.861
 31
0.0
  0
LINE
  8
0
 62
     0
 10
78.77
 20
84.861
 30
0.0
 11
79.5694
 21
84.861
 31
0.0
  0
LINE
  8
0
 62
     0
 10
79.5694
 20
84.861
 30
0.0
 11
79.5694
 21
87.9616
 31
0.0
  0
LINE
  8
0
 62
     0
 10
79.5694
 20
87.9616
 30
0.0
 11
78.77
 21
87.9616
 31
0.0
  0
LINE
  8
0
 62
     0
 10
78.77
 20
87.9616
 30
0.0
 11
78.77
 21
93.7616
 31
0.0
  0
LINE
  8
0
 62
     0
 10
78.77
 20
93.7616
 30
0.0
 11
79.5694
 21
93.7616
 31
0.0
  0
LINE
  8
0
 62
     0
 10
79.5694
 20
93.7616
 30
0.0
 11
79.5694
 21
96.8608
 31
0.0
  0
LINE
  8
0
 62
     0
 10
79.5694
 20
96.8608
 30
0.0
 11
78.77
 21
96.8608
 31
0.0
  0
LINE
  8
0
 62
     0
 10
78.77
 20
96.8608
 30
0.0
 11
78.77
 21
97.8613
 31
0.0
  0
LINE
  8
0
 62
     0
 10
78.77
 20
97.8613
 30
0.0
 11
64.7693
 21
97.8613
 31
0.0
  0
LINE
  8
0
 62
     0
 10
45.7193
 20
97.8613
 30
0.0
 11
45.7193
 21
96.8608
 31
0.0
  0
LINE
  8
0
 62
     0
 10
45.7193
 20
96.8608
 30
0.0
 11
44.9199
 21
96.8608
 31
0.0
  0
LINE
  8
0
 62
     0
 10
44.9199
 20
96.8608
 30
0.0
 11
44.9199
 21
93.7616
 31
0.0
  0
LINE
  8
0
 62
     0
 10
44.9199
 20
93.7616
 30
0.0
 11
45.7193
 21
93.7616
 31
0.0
  0
LINE
  8
0
 62
     0
 10
45.7193
 20
93.7616
 30
0.0
 11
45.7193
 21
87.9616
 31
0.0
  0
LINE
  8
0
 62
     0
 10
45.7193
 20
87.9616
 30
0.0
 11
44.9199
 21
87.9616
 31
0.0
  0
LINE
  8
0
 62
     0
 10
44.9199
 20
87.9616
 30
0.0
 11
44.9199
 21
84.861
 31
0.0
  0
LINE
  8
0
 62
     0
 10
44.9199
 20
84.861
 30
0.0
 11
45.7193
 21
84.861
 31
0.0
  0
LINE
  8
0
 62
     0
 10
45.7193
 20
84.861
 30
0.0
 11
45.7193
 21
83.8606
 31
0.0
  0
LINE
  8
0
 62
     0
 10
45.7193
 20
83.8606
 30
0.0
 11
59.72
 21
83.8606
 31
0.0
  0
LINE
  8
0
 62
     0
 10
59.72
 20
83.8606
 30
0.0
 11
59.72
 21
84.861
 31
0.0
  0
LINE
  8
0
 62
     0
 10
59.72
 20
84.861
 30
0.0
 11
60.5194
 21
84.861
 31
0.0
  0
LINE
  8
0
 62
     0
 10
60.5194
 20
84.861
 30
0.0
 11
60.5194
 21
87.9616
 31
0.0
  0
LINE
  8
0
 62
     0
 10
60.5194
 20
87.9616
 30
0.0
 11
59.72
 21
87.9616
 31
0.0
  0
LINE
  8
0
 62
     0
 10
59.72
 20
87.9616
 30
0.0
 11
59.72
 21
93.7616
 31
0.0
  0
LINE
  8
0
 62
     0
 10
59.72
 20
93.7616
 30
0.0
 11
60.5194
 21
93.7616
 31
0.0
  0
LINE
  8
0
 62
     0
 10
60.5194
 20
93.7616
 30
0.0
 11
60.5194
 21
96.8608
 31
0.0
  0
LINE
  8
0
 62
     0
 10
60.5194
 20
96.8608
 30
0.0
 11
59.72
 21
96.8608
 31
0.0
  0
LINE
  8
0
 62
     0
 10
59.72
 20
96.8608
 30
0.0
 11
59.72
 21
97.8613
 31
0.0
  0
LINE
  8
0
 62
     0
 10
59.72
 20
97.8613
 30
0.0
 11
45.7193
 21
97.8613
 31
0.0
  0
LINE
  8
0
 62
     0
 10
26.6692
 20
97.8613
 30
0.0
 11
26.6692
 21
96.8608
 31
0.0
  0
LINE
  8
0
 62
     0
 10
26.6692
 20
96.8608
 30
0.0
 11
25.8699
 21
96.8608
 31
0.0
  0
LINE
  8
0
 62
     0
 10
25.8699
 20
96.8608
 30
0.0
 11
25.8699
 21
93.7616
 31
0.0
  0
LINE
  8
0
 62
     0
 10
25.8699
 20
93.7616
 30
0.0
 11
26.6692
 21
93.7616
 31
0.0
  0
LINE
  8
0
 62
     0
 10
26.6692
 20
93.7616
 30
0.0
 11
26.6692
 21
87.9616
 31
0.0
  0
LINE
  8
0
 62
     0
 10
26.6692
 20
87.9616
 30
0.0
 11
25.8699
 21
87.9616
 31
0.0
  0
LINE
  8
0
 62
     0
 10
25.8699
 20
87.9616
 30
0.0
 11
25.8699
 21
84.861
 31
0.0
  0
LINE
  8
0
 62
     0
 10
25.8699
 20
84.861
 30
0.0
 11
26.6692
 21
84.861
 31
0.0
  0
LINE
  8
0
 62
     0
 10
26.6692
 20
84.861
 30
0.0
 11
26.6692
 21
83.8606
 31
0.0
  0
LINE
  8
0
 62
     0
 10
26.6692
 20
83.8606
 30
0.0
 11
40.67
 21
83.8606
 31
0.0
  0
LINE
  8
0
 62
     0
 10
40.67
 20
83.8606
 30
0.0
 11
40.67
 21
84.861
 31
0.0
  0
LINE
  8
0
 62
     0
 10
40.67
 20
84.861
 30
0.0
 11
41.4694
 21
84.861
 31
0.0
  0
LINE
  8
0
 62
     0
 10
41.4694
 20
84.861
 30
0.0
 11
41.4694
 21
87.9616
 31
0.0
  0
LINE
  8
0
 62
     0
 10
41.4694
 20
87.9616
 30
0.0
 11
40.67
 21
87.9616
 31
0.0
  0
LINE
  8
0
 62
     0
 10
40.67
 20
87.9616
 30
0.0
 11
40.67
 21
93.7616
 31
0.0
  0
LINE
  8
0
 62
     0
 10
40.67
 20
93.7616
 30
0.0
 11
41.4694
 21
93.7616
 31
0.0
  0
LINE
  8
0
 62
     0
 10
41.4694
 20
93.7616
 30
0.0
 11
41.4694
 21
96.8608
 31
0.0
  0
LINE
  8
0
 62
     0
 10
41.4694
 20
96.8608
 30
0.0
 11
40.67
 21
96.8608
 31
0.0
  0
LINE
  8
0
 62
     0
 10
40.67
 20
96.8608
 30
0.0
 11
40.67
 21
97.8613
 31
0.0
  0
LINE
  8
0
 62
     0
 10
40.67
 20
97.8613
 30
0.0
 11
26.6692
 21
97.8613
 31
0.0
  0
LINE
  8
0
 62
     0
 10
7.61919
 20
97.8613
 30
0.0
 11
7.61919
 21
96.8608
 31
0.0
  0
LINE
  8
0
 62
     0
 10
7.61919
 20
96.8608
 30
0.0
 11
6.81852
 21
96.8608
 31
0.0
  0
LINE
  8
0
 62
     0
 10
6.81852
 20
96.8608
 30
0.0
 11
6.81852
 21
93.7616
 31
0.0
  0
LINE
  8
0
 62
     0
 10
6.81852
 20
93.7616
 30
0.0
 11
7.61919
 21
93.7616
 31
0.0
  0
LINE
  8
0
 62
     0
 10
7.61919
 20
93.7616
 30
0.0
 11
7.61919
 21
87.9616
 31
0.0
  0
LINE
  8
0
 62
     0
 10
7.61919
 20
87.9616
 30
0.0
 11
6.81852
 21
87.9616
 31
0.0
  0
LINE
  8
0
 62
     0
 10
6.81852
 20
87.9616
 30
0.0
 11
6.81852
 21
84.861
 31
0.0
  0
LINE
  8
0
 62
     0
 10
6.81852
 20
84.861
 30
0.0
 11
7.61919
 21
84.861
 31
0.0
  0
LINE
  8
0
 62
     0
 10
7.61919
 20
84.861
 30
0.0
 11
7.61919
 21
83.8606
 31
0.0
  0
LINE
  8
0
 62
     0
 10
7.61919
 20
83.8606
 30
0.0
 11
21.6201
 21
83.8606
 31
0.0
  0
LINE
  8
0
 62
     0
 10
21.6201
 20
83.8606
 30
0.0
 11
21.6201
 21
84.861
 31
0.0
  0
LINE
  8
0
 62
     0
 10
21.6201
 20
84.861
 30
0.0
 11
22.4193
 21
84.861
 31
0.0
  0
LINE
  8
0
 62
     0
 10
22.4193
 20
84.861
 30
0.0
 11
22.4193
 21
87.9616
 31
0.0
  0
LINE
  8
0
 62
     0
 10
22.4193
 20
87.9616
 30
0.0
 11
21.6201
 21
87.9616
 31
0.0
  0
LINE
  8
0
 62
     0
 10
21.6201
 20
87.9616
 30
0.0
 11
21.6201
 21
93.7616
 31
0.0
  0
LINE
  8
0
 62
     0
 10
21.6201
 20
93.7616
 30
0.0
 11
22.4193
 21
93.7616
 31
0.0
  0
LINE
  8
0
 62
     0
 10
22.4193
 20
93.7616
 30
0.0
 11
22.4193
 21
96.8608
 31
0.0
  0
LINE
  8
0
 62
     0
 10
22.4193
 20
96.8608
 30
0.0
 11
21.6201
 21
96.8608
 31
0.0
  0
LINE
  8
0
 62
     0
 10
21.6201
 20
96.8608
 30
0.0
 11
21.6201
 21
97.8613
 31
0.0
  0
LINE
  8
0
 62
     0
 10
21.6201
 20
97.8613
 30
0.0
 11
7.61919
 21
97.8613
 31
0.0
  0
LINE
  8
0
 62
     0
 10
274.319
 20
116.911
 30
0.0
 11
274.319
 21
115.912
 31
0.0
  0
LINE
  8
0
 62
     0
 10
274.319
 20
115.912
 30
0.0
 11
273.52
 21
115.912
 31
0.0
  0
LINE
  8
0
 62
     0
 10
273.52
 20
115.912
 30
0.0
 11
273.52
 21
112.812
 31
0.0
  0
LINE
  8
0
 62
     0
 10
273.52
 20
112.812
 30
0.0
 11
274.319
 21
112.812
 31
0.0
  0
LINE
  8
0
 62
     0
 10
274.319
 20
112.812
 30
0.0
 11
274.319
 21
107.012
 31
0.0
  0
LINE
  8
0
 62
     0
 10
274.319
 20
107.012
 30
0.0
 11
273.52
 21
107.012
 31
0.0
  0
LINE
  8
0
 62
     0
 10
273.52
 20
107.012
 30
0.0
 11
273.52
 21
103.911
 31
0.0
  0
LINE
  8
0
 62
     0
 10
273.52
 20
103.911
 30
0.0
 11
274.319
 21
103.911
 31
0.0
  0
LINE
  8
0
 62
     0
 10
274.319
 20
103.911
 30
0.0
 11
274.319
 21
102.911
 31
0.0
  0
LINE
  8
0
 62
     0
 10
274.319
 20
102.911
 30
0.0
 11
288.32
 21
102.911
 31
0.0
  0
LINE
  8
0
 62
     0
 10
288.32
 20
102.911
 30
0.0
 11
288.32
 21
103.911
 31
0.0
  0
LINE
  8
0
 62
     0
 10
288.32
 20
103.911
 30
0.0
 11
289.119
 21
103.911
 31
0.0
  0
LINE
  8
0
 62
     0
 10
289.119
 20
103.911
 30
0.0
 11
289.119
 21
107.012
 31
0.0
  0
LINE
  8
0
 62
     0
 10
289.119
 20
107.012
 30
0.0
 11
288.32
 21
107.012
 31
0.0
  0
LINE
  8
0
 62
     0
 10
288.32
 20
107.012
 30
0.0
 11
288.32
 21
112.812
 31
0.0
  0
LINE
  8
0
 62
     0
 10
288.32
 20
112.812
 30
0.0
 11
289.119
 21
112.812
 31
0.0
  0
LINE
  8
0
 62
     0
 10
289.119
 20
112.812
 30
0.0
 11
289.119
 21
115.912
 31
0.0
  0
LINE
  8
0
 62
     0
 10
289.119
 20
115.912
 30
0.0
 11
288.32
 21
115.912
 31
0.0
  0
LINE
  8
0
 62
     0
 10
288.32
 20
115.912
 30
0.0
 11
288.32
 21
116.911
 31
0.0
  0
LINE
  8
0
 62
     0
 10
288.32
 20
116.911
 30
0.0
 11
274.319
 21
116.911
 31
0.0
  0
LINE
  8
0
 62
     0
 10
255.269
 20
116.911
 30
0.0
 11
255.269
 21
115.912
 31
0.0
  0
LINE
  8
0
 62
     0
 10
255.269
 20
115.912
 30
0.0
 11
254.47
 21
115.912
 31
0.0
  0
LINE
  8
0
 62
     0
 10
254.47
 20
115.912
 30
0.0
 11
254.47
 21
112.812
 31
0.0
  0
LINE
  8
0
 62
     0
 10
254.47
 20
112.812
 30
0.0
 11
255.269
 21
112.812
 31
0.0
  0
LINE
  8
0
 62
     0
 10
255.269
 20
112.812
 30
0.0
 11
255.269
 21
107.012
 31
0.0
  0
LINE
  8
0
 62
     0
 10
255.269
 20
107.012
 30
0.0
 11
254.47
 21
107.012
 31
0.0
  0
LINE
  8
0
 62
     0
 10
254.47
 20
107.012
 30
0.0
 11
254.47
 21
103.911
 31
0.0
  0
LINE
  8
0
 62
     0
 10
254.47
 20
103.911
 30
0.0
 11
255.269
 21
103.911
 31
0.0
  0
LINE
  8
0
 62
     0
 10
255.269
 20
103.911
 30
0.0
 11
255.269
 21
102.911
 31
0.0
  0
LINE
  8
0
 62
     0
 10
255.269
 20
102.911
 30
0.0
 11
269.27
 21
102.911
 31
0.0
  0
LINE
  8
0
 62
     0
 10
269.27
 20
102.911
 30
0.0
 11
269.27
 21
103.911
 31
0.0
  0
LINE
  8
0
 62
     0
 10
269.27
 20
103.911
 30
0.0
 11
270.069
 21
103.911
 31
0.0
  0
LINE
  8
0
 62
     0
 10
270.069
 20
103.911
 30
0.0
 11
270.069
 21
107.012
 31
0.0
  0
LINE
  8
0
 62
     0
 10
270.069
 20
107.012
 30
0.0
 11
269.27
 21
107.012
 31
0.0
  0
LINE
  8
0
 62
     0
 10
269.27
 20
107.012
 30
0.0
 11
269.27
 21
112.812
 31
0.0
  0
LINE
  8
0
 62
     0
 10
269.27
 20
112.812
 30
0.0
 11
270.069
 21
112.812
 31
0.0
  0
LINE
  8
0
 62
     0
 10
270.069
 20
112.812
 30
0.0
 11
270.069
 21
115.912
 31
0.0
  0
LINE
  8
0
 62
     0
 10
270.069
 20
115.912
 30
0.0
 11
269.27
 21
115.912
 31
0.0
  0
LINE
  8
0
 62
     0
 10
269.27
 20
115.912
 30
0.0
 11
269.27
 21
116.911
 31
0.0
  0
LINE
  8
0
 62
     0
 10
269.27
 20
116.911
 30
0.0
 11
255.269
 21
116.911
 31
0.0
  0
LINE
  8
0
 62
     0
 10
236.219
 20
116.911
 30
0.0
 11
236.219
 21
115.912
 31
0.0
  0
LINE
  8
0
 62
     0
 10
236.219
 20
115.912
 30
0.0
 11
235.42
 21
115.912
 31
0.0
  0
LINE
  8
0
 62
     0
 10
235.42
 20
115.912
 30
0.0
 11
235.42
 21
112.812
 31
0.0
  0
LINE
  8
0
 62
     0
 10
235.42
 20
112.812
 30
0.0
 11
236.219
 21
112.812
 31
0.0
  0
LINE
  8
0
 62
     0
 10
236.219
 20
112.812
 30
0.0
 11
236.219
 21
107.012
 31
0.0
  0
LINE
  8
0
 62
     0
 10
236.219
 20
107.012
 30
0.0
 11
235.42
 21
107.012
 31
0.0
  0
LINE
  8
0
 62
     0
 10
235.42
 20
107.012
 30
0.0
 11
235.42
 21
103.911
 31
0.0
  0
LINE
  8
0
 62
     0
 10
235.42
 20
103.911
 30
0.0
 11
236.219
 21
103.911
 31
0.0
  0
LINE
  8
0
 62
     0
 10
236.219
 20
103.911
 30
0.0
 11
236.219
 21
102.911
 31
0.0
  0
LINE
  8
0
 62
     0
 10
236.219
 20
102.911
 30
0.0
 11
250.22
 21
102.911
 31
0.0
  0
LINE
  8
0
 62
     0
 10
250.22
 20
102.911
 30
0.0
 11
250.22
 21
103.911
 31
0.0
  0
LINE
  8
0
 62
     0
 10
250.22
 20
103.911
 30
0.0
 11
251.019
 21
103.911
 31
0.0
  0
LINE
  8
0
 62
     0
 10
251.019
 20
103.911
 30
0.0
 11
251.019
 21
107.012
 31
0.0
  0
LINE
  8
0
 62
     0
 10
251.019
 20
107.012
 30
0.0
 11
250.22
 21
107.012
 31
0.0
  0
LINE
  8
0
 62
     0
 10
250.22
 20
107.012
 30
0.0
 11
250.22
 21
112.812
 31
0.0
  0
LINE
  8
0
 62
     0
 10
250.22
 20
112.812
 30
0.0
 11
251.019
 21
112.812
 31
0.0
  0
LINE
  8
0
 62
     0
 10
251.019
 20
112.812
 30
0.0
 11
251.019
 21
115.912
 31
0.0
  0
LINE
  8
0
 62
     0
 10
251.019
 20
115.912
 30
0.0
 11
250.22
 21
115.912
 31
0.0
  0
LINE
  8
0
 62
     0
 10
250.22
 20
115.912
 30
0.0
 11
250.22
 21
116.911
 31
0.0
  0
LINE
  8
0
 62
     0
 10
250.22
 20
116.911
 30
0.0
 11
236.219
 21
116.911
 31
0.0
  0
LINE
  8
0
 62
     0
 10
217.169
 20
116.911
 30
0.0
 11
217.169
 21
115.912
 31
0.0
  0
LINE
  8
0
 62
     0
 10
217.169
 20
115.912
 30
0.0
 11
216.37
 21
115.912
 31
0.0
  0
LINE
  8
0
 62
     0
 10
216.37
 20
115.912
 30
0.0
 11
216.37
 21
112.812
 31
0.0
  0
LINE
  8
0
 62
     0
 10
216.37
 20
112.812
 30
0.0
 11
217.169
 21
112.812
 31
0.0
  0
LINE
  8
0
 62
     0
 10
217.169
 20
112.812
 30
0.0
 11
217.169
 21
107.012
 31
0.0
  0
LINE
  8
0
 62
     0
 10
217.169
 20
107.012
 30
0.0
 11
216.37
 21
107.012
 31
0.0
  0
LINE
  8
0
 62
     0
 10
216.37
 20
107.012
 30
0.0
 11
216.37
 21
103.911
 31
0.0
  0
LINE
  8
0
 62
     0
 10
216.37
 20
103.911
 30
0.0
 11
217.169
 21
103.911
 31
0.0
  0
LINE
  8
0
 62
     0
 10
217.169
 20
103.911
 30
0.0
 11
217.169
 21
102.911
 31
0.0
  0
LINE
  8
0
 62
     0
 10
217.169
 20
102.911
 30
0.0
 11
231.17
 21
102.911
 31
0.0
  0
LINE
  8
0
 62
     0
 10
231.17
 20
102.911
 30
0.0
 11
231.17
 21
103.911
 31
0.0
  0
LINE
  8
0
 62
     0
 10
231.17
 20
103.911
 30
0.0
 11
231.969
 21
103.911
 31
0.0
  0
LINE
  8
0
 62
     0
 10
231.969
 20
103.911
 30
0.0
 11
231.969
 21
107.012
 31
0.0
  0
LINE
  8
0
 62
     0
 10
231.969
 20
107.012
 30
0.0
 11
231.17
 21
107.012
 31
0.0
  0
LINE
  8
0
 62
     0
 10
231.17
 20
107.012
 30
0.0
 11
231.17
 21
112.812
 31
0.0
  0
LINE
  8
0
 62
     0
 10
231.17
 20
112.812
 30
0.0
 11
231.969
 21
112.812
 31
0.0
  0
LINE
  8
0
 62
     0
 10
231.969
 20
112.812
 30
0.0
 11
231.969
 21
115.912
 31
0.0
  0
LINE
  8
0
 62
     0
 10
231.969
 20
115.912
 30
0.0
 11
231.17
 21
115.912
 31
0.0
  0
LINE
  8
0
 62
     0
 10
231.17
 20
115.912
 30
0.0
 11
231.17
 21
116.911
 31
0.0
  0
LINE
  8
0
 62
     0
 10
231.17
 20
116.911
 30
0.0
 11
217.169
 21
116.911
 31
0.0
  0
LINE
  8
0
 62
     0
 10
198.119
 20
116.911
 30
0.0
 11
198.119
 21
115.912
 31
0.0
  0
LINE
  8
0
 62
     0
 10
198.119
 20
115.912
 30
0.0
 11
197.32
 21
115.912
 31
0.0
  0
LINE
  8
0
 62
     0
 10
197.32
 20
115.912
 30
0.0
 11
197.32
 21
112.812
 31
0.0
  0
LINE
  8
0
 62
     0
 10
197.32
 20
112.812
 30
0.0
 11
198.119
 21
112.812
 31
0.0
  0
LINE
  8
0
 62
     0
 10
198.119
 20
112.812
 30
0.0
 11
198.119
 21
107.012
 31
0.0
  0
LINE
  8
0
 62
     0
 10
198.119
 20
107.012
 30
0.0
 11
197.32
 21
107.012
 31
0.0
  0
LINE
  8
0
 62
     0
 10
197.32
 20
107.012
 30
0.0
 11
197.32
 21
103.911
 31
0.0
  0
LINE
  8
0
 62
     0
 10
197.32
 20
103.911
 30
0.0
 11
198.119
 21
103.911
 31
0.0
  0
LINE
  8
0
 62
     0
 10
198.119
 20
103.911
 30
0.0
 11
198.119
 21
102.911
 31
0.0
  0
LINE
  8
0
 62
     0
 10
198.119
 20
102.911
 30
0.0
 11
212.12
 21
102.911
 31
0.0
  0
LINE
  8
0
 62
     0
 10
212.12
 20
102.911
 30
0.0
 11
212.12
 21
103.911
 31
0.0
  0
LINE
  8
0
 62
     0
 10
212.12
 20
103.911
 30
0.0
 11
212.919
 21
103.911
 31
0.0
  0
LINE
  8
0
 62
     0
 10
212.919
 20
103.911
 30
0.0
 11
212.919
 21
107.012
 31
0.0
  0
LINE
  8
0
 62
     0
 10
212.919
 20
107.012
 30
0.0
 11
212.12
 21
107.012
 31
0.0
  0
LINE
  8
0
 62
     0
 10
212.12
 20
107.012
 30
0.0
 11
212.12
 21
112.812
 31
0.0
  0
LINE
  8
0
 62
     0
 10
212.12
 20
112.812
 30
0.0
 11
212.919
 21
112.812
 31
0.0
  0
LINE
  8
0
 62
     0
 10
212.919
 20
112.812
 30
0.0
 11
212.919
 21
115.912
 31
0.0
  0
LINE
  8
0
 62
     0
 10
212.919
 20
115.912
 30
0.0
 11
212.12
 21
115.912
 31
0.0
  0
LINE
  8
0
 62
     0
 10
212.12
 20
115.912
 30
0.0
 11
212.12
 21
116.911
 31
0.0
  0
LINE
  8
0
 62
     0
 10
212.12
 20
116.911
 30
0.0
 11
198.119
 21
116.911
 31
0.0
  0
LINE
  8
0
 62
     0
 10
179.069
 20
116.911
 30
0.0
 11
179.069
 21
115.912
 31
0.0
  0
LINE
  8
0
 62
     0
 10
179.069
 20
115.912
 30
0.0
 11
178.27
 21
115.912
 31
0.0
  0
LINE
  8
0
 62
     0
 10
178.27
 20
115.912
 30
0.0
 11
178.27
 21
112.812
 31
0.0
  0
LINE
  8
0
 62
     0
 10
178.27
 20
112.812
 30
0.0
 11
179.069
 21
112.812
 31
0.0
  0
LINE
  8
0
 62
     0
 10
179.069
 20
112.812
 30
0.0
 11
179.069
 21
107.012
 31
0.0
  0
LINE
  8
0
 62
     0
 10
179.069
 20
107.012
 30
0.0
 11
178.27
 21
107.012
 31
0.0
  0
LINE
  8
0
 62
     0
 10
178.27
 20
107.012
 30
0.0
 11
178.27
 21
103.911
 31
0.0
  0
LINE
  8
0
 62
     0
 10
178.27
 20
103.911
 30
0.0
 11
179.069
 21
103.911
 31
0.0
  0
LINE
  8
0
 62
     0
 10
179.069
 20
103.911
 30
0.0
 11
179.069
 21
102.911
 31
0.0
  0
LINE
  8
0
 62
     0
 10
179.069
 20
102.911
 30
0.0
 11
193.07
 21
102.911
 31
0.0
  0
LINE
  8
0
 62
     0
 10
193.07
 20
102.911
 30
0.0
 11
193.07
 21
103.911
 31
0.0
  0
LINE
  8
0
 62
     0
 10
193.07
 20
103.911
 30
0.0
 11
193.869
 21
103.911
 31
0.0
  0
LINE
  8
0
 62
     0
 10
193.869
 20
103.911
 30
0.0
 11
193.869
 21
107.012
 31
0.0
  0
LINE
  8
0
 62
     0
 10
193.869
 20
107.012
 30
0.0
 11
193.07
 21
107.012
 31
0.0
  0
LINE
  8
0
 62
     0
 10
193.07
 20
107.012
 30
0.0
 11
193.07
 21
112.812
 31
0.0
  0
LINE
  8
0
 62
     0
 10
193.07
 20
112.812
 30
0.0
 11
193.869
 21
112.812
 31
0.0
  0
LINE
  8
0
 62
     0
 10
193.869
 20
112.812
 30
0.0
 11
193.869
 21
115.912
 31
0.0
  0
LINE
  8
0
 62
     0
 10
193.869
 20
115.912
 30
0.0
 11
193.07
 21
115.912
 31
0.0
  0
LINE
  8
0
 62
     0
 10
193.07
 20
115.912
 30
0.0
 11
193.07
 21
116.911
 31
0.0
  0
LINE
  8
0
 62
     0
 10
193.07
 20
116.911
 30
0.0
 11
179.069
 21
116.911
 31
0.0
  0
LINE
  8
0
 62
     0
 10
160.019
 20
116.911
 30
0.0
 11
160.019
 21
115.912
 31
0.0
  0
LINE
  8
0
 62
     0
 10
160.019
 20
115.912
 30
0.0
 11
159.22
 21
115.912
 31
0.0
  0
LINE
  8
0
 62
     0
 10
159.22
 20
115.912
 30
0.0
 11
159.22
 21
112.812
 31
0.0
  0
LINE
  8
0
 62
     0
 10
159.22
 20
112.812
 30
0.0
 11
160.019
 21
112.812
 31
0.0
  0
LINE
  8
0
 62
     0
 10
160.019
 20
112.812
 30
0.0
 11
160.019
 21
107.012
 31
0.0
  0
LINE
  8
0
 62
     0
 10
160.019
 20
107.012
 30
0.0
 11
159.22
 21
107.012
 31
0.0
  0
LINE
  8
0
 62
     0
 10
159.22
 20
107.012
 30
0.0
 11
159.22
 21
103.911
 31
0.0
  0
LINE
  8
0
 62
     0
 10
159.22
 20
103.911
 30
0.0
 11
160.019
 21
103.911
 31
0.0
  0
LINE
  8
0
 62
     0
 10
160.019
 20
103.911
 30
0.0
 11
160.019
 21
102.911
 31
0.0
  0
LINE
  8
0
 62
     0
 10
160.019
 20
102.911
 30
0.0
 11
174.02
 21
102.911
 31
0.0
  0
LINE
  8
0
 62
     0
 10
174.02
 20
102.911
 30
0.0
 11
174.02
 21
103.911
 31
0.0
  0
LINE
  8
0
 62
     0
 10
174.02
 20
103.911
 30
0.0
 11
174.819
 21
103.911
 31
0.0
  0
LINE
  8
0
 62
     0
 10
174.819
 20
103.911
 30
0.0
 11
174.819
 21
107.012
 31
0.0
  0
LINE
  8
0
 62
     0
 10
174.819
 20
107.012
 30
0.0
 11
174.02
 21
107.012
 31
0.0
  0
LINE
  8
0
 62
     0
 10
174.02
 20
107.012
 30
0.0
 11
174.02
 21
112.812
 31
0.0
  0
LINE
  8
0
 62
     0
 10
174.02
 20
112.812
 30
0.0
 11
174.819
 21
112.812
 31
0.0
  0
LINE
  8
0
 62
     0
 10
174.819
 20
112.812
 30
0.0
 11
174.819
 21
115.912
 31
0.0
  0
LINE
  8
0
 62
     0
 10
174.819
 20
115.912
 30
0.0
 11
174.02
 21
115.912
 31
0.0
  0
LINE
  8
0
 62
     0
 10
174.02
 20
115.912
 30
0.0
 11
174.02
 21
116.911
 31
0.0
  0
LINE
  8
0
 62
     0
 10
174.02
 20
116.911
 30
0.0
 11
160.019
 21
116.911
 31
0.0
  0
LINE
  8
0
 62
     0
 10
140.969
 20
116.911
 30
0.0
 11
140.969
 21
115.912
 31
0.0
  0
LINE
  8
0
 62
     0
 10
140.969
 20
115.912
 30
0.0
 11
140.17
 21
115.912
 31
0.0
  0
LINE
  8
0
 62
     0
 10
140.17
 20
115.912
 30
0.0
 11
140.17
 21
112.812
 31
0.0
  0
LINE
  8
0
 62
     0
 10
140.17
 20
112.812
 30
0.0
 11
140.969
 21
112.812
 31
0.0
  0
LINE
  8
0
 62
     0
 10
140.969
 20
112.812
 30
0.0
 11
140.969
 21
107.012
 31
0.0
  0
LINE
  8
0
 62
     0
 10
140.969
 20
107.012
 30
0.0
 11
140.17
 21
107.012
 31
0.0
  0
LINE
  8
0
 62
     0
 10
140.17
 20
107.012
 30
0.0
 11
140.17
 21
103.911
 31
0.0
  0
LINE
  8
0
 62
     0
 10
140.17
 20
103.911
 30
0.0
 11
140.969
 21
103.911
 31
0.0
  0
LINE
  8
0
 62
     0
 10
140.969
 20
103.911
 30
0.0
 11
140.969
 21
102.911
 31
0.0
  0
LINE
  8
0
 62
     0
 10
140.969
 20
102.911
 30
0.0
 11
154.97
 21
102.911
 31
0.0
  0
LINE
  8
0
 62
     0
 10
154.97
 20
102.911
 30
0.0
 11
154.97
 21
103.911
 31
0.0
  0
LINE
  8
0
 62
     0
 10
154.97
 20
103.911
 30
0.0
 11
155.769
 21
103.911
 31
0.0
  0
LINE
  8
0
 62
     0
 10
155.769
 20
103.911
 30
0.0
 11
155.769
 21
107.012
 31
0.0
  0
LINE
  8
0
 62
     0
 10
155.769
 20
107.012
 30
0.0
 11
154.97
 21
107.012
 31
0.0
  0
LINE
  8
0
 62
     0
 10
154.97
 20
107.012
 30
0.0
 11
154.97
 21
112.812
 31
0.0
  0
LINE
  8
0
 62
     0
 10
154.97
 20
112.812
 30
0.0
 11
155.769
 21
112.812
 31
0.0
  0
LINE
  8
0
 62
     0
 10
155.769
 20
112.812
 30
0.0
 11
155.769
 21
115.912
 31
0.0
  0
LINE
  8
0
 62
     0
 10
155.769
 20
115.912
 30
0.0
 11
154.97
 21
115.912
 31
0.0
  0
LINE
  8
0
 62
     0
 10
154.97
 20
115.912
 30
0.0
 11
154.97
 21
116.911
 31
0.0
  0
LINE
  8
0
 62
     0
 10
154.97
 20
116.911
 30
0.0
 11
140.969
 21
116.911
 31
0.0
  0
LINE
  8
0
 62
     0
 10
121.919
 20
116.911
 30
0.0
 11
121.919
 21
115.912
 31
0.0
  0
LINE
  8
0
 62
     0
 10
121.919
 20
115.912
 30
0.0
 11
121.118
 21
115.912
 31
0.0
  0
LINE
  8
0
 62
     0
 10
121.118
 20
115.912
 30
0.0
 11
121.118
 21
112.812
 31
0.0
  0
LINE
  8
0
 62
     0
 10
121.118
 20
112.812
 30
0.0
 11
121.919
 21
112.812
 31
0.0
  0
LINE
  8
0
 62
     0
 10
121.919
 20
112.812
 30
0.0
 11
121.919
 21
107.012
 31
0.0
  0
LINE
  8
0
 62
     0
 10
121.919
 20
107.012
 30
0.0
 11
121.118
 21
107.012
 31
0.0
  0
LINE
  8
0
 62
     0
 10
121.118
 20
107.012
 30
0.0
 11
121.118
 21
103.911
 31
0.0
  0
LINE
  8
0
 62
     0
 10
121.118
 20
103.911
 30
0.0
 11
121.919
 21
103.911
 31
0.0
  0
LINE
  8
0
 62
     0
 10
121.919
 20
103.911
 30
0.0
 11
121.919
 21
102.911
 31
0.0
  0
LINE
  8
0
 62
     0
 10
121.919
 20
102.911
 30
0.0
 11
135.92
 21
102.911
 31
0.0
  0
LINE
  8
0
 62
     0
 10
135.92
 20
102.911
 30
0.0
 11
135.92
 21
103.911
 31
0.0
  0
LINE
  8
0
 62
     0
 10
135.92
 20
103.911
 30
0.0
 11
136.719
 21
103.911
 31
0.0
  0
LINE
  8
0
 62
     0
 10
136.719
 20
103.911
 30
0.0
 11
136.719
 21
107.012
 31
0.0
  0
LINE
  8
0
 62
     0
 10
136.719
 20
107.012
 30
0.0
 11
135.92
 21
107.012
 31
0.0
  0
LINE
  8
0
 62
     0
 10
135.92
 20
107.012
 30
0.0
 11
135.92
 21
112.812
 31
0.0
  0
LINE
  8
0
 62
     0
 10
135.92
 20
112.812
 30
0.0
 11
136.719
 21
112.812
 31
0.0
  0
LINE
  8
0
 62
     0
 10
136.719
 20
112.812
 30
0.0
 11
136.719
 21
115.912
 31
0.0
  0
LINE
  8
0
 62
     0
 10
136.719
 20
115.912
 30
0.0
 11
135.92
 21
115.912
 31
0.0
  0
LINE
  8
0
 62
     0
 10
135.92
 20
115.912
 30
0.0
 11
135.92
 21
116.911
 31
0.0
  0
LINE
  8
0
 62
     0
 10
135.92
 20
116.911
 30
0.0
 11
121.919
 21
116.911
 31
0.0
  0
LINE
  8
0
 62
     0
 10
102.869
 20
116.911
 30
0.0
 11
102.869
 21
115.912
 31
0.0
  0
LINE
  8
0
 62
     0
 10
102.869
 20
115.912
 30
0.0
 11
102.07
 21
115.912
 31
0.0
  0
LINE
  8
0
 62
     0
 10
102.07
 20
115.912
 30
0.0
 11
102.07
 21
112.812
 31
0.0
  0
LINE
  8
0
 62
     0
 10
102.07
 20
112.812
 30
0.0
 11
102.869
 21
112.812
 31
0.0
  0
LINE
  8
0
 62
     0
 10
102.869
 20
112.812
 30
0.0
 11
102.869
 21
107.012
 31
0.0
  0
LINE
  8
0
 62
     0
 10
102.869
 20
107.012
 30
0.0
 11
102.07
 21
107.012
 31
0.0
  0
LINE
  8
0
 62
     0
 10
102.07
 20
107.012
 30
0.0
 11
102.07
 21
103.911
 31
0.0
  0
LINE
  8
0
 62
     0
 10
102.07
 20
103.911
 30
0.0
 11
102.869
 21
103.911
 31
0.0
  0
LINE
  8
0
 62
     0
 10
102.869
 20
103.911
 30
0.0
 11
102.869
 21
102.911
 31
0.0
  0
LINE
  8
0
 62
     0
 10
102.869
 20
102.911
 30
0.0
 11
116.869
 21
102.911
 31
0.0
  0
LINE
  8
0
 62
     0
 10
116.869
 20
102.911
 30
0.0
 11
116.869
 21
103.911
 31
0.0
  0
LINE
  8
0
 62
     0
 10
116.869
 20
103.911
 30
0.0
 11
117.668
 21
103.911
 31
0.0
  0
LINE
  8
0
 62
     0
 10
117.668
 20
103.911
 30
0.0
 11
117.668
 21
107.012
 31
0.0
  0
LINE
  8
0
 62
     0
 10
117.668
 20
107.012
 30
0.0
 11
116.869
 21
107.012
 31
0.0
  0
LINE
  8
0
 62
     0
 10
116.869
 20
107.012
 30
0.0
 11
116.869
 21
112.812
 31
0.0
  0
LINE
  8
0
 62
     0
 10
116.869
 20
112.812
 30
0.0
 11
117.668
 21
112.812
 31
0.0
  0
LINE
  8
0
 62
     0
 10
117.668
 20
112.812
 30
0.0
 11
117.668
 21
115.912
 31
0.0
  0
LINE
  8
0
 62
     0
 10
117.668
 20
115.912
 30
0.0
 11
116.869
 21
115.912
 31
0.0
  0
LINE
  8
0
 62
     0
 10
116.869
 20
115.912
 30
0.0
 11
116.869
 21
116.911
 31
0.0
  0
LINE
  8
0
 62
     0
 10
116.869
 20
116.911
 30
0.0
 11
102.869
 21
116.911
 31
0.0
  0
LINE
  8
0
 62
     0
 10
83.8193
 20
116.911
 30
0.0
 11
83.8193
 21
115.912
 31
0.0
  0
LINE
  8
0
 62
     0
 10
83.8193
 20
115.912
 30
0.0
 11
83.0199
 21
115.912
 31
0.0
  0
LINE
  8
0
 62
     0
 10
83.0199
 20
115.912
 30
0.0
 11
83.0199
 21
112.812
 31
0.0
  0
LINE
  8
0
 62
     0
 10
83.0199
 20
112.812
 30
0.0
 11
83.8193
 21
112.812
 31
0.0
  0
LINE
  8
0
 62
     0
 10
83.8193
 20
112.812
 30
0.0
 11
83.8193
 21
107.012
 31
0.0
  0
LINE
  8
0
 62
     0
 10
83.8193
 20
107.012
 30
0.0
 11
83.0199
 21
107.012
 31
0.0
  0
LINE
  8
0
 62
     0
 10
83.0199
 20
107.012
 30
0.0
 11
83.0199
 21
103.911
 31
0.0
  0
LINE
  8
0
 62
     0
 10
83.0199
 20
103.911
 30
0.0
 11
83.8193
 21
103.911
 31
0.0
  0
LINE
  8
0
 62
     0
 10
83.8193
 20
103.911
 30
0.0
 11
83.8193
 21
102.911
 31
0.0
  0
LINE
  8
0
 62
     0
 10
83.8193
 20
102.911
 30
0.0
 11
97.82
 21
102.911
 31
0.0
  0
LINE
  8
0
 62
     0
 10
97.82
 20
102.911
 30
0.0
 11
97.82
 21
103.911
 31
0.0
  0
LINE
  8
0
 62
     0
 10
97.82
 20
103.911
 30
0.0
 11
98.618
 21
103.911
 31
0.0
  0
LINE
  8
0
 62
     0
 10
98.618
 20
103.911
 30
0.0
 11
98.618
 21
107.012
 31
0.0
  0
LINE
  8
0
 62
     0
 10
98.618
 20
107.012
 30
0.0
 11
97.82
 21
107.012
 31
0.0
  0
LINE
  8
0
 62
     0
 10
97.82
 20
107.012
 30
0.0
 11
97.82
 21
112.812
 31
0.0
  0
LINE
  8
0
 62
     0
 10
97.82
 20
112.812
 30
0.0
 11
98.618
 21
112.812
 31
0.0
  0
LINE
  8
0
 62
     0
 10
98.618
 20
112.812
 30
0.0
 11
98.618
 21
115.912
 31
0.0
  0
LINE
  8
0
 62
     0
 10
98.618
 20
115.912
 30
0.0
 11
97.82
 21
115.912
 31
0.0
  0
LINE
  8
0
 62
     0
 10
97.82
 20
115.912
 30
0.0
 11
97.82
 21
116.911
 31
0.0
  0
LINE
  8
0
 62
     0
 10
97.82
 20
116.911
 30
0.0
 11
83.8193
 21
116.911
 31
0.0
  0
LINE
  8
0
 62
     0
 10
64.7693
 20
116.911
 30
0.0
 11
64.7693
 21
115.912
 31
0.0
  0
LINE
  8
0
 62
     0
 10
64.7693
 20
115.912
 30
0.0
 11
63.9699
 21
115.912
 31
0.0
  0
LINE
  8
0
 62
     0
 10
63.9699
 20
115.912
 30
0.0
 11
63.9699
 21
112.812
 31
0.0
  0
LINE
  8
0
 62
     0
 10
63.9699
 20
112.812
 30
0.0
 11
64.7693
 21
112.812
 31
0.0
  0
LINE
  8
0
 62
     0
 10
64.7693
 20
112.812
 30
0.0
 11
64.7693
 21
107.012
 31
0.0
  0
LINE
  8
0
 62
     0
 10
64.7693
 20
107.012
 30
0.0
 11
63.9699
 21
107.012
 31
0.0
  0
LINE
  8
0
 62
     0
 10
63.9699
 20
107.012
 30
0.0
 11
63.9699
 21
103.911
 31
0.0
  0
LINE
  8
0
 62
     0
 10
63.9699
 20
103.911
 30
0.0
 11
64.7693
 21
103.911
 31
0.0
  0
LINE
  8
0
 62
     0
 10
64.7693
 20
103.911
 30
0.0
 11
64.7693
 21
102.911
 31
0.0
  0
LINE
  8
0
 62
     0
 10
64.7693
 20
102.911
 30
0.0
 11
78.77
 21
102.911
 31
0.0
  0
LINE
  8
0
 62
     0
 10
78.77
 20
102.911
 30
0.0
 11
78.77
 21
103.911
 31
0.0
  0
LINE
  8
0
 62
     0
 10
78.77
 20
103.911
 30
0.0
 11
79.5694
 21
103.911
 31
0.0
  0
LINE
  8
0
 62
     0
 10
79.5694
 20
103.911
 30
0.0
 11
79.5694
 21
107.012
 31
0.0
  0
LINE
  8
0
 62
     0
 10
79.5694
 20
107.012
 30
0.0
 11
78.77
 21
107.012
 31
0.0
  0
LINE
  8
0
 62
     0
 10
78.77
 20
107.012
 30
0.0
 11
78.77
 21
112.812
 31
0.0
  0
LINE
  8
0
 62
     0
 10
78.77
 20
112.812
 30
0.0
 11
79.5694
 21
112.812
 31
0.0
  0
LINE
  8
0
 62
     0
 10
79.5694
 20
112.812
 30
0.0
 11
79.5694
 21
115.912
 31
0.0
  0
LINE
  8
0
 62
     0
 10
79.5694
 20
115.912
 30
0.0
 11
78.77
 21
115.912
 31
0.0
  0
LINE
  8
0
 62
     0
 10
78.77
 20
115.912
 30
0.0
 11
78.77
 21
116.911
 31
0.0
  0
LINE
  8
0
 62
     0
 10
78.77
 20
116.911
 30
0.0
 11
64.7693
 21
116.911
 31
0.0
  0
LINE
  8
0
 62
     0
 10
45.7193
 20
116.911
 30
0.0
 11
45.7193
 21
115.912
 31
0.0
  0
LINE
  8
0
 62
     0
 10
45.7193
 20
115.912
 30
0.0
 11
44.9199
 21
115.912
 31
0.0
  0
LINE
  8
0
 62
     0
 10
44.9199
 20
115.912
 30
0.0
 11
44.9199
 21
112.812
 31
0.0
  0
LINE
  8
0
 62
     0
 10
44.9199
 20
112.812
 30
0.0
 11
45.7193
 21
112.812
 31
0.0
  0
LINE
  8
0
 62
     0
 10
45.7193
 20
112.812
 30
0.0
 11
45.7193
 21
107.012
 31
0.0
  0
LINE
  8
0
 62
     0
 10
45.7193
 20
107.012
 30
0.0
 11
44.9199
 21
107.012
 31
0.0
  0
LINE
  8
0
 62
     0
 10
44.9199
 20
107.012
 30
0.0
 11
44.9199
 21
103.911
 31
0.0
  0
LINE
  8
0
 62
     0
 10
44.9199
 20
103.911
 30
0.0
 11
45.7193
 21
103.911
 31
0.0
  0
LINE
  8
0
 62
     0
 10
45.7193
 20
103.911
 30
0.0
 11
45.7193
 21
102.911
 31
0.0
  0
LINE
  8
0
 62
     0
 10
45.7193
 20
102.911
 30
0.0
 11
59.72
 21
102.911
 31
0.0
  0
LINE
  8
0
 62
     0
 10
59.72
 20
102.911
 30
0.0
 11
59.72
 21
103.911
 31
0.0
  0
LINE
  8
0
 62
     0
 10
59.72
 20
103.911
 30
0.0
 11
60.5194
 21
103.911
 31
0.0
  0
LINE
  8
0
 62
     0
 10
60.5194
 20
103.911
 30
0.0
 11
60.5194
 21
107.012
 31
0.0
  0
LINE
  8
0
 62
     0
 10
60.5194
 20
107.012
 30
0.0
 11
59.72
 21
107.012
 31
0.0
  0
LINE
  8
0
 62
     0
 10
59.72
 20
107.012
 30
0.0
 11
59.72
 21
112.812
 31
0.0
  0
LINE
  8
0
 62
     0
 10
59.72
 20
112.812
 30
0.0
 11
60.5194
 21
112.812
 31
0.0
  0
LINE
  8
0
 62
     0
 10
60.5194
 20
112.812
 30
0.0
 11
60.5194
 21
115.912
 31
0.0
  0
LINE
  8
0
 62
     0
 10
60.5194
 20
115.912
 30
0.0
 11
59.72
 21
115.912
 31
0.0
  0
LINE
  8
0
 62
     0
 10
59.72
 20
115.912
 30
0.0
 11
59.72
 21
116.911
 31
0.0
  0
LINE
  8
0
 62
     0
 10
59.72
 20
116.911
 30
0.0
 11
45.7193
 21
116.911
 31
0.0
  0
LINE
  8
0
 62
     0
 10
26.6692
 20
116.911
 30
0.0
 11
26.6692
 21
115.912
 31
0.0
  0
LINE
  8
0
 62
     0
 10
26.6692
 20
115.912
 30
0.0
 11
25.8699
 21
115.912
 31
0.0
  0
LINE
  8
0
 62
     0
 10
25.8699
 20
115.912
 30
0.0
 11
25.8699
 21
112.812
 31
0.0
  0
LINE
  8
0
 62
     0
 10
25.8699
 20
112.812
 30
0.0
 11
26.6692
 21
112.812
 31
0.0
  0
LINE
  8
0
 62
     0
 10
26.6692
 20
112.812
 30
0.0
 11
26.6692
 21
107.012
 31
0.0
  0
LINE
  8
0
 62
     0
 10
26.6692
 20
107.012
 30
0.0
 11
25.8699
 21
107.012
 31
0.0
  0
LINE
  8
0
 62
     0
 10
25.8699
 20
107.012
 30
0.0
 11
25.8699
 21
103.911
 31
0.0
  0
LINE
  8
0
 62
     0
 10
25.8699
 20
103.911
 30
0.0
 11
26.6692
 21
103.911
 31
0.0
  0
LINE
  8
0
 62
     0
 10
26.6692
 20
103.911
 30
0.0
 11
26.6692
 21
102.911
 31
0.0
  0
LINE
  8
0
 62
     0
 10
26.6692
 20
102.911
 30
0.0
 11
40.67
 21
102.911
 31
0.0
  0
LINE
  8
0
 62
     0
 10
40.67
 20
102.911
 30
0.0
 11
40.67
 21
103.911
 31
0.0
  0
LINE
  8
0
 62
     0
 10
40.67
 20
103.911
 30
0.0
 11
41.4694
 21
103.911
 31
0.0
  0
LINE
  8
0
 62
     0
 10
41.4694
 20
103.911
 30
0.0
 11
41.4694
 21
107.012
 31
0.0
  0
LINE
  8
0
 62
     0
 10
41.4694
 20
107.012
 30
0.0
 11
40.67
 21
107.012
 31
0.0
  0
LINE
  8
0
 62
     0
 10
40.67
 20
107.012
 30
0.0
 11
40.67
 21
112.812
 31
0.0
  0
LINE
  8
0
 62
     0
 10
40.67
 20
112.812
 30
0.0
 11
41.4694
 21
112.812
 31
0.0
  0
LINE
  8
0
 62
     0
 10
41.4694
 20
112.812
 30
0.0
 11
41.4694
 21
115.912
 31
0.0
  0
LINE
  8
0
 62
     0
 10
41.4694
 20
115.912
 30
0.0
 11
40.67
 21
115.912
 31
0.0
  0
LINE
  8
0
 62
     0
 10
40.67
 20
115.912
 30
0.0
 11
40.67
 21
116.911
 31
0.0
  0
LINE
  8
0
 62
     0
 10
40.67
 20
116.911
 30
0.0
 11
26.6692
 21
116.911
 31
0.0
  0
LINE
  8
0
 62
     0
 10
7.61919
 20
116.911
 30
0.0
 11
7.61919
 21
115.912
 31
0.0
  0
LINE
  8
0
 62
     0
 10
7.61919
 20
115.912
 30
0.0
 11
6.81852
 21
115.912
 31
0.0
  0
LINE
  8
0
 62
     0
 10
6.81852
 20
115.912
 30
0.0
 11
6.81852
 21
112.812
 31
0.0
  0
LINE
  8
0
 62
     0
 10
6.81852
 20
112.812
 30
0.0
 11
7.61919
 21
112.812
 31
0.0
  0
LINE
  8
0
 62
     0
 10
7.61919
 20
112.812
 30
0.0
 11
7.61919
 21
107.012
 31
0.0
  0
LINE
  8
0
 62
     0
 10
7.61919
 20
107.012
 30
0.0
 11
6.81852
 21
107.012
 31
0.0
  0
LINE
  8
0
 62
     0
 10
6.81852
 20
107.012
 30
0.0
 11
6.81852
 21
103.911
 31
0.0
  0
LINE
  8
0
 62
     0
 10
6.81852
 20
103.911
 30
0.0
 11
7.61919
 21
103.911
 31
0.0
  0
LINE
  8
0
 62
     0
 10
7.61919
 20
103.911
 30
0.0
 11
7.61919
 21
102.911
 31
0.0
  0
LINE
  8
0
 62
     0
 10
7.61919
 20
102.911
 30
0.0
 11
21.6201
 21
102.911
 31
0.0
  0
LINE
  8
0
 62
     0
 10
21.6201
 20
102.911
 30
0.0
 11
21.6201
 21
103.911
 31
0.0
  0
LINE
  8
0
 62
     0
 10
21.6201
 20
103.911
 30
0.0
 11
22.4193
 21
103.911
 31
0.0
  0
LINE
  8
0
 62
     0
 10
22.4193
 20
103.911
 30
0.0
 11
22.4193
 21
107.012
 31
0.0
  0
LINE
  8
0
 62
     0
 10
22.4193
 20
107.012
 30
0.0
 11
21.6201
 21
107.012
 31
0.0
  0
LINE
  8
0
 62
     0
 10
21.6201
 20
107.012
 30
0.0
 11
21.6201
 21
112.812
 31
0.0
  0
LINE
  8
0
 62
     0
 10
21.6201
 20
112.812
 30
0.0
 11
22.4193
 21
112.812
 31
0.0
  0
LINE
  8
0
 62
     0
 10
22.4193
 20
112.812
 30
0.0
 11
22.4193
 21
115.912
 31
0.0
  0
LINE
  8
0
 62
     0
 10
22.4193
 20
115.912
 30
0.0
 11
21.6201
 21
115.912
 31
0.0
  0
LINE
  8
0
 62
     0
 10
21.6201
 20
115.912
 30
0.0
 11
21.6201
 21
116.911
 31
0.0
  0
LINE
  8
0
 62
     0
 10
21.6201
 20
116.911
 30
0.0
 11
7.61919
 21
116.911
 31
0.0
  0
LINE
  8
0
 62
     0
 10
1.97611
 20
123.839
 30
0.0
 11
1.418
 21
123.555
 31
0.0
  0
LINE
  8
0
 62
     0
 10
1.418
 20
123.555
 30
0.0
 11
0.975653
 21
123.112
 31
0.0
  0
LINE
  8
0
 62
     0
 10
0.975653
 20
123.112
 30
0.0
 11
0.691776
 21
122.554
 31
0.0
  0
LINE
  8
0
 62
     0
 10
0.691776
 20
122.554
 30
0.0
 11
0.593933
 21
121.936
 31
0.0
  0
LINE
  8
0
 62
     0
 10
0.593933
 20
121.936
 30
0.0
 11
0.691776
 21
121.319
 31
0.0
  0
LINE
  8
0
 62
     0
 10
0.691776
 20
121.319
 30
0.0
 11
0.975653
 21
120.761
 31
0.0
  0
LINE
  8
0
 62
     0
 10
0.975653
 20
120.761
 30
0.0
 11
1.418
 21
120.318
 31
0.0
  0
LINE
  8
0
 62
     0
 10
1.418
 20
120.318
 30
0.0
 11
1.97611
 21
120.034
 31
0.0
  0
LINE
  8
0
 62
     0
 10
1.97611
 20
120.034
 30
0.0
 11
2.59485
 21
119.936
 31
0.0
  0
LINE
  8
0
 62
     0
 10
2.59485
 20
119.936
 30
0.0
 11
3.21221
 21
120.034
 31
0.0
  0
LINE
  8
0
 62
     0
 10
3.21221
 20
120.034
 30
0.0
 11
3.76894
 21
120.318
 31
0.0
  0
LINE
  8
0
 62
     0
 10
3.76894
 20
120.318
 30
0.0
 11
4.21266
 21
120.761
 31
0.0
  0
LINE
  8
0
 62
     0
 10
4.21266
 20
120.761
 30
0.0
 11
4.49654
 21
121.319
 31
0.0
  0
LINE
  8
0
 62
     0
 10
4.49654
 20
121.319
 30
0.0
 11
4.59437
 21
121.936
 31
0.0
  0
LINE
  8
0
 62
     0
 10
4.59437
 20
121.936
 30
0.0
 11
4.49654
 21
122.554
 31
0.0
  0
LINE
  8
0
 62
     0
 10
4.49654
 20
122.554
 30
0.0
 11
4.21266
 21
123.112
 31
0.0
  0
LINE
  8
0
 62
     0
 10
4.21266
 20
123.112
 30
0.0
 11
3.76894
 21
123.555
 31
0.0
  0
LINE
  8
0
 62
     0
 10
3.76894
 20
123.555
 30
0.0
 11
3.21221
 21
123.839
 31
0.0
  0
LINE
  8
0
 62
     0
 10
3.21221
 20
123.839
 30
0.0
 11
2.59485
 21
123.936
 31
0.0
  0
LINE
  8
0
 62
     0
 10
2.59485
 20
123.936
 30
0.0
 11
1.97611
 21
123.839
 31
0.0
  0
LINE
  8
0
 62
     0
 10
330.827
 20
123.839
 30
0.0
 11
330.269
 21
123.555
 31
0.0
  0
LINE
  8
0
 62
     0
 10
330.269
 20
123.555
 30
0.0
 11
329.826
 21
123.112
 31
0.0
  0
LINE
  8
0
 62
     0
 10
329.826
 20
123.112
 30
0.0
 11
329.543
 21
122.554
 31
0.0
  0
LINE
  8
0
 62
     0
 10
329.543
 20
122.554
 30
0.0
 11
329.445
 21
121.936
 31
0.0
  0
LINE
  8
0
 62
     0
 10
329.445
 20
121.936
 30
0.0
 11
329.543
 21
121.319
 31
0.0
  0
LINE
  8
0
 62
     0
 10
329.543
 20
121.319
 30
0.0
 11
329.826
 21
120.761
 31
0.0
  0
LINE
  8
0
 62
     0
 10
329.826
 20
120.761
 30
0.0
 11
330.269
 21
120.318
 31
0.0
  0
LINE
  8
0
 62
     0
 10
330.269
 20
120.318
 30
0.0
 11
330.827
 21
120.034
 31
0.0
  0
LINE
  8
0
 62
     0
 10
330.827
 20
120.034
 30
0.0
 11
331.446
 21
119.936
 31
0.0
  0
LINE
  8
0
 62
     0
 10
331.446
 20
119.936
 30
0.0
 11
332.063
 21
120.034
 31
0.0
  0
LINE
  8
0
 62
     0
 10
332.063
 20
120.034
 30
0.0
 11
332.62
 21
120.318
 31
0.0
  0
LINE
  8
0
 62
     0
 10
332.62
 20
120.318
 30
0.0
 11
333.064
 21
120.761
 31
0.0
  0
LINE
  8
0
 62
     0
 10
333.064
 20
120.761
 30
0.0
 11
333.347
 21
121.319
 31
0.0
  0
LINE
  8
0
 62
     0
 10
333.347
 20
121.319
 30
0.0
 11
333.445
 21
121.936
 31
0.0
  0
LINE
  8
0
 62
     0
 10
333.445
 20
121.936
 30
0.0
 11
333.347
 21
122.554
 31
0.0
  0
LINE
  8
0
 62
     0
 10
333.347
 20
122.554
 30
0.0
 11
333.064
 21
123.112
 31
0.0
  0
LINE
  8
0
 62
     0
 10
333.064
 20
123.112
 30
0.0
 11
332.62
 21
123.555
 31
0.0
  0
LINE
  8
0
 62
     0
 10
332.62
 20
123.555
 30
0.0
 11
332.063
 21
123.839
 31
0.0
  0
LINE
  8
0
 62
     0
 10
332.063
 20
123.839
 30
0.0
 11
331.446
 21
123.936
 31
0.0
  0
LINE
  8
0
 62
     0
 10
331.446
 20
123.936
 30
0.0
 11
330.827
 21
123.839
 31
0.0
  0
LINE
  8
0
 62
     0
 10
221.21
 20
123.839
 30
0.0
 11
220.653
 21
123.555
 31
0.0
  0
LINE
  8
0
 62
     0
 10
220.653
 20
123.555
 30
0.0
 11
220.209
 21
123.112
 31
0.0
  0
LINE
  8
0
 62
     0
 10
220.209
 20
123.112
 30
0.0
 11
219.925
 21
122.554
 31
0.0
  0
LINE
  8
0
 62
     0
 10
219.925
 20
122.554
 30
0.0
 11
219.829
 21
121.936
 31
0.0
  0
LINE
  8
0
 62
     0
 10
219.829
 20
121.936
 30
0.0
 11
219.925
 21
121.319
 31
0.0
  0
LINE
  8
0
 62
     0
 10
219.925
 20
121.319
 30
0.0
 11
220.209
 21
120.761
 31
0.0
  0
LINE
  8
0
 62
     0
 10
220.209
 20
120.761
 30
0.0
 11
220.653
 21
120.318
 31
0.0
  0
LINE
  8
0
 62
     0
 10
220.653
 20
120.318
 30
0.0
 11
221.21
 21
120.034
 31
0.0
  0
LINE
  8
0
 62
     0
 10
221.21
 20
120.034
 30
0.0
 11
221.828
 21
119.936
 31
0.0
  0
LINE
  8
0
 62
     0
 10
221.828
 20
119.936
 30
0.0
 11
222.447
 21
120.034
 31
0.0
  0
LINE
  8
0
 62
     0
 10
222.447
 20
120.034
 30
0.0
 11
223.004
 21
120.318
 31
0.0
  0
LINE
  8
0
 62
     0
 10
223.004
 20
120.318
 30
0.0
 11
223.446
 21
120.761
 31
0.0
  0
LINE
  8
0
 62
     0
 10
223.446
 20
120.761
 30
0.0
 11
223.73
 21
121.319
 31
0.0
  0
LINE
  8
0
 62
     0
 10
223.73
 20
121.319
 30
0.0
 11
223.828
 21
121.936
 31
0.0
  0
LINE
  8
0
 62
     0
 10
223.828
 20
121.936
 30
0.0
 11
223.73
 21
122.554
 31
0.0
  0
LINE
  8
0
 62
     0
 10
223.73
 20
122.554
 30
0.0
 11
223.446
 21
123.112
 31
0.0
  0
LINE
  8
0
 62
     0
 10
223.446
 20
123.112
 30
0.0
 11
223.004
 21
123.555
 31
0.0
  0
LINE
  8
0
 62
     0
 10
223.004
 20
123.555
 30
0.0
 11
222.447
 21
123.839
 31
0.0
  0
LINE
  8
0
 62
     0
 10
222.447
 20
123.839
 30
0.0
 11
221.828
 21
123.936
 31
0.0
  0
LINE
  8
0
 62
     0
 10
221.828
 20
123.936
 30
0.0
 11
221.21
 21
123.839
 31
0.0
  0
LINE
  8
0
 62
     0
 10
111.592
 20
123.839
 30
0.0
 11
111.035
 21
123.555
 31
0.0
  0
LINE
  8
0
 62
     0
 10
111.035
 20
123.555
 30
0.0
 11
110.593
 21
123.112
 31
0.0
  0
LINE
  8
0
 62
     0
 10
110.593
 20
123.112
 30
0.0
 11
110.308
 21
122.554
 31
0.0
  0
LINE
  8
0
 62
     0
 10
110.308
 20
122.554
 30
0.0
 11
110.211
 21
121.936
 31
0.0
  0
LINE
  8
0
 62
     0
 10
110.211
 20
121.936
 30
0.0
 11
110.308
 21
121.319
 31
0.0
  0
LINE
  8
0
 62
     0
 10
110.308
 20
121.319
 30
0.0
 11
110.593
 21
120.761
 31
0.0
  0
LINE
  8
0
 62
     0
 10
110.593
 20
120.761
 30
0.0
 11
111.035
 21
120.318
 31
0.0
  0
LINE
  8
0
 62
     0
 10
111.035
 20
120.318
 30
0.0
 11
111.592
 21
120.034
 31
0.0
  0
LINE
  8
0
 62
     0
 10
111.592
 20
120.034
 30
0.0
 11
112.211
 21
119.936
 31
0.0
  0
LINE
  8
0
 62
     0
 10
112.211
 20
119.936
 30
0.0
 11
112.83
 21
120.034
 31
0.0
  0
LINE
  8
0
 62
     0
 10
112.83
 20
120.034
 30
0.0
 11
113.386
 21
120.318
 31
0.0
  0
LINE
  8
0
 62
     0
 10
113.386
 20
120.318
 30
0.0
 11
113.83
 21
120.761
 31
0.0
  0
LINE
  8
0
 62
     0
 10
113.83
 20
120.761
 30
0.0
 11
114.114
 21
121.319
 31
0.0
  0
LINE
  8
0
 62
     0
 10
114.114
 20
121.319
 30
0.0
 11
114.212
 21
121.936
 31
0.0
  0
LINE
  8
0
 62
     0
 10
114.212
 20
121.936
 30
0.0
 11
114.114
 21
122.554
 31
0.0
  0
LINE
  8
0
 62
     0
 10
114.114
 20
122.554
 30
0.0
 11
113.83
 21
123.112
 31
0.0
  0
LINE
  8
0
 62
     0
 10
113.83
 20
123.112
 30
0.0
 11
113.386
 21
123.555
 31
0.0
  0
LINE
  8
0
 62
     0
 10
113.386
 20
123.555
 30
0.0
 11
112.83
 21
123.839
 31
0.0
  0
LINE
  8
0
 62
     0
 10
112.83
 20
123.839
 30
0.0
 11
112.211
 21
123.936
 31
0.0
  0
LINE
  8
0
 62
     0
 10
112.211
 20
123.936
 30
0.0
 11
111.592
 21
123.839
 31
0.0
  0
ENDSEC
  0
EOF
