%TF.GenerationSoftware,KiCad,Pcbnew,(5.1.9)-1*%
%TF.CreationDate,2021-05-17T13:38:32-04:00*%
%TF.ProjectId,rnm-75E,726e6d2d-3735-4452-9e6b-696361645f70,rev?*%
%TF.SameCoordinates,Original*%
%TF.FileFunction,Legend,Top*%
%TF.FilePolarity,Positive*%
%FSLAX46Y46*%
G04 Gerber Fmt 4.6, Leading zero omitted, Abs format (unit mm)*
G04 Created by KiCad (PCBNEW (5.1.9)-1) date 2021-05-17 13:38:32*
%MOMM*%
%LPD*%
G01*
G04 APERTURE LIST*
%ADD10C,0.150000*%
%ADD11C,0.120000*%
G04 APERTURE END LIST*
D10*
X360935922Y-101427380D02*
X360912113Y-101617857D01*
X361316875Y-101427380D02*
X361293065Y-101617857D01*
X361620446Y-102427380D02*
X361745446Y-101427380D01*
X362846636Y-101760714D02*
X362953779Y-102427380D01*
X363203779Y-101951190D01*
X363334732Y-102427380D01*
X363608541Y-101760714D01*
X364334732Y-102427380D02*
X364400208Y-101903571D01*
X364364494Y-101808333D01*
X364275208Y-101760714D01*
X364084732Y-101760714D01*
X363983541Y-101808333D01*
X364340684Y-102379761D02*
X364239494Y-102427380D01*
X364001398Y-102427380D01*
X363912113Y-102379761D01*
X363876398Y-102284523D01*
X363888303Y-102189285D01*
X363947827Y-102094047D01*
X364049017Y-102046428D01*
X364287113Y-102046428D01*
X364388303Y-101998809D01*
X364769255Y-102379761D02*
X364858541Y-102427380D01*
X365049017Y-102427380D01*
X365150208Y-102379761D01*
X365209732Y-102284523D01*
X365215684Y-102236904D01*
X365179970Y-102141666D01*
X365090684Y-102094047D01*
X364947827Y-102094047D01*
X364858541Y-102046428D01*
X364822827Y-101951190D01*
X364828779Y-101903571D01*
X364888303Y-101808333D01*
X364989494Y-101760714D01*
X365132351Y-101760714D01*
X365221636Y-101808333D01*
X366525208Y-102427380D02*
X366435922Y-102379761D01*
X366394255Y-102332142D01*
X366358541Y-102236904D01*
X366394255Y-101951190D01*
X366453779Y-101855952D01*
X366507351Y-101808333D01*
X366608541Y-101760714D01*
X366751398Y-101760714D01*
X366840684Y-101808333D01*
X366882351Y-101855952D01*
X366918065Y-101951190D01*
X366882351Y-102236904D01*
X366822827Y-102332142D01*
X366769255Y-102379761D01*
X366668065Y-102427380D01*
X366525208Y-102427380D01*
X367370446Y-101760714D02*
X367287113Y-102427380D01*
X367358541Y-101855952D02*
X367412113Y-101808333D01*
X367513303Y-101760714D01*
X367656160Y-101760714D01*
X367745446Y-101808333D01*
X367781160Y-101903571D01*
X367715684Y-102427380D01*
X368626398Y-102379761D02*
X368525208Y-102427380D01*
X368334732Y-102427380D01*
X368245446Y-102379761D01*
X368203779Y-102332142D01*
X368168065Y-102236904D01*
X368203779Y-101951190D01*
X368263303Y-101855952D01*
X368316875Y-101808333D01*
X368418065Y-101760714D01*
X368608541Y-101760714D01*
X368697827Y-101808333D01*
X369435922Y-102379761D02*
X369334732Y-102427380D01*
X369144255Y-102427380D01*
X369054970Y-102379761D01*
X369019255Y-102284523D01*
X369066875Y-101903571D01*
X369126398Y-101808333D01*
X369227589Y-101760714D01*
X369418065Y-101760714D01*
X369507351Y-101808333D01*
X369543065Y-101903571D01*
X369531160Y-101998809D01*
X369043065Y-102094047D01*
X370668065Y-102427380D02*
X370793065Y-101427380D01*
X371096636Y-102427380D02*
X371162113Y-101903571D01*
X371126398Y-101808333D01*
X371037113Y-101760714D01*
X370894255Y-101760714D01*
X370793065Y-101808333D01*
X370739494Y-101855952D01*
X371959732Y-102379761D02*
X371858541Y-102427380D01*
X371668065Y-102427380D01*
X371578779Y-102379761D01*
X371543065Y-102284523D01*
X371590684Y-101903571D01*
X371650208Y-101808333D01*
X371751398Y-101760714D01*
X371941875Y-101760714D01*
X372031160Y-101808333D01*
X372066875Y-101903571D01*
X372054970Y-101998809D01*
X371566875Y-102094047D01*
X372429970Y-102427380D02*
X372513303Y-101760714D01*
X372489494Y-101951190D02*
X372549017Y-101855952D01*
X372602589Y-101808333D01*
X372703779Y-101760714D01*
X372799017Y-101760714D01*
X373435922Y-102379761D02*
X373334732Y-102427380D01*
X373144255Y-102427380D01*
X373054970Y-102379761D01*
X373019255Y-102284523D01*
X373066875Y-101903571D01*
X373126398Y-101808333D01*
X373227589Y-101760714D01*
X373418065Y-101760714D01*
X373507351Y-101808333D01*
X373543065Y-101903571D01*
X373531160Y-101998809D01*
X373043065Y-102094047D01*
X374608541Y-101760714D02*
X374989494Y-101760714D01*
X374793065Y-101427380D02*
X374685922Y-102284523D01*
X374721636Y-102379761D01*
X374810922Y-102427380D01*
X374906160Y-102427380D01*
X375382351Y-102427380D02*
X375293065Y-102379761D01*
X375251398Y-102332142D01*
X375215684Y-102236904D01*
X375251398Y-101951190D01*
X375310922Y-101855952D01*
X375364494Y-101808333D01*
X375465684Y-101760714D01*
X375608541Y-101760714D01*
X375697827Y-101808333D01*
X375739494Y-101855952D01*
X375775208Y-101951190D01*
X375739494Y-102236904D01*
X375679970Y-102332142D01*
X375626398Y-102379761D01*
X375525208Y-102427380D01*
X375382351Y-102427380D01*
X376287113Y-102427380D02*
X376197827Y-102379761D01*
X376156160Y-102332142D01*
X376120446Y-102236904D01*
X376156160Y-101951190D01*
X376215684Y-101855952D01*
X376269255Y-101808333D01*
X376370446Y-101760714D01*
X376513303Y-101760714D01*
X376602589Y-101808333D01*
X376644255Y-101855952D01*
X376679970Y-101951190D01*
X376644255Y-102236904D01*
X376584732Y-102332142D01*
X376531160Y-102379761D01*
X376429970Y-102427380D01*
X376287113Y-102427380D01*
X377126398Y-101427380D02*
X377102589Y-101617857D01*
X377507351Y-101427380D02*
X377483541Y-101617857D01*
X367429970Y-103696428D02*
X368191875Y-103696428D01*
X368608541Y-103791666D02*
X369084732Y-103791666D01*
X368477589Y-104077380D02*
X368935922Y-103077380D01*
X369144255Y-104077380D01*
X369560922Y-103410714D02*
X369477589Y-104077380D01*
X369549017Y-103505952D02*
X369602589Y-103458333D01*
X369703779Y-103410714D01*
X369846636Y-103410714D01*
X369935922Y-103458333D01*
X369971636Y-103553571D01*
X369906160Y-104077380D01*
X370322827Y-103410714D02*
X370703779Y-103410714D01*
X370507351Y-103077380D02*
X370400208Y-103934523D01*
X370435922Y-104029761D01*
X370525208Y-104077380D01*
X370620446Y-104077380D01*
X370953779Y-104077380D02*
X371078779Y-103077380D01*
X371382351Y-104077380D02*
X371447827Y-103553571D01*
X371412113Y-103458333D01*
X371322827Y-103410714D01*
X371179970Y-103410714D01*
X371078779Y-103458333D01*
X371025208Y-103505952D01*
X372001398Y-104077380D02*
X371912113Y-104029761D01*
X371870446Y-103982142D01*
X371834732Y-103886904D01*
X371870446Y-103601190D01*
X371929970Y-103505952D01*
X371983541Y-103458333D01*
X372084732Y-103410714D01*
X372227589Y-103410714D01*
X372316875Y-103458333D01*
X372358541Y-103505952D01*
X372394255Y-103601190D01*
X372358541Y-103886904D01*
X372299017Y-103982142D01*
X372245446Y-104029761D01*
X372144255Y-104077380D01*
X372001398Y-104077380D01*
X372846636Y-103410714D02*
X372763303Y-104077380D01*
X372834732Y-103505952D02*
X372888303Y-103458333D01*
X372989494Y-103410714D01*
X373132351Y-103410714D01*
X373221636Y-103458333D01*
X373257351Y-103553571D01*
X373191875Y-104077380D01*
X373656160Y-103410714D02*
X373810922Y-104077380D01*
X374132351Y-103410714D02*
X373810922Y-104077380D01*
X373685922Y-104315476D01*
X373632351Y-104363095D01*
X373531160Y-104410714D01*
X375668065Y-104077380D02*
X375191875Y-104077380D01*
X375316875Y-103077380D01*
X376513303Y-103410714D02*
X376429970Y-104077380D01*
X376084732Y-103410714D02*
X376019255Y-103934523D01*
X376054970Y-104029761D01*
X376144255Y-104077380D01*
X376287113Y-104077380D01*
X376388303Y-104029761D01*
X376441875Y-103982142D01*
X377049017Y-104077380D02*
X376959732Y-104029761D01*
X376918065Y-103982142D01*
X376882351Y-103886904D01*
X376918065Y-103601190D01*
X376977589Y-103505952D01*
X377031160Y-103458333D01*
X377132351Y-103410714D01*
X377275208Y-103410714D01*
X377364494Y-103458333D01*
X377406160Y-103505952D01*
X377441875Y-103601190D01*
X377406160Y-103886904D01*
X377346636Y-103982142D01*
X377293065Y-104029761D01*
X377191875Y-104077380D01*
X377049017Y-104077380D01*
X63718511Y-94521130D02*
X63385178Y-94044940D01*
X63147083Y-94521130D02*
X63147083Y-93521130D01*
X63528035Y-93521130D01*
X63623273Y-93568750D01*
X63670892Y-93616369D01*
X63718511Y-93711607D01*
X63718511Y-93854464D01*
X63670892Y-93949702D01*
X63623273Y-93997321D01*
X63528035Y-94044940D01*
X63147083Y-94044940D01*
X64147083Y-94521130D02*
X64147083Y-93521130D01*
X64718511Y-94521130D01*
X64718511Y-93521130D01*
X65194702Y-94521130D02*
X65194702Y-93521130D01*
X65528035Y-94235416D01*
X65861369Y-93521130D01*
X65861369Y-94521130D01*
X66242321Y-93521130D02*
X66908988Y-93521130D01*
X66480416Y-94521130D01*
X67766130Y-93521130D02*
X67289940Y-93521130D01*
X67242321Y-93997321D01*
X67289940Y-93949702D01*
X67385178Y-93902083D01*
X67623273Y-93902083D01*
X67718511Y-93949702D01*
X67766130Y-93997321D01*
X67813750Y-94092559D01*
X67813750Y-94330654D01*
X67766130Y-94425892D01*
X67718511Y-94473511D01*
X67623273Y-94521130D01*
X67385178Y-94521130D01*
X67289940Y-94473511D01*
X67242321Y-94425892D01*
X68242321Y-93997321D02*
X68575654Y-93997321D01*
X68718511Y-94521130D02*
X68242321Y-94521130D01*
X68242321Y-93521130D01*
X68718511Y-93521130D01*
X69147083Y-94140178D02*
X69908988Y-94140178D01*
X70956607Y-94521130D02*
X70623273Y-94044940D01*
X70385178Y-94521130D02*
X70385178Y-93521130D01*
X70766130Y-93521130D01*
X70861369Y-93568750D01*
X70908988Y-93616369D01*
X70956607Y-93711607D01*
X70956607Y-93854464D01*
X70908988Y-93949702D01*
X70861369Y-93997321D01*
X70766130Y-94044940D01*
X70385178Y-94044940D01*
X71766130Y-94473511D02*
X71670892Y-94521130D01*
X71480416Y-94521130D01*
X71385178Y-94473511D01*
X71337559Y-94378273D01*
X71337559Y-93997321D01*
X71385178Y-93902083D01*
X71480416Y-93854464D01*
X71670892Y-93854464D01*
X71766130Y-93902083D01*
X71813750Y-93997321D01*
X71813750Y-94092559D01*
X71337559Y-94187797D01*
X72147083Y-93854464D02*
X72385178Y-94521130D01*
X72623273Y-93854464D01*
X73528035Y-94521130D02*
X72956607Y-94521130D01*
X73242321Y-94521130D02*
X73242321Y-93521130D01*
X73147083Y-93663988D01*
X73051845Y-93759226D01*
X72956607Y-93806845D01*
X165423345Y-195771880D02*
X165423345Y-194771880D01*
X165661440Y-194771880D01*
X165804297Y-194819500D01*
X165899535Y-194914738D01*
X165947154Y-195009976D01*
X165994773Y-195200452D01*
X165994773Y-195343309D01*
X165947154Y-195533785D01*
X165899535Y-195629023D01*
X165804297Y-195724261D01*
X165661440Y-195771880D01*
X165423345Y-195771880D01*
X166804297Y-195724261D02*
X166709059Y-195771880D01*
X166518583Y-195771880D01*
X166423345Y-195724261D01*
X166375726Y-195629023D01*
X166375726Y-195248071D01*
X166423345Y-195152833D01*
X166518583Y-195105214D01*
X166709059Y-195105214D01*
X166804297Y-195152833D01*
X166851916Y-195248071D01*
X166851916Y-195343309D01*
X166375726Y-195438547D01*
X167232869Y-195724261D02*
X167328107Y-195771880D01*
X167518583Y-195771880D01*
X167613821Y-195724261D01*
X167661440Y-195629023D01*
X167661440Y-195581404D01*
X167613821Y-195486166D01*
X167518583Y-195438547D01*
X167375726Y-195438547D01*
X167280488Y-195390928D01*
X167232869Y-195295690D01*
X167232869Y-195248071D01*
X167280488Y-195152833D01*
X167375726Y-195105214D01*
X167518583Y-195105214D01*
X167613821Y-195152833D01*
X168090011Y-195771880D02*
X168090011Y-195105214D01*
X168090011Y-194771880D02*
X168042392Y-194819500D01*
X168090011Y-194867119D01*
X168137630Y-194819500D01*
X168090011Y-194771880D01*
X168090011Y-194867119D01*
X168994773Y-195105214D02*
X168994773Y-195914738D01*
X168947154Y-196009976D01*
X168899535Y-196057595D01*
X168804297Y-196105214D01*
X168661440Y-196105214D01*
X168566202Y-196057595D01*
X168994773Y-195724261D02*
X168899535Y-195771880D01*
X168709059Y-195771880D01*
X168613821Y-195724261D01*
X168566202Y-195676642D01*
X168518583Y-195581404D01*
X168518583Y-195295690D01*
X168566202Y-195200452D01*
X168613821Y-195152833D01*
X168709059Y-195105214D01*
X168899535Y-195105214D01*
X168994773Y-195152833D01*
X169470964Y-195105214D02*
X169470964Y-195771880D01*
X169470964Y-195200452D02*
X169518583Y-195152833D01*
X169613821Y-195105214D01*
X169756678Y-195105214D01*
X169851916Y-195152833D01*
X169899535Y-195248071D01*
X169899535Y-195771880D01*
X170756678Y-195724261D02*
X170661440Y-195771880D01*
X170470964Y-195771880D01*
X170375726Y-195724261D01*
X170328107Y-195629023D01*
X170328107Y-195248071D01*
X170375726Y-195152833D01*
X170470964Y-195105214D01*
X170661440Y-195105214D01*
X170756678Y-195152833D01*
X170804297Y-195248071D01*
X170804297Y-195343309D01*
X170328107Y-195438547D01*
X171661440Y-195771880D02*
X171661440Y-194771880D01*
X171661440Y-195724261D02*
X171566202Y-195771880D01*
X171375726Y-195771880D01*
X171280488Y-195724261D01*
X171232869Y-195676642D01*
X171185250Y-195581404D01*
X171185250Y-195295690D01*
X171232869Y-195200452D01*
X171280488Y-195152833D01*
X171375726Y-195105214D01*
X171566202Y-195105214D01*
X171661440Y-195152833D01*
X172899535Y-195771880D02*
X172899535Y-194771880D01*
X172899535Y-195152833D02*
X172994773Y-195105214D01*
X173185250Y-195105214D01*
X173280488Y-195152833D01*
X173328107Y-195200452D01*
X173375726Y-195295690D01*
X173375726Y-195581404D01*
X173328107Y-195676642D01*
X173280488Y-195724261D01*
X173185250Y-195771880D01*
X172994773Y-195771880D01*
X172899535Y-195724261D01*
X173709059Y-195105214D02*
X173947154Y-195771880D01*
X174185250Y-195105214D02*
X173947154Y-195771880D01*
X173851916Y-196009976D01*
X173804297Y-196057595D01*
X173709059Y-196105214D01*
X175280488Y-195486166D02*
X175756678Y-195486166D01*
X175185250Y-195771880D02*
X175518583Y-194771880D01*
X175851916Y-195771880D01*
X176185250Y-195105214D02*
X176185250Y-195771880D01*
X176185250Y-195200452D02*
X176232869Y-195152833D01*
X176328107Y-195105214D01*
X176470964Y-195105214D01*
X176566202Y-195152833D01*
X176613821Y-195248071D01*
X176613821Y-195771880D01*
X176947154Y-195105214D02*
X177328107Y-195105214D01*
X177090011Y-194771880D02*
X177090011Y-195629023D01*
X177137630Y-195724261D01*
X177232869Y-195771880D01*
X177328107Y-195771880D01*
X177661440Y-195771880D02*
X177661440Y-194771880D01*
X178090011Y-195771880D02*
X178090011Y-195248071D01*
X178042392Y-195152833D01*
X177947154Y-195105214D01*
X177804297Y-195105214D01*
X177709059Y-195152833D01*
X177661440Y-195200452D01*
X178709059Y-195771880D02*
X178613821Y-195724261D01*
X178566202Y-195676642D01*
X178518583Y-195581404D01*
X178518583Y-195295690D01*
X178566202Y-195200452D01*
X178613821Y-195152833D01*
X178709059Y-195105214D01*
X178851916Y-195105214D01*
X178947154Y-195152833D01*
X178994773Y-195200452D01*
X179042392Y-195295690D01*
X179042392Y-195581404D01*
X178994773Y-195676642D01*
X178947154Y-195724261D01*
X178851916Y-195771880D01*
X178709059Y-195771880D01*
X179470964Y-195105214D02*
X179470964Y-195771880D01*
X179470964Y-195200452D02*
X179518583Y-195152833D01*
X179613821Y-195105214D01*
X179756678Y-195105214D01*
X179851916Y-195152833D01*
X179899535Y-195248071D01*
X179899535Y-195771880D01*
X180280488Y-195105214D02*
X180518583Y-195771880D01*
X180756678Y-195105214D02*
X180518583Y-195771880D01*
X180423345Y-196009976D01*
X180375726Y-196057595D01*
X180280488Y-196105214D01*
X182375726Y-195771880D02*
X181899535Y-195771880D01*
X181899535Y-194771880D01*
X183137630Y-195105214D02*
X183137630Y-195771880D01*
X182709059Y-195105214D02*
X182709059Y-195629023D01*
X182756678Y-195724261D01*
X182851916Y-195771880D01*
X182994773Y-195771880D01*
X183090011Y-195724261D01*
X183137630Y-195676642D01*
X183756678Y-195771880D02*
X183661440Y-195724261D01*
X183613821Y-195676642D01*
X183566202Y-195581404D01*
X183566202Y-195295690D01*
X183613821Y-195200452D01*
X183661440Y-195152833D01*
X183756678Y-195105214D01*
X183899535Y-195105214D01*
X183994773Y-195152833D01*
X184042392Y-195200452D01*
X184090011Y-195295690D01*
X184090011Y-195581404D01*
X184042392Y-195676642D01*
X183994773Y-195724261D01*
X183899535Y-195771880D01*
X183756678Y-195771880D01*
D11*
%TO.C,SW2*%
X74781500Y-102569500D02*
G75*
G03*
X74781500Y-102569500I-3000000J0D01*
G01*
X73781500Y-96669500D02*
X77881500Y-96669500D01*
X77881500Y-108469500D02*
X73781500Y-108469500D01*
X69781500Y-108469500D02*
X65681500Y-108469500D01*
X69781500Y-96669500D02*
X65681500Y-96669500D01*
X65681500Y-96669500D02*
X65681500Y-108469500D01*
X64281500Y-98769500D02*
X63981500Y-98469500D01*
X63981500Y-98469500D02*
X64581500Y-98469500D01*
X64581500Y-98469500D02*
X64281500Y-98769500D01*
X77881500Y-96669500D02*
X77881500Y-99069500D01*
X77881500Y-101269500D02*
X77881500Y-103869500D01*
X77881500Y-106069500D02*
X77881500Y-108469500D01*
X71781500Y-102069500D02*
X71781500Y-103069500D01*
X71281500Y-102569500D02*
X72281500Y-102569500D01*
%TO.C,CAPS_LOCK_LED2*%
X384605000Y-100573250D02*
X384449000Y-100573250D01*
X382289000Y-100573250D02*
X382133000Y-100573250D01*
X382289163Y-103174380D02*
G75*
G02*
X382289000Y-101092289I1079837J1041130D01*
G01*
X384448837Y-103174380D02*
G75*
G03*
X384449000Y-101092289I-1079837J1041130D01*
G01*
X382290392Y-103805585D02*
G75*
G02*
X382133484Y-100573250I1078608J1672335D01*
G01*
X384447608Y-103805585D02*
G75*
G03*
X384604516Y-100573250I-1078608J1672335D01*
G01*
%TO.C,CAPS_LOCK_LED1*%
X365561500Y-95749250D02*
X365561500Y-95593250D01*
X365561500Y-93433250D02*
X365561500Y-93277250D01*
X362960370Y-93433413D02*
G75*
G02*
X365042461Y-93433250I1041130J-1079837D01*
G01*
X362960370Y-95593087D02*
G75*
G03*
X365042461Y-95593250I1041130J1079837D01*
G01*
X362329165Y-93434642D02*
G75*
G02*
X365561500Y-93277734I1672335J-1078608D01*
G01*
X362329165Y-95591858D02*
G75*
G03*
X365561500Y-95748766I1672335J1078608D01*
G01*
%TO.C,J3*%
X348713750Y-98742500D02*
X351373750Y-98742500D01*
X348713750Y-98742500D02*
X348713750Y-106422500D01*
X348713750Y-106422500D02*
X351373750Y-106422500D01*
X351373750Y-98742500D02*
X351373750Y-106422500D01*
X351373750Y-96142500D02*
X351373750Y-97472500D01*
X350043750Y-96142500D02*
X351373750Y-96142500D01*
%TO.C,SW2*%
D10*
X65748166Y-95774261D02*
X65891023Y-95821880D01*
X66129119Y-95821880D01*
X66224357Y-95774261D01*
X66271976Y-95726642D01*
X66319595Y-95631404D01*
X66319595Y-95536166D01*
X66271976Y-95440928D01*
X66224357Y-95393309D01*
X66129119Y-95345690D01*
X65938642Y-95298071D01*
X65843404Y-95250452D01*
X65795785Y-95202833D01*
X65748166Y-95107595D01*
X65748166Y-95012357D01*
X65795785Y-94917119D01*
X65843404Y-94869500D01*
X65938642Y-94821880D01*
X66176738Y-94821880D01*
X66319595Y-94869500D01*
X66652928Y-94821880D02*
X66891023Y-95821880D01*
X67081500Y-95107595D01*
X67271976Y-95821880D01*
X67510071Y-94821880D01*
X67843404Y-94917119D02*
X67891023Y-94869500D01*
X67986261Y-94821880D01*
X68224357Y-94821880D01*
X68319595Y-94869500D01*
X68367214Y-94917119D01*
X68414833Y-95012357D01*
X68414833Y-95107595D01*
X68367214Y-95250452D01*
X67795785Y-95821880D01*
X68414833Y-95821880D01*
%TO.C,CAPS_LOCK_LED2*%
X385554942Y-107047447D02*
X385602561Y-107095066D01*
X385650180Y-107237923D01*
X385650180Y-107333161D01*
X385602561Y-107476019D01*
X385507323Y-107571257D01*
X385412085Y-107618876D01*
X385221609Y-107666495D01*
X385078752Y-107666495D01*
X384888276Y-107618876D01*
X384793038Y-107571257D01*
X384697800Y-107476019D01*
X384650180Y-107333161D01*
X384650180Y-107237923D01*
X384697800Y-107095066D01*
X384745419Y-107047447D01*
X385364466Y-106666495D02*
X385364466Y-106190304D01*
X385650180Y-106761733D02*
X384650180Y-106428400D01*
X385650180Y-106095066D01*
X385650180Y-105761733D02*
X384650180Y-105761733D01*
X384650180Y-105380780D01*
X384697800Y-105285542D01*
X384745419Y-105237923D01*
X384840657Y-105190304D01*
X384983514Y-105190304D01*
X385078752Y-105237923D01*
X385126371Y-105285542D01*
X385173990Y-105380780D01*
X385173990Y-105761733D01*
X385602561Y-104809352D02*
X385650180Y-104666495D01*
X385650180Y-104428400D01*
X385602561Y-104333161D01*
X385554942Y-104285542D01*
X385459704Y-104237923D01*
X385364466Y-104237923D01*
X385269228Y-104285542D01*
X385221609Y-104333161D01*
X385173990Y-104428400D01*
X385126371Y-104618876D01*
X385078752Y-104714114D01*
X385031133Y-104761733D01*
X384935895Y-104809352D01*
X384840657Y-104809352D01*
X384745419Y-104761733D01*
X384697800Y-104714114D01*
X384650180Y-104618876D01*
X384650180Y-104380780D01*
X384697800Y-104237923D01*
X385745419Y-104047447D02*
X385745419Y-103285542D01*
X385650180Y-102571257D02*
X385650180Y-103047447D01*
X384650180Y-103047447D01*
X384650180Y-102047447D02*
X384650180Y-101856971D01*
X384697800Y-101761733D01*
X384793038Y-101666495D01*
X384983514Y-101618876D01*
X385316847Y-101618876D01*
X385507323Y-101666495D01*
X385602561Y-101761733D01*
X385650180Y-101856971D01*
X385650180Y-102047447D01*
X385602561Y-102142685D01*
X385507323Y-102237923D01*
X385316847Y-102285542D01*
X384983514Y-102285542D01*
X384793038Y-102237923D01*
X384697800Y-102142685D01*
X384650180Y-102047447D01*
X385554942Y-100618876D02*
X385602561Y-100666495D01*
X385650180Y-100809352D01*
X385650180Y-100904590D01*
X385602561Y-101047447D01*
X385507323Y-101142685D01*
X385412085Y-101190304D01*
X385221609Y-101237923D01*
X385078752Y-101237923D01*
X384888276Y-101190304D01*
X384793038Y-101142685D01*
X384697800Y-101047447D01*
X384650180Y-100904590D01*
X384650180Y-100809352D01*
X384697800Y-100666495D01*
X384745419Y-100618876D01*
X385650180Y-100190304D02*
X384650180Y-100190304D01*
X385650180Y-99618876D02*
X385078752Y-100047447D01*
X384650180Y-99618876D02*
X385221609Y-100190304D01*
X385745419Y-99428400D02*
X385745419Y-98666495D01*
X385650180Y-97952209D02*
X385650180Y-98428400D01*
X384650180Y-98428400D01*
X385126371Y-97618876D02*
X385126371Y-97285542D01*
X385650180Y-97142685D02*
X385650180Y-97618876D01*
X384650180Y-97618876D01*
X384650180Y-97142685D01*
X385650180Y-96714114D02*
X384650180Y-96714114D01*
X384650180Y-96476019D01*
X384697800Y-96333161D01*
X384793038Y-96237923D01*
X384888276Y-96190304D01*
X385078752Y-96142685D01*
X385221609Y-96142685D01*
X385412085Y-96190304D01*
X385507323Y-96237923D01*
X385602561Y-96333161D01*
X385650180Y-96476019D01*
X385650180Y-96714114D01*
X384745419Y-95761733D02*
X384697800Y-95714114D01*
X384650180Y-95618876D01*
X384650180Y-95380780D01*
X384697800Y-95285542D01*
X384745419Y-95237923D01*
X384840657Y-95190304D01*
X384935895Y-95190304D01*
X385078752Y-95237923D01*
X385650180Y-95809352D01*
X385650180Y-95190304D01*
%TO.C,CAPS_LOCK_LED1*%
X358522152Y-93174942D02*
X358474533Y-93222561D01*
X358331676Y-93270180D01*
X358236438Y-93270180D01*
X358093580Y-93222561D01*
X357998342Y-93127323D01*
X357950723Y-93032085D01*
X357903104Y-92841609D01*
X357903104Y-92698752D01*
X357950723Y-92508276D01*
X357998342Y-92413038D01*
X358093580Y-92317800D01*
X358236438Y-92270180D01*
X358331676Y-92270180D01*
X358474533Y-92317800D01*
X358522152Y-92365419D01*
X358903104Y-92984466D02*
X359379295Y-92984466D01*
X358807866Y-93270180D02*
X359141200Y-92270180D01*
X359474533Y-93270180D01*
X359807866Y-93270180D02*
X359807866Y-92270180D01*
X360188819Y-92270180D01*
X360284057Y-92317800D01*
X360331676Y-92365419D01*
X360379295Y-92460657D01*
X360379295Y-92603514D01*
X360331676Y-92698752D01*
X360284057Y-92746371D01*
X360188819Y-92793990D01*
X359807866Y-92793990D01*
X360760247Y-93222561D02*
X360903104Y-93270180D01*
X361141200Y-93270180D01*
X361236438Y-93222561D01*
X361284057Y-93174942D01*
X361331676Y-93079704D01*
X361331676Y-92984466D01*
X361284057Y-92889228D01*
X361236438Y-92841609D01*
X361141200Y-92793990D01*
X360950723Y-92746371D01*
X360855485Y-92698752D01*
X360807866Y-92651133D01*
X360760247Y-92555895D01*
X360760247Y-92460657D01*
X360807866Y-92365419D01*
X360855485Y-92317800D01*
X360950723Y-92270180D01*
X361188819Y-92270180D01*
X361331676Y-92317800D01*
X361522152Y-93365419D02*
X362284057Y-93365419D01*
X362998342Y-93270180D02*
X362522152Y-93270180D01*
X362522152Y-92270180D01*
X363522152Y-92270180D02*
X363712628Y-92270180D01*
X363807866Y-92317800D01*
X363903104Y-92413038D01*
X363950723Y-92603514D01*
X363950723Y-92936847D01*
X363903104Y-93127323D01*
X363807866Y-93222561D01*
X363712628Y-93270180D01*
X363522152Y-93270180D01*
X363426914Y-93222561D01*
X363331676Y-93127323D01*
X363284057Y-92936847D01*
X363284057Y-92603514D01*
X363331676Y-92413038D01*
X363426914Y-92317800D01*
X363522152Y-92270180D01*
X364950723Y-93174942D02*
X364903104Y-93222561D01*
X364760247Y-93270180D01*
X364665009Y-93270180D01*
X364522152Y-93222561D01*
X364426914Y-93127323D01*
X364379295Y-93032085D01*
X364331676Y-92841609D01*
X364331676Y-92698752D01*
X364379295Y-92508276D01*
X364426914Y-92413038D01*
X364522152Y-92317800D01*
X364665009Y-92270180D01*
X364760247Y-92270180D01*
X364903104Y-92317800D01*
X364950723Y-92365419D01*
X365379295Y-93270180D02*
X365379295Y-92270180D01*
X365950723Y-93270180D02*
X365522152Y-92698752D01*
X365950723Y-92270180D02*
X365379295Y-92841609D01*
X366141200Y-93365419D02*
X366903104Y-93365419D01*
X367617390Y-93270180D02*
X367141200Y-93270180D01*
X367141200Y-92270180D01*
X367950723Y-92746371D02*
X368284057Y-92746371D01*
X368426914Y-93270180D02*
X367950723Y-93270180D01*
X367950723Y-92270180D01*
X368426914Y-92270180D01*
X368855485Y-93270180D02*
X368855485Y-92270180D01*
X369093580Y-92270180D01*
X369236438Y-92317800D01*
X369331676Y-92413038D01*
X369379295Y-92508276D01*
X369426914Y-92698752D01*
X369426914Y-92841609D01*
X369379295Y-93032085D01*
X369331676Y-93127323D01*
X369236438Y-93222561D01*
X369093580Y-93270180D01*
X368855485Y-93270180D01*
X370379295Y-93270180D02*
X369807866Y-93270180D01*
X370093580Y-93270180D02*
X370093580Y-92270180D01*
X369998342Y-92413038D01*
X369903104Y-92508276D01*
X369807866Y-92555895D01*
%TO.C,J3*%
X349710416Y-94154880D02*
X349710416Y-94869166D01*
X349662797Y-95012023D01*
X349567559Y-95107261D01*
X349424702Y-95154880D01*
X349329464Y-95154880D01*
X350091369Y-94154880D02*
X350710416Y-94154880D01*
X350377083Y-94535833D01*
X350519940Y-94535833D01*
X350615178Y-94583452D01*
X350662797Y-94631071D01*
X350710416Y-94726309D01*
X350710416Y-94964404D01*
X350662797Y-95059642D01*
X350615178Y-95107261D01*
X350519940Y-95154880D01*
X350234226Y-95154880D01*
X350138988Y-95107261D01*
X350091369Y-95059642D01*
%TD*%
M02*
