%TF.GenerationSoftware,KiCad,Pcbnew,(5.1.9)-1*%
%TF.CreationDate,2021-05-17T13:38:32-04:00*%
%TF.ProjectId,rnm-75E,726e6d2d-3735-4452-9e6b-696361645f70,rev?*%
%TF.SameCoordinates,Original*%
%TF.FileFunction,Soldermask,Bot*%
%TF.FilePolarity,Negative*%
%FSLAX46Y46*%
G04 Gerber Fmt 4.6, Leading zero omitted, Abs format (unit mm)*
G04 Created by KiCad (PCBNEW (5.1.9)-1) date 2021-05-17 13:38:32*
%MOMM*%
%LPD*%
G01*
G04 APERTURE LIST*
%ADD10C,2.250000*%
%ADD11C,3.987800*%
%ADD12C,1.750000*%
%ADD13R,0.900000X1.200000*%
%ADD14R,1.200000X0.900000*%
%ADD15R,2.000000X2.000000*%
%ADD16C,2.000000*%
%ADD17R,3.200000X2.000000*%
%ADD18C,3.048000*%
%ADD19R,0.600000X1.450000*%
%ADD20R,0.300000X1.450000*%
%ADD21O,1.000000X2.100000*%
%ADD22C,0.650000*%
%ADD23O,1.000000X1.600000*%
%ADD24R,1.060000X0.650000*%
%ADD25R,1.500000X0.550000*%
%ADD26R,0.550000X1.500000*%
%ADD27R,1.700000X1.700000*%
%ADD28C,1.700000*%
%ADD29C,1.800000*%
%ADD30R,1.800000X1.800000*%
%ADD31O,1.700000X1.700000*%
%ADD32C,0.100000*%
%ADD33R,1.800000X1.100000*%
%ADD34R,1.500000X1.000000*%
%ADD35R,1.000000X1.500000*%
G04 APERTURE END LIST*
D10*
%TO.C,MX78*%
X340665250Y-96577000D03*
D11*
X338125250Y-101657000D03*
D10*
X334315250Y-99117000D03*
D12*
X333045250Y-101657000D03*
X343205250Y-101657000D03*
%TD*%
D10*
%TO.C,MX_SPLIT_LS_R1*%
X116840000Y-172790000D03*
D11*
X114300000Y-177870000D03*
D10*
X110490000Y-175330000D03*
D12*
X109220000Y-177870000D03*
X119380000Y-177870000D03*
%TD*%
D10*
%TO.C,MX_SPLIT_LS_L1*%
X95390000Y-172770000D03*
D11*
X92850000Y-177850000D03*
D10*
X89040000Y-175310000D03*
D12*
X87770000Y-177850000D03*
X97930000Y-177850000D03*
%TD*%
D10*
%TO.C,MX_SPLIT_BS_R1*%
X359710000Y-115620000D03*
D11*
X357170000Y-120700000D03*
D10*
X353360000Y-118160000D03*
D12*
X352090000Y-120700000D03*
X362250000Y-120700000D03*
%TD*%
D10*
%TO.C,MX_SPLIT_BS_L1*%
X340670000Y-115620000D03*
D11*
X338130000Y-120700000D03*
D10*
X334320000Y-118160000D03*
D12*
X333050000Y-120700000D03*
X343210000Y-120700000D03*
%TD*%
D13*
%TO.C,D_SPLIT_RS_R1*%
X125412500Y-187325000D03*
X128712500Y-187325000D03*
%TD*%
D14*
%TO.C,D_SPLIT_BS_R1*%
X342106250Y-108075000D03*
X342106250Y-104775000D03*
%TD*%
D15*
%TO.C,SW2*%
X64281500Y-100069500D03*
D16*
X64281500Y-102569500D03*
X64281500Y-105069500D03*
D17*
X71781500Y-96969500D03*
X71781500Y-108169500D03*
D16*
X78781500Y-100069500D03*
X78781500Y-105069500D03*
%TD*%
D10*
%TO.C,MX81*%
X354952750Y-134677000D03*
D11*
X352412750Y-139757000D03*
D10*
X348602750Y-137217000D03*
D12*
X347332750Y-139757000D03*
X357492750Y-139757000D03*
%TD*%
D10*
%TO.C,MX93*%
X207315250Y-191827000D03*
D11*
X204775250Y-196907000D03*
D10*
X200965250Y-194367000D03*
D12*
X199695250Y-196907000D03*
X209855250Y-196907000D03*
D18*
X147625250Y-203892000D03*
X261925250Y-203892000D03*
D11*
X147625250Y-188652000D03*
X261925250Y-188652000D03*
%TD*%
D19*
%TO.C,J2*%
X380545000Y-98865000D03*
X379745000Y-98865000D03*
X374845000Y-98865000D03*
X374045000Y-98865000D03*
X374045000Y-98865000D03*
X374845000Y-98865000D03*
X379745000Y-98865000D03*
X380545000Y-98865000D03*
D20*
X375545000Y-98865000D03*
X376045000Y-98865000D03*
X376545000Y-98865000D03*
X377545000Y-98865000D03*
X378045000Y-98865000D03*
X378545000Y-98865000D03*
X379045000Y-98865000D03*
X377045000Y-98865000D03*
D21*
X381615000Y-97950000D03*
X372975000Y-97950000D03*
D22*
X374405000Y-97420000D03*
D23*
X372975000Y-93770000D03*
D22*
X380185000Y-97420000D03*
D23*
X381615000Y-93770000D03*
%TD*%
D10*
%TO.C,MX62*%
X288277750Y-172777000D03*
D11*
X285737750Y-177857000D03*
D10*
X281927750Y-175317000D03*
D12*
X280657750Y-177857000D03*
X290817750Y-177857000D03*
%TD*%
D10*
%TO.C,MX86*%
X378765250Y-115627000D03*
D11*
X376225250Y-120707000D03*
D10*
X372415250Y-118167000D03*
D12*
X371145250Y-120707000D03*
X381305250Y-120707000D03*
%TD*%
%TO.C,C_F3*%
G36*
G01*
X237832500Y-177093750D02*
X237832500Y-176143750D01*
G75*
G02*
X238082500Y-175893750I250000J0D01*
G01*
X238582500Y-175893750D01*
G75*
G02*
X238832500Y-176143750I0J-250000D01*
G01*
X238832500Y-177093750D01*
G75*
G02*
X238582500Y-177343750I-250000J0D01*
G01*
X238082500Y-177343750D01*
G75*
G02*
X237832500Y-177093750I0J250000D01*
G01*
G37*
G36*
G01*
X235932500Y-177093750D02*
X235932500Y-176143750D01*
G75*
G02*
X236182500Y-175893750I250000J0D01*
G01*
X236682500Y-175893750D01*
G75*
G02*
X236932500Y-176143750I0J-250000D01*
G01*
X236932500Y-177093750D01*
G75*
G02*
X236682500Y-177343750I-250000J0D01*
G01*
X236182500Y-177343750D01*
G75*
G02*
X235932500Y-177093750I0J250000D01*
G01*
G37*
%TD*%
%TO.C,C_X2*%
G36*
G01*
X256906029Y-189507878D02*
X256234278Y-190179629D01*
G75*
G02*
X255880724Y-190179629I-176777J176777D01*
G01*
X255527171Y-189826076D01*
G75*
G02*
X255527171Y-189472522I176777J176777D01*
G01*
X256198922Y-188800771D01*
G75*
G02*
X256552476Y-188800771I176777J-176777D01*
G01*
X256906029Y-189154324D01*
G75*
G02*
X256906029Y-189507878I-176777J-176777D01*
G01*
G37*
G36*
G01*
X258249531Y-190851380D02*
X257577780Y-191523131D01*
G75*
G02*
X257224226Y-191523131I-176777J176777D01*
G01*
X256870673Y-191169578D01*
G75*
G02*
X256870673Y-190816024I176777J176777D01*
G01*
X257542424Y-190144273D01*
G75*
G02*
X257895978Y-190144273I176777J-176777D01*
G01*
X258249531Y-190497826D01*
G75*
G02*
X258249531Y-190851380I-176777J-176777D01*
G01*
G37*
%TD*%
D24*
%TO.C,U2*%
X376317600Y-106036000D03*
X376317600Y-105086000D03*
X376317600Y-106986000D03*
X378517600Y-106986000D03*
X378517600Y-106036000D03*
X378517600Y-105086000D03*
%TD*%
D25*
%TO.C,U1*%
X235975000Y-186900000D03*
X235975000Y-187700000D03*
X235975000Y-188500000D03*
X235975000Y-189300000D03*
X235975000Y-190100000D03*
X235975000Y-190900000D03*
X235975000Y-191700000D03*
X235975000Y-192500000D03*
X235975000Y-193300000D03*
X235975000Y-194100000D03*
X235975000Y-194900000D03*
X235975000Y-195700000D03*
X235975000Y-196500000D03*
X235975000Y-197300000D03*
X235975000Y-198100000D03*
X235975000Y-198900000D03*
D26*
X237675000Y-200600000D03*
X238475000Y-200600000D03*
X239275000Y-200600000D03*
X240075000Y-200600000D03*
X240875000Y-200600000D03*
X241675000Y-200600000D03*
X242475000Y-200600000D03*
X243275000Y-200600000D03*
X244075000Y-200600000D03*
X244875000Y-200600000D03*
X245675000Y-200600000D03*
X246475000Y-200600000D03*
X247275000Y-200600000D03*
X248075000Y-200600000D03*
X248875000Y-200600000D03*
X249675000Y-200600000D03*
D25*
X251375000Y-198900000D03*
X251375000Y-198100000D03*
X251375000Y-197300000D03*
X251375000Y-196500000D03*
X251375000Y-195700000D03*
X251375000Y-194900000D03*
X251375000Y-194100000D03*
X251375000Y-193300000D03*
X251375000Y-192500000D03*
X251375000Y-191700000D03*
X251375000Y-190900000D03*
X251375000Y-190100000D03*
X251375000Y-189300000D03*
X251375000Y-188500000D03*
X251375000Y-187700000D03*
X251375000Y-186900000D03*
D26*
X249675000Y-185200000D03*
X248875000Y-185200000D03*
X248075000Y-185200000D03*
X247275000Y-185200000D03*
X246475000Y-185200000D03*
X245675000Y-185200000D03*
X244875000Y-185200000D03*
X244075000Y-185200000D03*
X243275000Y-185200000D03*
X242475000Y-185200000D03*
X241675000Y-185200000D03*
X240875000Y-185200000D03*
X240075000Y-185200000D03*
X239275000Y-185200000D03*
X238475000Y-185200000D03*
X237675000Y-185200000D03*
%TD*%
D10*
%TO.C,MX10*%
X104921500Y-172777000D03*
D11*
X102381500Y-177857000D03*
D10*
X98571500Y-175317000D03*
D12*
X97301500Y-177857000D03*
X107461500Y-177857000D03*
D18*
X90475250Y-170872000D03*
X114287750Y-170872000D03*
D11*
X90475250Y-186112000D03*
X114287750Y-186112000D03*
%TD*%
D27*
%TO.C,J1*%
X359302500Y-94862500D03*
D28*
X356762500Y-94862500D03*
X359302500Y-97402500D03*
X356762500Y-97402500D03*
X359302500Y-99942500D03*
X356762500Y-99942500D03*
%TD*%
%TO.C,R2*%
G36*
G01*
X302006500Y-185344498D02*
X302006500Y-186244502D01*
G75*
G02*
X301756502Y-186494500I-249998J0D01*
G01*
X301231498Y-186494500D01*
G75*
G02*
X300981500Y-186244502I0J249998D01*
G01*
X300981500Y-185344498D01*
G75*
G02*
X301231498Y-185094500I249998J0D01*
G01*
X301756502Y-185094500D01*
G75*
G02*
X302006500Y-185344498I0J-249998D01*
G01*
G37*
G36*
G01*
X303831500Y-185344498D02*
X303831500Y-186244502D01*
G75*
G02*
X303581502Y-186494500I-249998J0D01*
G01*
X303056498Y-186494500D01*
G75*
G02*
X302806500Y-186244502I0J249998D01*
G01*
X302806500Y-185344498D01*
G75*
G02*
X303056498Y-185094500I249998J0D01*
G01*
X303581502Y-185094500D01*
G75*
G02*
X303831500Y-185344498I0J-249998D01*
G01*
G37*
%TD*%
D10*
%TO.C,MX83*%
X359715250Y-172777000D03*
D11*
X357175250Y-177857000D03*
D10*
X353365250Y-175317000D03*
D12*
X352095250Y-177857000D03*
X362255250Y-177857000D03*
%TD*%
D10*
%TO.C,MX57*%
X269227750Y-172777000D03*
D11*
X266687750Y-177857000D03*
D10*
X262877750Y-175317000D03*
D12*
X261607750Y-177857000D03*
X271767750Y-177857000D03*
%TD*%
%TO.C,C_FM1*%
G36*
G01*
X239406500Y-179287000D02*
X239406500Y-180237000D01*
G75*
G02*
X239156500Y-180487000I-250000J0D01*
G01*
X238656500Y-180487000D01*
G75*
G02*
X238406500Y-180237000I0J250000D01*
G01*
X238406500Y-179287000D01*
G75*
G02*
X238656500Y-179037000I250000J0D01*
G01*
X239156500Y-179037000D01*
G75*
G02*
X239406500Y-179287000I0J-250000D01*
G01*
G37*
G36*
G01*
X237506500Y-179287000D02*
X237506500Y-180237000D01*
G75*
G02*
X237256500Y-180487000I-250000J0D01*
G01*
X236756500Y-180487000D01*
G75*
G02*
X236506500Y-180237000I0J250000D01*
G01*
X236506500Y-179287000D01*
G75*
G02*
X236756500Y-179037000I250000J0D01*
G01*
X237256500Y-179037000D01*
G75*
G02*
X237506500Y-179287000I0J-250000D01*
G01*
G37*
%TD*%
D29*
%TO.C,CAPS_LOCK_LED2*%
X383369000Y-103403250D03*
D30*
X383369000Y-100863250D03*
%TD*%
D29*
%TO.C,CAPS_LOCK_LED1*%
X362731500Y-94513250D03*
D30*
X365271500Y-94513250D03*
%TD*%
D10*
%TO.C,MX92*%
X126352750Y-191827000D03*
D11*
X123812750Y-196907000D03*
D10*
X120002750Y-194367000D03*
D12*
X118732750Y-196907000D03*
X128892750Y-196907000D03*
%TD*%
D10*
%TO.C,MX91*%
X97777750Y-191827000D03*
D11*
X95237750Y-196907000D03*
D10*
X91427750Y-194367000D03*
D12*
X90157750Y-196907000D03*
X100317750Y-196907000D03*
%TD*%
D10*
%TO.C,MX90*%
X95396500Y-153727000D03*
D11*
X92856500Y-158807000D03*
D10*
X89046500Y-156267000D03*
D12*
X87776500Y-158807000D03*
X97936500Y-158807000D03*
%TD*%
D10*
%TO.C,MX85*%
X378765250Y-191827000D03*
D11*
X376225250Y-196907000D03*
D10*
X372415250Y-194367000D03*
D12*
X371145250Y-196907000D03*
X381305250Y-196907000D03*
%TD*%
D10*
%TO.C,MX41*%
X214459000Y-191827000D03*
D11*
X211919000Y-196907000D03*
D10*
X208109000Y-194367000D03*
D12*
X206839000Y-196907000D03*
X216999000Y-196907000D03*
D18*
X161919100Y-203892000D03*
X261918900Y-203892000D03*
D11*
X161919100Y-188652000D03*
X261918900Y-188652000D03*
%TD*%
D31*
%TO.C,J3*%
X350043750Y-105092500D03*
X350043750Y-102552500D03*
X350043750Y-100012500D03*
D27*
X350043750Y-97472500D03*
%TD*%
D12*
%TO.C,MX2*%
X76505250Y-139757000D03*
X66345250Y-139757000D03*
D10*
X67615250Y-137217000D03*
D11*
X71425250Y-139757000D03*
D10*
X73965250Y-134677000D03*
%TD*%
%TO.C,MX4*%
X73965250Y-172777000D03*
D11*
X71425250Y-177857000D03*
D10*
X67615250Y-175317000D03*
D12*
X66345250Y-177857000D03*
X76505250Y-177857000D03*
%TD*%
D32*
%TO.C,Y1*%
G36*
X257505955Y-192606865D02*
G01*
X256657427Y-193455393D01*
X255667477Y-192465443D01*
X256516005Y-191616915D01*
X257505955Y-192606865D01*
G37*
G36*
X255950320Y-191051230D02*
G01*
X255101792Y-191899758D01*
X254111842Y-190909808D01*
X254960370Y-190061280D01*
X255950320Y-191051230D01*
G37*
G36*
X254748239Y-192253311D02*
G01*
X253899711Y-193101839D01*
X252909761Y-192111889D01*
X253758289Y-191263361D01*
X254748239Y-192253311D01*
G37*
G36*
X256303874Y-193808946D02*
G01*
X255455346Y-194657474D01*
X254465396Y-193667524D01*
X255313924Y-192818996D01*
X256303874Y-193808946D01*
G37*
%TD*%
D33*
%TO.C,SW1*%
X318281500Y-183413250D03*
X324481500Y-187113250D03*
X318281500Y-187113250D03*
X324481500Y-183413250D03*
%TD*%
%TO.C,R_u2*%
G36*
G01*
X382175250Y-105969498D02*
X382175250Y-106869502D01*
G75*
G02*
X381925252Y-107119500I-249998J0D01*
G01*
X381400248Y-107119500D01*
G75*
G02*
X381150250Y-106869502I0J249998D01*
G01*
X381150250Y-105969498D01*
G75*
G02*
X381400248Y-105719500I249998J0D01*
G01*
X381925252Y-105719500D01*
G75*
G02*
X382175250Y-105969498I0J-249998D01*
G01*
G37*
G36*
G01*
X384000250Y-105969498D02*
X384000250Y-106869502D01*
G75*
G02*
X383750252Y-107119500I-249998J0D01*
G01*
X383225248Y-107119500D01*
G75*
G02*
X382975250Y-106869502I0J249998D01*
G01*
X382975250Y-105969498D01*
G75*
G02*
X383225248Y-105719500I249998J0D01*
G01*
X383750252Y-105719500D01*
G75*
G02*
X384000250Y-105969498I0J-249998D01*
G01*
G37*
%TD*%
%TO.C,R_u1*%
G36*
G01*
X372656500Y-104488252D02*
X372656500Y-103588248D01*
G75*
G02*
X372906498Y-103338250I249998J0D01*
G01*
X373431502Y-103338250D01*
G75*
G02*
X373681500Y-103588248I0J-249998D01*
G01*
X373681500Y-104488252D01*
G75*
G02*
X373431502Y-104738250I-249998J0D01*
G01*
X372906498Y-104738250D01*
G75*
G02*
X372656500Y-104488252I0J249998D01*
G01*
G37*
G36*
G01*
X370831500Y-104488252D02*
X370831500Y-103588248D01*
G75*
G02*
X371081498Y-103338250I249998J0D01*
G01*
X371606502Y-103338250D01*
G75*
G02*
X371856500Y-103588248I0J-249998D01*
G01*
X371856500Y-104488252D01*
G75*
G02*
X371606502Y-104738250I-249998J0D01*
G01*
X371081498Y-104738250D01*
G75*
G02*
X370831500Y-104488252I0J249998D01*
G01*
G37*
%TD*%
%TO.C,R_SW2*%
G36*
G01*
X271795000Y-200881252D02*
X271795000Y-199981248D01*
G75*
G02*
X272044998Y-199731250I249998J0D01*
G01*
X272570002Y-199731250D01*
G75*
G02*
X272820000Y-199981248I0J-249998D01*
G01*
X272820000Y-200881252D01*
G75*
G02*
X272570002Y-201131250I-249998J0D01*
G01*
X272044998Y-201131250D01*
G75*
G02*
X271795000Y-200881252I0J249998D01*
G01*
G37*
G36*
G01*
X273620000Y-200881252D02*
X273620000Y-199981248D01*
G75*
G02*
X273869998Y-199731250I249998J0D01*
G01*
X274395002Y-199731250D01*
G75*
G02*
X274645000Y-199981248I0J-249998D01*
G01*
X274645000Y-200881252D01*
G75*
G02*
X274395002Y-201131250I-249998J0D01*
G01*
X273869998Y-201131250D01*
G75*
G02*
X273620000Y-200881252I0J249998D01*
G01*
G37*
%TD*%
%TO.C,R_SW1*%
G36*
G01*
X315975602Y-188021500D02*
X315075598Y-188021500D01*
G75*
G02*
X314825600Y-187771502I0J249998D01*
G01*
X314825600Y-187246498D01*
G75*
G02*
X315075598Y-186996500I249998J0D01*
G01*
X315975602Y-186996500D01*
G75*
G02*
X316225600Y-187246498I0J-249998D01*
G01*
X316225600Y-187771502D01*
G75*
G02*
X315975602Y-188021500I-249998J0D01*
G01*
G37*
G36*
G01*
X315975602Y-186196500D02*
X315075598Y-186196500D01*
G75*
G02*
X314825600Y-185946502I0J249998D01*
G01*
X314825600Y-185421498D01*
G75*
G02*
X315075598Y-185171500I249998J0D01*
G01*
X315975602Y-185171500D01*
G75*
G02*
X316225600Y-185421498I0J-249998D01*
G01*
X316225600Y-185946502D01*
G75*
G02*
X315975602Y-186196500I-249998J0D01*
G01*
G37*
%TD*%
%TO.C,R_d2*%
G36*
G01*
X376675252Y-102050750D02*
X375775248Y-102050750D01*
G75*
G02*
X375525250Y-101800752I0J249998D01*
G01*
X375525250Y-101275748D01*
G75*
G02*
X375775248Y-101025750I249998J0D01*
G01*
X376675252Y-101025750D01*
G75*
G02*
X376925250Y-101275748I0J-249998D01*
G01*
X376925250Y-101800752D01*
G75*
G02*
X376675252Y-102050750I-249998J0D01*
G01*
G37*
G36*
G01*
X376675252Y-103875750D02*
X375775248Y-103875750D01*
G75*
G02*
X375525250Y-103625752I0J249998D01*
G01*
X375525250Y-103100748D01*
G75*
G02*
X375775248Y-102850750I249998J0D01*
G01*
X376675252Y-102850750D01*
G75*
G02*
X376925250Y-103100748I0J-249998D01*
G01*
X376925250Y-103625752D01*
G75*
G02*
X376675252Y-103875750I-249998J0D01*
G01*
G37*
%TD*%
%TO.C,R_d1*%
G36*
G01*
X379056502Y-102050750D02*
X378156498Y-102050750D01*
G75*
G02*
X377906500Y-101800752I0J249998D01*
G01*
X377906500Y-101275748D01*
G75*
G02*
X378156498Y-101025750I249998J0D01*
G01*
X379056502Y-101025750D01*
G75*
G02*
X379306500Y-101275748I0J-249998D01*
G01*
X379306500Y-101800752D01*
G75*
G02*
X379056502Y-102050750I-249998J0D01*
G01*
G37*
G36*
G01*
X379056502Y-103875750D02*
X378156498Y-103875750D01*
G75*
G02*
X377906500Y-103625752I0J249998D01*
G01*
X377906500Y-103100748D01*
G75*
G02*
X378156498Y-102850750I249998J0D01*
G01*
X379056502Y-102850750D01*
G75*
G02*
X379306500Y-103100748I0J-249998D01*
G01*
X379306500Y-103625752D01*
G75*
G02*
X379056502Y-103875750I-249998J0D01*
G01*
G37*
%TD*%
%TO.C,R1*%
G36*
G01*
X379059300Y-110706598D02*
X379059300Y-111606602D01*
G75*
G02*
X378809302Y-111856600I-249998J0D01*
G01*
X378284298Y-111856600D01*
G75*
G02*
X378034300Y-111606602I0J249998D01*
G01*
X378034300Y-110706598D01*
G75*
G02*
X378284298Y-110456600I249998J0D01*
G01*
X378809302Y-110456600D01*
G75*
G02*
X379059300Y-110706598I0J-249998D01*
G01*
G37*
G36*
G01*
X380884300Y-110706598D02*
X380884300Y-111606602D01*
G75*
G02*
X380634302Y-111856600I-249998J0D01*
G01*
X380109298Y-111856600D01*
G75*
G02*
X379859300Y-111606602I0J249998D01*
G01*
X379859300Y-110706598D01*
G75*
G02*
X380109298Y-110456600I249998J0D01*
G01*
X380634302Y-110456600D01*
G75*
G02*
X380884300Y-110706598I0J-249998D01*
G01*
G37*
%TD*%
D10*
%TO.C,MX89*%
X378765250Y-172777000D03*
D11*
X376225250Y-177857000D03*
D10*
X372415250Y-175317000D03*
D12*
X371145250Y-177857000D03*
X381305250Y-177857000D03*
%TD*%
D10*
%TO.C,MX88*%
X378765250Y-153727000D03*
D11*
X376225250Y-158807000D03*
D10*
X372415250Y-156267000D03*
D12*
X371145250Y-158807000D03*
X381305250Y-158807000D03*
%TD*%
D10*
%TO.C,MX87*%
X378765250Y-134677000D03*
D11*
X376225250Y-139757000D03*
D10*
X372415250Y-137217000D03*
D12*
X371145250Y-139757000D03*
X381305250Y-139757000D03*
%TD*%
D10*
%TO.C,MX84*%
X359715250Y-191827000D03*
D11*
X357175250Y-196907000D03*
D10*
X353365250Y-194367000D03*
D12*
X352095250Y-196907000D03*
X362255250Y-196907000D03*
%TD*%
D10*
%TO.C,MX82*%
X347809000Y-153727000D03*
D11*
X345269000Y-158807000D03*
D10*
X341459000Y-156267000D03*
D12*
X340189000Y-158807000D03*
X350349000Y-158807000D03*
D18*
X333362750Y-151822000D03*
X357175250Y-151822000D03*
D11*
X333362750Y-167062000D03*
X357175250Y-167062000D03*
%TD*%
D10*
%TO.C,MX80*%
X350190250Y-115627000D03*
D11*
X347650250Y-120707000D03*
D10*
X343840250Y-118167000D03*
D12*
X342570250Y-120707000D03*
X352730250Y-120707000D03*
D18*
X335744000Y-113722000D03*
X359556500Y-113722000D03*
D11*
X335744000Y-128962000D03*
X359556500Y-128962000D03*
%TD*%
D10*
%TO.C,MX79*%
X340665250Y-191827000D03*
D11*
X338125250Y-196907000D03*
D10*
X334315250Y-194367000D03*
D12*
X333045250Y-196907000D03*
X343205250Y-196907000D03*
%TD*%
D10*
%TO.C,MX77*%
X333521500Y-172777000D03*
D11*
X330981500Y-177857000D03*
D10*
X327171500Y-175317000D03*
D12*
X325901500Y-177857000D03*
X336061500Y-177857000D03*
%TD*%
D10*
%TO.C,MX76*%
X331140250Y-134677000D03*
D11*
X328600250Y-139757000D03*
D10*
X324790250Y-137217000D03*
D12*
X323520250Y-139757000D03*
X333680250Y-139757000D03*
%TD*%
D10*
%TO.C,MX75*%
X321615250Y-115627000D03*
D11*
X319075250Y-120707000D03*
D10*
X315265250Y-118167000D03*
D12*
X313995250Y-120707000D03*
X324155250Y-120707000D03*
%TD*%
D10*
%TO.C,MX74*%
X321615250Y-96577000D03*
D11*
X319075250Y-101657000D03*
D10*
X315265250Y-99117000D03*
D12*
X313995250Y-101657000D03*
X324155250Y-101657000D03*
%TD*%
D10*
%TO.C,MX73*%
X316852750Y-153727000D03*
D11*
X314312750Y-158807000D03*
D10*
X310502750Y-156267000D03*
D12*
X309232750Y-158807000D03*
X319392750Y-158807000D03*
%TD*%
D10*
%TO.C,MX72*%
X312090250Y-134677000D03*
D11*
X309550250Y-139757000D03*
D10*
X305740250Y-137217000D03*
D12*
X304470250Y-139757000D03*
X314630250Y-139757000D03*
%TD*%
D10*
%TO.C,MX71*%
X316852750Y-191827000D03*
D11*
X314312750Y-196907000D03*
D10*
X310502750Y-194367000D03*
D12*
X309232750Y-196907000D03*
X319392750Y-196907000D03*
%TD*%
D10*
%TO.C,MX70*%
X321615250Y-191827000D03*
D11*
X319075250Y-196907000D03*
D10*
X315265250Y-194367000D03*
D12*
X313995250Y-196907000D03*
X324155250Y-196907000D03*
%TD*%
D10*
%TO.C,MX69*%
X307327750Y-172777000D03*
D11*
X304787750Y-177857000D03*
D10*
X300977750Y-175317000D03*
D12*
X299707750Y-177857000D03*
X309867750Y-177857000D03*
%TD*%
D10*
%TO.C,MX68*%
X302565250Y-115627000D03*
D11*
X300025250Y-120707000D03*
D10*
X296215250Y-118167000D03*
D12*
X294945250Y-120707000D03*
X305105250Y-120707000D03*
%TD*%
D10*
%TO.C,MX67*%
X302565250Y-96577000D03*
D11*
X300025250Y-101657000D03*
D10*
X296215250Y-99117000D03*
D12*
X294945250Y-101657000D03*
X305105250Y-101657000D03*
%TD*%
D10*
%TO.C,MX66*%
X297802750Y-153727000D03*
D11*
X295262750Y-158807000D03*
D10*
X291452750Y-156267000D03*
D12*
X290182750Y-158807000D03*
X300342750Y-158807000D03*
%TD*%
D10*
%TO.C,MX65*%
X293040250Y-134677000D03*
D11*
X290500250Y-139757000D03*
D10*
X286690250Y-137217000D03*
D12*
X285420250Y-139757000D03*
X295580250Y-139757000D03*
%TD*%
D10*
%TO.C,MX64*%
X288277750Y-191827000D03*
D11*
X285737750Y-196907000D03*
D10*
X281927750Y-194367000D03*
D12*
X280657750Y-196907000D03*
X290817750Y-196907000D03*
%TD*%
D10*
%TO.C,MX63*%
X302565250Y-191827000D03*
D11*
X300025250Y-196907000D03*
D10*
X296215250Y-194367000D03*
D12*
X294945250Y-196907000D03*
X305105250Y-196907000D03*
%TD*%
D10*
%TO.C,MX61*%
X283515250Y-115627000D03*
D11*
X280975250Y-120707000D03*
D10*
X277165250Y-118167000D03*
D12*
X275895250Y-120707000D03*
X286055250Y-120707000D03*
%TD*%
D10*
%TO.C,MX60*%
X283515250Y-96577000D03*
D11*
X280975250Y-101657000D03*
D10*
X277165250Y-99117000D03*
D12*
X275895250Y-101657000D03*
X286055250Y-101657000D03*
%TD*%
D10*
%TO.C,MX59*%
X278752750Y-153727000D03*
D11*
X276212750Y-158807000D03*
D10*
X272402750Y-156267000D03*
D12*
X271132750Y-158807000D03*
X281292750Y-158807000D03*
%TD*%
D10*
%TO.C,MX58*%
X273990250Y-134677000D03*
D11*
X271450250Y-139757000D03*
D10*
X267640250Y-137217000D03*
D12*
X266370250Y-139757000D03*
X276530250Y-139757000D03*
%TD*%
D10*
%TO.C,MX56*%
X264465250Y-115627000D03*
D11*
X261925250Y-120707000D03*
D10*
X258115250Y-118167000D03*
D12*
X256845250Y-120707000D03*
X267005250Y-120707000D03*
%TD*%
D10*
%TO.C,MX55*%
X264465250Y-96577000D03*
D11*
X261925250Y-101657000D03*
D10*
X258115250Y-99117000D03*
D12*
X256845250Y-101657000D03*
X267005250Y-101657000D03*
%TD*%
D10*
%TO.C,MX54*%
X259702750Y-153727000D03*
D11*
X257162750Y-158807000D03*
D10*
X253352750Y-156267000D03*
D12*
X252082750Y-158807000D03*
X262242750Y-158807000D03*
%TD*%
D10*
%TO.C,MX53*%
X283515250Y-191827000D03*
D11*
X280975250Y-196907000D03*
D10*
X277165250Y-194367000D03*
D12*
X275895250Y-196907000D03*
X286055250Y-196907000D03*
%TD*%
D10*
%TO.C,MX52*%
X254940250Y-134677000D03*
D11*
X252400250Y-139757000D03*
D10*
X248590250Y-137217000D03*
D12*
X247320250Y-139757000D03*
X257480250Y-139757000D03*
%TD*%
D10*
%TO.C,MX51*%
X250177750Y-172777000D03*
D11*
X247637750Y-177857000D03*
D10*
X243827750Y-175317000D03*
D12*
X242557750Y-177857000D03*
X252717750Y-177857000D03*
%TD*%
D10*
%TO.C,MX50*%
X245415250Y-115627000D03*
D11*
X242875250Y-120707000D03*
D10*
X239065250Y-118167000D03*
D12*
X237795250Y-120707000D03*
X247955250Y-120707000D03*
%TD*%
D10*
%TO.C,MX49*%
X245415250Y-96577000D03*
D11*
X242875250Y-101657000D03*
D10*
X239065250Y-99117000D03*
D12*
X237795250Y-101657000D03*
X247955250Y-101657000D03*
%TD*%
D10*
%TO.C,MX48*%
X240652750Y-153727000D03*
D11*
X238112750Y-158807000D03*
D10*
X234302750Y-156267000D03*
D12*
X233032750Y-158807000D03*
X243192750Y-158807000D03*
%TD*%
D10*
%TO.C,MX47*%
X235890250Y-134677000D03*
D11*
X233350250Y-139757000D03*
D10*
X229540250Y-137217000D03*
D12*
X228270250Y-139757000D03*
X238430250Y-139757000D03*
%TD*%
D10*
%TO.C,MX46*%
X231127750Y-172777000D03*
D11*
X228587750Y-177857000D03*
D10*
X224777750Y-175317000D03*
D12*
X223507750Y-177857000D03*
X233667750Y-177857000D03*
%TD*%
D10*
%TO.C,MX45*%
X226365250Y-115627000D03*
D11*
X223825250Y-120707000D03*
D10*
X220015250Y-118167000D03*
D12*
X218745250Y-120707000D03*
X228905250Y-120707000D03*
%TD*%
D10*
%TO.C,MX44*%
X226365250Y-96577000D03*
D11*
X223825250Y-101657000D03*
D10*
X220015250Y-99117000D03*
D12*
X218745250Y-101657000D03*
X228905250Y-101657000D03*
%TD*%
D10*
%TO.C,MX43*%
X221602750Y-153727000D03*
D11*
X219062750Y-158807000D03*
D10*
X215252750Y-156267000D03*
D12*
X213982750Y-158807000D03*
X224142750Y-158807000D03*
%TD*%
D10*
%TO.C,MX42*%
X216840250Y-134677000D03*
D11*
X214300250Y-139757000D03*
D10*
X210490250Y-137217000D03*
D12*
X209220250Y-139757000D03*
X219380250Y-139757000D03*
%TD*%
D10*
%TO.C,MX40*%
X212077750Y-172777000D03*
D11*
X209537750Y-177857000D03*
D10*
X205727750Y-175317000D03*
D12*
X204457750Y-177857000D03*
X214617750Y-177857000D03*
%TD*%
D10*
%TO.C,MX39*%
X207315250Y-115627000D03*
D11*
X204775250Y-120707000D03*
D10*
X200965250Y-118167000D03*
D12*
X199695250Y-120707000D03*
X209855250Y-120707000D03*
%TD*%
D10*
%TO.C,MX38*%
X207315250Y-96577000D03*
D11*
X204775250Y-101657000D03*
D10*
X200965250Y-99117000D03*
D12*
X199695250Y-101657000D03*
X209855250Y-101657000D03*
%TD*%
D10*
%TO.C,MX37*%
X202552750Y-153727000D03*
D11*
X200012750Y-158807000D03*
D10*
X196202750Y-156267000D03*
D12*
X194932750Y-158807000D03*
X205092750Y-158807000D03*
%TD*%
D10*
%TO.C,MX36*%
X197790250Y-134677000D03*
D11*
X195250250Y-139757000D03*
D10*
X191440250Y-137217000D03*
D12*
X190170250Y-139757000D03*
X200330250Y-139757000D03*
%TD*%
D10*
%TO.C,MX35*%
X193027750Y-172777000D03*
D11*
X190487750Y-177857000D03*
D10*
X186677750Y-175317000D03*
D12*
X185407750Y-177857000D03*
X195567750Y-177857000D03*
%TD*%
D10*
%TO.C,MX34*%
X188265250Y-115627000D03*
D11*
X185725250Y-120707000D03*
D10*
X181915250Y-118167000D03*
D12*
X180645250Y-120707000D03*
X190805250Y-120707000D03*
%TD*%
D10*
%TO.C,MX33*%
X188265250Y-96577000D03*
D11*
X185725250Y-101657000D03*
D10*
X181915250Y-99117000D03*
D12*
X180645250Y-101657000D03*
X190805250Y-101657000D03*
%TD*%
D10*
%TO.C,MX32*%
X183502750Y-153727000D03*
D11*
X180962750Y-158807000D03*
D10*
X177152750Y-156267000D03*
D12*
X175882750Y-158807000D03*
X186042750Y-158807000D03*
%TD*%
D10*
%TO.C,MX31*%
X178740250Y-134677000D03*
D11*
X176200250Y-139757000D03*
D10*
X172390250Y-137217000D03*
D12*
X171120250Y-139757000D03*
X181280250Y-139757000D03*
%TD*%
D10*
%TO.C,MX30*%
X173977750Y-172777000D03*
D11*
X171437750Y-177857000D03*
D10*
X167627750Y-175317000D03*
D12*
X166357750Y-177857000D03*
X176517750Y-177857000D03*
%TD*%
D10*
%TO.C,MX29*%
X169215250Y-115627000D03*
D11*
X166675250Y-120707000D03*
D10*
X162865250Y-118167000D03*
D12*
X161595250Y-120707000D03*
X171755250Y-120707000D03*
%TD*%
D10*
%TO.C,MX28*%
X169215250Y-96577000D03*
D11*
X166675250Y-101657000D03*
D10*
X162865250Y-99117000D03*
D12*
X161595250Y-101657000D03*
X171755250Y-101657000D03*
%TD*%
D10*
%TO.C,MX27*%
X164452750Y-153727000D03*
D11*
X161912750Y-158807000D03*
D10*
X158102750Y-156267000D03*
D12*
X156832750Y-158807000D03*
X166992750Y-158807000D03*
%TD*%
D10*
%TO.C,MX26*%
X159690250Y-134677000D03*
D11*
X157150250Y-139757000D03*
D10*
X153340250Y-137217000D03*
D12*
X152070250Y-139757000D03*
X162230250Y-139757000D03*
%TD*%
D10*
%TO.C,MX25*%
X154927750Y-172777000D03*
D11*
X152387750Y-177857000D03*
D10*
X148577750Y-175317000D03*
D12*
X147307750Y-177857000D03*
X157467750Y-177857000D03*
%TD*%
D10*
%TO.C,MX24*%
X150165250Y-115627000D03*
D11*
X147625250Y-120707000D03*
D10*
X143815250Y-118167000D03*
D12*
X142545250Y-120707000D03*
X152705250Y-120707000D03*
%TD*%
D10*
%TO.C,MX23*%
X150165250Y-96577000D03*
D11*
X147625250Y-101657000D03*
D10*
X143815250Y-99117000D03*
D12*
X142545250Y-101657000D03*
X152705250Y-101657000D03*
%TD*%
D10*
%TO.C,MX22*%
X145402750Y-153727000D03*
D11*
X142862750Y-158807000D03*
D10*
X139052750Y-156267000D03*
D12*
X137782750Y-158807000D03*
X147942750Y-158807000D03*
%TD*%
D10*
%TO.C,MX21*%
X140640250Y-134677000D03*
D11*
X138100250Y-139757000D03*
D10*
X134290250Y-137217000D03*
D12*
X133020250Y-139757000D03*
X143180250Y-139757000D03*
%TD*%
D10*
%TO.C,MX20*%
X143021500Y-191827000D03*
D11*
X140481500Y-196907000D03*
D10*
X136671500Y-194367000D03*
D12*
X135401500Y-196907000D03*
X145561500Y-196907000D03*
%TD*%
D10*
%TO.C,MX19*%
X135877750Y-172777000D03*
D11*
X133337750Y-177857000D03*
D10*
X129527750Y-175317000D03*
D12*
X128257750Y-177857000D03*
X138417750Y-177857000D03*
%TD*%
D10*
%TO.C,MX18*%
X131115250Y-115627000D03*
D11*
X128575250Y-120707000D03*
D10*
X124765250Y-118167000D03*
D12*
X123495250Y-120707000D03*
X133655250Y-120707000D03*
%TD*%
D10*
%TO.C,MX17*%
X131115250Y-96577000D03*
D11*
X128575250Y-101657000D03*
D10*
X124765250Y-99117000D03*
D12*
X123495250Y-101657000D03*
X133655250Y-101657000D03*
%TD*%
D10*
%TO.C,MX16*%
X126352750Y-153727000D03*
D11*
X123812750Y-158807000D03*
D10*
X120002750Y-156267000D03*
D12*
X118732750Y-158807000D03*
X128892750Y-158807000D03*
%TD*%
D10*
%TO.C,MX15*%
X121590250Y-134677000D03*
D11*
X119050250Y-139757000D03*
D10*
X115240250Y-137217000D03*
D12*
X113970250Y-139757000D03*
X124130250Y-139757000D03*
%TD*%
D10*
%TO.C,MX14*%
X119209000Y-191827000D03*
D11*
X116669000Y-196907000D03*
D10*
X112859000Y-194367000D03*
D12*
X111589000Y-196907000D03*
X121749000Y-196907000D03*
%TD*%
D10*
%TO.C,MX13*%
X112065250Y-115627000D03*
D11*
X109525250Y-120707000D03*
D10*
X105715250Y-118167000D03*
D12*
X104445250Y-120707000D03*
X114605250Y-120707000D03*
%TD*%
D10*
%TO.C,MX12*%
X112065250Y-96577000D03*
D11*
X109525250Y-101657000D03*
D10*
X105715250Y-99117000D03*
D12*
X104445250Y-101657000D03*
X114605250Y-101657000D03*
%TD*%
D10*
%TO.C,MX11*%
X95396500Y-191827000D03*
D11*
X92856500Y-196907000D03*
D10*
X89046500Y-194367000D03*
D12*
X87776500Y-196907000D03*
X97936500Y-196907000D03*
%TD*%
D10*
%TO.C,MX9*%
X100159000Y-153727000D03*
D11*
X97619000Y-158807000D03*
D10*
X93809000Y-156267000D03*
D12*
X92539000Y-158807000D03*
X102699000Y-158807000D03*
%TD*%
D10*
%TO.C,MX8*%
X97777750Y-134677000D03*
D11*
X95237750Y-139757000D03*
D10*
X91427750Y-137217000D03*
D12*
X90157750Y-139757000D03*
X100317750Y-139757000D03*
%TD*%
D10*
%TO.C,MX7*%
X93015250Y-115627000D03*
D11*
X90475250Y-120707000D03*
D10*
X86665250Y-118167000D03*
D12*
X85395250Y-120707000D03*
X95555250Y-120707000D03*
%TD*%
D10*
%TO.C,MX6*%
X93015250Y-96577000D03*
D11*
X90475250Y-101657000D03*
D10*
X86665250Y-99117000D03*
D12*
X85395250Y-101657000D03*
X95555250Y-101657000D03*
%TD*%
D10*
%TO.C,MX5*%
X73965250Y-191827000D03*
D11*
X71425250Y-196907000D03*
D10*
X67615250Y-194367000D03*
D12*
X66345250Y-196907000D03*
X76505250Y-196907000D03*
%TD*%
D10*
%TO.C,MX3*%
X73965250Y-153727000D03*
D11*
X71425250Y-158807000D03*
D10*
X67615250Y-156267000D03*
D12*
X66345250Y-158807000D03*
X76505250Y-158807000D03*
%TD*%
%TO.C,MX1*%
X76505250Y-120707000D03*
X66345250Y-120707000D03*
D10*
X67615250Y-118167000D03*
D11*
X71425250Y-120707000D03*
D10*
X73965250Y-115627000D03*
%TD*%
%TO.C,F1*%
G36*
G01*
X370044000Y-102282000D02*
X370044000Y-101032000D01*
G75*
G02*
X370294000Y-100782000I250000J0D01*
G01*
X371044000Y-100782000D01*
G75*
G02*
X371294000Y-101032000I0J-250000D01*
G01*
X371294000Y-102282000D01*
G75*
G02*
X371044000Y-102532000I-250000J0D01*
G01*
X370294000Y-102532000D01*
G75*
G02*
X370044000Y-102282000I0J250000D01*
G01*
G37*
G36*
G01*
X372844000Y-102282000D02*
X372844000Y-101032000D01*
G75*
G02*
X373094000Y-100782000I250000J0D01*
G01*
X373844000Y-100782000D01*
G75*
G02*
X374094000Y-101032000I0J-250000D01*
G01*
X374094000Y-102282000D01*
G75*
G02*
X373844000Y-102532000I-250000J0D01*
G01*
X373094000Y-102532000D01*
G75*
G02*
X372844000Y-102282000I0J250000D01*
G01*
G37*
%TD*%
D34*
%TO.C,D98*%
X83400250Y-185782000D03*
X83400250Y-188982000D03*
X78500250Y-185782000D03*
X78500250Y-188982000D03*
%TD*%
%TO.C,D97*%
X152409000Y-186772000D03*
X152409000Y-183572000D03*
X157309000Y-186772000D03*
X157309000Y-183572000D03*
%TD*%
%TO.C,D96*%
X209469000Y-187394500D03*
X209469000Y-184194500D03*
X214369000Y-187394500D03*
X214369000Y-184194500D03*
%TD*%
%TO.C,D95*%
X307100250Y-188982000D03*
X307100250Y-185782000D03*
X312000250Y-188982000D03*
X312000250Y-185782000D03*
%TD*%
D35*
%TO.C,D94*%
X368300250Y-189832000D03*
X365100250Y-189832000D03*
X368300250Y-184932000D03*
X365100250Y-184932000D03*
%TD*%
D34*
%TO.C,D93*%
X363049000Y-111842000D03*
X363049000Y-108642000D03*
X367949000Y-111842000D03*
X367949000Y-108642000D03*
%TD*%
%TO.C,D92*%
X312000250Y-109582000D03*
X312000250Y-112782000D03*
X307100250Y-109582000D03*
X307100250Y-112782000D03*
%TD*%
%TO.C,D91*%
X235800250Y-109582000D03*
X235800250Y-112782000D03*
X230900250Y-109582000D03*
X230900250Y-112782000D03*
%TD*%
%TO.C,D90*%
X153906500Y-112782000D03*
X153906500Y-109582000D03*
X158806500Y-112782000D03*
X158806500Y-109582000D03*
%TD*%
%TO.C,D89*%
X83469000Y-109594500D03*
X83469000Y-112794500D03*
X78569000Y-109594500D03*
X78569000Y-112794500D03*
%TD*%
D13*
%TO.C,D88*%
X377876250Y-168681250D03*
X374576250Y-168681250D03*
%TD*%
%TO.C,D87*%
X378001250Y-149631250D03*
X374701250Y-149631250D03*
%TD*%
%TO.C,D86*%
X378001250Y-144868750D03*
X374701250Y-144868750D03*
%TD*%
%TO.C,D85*%
X378001250Y-125818750D03*
X374701250Y-125818750D03*
%TD*%
D14*
%TO.C,D84*%
X82537750Y-101532000D03*
X82537750Y-104832000D03*
%TD*%
D13*
%TO.C,D83*%
X373907500Y-190906250D03*
X370607500Y-190906250D03*
%TD*%
D14*
%TO.C,D82*%
X365112750Y-195257000D03*
X365112750Y-198557000D03*
%TD*%
%TO.C,D81*%
X365081000Y-176207000D03*
X365081000Y-172907000D03*
%TD*%
%TO.C,D80*%
X350825250Y-153919500D03*
X350825250Y-150619500D03*
%TD*%
%TO.C,D79*%
X344475250Y-138107000D03*
X344475250Y-141407000D03*
%TD*%
%TO.C,D78*%
X351631250Y-123031250D03*
X351631250Y-126331250D03*
%TD*%
%TO.C,D77*%
X346062750Y-195257000D03*
X346062750Y-198557000D03*
%TD*%
%TO.C,D76*%
X346062750Y-100007000D03*
X346062750Y-103307000D03*
%TD*%
%TO.C,D75*%
X341363750Y-175825000D03*
X341363750Y-172525000D03*
%TD*%
%TO.C,D74*%
X336537750Y-138107000D03*
X336537750Y-141407000D03*
%TD*%
%TO.C,D73*%
X327012750Y-119057000D03*
X327012750Y-122357000D03*
%TD*%
%TO.C,D72*%
X327012750Y-100007000D03*
X327012750Y-103307000D03*
%TD*%
%TO.C,D71*%
X322250250Y-157344500D03*
X322250250Y-154044500D03*
%TD*%
%TO.C,D70*%
X317487750Y-138107000D03*
X317487750Y-141407000D03*
%TD*%
%TO.C,D69*%
X312249000Y-176207000D03*
X312249000Y-172907000D03*
%TD*%
%TO.C,D68*%
X307962750Y-119057000D03*
X307962750Y-122357000D03*
%TD*%
%TO.C,D67*%
X307962750Y-100007000D03*
X307962750Y-103307000D03*
%TD*%
%TO.C,D66*%
X326219000Y-192082000D03*
X326219000Y-195382000D03*
%TD*%
%TO.C,D65*%
X303200250Y-157157000D03*
X303200250Y-160457000D03*
%TD*%
%TO.C,D64*%
X298437750Y-138107000D03*
X298437750Y-141407000D03*
%TD*%
%TO.C,D63*%
X293675250Y-176207000D03*
X293675250Y-172907000D03*
%TD*%
%TO.C,D62*%
X288912750Y-119057000D03*
X288912750Y-122357000D03*
%TD*%
%TO.C,D61*%
X288912750Y-100007000D03*
X288912750Y-103307000D03*
%TD*%
D13*
%TO.C,D60*%
X307962750Y-200082000D03*
X304662750Y-200082000D03*
%TD*%
D14*
%TO.C,D59*%
X284150250Y-157157000D03*
X284150250Y-160457000D03*
%TD*%
%TO.C,D58*%
X279387750Y-138107000D03*
X279387750Y-141407000D03*
%TD*%
%TO.C,D57*%
X273037750Y-174744500D03*
X273037750Y-171444500D03*
%TD*%
%TO.C,D56*%
X269862750Y-119057000D03*
X269862750Y-122357000D03*
%TD*%
%TO.C,D55*%
X269862750Y-100007000D03*
X269862750Y-103307000D03*
%TD*%
%TO.C,D54*%
X265100250Y-157157000D03*
X265100250Y-160457000D03*
%TD*%
D13*
%TO.C,D53*%
X292150250Y-200082000D03*
X288850250Y-200082000D03*
%TD*%
D14*
%TO.C,D52*%
X260337750Y-138107000D03*
X260337750Y-141407000D03*
%TD*%
%TO.C,D51*%
X254464000Y-173537000D03*
X254464000Y-170237000D03*
%TD*%
%TO.C,D50*%
X250812750Y-119057000D03*
X250812750Y-122357000D03*
%TD*%
%TO.C,D49*%
X250812750Y-100007000D03*
X250812750Y-103307000D03*
%TD*%
%TO.C,D48*%
X246050250Y-157157000D03*
X246050250Y-160457000D03*
%TD*%
%TO.C,D47*%
X241287750Y-138107000D03*
X241287750Y-141407000D03*
%TD*%
%TO.C,D46*%
X234779000Y-173537000D03*
X234779000Y-170237000D03*
%TD*%
%TO.C,D45*%
X231762750Y-119057000D03*
X231762750Y-122357000D03*
%TD*%
%TO.C,D44*%
X231762750Y-100007000D03*
X231762750Y-103307000D03*
%TD*%
%TO.C,D43*%
X227000250Y-157157000D03*
X227000250Y-160457000D03*
%TD*%
%TO.C,D42*%
X222237750Y-138107000D03*
X222237750Y-141407000D03*
%TD*%
%TO.C,D41*%
X219062750Y-193857000D03*
X219062750Y-190557000D03*
%TD*%
%TO.C,D40*%
X217475250Y-176207000D03*
X217475250Y-179507000D03*
%TD*%
%TO.C,D39*%
X212712750Y-119057000D03*
X212712750Y-122357000D03*
%TD*%
%TO.C,D38*%
X212712750Y-100007000D03*
X212712750Y-103307000D03*
%TD*%
%TO.C,D37*%
X207950250Y-157157000D03*
X207950250Y-160457000D03*
%TD*%
%TO.C,D36*%
X203187750Y-138107000D03*
X203187750Y-141407000D03*
%TD*%
%TO.C,D35*%
X198425250Y-176207000D03*
X198425250Y-179507000D03*
%TD*%
%TO.C,D34*%
X193662750Y-119057000D03*
X193662750Y-122357000D03*
%TD*%
%TO.C,D33*%
X193662750Y-100007000D03*
X193662750Y-103307000D03*
%TD*%
%TO.C,D32*%
X188900250Y-157157000D03*
X188900250Y-160457000D03*
%TD*%
%TO.C,D31*%
X184137750Y-138107000D03*
X184137750Y-141407000D03*
%TD*%
%TO.C,D30*%
X179375250Y-176207000D03*
X179375250Y-179507000D03*
%TD*%
%TO.C,D29*%
X174612750Y-119057000D03*
X174612750Y-122357000D03*
%TD*%
%TO.C,D28*%
X174612750Y-100007000D03*
X174612750Y-103307000D03*
%TD*%
%TO.C,D27*%
X169850250Y-157157000D03*
X169850250Y-160457000D03*
%TD*%
%TO.C,D26*%
X165087750Y-138107000D03*
X165087750Y-141407000D03*
%TD*%
%TO.C,D25*%
X160325250Y-176207000D03*
X160325250Y-179507000D03*
%TD*%
%TO.C,D24*%
X155562750Y-119057000D03*
X155562750Y-122357000D03*
%TD*%
%TO.C,D23*%
X155562750Y-100007000D03*
X155562750Y-103307000D03*
%TD*%
%TO.C,D22*%
X150800250Y-157157000D03*
X150800250Y-160457000D03*
%TD*%
%TO.C,D21*%
X146037750Y-138107000D03*
X146037750Y-141407000D03*
%TD*%
%TO.C,D20*%
X150959000Y-194747000D03*
X150959000Y-191447000D03*
%TD*%
%TO.C,D19*%
X141275250Y-176207000D03*
X141275250Y-179507000D03*
%TD*%
%TO.C,D18*%
X136512750Y-119057000D03*
X136512750Y-122357000D03*
%TD*%
%TO.C,D17*%
X136512750Y-100007000D03*
X136512750Y-103307000D03*
%TD*%
%TO.C,D16*%
X131750250Y-157157000D03*
X131750250Y-160457000D03*
%TD*%
%TO.C,D15*%
X126987750Y-138107000D03*
X126987750Y-141407000D03*
%TD*%
D13*
%TO.C,D14*%
X128989000Y-192462000D03*
X132289000Y-192462000D03*
%TD*%
D14*
%TO.C,D13*%
X117462750Y-119057000D03*
X117462750Y-122357000D03*
%TD*%
%TO.C,D12*%
X117462750Y-100007000D03*
X117462750Y-103307000D03*
%TD*%
%TO.C,D11*%
X103969000Y-194492000D03*
X103969000Y-191192000D03*
%TD*%
D13*
%TO.C,D10*%
X105443750Y-181768750D03*
X108743750Y-181768750D03*
%TD*%
D14*
%TO.C,D9*%
X105556500Y-157157000D03*
X105556500Y-160457000D03*
%TD*%
%TO.C,D8*%
X103175250Y-138107000D03*
X103175250Y-141407000D03*
%TD*%
%TO.C,D7*%
X98412750Y-119057000D03*
X98412750Y-122357000D03*
%TD*%
%TO.C,D6*%
X98412750Y-100007000D03*
X98412750Y-103307000D03*
%TD*%
%TO.C,D5*%
X79204000Y-195257000D03*
X79204000Y-191957000D03*
%TD*%
%TO.C,D4*%
X79362750Y-176207000D03*
X79362750Y-179507000D03*
%TD*%
%TO.C,D3*%
X79362750Y-157157000D03*
X79362750Y-160457000D03*
%TD*%
%TO.C,D2*%
X79362750Y-138107000D03*
X79362750Y-141407000D03*
%TD*%
%TO.C,D1*%
X79362750Y-119057000D03*
X79362750Y-122357000D03*
%TD*%
%TO.C,CF3*%
G36*
G01*
X264600250Y-187063250D02*
X264600250Y-186113250D01*
G75*
G02*
X264850250Y-185863250I250000J0D01*
G01*
X265350250Y-185863250D01*
G75*
G02*
X265600250Y-186113250I0J-250000D01*
G01*
X265600250Y-187063250D01*
G75*
G02*
X265350250Y-187313250I-250000J0D01*
G01*
X264850250Y-187313250D01*
G75*
G02*
X264600250Y-187063250I0J250000D01*
G01*
G37*
G36*
G01*
X266500250Y-187063250D02*
X266500250Y-186113250D01*
G75*
G02*
X266750250Y-185863250I250000J0D01*
G01*
X267250250Y-185863250D01*
G75*
G02*
X267500250Y-186113250I0J-250000D01*
G01*
X267500250Y-187063250D01*
G75*
G02*
X267250250Y-187313250I-250000J0D01*
G01*
X266750250Y-187313250D01*
G75*
G02*
X266500250Y-187063250I0J250000D01*
G01*
G37*
%TD*%
%TO.C,C_X1*%
G36*
G01*
X256793078Y-194541171D02*
X257464829Y-195212922D01*
G75*
G02*
X257464829Y-195566476I-176777J-176777D01*
G01*
X257111276Y-195920029D01*
G75*
G02*
X256757722Y-195920029I-176777J176777D01*
G01*
X256085971Y-195248278D01*
G75*
G02*
X256085971Y-194894724I176777J176777D01*
G01*
X256439524Y-194541171D01*
G75*
G02*
X256793078Y-194541171I176777J-176777D01*
G01*
G37*
G36*
G01*
X258136580Y-193197669D02*
X258808331Y-193869420D01*
G75*
G02*
X258808331Y-194222974I-176777J-176777D01*
G01*
X258454778Y-194576527D01*
G75*
G02*
X258101224Y-194576527I-176777J176777D01*
G01*
X257429473Y-193904776D01*
G75*
G02*
X257429473Y-193551222I176777J176777D01*
G01*
X257783026Y-193197669D01*
G75*
G02*
X258136580Y-193197669I176777J-176777D01*
G01*
G37*
%TD*%
%TO.C,C_ucap1*%
G36*
G01*
X260200250Y-181350750D02*
X260200250Y-182300750D01*
G75*
G02*
X259950250Y-182550750I-250000J0D01*
G01*
X259450250Y-182550750D01*
G75*
G02*
X259200250Y-182300750I0J250000D01*
G01*
X259200250Y-181350750D01*
G75*
G02*
X259450250Y-181100750I250000J0D01*
G01*
X259950250Y-181100750D01*
G75*
G02*
X260200250Y-181350750I0J-250000D01*
G01*
G37*
G36*
G01*
X258300250Y-181350750D02*
X258300250Y-182300750D01*
G75*
G02*
X258050250Y-182550750I-250000J0D01*
G01*
X257550250Y-182550750D01*
G75*
G02*
X257300250Y-182300750I0J250000D01*
G01*
X257300250Y-181350750D01*
G75*
G02*
X257550250Y-181100750I250000J0D01*
G01*
X258050250Y-181100750D01*
G75*
G02*
X258300250Y-181350750I0J-250000D01*
G01*
G37*
%TD*%
%TO.C,C_F4*%
G36*
G01*
X232399000Y-184662000D02*
X233349000Y-184662000D01*
G75*
G02*
X233599000Y-184912000I0J-250000D01*
G01*
X233599000Y-185412000D01*
G75*
G02*
X233349000Y-185662000I-250000J0D01*
G01*
X232399000Y-185662000D01*
G75*
G02*
X232149000Y-185412000I0J250000D01*
G01*
X232149000Y-184912000D01*
G75*
G02*
X232399000Y-184662000I250000J0D01*
G01*
G37*
G36*
G01*
X232399000Y-186562000D02*
X233349000Y-186562000D01*
G75*
G02*
X233599000Y-186812000I0J-250000D01*
G01*
X233599000Y-187312000D01*
G75*
G02*
X233349000Y-187562000I-250000J0D01*
G01*
X232399000Y-187562000D01*
G75*
G02*
X232149000Y-187312000I0J250000D01*
G01*
X232149000Y-186812000D01*
G75*
G02*
X232399000Y-186562000I250000J0D01*
G01*
G37*
%TD*%
%TO.C,C_F2*%
G36*
G01*
X229126250Y-200137500D02*
X228176250Y-200137500D01*
G75*
G02*
X227926250Y-199887500I0J250000D01*
G01*
X227926250Y-199387500D01*
G75*
G02*
X228176250Y-199137500I250000J0D01*
G01*
X229126250Y-199137500D01*
G75*
G02*
X229376250Y-199387500I0J-250000D01*
G01*
X229376250Y-199887500D01*
G75*
G02*
X229126250Y-200137500I-250000J0D01*
G01*
G37*
G36*
G01*
X229126250Y-198237500D02*
X228176250Y-198237500D01*
G75*
G02*
X227926250Y-197987500I0J250000D01*
G01*
X227926250Y-197487500D01*
G75*
G02*
X228176250Y-197237500I250000J0D01*
G01*
X229126250Y-197237500D01*
G75*
G02*
X229376250Y-197487500I0J-250000D01*
G01*
X229376250Y-197987500D01*
G75*
G02*
X229126250Y-198237500I-250000J0D01*
G01*
G37*
%TD*%
%TO.C,C_F1*%
G36*
G01*
X239406500Y-181350750D02*
X239406500Y-182300750D01*
G75*
G02*
X239156500Y-182550750I-250000J0D01*
G01*
X238656500Y-182550750D01*
G75*
G02*
X238406500Y-182300750I0J250000D01*
G01*
X238406500Y-181350750D01*
G75*
G02*
X238656500Y-181100750I250000J0D01*
G01*
X239156500Y-181100750D01*
G75*
G02*
X239406500Y-181350750I0J-250000D01*
G01*
G37*
G36*
G01*
X237506500Y-181350750D02*
X237506500Y-182300750D01*
G75*
G02*
X237256500Y-182550750I-250000J0D01*
G01*
X236756500Y-182550750D01*
G75*
G02*
X236506500Y-182300750I0J250000D01*
G01*
X236506500Y-181350750D01*
G75*
G02*
X236756500Y-181100750I250000J0D01*
G01*
X237256500Y-181100750D01*
G75*
G02*
X237506500Y-181350750I0J-250000D01*
G01*
G37*
%TD*%
M02*
