%TF.GenerationSoftware,KiCad,Pcbnew,(5.1.9)-1*%
%TF.CreationDate,2021-05-17T21:36:22-04:00*%
%TF.ProjectId,plate,706c6174-652e-46b6-9963-61645f706362,rev?*%
%TF.SameCoordinates,Original*%
%TF.FileFunction,Profile,NP*%
%FSLAX46Y46*%
G04 Gerber Fmt 4.6, Leading zero omitted, Abs format (unit mm)*
G04 Created by KiCad (PCBNEW (5.1.9)-1) date 2021-05-17 21:36:22*
%MOMM*%
%LPD*%
G01*
G04 APERTURE LIST*
%TA.AperFunction,Profile*%
%ADD10C,0.200000*%
%TD*%
G04 APERTURE END LIST*
D10*
X270457300Y-57096399D02*
X270457300Y-38021400D01*
X308582299Y-57096399D02*
X270457300Y-57096399D01*
X54432300Y-92646400D02*
G75*
G02*
X53932300Y-92146400I0J500000D01*
G01*
X67432300Y-92646400D02*
X54432299Y-92646400D01*
X229857301Y-54046399D02*
G75*
G02*
X229357300Y-54546400I-500001J0D01*
G01*
X158707300Y-41046400D02*
G75*
G02*
X159207300Y-40546400I500000J0D01*
G01*
X27451049Y-98196400D02*
X27451050Y-111196399D01*
X26951049Y-97696400D02*
G75*
G02*
X27451049Y-98196400I0J-500000D01*
G01*
X72982300Y-92146400D02*
X72982300Y-79146399D01*
X163182299Y-92146400D02*
G75*
G02*
X162682300Y-92646399I-499999J0D01*
G01*
X73482300Y-78646400D02*
X86482300Y-78646400D01*
X86482300Y-78646399D02*
G75*
G02*
X86982300Y-79146399I0J-500000D01*
G01*
X149682300Y-92646400D02*
G75*
G02*
X149182300Y-92146400I0J500000D01*
G01*
X162682300Y-92646400D02*
X149682300Y-92646400D01*
X72194800Y-97696400D02*
G75*
G02*
X72694800Y-98196400I0J-500000D01*
G01*
X59194800Y-111696399D02*
G75*
G02*
X58694800Y-111196399I0J500000D01*
G01*
X149682300Y-78646400D02*
X162682300Y-78646400D01*
X73482300Y-92646400D02*
G75*
G02*
X72982300Y-92146400I0J500000D01*
G01*
X268744800Y-78646400D02*
X281744800Y-78646400D01*
X58694800Y-111196399D02*
X58694800Y-98196400D01*
X168732300Y-92646401D02*
G75*
G02*
X168232299Y-92146400I0J500001D01*
G01*
X27451049Y-111196399D02*
G75*
G02*
X26951049Y-111696399I-500000J0D01*
G01*
X239382298Y-92146400D02*
G75*
G02*
X238882299Y-92646399I-499999J0D01*
G01*
X149182300Y-79146399D02*
G75*
G02*
X149682300Y-78646399I500000J0D01*
G01*
X168732300Y-78646400D02*
X181732300Y-78646400D01*
X162682300Y-78646399D02*
G75*
G02*
X163182300Y-79146399I0J-500000D01*
G01*
X86982300Y-79146399D02*
X86982300Y-92146400D01*
X268244800Y-79146399D02*
G75*
G02*
X268744800Y-78646399I500000J0D01*
G01*
X72982300Y-79146399D02*
G75*
G02*
X73482300Y-78646399I500000J0D01*
G01*
X211594800Y-97696400D02*
X224594799Y-97696400D01*
X268744800Y-92646400D02*
G75*
G02*
X268244800Y-92146400I0J500000D01*
G01*
X192044800Y-98196400D02*
G75*
G02*
X192544800Y-97696400I500000J0D01*
G01*
X8688550Y-98196400D02*
G75*
G02*
X9188550Y-97696400I500000J0D01*
G01*
X168232300Y-92146400D02*
X168232300Y-79146399D01*
X244432300Y-79146399D02*
G75*
G02*
X244932300Y-78646399I500000J0D01*
G01*
X-12242700Y-111696399D02*
G75*
G02*
X-12742700Y-111196399I0J500000D01*
G01*
X182232300Y-79146399D02*
X182232300Y-92146400D01*
X-12242700Y-97696400D02*
X757299Y-97696400D01*
X168232300Y-79146399D02*
G75*
G02*
X168732300Y-78646399I500000J0D01*
G01*
X281744800Y-92646400D02*
X268744800Y-92646400D01*
X163182300Y-79146399D02*
X163182300Y-92146400D01*
X59194800Y-97696400D02*
X72194800Y-97696400D01*
X244432300Y-92146400D02*
X244432300Y-79146399D01*
X1257299Y-111196399D02*
G75*
G02*
X757299Y-111696399I-500000J0D01*
G01*
X9188550Y-111696400D02*
G75*
G02*
X8688549Y-111196399I0J500001D01*
G01*
X238882299Y-78646398D02*
G75*
G02*
X239382300Y-79146399I0J-500001D01*
G01*
X9188550Y-97696400D02*
X26951050Y-97696400D01*
X72694800Y-111196399D02*
G75*
G02*
X72194800Y-111696399I-500000J0D01*
G01*
X225382299Y-79146399D02*
G75*
G02*
X225882299Y-78646399I500000J0D01*
G01*
X225382300Y-92146400D02*
X225382300Y-79146399D01*
X757299Y-97696399D02*
G75*
G02*
X1257300Y-98196400I0J-500001D01*
G01*
X26951049Y-111696399D02*
X9188549Y-111696399D01*
X757299Y-111696399D02*
X-12242700Y-111696399D01*
X181732300Y-92646400D02*
X168732300Y-92646400D01*
X-12742700Y-111196399D02*
X-12742701Y-98196400D01*
X281744800Y-78646399D02*
G75*
G02*
X282244800Y-79146399I0J-500000D01*
G01*
X72194800Y-111696399D02*
X59194799Y-111696399D01*
X182232299Y-92146400D02*
G75*
G02*
X181732300Y-92646399I-499999J0D01*
G01*
X149182300Y-92146400D02*
X149182300Y-79146399D01*
X8688549Y-111196399D02*
X8688549Y-98196400D01*
X181732300Y-78646399D02*
G75*
G02*
X182232300Y-79146399I0J-500000D01*
G01*
X282244799Y-92146400D02*
G75*
G02*
X281744800Y-92646399I-499999J0D01*
G01*
X72694800Y-98196400D02*
X72694800Y-111196399D01*
X239382300Y-79146399D02*
X239382300Y-92146400D01*
X225882299Y-78646400D02*
X238882299Y-78646399D01*
X1257300Y-98196400D02*
X1257299Y-111196399D01*
X225882299Y-92646400D02*
G75*
G02*
X225382299Y-92146400I0J500000D01*
G01*
X268244800Y-92146400D02*
X268244800Y-79146399D01*
X238882299Y-92646400D02*
X225882299Y-92646400D01*
X282244800Y-79146399D02*
X282244800Y-92146400D01*
X220332300Y-79146399D02*
X220332300Y-92146400D01*
X124582300Y-92646400D02*
X111582300Y-92646400D01*
X130632300Y-78646400D02*
X143632300Y-78646399D01*
X254457300Y-59596400D02*
X286507300Y-59596399D01*
X92532300Y-92646401D02*
G75*
G02*
X92032299Y-92146400I0J500001D01*
G01*
X106032299Y-92146400D02*
G75*
G02*
X105532300Y-92646399I-499999J0D01*
G01*
X254457300Y-73596399D02*
G75*
G02*
X253957300Y-73096399I0J500000D01*
G01*
X125082299Y-92146400D02*
G75*
G02*
X124582300Y-92646399I-499999J0D01*
G01*
X111582300Y-78646400D02*
X124582300Y-78646399D01*
X206332300Y-79146399D02*
G75*
G02*
X206832300Y-78646399I500000J0D01*
G01*
X111082300Y-79146399D02*
G75*
G02*
X111582300Y-78646399I500000J0D01*
G01*
X106032300Y-79146399D02*
X106032300Y-92146400D01*
X286507300Y-59596400D02*
G75*
G02*
X287007300Y-60096400I0J-500000D01*
G01*
X1257298Y-92146400D02*
G75*
G02*
X757299Y-92646399I-499999J0D01*
G01*
X200782300Y-78646399D02*
G75*
G02*
X201282300Y-79146399I0J-500000D01*
G01*
X287007301Y-73096399D02*
G75*
G02*
X286507300Y-73596400I-500001J0D01*
G01*
X255544300Y-74596400D02*
G75*
G02*
X255044300Y-74096400I0J500000D01*
G01*
X86482300Y-92646400D02*
X73482300Y-92646400D01*
X144132300Y-79146399D02*
X144132300Y-92146400D01*
X111082300Y-92146400D02*
X111082300Y-79146399D01*
X262044300Y-73596400D02*
X262044300Y-74096399D01*
X206832300Y-92646400D02*
G75*
G02*
X206332300Y-92146400I0J500000D01*
G01*
X130132299Y-92146400D02*
X130132299Y-79146399D01*
X143632300Y-78646399D02*
G75*
G02*
X144132300Y-79146399I0J-500000D01*
G01*
X201282300Y-79146399D02*
X201282300Y-92146400D01*
X255044300Y-74096400D02*
X255044300Y-73596400D01*
X105532300Y-92646400D02*
X92532300Y-92646400D01*
X105532300Y-78646399D02*
G75*
G02*
X106032300Y-79146399I0J-500000D01*
G01*
X285920300Y-73596400D02*
X285920300Y-74096399D01*
X58694800Y-98196400D02*
G75*
G02*
X59194800Y-97696400I500000J0D01*
G01*
X220332299Y-92146400D02*
G75*
G02*
X219832300Y-92646399I-499999J0D01*
G01*
X-12742700Y-98196400D02*
G75*
G02*
X-12242700Y-97696400I500000J0D01*
G01*
X111582300Y-92646400D02*
G75*
G02*
X111082300Y-92146400I0J500000D01*
G01*
X219832300Y-78646399D02*
G75*
G02*
X220332300Y-79146399I0J-500000D01*
G01*
X92032300Y-92146400D02*
X92032300Y-79146399D01*
X143632300Y-92646400D02*
X130632300Y-92646400D01*
X219832300Y-92646400D02*
X206832300Y-92646400D01*
X253957300Y-73096399D02*
X253957300Y-60096399D01*
X206832300Y-78646400D02*
X219832300Y-78646400D01*
X130132300Y-79146399D02*
G75*
G02*
X130632300Y-78646399I500000J0D01*
G01*
X287007300Y-60096400D02*
X287007300Y-73096399D01*
X262044299Y-74096400D02*
G75*
G02*
X261544300Y-74596399I-499999J0D01*
G01*
X187282300Y-79146399D02*
G75*
G02*
X187782300Y-78646399I500000J0D01*
G01*
X92532300Y-78646400D02*
X105532300Y-78646400D01*
X130632300Y-92646401D02*
G75*
G02*
X130132299Y-92146400I0J500001D01*
G01*
X285420300Y-74596400D02*
X279420300Y-74596400D01*
X187282299Y-92146400D02*
X187282299Y-79146399D01*
X86982299Y-92146400D02*
G75*
G02*
X86482300Y-92646399I-499999J0D01*
G01*
X200782300Y-92646400D02*
X187782300Y-92646400D01*
X144132299Y-92146400D02*
G75*
G02*
X143632300Y-92646399I-499999J0D01*
G01*
X187782300Y-78646400D02*
X200782300Y-78646399D01*
X125082300Y-79146399D02*
X125082300Y-92146400D01*
X278920300Y-73596400D02*
X262044300Y-73596400D01*
X261544300Y-74596400D02*
X255544300Y-74596400D01*
X253957300Y-60096400D02*
G75*
G02*
X254457300Y-59596400I500000J0D01*
G01*
X201282299Y-92146400D02*
G75*
G02*
X200782300Y-92646399I-499999J0D01*
G01*
X279420300Y-74596400D02*
G75*
G02*
X278920300Y-74096400I0J500000D01*
G01*
X124582300Y-78646399D02*
G75*
G02*
X125082300Y-79146399I0J-500000D01*
G01*
X278920300Y-74096400D02*
X278920300Y-73596400D01*
X286507300Y-73596400D02*
X285920300Y-73596400D01*
X285920299Y-74096400D02*
G75*
G02*
X285420300Y-74596399I-499999J0D01*
G01*
X255044300Y-73596400D02*
X254457300Y-73596400D01*
X92032300Y-79146399D02*
G75*
G02*
X92532300Y-78646399I500000J0D01*
G01*
X187782300Y-92646401D02*
G75*
G02*
X187282299Y-92146400I0J500001D01*
G01*
X34882300Y-79146399D02*
G75*
G02*
X35382300Y-78646399I500000J0D01*
G01*
X305557300Y-59596400D02*
G75*
G02*
X306057300Y-60096400I0J-500000D01*
G01*
X35382300Y-92646400D02*
G75*
G02*
X34882300Y-92146400I0J500000D01*
G01*
X229357300Y-73596400D02*
X216357300Y-73596400D01*
X11069800Y-92146400D02*
X11069799Y-79146399D01*
X248907300Y-60096399D02*
X248907300Y-73096399D01*
X24569800Y-92646400D02*
X11569799Y-92646400D01*
X54432300Y-78646400D02*
X67432300Y-78646400D01*
X11569799Y-92646400D02*
G75*
G02*
X11069799Y-92146400I0J500000D01*
G01*
X-12242700Y-78646400D02*
X757299Y-78646400D01*
X53932300Y-92146400D02*
X53932300Y-79146399D01*
X34882300Y-92146400D02*
X34882300Y-79146399D01*
X48382300Y-78646399D02*
G75*
G02*
X48882300Y-79146399I0J-500000D01*
G01*
X11569799Y-78646400D02*
X24569800Y-78646400D01*
X234907299Y-60096400D02*
G75*
G02*
X235407299Y-59596400I500000J0D01*
G01*
X235407299Y-73596399D02*
G75*
G02*
X234907299Y-73096399I0J500000D01*
G01*
X153157300Y-73596400D02*
X140157300Y-73596400D01*
X67432300Y-78646399D02*
G75*
G02*
X67932300Y-79146399I0J-500000D01*
G01*
X216357300Y-73596399D02*
G75*
G02*
X215857300Y-73096399I0J500000D01*
G01*
X48882300Y-79146399D02*
X48882299Y-92146400D01*
X25069799Y-92146400D02*
G75*
G02*
X24569800Y-92646399I-499999J0D01*
G01*
X153657300Y-73096399D02*
G75*
G02*
X153157300Y-73596399I-500000J0D01*
G01*
X-12242700Y-92646400D02*
G75*
G02*
X-12742700Y-92146400I0J500000D01*
G01*
X215857300Y-60096400D02*
G75*
G02*
X216357300Y-59596400I500000J0D01*
G01*
X305557300Y-73596400D02*
X292557300Y-73596400D01*
X234907299Y-73096399D02*
X234907299Y-60096399D01*
X196807300Y-60096400D02*
G75*
G02*
X197307300Y-59596400I500000J0D01*
G01*
X25069800Y-79146399D02*
X25069799Y-92146400D01*
X197307300Y-59596400D02*
X210307300Y-59596399D01*
X229857300Y-73096399D02*
G75*
G02*
X229357300Y-73596399I-500000J0D01*
G01*
X757299Y-78646398D02*
G75*
G02*
X1257300Y-79146399I0J-500001D01*
G01*
X216357300Y-59596400D02*
X229357300Y-59596399D01*
X210307300Y-73596400D02*
X197307300Y-73596400D01*
X11069799Y-79146399D02*
G75*
G02*
X11569799Y-78646399I500000J0D01*
G01*
X35382300Y-78646400D02*
X48382300Y-78646400D01*
X210807300Y-73096399D02*
G75*
G02*
X210307300Y-73596399I-500000J0D01*
G01*
X206332300Y-92146400D02*
X206332300Y-79146399D01*
X248407299Y-59596400D02*
G75*
G02*
X248907300Y-60096399I1J-500000D01*
G01*
X48382300Y-92646400D02*
X35382300Y-92646400D01*
X306057300Y-60096400D02*
X306057300Y-73096399D01*
X248907300Y-73096399D02*
G75*
G02*
X248407300Y-73596399I-500000J0D01*
G01*
X229357299Y-59596400D02*
G75*
G02*
X229857300Y-60096399I1J-500000D01*
G01*
X196807300Y-73096399D02*
X196807300Y-60096399D01*
X-12742700Y-92146400D02*
X-12742701Y-79146399D01*
X306057300Y-73096399D02*
G75*
G02*
X305557300Y-73596399I-500000J0D01*
G01*
X53932300Y-79146399D02*
G75*
G02*
X54432300Y-78646399I500000J0D01*
G01*
X24569800Y-78646399D02*
G75*
G02*
X25069800Y-79146399I0J-500000D01*
G01*
X-12742700Y-79146399D02*
G75*
G02*
X-12242700Y-78646399I500000J0D01*
G01*
X292557300Y-73596399D02*
G75*
G02*
X292057300Y-73096399I0J500000D01*
G01*
X292557300Y-59596400D02*
X305557300Y-59596400D01*
X1257300Y-79146399D02*
X1257299Y-92146400D01*
X292057300Y-60096400D02*
G75*
G02*
X292557300Y-59596400I500000J0D01*
G01*
X210807300Y-60096400D02*
X210807300Y-73096399D01*
X235407299Y-59596400D02*
X248407300Y-59596399D01*
X229857300Y-60096399D02*
X229857300Y-73096399D01*
X48882299Y-92146400D02*
G75*
G02*
X48382300Y-92646399I-499999J0D01*
G01*
X67932299Y-92146400D02*
G75*
G02*
X67432300Y-92646399I-499999J0D01*
G01*
X292057300Y-73096399D02*
X292057300Y-60096399D01*
X67932300Y-79146399D02*
X67932300Y-92146400D01*
X757299Y-92646400D02*
X-12242700Y-92646400D01*
X215857300Y-73096399D02*
X215857300Y-60096399D01*
X210307300Y-59596400D02*
G75*
G02*
X210807300Y-60096400I0J-500000D01*
G01*
X1257299Y-73096399D02*
G75*
G02*
X757299Y-73596399I-500000J0D01*
G01*
X134607300Y-60096400D02*
X134607300Y-73096399D01*
X158707300Y-60096400D02*
G75*
G02*
X159207300Y-59596400I500000J0D01*
G01*
X139657300Y-73096399D02*
X139657300Y-60096399D01*
X82507300Y-60096400D02*
G75*
G02*
X83007300Y-59596400I500000J0D01*
G01*
X158707300Y-73096399D02*
X158707300Y-60096400D01*
X172207300Y-59596400D02*
G75*
G02*
X172707300Y-60096400I0J-500000D01*
G01*
X20307300Y-60096400D02*
X20307300Y-73096399D01*
X172707300Y-60096400D02*
X172707300Y-73096399D01*
X197307300Y-73596399D02*
G75*
G02*
X196807300Y-73096399I0J500000D01*
G01*
X-12742701Y-73096399D02*
X-12742701Y-60096399D01*
X19807299Y-59596400D02*
G75*
G02*
X20307299Y-60096400I0J-500000D01*
G01*
X121107300Y-59596400D02*
X134107300Y-59596399D01*
X101557300Y-60096400D02*
G75*
G02*
X102057300Y-59596400I500000J0D01*
G01*
X82507300Y-73096399D02*
X82507300Y-60096399D01*
X25857299Y-59596400D02*
X38857300Y-59596400D01*
X19807299Y-73596400D02*
X6807299Y-73596400D01*
X83007300Y-73596399D02*
G75*
G02*
X82507300Y-73096399I0J500000D01*
G01*
X101557299Y-73096399D02*
X101557299Y-60096399D01*
X178257299Y-59596400D02*
X191257300Y-59596399D01*
X134107300Y-73596400D02*
X121107300Y-73596400D01*
X153157300Y-59596400D02*
G75*
G02*
X153657300Y-60096400I0J-500000D01*
G01*
X139657300Y-60096400D02*
G75*
G02*
X140157300Y-59596400I500000J0D01*
G01*
X120607300Y-60096400D02*
G75*
G02*
X121107300Y-59596400I500000J0D01*
G01*
X25357299Y-60096400D02*
G75*
G02*
X25857299Y-59596400I500000J0D01*
G01*
X1257300Y-60096400D02*
X1257299Y-73096399D01*
X134107300Y-59596400D02*
G75*
G02*
X134607300Y-60096400I0J-500000D01*
G01*
X-12242700Y-59596400D02*
X757299Y-59596400D01*
X96507299Y-73096399D02*
G75*
G02*
X96007299Y-73596399I-500000J0D01*
G01*
X25357300Y-73096399D02*
X25357300Y-60096399D01*
X178257299Y-73596399D02*
G75*
G02*
X177757299Y-73096399I0J500000D01*
G01*
X191257300Y-59596400D02*
G75*
G02*
X191757300Y-60096400I0J-500000D01*
G01*
X120607300Y-73096399D02*
X120607300Y-60096399D01*
X96507300Y-60096400D02*
X96507300Y-73096399D01*
X177757299Y-60096400D02*
G75*
G02*
X178257299Y-59596400I500000J0D01*
G01*
X134607300Y-73096399D02*
G75*
G02*
X134107300Y-73596399I-500000J0D01*
G01*
X140157300Y-59596400D02*
X153157300Y-59596399D01*
X757299Y-73596400D02*
X-12242700Y-73596400D01*
X39357299Y-60096399D02*
X39357299Y-73096399D01*
X191757300Y-60096400D02*
X191757300Y-73096399D01*
X96007299Y-73596400D02*
X83007300Y-73596400D01*
X191757300Y-73096399D02*
G75*
G02*
X191257300Y-73596399I-500000J0D01*
G01*
X191257300Y-73596400D02*
X178257299Y-73596400D01*
X172707300Y-73096399D02*
G75*
G02*
X172207300Y-73596399I-500000J0D01*
G01*
X-12242700Y-73596400D02*
G75*
G02*
X-12742701Y-73096399I0J500001D01*
G01*
X96007299Y-59596399D02*
G75*
G02*
X96507300Y-60096400I0J-500001D01*
G01*
X177757299Y-73096399D02*
X177757299Y-60096399D01*
X757299Y-59596399D02*
G75*
G02*
X1257300Y-60096400I0J-500001D01*
G01*
X121107300Y-73596399D02*
G75*
G02*
X120607300Y-73096399I0J500000D01*
G01*
X248407300Y-73596400D02*
X235407299Y-73596400D01*
X39357300Y-73096399D02*
G75*
G02*
X38857300Y-73596399I-500000J0D01*
G01*
X172207300Y-73596400D02*
X159207300Y-73596400D01*
X6807300Y-73596399D02*
G75*
G02*
X6307300Y-73096399I0J500000D01*
G01*
X159207300Y-73596399D02*
G75*
G02*
X158707300Y-73096399I0J500000D01*
G01*
X6307300Y-60096401D02*
G75*
G02*
X6807299Y-59596400I500000J1D01*
G01*
X83007300Y-59596400D02*
X96007299Y-59596400D01*
X140157300Y-73596399D02*
G75*
G02*
X139657300Y-73096399I0J500000D01*
G01*
X159207300Y-59596400D02*
X172207300Y-59596399D01*
X153657299Y-60096400D02*
X153657299Y-73096399D01*
X38857299Y-59596401D02*
G75*
G02*
X39357299Y-60096399I1J-499999D01*
G01*
X38857300Y-73596400D02*
X25857300Y-73596400D01*
X6807299Y-59596400D02*
X19807299Y-59596400D01*
X25857299Y-73596399D02*
G75*
G02*
X25357299Y-73096399I0J500000D01*
G01*
X20307299Y-73096399D02*
G75*
G02*
X19807299Y-73596399I-500000J0D01*
G01*
X210807300Y-41046400D02*
X210807300Y-54046399D01*
X77457300Y-60096400D02*
X77457300Y-73096399D01*
X102057300Y-40546400D02*
X115057300Y-40546399D01*
X267957301Y-54046399D02*
G75*
G02*
X267457300Y-54546400I-500001J0D01*
G01*
X267457300Y-54546400D02*
X254457300Y-54546399D01*
X63457299Y-73096399D02*
X63457299Y-60096399D01*
X101557299Y-54046399D02*
X101557299Y-41046400D01*
X253957300Y-54046399D02*
X253957300Y-41046400D01*
X115557299Y-60096400D02*
X115557299Y-73096399D01*
X134607301Y-54046399D02*
G75*
G02*
X134107300Y-54546400I-500001J0D01*
G01*
X178257299Y-40546400D02*
X191257300Y-40546399D01*
X191757300Y-41046400D02*
X191757300Y-54046399D01*
X63957300Y-59596400D02*
X76957300Y-59596400D01*
X76957300Y-59596400D02*
G75*
G02*
X77457300Y-60096400I0J-500000D01*
G01*
X153657301Y-54046399D02*
G75*
G02*
X153157300Y-54546400I-500001J0D01*
G01*
X115057300Y-59596400D02*
G75*
G02*
X115557300Y-60096400I0J-500000D01*
G01*
X6307300Y-73096399D02*
X6307299Y-60096399D01*
X210807301Y-54046399D02*
G75*
G02*
X210307300Y-54546400I-500001J0D01*
G01*
X44907300Y-59596400D02*
X57907299Y-59596400D01*
X63457300Y-60096400D02*
G75*
G02*
X63957300Y-59596400I500000J0D01*
G01*
X115557301Y-54046399D02*
G75*
G02*
X115057300Y-54546400I-500001J0D01*
G01*
X140157300Y-54546399D02*
G75*
G02*
X139657300Y-54046399I0J500000D01*
G01*
X44907300Y-73596399D02*
G75*
G02*
X44407300Y-73096399I0J500000D01*
G01*
X191257300Y-54546400D02*
X178257299Y-54546399D01*
X210307300Y-54546400D02*
X197307300Y-54546400D01*
X134107300Y-54546400D02*
X121107300Y-54546400D01*
X153657299Y-41046400D02*
X153657299Y-54046399D01*
X115557300Y-73096399D02*
G75*
G02*
X115057300Y-73596399I-500000J0D01*
G01*
X57907299Y-59596400D02*
G75*
G02*
X58407299Y-60096400I0J-500000D01*
G01*
X191757301Y-54046399D02*
G75*
G02*
X191257300Y-54546400I-500001J0D01*
G01*
X101557300Y-41046400D02*
G75*
G02*
X102057300Y-40546400I500000J0D01*
G01*
X253957300Y-41046400D02*
G75*
G02*
X254457300Y-40546400I500000J0D01*
G01*
X191257300Y-40546400D02*
G75*
G02*
X191757300Y-41046400I0J-500000D01*
G01*
X102057300Y-73596400D02*
G75*
G02*
X101557299Y-73096399I0J500001D01*
G01*
X-12742700Y-60096400D02*
G75*
G02*
X-12242700Y-59596400I500000J0D01*
G01*
X197307300Y-54546399D02*
G75*
G02*
X196807300Y-54046399I0J500000D01*
G01*
X197307300Y-40546400D02*
X210307300Y-40546399D01*
X196807300Y-54046399D02*
X196807300Y-41046400D01*
X139657300Y-41046400D02*
G75*
G02*
X140157300Y-40546400I500000J0D01*
G01*
X254457300Y-40546400D02*
X267457300Y-40546399D01*
X140157300Y-40546400D02*
X153157300Y-40546399D01*
X102057300Y-54546400D02*
G75*
G02*
X101557299Y-54046399I0J500001D01*
G01*
X63957300Y-73596399D02*
G75*
G02*
X63457300Y-73096399I0J500000D01*
G01*
X115057300Y-54546400D02*
X102057300Y-54546399D01*
X115557299Y-41046400D02*
X115557299Y-54046399D01*
X57907299Y-73596400D02*
X44907299Y-73596400D01*
X115057300Y-73596400D02*
X102057300Y-73596400D01*
X177757299Y-54046399D02*
X177757299Y-41046400D01*
X44407300Y-73096399D02*
X44407300Y-60096399D01*
X267457300Y-40546400D02*
G75*
G02*
X267957300Y-41046400I0J-500000D01*
G01*
X153157300Y-54546400D02*
X140157300Y-54546399D01*
X153157300Y-40546400D02*
G75*
G02*
X153657300Y-41046400I0J-500000D01*
G01*
X102057300Y-59596400D02*
X115057300Y-59596399D01*
X77457300Y-73096399D02*
G75*
G02*
X76957300Y-73596399I-500000J0D01*
G01*
X115057300Y-40546400D02*
G75*
G02*
X115557300Y-41046400I0J-500000D01*
G01*
X44407300Y-60096400D02*
G75*
G02*
X44907300Y-59596400I500000J0D01*
G01*
X210307300Y-40546400D02*
G75*
G02*
X210807300Y-41046400I0J-500000D01*
G01*
X178257299Y-54546399D02*
G75*
G02*
X177757299Y-54046399I0J500000D01*
G01*
X267957300Y-41046400D02*
X267957300Y-54046399D01*
X254457300Y-54546399D02*
G75*
G02*
X253957300Y-54046399I0J500000D01*
G01*
X196807300Y-41046400D02*
G75*
G02*
X197307300Y-40546400I500000J0D01*
G01*
X76957300Y-73596400D02*
X63957300Y-73596400D01*
X58407299Y-60096400D02*
X58407299Y-73096399D01*
X139657300Y-54046399D02*
X139657300Y-41046400D01*
X134107300Y-40546400D02*
G75*
G02*
X134607300Y-41046400I0J-500000D01*
G01*
X96507300Y-54046399D02*
G75*
G02*
X96007299Y-54546400I-500001J0D01*
G01*
X229857300Y-41046400D02*
X229857300Y-54046399D01*
X57907299Y-40546400D02*
G75*
G02*
X58407299Y-41046400I0J-500000D01*
G01*
X63457300Y-41046400D02*
G75*
G02*
X63957300Y-40546400I500000J0D01*
G01*
X58407300Y-54046399D02*
G75*
G02*
X57907299Y-54546400I-500001J0D01*
G01*
X229357300Y-54546400D02*
X216357300Y-54546399D01*
X216357300Y-54546399D02*
G75*
G02*
X215857300Y-54046399I0J500000D01*
G01*
X177757299Y-41046400D02*
G75*
G02*
X178257299Y-40546400I500000J0D01*
G01*
X58407299Y-41046400D02*
X58407299Y-54046399D01*
X44907300Y-40546400D02*
X57907299Y-40546399D01*
X25357300Y-54046399D02*
X25357300Y-41046400D01*
X234907299Y-41046400D02*
G75*
G02*
X235407299Y-40546400I500000J0D01*
G01*
X248407300Y-40546400D02*
G75*
G02*
X248907300Y-41046400I0J-500000D01*
G01*
X172207300Y-54546400D02*
X159207300Y-54546399D01*
X20307300Y-54046399D02*
G75*
G02*
X19807299Y-54546400I-500001J0D01*
G01*
X158707300Y-54046399D02*
X158707300Y-41046400D01*
X25857299Y-54546399D02*
G75*
G02*
X25357299Y-54046399I0J500000D01*
G01*
X25857299Y-40546400D02*
X38857300Y-40546399D01*
X172707300Y-41046400D02*
X172707300Y-54046399D01*
X172207300Y-40546400D02*
G75*
G02*
X172707300Y-41046400I0J-500000D01*
G01*
X57907299Y-54546400D02*
X44907299Y-54546399D01*
X120607300Y-54046399D02*
X120607300Y-41046400D01*
X82507300Y-41046400D02*
G75*
G02*
X83007300Y-40546400I500000J0D01*
G01*
X39357300Y-41046400D02*
X39357299Y-54046399D01*
X20307300Y-41046400D02*
X20307300Y-54046399D01*
X44407300Y-54046399D02*
X44407300Y-41046400D01*
X229357300Y-40546400D02*
G75*
G02*
X229857300Y-41046400I0J-500000D01*
G01*
X234907299Y-54046399D02*
X234907299Y-41046400D01*
X82507300Y-54046399D02*
X82507300Y-41046400D01*
X215857300Y-41046400D02*
G75*
G02*
X216357300Y-40546400I500000J0D01*
G01*
X159207300Y-40546400D02*
X172207300Y-40546399D01*
X235407299Y-54546399D02*
G75*
G02*
X234907299Y-54046399I0J500000D01*
G01*
X96007299Y-54546400D02*
X83007300Y-54546399D01*
X248407300Y-54546400D02*
X235407299Y-54546399D01*
X83007300Y-40546400D02*
X96007299Y-40546399D01*
X63957300Y-40546400D02*
X76957300Y-40546399D01*
X19807299Y-40546400D02*
G75*
G02*
X20307299Y-41046400I0J-500000D01*
G01*
X6807300Y-40546400D02*
X19807299Y-40546400D01*
X215857300Y-54046399D02*
X215857300Y-41046400D01*
X6307300Y-41046400D02*
G75*
G02*
X6807300Y-40546400I500000J0D01*
G01*
X235407299Y-40546400D02*
X248407300Y-40546399D01*
X248907301Y-54046399D02*
G75*
G02*
X248407300Y-54546400I-500001J0D01*
G01*
X44907300Y-54546399D02*
G75*
G02*
X44407300Y-54046399I0J500000D01*
G01*
X248907300Y-41046400D02*
X248907300Y-54046399D01*
X159207300Y-54546399D02*
G75*
G02*
X158707300Y-54046399I0J500000D01*
G01*
X44407300Y-41046400D02*
G75*
G02*
X44907300Y-40546400I500000J0D01*
G01*
X134607300Y-41046400D02*
X134607300Y-54046399D01*
X121107300Y-54546399D02*
G75*
G02*
X120607300Y-54046399I0J500000D01*
G01*
X216357300Y-40546400D02*
X229357300Y-40546399D01*
X6807300Y-54546399D02*
G75*
G02*
X6307300Y-54046399I0J500000D01*
G01*
X83007300Y-54546399D02*
G75*
G02*
X82507300Y-54046399I0J500000D01*
G01*
X121107300Y-40546400D02*
X134107300Y-40546399D01*
X38857300Y-54546400D02*
X25857300Y-54546399D01*
X19807299Y-54546400D02*
X6807299Y-54546399D01*
X96507300Y-41046400D02*
X96507300Y-54046399D01*
X120607300Y-41046400D02*
G75*
G02*
X121107300Y-40546400I500000J0D01*
G01*
X6307300Y-54046399D02*
X6307299Y-41046400D01*
X25357299Y-41046400D02*
G75*
G02*
X25857299Y-40546400I500000J0D01*
G01*
X39357301Y-54046399D02*
G75*
G02*
X38857300Y-54546400I-500001J0D01*
G01*
X38857300Y-40546401D02*
G75*
G02*
X39357299Y-41046400I0J-499999D01*
G01*
X58407300Y-73096399D02*
G75*
G02*
X57907299Y-73596400I-500001J0D01*
G01*
X172707301Y-54046399D02*
G75*
G02*
X172207300Y-54546400I-500001J0D01*
G01*
X96007299Y-40546399D02*
G75*
G02*
X96507300Y-41046400I0J-500001D01*
G01*
X305557300Y-78646399D02*
G75*
G02*
X306057300Y-79146399I0J-500000D01*
G01*
X63457300Y-54046399D02*
X63457299Y-41046400D01*
X167757299Y-135796400D02*
X167757299Y-134796400D01*
X63957300Y-54546399D02*
G75*
G02*
X63457300Y-54046399I0J500000D01*
G01*
X76957300Y-54546400D02*
X63957300Y-54546399D01*
X3807299Y-38021400D02*
X3807299Y-57096400D01*
X77457300Y-41046400D02*
X77457300Y-54046399D01*
X242377212Y-114631403D02*
G75*
G03*
X242377212Y-114631403I-2294900J0D01*
G01*
X308582300Y-150821400D02*
G75*
G02*
X307082300Y-152321400I-1500000J0D01*
G01*
X76957300Y-40546400D02*
G75*
G02*
X77457300Y-41046400I0J-500000D01*
G01*
X308582299Y-150821400D02*
X308582299Y-57096399D01*
X-13767700Y-152321400D02*
X307082300Y-152321400D01*
X44388245Y-57151518D02*
G75*
G03*
X44388245Y-57151518I-2299966J0D01*
G01*
X196605505Y-56893873D02*
G75*
G03*
X196605505Y-56893873I-2274862J0D01*
G01*
X81251050Y-150296399D02*
X81251050Y-134796400D01*
X6107170Y-76141729D02*
G75*
G03*
X6107170Y-76141729I-2276231J0D01*
G01*
X3807299Y-57096400D02*
X-15267700Y-57096400D01*
X167757299Y-134796400D02*
X188257299Y-134796400D01*
X270457300Y-38021400D02*
X3807299Y-38021400D01*
X111751050Y-135796400D02*
X167757299Y-135796400D01*
X268614764Y-131809480D02*
G75*
G03*
X268614764Y-131809480I-2303904J0D01*
G01*
X-13767700Y-152321400D02*
G75*
G02*
X-15267700Y-150821400I0J1500000D01*
G01*
X81251050Y-134796400D02*
X111751050Y-134796400D01*
X7341252Y-114141854D02*
G75*
G03*
X7341252Y-114141854I-2253532J0D01*
G01*
X206131348Y-94640773D02*
G75*
G03*
X206131348Y-94640773I-2299983J0D01*
G01*
X111751050Y-134796400D02*
X111751050Y-135796400D01*
X253634466Y-57121399D02*
G75*
G03*
X253634466Y-57121399I-2302172J0D01*
G01*
X77457301Y-54046399D02*
G75*
G02*
X76957300Y-54546400I-500001J0D01*
G01*
X-15267700Y-57096400D02*
X-15267700Y-150821400D01*
X254457300Y-135796400D02*
X267457300Y-135796400D01*
X267957301Y-149296399D02*
G75*
G02*
X267457300Y-149796400I-500001J0D01*
G01*
X253957300Y-149296399D02*
X253957300Y-136296400D01*
X53644801Y-149296399D02*
G75*
G02*
X53144800Y-149796400I-500001J0D01*
G01*
X56313550Y-149296399D02*
X56313549Y-136296400D01*
X286507300Y-135796400D02*
G75*
G02*
X287007300Y-136296400I0J-500000D01*
G01*
X273007300Y-136296400D02*
G75*
G02*
X273507300Y-135796400I500000J0D01*
G01*
X248407300Y-149796400D02*
X197307300Y-149796400D01*
X33001050Y-135796400D02*
X53144800Y-135796400D01*
X56313549Y-136296400D02*
G75*
G02*
X56813549Y-135796400I500000J0D01*
G01*
X56813549Y-149796398D02*
G75*
G02*
X56313550Y-149296399I0J499999D01*
G01*
X267457300Y-149796400D02*
X254457300Y-149796400D01*
X306057301Y-149296399D02*
G75*
G02*
X305557300Y-149796400I-500001J0D01*
G01*
X273507300Y-149796399D02*
G75*
G02*
X273007300Y-149296399I0J500000D01*
G01*
X53144800Y-149796400D02*
X33001050Y-149796400D01*
X248907300Y-136296400D02*
X248907300Y-149296399D01*
X273507300Y-135796400D02*
X286507300Y-135796400D01*
X197307300Y-149796399D02*
G75*
G02*
X196807300Y-149296399I0J500000D01*
G01*
X34360587Y-95391943D02*
G75*
G03*
X34360587Y-95391943I-2277106J0D01*
G01*
X215569800Y-130246400D02*
G75*
G02*
X215069800Y-130746400I-500000J0D01*
G01*
X188257300Y-150296399D02*
G75*
G02*
X187757299Y-150796400I-500001J0D01*
G01*
X53644800Y-136296400D02*
X53644800Y-149296399D01*
X196807300Y-149296399D02*
X196807300Y-136296400D01*
X73457300Y-135796400D02*
G75*
G02*
X73957300Y-136296400I0J-500000D01*
G01*
X306057300Y-136296400D02*
X306057300Y-149296399D01*
X32501050Y-149296399D02*
X32501050Y-136296400D01*
X248407300Y-135796400D02*
G75*
G02*
X248907300Y-136296400I0J-500000D01*
G01*
X187757299Y-150796400D02*
X87752781Y-150796400D01*
X188257299Y-134796400D02*
X188257299Y-150296399D01*
X286507300Y-149796400D02*
X273507300Y-149796400D01*
X292057300Y-136296400D02*
G75*
G02*
X292557300Y-135796400I500000J0D01*
G01*
X248907301Y-149296399D02*
G75*
G02*
X248407300Y-149796400I-500001J0D01*
G01*
X292557300Y-135796400D02*
X305557300Y-135796400D01*
X101333547Y-56888900D02*
G75*
G03*
X101333547Y-56888900I-2251242J0D01*
G01*
X201569800Y-130246400D02*
X201569800Y-117246400D01*
X32501050Y-136296400D02*
G75*
G02*
X33001050Y-135796400I500000J0D01*
G01*
X292057300Y-149296399D02*
X292057300Y-136296400D01*
X215569799Y-117246400D02*
X215569799Y-130246400D01*
X197307300Y-135796400D02*
X248407300Y-135796400D01*
X81751050Y-150796399D02*
G75*
G02*
X81251050Y-150296399I0J500000D01*
G01*
X139358901Y-57141400D02*
G75*
G03*
X139358901Y-57141400I-2276594J0D01*
G01*
X202069800Y-130746400D02*
G75*
G02*
X201569800Y-130246400I0J500000D01*
G01*
X273007300Y-149296399D02*
X273007300Y-136296400D01*
X254457300Y-149796399D02*
G75*
G02*
X253957300Y-149296399I0J500000D01*
G01*
X215069800Y-130746400D02*
X202069800Y-130746400D01*
X267957300Y-136296400D02*
X267957300Y-149296399D01*
X305557300Y-149796400D02*
X292557300Y-149796400D01*
X201569800Y-117246400D02*
G75*
G02*
X202069800Y-116746400I500000J0D01*
G01*
X292557300Y-149796399D02*
G75*
G02*
X292057300Y-149296399I0J500000D01*
G01*
X287007301Y-149296399D02*
G75*
G02*
X286507300Y-149796400I-500001J0D01*
G01*
X215069800Y-116746400D02*
G75*
G02*
X215569800Y-117246400I0J-500000D01*
G01*
X53144800Y-135796401D02*
G75*
G02*
X53644799Y-136296400I0J-499999D01*
G01*
X73957300Y-136296400D02*
X73957300Y-150296399D01*
X267457300Y-135796400D02*
G75*
G02*
X267957300Y-136296400I0J-500000D01*
G01*
X196807300Y-136296400D02*
G75*
G02*
X197307300Y-135796400I500000J0D01*
G01*
X73457300Y-150796400D02*
X67457300Y-150796400D01*
X202069800Y-116746400D02*
X215069800Y-116746399D01*
X66457299Y-149796399D02*
G75*
G02*
X66957299Y-150296399I0J-500000D01*
G01*
X305557300Y-135796400D02*
G75*
G02*
X306057300Y-136296400I0J-500000D01*
G01*
X66457299Y-149796400D02*
X56813549Y-149796400D01*
X287007300Y-136296400D02*
X287007300Y-149296399D01*
X73957301Y-150296399D02*
G75*
G02*
X73457300Y-150796400I-500001J0D01*
G01*
X33001050Y-149796399D02*
G75*
G02*
X32501050Y-149296399I0J500000D01*
G01*
X87751050Y-150796400D02*
X81751050Y-150796400D01*
X125869800Y-130746400D02*
G75*
G02*
X125369800Y-130246400I0J500000D01*
G01*
X221119800Y-130746400D02*
G75*
G02*
X220619800Y-130246400I0J500000D01*
G01*
X100769800Y-130746400D02*
X87769800Y-130746400D01*
X25069801Y-149296399D02*
G75*
G02*
X24569800Y-149796400I-500001J0D01*
G01*
X234619800Y-130246400D02*
G75*
G02*
X234119800Y-130746400I-500000J0D01*
G01*
X234119800Y-130746400D02*
X221119800Y-130746400D01*
X101269800Y-130246400D02*
G75*
G02*
X100769800Y-130746400I-500000J0D01*
G01*
X260313550Y-116746400D02*
G75*
G02*
X260813550Y-117246400I0J-500000D01*
G01*
X139369800Y-117246400D02*
X139369800Y-130246400D01*
X246813550Y-130246400D02*
X246813550Y-117246400D01*
X87269800Y-130246400D02*
X87269800Y-117246400D01*
X101269800Y-117246400D02*
X101269800Y-130246400D01*
X305557300Y-130746400D02*
X292557300Y-130746400D01*
X-12242700Y-135796400D02*
X757299Y-135796400D01*
X273507300Y-116746400D02*
X286507300Y-116746400D01*
X234119800Y-116746400D02*
G75*
G02*
X234619800Y-117246400I0J-500000D01*
G01*
X287007300Y-130246400D02*
G75*
G02*
X286507300Y-130746400I-500000J0D01*
G01*
X1257300Y-149296399D02*
G75*
G02*
X757299Y-149796400I-500001J0D01*
G01*
X287007300Y-117246400D02*
X287007300Y-130246400D01*
X138869800Y-130746400D02*
X125869800Y-130746400D01*
X234619800Y-117246400D02*
X234619800Y-130246400D01*
X273007300Y-117246400D02*
G75*
G02*
X273507300Y-116746400I500000J0D01*
G01*
X246813550Y-117246400D02*
G75*
G02*
X247313550Y-116746400I500000J0D01*
G01*
X56813549Y-135796400D02*
X73457300Y-135796400D01*
X253957300Y-136296400D02*
G75*
G02*
X254457300Y-135796400I500000J0D01*
G01*
X292057300Y-117246400D02*
G75*
G02*
X292557300Y-116746400I500000J0D01*
G01*
X67457300Y-150796400D02*
G75*
G02*
X66957299Y-150296399I0J500001D01*
G01*
X138869800Y-116746400D02*
G75*
G02*
X139369800Y-117246400I0J-500000D01*
G01*
X260313550Y-130746400D02*
X247313550Y-130746400D01*
X-12242700Y-149796399D02*
G75*
G02*
X-12742700Y-149296399I0J500000D01*
G01*
X100769800Y-116746400D02*
G75*
G02*
X101269800Y-117246400I0J-500000D01*
G01*
X247313550Y-116746400D02*
X260313550Y-116746400D01*
X286507300Y-130746400D02*
X273507300Y-130746400D01*
X24569800Y-135796400D02*
G75*
G02*
X25069800Y-136296400I0J-500000D01*
G01*
X220619800Y-117246400D02*
G75*
G02*
X221119800Y-116746400I500000J0D01*
G01*
X273507300Y-130746400D02*
G75*
G02*
X273007300Y-130246400I0J500000D01*
G01*
X125369800Y-130246400D02*
X125369800Y-117246400D01*
X-12742700Y-136296400D02*
G75*
G02*
X-12242700Y-135796400I500000J0D01*
G01*
X8688550Y-136296400D02*
G75*
G02*
X9188550Y-135796400I500000J0D01*
G01*
X-12742700Y-149296399D02*
X-12742701Y-136296400D01*
X292057300Y-130246400D02*
X292057300Y-117246400D01*
X8688549Y-149296399D02*
X8688549Y-136296400D01*
X221119800Y-116746400D02*
X234119800Y-116746400D01*
X260813550Y-130246400D02*
G75*
G02*
X260313550Y-130746400I-500000J0D01*
G01*
X220619800Y-130246400D02*
X220619800Y-117246400D01*
X273007300Y-130246400D02*
X273007300Y-117246400D01*
X292557300Y-130746400D02*
G75*
G02*
X292057300Y-130246400I0J500000D01*
G01*
X125369800Y-117246400D02*
G75*
G02*
X125869800Y-116746400I500000J0D01*
G01*
X87769800Y-130746400D02*
G75*
G02*
X87269800Y-130246400I0J500000D01*
G01*
X247313550Y-130746400D02*
G75*
G02*
X246813550Y-130246400I0J500000D01*
G01*
X87269800Y-117246400D02*
G75*
G02*
X87769800Y-116746400I500000J0D01*
G01*
X139369800Y-130246400D02*
G75*
G02*
X138869800Y-130746400I-500000J0D01*
G01*
X757299Y-149796400D02*
X-12242700Y-149796400D01*
X757299Y-135796399D02*
G75*
G02*
X1257300Y-136296400I0J-500001D01*
G01*
X292557300Y-116746400D02*
X305557300Y-116746400D01*
X306057300Y-130246400D02*
G75*
G02*
X305557300Y-130746400I-500000J0D01*
G01*
X286507300Y-116746400D02*
G75*
G02*
X287007300Y-117246400I0J-500000D01*
G01*
X305557300Y-116746400D02*
G75*
G02*
X306057300Y-117246400I0J-500000D01*
G01*
X9188550Y-149796399D02*
G75*
G02*
X8688550Y-149296399I0J500000D01*
G01*
X25069800Y-136296400D02*
X25069800Y-149296399D01*
X306057300Y-117246400D02*
X306057300Y-130246400D01*
X1257300Y-136296400D02*
X1257300Y-149296399D01*
X87769800Y-116746400D02*
X100769800Y-116746399D01*
X24569800Y-149796400D02*
X9188549Y-149796400D01*
X10275550Y-131746400D02*
G75*
G02*
X9775550Y-131246400I0J500000D01*
G01*
X144919800Y-130746400D02*
G75*
G02*
X144419800Y-130246400I0J500000D01*
G01*
X44119799Y-117246400D02*
X44119800Y-130246400D01*
X68719800Y-116746400D02*
X81719800Y-116746399D01*
X82219800Y-130246400D02*
G75*
G02*
X81719800Y-130746400I-500000J0D01*
G01*
X106819800Y-130746401D02*
G75*
G02*
X106319799Y-130246400I0J500001D01*
G01*
X163469799Y-117246400D02*
G75*
G02*
X163969799Y-116746400I500000J0D01*
G01*
X62669800Y-116746400D02*
G75*
G02*
X63169800Y-117246400I0J-500000D01*
G01*
X120319799Y-130246400D02*
G75*
G02*
X119819799Y-130746400I-500000J0D01*
G01*
X163969799Y-116746400D02*
X176969799Y-116746399D01*
X196519800Y-130246400D02*
G75*
G02*
X196019800Y-130746400I-500000J0D01*
G01*
X68719800Y-130746401D02*
G75*
G02*
X68219799Y-130246400I0J500001D01*
G01*
X196019800Y-116746400D02*
G75*
G02*
X196519800Y-117246400I0J-500000D01*
G01*
X62669800Y-130746400D02*
X49669799Y-130746400D01*
X33651550Y-130746400D02*
X16775550Y-130746400D01*
X81719800Y-116746400D02*
G75*
G02*
X82219800Y-117246400I0J-500000D01*
G01*
X260813550Y-117246400D02*
X260813550Y-130246400D01*
X183019800Y-116746400D02*
X196019800Y-116746399D01*
X9188550Y-130746400D02*
G75*
G02*
X8688550Y-130246400I0J500000D01*
G01*
X144419800Y-117246400D02*
G75*
G02*
X144919800Y-116746400I500000J0D01*
G01*
X163969799Y-130746400D02*
G75*
G02*
X163469799Y-130246400I0J500000D01*
G01*
X144419800Y-130246400D02*
X144419800Y-117246400D01*
X63169800Y-117246400D02*
X63169800Y-130246400D01*
X63169800Y-130246400D02*
G75*
G02*
X62669800Y-130746400I-500000J0D01*
G01*
X163469800Y-130246400D02*
X163469800Y-117246400D01*
X157919800Y-116746400D02*
G75*
G02*
X158419800Y-117246400I0J-500000D01*
G01*
X119819799Y-116746399D02*
G75*
G02*
X120319800Y-117246400I0J-500001D01*
G01*
X177469800Y-117246400D02*
X177469800Y-130246400D01*
X144919800Y-116746400D02*
X157919800Y-116746400D01*
X158419800Y-130246400D02*
G75*
G02*
X157919800Y-130746400I-500000J0D01*
G01*
X49669800Y-130746400D02*
G75*
G02*
X49169800Y-130246400I0J500000D01*
G01*
X106319799Y-130246400D02*
X106319799Y-117246400D01*
X9775550Y-131246400D02*
X9775550Y-130746400D01*
X9188550Y-116746400D02*
X43619800Y-116746400D01*
X177469799Y-130246400D02*
G75*
G02*
X176969799Y-130746400I-500000J0D01*
G01*
X82219800Y-117246400D02*
X82219800Y-130246400D01*
X182519800Y-117246400D02*
G75*
G02*
X183019800Y-116746400I500000J0D01*
G01*
X182519800Y-130246400D02*
X182519800Y-117246400D01*
X176969799Y-116746399D02*
G75*
G02*
X177469800Y-117246400I0J-500001D01*
G01*
X119819799Y-130746400D02*
X106819800Y-130746400D01*
X68219799Y-130246400D02*
X68219799Y-117246400D01*
X196519800Y-117246400D02*
X196519800Y-130246400D01*
X176969799Y-130746400D02*
X163969799Y-130746400D01*
X125869800Y-116746400D02*
X138869800Y-116746399D01*
X16275550Y-131746400D02*
X10275549Y-131746400D01*
X8688549Y-130246400D02*
X8688549Y-117246400D01*
X16775550Y-130746400D02*
X16775550Y-131246400D01*
X9188550Y-135796400D02*
X24569800Y-135796400D01*
X68219800Y-117246400D02*
G75*
G02*
X68719800Y-116746400I500000J0D01*
G01*
X49169800Y-130246400D02*
X49169800Y-117246400D01*
X183019800Y-130746400D02*
G75*
G02*
X182519800Y-130246400I0J500000D01*
G01*
X9775550Y-130746400D02*
X9188549Y-130746400D01*
X16775550Y-131246400D02*
G75*
G02*
X16275550Y-131746400I-500000J0D01*
G01*
X157919800Y-130746400D02*
X144919800Y-130746400D01*
X34151550Y-131746400D02*
G75*
G02*
X33651550Y-131246400I0J500000D01*
G01*
X49669800Y-116746400D02*
X62669800Y-116746400D01*
X40151549Y-131746400D02*
X34151550Y-131746400D01*
X120319800Y-117246400D02*
X120319800Y-130246400D01*
X196019800Y-130746400D02*
X183019800Y-130746400D01*
X81719800Y-130746400D02*
X68719800Y-130746400D01*
X33651550Y-131246400D02*
X33651550Y-130746400D01*
X106819800Y-116746400D02*
X119819799Y-116746399D01*
X106319800Y-117246400D02*
G75*
G02*
X106819800Y-116746400I500000J0D01*
G01*
X158419800Y-117246400D02*
X158419800Y-130246400D01*
X305557300Y-111696399D02*
X292557300Y-111696399D01*
X44119800Y-130246400D02*
G75*
G02*
X43619800Y-130746400I-500000J0D01*
G01*
X259163050Y-112696400D02*
X253163050Y-112696400D01*
X172994800Y-98196400D02*
G75*
G02*
X173494800Y-97696400I500000J0D01*
G01*
X148894800Y-111196399D02*
G75*
G02*
X148394800Y-111696399I-500000J0D01*
G01*
X148894800Y-98196400D02*
X148894800Y-111196399D01*
X154444800Y-97696400D02*
X167444799Y-97696400D01*
X253163050Y-97696400D02*
X283039050Y-97696400D01*
X292057300Y-111196399D02*
X292057300Y-98196400D01*
X1257299Y-117246400D02*
X1257299Y-130246400D01*
X283039050Y-97696400D02*
G75*
G02*
X283539050Y-98196400I0J-500000D01*
G01*
X173494800Y-111696399D02*
G75*
G02*
X172994800Y-111196399I0J500000D01*
G01*
X292057300Y-98196400D02*
G75*
G02*
X292557300Y-97696400I500000J0D01*
G01*
X135394800Y-111696399D02*
G75*
G02*
X134894800Y-111196399I0J500000D01*
G01*
X173494800Y-97696400D02*
X186494800Y-97696400D01*
X243644800Y-97696400D02*
G75*
G02*
X244144800Y-98196400I0J-500000D01*
G01*
X306057300Y-111196399D02*
G75*
G02*
X305557300Y-111696399I-500000J0D01*
G01*
X305557300Y-97696400D02*
G75*
G02*
X306057300Y-98196400I0J-500000D01*
G01*
X230644800Y-111696400D02*
G75*
G02*
X230144799Y-111196399I0J500001D01*
G01*
X252663050Y-112196400D02*
X252663050Y-98196400D01*
X244144800Y-111196399D02*
G75*
G02*
X243644800Y-111696399I-500000J0D01*
G01*
X172994800Y-111196399D02*
X172994800Y-98196400D01*
X277039050Y-112696400D02*
G75*
G02*
X276539050Y-112196400I0J500000D01*
G01*
X43619800Y-116746401D02*
G75*
G02*
X44119799Y-117246400I0J-499999D01*
G01*
X8688550Y-117246400D02*
G75*
G02*
X9188550Y-116746400I500000J0D01*
G01*
X49169800Y-117246400D02*
G75*
G02*
X49669800Y-116746400I500000J0D01*
G01*
X186494800Y-97696400D02*
G75*
G02*
X186994800Y-98196400I0J-500000D01*
G01*
X276039050Y-111696399D02*
X260163050Y-111696399D01*
X134894800Y-98196400D02*
G75*
G02*
X135394800Y-97696400I500000J0D01*
G01*
X230144800Y-111196399D02*
X230144800Y-98196400D01*
X40651549Y-130746400D02*
X40651549Y-131246400D01*
X40651549Y-131246400D02*
G75*
G02*
X40151549Y-131746400I-500000J0D01*
G01*
X230644800Y-97696400D02*
X243644800Y-97696400D01*
X292557300Y-111696399D02*
G75*
G02*
X292057300Y-111196399I0J500000D01*
G01*
X292557300Y-97696400D02*
X305557300Y-97696400D01*
X167944799Y-98196400D02*
X167944799Y-111196399D01*
X244144800Y-98196400D02*
X244144800Y-111196399D01*
X283539050Y-98196400D02*
X283539050Y-112196400D01*
X186994800Y-111196399D02*
G75*
G02*
X186494800Y-111696399I-500000J0D01*
G01*
X259663050Y-112196399D02*
G75*
G02*
X260163050Y-111696399I500000J0D01*
G01*
X-12742700Y-130246400D02*
X-12742701Y-117246400D01*
X148394800Y-111696399D02*
X135394800Y-111696400D01*
X134894800Y-111196399D02*
X134894800Y-98196400D01*
X252663050Y-98196400D02*
G75*
G02*
X253163050Y-97696400I500000J0D01*
G01*
X283539050Y-112196400D02*
G75*
G02*
X283039050Y-112696400I-500000J0D01*
G01*
X-12742700Y-117246400D02*
G75*
G02*
X-12242700Y-116746400I500000J0D01*
G01*
X-12242700Y-130746400D02*
G75*
G02*
X-12742700Y-130246400I0J500000D01*
G01*
X243644800Y-111696399D02*
X230644800Y-111696399D01*
X153944800Y-111196399D02*
X153944800Y-98196400D01*
X43619800Y-130746400D02*
X40651549Y-130746400D01*
X757299Y-116746400D02*
G75*
G02*
X1257299Y-117246400I0J-500000D01*
G01*
X186994800Y-98196400D02*
X186994800Y-111196399D01*
X230144800Y-98196400D02*
G75*
G02*
X230644800Y-97696400I500000J0D01*
G01*
X253163050Y-112696400D02*
G75*
G02*
X252663050Y-112196400I0J500000D01*
G01*
X259663050Y-112196400D02*
G75*
G02*
X259163050Y-112696400I-500000J0D01*
G01*
X148394800Y-97696400D02*
G75*
G02*
X148894800Y-98196400I0J-500000D01*
G01*
X-12242700Y-116746400D02*
X757299Y-116746400D01*
X283039050Y-112696400D02*
X277039050Y-112696400D01*
X135394800Y-97696400D02*
X148394800Y-97696400D01*
X153944800Y-98196400D02*
G75*
G02*
X154444800Y-97696400I500000J0D01*
G01*
X154444800Y-111696399D02*
G75*
G02*
X153944800Y-111196399I0J500000D01*
G01*
X186494800Y-111696399D02*
X173494800Y-111696400D01*
X757299Y-130746400D02*
X-12242700Y-130746400D01*
X167444799Y-97696400D02*
G75*
G02*
X167944799Y-98196400I0J-500000D01*
G01*
X53144800Y-111696399D02*
X40144800Y-111696399D01*
X292557300Y-78646400D02*
X305557300Y-78646400D01*
X116344800Y-111696399D02*
G75*
G02*
X115844800Y-111196399I0J500000D01*
G01*
X224594799Y-97696400D02*
G75*
G02*
X225094799Y-98196400I0J-500000D01*
G01*
X211094800Y-111196399D02*
X211094800Y-98196400D01*
X110294800Y-111696399D02*
X97294800Y-111696400D01*
X91744800Y-98196400D02*
X91744800Y-111196399D01*
X192544800Y-97696400D02*
X205544800Y-97696400D01*
X53644800Y-111196399D02*
G75*
G02*
X53144800Y-111696399I-500000J0D01*
G01*
X115844800Y-111196399D02*
X115844800Y-98196400D01*
X78244800Y-97696400D02*
X91244799Y-97696400D01*
X292557300Y-92646400D02*
G75*
G02*
X292057300Y-92146400I0J500000D01*
G01*
X96794800Y-111196399D02*
X96794800Y-98196400D01*
X116344800Y-97696400D02*
X129344800Y-97696400D01*
X110794800Y-98196400D02*
X110794800Y-111196399D01*
X192544800Y-111696399D02*
G75*
G02*
X192044800Y-111196399I0J500000D01*
G01*
X258432300Y-79146399D02*
X258432300Y-92146400D01*
X39644800Y-111196399D02*
X39644800Y-98196400D01*
X53144800Y-97696401D02*
G75*
G02*
X53644799Y-98196400I0J-499999D01*
G01*
X115844800Y-98196400D02*
G75*
G02*
X116344800Y-97696400I500000J0D01*
G01*
X77744800Y-98196400D02*
G75*
G02*
X78244800Y-97696400I500000J0D01*
G01*
X91744799Y-111196399D02*
G75*
G02*
X91244799Y-111696399I-500000J0D01*
G01*
X40144799Y-97696400D02*
X53144799Y-97696400D01*
X97294800Y-111696400D02*
G75*
G02*
X96794799Y-111196399I0J500001D01*
G01*
X211094800Y-98196400D02*
G75*
G02*
X211594800Y-97696400I500000J0D01*
G01*
X206044800Y-98196400D02*
X206044800Y-111196399D01*
X129844800Y-111196399D02*
G75*
G02*
X129344800Y-111696399I-500000J0D01*
G01*
X306057299Y-92146400D02*
G75*
G02*
X305557300Y-92646399I-499999J0D01*
G01*
X53644800Y-98196400D02*
X53644800Y-111196399D01*
X96794800Y-98196400D02*
G75*
G02*
X97294800Y-97696400I500000J0D01*
G01*
X305557300Y-92646400D02*
X292557300Y-92646400D01*
X39644799Y-98196400D02*
G75*
G02*
X40144799Y-97696400I500000J0D01*
G01*
X129344800Y-97696400D02*
G75*
G02*
X129844800Y-98196400I0J-500000D01*
G01*
X292057300Y-92146400D02*
X292057300Y-79146399D01*
X78244800Y-111696400D02*
G75*
G02*
X77744799Y-111196399I0J500001D01*
G01*
X91244799Y-111696399D02*
X78244800Y-111696399D01*
X205544800Y-97696400D02*
G75*
G02*
X206044800Y-98196400I0J-500000D01*
G01*
X110294800Y-97696400D02*
G75*
G02*
X110794800Y-98196400I0J-500000D01*
G01*
X97294800Y-97696400D02*
X110294800Y-97696400D01*
X129344800Y-111696399D02*
X116344800Y-111696400D01*
X167444799Y-111696399D02*
X154444800Y-111696400D01*
X192044800Y-111196399D02*
X192044800Y-98196400D01*
X91244799Y-97696399D02*
G75*
G02*
X91744800Y-98196400I0J-500001D01*
G01*
X276039051Y-111696399D02*
G75*
G02*
X276539050Y-112196400I-1J-500000D01*
G01*
X77744799Y-111196399D02*
X77744799Y-98196400D01*
X257932300Y-78646399D02*
G75*
G02*
X258432300Y-79146399I0J-500000D01*
G01*
X244932300Y-92646400D02*
G75*
G02*
X244432300Y-92146400I0J500000D01*
G01*
X1257299Y-130246400D02*
G75*
G02*
X757299Y-130746400I-500000J0D01*
G01*
X257932300Y-92646400D02*
X244932300Y-92646400D01*
X306057300Y-98196400D02*
X306057300Y-111196399D01*
X258432299Y-92146400D02*
G75*
G02*
X257932300Y-92646399I-499999J0D01*
G01*
X244932300Y-78646400D02*
X257932300Y-78646400D01*
X110794800Y-111196399D02*
G75*
G02*
X110294800Y-111696399I-500000J0D01*
G01*
X225094799Y-98196400D02*
X225094799Y-111196399D01*
X292057300Y-79146399D02*
G75*
G02*
X292557300Y-78646399I500000J0D01*
G01*
X206044800Y-111196399D02*
G75*
G02*
X205544800Y-111696399I-500000J0D01*
G01*
X211594800Y-111696399D02*
G75*
G02*
X211094800Y-111196399I0J500000D01*
G01*
X224594799Y-111696399D02*
X211594800Y-111696400D01*
X40144799Y-111696398D02*
G75*
G02*
X39644800Y-111196399I0J499999D01*
G01*
X167944799Y-111196399D02*
G75*
G02*
X167444799Y-111696399I-500000J0D01*
G01*
X225094799Y-111196399D02*
G75*
G02*
X224594799Y-111696399I-500000J0D01*
G01*
X306057300Y-79146399D02*
X306057300Y-92146400D01*
X205544800Y-111696399D02*
X192544800Y-111696399D01*
X129844800Y-98196400D02*
X129844800Y-111196399D01*
M02*
