0
SECTION
2
HEADER
9
$INSUNITS
70
4
9
$ACADVER
1
AC1014
9
$HANDSEED
5
FFFF
0
ENDSEC
0
SECTION
2
TABLES
0
TABLE
2
VPORT
5
8
100
AcDbSymbolTable
0
ENDTAB
0
TABLE
2
LTYPE
5
5
100
AcDbSymbolTable
0
LTYPE
5
14
100
AcDbSymbolTableRecord
100
AcDbLinetypeTableRecord
2
BYBLOCK
70
0
0
LTYPE
5
15
100
AcDbSymbolTableRecord
100
AcDbLinetypeTableRecord
2
BYLAYER
70
0
0
ENDTAB
0
TABLE
2
LAYER
5
2
100
AcDbSymbolTable
70
2
0
LAYER
5
50
100
AcDbSymbolTableRecord
100
AcDbLayerTableRecord
2
0
70
0
6
CONTINUOUS
0
ENDTAB
0
TABLE
2
STYLE
5
3
100
AcDbSymbolTable
70
1
0
STYLE
5
11
100
AcDbSymbolTableRecord
100
AcDbTextStyleTableRecord
2
STANDARD
70
0
0
ENDTAB
0
TABLE
2
VIEW
5
6
100
AcDbSymbolTable
70
0
0
ENDTAB
0
TABLE
2
UCS
5
7
100
AcDbSymbolTable
70
0
0
ENDTAB
0
TABLE
2
APPID
5
9
100
AcDbSymbolTable
70
2
0
APPID
5
12
100
AcDbSymbolTableRecord
100
AcDbRegAppTableRecord
2
ACAD
70
0
0
ENDTAB
0
TABLE
2
DIMSTYLE
5
A
100
AcDbSymbolTable
70
1
0
ENDTAB
0
TABLE
2
BLOCK_RECORD
5
1
100
AcDbSymbolTable
70
1
0
BLOCK_RECORD
5
1F
100
AcDbSymbolTableRecord
100
AcDbBlockTableRecord
2
*MODEL_SPACE
0
BLOCK_RECORD
5
1B
100
AcDbSymbolTableRecord
100
AcDbBlockTableRecord
2
*PAPER_SPACE
0
ENDTAB
0
ENDSEC
0
SECTION
2
BLOCKS
0
BLOCK
5
20
100
AcDbEntity
100
AcDbBlockBegin
2
*MODEL_SPACE
0
ENDBLK
5
21
100
AcDbEntity
100
AcDbBlockEnd
0
BLOCK
5
1C
100
AcDbEntity
100
AcDbBlockBegin
2
*PAPER_SPACE
0
ENDBLK
5
1D
100
AcDbEntity
100
AcDbBlockEnd
0
ENDSEC
0
SECTION
2
ENTITIES
0
CIRCLE
5
100
100
AcDbEntity
8
0
100
AcDbCircle
10
82.25
20
168.25
30
0
40
1.1000000000000001
210
0
220
0
230
1
0
CIRCLE
5
101
100
AcDbEntity
8
0
100
AcDbCircle
10
81
20
130.25
30
0
40
1.1000000000000001
210
0
220
0
230
1
0
CIRCLE
5
102
100
AcDbEntity
8
0
100
AcDbCircle
10
376.23750000000001
20
130.17500000000001
30
0
40
1.1000000000000001
210
0
220
0
230
1
0
CIRCLE
5
103
100
AcDbEntity
8
0
100
AcDbCircle
10
191
20
196.25
30
0
40
1.1000000000000001
210
0
220
0
230
1
0
CIRCLE
5
104
100
AcDbEntity
8
0
100
AcDbCircle
10
359.30250000000001
20
97.402500000000018
30
0
40
0.5
210
0
220
0
230
1
0
CIRCLE
5
105
100
AcDbEntity
8
0
100
AcDbCircle
10
356.76250000000005
20
97.402500000000018
30
0
40
0.5
210
0
220
0
230
1
0
CIRCLE
5
106
100
AcDbEntity
8
0
100
AcDbCircle
10
359.30250000000001
20
99.94250000000001
30
0
40
0.5
210
0
220
0
230
1
0
CIRCLE
5
107
100
AcDbEntity
8
0
100
AcDbCircle
10
356.76250000000005
20
99.94250000000001
30
0
40
0.5
210
0
220
0
230
1
0
CIRCLE
5
108
100
AcDbEntity
8
0
100
AcDbCircle
10
356.76250000000005
20
94.862499999999997
30
0
40
0.5
210
0
220
0
230
1
0
CIRCLE
5
109
100
AcDbEntity
8
0
100
AcDbCircle
10
359.30250000000001
20
94.862499999999997
30
0
40
0.5
210
0
220
0
230
1
0
CIRCLE
5
110
100
AcDbEntity
8
0
100
AcDbCircle
10
362.73149999999998
20
94.513249999999999
30
0
40
0.44999999999999996
210
0
220
0
230
1
0
CIRCLE
5
111
100
AcDbEntity
8
0
100
AcDbCircle
10
365.2715
20
94.513249999999999
30
0
40
0.44999999999999996
210
0
220
0
230
1
0
ARC
5
112
100
AcDbEntity
8
0
100
AcDbCircle
10
82.125787684061436
20
206.55023001835144
30
0
40
7.4537898360532342
210
0
220
0
230
1
100
AcDbArc
50
248.25110240393428
51
291.74889759606583
0
LINE
5
113
100
AcDbEntity
8
0
100
AcDbLine
10
67.370605758103665
20
199.8476939556657
30
0
11
78.215190972135375
21
199.84769395566573
31
0
0
LINE
5
114
100
AcDbEntity
8
0
100
AcDbLine
10
251.69679916098141
20
201.84769395566573
30
0
11
251.69679916098141
21
202.01610064647662
31
0
0
LINE
5
115
100
AcDbEntity
8
0
100
AcDbLine
10
251.19679916098139
20
202.51610064647662
30
0
11
236.18220828439465
21
202.51610064647662
31
0
0
LINE
5
116
100
AcDbEntity
8
0
100
AcDbLine
10
235.68220828439465
20
202.01610064647662
30
0
11
235.68220828439465
21
200.84769395566568
31
0
0
ARC
5
117
100
AcDbEntity
8
0
100
AcDbCircle
10
236.18220828439462
20
202.01610064647664
30
0
40
0.49999999999997158
210
0
220
-0
230
1
100
AcDbArc
50
89.999999999996746
51
180
0
ARC
5
118
100
AcDbEntity
8
0
100
AcDbCircle
10
235.18220828439468
20
200.84769395566568
30
0
40
0.49999999999997158
210
-0
220
0
230
1
100
AcDbArc
50
-90
51
0
0
ARC
5
119
100
AcDbEntity
8
0
100
AcDbCircle
10
251.19679916098141
20
202.01610064647664
30
0
40
0.49999999999997158
210
0
220
0
230
1
100
AcDbArc
50
0
51
90.000000000003254
0
ARC
5
120
100
AcDbEntity
8
0
100
AcDbCircle
10
252.19679916098133
20
201.84769395566565
30
0
40
0.49999999999993605
210
0
220
0
230
1
100
AcDbArc
50
180
51
270.00000000000978
0
CIRCLE
5
121
100
AcDbEntity
8
0
100
AcDbCircle
10
161.91910000000001
20
203.89200000000002
30
0
40
2.1250000000000031
210
0
220
0
230
1
0
CIRCLE
5
122
100
AcDbEntity
8
0
100
AcDbCircle
10
147.62524999999999
20
203.89200000000002
30
0
40
2.1249999999999871
210
0
220
0
230
1
0
LINE
5
123
100
AcDbEntity
8
0
100
AcDbLine
10
144.30229880328631
20
198.53836472379783
30
0
11
141.61581109891446
21
199.68672474346511
31
0
0
LINE
5
124
100
AcDbEntity
8
0
100
AcDbLine
10
86.036384395987525
20
199.84769395566573
30
0
11
140.82970311553967
21
199.84769395566573
31
0
0
ARC
5
125
100
AcDbEntity
8
0
100
AcDbCircle
10
140.82970311553967
20
197.8476939556667
30
0
40
1.9999999999990157
210
0
220
-0
230
1
100
AcDbArc
50
66.855338345172882
51
90
0
ARC
5
126
100
AcDbEntity
8
0
100
AcDbCircle
10
145.08840678666132
20
200.37739551159621
30
0
40
1.9999999999990667
210
0
220
0
230
1
100
AcDbArc
50
246.85533834516656
51
270.00000000000409
0
LINE
5
127
100
AcDbEntity
8
0
100
AcDbLine
10
380.80034202021415
20
199.28478979350646
30
0
11
312.36776223853138
21
199.28478979350649
31
0
0
LINE
5
128
100
AcDbEntity
8
0
100
AcDbLine
10
311.8340666851322
20
199.43911310807525
30
0
11
309.05432702556448
21
201.19337064109698
31
0
0
ARC
5
129
100
AcDbEntity
8
0
100
AcDbCircle
10
308.52063147216529
20
200.34769395566536
30
0
40
1.0000000000003628
210
0
220
-0
230
1
100
AcDbArc
50
57.744509763030869
51
89.999999999996746
0
ARC
5
130
100
AcDbEntity
8
0
100
AcDbCircle
10
312.36776223853144
20
200.28478979350672
30
0
40
1.0000000000002238
210
0
220
0
230
1
100
AcDbArc
50
237.74450976302379
51
269.99999999999676
0
LWPOLYLINE
5
131
100
AcDbEntity
8
0
100
AcDbPolyline
90
87
70
1
43
0.0
10
352.00000524520874
20
97.029911908380939
10
352.00000524520874
20
103.6440946308946
42
-0.19891236737987592
10
352.14645185461541
20
103.99764802148782
10
354.49256269312906
20
106.34375886000142
42
-0.19891236737965581
10
354.84611608372228
20
106.49020546940805
10
367.88059950173056
20
106.49020546940812
42
0.19891236737965579
10
368.23415289232378
20
106.63665207881478
10
369.41407350986401
20
107.81657269635497
42
0.1989123673798695
10
369.56052011927068
20
108.17012608694817
10
369.56052011927068
20
112.38146081482239
10
371.37782529166878
20
114.19876598722044
42
-0.19891236737968848
10
371.731378682262
20
114.34521259662711
10
379.8003420202142
20
114.34521259662719
42
0.19891236737959922
10
380.15389541080742
20
114.49165920603384
10
382.86100219199403
20
117.19876598722044
42
0.1989123673798695
10
383.00744880140076
20
117.55231937781363
10
383.00744880140076
20
123.79289512616211
42
0.19891236737987869
10
382.86100219199403
20
124.14644851675533
10
379.15389541080742
20
127.85355529794195
42
0.19891236737963841
10
378.8003420202142
20
128.00000190734866
10
366.20711222011033
20
128.00000190734866
42
-0.19891236737968848
10
365.85355882951711
20
128.14644851675533
10
365.1464520483305
20
128.85355529794194
42
-0.19891236737989829
10
365.00000543892384
20
129.20710868853513
10
365.00000543892384
20
130.79289517086559
42
0.19891236737989826
10
364.85355882951717
20
131.14644856145878
10
364.14645203342945
20
131.85355535754655
42
0.19891236737971021
10
363.79289864283624
20
132.00000196695328
10
334.07549850347544
20
132.00000196695325
42
0.19891236737974494
10
333.72194511288217
20
131.85355535754655
10
332.31346944149487
20
130.44507968615926
42
0.19891236737997278
10
332.16702283208809
20
130.09152629556598
10
332.16702283208809
20
125.40163318733683
42
-0.19891236737983412
10
332.02057622268143
20
125.04807979674356
10
331.3620883554396
20
124.38959192950176
42
0.19891236737989826
10
331.21564174603287
20
124.03603853890849
10
331.21564174603287
20
110.26324871376546
42
-0.19891236737983412
10
331.06919513662615
20
109.90969532317222
10
329.30594803218611
20
108.14644821873213
42
-0.19891236737969492
10
328.95239464159283
20
108.00000160932542
10
323.40529401539186
20
108.00000160932542
42
-0.19891236737973417
10
322.69818723420536
20
108.29289482813888
10
321.73432156667474
20
109.25676049566943
42
-0.19891236737957918
10
321.62009321133752
20
109.53253214033219
10
321.62009321133752
20
113.32240728672495
42
-0.19891236737958898
10
321.73432156667479
20
113.59817893138769
10
324.21441085304559
20
116.07826821775851
42
-0.1989123673797501
10
324.4901824977083
20
116.1924965730958
10
326.83846159825532
20
116.19249657309572
42
0.1989123673797501
10
327.11423324291809
20
116.30672492843301
10
328.35355827817415
20
117.54604996368904
42
0.19891236737987483
10
328.50000488758076
20
117.89960335428232
10
328.50000488758087
20
122.39837635215869
42
0.19891236737986287
10
328.35355827817415
20
122.75192974275194
10
327.00878931023783
20
124.09669871068832
42
0.19891236737974494
10
326.6552359196445
20
124.24314532009502
10
67.108879763629858
20
124.24314532009504
42
0.19891236737967841
10
66.755326373036567
20
124.0966987106883
10
65.102838805137338
20
122.44421114278907
42
0.19891236737967055
10
64.956392195730615
20
122.0906577521958
10
64.956392195730601
20
116.66872895443083
42
0.19891236737965151
10
65.102838805137324
20
116.31517556383756
10
67.40378663527413
20
114.01422773370074
42
0.19891236737966125
10
67.757340025867421
20
113.867781124294
10
75.855019454982326
20
113.86778112429403
42
-0.19891236737965201
10
76.208572845575603
20
113.72133451488727
10
77.364185742765869
20
112.56572161769699
42
-0.19891236737967763
10
77.510632352172621
20
112.21216822710373
10
77.510632352172607
20
108.28086344146557
42
0.19891236737966125
10
77.65707896157933
20
107.92731005087231
10
78.018442403044901
20
107.56594660940675
42
0.19891236737964876
10
78.371995793638177
20
107.41950000000001
10
79.920552212102137
20
107.41950000000001
42
-0.19891236737964554
10
80.274105602695428
20
107.27305339059328
10
80.853554597587319
20
106.69360439570136
42
-0.19891236737963952
10
81.000001206994057
20
106.34005100510811
10
81.000001206994057
20
100.20710827130267
42
0.19891236737965803
10
81.146447816400794
20
99.853554880709382
10
85.626473643690872
20
95.373529053419276
42
0.19891236737966109
10
86.687133815470716
20
94.934189225199091
10
341.79289830755999
20
94.934189225199077
42
0.19891236737969495
10
342.14645169815327
20
95.0806358346058
10
342.85355849424099
20
95.787742630693558
42
-0.1989123673796819
10
343.20711188483421
20
95.934189240100224
10
350.90428257692798
20
95.934189240100253
42
0.19891236737968843
10
351.2578359675212
20
96.080635849506919
10
351.85355863580207
20
96.676358517787719
42
0.19891236737987869
0
LINE
5
132
100
AcDbEntity
8
0
100
AcDbLine
10
370.63226898728999
20
105.26667354875754
30
0
11
374.99745508405317
21
105.26667354875754
31
0
0
LINE
5
133
100
AcDbEntity
8
0
100
AcDbLine
10
370.1322689872901
20
104.76667354875761
30
0
11
370.1322689872901
21
93.381999999999991
31
0
0
LINE
5
134
100
AcDbEntity
8
0
100
AcDbLine
10
385.75024999999994
20
95.000001415610313
30
0
11
385.75024999999994
21
111.95810781907653
31
0
0
LINE
5
135
100
AcDbEntity
8
0
100
AcDbLine
10
384.0000057220459
20
95.000001415610313
30
0
11
384.0000057220459
21
92.131986988729778
31
0
0
LINE
5
136
100
AcDbEntity
8
0
100
AcDbLine
10
385.75024999999994
20
93.719499999999996
30
0
11
385.75024999999994
21
95.000001415610313
31
0
0
LINE
5
137
100
AcDbEntity
8
0
100
AcDbLine
10
380.75167922443859
20
111.45810781907653
30
0
11
380.75167922443859
21
108.24756126454089
31
0
0
LINE
5
138
100
AcDbEntity
8
0
100
AcDbLine
10
381.25167922443848
20
107.74756126454093
30
0
11
383.50000572204601
21
107.74756126454096
31
0
0
LINE
5
139
100
AcDbEntity
8
0
100
AcDbLine
10
378.25907770240087
20
111.45810781907653
30
0
11
378.25907770240087
21
108.31860407185511
31
0
0
LINE
5
140
100
AcDbEntity
8
0
100
AcDbLine
10
377.75907770240099
20
107.81860407185516
30
0
11
375.997455084053
21
107.81860407185519
31
0
0
LINE
5
141
100
AcDbEntity
8
0
100
AcDbLine
10
384.0000057220459
20
95.000001415610313
30
0
11
384.0000057220459
21
107.24756126454103
31
0
0
LINE
5
142
100
AcDbEntity
8
0
100
AcDbLine
10
375.49745508405306
20
105.76667354875745
30
0
11
375.49745508405306
21
107.31860407185525
31
0
0
LINE
5
143
100
AcDbEntity
8
0
100
AcDbLine
10
378.75907770240082
20
111.9581078190765
30
0
11
380.25167922443865
21
111.95810781907652
31
0
0
LWPOLYLINE
5
144
100
AcDbEntity
8
0
100
AcDbPolyline
90
8
70
1
43
0.0
10
65.081267350782397
20
106.00000157952309
10
63.640390604006768
20
106.00000157952309
10
63.000000938773155
20
105.35961191428947
10
63.000000938773155
20
99.478006098213541
10
63.480293187698365
20
98.997713849288331
10
64.921169934473994
20
98.997713849288331
10
65.561559599707607
20
99.638103514521944
10
65.561559599707607
20
105.51970933059789
0
LWPOLYLINE
5
145
100
AcDbEntity
8
0
100
AcDbPolyline
90
8
70
1
43
0.0
10
78.330434937649926
20
106.00000157952309
10
79.218814569685179
20
106.00000157952309
10
79.61364996170083
20
105.60516618750742
10
79.61364996170083
20
99.293840393300087
10
79.317523417689088
20
98.997713849288331
10
78.429143785653849
20
98.997713849288331
10
78.034308393638184
20
99.392549241303982
10
78.034308393638184
20
105.70387503551133
0
LWPOLYLINE
5
146
100
AcDbEntity
8
0
100
AcDbPolyline
90
8
70
1
43
0.0
10
70.584176816149125
20
109.1695
10
72.881832355540212
20
109.1695
10
73.381832355540212
20
108.6695
10
73.381832355540212
20
107.5445
10
73.006832355540212
20
107.1695
10
70.709176816149125
20
107.1695
10
70.209176816149125
20
107.66950000000001
10
70.209176816149125
20
108.7945
0
LWPOLYLINE
5
147
100
AcDbEntity
8
0
100
AcDbPolyline
90
8
70
1
43
0.0
10
73.004928076984754
20
97.969500000000011
10
70.708106307758086
20
97.969500000000011
10
70.209176816149125
20
97.470570508391049
10
70.209176816149125
20
96.347979152270909
10
70.583373934855842
20
95.973782033564206
10
73.129660449886984
20
95.973782033564206
10
73.503857568593702
20
96.347979152270909
10
73.503857568593702
20
97.470570508391049
0
LINE
5
148
100
AcDbEntity
8
0
100
AcDbLine
10
70.370605758103665
20
171.19860956237227
30
0
11
86.585787748929093
21
171.19860956237227
31
0
0
LINE
5
149
100
AcDbEntity
8
0
100
AcDbLine
10
88.000001311302185
20
162.00000241398811
30
0
11
66.956392195730615
21
162.00000241398811
31
0
0
LINE
5
150
100
AcDbEntity
8
0
100
AcDbLine
10
64.956392195730587
20
176.61282312474538
30
0
11
64.956392195730587
21
197.4334803932926
31
0
0
LINE
5
151
100
AcDbEntity
8
0
100
AcDbLine
10
68.956392195730601
20
133.25758893871196
30
0
11
332.16702283208809
21
133.25758893871196
31
0
0
LINE
5
152
100
AcDbEntity
8
0
100
AcDbLine
10
64.956392195730615
20
137.25758893871193
30
0
11
64.956392195730615
21
160.00000241398808
31
0
0
CIRCLE
5
153
100
AcDbEntity
8
0
100
AcDbCircle
10
328.5
20
111.25
30
0
40
1.6250000000000142
210
0
220
0
230
1
0
CIRCLE
5
154
100
AcDbEntity
8
0
100
AcDbCircle
10
376.23750000000001
20
130.17500000000001
30
0
40
1.100000000000027
210
0
220
0
230
1
0
CIRCLE
5
155
100
AcDbEntity
8
0
100
AcDbCircle
10
191
20
196.25
30
0
40
1.0999999999999841
210
0
220
0
230
1
0
LINE
5
156
100
AcDbEntity
8
0
100
AcDbLine
10
145.08840678666147
20
198.37739551159714
30
0
11
161.71594038553266
21
198.37739551159714
31
0
0
LINE
5
157
100
AcDbEntity
8
0
100
AcDbLine
10
163.90797140721099
20
197.46942653327545
30
0
11
170.84357521421836
21
190.53382272626806
31
0
0
LINE
5
158
100
AcDbEntity
8
0
100
AcDbLine
10
173.03560623589669
20
189.62585374794639
30
0
11
193.00000287592411
21
189.62585374794634
31
0
0
LINE
5
159
100
AcDbEntity
8
0
100
AcDbLine
10
193.00000287592411
20
189.62585374794634
30
0
11
195.83746482621251
21
192.46331569823474
31
0
0
LINE
5
160
100
AcDbEntity
8
0
100
AcDbLine
10
195.83746482621251
20
192.46331569823474
30
0
11
195.83746482621251
21
198.00000295042992
31
0
0
LINE
5
161
100
AcDbEntity
8
0
100
AcDbLine
10
195.83746482621251
20
198.00000295042992
30
0
11
198.1851558314483
21
200.3476939556657
31
0
0
LINE
5
162
100
AcDbEntity
8
0
100
AcDbLine
10
198.1851558314483
20
200.3476939556657
30
0
11
235.18220828439468
21
200.3476939556657
31
0
0
LINE
5
163
100
AcDbEntity
8
0
100
AcDbLine
10
89.414214873675263
20
168.00000250339508
30
0
11
115.85244443644831
21
168.00000250339508
31
0
0
LINE
5
164
100
AcDbEntity
8
0
100
AcDbLine
10
88.000001311302157
20
169.41421606576824
30
0
11
88.000001311302157
21
169.78439599999916
31
0
0
LINE
5
165
100
AcDbEntity
8
0
100
AcDbLine
10
116.98465737297261
20
169.91928690701349
30
0
11
116.98465737297258
21
169.13221543991941
31
0
0
LINE
5
166
100
AcDbEntity
8
0
100
AcDbLine
10
88.000001311302185
20
162.00000241398811
30
0
11
329.00000491738325
21
162.00000241398666
31
0
0
LINE
5
167
100
AcDbEntity
8
0
100
AcDbLine
10
330.00000491738325
20
163.00000241398666
30
0
11
330.00000491738325
21
169.87200000000001
31
0
0
CIRCLE
5
168
100
AcDbEntity
8
0
100
AcDbCircle
10
190.5
20
168.25
30
0
40
1.6249999999999978
210
0
220
0
230
1
0
CIRCLE
5
169
100
AcDbEntity
8
0
100
AcDbCircle
10
247.75000000000003
20
168.75
30
0
40
1.6250000000000062
210
0
220
0
230
1
0
CIRCLE
5
170
100
AcDbEntity
8
0
100
AcDbCircle
10
317.25
20
168.75
30
0
40
1.6249999999999898
210
0
220
0
230
1
0
CIRCLE
5
171
100
AcDbEntity
8
0
100
AcDbCircle
10
261.91890000000001
20
203.89200000000002
30
0
40
1.8750000000000047
210
0
220
0
230
1
0
LINE
5
172
100
AcDbEntity
8
0
100
AcDbLine
10
253.77145402600601
20
201.23053666814033
30
0
11
256.63725603742108
21
198.36473465672526
31
0
0
LINE
5
173
100
AcDbEntity
8
0
100
AcDbLine
10
256.92009874989549
20
198.24757736919997
30
0
11
267.54436907490077
21
198.24757736919997
31
0
0
LINE
5
174
100
AcDbEntity
8
0
100
AcDbLine
10
268.32218653420603
20
198.5697599098948
30
0
11
270.77793803928211
21
201.02551141497091
31
0
0
LINE
5
175
100
AcDbEntity
8
0
100
AcDbLine
10
252.19679916098141
20
201.3476939556657
30
0
11
253.48861131353141
21
201.3476939556657
31
0
0
LINE
5
176
100
AcDbEntity
8
0
100
AcDbLine
10
271.55575549858736
20
201.3476939556657
30
0
11
308.52063147216535
21
201.3476939556657
31
0
0
LINE
5
177
100
AcDbEntity
8
0
100
AcDbLine
10
332.16702283208809
20
133.25758893871196
30
0
11
370.00744860768566
21
133.25758893871196
31
0
0
LINE
5
178
100
AcDbEntity
8
0
100
AcDbLine
10
370.00744860768566
20
133.25758893871196
30
0
11
379.10034202021416
21
133.25758893871202
31
0
0
LINE
5
179
100
AcDbEntity
8
0
100
AcDbLine
10
383.00744880140076
20
137.1646957198985
30
0
11
383.00744880140076
21
197.07768301231997
31
0
0
CIRCLE
5
180
100
AcDbEntity
8
0
100
AcDbCircle
10
82.25
20
168.25
30
0
40
1.0999999999999943
210
0
220
0
230
1
0
CIRCLE
5
181
100
AcDbEntity
8
0
100
AcDbCircle
10
81
20
130.25
30
0
40
1.0999999999999943
210
0
220
0
230
1
0
CIRCLE
5
182
100
AcDbEntity
8
0
100
AcDbCircle
10
82.000000000000014
20
202.75000000000003
30
0
40
1.6250000000000009
210
0
220
0
230
1
0
LINE
5
183
100
AcDbEntity
8
0
100
AcDbLine
10
382.86100219199403
20
136.81114232930528
30
0
11
379.45389541080738
21
133.40403554811866
31
0
0
ARC
5
184
100
AcDbEntity
8
0
100
AcDbCircle
10
378.7590777024007
20
111.45810781907667
30
0
40
0.49999999999982947
210
0
220
-0
230
1
100
AcDbArc
50
89.999999999986969
51
180
0
ARC
5
185
100
AcDbEntity
8
0
100
AcDbCircle
10
380.25167922443876
20
111.45810781907669
30
0
40
0.49999999999982947
210
0
220
0
230
1
100
AcDbArc
50
0
51
90.000000000013031
0
LINE
5
186
100
AcDbEntity
8
0
100
AcDbLine
10
68.956392195730601
20
133.25758893871196
30
0
11
64.956392195730615
21
137.25758893871193
31
0
0
LINE
5
187
100
AcDbEntity
8
0
100
AcDbLine
10
66.956392195730615
20
162.00000241398811
30
0
11
64.956392195730615
21
160.00000241398808
31
0
0
LINE
5
188
100
AcDbEntity
8
0
100
AcDbLine
10
88.70710809248871
20
168.29289572220856
30
0
11
88.292894530115603
21
168.70710928458169
31
0
0
LINE
5
189
100
AcDbEntity
8
0
100
AcDbLine
10
87.292894530115632
20
170.90571634355879
30
0
11
87.707108092488696
21
170.49150278118572
31
0
0
LINE
5
190
100
AcDbEntity
8
0
100
AcDbLine
10
116.55955121763485
20
168.29289572220856
30
0
11
116.69176415415913
21
168.42510865873288
31
0
0
LINE
5
191
100
AcDbEntity
8
0
100
AcDbLine
10
117.23026368477252
20
170.57910678118657
30
0
11
117.27755059178604
21
170.62639368820004
31
0
0
LINE
5
192
100
AcDbEntity
8
0
100
AcDbLine
10
381.15389541080737
20
199.13834318409982
30
0
11
382.86100219199403
21
197.43123640291316
31
0
0
LINE
5
193
100
AcDbEntity
8
0
100
AcDbLine
10
66.663498976917111
20
199.55480073685223
30
0
11
65.249285414544033
21
198.14058717447915
31
0
0
LINE
5
194
100
AcDbEntity
8
0
100
AcDbLine
10
69.663498976917126
20
171.49150278118572
30
0
11
65.249285414544033
21
175.90571634355882
31
0
0
ARC
5
195
100
AcDbEntity
8
0
100
AcDbCircle
10
67.370605758103665
20
198.84769395566568
30
0
40
1.0000000000000142
210
0
220
-0
230
1
100
AcDbArc
50
90
51
135
0
ARC
5
196
100
AcDbEntity
8
0
100
AcDbCircle
10
65.956392195730587
20
197.4334803932926
30
0
40
1.0000000000000042
210
0
220
0
230
1
100
AcDbArc
50
135
51
180
0
ARC
5
197
100
AcDbEntity
8
0
100
AcDbCircle
10
65.956392195730587
20
176.61282312474538
30
0
40
0.99999999999999645
210
0
220
0
230
1
100
AcDbArc
50
180
51
225
0
ARC
5
198
100
AcDbEntity
8
0
100
AcDbCircle
10
70.370605758103665
20
172.19860956237227
30
0
40
0.999999999999998
210
0
220
0
230
1
100
AcDbArc
50
225.00000000000057
51
270
0
ARC
5
199
100
AcDbEntity
8
0
100
AcDbCircle
10
86.585787748929093
20
170.19860956237224
30
0
40
0.999999999999998
210
0
220
-0
230
1
100
AcDbArc
50
45.000000000000568
51
90
0
ARC
5
200
100
AcDbEntity
8
0
100
AcDbCircle
10
87.000001311302157
20
169.78439599999916
30
0
40
0.99999999999999645
210
-0
220
0
230
1
100
AcDbArc
50
0
51
45.000000000000568
0
ARC
5
201
100
AcDbEntity
8
0
100
AcDbCircle
10
89.000001311302142
20
169.41421606576824
30
0
40
0.99999999999999645
210
0
220
0
230
1
100
AcDbArc
50
180
51
225.00000000000057
0
ARC
5
202
100
AcDbEntity
8
0
100
AcDbCircle
10
89.414214873675263
20
169.00000250339508
30
0
40
0.999999999999998
210
0
220
0
230
1
100
AcDbArc
50
224.99999999999883
51
270
0
ARC
5
203
100
AcDbEntity
8
0
100
AcDbCircle
10
115.85244443644831
20
169.00000250339508
30
0
40
1.0000000000000142
210
-0
220
0
230
1
100
AcDbArc
50
270
51
315.00000000000057
0
ARC
5
204
100
AcDbEntity
8
0
100
AcDbCircle
10
115.98465737297259
20
169.13221543991941
30
0
40
0.999999999999998
210
0
220
0
230
1
100
AcDbArc
50
-44.999999999999439
51
0
0
ARC
5
205
100
AcDbEntity
8
0
100
AcDbCircle
10
117.98465737297261
20
169.91928690701349
30
0
40
1.0000000000000107
210
0
220
0
230
1
100
AcDbArc
50
135.0000000000006
51
180
0
ARC
5
206
100
AcDbEntity
8
0
100
AcDbCircle
10
117.93737046595909
20
169.87200000000001
30
0
40
1.0000000000000142
210
0
220
-0
230
1
100
AcDbArc
50
90
51
135.0000000000006
0
ARC
5
207
100
AcDbEntity
8
0
100
AcDbCircle
10
329.00000491738325
20
169.87200000000001
30
0
40
1.0000000000000142
210
0
220
0
230
1
100
AcDbArc
50
0
51
89.999999999996746
0
ARC
5
208
100
AcDbEntity
8
0
100
AcDbCircle
10
329.00000491738325
20
163.00000241398666
30
0
40
1.0000000000000142
210
0
220
0
230
1
100
AcDbArc
50
-90
51
0
0
ARC
5
209
100
AcDbEntity
8
0
100
AcDbCircle
10
379.10034202021421
20
133.7575889387119
30
0
40
0.49999999999990052
210
0
220
0
230
1
100
AcDbArc
50
269.99999999999346
51
314.99999999999307
0
ARC
5
210
100
AcDbEntity
8
0
100
AcDbCircle
10
382.50744880140132
20
137.16469571989825
30
0
40
0.49999999999939615
210
0
220
0
230
1
100
AcDbArc
50
-45.000000000020712
51
0
0
ARC
5
211
100
AcDbEntity
8
0
100
AcDbCircle
10
380.80034202021415
20
198.78478979350635
30
0
40
0.50000000000009948
210
0
220
-0
230
1
100
AcDbArc
50
45.000000000020727
51
90
0
ARC
5
212
100
AcDbEntity
8
0
100
AcDbCircle
10
382.50744880140144
20
197.07768301232022
30
0
40
0.49999999999926104
210
-0
220
0
230
1
100
AcDbArc
50
0
51
45.000000000027633
0
ARC
5
213
100
AcDbEntity
8
0
100
AcDbCircle
10
381.25167922443848
20
108.24756126454083
30
0
40
0.49999999999990052
210
0
220
0
230
1
100
AcDbArc
50
180
51
270
0
ARC
5
214
100
AcDbEntity
8
0
100
AcDbCircle
10
377.75907770240099
20
108.31860407185505
30
0
40
0.49999999999990052
210
-0
220
0
230
1
100
AcDbArc
50
-90
51
0
0
ARC
5
215
100
AcDbEntity
8
0
100
AcDbCircle
10
375.997455084053
20
107.31860407185529
30
0
40
0.49999999999990052
210
0
220
-0
230
1
100
AcDbArc
50
90
51
180
0
ARC
5
216
100
AcDbEntity
8
0
100
AcDbCircle
10
374.99745508405317
20
105.76667354875741
30
0
40
0.49999999999988276
210
0
220
0
230
1
100
AcDbArc
50
-90
51
0
0
ARC
5
217
100
AcDbEntity
8
0
100
AcDbCircle
10
383.50000572204601
20
107.24756126454108
30
0
40
0.49999999999990052
210
-0
220
0
230
1
100
AcDbArc
50
0
51
90
0
ARC
5
218
100
AcDbEntity
8
0
100
AcDbCircle
10
370.63226898728993
20
104.76667354875769
30
0
40
0.49999999999984723
210
0
220
-0
230
1
100
AcDbArc
50
89.999999999993491
51
180
0
ARC
5
219
100
AcDbEntity
8
0
100
AcDbCircle
10
368.8822689872901
20
93.381999999999977
30
0
40
1.25
210
-0
220
0
230
1
100
AcDbArc
50
-90
51
0
0
ARC
5
220
100
AcDbEntity
8
0
100
AcDbCircle
10
173.03560623589672
20
192.72585374794653
30
0
40
3.1000000000001551
210
0
220
0
230
1
100
AcDbArc
50
225.00000000000148
51
269.99999999999949
0
ARC
5
221
100
AcDbEntity
8
0
100
AcDbCircle
10
161.71594038553263
20
195.27739551159698
30
0
40
3.1000000000001551
210
0
220
-0
230
1
100
AcDbArc
50
45.000000000001485
51
89.999999999999474
0
ARC
5
222
100
AcDbEntity
8
0
100
AcDbCircle
10
78.215190972135446
20
196.74769395566608
30
0
40
3.0999999999996675
210
0
220
-0
230
1
100
AcDbArc
50
68.251102403933174
51
90.000000000001322
0
ARC
5
223
100
AcDbEntity
8
0
100
AcDbCircle
10
86.036384395987426
20
196.74769395566616
30
0
40
3.0999999999995609
210
0
220
-0
230
1
100
AcDbArc
50
89.999999999998181
51
111.74889759606717
0
LINE
5
224
100
AcDbEntity
8
0
100
AcDbLine
10
329.00000491738331
20
170.87200000000007
30
0
11
117.93737046595909
21
170.87200000000001
31
0
0
ARC
5
225
100
AcDbEntity
8
0
100
AcDbCircle
10
253.48861131353149
20
200.94769395566601
30
0
40
0.39999999999971281
210
0
220
-0
230
1
100
AcDbArc
50
44.999999999979842
51
90.000000000012221
0
ARC
5
226
100
AcDbEntity
8
0
100
AcDbCircle
10
256.92009874989543
20
198.64757736919967
30
0
40
0.39999999999966257
210
0
220
0
230
1
100
AcDbArc
50
225.00000000000574
51
270.00000000000813
0
ARC
5
227
100
AcDbEntity
8
0
100
AcDbCircle
10
267.54436907490077
20
199.34757736920008
30
0
40
1.1000000000001009
210
0
220
0
230
1
100
AcDbArc
50
270
51
314.99999999999892
0
ARC
5
228
100
AcDbEntity
8
0
100
AcDbCircle
10
271.55575549858736
20
200.24769395566562
30
0
40
1.1000000000001009
210
0
220
-0
230
1
100
AcDbArc
50
90
51
134.99999999999898
0
LINE
5
229
100
AcDbEntity
8
0
100
AcDbLine
10
384.0000057220459
20
92.131986988729778
30
0
11
384.15025000000003
21
92.131986988729778
31
0
0
LINE
5
230
100
AcDbEntity
8
0
100
AcDbLine
10
385.75024999999994
20
93.731986988729773
30
0
11
385.75024999999994
21
93.731999999999985
31
0
0
ARC
5
231
100
AcDbEntity
8
0
100
AcDbCircle
10
384.15025000000003
20
93.731986988729759
30
0
40
1.5999999999999837
210
0
220
0
230
1
100
AcDbArc
50
-90
51
0
0
LINE
5
232
100
AcDbEntity
8
0
100
AcDbLine
10
385.75024999999994
20
204.83199999999999
30
0
11
385.75024999999994
21
111.95810781907653
31
0
0
ARC
5
233
100
AcDbEntity
8
0
100
AcDbCircle
10
63.487749999999963
20
93.719499999999996
30
0
40
1.5874999999999595
210
0
220
0
230
1
100
AcDbArc
50
180
51
270.00000000000125
0
LINE
5
234
100
AcDbEntity
8
0
100
AcDbLine
10
61.90025
20
93.719499999999996
30
0
11
61.900250000000021
21
204.84450000000004
31
0
0
ARC
5
235
100
AcDbEntity
8
0
100
AcDbCircle
10
63.48779882812498
20
204.84450000000004
30
0
40
1.5875488281249424
210
0
220
-0
230
1
100
AcDbArc
50
89.550623640748952
51
180
0
LINE
5
236
100
AcDbEntity
8
0
100
AcDbLine
10
63.500250000000037
20
206.43200000000002
30
0
11
384.15025000000003
21
206.43200000000002
31
0
0
ARC
5
237
100
AcDbEntity
8
0
100
AcDbCircle
10
384.15024999999991
20
204.83199999999999
30
0
40
1.6000000000000369
210
0
220
0
230
1
100
AcDbArc
50
0
51
89.999999999995936
0
LINE
5
238
100
AcDbEntity
8
0
100
AcDbLine
10
368.8822689872901
20
92.131999999999977
30
0
11
63.487749999999998
21
92.132000000000019
31
0
0
ENDSEC
0
SECTION
2
OBJECTS
0
DICTIONARY
5
C
100
AcDbDictionary
3
ACAD_GROUP
350
D
3
ACAD_MLINESTYLE
350
17
0
DICTIONARY
5
D
100
AcDbDictionary
0
DICTIONARY
5
1A
330
C
100
AcDbDictionary
0
DICTIONARY
5
17
100
AcDbDictionary
0
ENDSEC
0
EOF
