%TF.GenerationSoftware,KiCad,Pcbnew,(5.1.9)-1*%
%TF.CreationDate,2021-05-14T18:07:59-04:00*%
%TF.ProjectId,rnm-75E,726e6d2d-3735-4452-9e6b-696361645f70,rev?*%
%TF.SameCoordinates,Original*%
%TF.FileFunction,Legend,Bot*%
%TF.FilePolarity,Positive*%
%FSLAX46Y46*%
G04 Gerber Fmt 4.6, Leading zero omitted, Abs format (unit mm)*
G04 Created by KiCad (PCBNEW (5.1.9)-1) date 2021-05-14 18:07:59*
%MOMM*%
%LPD*%
G01*
G04 APERTURE LIST*
%ADD10C,0.120000*%
%ADD11C,0.150000*%
%ADD12C,0.250000*%
G04 APERTURE END LIST*
D10*
%TO.C,J2*%
X371750000Y-89720000D02*
X381150000Y-89720000D01*
X381150000Y-95520000D02*
X381150000Y-93520000D01*
X381150000Y-91620000D02*
X381150000Y-89720000D01*
X371750000Y-95520000D02*
X371750000Y-93520000D01*
X371750000Y-91620000D02*
X371750000Y-89720000D01*
%TO.C,C_F3*%
X236276248Y-174683750D02*
X236798752Y-174683750D01*
X236276248Y-176153750D02*
X236798752Y-176153750D01*
%TO.C,C_X2*%
X256747808Y-188626961D02*
X256378341Y-188257494D01*
X255708361Y-189666408D02*
X255338894Y-189296941D01*
%TO.C,U2*%
X377472600Y-106446000D02*
X375672600Y-106446000D01*
X375672600Y-103226000D02*
X378122600Y-103226000D01*
D11*
%TO.C,U1*%
X235655000Y-184525000D02*
X236230000Y-184525000D01*
X235655000Y-198875000D02*
X236330000Y-198875000D01*
X250005000Y-198875000D02*
X249330000Y-198875000D01*
X250005000Y-184525000D02*
X249330000Y-184525000D01*
X235655000Y-184525000D02*
X235655000Y-185200000D01*
X250005000Y-184525000D02*
X250005000Y-185200000D01*
X250005000Y-198875000D02*
X250005000Y-198200000D01*
X235655000Y-198875000D02*
X235655000Y-198200000D01*
X236230000Y-184525000D02*
X236230000Y-183250000D01*
D12*
%TO.C,J1*%
X354687500Y-92452500D02*
X354687500Y-94952500D01*
X359687500Y-92452500D02*
X354687500Y-92452500D01*
X359687500Y-94952500D02*
X359687500Y-92452500D01*
X354687500Y-94952500D02*
X359687500Y-94952500D01*
D10*
%TO.C,R2*%
X301788564Y-183859500D02*
X301334436Y-183859500D01*
X301788564Y-185329500D02*
X301334436Y-185329500D01*
%TO.C,C_FM1*%
X237372752Y-179297000D02*
X236850248Y-179297000D01*
X237372752Y-177827000D02*
X236850248Y-177827000D01*
%TO.C,Y1*%
X256943798Y-191406864D02*
X254610345Y-193740317D01*
X254610345Y-193740317D02*
X251781918Y-190911890D01*
D11*
%TO.C,SW1*%
X321536500Y-184063250D02*
G75*
G03*
X321536500Y-184063250I-1000000J0D01*
G01*
X317936500Y-181463250D02*
X317936500Y-186663250D01*
X323136500Y-181463250D02*
X317936500Y-181463250D01*
X323136500Y-186663250D02*
X323136500Y-181463250D01*
X317936500Y-186663250D02*
X323136500Y-186663250D01*
D10*
%TO.C,R_u2*%
X381957314Y-104484500D02*
X381503186Y-104484500D01*
X381957314Y-105954500D02*
X381503186Y-105954500D01*
%TO.C,R_u1*%
X371184436Y-103573250D02*
X371638564Y-103573250D01*
X371184436Y-102103250D02*
X371638564Y-102103250D01*
%TO.C,R_SW2*%
X272147936Y-198496250D02*
X272602064Y-198496250D01*
X272147936Y-199966250D02*
X272602064Y-199966250D01*
%TO.C,R_SW1*%
X313945600Y-185623564D02*
X313945600Y-185169436D01*
X315415600Y-185623564D02*
X315415600Y-185169436D01*
%TO.C,R_d2*%
X376115250Y-101477814D02*
X376115250Y-101023686D01*
X374645250Y-101477814D02*
X374645250Y-101023686D01*
%TO.C,R_d1*%
X378496500Y-101477814D02*
X378496500Y-101023686D01*
X377026500Y-101477814D02*
X377026500Y-101023686D01*
%TO.C,R1*%
X378841364Y-109221600D02*
X378387236Y-109221600D01*
X378841364Y-110691600D02*
X378387236Y-110691600D01*
%TO.C,F1*%
X370621936Y-99547000D02*
X371826064Y-99547000D01*
X370621936Y-101367000D02*
X371826064Y-101367000D01*
%TO.C,D98*%
X83755250Y-183432000D02*
X76455250Y-183432000D01*
X83755250Y-188932000D02*
X76455250Y-188932000D01*
X76455250Y-188932000D02*
X76455250Y-187782000D01*
%TO.C,D97*%
X150364000Y-186722000D02*
X150364000Y-185572000D01*
X157664000Y-186722000D02*
X150364000Y-186722000D01*
X157664000Y-181222000D02*
X150364000Y-181222000D01*
%TO.C,D96*%
X207424000Y-187344500D02*
X207424000Y-186194500D01*
X214724000Y-187344500D02*
X207424000Y-187344500D01*
X214724000Y-181844500D02*
X207424000Y-181844500D01*
%TO.C,D95*%
X305055250Y-188932000D02*
X305055250Y-187782000D01*
X312355250Y-188932000D02*
X305055250Y-188932000D01*
X312355250Y-183432000D02*
X305055250Y-183432000D01*
%TO.C,D94*%
X368605250Y-189832000D02*
X367455250Y-189832000D01*
X368605250Y-182532000D02*
X368605250Y-189832000D01*
X363105250Y-182532000D02*
X363105250Y-189832000D01*
%TO.C,D93*%
X361004000Y-111792000D02*
X361004000Y-110642000D01*
X368304000Y-111792000D02*
X361004000Y-111792000D01*
X368304000Y-106292000D02*
X361004000Y-106292000D01*
%TO.C,D92*%
X312355250Y-107232000D02*
X312355250Y-108382000D01*
X305055250Y-107232000D02*
X312355250Y-107232000D01*
X305055250Y-112732000D02*
X312355250Y-112732000D01*
%TO.C,D91*%
X236155250Y-107232000D02*
X236155250Y-108382000D01*
X228855250Y-107232000D02*
X236155250Y-107232000D01*
X228855250Y-112732000D02*
X236155250Y-112732000D01*
%TO.C,D90*%
X151861500Y-112732000D02*
X159161500Y-112732000D01*
X151861500Y-107232000D02*
X159161500Y-107232000D01*
X159161500Y-107232000D02*
X159161500Y-108382000D01*
%TO.C,D89*%
X83824000Y-107244500D02*
X83824000Y-108394500D01*
X76524000Y-107244500D02*
X83824000Y-107244500D01*
X76524000Y-112744500D02*
X83824000Y-112744500D01*
%TO.C,D88*%
X373131250Y-168481250D02*
X373131250Y-166481250D01*
X373131250Y-166481250D02*
X377031250Y-166481250D01*
X373131250Y-168481250D02*
X377031250Y-168481250D01*
%TO.C,D87*%
X373256250Y-149431250D02*
X373256250Y-147431250D01*
X373256250Y-147431250D02*
X377156250Y-147431250D01*
X373256250Y-149431250D02*
X377156250Y-149431250D01*
%TO.C,D86*%
X373256250Y-144668750D02*
X373256250Y-142668750D01*
X373256250Y-142668750D02*
X377156250Y-142668750D01*
X373256250Y-144668750D02*
X377156250Y-144668750D01*
%TO.C,D85*%
X373256250Y-125618750D02*
X373256250Y-123618750D01*
X373256250Y-123618750D02*
X377156250Y-123618750D01*
X373256250Y-125618750D02*
X377156250Y-125618750D01*
%TO.C,D84*%
X82692750Y-104232000D02*
X80692750Y-104232000D01*
X80692750Y-104232000D02*
X80692750Y-100332000D01*
X82692750Y-104232000D02*
X82692750Y-100332000D01*
%TO.C,D83*%
X369162500Y-190706250D02*
X369162500Y-188706250D01*
X369162500Y-188706250D02*
X373062500Y-188706250D01*
X369162500Y-190706250D02*
X373062500Y-190706250D01*
%TO.C,D82*%
X365267750Y-197957000D02*
X363267750Y-197957000D01*
X363267750Y-197957000D02*
X363267750Y-194057000D01*
X365267750Y-197957000D02*
X365267750Y-194057000D01*
%TO.C,D81*%
X363236000Y-171107000D02*
X365236000Y-171107000D01*
X365236000Y-171107000D02*
X365236000Y-175007000D01*
X363236000Y-171107000D02*
X363236000Y-175007000D01*
%TO.C,D80*%
X348980250Y-148819500D02*
X350980250Y-148819500D01*
X350980250Y-148819500D02*
X350980250Y-152719500D01*
X348980250Y-148819500D02*
X348980250Y-152719500D01*
%TO.C,D79*%
X344630250Y-140807000D02*
X342630250Y-140807000D01*
X342630250Y-140807000D02*
X342630250Y-136907000D01*
X344630250Y-140807000D02*
X344630250Y-136907000D01*
%TO.C,D78*%
X355742750Y-121757000D02*
X353742750Y-121757000D01*
X353742750Y-121757000D02*
X353742750Y-117857000D01*
X355742750Y-121757000D02*
X355742750Y-117857000D01*
%TO.C,D77*%
X346217750Y-197957000D02*
X344217750Y-197957000D01*
X344217750Y-197957000D02*
X344217750Y-194057000D01*
X346217750Y-197957000D02*
X346217750Y-194057000D01*
%TO.C,D76*%
X346217750Y-102707000D02*
X344217750Y-102707000D01*
X344217750Y-102707000D02*
X344217750Y-98807000D01*
X346217750Y-102707000D02*
X346217750Y-98807000D01*
%TO.C,D75*%
X339518750Y-170725000D02*
X341518750Y-170725000D01*
X341518750Y-170725000D02*
X341518750Y-174625000D01*
X339518750Y-170725000D02*
X339518750Y-174625000D01*
%TO.C,D74*%
X336692750Y-140807000D02*
X334692750Y-140807000D01*
X334692750Y-140807000D02*
X334692750Y-136907000D01*
X336692750Y-140807000D02*
X336692750Y-136907000D01*
%TO.C,D73*%
X327167750Y-121757000D02*
X325167750Y-121757000D01*
X325167750Y-121757000D02*
X325167750Y-117857000D01*
X327167750Y-121757000D02*
X327167750Y-117857000D01*
%TO.C,D72*%
X327167750Y-102707000D02*
X325167750Y-102707000D01*
X325167750Y-102707000D02*
X325167750Y-98807000D01*
X327167750Y-102707000D02*
X327167750Y-98807000D01*
%TO.C,D71*%
X320405250Y-152244500D02*
X322405250Y-152244500D01*
X322405250Y-152244500D02*
X322405250Y-156144500D01*
X320405250Y-152244500D02*
X320405250Y-156144500D01*
%TO.C,D70*%
X317642750Y-140807000D02*
X315642750Y-140807000D01*
X315642750Y-140807000D02*
X315642750Y-136907000D01*
X317642750Y-140807000D02*
X317642750Y-136907000D01*
%TO.C,D69*%
X310404000Y-171107000D02*
X312404000Y-171107000D01*
X312404000Y-171107000D02*
X312404000Y-175007000D01*
X310404000Y-171107000D02*
X310404000Y-175007000D01*
%TO.C,D68*%
X308117750Y-121757000D02*
X306117750Y-121757000D01*
X306117750Y-121757000D02*
X306117750Y-117857000D01*
X308117750Y-121757000D02*
X308117750Y-117857000D01*
%TO.C,D67*%
X308117750Y-102707000D02*
X306117750Y-102707000D01*
X306117750Y-102707000D02*
X306117750Y-98807000D01*
X308117750Y-102707000D02*
X308117750Y-98807000D01*
%TO.C,D66*%
X326374000Y-194782000D02*
X324374000Y-194782000D01*
X324374000Y-194782000D02*
X324374000Y-190882000D01*
X326374000Y-194782000D02*
X326374000Y-190882000D01*
%TO.C,D65*%
X303355250Y-159857000D02*
X301355250Y-159857000D01*
X301355250Y-159857000D02*
X301355250Y-155957000D01*
X303355250Y-159857000D02*
X303355250Y-155957000D01*
%TO.C,D64*%
X298592750Y-140807000D02*
X296592750Y-140807000D01*
X296592750Y-140807000D02*
X296592750Y-136907000D01*
X298592750Y-140807000D02*
X298592750Y-136907000D01*
%TO.C,D63*%
X291830250Y-171107000D02*
X293830250Y-171107000D01*
X293830250Y-171107000D02*
X293830250Y-175007000D01*
X291830250Y-171107000D02*
X291830250Y-175007000D01*
%TO.C,D62*%
X289067750Y-121757000D02*
X287067750Y-121757000D01*
X287067750Y-121757000D02*
X287067750Y-117857000D01*
X289067750Y-121757000D02*
X289067750Y-117857000D01*
%TO.C,D61*%
X289067750Y-102707000D02*
X287067750Y-102707000D01*
X287067750Y-102707000D02*
X287067750Y-98807000D01*
X289067750Y-102707000D02*
X289067750Y-98807000D01*
%TO.C,D60*%
X303217750Y-199882000D02*
X303217750Y-197882000D01*
X303217750Y-197882000D02*
X307117750Y-197882000D01*
X303217750Y-199882000D02*
X307117750Y-199882000D01*
%TO.C,D59*%
X284305250Y-159857000D02*
X282305250Y-159857000D01*
X282305250Y-159857000D02*
X282305250Y-155957000D01*
X284305250Y-159857000D02*
X284305250Y-155957000D01*
%TO.C,D58*%
X279542750Y-140807000D02*
X277542750Y-140807000D01*
X277542750Y-140807000D02*
X277542750Y-136907000D01*
X279542750Y-140807000D02*
X279542750Y-136907000D01*
%TO.C,D57*%
X271192750Y-169644500D02*
X273192750Y-169644500D01*
X273192750Y-169644500D02*
X273192750Y-173544500D01*
X271192750Y-169644500D02*
X271192750Y-173544500D01*
%TO.C,D56*%
X270017750Y-121757000D02*
X268017750Y-121757000D01*
X268017750Y-121757000D02*
X268017750Y-117857000D01*
X270017750Y-121757000D02*
X270017750Y-117857000D01*
%TO.C,D55*%
X270017750Y-102707000D02*
X268017750Y-102707000D01*
X268017750Y-102707000D02*
X268017750Y-98807000D01*
X270017750Y-102707000D02*
X270017750Y-98807000D01*
%TO.C,D54*%
X265255250Y-159857000D02*
X263255250Y-159857000D01*
X263255250Y-159857000D02*
X263255250Y-155957000D01*
X265255250Y-159857000D02*
X265255250Y-155957000D01*
%TO.C,D53*%
X287405250Y-199882000D02*
X287405250Y-197882000D01*
X287405250Y-197882000D02*
X291305250Y-197882000D01*
X287405250Y-199882000D02*
X291305250Y-199882000D01*
%TO.C,D52*%
X260492750Y-140807000D02*
X258492750Y-140807000D01*
X258492750Y-140807000D02*
X258492750Y-136907000D01*
X260492750Y-140807000D02*
X260492750Y-136907000D01*
%TO.C,D51*%
X252619000Y-168437000D02*
X254619000Y-168437000D01*
X254619000Y-168437000D02*
X254619000Y-172337000D01*
X252619000Y-168437000D02*
X252619000Y-172337000D01*
%TO.C,D50*%
X250967750Y-121757000D02*
X248967750Y-121757000D01*
X248967750Y-121757000D02*
X248967750Y-117857000D01*
X250967750Y-121757000D02*
X250967750Y-117857000D01*
%TO.C,D49*%
X250967750Y-102707000D02*
X248967750Y-102707000D01*
X248967750Y-102707000D02*
X248967750Y-98807000D01*
X250967750Y-102707000D02*
X250967750Y-98807000D01*
%TO.C,D48*%
X246205250Y-159857000D02*
X244205250Y-159857000D01*
X244205250Y-159857000D02*
X244205250Y-155957000D01*
X246205250Y-159857000D02*
X246205250Y-155957000D01*
%TO.C,D47*%
X241442750Y-140807000D02*
X239442750Y-140807000D01*
X239442750Y-140807000D02*
X239442750Y-136907000D01*
X241442750Y-140807000D02*
X241442750Y-136907000D01*
%TO.C,D46*%
X232934000Y-168437000D02*
X234934000Y-168437000D01*
X234934000Y-168437000D02*
X234934000Y-172337000D01*
X232934000Y-168437000D02*
X232934000Y-172337000D01*
%TO.C,D45*%
X231917750Y-121757000D02*
X229917750Y-121757000D01*
X229917750Y-121757000D02*
X229917750Y-117857000D01*
X231917750Y-121757000D02*
X231917750Y-117857000D01*
%TO.C,D44*%
X231917750Y-102707000D02*
X229917750Y-102707000D01*
X229917750Y-102707000D02*
X229917750Y-98807000D01*
X231917750Y-102707000D02*
X231917750Y-98807000D01*
%TO.C,D43*%
X227155250Y-159857000D02*
X225155250Y-159857000D01*
X225155250Y-159857000D02*
X225155250Y-155957000D01*
X227155250Y-159857000D02*
X227155250Y-155957000D01*
%TO.C,D42*%
X222392750Y-140807000D02*
X220392750Y-140807000D01*
X220392750Y-140807000D02*
X220392750Y-136907000D01*
X222392750Y-140807000D02*
X222392750Y-136907000D01*
%TO.C,D41*%
X217217750Y-188757000D02*
X219217750Y-188757000D01*
X219217750Y-188757000D02*
X219217750Y-192657000D01*
X217217750Y-188757000D02*
X217217750Y-192657000D01*
%TO.C,D40*%
X217630250Y-178907000D02*
X215630250Y-178907000D01*
X215630250Y-178907000D02*
X215630250Y-175007000D01*
X217630250Y-178907000D02*
X217630250Y-175007000D01*
%TO.C,D39*%
X212867750Y-121757000D02*
X210867750Y-121757000D01*
X210867750Y-121757000D02*
X210867750Y-117857000D01*
X212867750Y-121757000D02*
X212867750Y-117857000D01*
%TO.C,D38*%
X212867750Y-102707000D02*
X210867750Y-102707000D01*
X210867750Y-102707000D02*
X210867750Y-98807000D01*
X212867750Y-102707000D02*
X212867750Y-98807000D01*
%TO.C,D37*%
X208105250Y-159857000D02*
X206105250Y-159857000D01*
X206105250Y-159857000D02*
X206105250Y-155957000D01*
X208105250Y-159857000D02*
X208105250Y-155957000D01*
%TO.C,D36*%
X203342750Y-140807000D02*
X201342750Y-140807000D01*
X201342750Y-140807000D02*
X201342750Y-136907000D01*
X203342750Y-140807000D02*
X203342750Y-136907000D01*
%TO.C,D35*%
X198580250Y-178907000D02*
X196580250Y-178907000D01*
X196580250Y-178907000D02*
X196580250Y-175007000D01*
X198580250Y-178907000D02*
X198580250Y-175007000D01*
%TO.C,D34*%
X193817750Y-121757000D02*
X191817750Y-121757000D01*
X191817750Y-121757000D02*
X191817750Y-117857000D01*
X193817750Y-121757000D02*
X193817750Y-117857000D01*
%TO.C,D33*%
X193817750Y-102707000D02*
X191817750Y-102707000D01*
X191817750Y-102707000D02*
X191817750Y-98807000D01*
X193817750Y-102707000D02*
X193817750Y-98807000D01*
%TO.C,D32*%
X189055250Y-159857000D02*
X187055250Y-159857000D01*
X187055250Y-159857000D02*
X187055250Y-155957000D01*
X189055250Y-159857000D02*
X189055250Y-155957000D01*
%TO.C,D31*%
X184292750Y-140807000D02*
X182292750Y-140807000D01*
X182292750Y-140807000D02*
X182292750Y-136907000D01*
X184292750Y-140807000D02*
X184292750Y-136907000D01*
%TO.C,D30*%
X179530250Y-178907000D02*
X177530250Y-178907000D01*
X177530250Y-178907000D02*
X177530250Y-175007000D01*
X179530250Y-178907000D02*
X179530250Y-175007000D01*
%TO.C,D29*%
X174767750Y-121757000D02*
X172767750Y-121757000D01*
X172767750Y-121757000D02*
X172767750Y-117857000D01*
X174767750Y-121757000D02*
X174767750Y-117857000D01*
%TO.C,D28*%
X174767750Y-102707000D02*
X172767750Y-102707000D01*
X172767750Y-102707000D02*
X172767750Y-98807000D01*
X174767750Y-102707000D02*
X174767750Y-98807000D01*
%TO.C,D27*%
X170005250Y-159857000D02*
X168005250Y-159857000D01*
X168005250Y-159857000D02*
X168005250Y-155957000D01*
X170005250Y-159857000D02*
X170005250Y-155957000D01*
%TO.C,D26*%
X165242750Y-140807000D02*
X163242750Y-140807000D01*
X163242750Y-140807000D02*
X163242750Y-136907000D01*
X165242750Y-140807000D02*
X165242750Y-136907000D01*
%TO.C,D25*%
X160480250Y-178907000D02*
X158480250Y-178907000D01*
X158480250Y-178907000D02*
X158480250Y-175007000D01*
X160480250Y-178907000D02*
X160480250Y-175007000D01*
%TO.C,D24*%
X155717750Y-121757000D02*
X153717750Y-121757000D01*
X153717750Y-121757000D02*
X153717750Y-117857000D01*
X155717750Y-121757000D02*
X155717750Y-117857000D01*
%TO.C,D23*%
X155717750Y-102707000D02*
X153717750Y-102707000D01*
X153717750Y-102707000D02*
X153717750Y-98807000D01*
X155717750Y-102707000D02*
X155717750Y-98807000D01*
%TO.C,D22*%
X150955250Y-159857000D02*
X148955250Y-159857000D01*
X148955250Y-159857000D02*
X148955250Y-155957000D01*
X150955250Y-159857000D02*
X150955250Y-155957000D01*
%TO.C,D21*%
X146192750Y-140807000D02*
X144192750Y-140807000D01*
X144192750Y-140807000D02*
X144192750Y-136907000D01*
X146192750Y-140807000D02*
X146192750Y-136907000D01*
%TO.C,D20*%
X149114000Y-189647000D02*
X151114000Y-189647000D01*
X151114000Y-189647000D02*
X151114000Y-193547000D01*
X149114000Y-189647000D02*
X149114000Y-193547000D01*
%TO.C,D19*%
X141430250Y-178907000D02*
X139430250Y-178907000D01*
X139430250Y-178907000D02*
X139430250Y-175007000D01*
X141430250Y-178907000D02*
X141430250Y-175007000D01*
%TO.C,D18*%
X136667750Y-121757000D02*
X134667750Y-121757000D01*
X134667750Y-121757000D02*
X134667750Y-117857000D01*
X136667750Y-121757000D02*
X136667750Y-117857000D01*
%TO.C,D17*%
X136667750Y-102707000D02*
X134667750Y-102707000D01*
X134667750Y-102707000D02*
X134667750Y-98807000D01*
X136667750Y-102707000D02*
X136667750Y-98807000D01*
%TO.C,D16*%
X131905250Y-159857000D02*
X129905250Y-159857000D01*
X129905250Y-159857000D02*
X129905250Y-155957000D01*
X131905250Y-159857000D02*
X131905250Y-155957000D01*
%TO.C,D15*%
X127142750Y-140807000D02*
X125142750Y-140807000D01*
X125142750Y-140807000D02*
X125142750Y-136907000D01*
X127142750Y-140807000D02*
X127142750Y-136907000D01*
%TO.C,D14*%
X132044000Y-190262000D02*
X132044000Y-192262000D01*
X132044000Y-192262000D02*
X128144000Y-192262000D01*
X132044000Y-190262000D02*
X128144000Y-190262000D01*
%TO.C,D13*%
X117617750Y-121757000D02*
X115617750Y-121757000D01*
X115617750Y-121757000D02*
X115617750Y-117857000D01*
X117617750Y-121757000D02*
X117617750Y-117857000D01*
%TO.C,D12*%
X117617750Y-102707000D02*
X115617750Y-102707000D01*
X115617750Y-102707000D02*
X115617750Y-98807000D01*
X117617750Y-102707000D02*
X117617750Y-98807000D01*
%TO.C,D11*%
X102124000Y-189392000D02*
X104124000Y-189392000D01*
X104124000Y-189392000D02*
X104124000Y-193292000D01*
X102124000Y-189392000D02*
X102124000Y-193292000D01*
%TO.C,D10*%
X110474000Y-178907000D02*
X108474000Y-178907000D01*
X108474000Y-178907000D02*
X108474000Y-175007000D01*
X110474000Y-178907000D02*
X110474000Y-175007000D01*
%TO.C,D9*%
X105711500Y-159857000D02*
X103711500Y-159857000D01*
X103711500Y-159857000D02*
X103711500Y-155957000D01*
X105711500Y-159857000D02*
X105711500Y-155957000D01*
%TO.C,D8*%
X103330250Y-140807000D02*
X101330250Y-140807000D01*
X101330250Y-140807000D02*
X101330250Y-136907000D01*
X103330250Y-140807000D02*
X103330250Y-136907000D01*
%TO.C,D7*%
X98567750Y-121757000D02*
X96567750Y-121757000D01*
X96567750Y-121757000D02*
X96567750Y-117857000D01*
X98567750Y-121757000D02*
X98567750Y-117857000D01*
%TO.C,D6*%
X98567750Y-102707000D02*
X96567750Y-102707000D01*
X96567750Y-102707000D02*
X96567750Y-98807000D01*
X98567750Y-102707000D02*
X98567750Y-98807000D01*
%TO.C,D5*%
X77359000Y-190157000D02*
X79359000Y-190157000D01*
X79359000Y-190157000D02*
X79359000Y-194057000D01*
X77359000Y-190157000D02*
X77359000Y-194057000D01*
%TO.C,D4*%
X79517750Y-178907000D02*
X77517750Y-178907000D01*
X77517750Y-178907000D02*
X77517750Y-175007000D01*
X79517750Y-178907000D02*
X79517750Y-175007000D01*
%TO.C,D3*%
X79517750Y-159857000D02*
X77517750Y-159857000D01*
X77517750Y-159857000D02*
X77517750Y-155957000D01*
X79517750Y-159857000D02*
X79517750Y-155957000D01*
%TO.C,D2*%
X79517750Y-140807000D02*
X77517750Y-140807000D01*
X77517750Y-140807000D02*
X77517750Y-136907000D01*
X79517750Y-140807000D02*
X79517750Y-136907000D01*
%TO.C,D1*%
X79517750Y-121757000D02*
X77517750Y-121757000D01*
X77517750Y-121757000D02*
X77517750Y-117857000D01*
X79517750Y-121757000D02*
X79517750Y-117857000D01*
%TO.C,CF3*%
X264943998Y-184653250D02*
X265466502Y-184653250D01*
X264943998Y-186123250D02*
X265466502Y-186123250D01*
%TO.C,C_X1*%
X256267161Y-192654392D02*
X255897694Y-193023859D01*
X257306608Y-193693839D02*
X256937141Y-194063306D01*
%TO.C,C_ucap1*%
X258166502Y-181360750D02*
X257643998Y-181360750D01*
X258166502Y-179890750D02*
X257643998Y-179890750D01*
%TO.C,C_F4*%
X232764000Y-184650748D02*
X232764000Y-185173252D01*
X231294000Y-184650748D02*
X231294000Y-185173252D01*
%TO.C,C_F2*%
X227071250Y-197748752D02*
X227071250Y-197226248D01*
X228541250Y-197748752D02*
X228541250Y-197226248D01*
%TO.C,C_F1*%
X237372752Y-181360750D02*
X236850248Y-181360750D01*
X237372752Y-179890750D02*
X236850248Y-179890750D01*
%TO.C,J2*%
D11*
X376783333Y-98717380D02*
X376783333Y-99431666D01*
X376830952Y-99574523D01*
X376926190Y-99669761D01*
X377069047Y-99717380D01*
X377164285Y-99717380D01*
X376354761Y-98812619D02*
X376307142Y-98765000D01*
X376211904Y-98717380D01*
X375973809Y-98717380D01*
X375878571Y-98765000D01*
X375830952Y-98812619D01*
X375783333Y-98907857D01*
X375783333Y-99003095D01*
X375830952Y-99145952D01*
X376402380Y-99717380D01*
X375783333Y-99717380D01*
%TO.C,C_F3*%
X234275190Y-175363142D02*
X234322809Y-175410761D01*
X234465666Y-175458380D01*
X234560904Y-175458380D01*
X234703761Y-175410761D01*
X234799000Y-175315523D01*
X234846619Y-175220285D01*
X234894238Y-175029809D01*
X234894238Y-174886952D01*
X234846619Y-174696476D01*
X234799000Y-174601238D01*
X234703761Y-174506000D01*
X234560904Y-174458380D01*
X234465666Y-174458380D01*
X234322809Y-174506000D01*
X234275190Y-174553619D01*
X234084714Y-175553619D02*
X233322809Y-175553619D01*
X232751380Y-174934571D02*
X233084714Y-174934571D01*
X233084714Y-175458380D02*
X233084714Y-174458380D01*
X232608523Y-174458380D01*
X232322809Y-174458380D02*
X231703761Y-174458380D01*
X232037095Y-174839333D01*
X231894238Y-174839333D01*
X231799000Y-174886952D01*
X231751380Y-174934571D01*
X231703761Y-175029809D01*
X231703761Y-175267904D01*
X231751380Y-175363142D01*
X231799000Y-175410761D01*
X231894238Y-175458380D01*
X232179952Y-175458380D01*
X232275190Y-175410761D01*
X232322809Y-175363142D01*
%TO.C,C_X2*%
X257702694Y-188750492D02*
X257702694Y-188817836D01*
X257770038Y-188952523D01*
X257837381Y-189019866D01*
X257972068Y-189087210D01*
X258106755Y-189087210D01*
X258207770Y-189053538D01*
X258376129Y-188952523D01*
X258477144Y-188851508D01*
X258578160Y-188683149D01*
X258611831Y-188582134D01*
X258611831Y-188447447D01*
X258544488Y-188312760D01*
X258477144Y-188245416D01*
X258342457Y-188178073D01*
X258275114Y-188178073D01*
X257433320Y-188750492D02*
X256894572Y-188211744D01*
X257568007Y-187336279D02*
X256389496Y-187571981D01*
X257096602Y-186864874D02*
X256860900Y-188043386D01*
X256793557Y-186696515D02*
X256793557Y-186629172D01*
X256759885Y-186528157D01*
X256591526Y-186359798D01*
X256490511Y-186326126D01*
X256423167Y-186326126D01*
X256322152Y-186359798D01*
X256254809Y-186427141D01*
X256187465Y-186561828D01*
X256187465Y-187369950D01*
X255749732Y-186932218D01*
%TO.C,U2*%
X373391380Y-103165495D02*
X374200904Y-103165495D01*
X374296142Y-103213114D01*
X374343761Y-103260733D01*
X374391380Y-103355971D01*
X374391380Y-103546447D01*
X374343761Y-103641685D01*
X374296142Y-103689304D01*
X374200904Y-103736923D01*
X373391380Y-103736923D01*
X373486619Y-104165495D02*
X373439000Y-104213114D01*
X373391380Y-104308352D01*
X373391380Y-104546447D01*
X373439000Y-104641685D01*
X373486619Y-104689304D01*
X373581857Y-104736923D01*
X373677095Y-104736923D01*
X373819952Y-104689304D01*
X374391380Y-104117876D01*
X374391380Y-104736923D01*
%TO.C,U1*%
X232832380Y-190938095D02*
X233641904Y-190938095D01*
X233737142Y-190985714D01*
X233784761Y-191033333D01*
X233832380Y-191128571D01*
X233832380Y-191319047D01*
X233784761Y-191414285D01*
X233737142Y-191461904D01*
X233641904Y-191509523D01*
X232832380Y-191509523D01*
X233832380Y-192509523D02*
X233832380Y-191938095D01*
X233832380Y-192223809D02*
X232832380Y-192223809D01*
X232975238Y-192128571D01*
X233070476Y-192033333D01*
X233118095Y-191938095D01*
%TO.C,J1*%
X357730228Y-101036380D02*
X357730228Y-100036380D01*
X357396895Y-100750666D01*
X357063561Y-100036380D01*
X357063561Y-101036380D01*
X356587371Y-101036380D02*
X356587371Y-100036380D01*
X356158800Y-100988761D02*
X356015942Y-101036380D01*
X355777847Y-101036380D01*
X355682609Y-100988761D01*
X355634990Y-100941142D01*
X355587371Y-100845904D01*
X355587371Y-100750666D01*
X355634990Y-100655428D01*
X355682609Y-100607809D01*
X355777847Y-100560190D01*
X355968323Y-100512571D01*
X356063561Y-100464952D01*
X356111180Y-100417333D01*
X356158800Y-100322095D01*
X356158800Y-100226857D01*
X356111180Y-100131619D01*
X356063561Y-100084000D01*
X355968323Y-100036380D01*
X355730228Y-100036380D01*
X355587371Y-100084000D01*
X354968323Y-100036380D02*
X354777847Y-100036380D01*
X354682609Y-100084000D01*
X354587371Y-100179238D01*
X354539752Y-100369714D01*
X354539752Y-100703047D01*
X354587371Y-100893523D01*
X354682609Y-100988761D01*
X354777847Y-101036380D01*
X354968323Y-101036380D01*
X355063561Y-100988761D01*
X355158800Y-100893523D01*
X355206419Y-100703047D01*
X355206419Y-100369714D01*
X355158800Y-100179238D01*
X355063561Y-100084000D01*
X354968323Y-100036380D01*
X362520833Y-98154880D02*
X362187500Y-99154880D01*
X361854166Y-98154880D01*
X360949404Y-99059642D02*
X360997023Y-99107261D01*
X361139880Y-99154880D01*
X361235119Y-99154880D01*
X361377976Y-99107261D01*
X361473214Y-99012023D01*
X361520833Y-98916785D01*
X361568452Y-98726309D01*
X361568452Y-98583452D01*
X361520833Y-98392976D01*
X361473214Y-98297738D01*
X361377976Y-98202500D01*
X361235119Y-98154880D01*
X361139880Y-98154880D01*
X360997023Y-98202500D01*
X360949404Y-98250119D01*
X359949404Y-99059642D02*
X359997023Y-99107261D01*
X360139880Y-99154880D01*
X360235119Y-99154880D01*
X360377976Y-99107261D01*
X360473214Y-99012023D01*
X360520833Y-98916785D01*
X360568452Y-98726309D01*
X360568452Y-98583452D01*
X360520833Y-98392976D01*
X360473214Y-98297738D01*
X360377976Y-98202500D01*
X360235119Y-98154880D01*
X360139880Y-98154880D01*
X359997023Y-98202500D01*
X359949404Y-98250119D01*
X354531561Y-95285085D02*
X354579180Y-95427942D01*
X354579180Y-95666038D01*
X354531561Y-95761276D01*
X354483942Y-95808895D01*
X354388704Y-95856514D01*
X354293466Y-95856514D01*
X354198228Y-95808895D01*
X354150609Y-95761276D01*
X354102990Y-95666038D01*
X354055371Y-95475561D01*
X354007752Y-95380323D01*
X353960133Y-95332704D01*
X353864895Y-95285085D01*
X353769657Y-95285085D01*
X353674419Y-95332704D01*
X353626800Y-95380323D01*
X353579180Y-95475561D01*
X353579180Y-95713657D01*
X353626800Y-95856514D01*
X354483942Y-96856514D02*
X354531561Y-96808895D01*
X354579180Y-96666038D01*
X354579180Y-96570800D01*
X354531561Y-96427942D01*
X354436323Y-96332704D01*
X354341085Y-96285085D01*
X354150609Y-96237466D01*
X354007752Y-96237466D01*
X353817276Y-96285085D01*
X353722038Y-96332704D01*
X353626800Y-96427942D01*
X353579180Y-96570800D01*
X353579180Y-96666038D01*
X353626800Y-96808895D01*
X353674419Y-96856514D01*
X354579180Y-97285085D02*
X353579180Y-97285085D01*
X354579180Y-97856514D02*
X354007752Y-97427942D01*
X353579180Y-97856514D02*
X354150609Y-97285085D01*
X363008928Y-96654880D02*
X363008928Y-95654880D01*
X362675595Y-96369166D01*
X362342261Y-95654880D01*
X362342261Y-96654880D01*
X361675595Y-95654880D02*
X361485119Y-95654880D01*
X361389880Y-95702500D01*
X361294642Y-95797738D01*
X361247023Y-95988214D01*
X361247023Y-96321547D01*
X361294642Y-96512023D01*
X361389880Y-96607261D01*
X361485119Y-96654880D01*
X361675595Y-96654880D01*
X361770833Y-96607261D01*
X361866071Y-96512023D01*
X361913690Y-96321547D01*
X361913690Y-95988214D01*
X361866071Y-95797738D01*
X361770833Y-95702500D01*
X361675595Y-95654880D01*
X360866071Y-96607261D02*
X360723214Y-96654880D01*
X360485119Y-96654880D01*
X360389880Y-96607261D01*
X360342261Y-96559642D01*
X360294642Y-96464404D01*
X360294642Y-96369166D01*
X360342261Y-96273928D01*
X360389880Y-96226309D01*
X360485119Y-96178690D01*
X360675595Y-96131071D01*
X360770833Y-96083452D01*
X360818452Y-96035833D01*
X360866071Y-95940595D01*
X360866071Y-95845357D01*
X360818452Y-95750119D01*
X360770833Y-95702500D01*
X360675595Y-95654880D01*
X360437500Y-95654880D01*
X360294642Y-95702500D01*
X359866071Y-96654880D02*
X359866071Y-95654880D01*
X353485119Y-94154880D02*
X353818452Y-93678690D01*
X354056547Y-94154880D02*
X354056547Y-93154880D01*
X353675595Y-93154880D01*
X353580357Y-93202500D01*
X353532738Y-93250119D01*
X353485119Y-93345357D01*
X353485119Y-93488214D01*
X353532738Y-93583452D01*
X353580357Y-93631071D01*
X353675595Y-93678690D01*
X354056547Y-93678690D01*
X353104166Y-94107261D02*
X352961309Y-94154880D01*
X352723214Y-94154880D01*
X352627976Y-94107261D01*
X352580357Y-94059642D01*
X352532738Y-93964404D01*
X352532738Y-93869166D01*
X352580357Y-93773928D01*
X352627976Y-93726309D01*
X352723214Y-93678690D01*
X352913690Y-93631071D01*
X353008928Y-93583452D01*
X353056547Y-93535833D01*
X353104166Y-93440595D01*
X353104166Y-93345357D01*
X353056547Y-93250119D01*
X353008928Y-93202500D01*
X352913690Y-93154880D01*
X352675595Y-93154880D01*
X352532738Y-93202500D01*
X352247023Y-93154880D02*
X351675595Y-93154880D01*
X351961309Y-94154880D02*
X351961309Y-93154880D01*
X359359104Y-91168600D02*
X359454342Y-91120980D01*
X359597200Y-91120980D01*
X359740057Y-91168600D01*
X359835295Y-91263838D01*
X359882914Y-91359076D01*
X359930533Y-91549552D01*
X359930533Y-91692409D01*
X359882914Y-91882885D01*
X359835295Y-91978123D01*
X359740057Y-92073361D01*
X359597200Y-92120980D01*
X359501961Y-92120980D01*
X359359104Y-92073361D01*
X359311485Y-92025742D01*
X359311485Y-91692409D01*
X359501961Y-91692409D01*
X358882914Y-92120980D02*
X358882914Y-91120980D01*
X358311485Y-92120980D01*
X358311485Y-91120980D01*
X357835295Y-92120980D02*
X357835295Y-91120980D01*
X357597200Y-91120980D01*
X357454342Y-91168600D01*
X357359104Y-91263838D01*
X357311485Y-91359076D01*
X357263866Y-91549552D01*
X357263866Y-91692409D01*
X357311485Y-91882885D01*
X357359104Y-91978123D01*
X357454342Y-92073361D01*
X357597200Y-92120980D01*
X357835295Y-92120980D01*
%TO.C,R2*%
X301728166Y-183396880D02*
X302061500Y-182920690D01*
X302299595Y-183396880D02*
X302299595Y-182396880D01*
X301918642Y-182396880D01*
X301823404Y-182444500D01*
X301775785Y-182492119D01*
X301728166Y-182587357D01*
X301728166Y-182730214D01*
X301775785Y-182825452D01*
X301823404Y-182873071D01*
X301918642Y-182920690D01*
X302299595Y-182920690D01*
X301347214Y-182492119D02*
X301299595Y-182444500D01*
X301204357Y-182396880D01*
X300966261Y-182396880D01*
X300871023Y-182444500D01*
X300823404Y-182492119D01*
X300775785Y-182587357D01*
X300775785Y-182682595D01*
X300823404Y-182825452D01*
X301394833Y-183396880D01*
X300775785Y-183396880D01*
%TO.C,C_FM1*%
X234592619Y-179249342D02*
X234640238Y-179296961D01*
X234783095Y-179344580D01*
X234878333Y-179344580D01*
X235021190Y-179296961D01*
X235116428Y-179201723D01*
X235164047Y-179106485D01*
X235211666Y-178916009D01*
X235211666Y-178773152D01*
X235164047Y-178582676D01*
X235116428Y-178487438D01*
X235021190Y-178392200D01*
X234878333Y-178344580D01*
X234783095Y-178344580D01*
X234640238Y-178392200D01*
X234592619Y-178439819D01*
X234402142Y-179439819D02*
X233640238Y-179439819D01*
X233068809Y-178820771D02*
X233402142Y-178820771D01*
X233402142Y-179344580D02*
X233402142Y-178344580D01*
X232925952Y-178344580D01*
X232545000Y-179344580D02*
X232545000Y-178344580D01*
X232211666Y-179058866D01*
X231878333Y-178344580D01*
X231878333Y-179344580D01*
X230878333Y-179344580D02*
X231449761Y-179344580D01*
X231164047Y-179344580D02*
X231164047Y-178344580D01*
X231259285Y-178487438D01*
X231354523Y-178582676D01*
X231449761Y-178630295D01*
%TO.C,Y1*%
X258493754Y-191531081D02*
X258157036Y-191867799D01*
X259099845Y-191396394D02*
X258493754Y-191531081D01*
X258628441Y-190924990D01*
X257315243Y-191026005D02*
X257719304Y-191430066D01*
X257517273Y-191228035D02*
X258224380Y-190520929D01*
X258190708Y-190689287D01*
X258190708Y-190823974D01*
X258224380Y-190924990D01*
%TO.C,SW1*%
X321869833Y-180404011D02*
X321726976Y-180451630D01*
X321488880Y-180451630D01*
X321393642Y-180404011D01*
X321346023Y-180356392D01*
X321298404Y-180261154D01*
X321298404Y-180165916D01*
X321346023Y-180070678D01*
X321393642Y-180023059D01*
X321488880Y-179975440D01*
X321679357Y-179927821D01*
X321774595Y-179880202D01*
X321822214Y-179832583D01*
X321869833Y-179737345D01*
X321869833Y-179642107D01*
X321822214Y-179546869D01*
X321774595Y-179499250D01*
X321679357Y-179451630D01*
X321441261Y-179451630D01*
X321298404Y-179499250D01*
X320965071Y-179451630D02*
X320726976Y-180451630D01*
X320536500Y-179737345D01*
X320346023Y-180451630D01*
X320107928Y-179451630D01*
X319203166Y-180451630D02*
X319774595Y-180451630D01*
X319488880Y-180451630D02*
X319488880Y-179451630D01*
X319584119Y-179594488D01*
X319679357Y-179689726D01*
X319774595Y-179737345D01*
%TO.C,R_u2*%
X382711200Y-107208580D02*
X383044533Y-106732390D01*
X383282628Y-107208580D02*
X383282628Y-106208580D01*
X382901676Y-106208580D01*
X382806438Y-106256200D01*
X382758819Y-106303819D01*
X382711200Y-106399057D01*
X382711200Y-106541914D01*
X382758819Y-106637152D01*
X382806438Y-106684771D01*
X382901676Y-106732390D01*
X383282628Y-106732390D01*
X382520723Y-107303819D02*
X381758819Y-107303819D01*
X381092152Y-106541914D02*
X381092152Y-107208580D01*
X381520723Y-106541914D02*
X381520723Y-107065723D01*
X381473104Y-107160961D01*
X381377866Y-107208580D01*
X381235009Y-107208580D01*
X381139771Y-107160961D01*
X381092152Y-107113342D01*
X380663580Y-106303819D02*
X380615961Y-106256200D01*
X380520723Y-106208580D01*
X380282628Y-106208580D01*
X380187390Y-106256200D01*
X380139771Y-106303819D01*
X380092152Y-106399057D01*
X380092152Y-106494295D01*
X380139771Y-106637152D01*
X380711200Y-107208580D01*
X380092152Y-107208580D01*
%TO.C,R_u1*%
X368690400Y-103347780D02*
X369023733Y-102871590D01*
X369261828Y-103347780D02*
X369261828Y-102347780D01*
X368880876Y-102347780D01*
X368785638Y-102395400D01*
X368738019Y-102443019D01*
X368690400Y-102538257D01*
X368690400Y-102681114D01*
X368738019Y-102776352D01*
X368785638Y-102823971D01*
X368880876Y-102871590D01*
X369261828Y-102871590D01*
X368499923Y-103443019D02*
X367738019Y-103443019D01*
X367071352Y-102681114D02*
X367071352Y-103347780D01*
X367499923Y-102681114D02*
X367499923Y-103204923D01*
X367452304Y-103300161D01*
X367357066Y-103347780D01*
X367214209Y-103347780D01*
X367118971Y-103300161D01*
X367071352Y-103252542D01*
X366071352Y-103347780D02*
X366642780Y-103347780D01*
X366357066Y-103347780D02*
X366357066Y-102347780D01*
X366452304Y-102490638D01*
X366547542Y-102585876D01*
X366642780Y-102633495D01*
%TO.C,R_SW2*%
X273970238Y-201333630D02*
X274303571Y-200857440D01*
X274541666Y-201333630D02*
X274541666Y-200333630D01*
X274160714Y-200333630D01*
X274065476Y-200381250D01*
X274017857Y-200428869D01*
X273970238Y-200524107D01*
X273970238Y-200666964D01*
X274017857Y-200762202D01*
X274065476Y-200809821D01*
X274160714Y-200857440D01*
X274541666Y-200857440D01*
X273779761Y-201428869D02*
X273017857Y-201428869D01*
X272827380Y-201286011D02*
X272684523Y-201333630D01*
X272446428Y-201333630D01*
X272351190Y-201286011D01*
X272303571Y-201238392D01*
X272255952Y-201143154D01*
X272255952Y-201047916D01*
X272303571Y-200952678D01*
X272351190Y-200905059D01*
X272446428Y-200857440D01*
X272636904Y-200809821D01*
X272732142Y-200762202D01*
X272779761Y-200714583D01*
X272827380Y-200619345D01*
X272827380Y-200524107D01*
X272779761Y-200428869D01*
X272732142Y-200381250D01*
X272636904Y-200333630D01*
X272398809Y-200333630D01*
X272255952Y-200381250D01*
X271922619Y-200333630D02*
X271684523Y-201333630D01*
X271494047Y-200619345D01*
X271303571Y-201333630D01*
X271065476Y-200333630D01*
X270732142Y-200428869D02*
X270684523Y-200381250D01*
X270589285Y-200333630D01*
X270351190Y-200333630D01*
X270255952Y-200381250D01*
X270208333Y-200428869D01*
X270160714Y-200524107D01*
X270160714Y-200619345D01*
X270208333Y-200762202D01*
X270779761Y-201333630D01*
X270160714Y-201333630D01*
%TO.C,R_SW1*%
X316782980Y-183801261D02*
X316306790Y-183467928D01*
X316782980Y-183229833D02*
X315782980Y-183229833D01*
X315782980Y-183610785D01*
X315830600Y-183706023D01*
X315878219Y-183753642D01*
X315973457Y-183801261D01*
X316116314Y-183801261D01*
X316211552Y-183753642D01*
X316259171Y-183706023D01*
X316306790Y-183610785D01*
X316306790Y-183229833D01*
X316878219Y-183991738D02*
X316878219Y-184753642D01*
X316735361Y-184944119D02*
X316782980Y-185086976D01*
X316782980Y-185325071D01*
X316735361Y-185420309D01*
X316687742Y-185467928D01*
X316592504Y-185515547D01*
X316497266Y-185515547D01*
X316402028Y-185467928D01*
X316354409Y-185420309D01*
X316306790Y-185325071D01*
X316259171Y-185134595D01*
X316211552Y-185039357D01*
X316163933Y-184991738D01*
X316068695Y-184944119D01*
X315973457Y-184944119D01*
X315878219Y-184991738D01*
X315830600Y-185039357D01*
X315782980Y-185134595D01*
X315782980Y-185372690D01*
X315830600Y-185515547D01*
X315782980Y-185848880D02*
X316782980Y-186086976D01*
X316068695Y-186277452D01*
X316782980Y-186467928D01*
X315782980Y-186706023D01*
X316782980Y-187610785D02*
X316782980Y-187039357D01*
X316782980Y-187325071D02*
X315782980Y-187325071D01*
X315925838Y-187229833D01*
X316021076Y-187134595D01*
X316068695Y-187039357D01*
%TO.C,R_d2*%
X374238780Y-102301800D02*
X373762590Y-101968466D01*
X374238780Y-101730371D02*
X373238780Y-101730371D01*
X373238780Y-102111323D01*
X373286400Y-102206561D01*
X373334019Y-102254180D01*
X373429257Y-102301800D01*
X373572114Y-102301800D01*
X373667352Y-102254180D01*
X373714971Y-102206561D01*
X373762590Y-102111323D01*
X373762590Y-101730371D01*
X374334019Y-102492276D02*
X374334019Y-103254180D01*
X374238780Y-103920847D02*
X373238780Y-103920847D01*
X374191161Y-103920847D02*
X374238780Y-103825609D01*
X374238780Y-103635133D01*
X374191161Y-103539895D01*
X374143542Y-103492276D01*
X374048304Y-103444657D01*
X373762590Y-103444657D01*
X373667352Y-103492276D01*
X373619733Y-103539895D01*
X373572114Y-103635133D01*
X373572114Y-103825609D01*
X373619733Y-103920847D01*
X373334019Y-104349419D02*
X373286400Y-104397038D01*
X373238780Y-104492276D01*
X373238780Y-104730371D01*
X373286400Y-104825609D01*
X373334019Y-104873228D01*
X373429257Y-104920847D01*
X373524495Y-104920847D01*
X373667352Y-104873228D01*
X374238780Y-104301800D01*
X374238780Y-104920847D01*
%TO.C,R_d1*%
X379863880Y-100250750D02*
X379387690Y-99917416D01*
X379863880Y-99679321D02*
X378863880Y-99679321D01*
X378863880Y-100060273D01*
X378911500Y-100155511D01*
X378959119Y-100203130D01*
X379054357Y-100250750D01*
X379197214Y-100250750D01*
X379292452Y-100203130D01*
X379340071Y-100155511D01*
X379387690Y-100060273D01*
X379387690Y-99679321D01*
X379959119Y-100441226D02*
X379959119Y-101203130D01*
X379863880Y-101869797D02*
X378863880Y-101869797D01*
X379816261Y-101869797D02*
X379863880Y-101774559D01*
X379863880Y-101584083D01*
X379816261Y-101488845D01*
X379768642Y-101441226D01*
X379673404Y-101393607D01*
X379387690Y-101393607D01*
X379292452Y-101441226D01*
X379244833Y-101488845D01*
X379197214Y-101584083D01*
X379197214Y-101774559D01*
X379244833Y-101869797D01*
X379863880Y-102869797D02*
X379863880Y-102298369D01*
X379863880Y-102584083D02*
X378863880Y-102584083D01*
X379006738Y-102488845D01*
X379101976Y-102393607D01*
X379149595Y-102298369D01*
%TO.C,R1*%
X378780966Y-108758980D02*
X379114300Y-108282790D01*
X379352395Y-108758980D02*
X379352395Y-107758980D01*
X378971442Y-107758980D01*
X378876204Y-107806600D01*
X378828585Y-107854219D01*
X378780966Y-107949457D01*
X378780966Y-108092314D01*
X378828585Y-108187552D01*
X378876204Y-108235171D01*
X378971442Y-108282790D01*
X379352395Y-108282790D01*
X377828585Y-108758980D02*
X378400014Y-108758980D01*
X378114300Y-108758980D02*
X378114300Y-107758980D01*
X378209538Y-107901838D01*
X378304776Y-107997076D01*
X378400014Y-108044695D01*
%TO.C,F1*%
X368709533Y-100385571D02*
X369042866Y-100385571D01*
X369042866Y-100909380D02*
X369042866Y-99909380D01*
X368566676Y-99909380D01*
X367661914Y-100909380D02*
X368233342Y-100909380D01*
X367947628Y-100909380D02*
X367947628Y-99909380D01*
X368042866Y-100052238D01*
X368138104Y-100147476D01*
X368233342Y-100195095D01*
%TO.C,D98*%
X81319535Y-183134380D02*
X81319535Y-182134380D01*
X81081440Y-182134380D01*
X80938583Y-182182000D01*
X80843345Y-182277238D01*
X80795726Y-182372476D01*
X80748107Y-182562952D01*
X80748107Y-182705809D01*
X80795726Y-182896285D01*
X80843345Y-182991523D01*
X80938583Y-183086761D01*
X81081440Y-183134380D01*
X81319535Y-183134380D01*
X80271916Y-183134380D02*
X80081440Y-183134380D01*
X79986202Y-183086761D01*
X79938583Y-183039142D01*
X79843345Y-182896285D01*
X79795726Y-182705809D01*
X79795726Y-182324857D01*
X79843345Y-182229619D01*
X79890964Y-182182000D01*
X79986202Y-182134380D01*
X80176678Y-182134380D01*
X80271916Y-182182000D01*
X80319535Y-182229619D01*
X80367154Y-182324857D01*
X80367154Y-182562952D01*
X80319535Y-182658190D01*
X80271916Y-182705809D01*
X80176678Y-182753428D01*
X79986202Y-182753428D01*
X79890964Y-182705809D01*
X79843345Y-182658190D01*
X79795726Y-182562952D01*
X79224297Y-182562952D02*
X79319535Y-182515333D01*
X79367154Y-182467714D01*
X79414773Y-182372476D01*
X79414773Y-182324857D01*
X79367154Y-182229619D01*
X79319535Y-182182000D01*
X79224297Y-182134380D01*
X79033821Y-182134380D01*
X78938583Y-182182000D01*
X78890964Y-182229619D01*
X78843345Y-182324857D01*
X78843345Y-182372476D01*
X78890964Y-182467714D01*
X78938583Y-182515333D01*
X79033821Y-182562952D01*
X79224297Y-182562952D01*
X79319535Y-182610571D01*
X79367154Y-182658190D01*
X79414773Y-182753428D01*
X79414773Y-182943904D01*
X79367154Y-183039142D01*
X79319535Y-183086761D01*
X79224297Y-183134380D01*
X79033821Y-183134380D01*
X78938583Y-183086761D01*
X78890964Y-183039142D01*
X78843345Y-182943904D01*
X78843345Y-182753428D01*
X78890964Y-182658190D01*
X78938583Y-182610571D01*
X79033821Y-182562952D01*
X83969535Y-185034380D02*
X84540964Y-185034380D01*
X84255250Y-185034380D02*
X84255250Y-184034380D01*
X84350488Y-184177238D01*
X84445726Y-184272476D01*
X84540964Y-184320095D01*
%TO.C,D97*%
X155228285Y-180924380D02*
X155228285Y-179924380D01*
X154990190Y-179924380D01*
X154847333Y-179972000D01*
X154752095Y-180067238D01*
X154704476Y-180162476D01*
X154656857Y-180352952D01*
X154656857Y-180495809D01*
X154704476Y-180686285D01*
X154752095Y-180781523D01*
X154847333Y-180876761D01*
X154990190Y-180924380D01*
X155228285Y-180924380D01*
X154180666Y-180924380D02*
X153990190Y-180924380D01*
X153894952Y-180876761D01*
X153847333Y-180829142D01*
X153752095Y-180686285D01*
X153704476Y-180495809D01*
X153704476Y-180114857D01*
X153752095Y-180019619D01*
X153799714Y-179972000D01*
X153894952Y-179924380D01*
X154085428Y-179924380D01*
X154180666Y-179972000D01*
X154228285Y-180019619D01*
X154275904Y-180114857D01*
X154275904Y-180352952D01*
X154228285Y-180448190D01*
X154180666Y-180495809D01*
X154085428Y-180543428D01*
X153894952Y-180543428D01*
X153799714Y-180495809D01*
X153752095Y-180448190D01*
X153704476Y-180352952D01*
X153371142Y-179924380D02*
X152704476Y-179924380D01*
X153133047Y-180924380D01*
X157878285Y-182824380D02*
X158449714Y-182824380D01*
X158164000Y-182824380D02*
X158164000Y-181824380D01*
X158259238Y-181967238D01*
X158354476Y-182062476D01*
X158449714Y-182110095D01*
%TO.C,D96*%
X212288285Y-181546880D02*
X212288285Y-180546880D01*
X212050190Y-180546880D01*
X211907333Y-180594500D01*
X211812095Y-180689738D01*
X211764476Y-180784976D01*
X211716857Y-180975452D01*
X211716857Y-181118309D01*
X211764476Y-181308785D01*
X211812095Y-181404023D01*
X211907333Y-181499261D01*
X212050190Y-181546880D01*
X212288285Y-181546880D01*
X211240666Y-181546880D02*
X211050190Y-181546880D01*
X210954952Y-181499261D01*
X210907333Y-181451642D01*
X210812095Y-181308785D01*
X210764476Y-181118309D01*
X210764476Y-180737357D01*
X210812095Y-180642119D01*
X210859714Y-180594500D01*
X210954952Y-180546880D01*
X211145428Y-180546880D01*
X211240666Y-180594500D01*
X211288285Y-180642119D01*
X211335904Y-180737357D01*
X211335904Y-180975452D01*
X211288285Y-181070690D01*
X211240666Y-181118309D01*
X211145428Y-181165928D01*
X210954952Y-181165928D01*
X210859714Y-181118309D01*
X210812095Y-181070690D01*
X210764476Y-180975452D01*
X209907333Y-180546880D02*
X210097809Y-180546880D01*
X210193047Y-180594500D01*
X210240666Y-180642119D01*
X210335904Y-180784976D01*
X210383523Y-180975452D01*
X210383523Y-181356404D01*
X210335904Y-181451642D01*
X210288285Y-181499261D01*
X210193047Y-181546880D01*
X210002571Y-181546880D01*
X209907333Y-181499261D01*
X209859714Y-181451642D01*
X209812095Y-181356404D01*
X209812095Y-181118309D01*
X209859714Y-181023071D01*
X209907333Y-180975452D01*
X210002571Y-180927833D01*
X210193047Y-180927833D01*
X210288285Y-180975452D01*
X210335904Y-181023071D01*
X210383523Y-181118309D01*
X214938285Y-183446880D02*
X215509714Y-183446880D01*
X215224000Y-183446880D02*
X215224000Y-182446880D01*
X215319238Y-182589738D01*
X215414476Y-182684976D01*
X215509714Y-182732595D01*
%TO.C,D95*%
X309919535Y-183134380D02*
X309919535Y-182134380D01*
X309681440Y-182134380D01*
X309538583Y-182182000D01*
X309443345Y-182277238D01*
X309395726Y-182372476D01*
X309348107Y-182562952D01*
X309348107Y-182705809D01*
X309395726Y-182896285D01*
X309443345Y-182991523D01*
X309538583Y-183086761D01*
X309681440Y-183134380D01*
X309919535Y-183134380D01*
X308871916Y-183134380D02*
X308681440Y-183134380D01*
X308586202Y-183086761D01*
X308538583Y-183039142D01*
X308443345Y-182896285D01*
X308395726Y-182705809D01*
X308395726Y-182324857D01*
X308443345Y-182229619D01*
X308490964Y-182182000D01*
X308586202Y-182134380D01*
X308776678Y-182134380D01*
X308871916Y-182182000D01*
X308919535Y-182229619D01*
X308967154Y-182324857D01*
X308967154Y-182562952D01*
X308919535Y-182658190D01*
X308871916Y-182705809D01*
X308776678Y-182753428D01*
X308586202Y-182753428D01*
X308490964Y-182705809D01*
X308443345Y-182658190D01*
X308395726Y-182562952D01*
X307490964Y-182134380D02*
X307967154Y-182134380D01*
X308014773Y-182610571D01*
X307967154Y-182562952D01*
X307871916Y-182515333D01*
X307633821Y-182515333D01*
X307538583Y-182562952D01*
X307490964Y-182610571D01*
X307443345Y-182705809D01*
X307443345Y-182943904D01*
X307490964Y-183039142D01*
X307538583Y-183086761D01*
X307633821Y-183134380D01*
X307871916Y-183134380D01*
X307967154Y-183086761D01*
X308014773Y-183039142D01*
X312362885Y-182798980D02*
X312934314Y-182798980D01*
X312648600Y-182798980D02*
X312648600Y-181798980D01*
X312743838Y-181941838D01*
X312839076Y-182037076D01*
X312934314Y-182084695D01*
%TO.C,D94*%
X362807630Y-184967714D02*
X361807630Y-184967714D01*
X361807630Y-185205809D01*
X361855250Y-185348666D01*
X361950488Y-185443904D01*
X362045726Y-185491523D01*
X362236202Y-185539142D01*
X362379059Y-185539142D01*
X362569535Y-185491523D01*
X362664773Y-185443904D01*
X362760011Y-185348666D01*
X362807630Y-185205809D01*
X362807630Y-184967714D01*
X362807630Y-186015333D02*
X362807630Y-186205809D01*
X362760011Y-186301047D01*
X362712392Y-186348666D01*
X362569535Y-186443904D01*
X362379059Y-186491523D01*
X361998107Y-186491523D01*
X361902869Y-186443904D01*
X361855250Y-186396285D01*
X361807630Y-186301047D01*
X361807630Y-186110571D01*
X361855250Y-186015333D01*
X361902869Y-185967714D01*
X361998107Y-185920095D01*
X362236202Y-185920095D01*
X362331440Y-185967714D01*
X362379059Y-186015333D01*
X362426678Y-186110571D01*
X362426678Y-186301047D01*
X362379059Y-186396285D01*
X362331440Y-186443904D01*
X362236202Y-186491523D01*
X362140964Y-187348666D02*
X362807630Y-187348666D01*
X361760011Y-187110571D02*
X362474297Y-186872476D01*
X362474297Y-187491523D01*
X364707630Y-182317714D02*
X364707630Y-181746285D01*
X364707630Y-182032000D02*
X363707630Y-182032000D01*
X363850488Y-181936761D01*
X363945726Y-181841523D01*
X363993345Y-181746285D01*
%TO.C,D93*%
X365868285Y-105994380D02*
X365868285Y-104994380D01*
X365630190Y-104994380D01*
X365487333Y-105042000D01*
X365392095Y-105137238D01*
X365344476Y-105232476D01*
X365296857Y-105422952D01*
X365296857Y-105565809D01*
X365344476Y-105756285D01*
X365392095Y-105851523D01*
X365487333Y-105946761D01*
X365630190Y-105994380D01*
X365868285Y-105994380D01*
X364820666Y-105994380D02*
X364630190Y-105994380D01*
X364534952Y-105946761D01*
X364487333Y-105899142D01*
X364392095Y-105756285D01*
X364344476Y-105565809D01*
X364344476Y-105184857D01*
X364392095Y-105089619D01*
X364439714Y-105042000D01*
X364534952Y-104994380D01*
X364725428Y-104994380D01*
X364820666Y-105042000D01*
X364868285Y-105089619D01*
X364915904Y-105184857D01*
X364915904Y-105422952D01*
X364868285Y-105518190D01*
X364820666Y-105565809D01*
X364725428Y-105613428D01*
X364534952Y-105613428D01*
X364439714Y-105565809D01*
X364392095Y-105518190D01*
X364344476Y-105422952D01*
X364011142Y-104994380D02*
X363392095Y-104994380D01*
X363725428Y-105375333D01*
X363582571Y-105375333D01*
X363487333Y-105422952D01*
X363439714Y-105470571D01*
X363392095Y-105565809D01*
X363392095Y-105803904D01*
X363439714Y-105899142D01*
X363487333Y-105946761D01*
X363582571Y-105994380D01*
X363868285Y-105994380D01*
X363963523Y-105946761D01*
X364011142Y-105899142D01*
X368518285Y-107894380D02*
X369089714Y-107894380D01*
X368804000Y-107894380D02*
X368804000Y-106894380D01*
X368899238Y-107037238D01*
X368994476Y-107132476D01*
X369089714Y-107180095D01*
%TO.C,D92*%
X309919535Y-113934380D02*
X309919535Y-112934380D01*
X309681440Y-112934380D01*
X309538583Y-112982000D01*
X309443345Y-113077238D01*
X309395726Y-113172476D01*
X309348107Y-113362952D01*
X309348107Y-113505809D01*
X309395726Y-113696285D01*
X309443345Y-113791523D01*
X309538583Y-113886761D01*
X309681440Y-113934380D01*
X309919535Y-113934380D01*
X308871916Y-113934380D02*
X308681440Y-113934380D01*
X308586202Y-113886761D01*
X308538583Y-113839142D01*
X308443345Y-113696285D01*
X308395726Y-113505809D01*
X308395726Y-113124857D01*
X308443345Y-113029619D01*
X308490964Y-112982000D01*
X308586202Y-112934380D01*
X308776678Y-112934380D01*
X308871916Y-112982000D01*
X308919535Y-113029619D01*
X308967154Y-113124857D01*
X308967154Y-113362952D01*
X308919535Y-113458190D01*
X308871916Y-113505809D01*
X308776678Y-113553428D01*
X308586202Y-113553428D01*
X308490964Y-113505809D01*
X308443345Y-113458190D01*
X308395726Y-113362952D01*
X308014773Y-113029619D02*
X307967154Y-112982000D01*
X307871916Y-112934380D01*
X307633821Y-112934380D01*
X307538583Y-112982000D01*
X307490964Y-113029619D01*
X307443345Y-113124857D01*
X307443345Y-113220095D01*
X307490964Y-113362952D01*
X308062392Y-113934380D01*
X307443345Y-113934380D01*
X304269535Y-112034380D02*
X304840964Y-112034380D01*
X304555250Y-112034380D02*
X304555250Y-111034380D01*
X304650488Y-111177238D01*
X304745726Y-111272476D01*
X304840964Y-111320095D01*
%TO.C,D91*%
X233719535Y-113934380D02*
X233719535Y-112934380D01*
X233481440Y-112934380D01*
X233338583Y-112982000D01*
X233243345Y-113077238D01*
X233195726Y-113172476D01*
X233148107Y-113362952D01*
X233148107Y-113505809D01*
X233195726Y-113696285D01*
X233243345Y-113791523D01*
X233338583Y-113886761D01*
X233481440Y-113934380D01*
X233719535Y-113934380D01*
X232671916Y-113934380D02*
X232481440Y-113934380D01*
X232386202Y-113886761D01*
X232338583Y-113839142D01*
X232243345Y-113696285D01*
X232195726Y-113505809D01*
X232195726Y-113124857D01*
X232243345Y-113029619D01*
X232290964Y-112982000D01*
X232386202Y-112934380D01*
X232576678Y-112934380D01*
X232671916Y-112982000D01*
X232719535Y-113029619D01*
X232767154Y-113124857D01*
X232767154Y-113362952D01*
X232719535Y-113458190D01*
X232671916Y-113505809D01*
X232576678Y-113553428D01*
X232386202Y-113553428D01*
X232290964Y-113505809D01*
X232243345Y-113458190D01*
X232195726Y-113362952D01*
X231243345Y-113934380D02*
X231814773Y-113934380D01*
X231529059Y-113934380D02*
X231529059Y-112934380D01*
X231624297Y-113077238D01*
X231719535Y-113172476D01*
X231814773Y-113220095D01*
X228069535Y-112034380D02*
X228640964Y-112034380D01*
X228355250Y-112034380D02*
X228355250Y-111034380D01*
X228450488Y-111177238D01*
X228545726Y-111272476D01*
X228640964Y-111320095D01*
%TO.C,D90*%
X156725785Y-113934380D02*
X156725785Y-112934380D01*
X156487690Y-112934380D01*
X156344833Y-112982000D01*
X156249595Y-113077238D01*
X156201976Y-113172476D01*
X156154357Y-113362952D01*
X156154357Y-113505809D01*
X156201976Y-113696285D01*
X156249595Y-113791523D01*
X156344833Y-113886761D01*
X156487690Y-113934380D01*
X156725785Y-113934380D01*
X155678166Y-113934380D02*
X155487690Y-113934380D01*
X155392452Y-113886761D01*
X155344833Y-113839142D01*
X155249595Y-113696285D01*
X155201976Y-113505809D01*
X155201976Y-113124857D01*
X155249595Y-113029619D01*
X155297214Y-112982000D01*
X155392452Y-112934380D01*
X155582928Y-112934380D01*
X155678166Y-112982000D01*
X155725785Y-113029619D01*
X155773404Y-113124857D01*
X155773404Y-113362952D01*
X155725785Y-113458190D01*
X155678166Y-113505809D01*
X155582928Y-113553428D01*
X155392452Y-113553428D01*
X155297214Y-113505809D01*
X155249595Y-113458190D01*
X155201976Y-113362952D01*
X154582928Y-112934380D02*
X154487690Y-112934380D01*
X154392452Y-112982000D01*
X154344833Y-113029619D01*
X154297214Y-113124857D01*
X154249595Y-113315333D01*
X154249595Y-113553428D01*
X154297214Y-113743904D01*
X154344833Y-113839142D01*
X154392452Y-113886761D01*
X154487690Y-113934380D01*
X154582928Y-113934380D01*
X154678166Y-113886761D01*
X154725785Y-113839142D01*
X154773404Y-113743904D01*
X154821023Y-113553428D01*
X154821023Y-113315333D01*
X154773404Y-113124857D01*
X154725785Y-113029619D01*
X154678166Y-112982000D01*
X154582928Y-112934380D01*
X151075785Y-112034380D02*
X151647214Y-112034380D01*
X151361500Y-112034380D02*
X151361500Y-111034380D01*
X151456738Y-111177238D01*
X151551976Y-111272476D01*
X151647214Y-111320095D01*
%TO.C,D89*%
X81388285Y-113946880D02*
X81388285Y-112946880D01*
X81150190Y-112946880D01*
X81007333Y-112994500D01*
X80912095Y-113089738D01*
X80864476Y-113184976D01*
X80816857Y-113375452D01*
X80816857Y-113518309D01*
X80864476Y-113708785D01*
X80912095Y-113804023D01*
X81007333Y-113899261D01*
X81150190Y-113946880D01*
X81388285Y-113946880D01*
X80245428Y-113375452D02*
X80340666Y-113327833D01*
X80388285Y-113280214D01*
X80435904Y-113184976D01*
X80435904Y-113137357D01*
X80388285Y-113042119D01*
X80340666Y-112994500D01*
X80245428Y-112946880D01*
X80054952Y-112946880D01*
X79959714Y-112994500D01*
X79912095Y-113042119D01*
X79864476Y-113137357D01*
X79864476Y-113184976D01*
X79912095Y-113280214D01*
X79959714Y-113327833D01*
X80054952Y-113375452D01*
X80245428Y-113375452D01*
X80340666Y-113423071D01*
X80388285Y-113470690D01*
X80435904Y-113565928D01*
X80435904Y-113756404D01*
X80388285Y-113851642D01*
X80340666Y-113899261D01*
X80245428Y-113946880D01*
X80054952Y-113946880D01*
X79959714Y-113899261D01*
X79912095Y-113851642D01*
X79864476Y-113756404D01*
X79864476Y-113565928D01*
X79912095Y-113470690D01*
X79959714Y-113423071D01*
X80054952Y-113375452D01*
X79388285Y-113946880D02*
X79197809Y-113946880D01*
X79102571Y-113899261D01*
X79054952Y-113851642D01*
X78959714Y-113708785D01*
X78912095Y-113518309D01*
X78912095Y-113137357D01*
X78959714Y-113042119D01*
X79007333Y-112994500D01*
X79102571Y-112946880D01*
X79293047Y-112946880D01*
X79388285Y-112994500D01*
X79435904Y-113042119D01*
X79483523Y-113137357D01*
X79483523Y-113375452D01*
X79435904Y-113470690D01*
X79388285Y-113518309D01*
X79293047Y-113565928D01*
X79102571Y-113565928D01*
X79007333Y-113518309D01*
X78959714Y-113470690D01*
X78912095Y-113375452D01*
X75738285Y-112046880D02*
X76309714Y-112046880D01*
X76024000Y-112046880D02*
X76024000Y-111046880D01*
X76119238Y-111189738D01*
X76214476Y-111284976D01*
X76309714Y-111332595D01*
%TO.C,D88*%
X376595535Y-169933630D02*
X376595535Y-168933630D01*
X376357440Y-168933630D01*
X376214583Y-168981250D01*
X376119345Y-169076488D01*
X376071726Y-169171726D01*
X376024107Y-169362202D01*
X376024107Y-169505059D01*
X376071726Y-169695535D01*
X376119345Y-169790773D01*
X376214583Y-169886011D01*
X376357440Y-169933630D01*
X376595535Y-169933630D01*
X375452678Y-169362202D02*
X375547916Y-169314583D01*
X375595535Y-169266964D01*
X375643154Y-169171726D01*
X375643154Y-169124107D01*
X375595535Y-169028869D01*
X375547916Y-168981250D01*
X375452678Y-168933630D01*
X375262202Y-168933630D01*
X375166964Y-168981250D01*
X375119345Y-169028869D01*
X375071726Y-169124107D01*
X375071726Y-169171726D01*
X375119345Y-169266964D01*
X375166964Y-169314583D01*
X375262202Y-169362202D01*
X375452678Y-169362202D01*
X375547916Y-169409821D01*
X375595535Y-169457440D01*
X375643154Y-169552678D01*
X375643154Y-169743154D01*
X375595535Y-169838392D01*
X375547916Y-169886011D01*
X375452678Y-169933630D01*
X375262202Y-169933630D01*
X375166964Y-169886011D01*
X375119345Y-169838392D01*
X375071726Y-169743154D01*
X375071726Y-169552678D01*
X375119345Y-169457440D01*
X375166964Y-169409821D01*
X375262202Y-169362202D01*
X374500297Y-169362202D02*
X374595535Y-169314583D01*
X374643154Y-169266964D01*
X374690773Y-169171726D01*
X374690773Y-169124107D01*
X374643154Y-169028869D01*
X374595535Y-168981250D01*
X374500297Y-168933630D01*
X374309821Y-168933630D01*
X374214583Y-168981250D01*
X374166964Y-169028869D01*
X374119345Y-169124107D01*
X374119345Y-169171726D01*
X374166964Y-169266964D01*
X374214583Y-169314583D01*
X374309821Y-169362202D01*
X374500297Y-169362202D01*
X374595535Y-169409821D01*
X374643154Y-169457440D01*
X374690773Y-169552678D01*
X374690773Y-169743154D01*
X374643154Y-169838392D01*
X374595535Y-169886011D01*
X374500297Y-169933630D01*
X374309821Y-169933630D01*
X374214583Y-169886011D01*
X374166964Y-169838392D01*
X374119345Y-169743154D01*
X374119345Y-169552678D01*
X374166964Y-169457440D01*
X374214583Y-169409821D01*
X374309821Y-169362202D01*
%TO.C,D87*%
X376720535Y-150883630D02*
X376720535Y-149883630D01*
X376482440Y-149883630D01*
X376339583Y-149931250D01*
X376244345Y-150026488D01*
X376196726Y-150121726D01*
X376149107Y-150312202D01*
X376149107Y-150455059D01*
X376196726Y-150645535D01*
X376244345Y-150740773D01*
X376339583Y-150836011D01*
X376482440Y-150883630D01*
X376720535Y-150883630D01*
X375577678Y-150312202D02*
X375672916Y-150264583D01*
X375720535Y-150216964D01*
X375768154Y-150121726D01*
X375768154Y-150074107D01*
X375720535Y-149978869D01*
X375672916Y-149931250D01*
X375577678Y-149883630D01*
X375387202Y-149883630D01*
X375291964Y-149931250D01*
X375244345Y-149978869D01*
X375196726Y-150074107D01*
X375196726Y-150121726D01*
X375244345Y-150216964D01*
X375291964Y-150264583D01*
X375387202Y-150312202D01*
X375577678Y-150312202D01*
X375672916Y-150359821D01*
X375720535Y-150407440D01*
X375768154Y-150502678D01*
X375768154Y-150693154D01*
X375720535Y-150788392D01*
X375672916Y-150836011D01*
X375577678Y-150883630D01*
X375387202Y-150883630D01*
X375291964Y-150836011D01*
X375244345Y-150788392D01*
X375196726Y-150693154D01*
X375196726Y-150502678D01*
X375244345Y-150407440D01*
X375291964Y-150359821D01*
X375387202Y-150312202D01*
X374863392Y-149883630D02*
X374196726Y-149883630D01*
X374625297Y-150883630D01*
%TO.C,D86*%
X376720535Y-146121130D02*
X376720535Y-145121130D01*
X376482440Y-145121130D01*
X376339583Y-145168750D01*
X376244345Y-145263988D01*
X376196726Y-145359226D01*
X376149107Y-145549702D01*
X376149107Y-145692559D01*
X376196726Y-145883035D01*
X376244345Y-145978273D01*
X376339583Y-146073511D01*
X376482440Y-146121130D01*
X376720535Y-146121130D01*
X375577678Y-145549702D02*
X375672916Y-145502083D01*
X375720535Y-145454464D01*
X375768154Y-145359226D01*
X375768154Y-145311607D01*
X375720535Y-145216369D01*
X375672916Y-145168750D01*
X375577678Y-145121130D01*
X375387202Y-145121130D01*
X375291964Y-145168750D01*
X375244345Y-145216369D01*
X375196726Y-145311607D01*
X375196726Y-145359226D01*
X375244345Y-145454464D01*
X375291964Y-145502083D01*
X375387202Y-145549702D01*
X375577678Y-145549702D01*
X375672916Y-145597321D01*
X375720535Y-145644940D01*
X375768154Y-145740178D01*
X375768154Y-145930654D01*
X375720535Y-146025892D01*
X375672916Y-146073511D01*
X375577678Y-146121130D01*
X375387202Y-146121130D01*
X375291964Y-146073511D01*
X375244345Y-146025892D01*
X375196726Y-145930654D01*
X375196726Y-145740178D01*
X375244345Y-145644940D01*
X375291964Y-145597321D01*
X375387202Y-145549702D01*
X374339583Y-145121130D02*
X374530059Y-145121130D01*
X374625297Y-145168750D01*
X374672916Y-145216369D01*
X374768154Y-145359226D01*
X374815773Y-145549702D01*
X374815773Y-145930654D01*
X374768154Y-146025892D01*
X374720535Y-146073511D01*
X374625297Y-146121130D01*
X374434821Y-146121130D01*
X374339583Y-146073511D01*
X374291964Y-146025892D01*
X374244345Y-145930654D01*
X374244345Y-145692559D01*
X374291964Y-145597321D01*
X374339583Y-145549702D01*
X374434821Y-145502083D01*
X374625297Y-145502083D01*
X374720535Y-145549702D01*
X374768154Y-145597321D01*
X374815773Y-145692559D01*
%TO.C,D85*%
X376720535Y-127071130D02*
X376720535Y-126071130D01*
X376482440Y-126071130D01*
X376339583Y-126118750D01*
X376244345Y-126213988D01*
X376196726Y-126309226D01*
X376149107Y-126499702D01*
X376149107Y-126642559D01*
X376196726Y-126833035D01*
X376244345Y-126928273D01*
X376339583Y-127023511D01*
X376482440Y-127071130D01*
X376720535Y-127071130D01*
X375577678Y-126499702D02*
X375672916Y-126452083D01*
X375720535Y-126404464D01*
X375768154Y-126309226D01*
X375768154Y-126261607D01*
X375720535Y-126166369D01*
X375672916Y-126118750D01*
X375577678Y-126071130D01*
X375387202Y-126071130D01*
X375291964Y-126118750D01*
X375244345Y-126166369D01*
X375196726Y-126261607D01*
X375196726Y-126309226D01*
X375244345Y-126404464D01*
X375291964Y-126452083D01*
X375387202Y-126499702D01*
X375577678Y-126499702D01*
X375672916Y-126547321D01*
X375720535Y-126594940D01*
X375768154Y-126690178D01*
X375768154Y-126880654D01*
X375720535Y-126975892D01*
X375672916Y-127023511D01*
X375577678Y-127071130D01*
X375387202Y-127071130D01*
X375291964Y-127023511D01*
X375244345Y-126975892D01*
X375196726Y-126880654D01*
X375196726Y-126690178D01*
X375244345Y-126594940D01*
X375291964Y-126547321D01*
X375387202Y-126499702D01*
X374291964Y-126071130D02*
X374768154Y-126071130D01*
X374815773Y-126547321D01*
X374768154Y-126499702D01*
X374672916Y-126452083D01*
X374434821Y-126452083D01*
X374339583Y-126499702D01*
X374291964Y-126547321D01*
X374244345Y-126642559D01*
X374244345Y-126880654D01*
X374291964Y-126975892D01*
X374339583Y-127023511D01*
X374434821Y-127071130D01*
X374672916Y-127071130D01*
X374768154Y-127023511D01*
X374815773Y-126975892D01*
%TO.C,D84*%
X82926085Y-105659180D02*
X82926085Y-104659180D01*
X82687990Y-104659180D01*
X82545133Y-104706800D01*
X82449895Y-104802038D01*
X82402276Y-104897276D01*
X82354657Y-105087752D01*
X82354657Y-105230609D01*
X82402276Y-105421085D01*
X82449895Y-105516323D01*
X82545133Y-105611561D01*
X82687990Y-105659180D01*
X82926085Y-105659180D01*
X81783228Y-105087752D02*
X81878466Y-105040133D01*
X81926085Y-104992514D01*
X81973704Y-104897276D01*
X81973704Y-104849657D01*
X81926085Y-104754419D01*
X81878466Y-104706800D01*
X81783228Y-104659180D01*
X81592752Y-104659180D01*
X81497514Y-104706800D01*
X81449895Y-104754419D01*
X81402276Y-104849657D01*
X81402276Y-104897276D01*
X81449895Y-104992514D01*
X81497514Y-105040133D01*
X81592752Y-105087752D01*
X81783228Y-105087752D01*
X81878466Y-105135371D01*
X81926085Y-105182990D01*
X81973704Y-105278228D01*
X81973704Y-105468704D01*
X81926085Y-105563942D01*
X81878466Y-105611561D01*
X81783228Y-105659180D01*
X81592752Y-105659180D01*
X81497514Y-105611561D01*
X81449895Y-105563942D01*
X81402276Y-105468704D01*
X81402276Y-105278228D01*
X81449895Y-105182990D01*
X81497514Y-105135371D01*
X81592752Y-105087752D01*
X80545133Y-104992514D02*
X80545133Y-105659180D01*
X80783228Y-104611561D02*
X81021323Y-105325847D01*
X80402276Y-105325847D01*
%TO.C,D83*%
X372638485Y-188132980D02*
X372638485Y-187132980D01*
X372400390Y-187132980D01*
X372257533Y-187180600D01*
X372162295Y-187275838D01*
X372114676Y-187371076D01*
X372067057Y-187561552D01*
X372067057Y-187704409D01*
X372114676Y-187894885D01*
X372162295Y-187990123D01*
X372257533Y-188085361D01*
X372400390Y-188132980D01*
X372638485Y-188132980D01*
X371495628Y-187561552D02*
X371590866Y-187513933D01*
X371638485Y-187466314D01*
X371686104Y-187371076D01*
X371686104Y-187323457D01*
X371638485Y-187228219D01*
X371590866Y-187180600D01*
X371495628Y-187132980D01*
X371305152Y-187132980D01*
X371209914Y-187180600D01*
X371162295Y-187228219D01*
X371114676Y-187323457D01*
X371114676Y-187371076D01*
X371162295Y-187466314D01*
X371209914Y-187513933D01*
X371305152Y-187561552D01*
X371495628Y-187561552D01*
X371590866Y-187609171D01*
X371638485Y-187656790D01*
X371686104Y-187752028D01*
X371686104Y-187942504D01*
X371638485Y-188037742D01*
X371590866Y-188085361D01*
X371495628Y-188132980D01*
X371305152Y-188132980D01*
X371209914Y-188085361D01*
X371162295Y-188037742D01*
X371114676Y-187942504D01*
X371114676Y-187752028D01*
X371162295Y-187656790D01*
X371209914Y-187609171D01*
X371305152Y-187561552D01*
X370781342Y-187132980D02*
X370162295Y-187132980D01*
X370495628Y-187513933D01*
X370352771Y-187513933D01*
X370257533Y-187561552D01*
X370209914Y-187609171D01*
X370162295Y-187704409D01*
X370162295Y-187942504D01*
X370209914Y-188037742D01*
X370257533Y-188085361D01*
X370352771Y-188132980D01*
X370638485Y-188132980D01*
X370733723Y-188085361D01*
X370781342Y-188037742D01*
%TO.C,D82*%
X366720130Y-194492714D02*
X365720130Y-194492714D01*
X365720130Y-194730809D01*
X365767750Y-194873666D01*
X365862988Y-194968904D01*
X365958226Y-195016523D01*
X366148702Y-195064142D01*
X366291559Y-195064142D01*
X366482035Y-195016523D01*
X366577273Y-194968904D01*
X366672511Y-194873666D01*
X366720130Y-194730809D01*
X366720130Y-194492714D01*
X366148702Y-195635571D02*
X366101083Y-195540333D01*
X366053464Y-195492714D01*
X365958226Y-195445095D01*
X365910607Y-195445095D01*
X365815369Y-195492714D01*
X365767750Y-195540333D01*
X365720130Y-195635571D01*
X365720130Y-195826047D01*
X365767750Y-195921285D01*
X365815369Y-195968904D01*
X365910607Y-196016523D01*
X365958226Y-196016523D01*
X366053464Y-195968904D01*
X366101083Y-195921285D01*
X366148702Y-195826047D01*
X366148702Y-195635571D01*
X366196321Y-195540333D01*
X366243940Y-195492714D01*
X366339178Y-195445095D01*
X366529654Y-195445095D01*
X366624892Y-195492714D01*
X366672511Y-195540333D01*
X366720130Y-195635571D01*
X366720130Y-195826047D01*
X366672511Y-195921285D01*
X366624892Y-195968904D01*
X366529654Y-196016523D01*
X366339178Y-196016523D01*
X366243940Y-195968904D01*
X366196321Y-195921285D01*
X366148702Y-195826047D01*
X365815369Y-196397476D02*
X365767750Y-196445095D01*
X365720130Y-196540333D01*
X365720130Y-196778428D01*
X365767750Y-196873666D01*
X365815369Y-196921285D01*
X365910607Y-196968904D01*
X366005845Y-196968904D01*
X366148702Y-196921285D01*
X366720130Y-196349857D01*
X366720130Y-196968904D01*
%TO.C,D81*%
X362688380Y-172142714D02*
X361688380Y-172142714D01*
X361688380Y-172380809D01*
X361736000Y-172523666D01*
X361831238Y-172618904D01*
X361926476Y-172666523D01*
X362116952Y-172714142D01*
X362259809Y-172714142D01*
X362450285Y-172666523D01*
X362545523Y-172618904D01*
X362640761Y-172523666D01*
X362688380Y-172380809D01*
X362688380Y-172142714D01*
X362116952Y-173285571D02*
X362069333Y-173190333D01*
X362021714Y-173142714D01*
X361926476Y-173095095D01*
X361878857Y-173095095D01*
X361783619Y-173142714D01*
X361736000Y-173190333D01*
X361688380Y-173285571D01*
X361688380Y-173476047D01*
X361736000Y-173571285D01*
X361783619Y-173618904D01*
X361878857Y-173666523D01*
X361926476Y-173666523D01*
X362021714Y-173618904D01*
X362069333Y-173571285D01*
X362116952Y-173476047D01*
X362116952Y-173285571D01*
X362164571Y-173190333D01*
X362212190Y-173142714D01*
X362307428Y-173095095D01*
X362497904Y-173095095D01*
X362593142Y-173142714D01*
X362640761Y-173190333D01*
X362688380Y-173285571D01*
X362688380Y-173476047D01*
X362640761Y-173571285D01*
X362593142Y-173618904D01*
X362497904Y-173666523D01*
X362307428Y-173666523D01*
X362212190Y-173618904D01*
X362164571Y-173571285D01*
X362116952Y-173476047D01*
X362688380Y-174618904D02*
X362688380Y-174047476D01*
X362688380Y-174333190D02*
X361688380Y-174333190D01*
X361831238Y-174237952D01*
X361926476Y-174142714D01*
X361974095Y-174047476D01*
%TO.C,D80*%
X348432630Y-149855214D02*
X347432630Y-149855214D01*
X347432630Y-150093309D01*
X347480250Y-150236166D01*
X347575488Y-150331404D01*
X347670726Y-150379023D01*
X347861202Y-150426642D01*
X348004059Y-150426642D01*
X348194535Y-150379023D01*
X348289773Y-150331404D01*
X348385011Y-150236166D01*
X348432630Y-150093309D01*
X348432630Y-149855214D01*
X347861202Y-150998071D02*
X347813583Y-150902833D01*
X347765964Y-150855214D01*
X347670726Y-150807595D01*
X347623107Y-150807595D01*
X347527869Y-150855214D01*
X347480250Y-150902833D01*
X347432630Y-150998071D01*
X347432630Y-151188547D01*
X347480250Y-151283785D01*
X347527869Y-151331404D01*
X347623107Y-151379023D01*
X347670726Y-151379023D01*
X347765964Y-151331404D01*
X347813583Y-151283785D01*
X347861202Y-151188547D01*
X347861202Y-150998071D01*
X347908821Y-150902833D01*
X347956440Y-150855214D01*
X348051678Y-150807595D01*
X348242154Y-150807595D01*
X348337392Y-150855214D01*
X348385011Y-150902833D01*
X348432630Y-150998071D01*
X348432630Y-151188547D01*
X348385011Y-151283785D01*
X348337392Y-151331404D01*
X348242154Y-151379023D01*
X348051678Y-151379023D01*
X347956440Y-151331404D01*
X347908821Y-151283785D01*
X347861202Y-151188547D01*
X347432630Y-151998071D02*
X347432630Y-152093309D01*
X347480250Y-152188547D01*
X347527869Y-152236166D01*
X347623107Y-152283785D01*
X347813583Y-152331404D01*
X348051678Y-152331404D01*
X348242154Y-152283785D01*
X348337392Y-152236166D01*
X348385011Y-152188547D01*
X348432630Y-152093309D01*
X348432630Y-151998071D01*
X348385011Y-151902833D01*
X348337392Y-151855214D01*
X348242154Y-151807595D01*
X348051678Y-151759976D01*
X347813583Y-151759976D01*
X347623107Y-151807595D01*
X347527869Y-151855214D01*
X347480250Y-151902833D01*
X347432630Y-151998071D01*
%TO.C,D79*%
X346082630Y-137342714D02*
X345082630Y-137342714D01*
X345082630Y-137580809D01*
X345130250Y-137723666D01*
X345225488Y-137818904D01*
X345320726Y-137866523D01*
X345511202Y-137914142D01*
X345654059Y-137914142D01*
X345844535Y-137866523D01*
X345939773Y-137818904D01*
X346035011Y-137723666D01*
X346082630Y-137580809D01*
X346082630Y-137342714D01*
X345082630Y-138247476D02*
X345082630Y-138914142D01*
X346082630Y-138485571D01*
X346082630Y-139342714D02*
X346082630Y-139533190D01*
X346035011Y-139628428D01*
X345987392Y-139676047D01*
X345844535Y-139771285D01*
X345654059Y-139818904D01*
X345273107Y-139818904D01*
X345177869Y-139771285D01*
X345130250Y-139723666D01*
X345082630Y-139628428D01*
X345082630Y-139437952D01*
X345130250Y-139342714D01*
X345177869Y-139295095D01*
X345273107Y-139247476D01*
X345511202Y-139247476D01*
X345606440Y-139295095D01*
X345654059Y-139342714D01*
X345701678Y-139437952D01*
X345701678Y-139628428D01*
X345654059Y-139723666D01*
X345606440Y-139771285D01*
X345511202Y-139818904D01*
%TO.C,D78*%
X357195130Y-118292714D02*
X356195130Y-118292714D01*
X356195130Y-118530809D01*
X356242750Y-118673666D01*
X356337988Y-118768904D01*
X356433226Y-118816523D01*
X356623702Y-118864142D01*
X356766559Y-118864142D01*
X356957035Y-118816523D01*
X357052273Y-118768904D01*
X357147511Y-118673666D01*
X357195130Y-118530809D01*
X357195130Y-118292714D01*
X356195130Y-119197476D02*
X356195130Y-119864142D01*
X357195130Y-119435571D01*
X356623702Y-120387952D02*
X356576083Y-120292714D01*
X356528464Y-120245095D01*
X356433226Y-120197476D01*
X356385607Y-120197476D01*
X356290369Y-120245095D01*
X356242750Y-120292714D01*
X356195130Y-120387952D01*
X356195130Y-120578428D01*
X356242750Y-120673666D01*
X356290369Y-120721285D01*
X356385607Y-120768904D01*
X356433226Y-120768904D01*
X356528464Y-120721285D01*
X356576083Y-120673666D01*
X356623702Y-120578428D01*
X356623702Y-120387952D01*
X356671321Y-120292714D01*
X356718940Y-120245095D01*
X356814178Y-120197476D01*
X357004654Y-120197476D01*
X357099892Y-120245095D01*
X357147511Y-120292714D01*
X357195130Y-120387952D01*
X357195130Y-120578428D01*
X357147511Y-120673666D01*
X357099892Y-120721285D01*
X357004654Y-120768904D01*
X356814178Y-120768904D01*
X356718940Y-120721285D01*
X356671321Y-120673666D01*
X356623702Y-120578428D01*
%TO.C,D77*%
X347670130Y-194492714D02*
X346670130Y-194492714D01*
X346670130Y-194730809D01*
X346717750Y-194873666D01*
X346812988Y-194968904D01*
X346908226Y-195016523D01*
X347098702Y-195064142D01*
X347241559Y-195064142D01*
X347432035Y-195016523D01*
X347527273Y-194968904D01*
X347622511Y-194873666D01*
X347670130Y-194730809D01*
X347670130Y-194492714D01*
X346670130Y-195397476D02*
X346670130Y-196064142D01*
X347670130Y-195635571D01*
X346670130Y-196349857D02*
X346670130Y-197016523D01*
X347670130Y-196587952D01*
%TO.C,D76*%
X347670130Y-99242714D02*
X346670130Y-99242714D01*
X346670130Y-99480809D01*
X346717750Y-99623666D01*
X346812988Y-99718904D01*
X346908226Y-99766523D01*
X347098702Y-99814142D01*
X347241559Y-99814142D01*
X347432035Y-99766523D01*
X347527273Y-99718904D01*
X347622511Y-99623666D01*
X347670130Y-99480809D01*
X347670130Y-99242714D01*
X346670130Y-100147476D02*
X346670130Y-100814142D01*
X347670130Y-100385571D01*
X346670130Y-101623666D02*
X346670130Y-101433190D01*
X346717750Y-101337952D01*
X346765369Y-101290333D01*
X346908226Y-101195095D01*
X347098702Y-101147476D01*
X347479654Y-101147476D01*
X347574892Y-101195095D01*
X347622511Y-101242714D01*
X347670130Y-101337952D01*
X347670130Y-101528428D01*
X347622511Y-101623666D01*
X347574892Y-101671285D01*
X347479654Y-101718904D01*
X347241559Y-101718904D01*
X347146321Y-101671285D01*
X347098702Y-101623666D01*
X347051083Y-101528428D01*
X347051083Y-101337952D01*
X347098702Y-101242714D01*
X347146321Y-101195095D01*
X347241559Y-101147476D01*
%TO.C,D75*%
X338971130Y-171760714D02*
X337971130Y-171760714D01*
X337971130Y-171998809D01*
X338018750Y-172141666D01*
X338113988Y-172236904D01*
X338209226Y-172284523D01*
X338399702Y-172332142D01*
X338542559Y-172332142D01*
X338733035Y-172284523D01*
X338828273Y-172236904D01*
X338923511Y-172141666D01*
X338971130Y-171998809D01*
X338971130Y-171760714D01*
X337971130Y-172665476D02*
X337971130Y-173332142D01*
X338971130Y-172903571D01*
X337971130Y-174189285D02*
X337971130Y-173713095D01*
X338447321Y-173665476D01*
X338399702Y-173713095D01*
X338352083Y-173808333D01*
X338352083Y-174046428D01*
X338399702Y-174141666D01*
X338447321Y-174189285D01*
X338542559Y-174236904D01*
X338780654Y-174236904D01*
X338875892Y-174189285D01*
X338923511Y-174141666D01*
X338971130Y-174046428D01*
X338971130Y-173808333D01*
X338923511Y-173713095D01*
X338875892Y-173665476D01*
%TO.C,D74*%
X338145130Y-137342714D02*
X337145130Y-137342714D01*
X337145130Y-137580809D01*
X337192750Y-137723666D01*
X337287988Y-137818904D01*
X337383226Y-137866523D01*
X337573702Y-137914142D01*
X337716559Y-137914142D01*
X337907035Y-137866523D01*
X338002273Y-137818904D01*
X338097511Y-137723666D01*
X338145130Y-137580809D01*
X338145130Y-137342714D01*
X337145130Y-138247476D02*
X337145130Y-138914142D01*
X338145130Y-138485571D01*
X337478464Y-139723666D02*
X338145130Y-139723666D01*
X337097511Y-139485571D02*
X337811797Y-139247476D01*
X337811797Y-139866523D01*
%TO.C,D73*%
X328620130Y-118292714D02*
X327620130Y-118292714D01*
X327620130Y-118530809D01*
X327667750Y-118673666D01*
X327762988Y-118768904D01*
X327858226Y-118816523D01*
X328048702Y-118864142D01*
X328191559Y-118864142D01*
X328382035Y-118816523D01*
X328477273Y-118768904D01*
X328572511Y-118673666D01*
X328620130Y-118530809D01*
X328620130Y-118292714D01*
X327620130Y-119197476D02*
X327620130Y-119864142D01*
X328620130Y-119435571D01*
X327620130Y-120149857D02*
X327620130Y-120768904D01*
X328001083Y-120435571D01*
X328001083Y-120578428D01*
X328048702Y-120673666D01*
X328096321Y-120721285D01*
X328191559Y-120768904D01*
X328429654Y-120768904D01*
X328524892Y-120721285D01*
X328572511Y-120673666D01*
X328620130Y-120578428D01*
X328620130Y-120292714D01*
X328572511Y-120197476D01*
X328524892Y-120149857D01*
%TO.C,D72*%
X328620130Y-99242714D02*
X327620130Y-99242714D01*
X327620130Y-99480809D01*
X327667750Y-99623666D01*
X327762988Y-99718904D01*
X327858226Y-99766523D01*
X328048702Y-99814142D01*
X328191559Y-99814142D01*
X328382035Y-99766523D01*
X328477273Y-99718904D01*
X328572511Y-99623666D01*
X328620130Y-99480809D01*
X328620130Y-99242714D01*
X327620130Y-100147476D02*
X327620130Y-100814142D01*
X328620130Y-100385571D01*
X327715369Y-101147476D02*
X327667750Y-101195095D01*
X327620130Y-101290333D01*
X327620130Y-101528428D01*
X327667750Y-101623666D01*
X327715369Y-101671285D01*
X327810607Y-101718904D01*
X327905845Y-101718904D01*
X328048702Y-101671285D01*
X328620130Y-101099857D01*
X328620130Y-101718904D01*
%TO.C,D71*%
X319857630Y-153280214D02*
X318857630Y-153280214D01*
X318857630Y-153518309D01*
X318905250Y-153661166D01*
X319000488Y-153756404D01*
X319095726Y-153804023D01*
X319286202Y-153851642D01*
X319429059Y-153851642D01*
X319619535Y-153804023D01*
X319714773Y-153756404D01*
X319810011Y-153661166D01*
X319857630Y-153518309D01*
X319857630Y-153280214D01*
X318857630Y-154184976D02*
X318857630Y-154851642D01*
X319857630Y-154423071D01*
X319857630Y-155756404D02*
X319857630Y-155184976D01*
X319857630Y-155470690D02*
X318857630Y-155470690D01*
X319000488Y-155375452D01*
X319095726Y-155280214D01*
X319143345Y-155184976D01*
%TO.C,D70*%
X319095130Y-137342714D02*
X318095130Y-137342714D01*
X318095130Y-137580809D01*
X318142750Y-137723666D01*
X318237988Y-137818904D01*
X318333226Y-137866523D01*
X318523702Y-137914142D01*
X318666559Y-137914142D01*
X318857035Y-137866523D01*
X318952273Y-137818904D01*
X319047511Y-137723666D01*
X319095130Y-137580809D01*
X319095130Y-137342714D01*
X318095130Y-138247476D02*
X318095130Y-138914142D01*
X319095130Y-138485571D01*
X318095130Y-139485571D02*
X318095130Y-139580809D01*
X318142750Y-139676047D01*
X318190369Y-139723666D01*
X318285607Y-139771285D01*
X318476083Y-139818904D01*
X318714178Y-139818904D01*
X318904654Y-139771285D01*
X318999892Y-139723666D01*
X319047511Y-139676047D01*
X319095130Y-139580809D01*
X319095130Y-139485571D01*
X319047511Y-139390333D01*
X318999892Y-139342714D01*
X318904654Y-139295095D01*
X318714178Y-139247476D01*
X318476083Y-139247476D01*
X318285607Y-139295095D01*
X318190369Y-139342714D01*
X318142750Y-139390333D01*
X318095130Y-139485571D01*
%TO.C,D69*%
X309856380Y-172142714D02*
X308856380Y-172142714D01*
X308856380Y-172380809D01*
X308904000Y-172523666D01*
X308999238Y-172618904D01*
X309094476Y-172666523D01*
X309284952Y-172714142D01*
X309427809Y-172714142D01*
X309618285Y-172666523D01*
X309713523Y-172618904D01*
X309808761Y-172523666D01*
X309856380Y-172380809D01*
X309856380Y-172142714D01*
X308856380Y-173571285D02*
X308856380Y-173380809D01*
X308904000Y-173285571D01*
X308951619Y-173237952D01*
X309094476Y-173142714D01*
X309284952Y-173095095D01*
X309665904Y-173095095D01*
X309761142Y-173142714D01*
X309808761Y-173190333D01*
X309856380Y-173285571D01*
X309856380Y-173476047D01*
X309808761Y-173571285D01*
X309761142Y-173618904D01*
X309665904Y-173666523D01*
X309427809Y-173666523D01*
X309332571Y-173618904D01*
X309284952Y-173571285D01*
X309237333Y-173476047D01*
X309237333Y-173285571D01*
X309284952Y-173190333D01*
X309332571Y-173142714D01*
X309427809Y-173095095D01*
X309856380Y-174142714D02*
X309856380Y-174333190D01*
X309808761Y-174428428D01*
X309761142Y-174476047D01*
X309618285Y-174571285D01*
X309427809Y-174618904D01*
X309046857Y-174618904D01*
X308951619Y-174571285D01*
X308904000Y-174523666D01*
X308856380Y-174428428D01*
X308856380Y-174237952D01*
X308904000Y-174142714D01*
X308951619Y-174095095D01*
X309046857Y-174047476D01*
X309284952Y-174047476D01*
X309380190Y-174095095D01*
X309427809Y-174142714D01*
X309475428Y-174237952D01*
X309475428Y-174428428D01*
X309427809Y-174523666D01*
X309380190Y-174571285D01*
X309284952Y-174618904D01*
%TO.C,D68*%
X309570130Y-118292714D02*
X308570130Y-118292714D01*
X308570130Y-118530809D01*
X308617750Y-118673666D01*
X308712988Y-118768904D01*
X308808226Y-118816523D01*
X308998702Y-118864142D01*
X309141559Y-118864142D01*
X309332035Y-118816523D01*
X309427273Y-118768904D01*
X309522511Y-118673666D01*
X309570130Y-118530809D01*
X309570130Y-118292714D01*
X308570130Y-119721285D02*
X308570130Y-119530809D01*
X308617750Y-119435571D01*
X308665369Y-119387952D01*
X308808226Y-119292714D01*
X308998702Y-119245095D01*
X309379654Y-119245095D01*
X309474892Y-119292714D01*
X309522511Y-119340333D01*
X309570130Y-119435571D01*
X309570130Y-119626047D01*
X309522511Y-119721285D01*
X309474892Y-119768904D01*
X309379654Y-119816523D01*
X309141559Y-119816523D01*
X309046321Y-119768904D01*
X308998702Y-119721285D01*
X308951083Y-119626047D01*
X308951083Y-119435571D01*
X308998702Y-119340333D01*
X309046321Y-119292714D01*
X309141559Y-119245095D01*
X308998702Y-120387952D02*
X308951083Y-120292714D01*
X308903464Y-120245095D01*
X308808226Y-120197476D01*
X308760607Y-120197476D01*
X308665369Y-120245095D01*
X308617750Y-120292714D01*
X308570130Y-120387952D01*
X308570130Y-120578428D01*
X308617750Y-120673666D01*
X308665369Y-120721285D01*
X308760607Y-120768904D01*
X308808226Y-120768904D01*
X308903464Y-120721285D01*
X308951083Y-120673666D01*
X308998702Y-120578428D01*
X308998702Y-120387952D01*
X309046321Y-120292714D01*
X309093940Y-120245095D01*
X309189178Y-120197476D01*
X309379654Y-120197476D01*
X309474892Y-120245095D01*
X309522511Y-120292714D01*
X309570130Y-120387952D01*
X309570130Y-120578428D01*
X309522511Y-120673666D01*
X309474892Y-120721285D01*
X309379654Y-120768904D01*
X309189178Y-120768904D01*
X309093940Y-120721285D01*
X309046321Y-120673666D01*
X308998702Y-120578428D01*
%TO.C,D67*%
X309570130Y-99242714D02*
X308570130Y-99242714D01*
X308570130Y-99480809D01*
X308617750Y-99623666D01*
X308712988Y-99718904D01*
X308808226Y-99766523D01*
X308998702Y-99814142D01*
X309141559Y-99814142D01*
X309332035Y-99766523D01*
X309427273Y-99718904D01*
X309522511Y-99623666D01*
X309570130Y-99480809D01*
X309570130Y-99242714D01*
X308570130Y-100671285D02*
X308570130Y-100480809D01*
X308617750Y-100385571D01*
X308665369Y-100337952D01*
X308808226Y-100242714D01*
X308998702Y-100195095D01*
X309379654Y-100195095D01*
X309474892Y-100242714D01*
X309522511Y-100290333D01*
X309570130Y-100385571D01*
X309570130Y-100576047D01*
X309522511Y-100671285D01*
X309474892Y-100718904D01*
X309379654Y-100766523D01*
X309141559Y-100766523D01*
X309046321Y-100718904D01*
X308998702Y-100671285D01*
X308951083Y-100576047D01*
X308951083Y-100385571D01*
X308998702Y-100290333D01*
X309046321Y-100242714D01*
X309141559Y-100195095D01*
X308570130Y-101099857D02*
X308570130Y-101766523D01*
X309570130Y-101337952D01*
%TO.C,D66*%
X327826380Y-191317714D02*
X326826380Y-191317714D01*
X326826380Y-191555809D01*
X326874000Y-191698666D01*
X326969238Y-191793904D01*
X327064476Y-191841523D01*
X327254952Y-191889142D01*
X327397809Y-191889142D01*
X327588285Y-191841523D01*
X327683523Y-191793904D01*
X327778761Y-191698666D01*
X327826380Y-191555809D01*
X327826380Y-191317714D01*
X326826380Y-192746285D02*
X326826380Y-192555809D01*
X326874000Y-192460571D01*
X326921619Y-192412952D01*
X327064476Y-192317714D01*
X327254952Y-192270095D01*
X327635904Y-192270095D01*
X327731142Y-192317714D01*
X327778761Y-192365333D01*
X327826380Y-192460571D01*
X327826380Y-192651047D01*
X327778761Y-192746285D01*
X327731142Y-192793904D01*
X327635904Y-192841523D01*
X327397809Y-192841523D01*
X327302571Y-192793904D01*
X327254952Y-192746285D01*
X327207333Y-192651047D01*
X327207333Y-192460571D01*
X327254952Y-192365333D01*
X327302571Y-192317714D01*
X327397809Y-192270095D01*
X326826380Y-193698666D02*
X326826380Y-193508190D01*
X326874000Y-193412952D01*
X326921619Y-193365333D01*
X327064476Y-193270095D01*
X327254952Y-193222476D01*
X327635904Y-193222476D01*
X327731142Y-193270095D01*
X327778761Y-193317714D01*
X327826380Y-193412952D01*
X327826380Y-193603428D01*
X327778761Y-193698666D01*
X327731142Y-193746285D01*
X327635904Y-193793904D01*
X327397809Y-193793904D01*
X327302571Y-193746285D01*
X327254952Y-193698666D01*
X327207333Y-193603428D01*
X327207333Y-193412952D01*
X327254952Y-193317714D01*
X327302571Y-193270095D01*
X327397809Y-193222476D01*
%TO.C,D65*%
X304807630Y-156392714D02*
X303807630Y-156392714D01*
X303807630Y-156630809D01*
X303855250Y-156773666D01*
X303950488Y-156868904D01*
X304045726Y-156916523D01*
X304236202Y-156964142D01*
X304379059Y-156964142D01*
X304569535Y-156916523D01*
X304664773Y-156868904D01*
X304760011Y-156773666D01*
X304807630Y-156630809D01*
X304807630Y-156392714D01*
X303807630Y-157821285D02*
X303807630Y-157630809D01*
X303855250Y-157535571D01*
X303902869Y-157487952D01*
X304045726Y-157392714D01*
X304236202Y-157345095D01*
X304617154Y-157345095D01*
X304712392Y-157392714D01*
X304760011Y-157440333D01*
X304807630Y-157535571D01*
X304807630Y-157726047D01*
X304760011Y-157821285D01*
X304712392Y-157868904D01*
X304617154Y-157916523D01*
X304379059Y-157916523D01*
X304283821Y-157868904D01*
X304236202Y-157821285D01*
X304188583Y-157726047D01*
X304188583Y-157535571D01*
X304236202Y-157440333D01*
X304283821Y-157392714D01*
X304379059Y-157345095D01*
X303807630Y-158821285D02*
X303807630Y-158345095D01*
X304283821Y-158297476D01*
X304236202Y-158345095D01*
X304188583Y-158440333D01*
X304188583Y-158678428D01*
X304236202Y-158773666D01*
X304283821Y-158821285D01*
X304379059Y-158868904D01*
X304617154Y-158868904D01*
X304712392Y-158821285D01*
X304760011Y-158773666D01*
X304807630Y-158678428D01*
X304807630Y-158440333D01*
X304760011Y-158345095D01*
X304712392Y-158297476D01*
%TO.C,D64*%
X300045130Y-137342714D02*
X299045130Y-137342714D01*
X299045130Y-137580809D01*
X299092750Y-137723666D01*
X299187988Y-137818904D01*
X299283226Y-137866523D01*
X299473702Y-137914142D01*
X299616559Y-137914142D01*
X299807035Y-137866523D01*
X299902273Y-137818904D01*
X299997511Y-137723666D01*
X300045130Y-137580809D01*
X300045130Y-137342714D01*
X299045130Y-138771285D02*
X299045130Y-138580809D01*
X299092750Y-138485571D01*
X299140369Y-138437952D01*
X299283226Y-138342714D01*
X299473702Y-138295095D01*
X299854654Y-138295095D01*
X299949892Y-138342714D01*
X299997511Y-138390333D01*
X300045130Y-138485571D01*
X300045130Y-138676047D01*
X299997511Y-138771285D01*
X299949892Y-138818904D01*
X299854654Y-138866523D01*
X299616559Y-138866523D01*
X299521321Y-138818904D01*
X299473702Y-138771285D01*
X299426083Y-138676047D01*
X299426083Y-138485571D01*
X299473702Y-138390333D01*
X299521321Y-138342714D01*
X299616559Y-138295095D01*
X299378464Y-139723666D02*
X300045130Y-139723666D01*
X298997511Y-139485571D02*
X299711797Y-139247476D01*
X299711797Y-139866523D01*
%TO.C,D63*%
X291282630Y-172142714D02*
X290282630Y-172142714D01*
X290282630Y-172380809D01*
X290330250Y-172523666D01*
X290425488Y-172618904D01*
X290520726Y-172666523D01*
X290711202Y-172714142D01*
X290854059Y-172714142D01*
X291044535Y-172666523D01*
X291139773Y-172618904D01*
X291235011Y-172523666D01*
X291282630Y-172380809D01*
X291282630Y-172142714D01*
X290282630Y-173571285D02*
X290282630Y-173380809D01*
X290330250Y-173285571D01*
X290377869Y-173237952D01*
X290520726Y-173142714D01*
X290711202Y-173095095D01*
X291092154Y-173095095D01*
X291187392Y-173142714D01*
X291235011Y-173190333D01*
X291282630Y-173285571D01*
X291282630Y-173476047D01*
X291235011Y-173571285D01*
X291187392Y-173618904D01*
X291092154Y-173666523D01*
X290854059Y-173666523D01*
X290758821Y-173618904D01*
X290711202Y-173571285D01*
X290663583Y-173476047D01*
X290663583Y-173285571D01*
X290711202Y-173190333D01*
X290758821Y-173142714D01*
X290854059Y-173095095D01*
X290282630Y-173999857D02*
X290282630Y-174618904D01*
X290663583Y-174285571D01*
X290663583Y-174428428D01*
X290711202Y-174523666D01*
X290758821Y-174571285D01*
X290854059Y-174618904D01*
X291092154Y-174618904D01*
X291187392Y-174571285D01*
X291235011Y-174523666D01*
X291282630Y-174428428D01*
X291282630Y-174142714D01*
X291235011Y-174047476D01*
X291187392Y-173999857D01*
%TO.C,D62*%
X290520130Y-118292714D02*
X289520130Y-118292714D01*
X289520130Y-118530809D01*
X289567750Y-118673666D01*
X289662988Y-118768904D01*
X289758226Y-118816523D01*
X289948702Y-118864142D01*
X290091559Y-118864142D01*
X290282035Y-118816523D01*
X290377273Y-118768904D01*
X290472511Y-118673666D01*
X290520130Y-118530809D01*
X290520130Y-118292714D01*
X289520130Y-119721285D02*
X289520130Y-119530809D01*
X289567750Y-119435571D01*
X289615369Y-119387952D01*
X289758226Y-119292714D01*
X289948702Y-119245095D01*
X290329654Y-119245095D01*
X290424892Y-119292714D01*
X290472511Y-119340333D01*
X290520130Y-119435571D01*
X290520130Y-119626047D01*
X290472511Y-119721285D01*
X290424892Y-119768904D01*
X290329654Y-119816523D01*
X290091559Y-119816523D01*
X289996321Y-119768904D01*
X289948702Y-119721285D01*
X289901083Y-119626047D01*
X289901083Y-119435571D01*
X289948702Y-119340333D01*
X289996321Y-119292714D01*
X290091559Y-119245095D01*
X289615369Y-120197476D02*
X289567750Y-120245095D01*
X289520130Y-120340333D01*
X289520130Y-120578428D01*
X289567750Y-120673666D01*
X289615369Y-120721285D01*
X289710607Y-120768904D01*
X289805845Y-120768904D01*
X289948702Y-120721285D01*
X290520130Y-120149857D01*
X290520130Y-120768904D01*
%TO.C,D61*%
X290520130Y-99242714D02*
X289520130Y-99242714D01*
X289520130Y-99480809D01*
X289567750Y-99623666D01*
X289662988Y-99718904D01*
X289758226Y-99766523D01*
X289948702Y-99814142D01*
X290091559Y-99814142D01*
X290282035Y-99766523D01*
X290377273Y-99718904D01*
X290472511Y-99623666D01*
X290520130Y-99480809D01*
X290520130Y-99242714D01*
X289520130Y-100671285D02*
X289520130Y-100480809D01*
X289567750Y-100385571D01*
X289615369Y-100337952D01*
X289758226Y-100242714D01*
X289948702Y-100195095D01*
X290329654Y-100195095D01*
X290424892Y-100242714D01*
X290472511Y-100290333D01*
X290520130Y-100385571D01*
X290520130Y-100576047D01*
X290472511Y-100671285D01*
X290424892Y-100718904D01*
X290329654Y-100766523D01*
X290091559Y-100766523D01*
X289996321Y-100718904D01*
X289948702Y-100671285D01*
X289901083Y-100576047D01*
X289901083Y-100385571D01*
X289948702Y-100290333D01*
X289996321Y-100242714D01*
X290091559Y-100195095D01*
X290520130Y-101718904D02*
X290520130Y-101147476D01*
X290520130Y-101433190D02*
X289520130Y-101433190D01*
X289662988Y-101337952D01*
X289758226Y-101242714D01*
X289805845Y-101147476D01*
%TO.C,D60*%
X306682035Y-201334380D02*
X306682035Y-200334380D01*
X306443940Y-200334380D01*
X306301083Y-200382000D01*
X306205845Y-200477238D01*
X306158226Y-200572476D01*
X306110607Y-200762952D01*
X306110607Y-200905809D01*
X306158226Y-201096285D01*
X306205845Y-201191523D01*
X306301083Y-201286761D01*
X306443940Y-201334380D01*
X306682035Y-201334380D01*
X305253464Y-200334380D02*
X305443940Y-200334380D01*
X305539178Y-200382000D01*
X305586797Y-200429619D01*
X305682035Y-200572476D01*
X305729654Y-200762952D01*
X305729654Y-201143904D01*
X305682035Y-201239142D01*
X305634416Y-201286761D01*
X305539178Y-201334380D01*
X305348702Y-201334380D01*
X305253464Y-201286761D01*
X305205845Y-201239142D01*
X305158226Y-201143904D01*
X305158226Y-200905809D01*
X305205845Y-200810571D01*
X305253464Y-200762952D01*
X305348702Y-200715333D01*
X305539178Y-200715333D01*
X305634416Y-200762952D01*
X305682035Y-200810571D01*
X305729654Y-200905809D01*
X304539178Y-200334380D02*
X304443940Y-200334380D01*
X304348702Y-200382000D01*
X304301083Y-200429619D01*
X304253464Y-200524857D01*
X304205845Y-200715333D01*
X304205845Y-200953428D01*
X304253464Y-201143904D01*
X304301083Y-201239142D01*
X304348702Y-201286761D01*
X304443940Y-201334380D01*
X304539178Y-201334380D01*
X304634416Y-201286761D01*
X304682035Y-201239142D01*
X304729654Y-201143904D01*
X304777273Y-200953428D01*
X304777273Y-200715333D01*
X304729654Y-200524857D01*
X304682035Y-200429619D01*
X304634416Y-200382000D01*
X304539178Y-200334380D01*
%TO.C,D59*%
X285757630Y-156392714D02*
X284757630Y-156392714D01*
X284757630Y-156630809D01*
X284805250Y-156773666D01*
X284900488Y-156868904D01*
X284995726Y-156916523D01*
X285186202Y-156964142D01*
X285329059Y-156964142D01*
X285519535Y-156916523D01*
X285614773Y-156868904D01*
X285710011Y-156773666D01*
X285757630Y-156630809D01*
X285757630Y-156392714D01*
X284757630Y-157868904D02*
X284757630Y-157392714D01*
X285233821Y-157345095D01*
X285186202Y-157392714D01*
X285138583Y-157487952D01*
X285138583Y-157726047D01*
X285186202Y-157821285D01*
X285233821Y-157868904D01*
X285329059Y-157916523D01*
X285567154Y-157916523D01*
X285662392Y-157868904D01*
X285710011Y-157821285D01*
X285757630Y-157726047D01*
X285757630Y-157487952D01*
X285710011Y-157392714D01*
X285662392Y-157345095D01*
X285757630Y-158392714D02*
X285757630Y-158583190D01*
X285710011Y-158678428D01*
X285662392Y-158726047D01*
X285519535Y-158821285D01*
X285329059Y-158868904D01*
X284948107Y-158868904D01*
X284852869Y-158821285D01*
X284805250Y-158773666D01*
X284757630Y-158678428D01*
X284757630Y-158487952D01*
X284805250Y-158392714D01*
X284852869Y-158345095D01*
X284948107Y-158297476D01*
X285186202Y-158297476D01*
X285281440Y-158345095D01*
X285329059Y-158392714D01*
X285376678Y-158487952D01*
X285376678Y-158678428D01*
X285329059Y-158773666D01*
X285281440Y-158821285D01*
X285186202Y-158868904D01*
%TO.C,D58*%
X280995130Y-137342714D02*
X279995130Y-137342714D01*
X279995130Y-137580809D01*
X280042750Y-137723666D01*
X280137988Y-137818904D01*
X280233226Y-137866523D01*
X280423702Y-137914142D01*
X280566559Y-137914142D01*
X280757035Y-137866523D01*
X280852273Y-137818904D01*
X280947511Y-137723666D01*
X280995130Y-137580809D01*
X280995130Y-137342714D01*
X279995130Y-138818904D02*
X279995130Y-138342714D01*
X280471321Y-138295095D01*
X280423702Y-138342714D01*
X280376083Y-138437952D01*
X280376083Y-138676047D01*
X280423702Y-138771285D01*
X280471321Y-138818904D01*
X280566559Y-138866523D01*
X280804654Y-138866523D01*
X280899892Y-138818904D01*
X280947511Y-138771285D01*
X280995130Y-138676047D01*
X280995130Y-138437952D01*
X280947511Y-138342714D01*
X280899892Y-138295095D01*
X280423702Y-139437952D02*
X280376083Y-139342714D01*
X280328464Y-139295095D01*
X280233226Y-139247476D01*
X280185607Y-139247476D01*
X280090369Y-139295095D01*
X280042750Y-139342714D01*
X279995130Y-139437952D01*
X279995130Y-139628428D01*
X280042750Y-139723666D01*
X280090369Y-139771285D01*
X280185607Y-139818904D01*
X280233226Y-139818904D01*
X280328464Y-139771285D01*
X280376083Y-139723666D01*
X280423702Y-139628428D01*
X280423702Y-139437952D01*
X280471321Y-139342714D01*
X280518940Y-139295095D01*
X280614178Y-139247476D01*
X280804654Y-139247476D01*
X280899892Y-139295095D01*
X280947511Y-139342714D01*
X280995130Y-139437952D01*
X280995130Y-139628428D01*
X280947511Y-139723666D01*
X280899892Y-139771285D01*
X280804654Y-139818904D01*
X280614178Y-139818904D01*
X280518940Y-139771285D01*
X280471321Y-139723666D01*
X280423702Y-139628428D01*
%TO.C,D57*%
X270645130Y-170680214D02*
X269645130Y-170680214D01*
X269645130Y-170918309D01*
X269692750Y-171061166D01*
X269787988Y-171156404D01*
X269883226Y-171204023D01*
X270073702Y-171251642D01*
X270216559Y-171251642D01*
X270407035Y-171204023D01*
X270502273Y-171156404D01*
X270597511Y-171061166D01*
X270645130Y-170918309D01*
X270645130Y-170680214D01*
X269645130Y-172156404D02*
X269645130Y-171680214D01*
X270121321Y-171632595D01*
X270073702Y-171680214D01*
X270026083Y-171775452D01*
X270026083Y-172013547D01*
X270073702Y-172108785D01*
X270121321Y-172156404D01*
X270216559Y-172204023D01*
X270454654Y-172204023D01*
X270549892Y-172156404D01*
X270597511Y-172108785D01*
X270645130Y-172013547D01*
X270645130Y-171775452D01*
X270597511Y-171680214D01*
X270549892Y-171632595D01*
X269645130Y-172537357D02*
X269645130Y-173204023D01*
X270645130Y-172775452D01*
%TO.C,D56*%
X271470130Y-118292714D02*
X270470130Y-118292714D01*
X270470130Y-118530809D01*
X270517750Y-118673666D01*
X270612988Y-118768904D01*
X270708226Y-118816523D01*
X270898702Y-118864142D01*
X271041559Y-118864142D01*
X271232035Y-118816523D01*
X271327273Y-118768904D01*
X271422511Y-118673666D01*
X271470130Y-118530809D01*
X271470130Y-118292714D01*
X270470130Y-119768904D02*
X270470130Y-119292714D01*
X270946321Y-119245095D01*
X270898702Y-119292714D01*
X270851083Y-119387952D01*
X270851083Y-119626047D01*
X270898702Y-119721285D01*
X270946321Y-119768904D01*
X271041559Y-119816523D01*
X271279654Y-119816523D01*
X271374892Y-119768904D01*
X271422511Y-119721285D01*
X271470130Y-119626047D01*
X271470130Y-119387952D01*
X271422511Y-119292714D01*
X271374892Y-119245095D01*
X270470130Y-120673666D02*
X270470130Y-120483190D01*
X270517750Y-120387952D01*
X270565369Y-120340333D01*
X270708226Y-120245095D01*
X270898702Y-120197476D01*
X271279654Y-120197476D01*
X271374892Y-120245095D01*
X271422511Y-120292714D01*
X271470130Y-120387952D01*
X271470130Y-120578428D01*
X271422511Y-120673666D01*
X271374892Y-120721285D01*
X271279654Y-120768904D01*
X271041559Y-120768904D01*
X270946321Y-120721285D01*
X270898702Y-120673666D01*
X270851083Y-120578428D01*
X270851083Y-120387952D01*
X270898702Y-120292714D01*
X270946321Y-120245095D01*
X271041559Y-120197476D01*
%TO.C,D55*%
X271470130Y-99242714D02*
X270470130Y-99242714D01*
X270470130Y-99480809D01*
X270517750Y-99623666D01*
X270612988Y-99718904D01*
X270708226Y-99766523D01*
X270898702Y-99814142D01*
X271041559Y-99814142D01*
X271232035Y-99766523D01*
X271327273Y-99718904D01*
X271422511Y-99623666D01*
X271470130Y-99480809D01*
X271470130Y-99242714D01*
X270470130Y-100718904D02*
X270470130Y-100242714D01*
X270946321Y-100195095D01*
X270898702Y-100242714D01*
X270851083Y-100337952D01*
X270851083Y-100576047D01*
X270898702Y-100671285D01*
X270946321Y-100718904D01*
X271041559Y-100766523D01*
X271279654Y-100766523D01*
X271374892Y-100718904D01*
X271422511Y-100671285D01*
X271470130Y-100576047D01*
X271470130Y-100337952D01*
X271422511Y-100242714D01*
X271374892Y-100195095D01*
X270470130Y-101671285D02*
X270470130Y-101195095D01*
X270946321Y-101147476D01*
X270898702Y-101195095D01*
X270851083Y-101290333D01*
X270851083Y-101528428D01*
X270898702Y-101623666D01*
X270946321Y-101671285D01*
X271041559Y-101718904D01*
X271279654Y-101718904D01*
X271374892Y-101671285D01*
X271422511Y-101623666D01*
X271470130Y-101528428D01*
X271470130Y-101290333D01*
X271422511Y-101195095D01*
X271374892Y-101147476D01*
%TO.C,D54*%
X266707630Y-156392714D02*
X265707630Y-156392714D01*
X265707630Y-156630809D01*
X265755250Y-156773666D01*
X265850488Y-156868904D01*
X265945726Y-156916523D01*
X266136202Y-156964142D01*
X266279059Y-156964142D01*
X266469535Y-156916523D01*
X266564773Y-156868904D01*
X266660011Y-156773666D01*
X266707630Y-156630809D01*
X266707630Y-156392714D01*
X265707630Y-157868904D02*
X265707630Y-157392714D01*
X266183821Y-157345095D01*
X266136202Y-157392714D01*
X266088583Y-157487952D01*
X266088583Y-157726047D01*
X266136202Y-157821285D01*
X266183821Y-157868904D01*
X266279059Y-157916523D01*
X266517154Y-157916523D01*
X266612392Y-157868904D01*
X266660011Y-157821285D01*
X266707630Y-157726047D01*
X266707630Y-157487952D01*
X266660011Y-157392714D01*
X266612392Y-157345095D01*
X266040964Y-158773666D02*
X266707630Y-158773666D01*
X265660011Y-158535571D02*
X266374297Y-158297476D01*
X266374297Y-158916523D01*
%TO.C,D53*%
X290869535Y-201334380D02*
X290869535Y-200334380D01*
X290631440Y-200334380D01*
X290488583Y-200382000D01*
X290393345Y-200477238D01*
X290345726Y-200572476D01*
X290298107Y-200762952D01*
X290298107Y-200905809D01*
X290345726Y-201096285D01*
X290393345Y-201191523D01*
X290488583Y-201286761D01*
X290631440Y-201334380D01*
X290869535Y-201334380D01*
X289393345Y-200334380D02*
X289869535Y-200334380D01*
X289917154Y-200810571D01*
X289869535Y-200762952D01*
X289774297Y-200715333D01*
X289536202Y-200715333D01*
X289440964Y-200762952D01*
X289393345Y-200810571D01*
X289345726Y-200905809D01*
X289345726Y-201143904D01*
X289393345Y-201239142D01*
X289440964Y-201286761D01*
X289536202Y-201334380D01*
X289774297Y-201334380D01*
X289869535Y-201286761D01*
X289917154Y-201239142D01*
X289012392Y-200334380D02*
X288393345Y-200334380D01*
X288726678Y-200715333D01*
X288583821Y-200715333D01*
X288488583Y-200762952D01*
X288440964Y-200810571D01*
X288393345Y-200905809D01*
X288393345Y-201143904D01*
X288440964Y-201239142D01*
X288488583Y-201286761D01*
X288583821Y-201334380D01*
X288869535Y-201334380D01*
X288964773Y-201286761D01*
X289012392Y-201239142D01*
%TO.C,D52*%
X261945130Y-137342714D02*
X260945130Y-137342714D01*
X260945130Y-137580809D01*
X260992750Y-137723666D01*
X261087988Y-137818904D01*
X261183226Y-137866523D01*
X261373702Y-137914142D01*
X261516559Y-137914142D01*
X261707035Y-137866523D01*
X261802273Y-137818904D01*
X261897511Y-137723666D01*
X261945130Y-137580809D01*
X261945130Y-137342714D01*
X260945130Y-138818904D02*
X260945130Y-138342714D01*
X261421321Y-138295095D01*
X261373702Y-138342714D01*
X261326083Y-138437952D01*
X261326083Y-138676047D01*
X261373702Y-138771285D01*
X261421321Y-138818904D01*
X261516559Y-138866523D01*
X261754654Y-138866523D01*
X261849892Y-138818904D01*
X261897511Y-138771285D01*
X261945130Y-138676047D01*
X261945130Y-138437952D01*
X261897511Y-138342714D01*
X261849892Y-138295095D01*
X261040369Y-139247476D02*
X260992750Y-139295095D01*
X260945130Y-139390333D01*
X260945130Y-139628428D01*
X260992750Y-139723666D01*
X261040369Y-139771285D01*
X261135607Y-139818904D01*
X261230845Y-139818904D01*
X261373702Y-139771285D01*
X261945130Y-139199857D01*
X261945130Y-139818904D01*
%TO.C,D51*%
X252071380Y-169472714D02*
X251071380Y-169472714D01*
X251071380Y-169710809D01*
X251119000Y-169853666D01*
X251214238Y-169948904D01*
X251309476Y-169996523D01*
X251499952Y-170044142D01*
X251642809Y-170044142D01*
X251833285Y-169996523D01*
X251928523Y-169948904D01*
X252023761Y-169853666D01*
X252071380Y-169710809D01*
X252071380Y-169472714D01*
X251071380Y-170948904D02*
X251071380Y-170472714D01*
X251547571Y-170425095D01*
X251499952Y-170472714D01*
X251452333Y-170567952D01*
X251452333Y-170806047D01*
X251499952Y-170901285D01*
X251547571Y-170948904D01*
X251642809Y-170996523D01*
X251880904Y-170996523D01*
X251976142Y-170948904D01*
X252023761Y-170901285D01*
X252071380Y-170806047D01*
X252071380Y-170567952D01*
X252023761Y-170472714D01*
X251976142Y-170425095D01*
X252071380Y-171948904D02*
X252071380Y-171377476D01*
X252071380Y-171663190D02*
X251071380Y-171663190D01*
X251214238Y-171567952D01*
X251309476Y-171472714D01*
X251357095Y-171377476D01*
%TO.C,D50*%
X252420130Y-118292714D02*
X251420130Y-118292714D01*
X251420130Y-118530809D01*
X251467750Y-118673666D01*
X251562988Y-118768904D01*
X251658226Y-118816523D01*
X251848702Y-118864142D01*
X251991559Y-118864142D01*
X252182035Y-118816523D01*
X252277273Y-118768904D01*
X252372511Y-118673666D01*
X252420130Y-118530809D01*
X252420130Y-118292714D01*
X251420130Y-119768904D02*
X251420130Y-119292714D01*
X251896321Y-119245095D01*
X251848702Y-119292714D01*
X251801083Y-119387952D01*
X251801083Y-119626047D01*
X251848702Y-119721285D01*
X251896321Y-119768904D01*
X251991559Y-119816523D01*
X252229654Y-119816523D01*
X252324892Y-119768904D01*
X252372511Y-119721285D01*
X252420130Y-119626047D01*
X252420130Y-119387952D01*
X252372511Y-119292714D01*
X252324892Y-119245095D01*
X251420130Y-120435571D02*
X251420130Y-120530809D01*
X251467750Y-120626047D01*
X251515369Y-120673666D01*
X251610607Y-120721285D01*
X251801083Y-120768904D01*
X252039178Y-120768904D01*
X252229654Y-120721285D01*
X252324892Y-120673666D01*
X252372511Y-120626047D01*
X252420130Y-120530809D01*
X252420130Y-120435571D01*
X252372511Y-120340333D01*
X252324892Y-120292714D01*
X252229654Y-120245095D01*
X252039178Y-120197476D01*
X251801083Y-120197476D01*
X251610607Y-120245095D01*
X251515369Y-120292714D01*
X251467750Y-120340333D01*
X251420130Y-120435571D01*
%TO.C,D49*%
X252420130Y-99242714D02*
X251420130Y-99242714D01*
X251420130Y-99480809D01*
X251467750Y-99623666D01*
X251562988Y-99718904D01*
X251658226Y-99766523D01*
X251848702Y-99814142D01*
X251991559Y-99814142D01*
X252182035Y-99766523D01*
X252277273Y-99718904D01*
X252372511Y-99623666D01*
X252420130Y-99480809D01*
X252420130Y-99242714D01*
X251753464Y-100671285D02*
X252420130Y-100671285D01*
X251372511Y-100433190D02*
X252086797Y-100195095D01*
X252086797Y-100814142D01*
X252420130Y-101242714D02*
X252420130Y-101433190D01*
X252372511Y-101528428D01*
X252324892Y-101576047D01*
X252182035Y-101671285D01*
X251991559Y-101718904D01*
X251610607Y-101718904D01*
X251515369Y-101671285D01*
X251467750Y-101623666D01*
X251420130Y-101528428D01*
X251420130Y-101337952D01*
X251467750Y-101242714D01*
X251515369Y-101195095D01*
X251610607Y-101147476D01*
X251848702Y-101147476D01*
X251943940Y-101195095D01*
X251991559Y-101242714D01*
X252039178Y-101337952D01*
X252039178Y-101528428D01*
X251991559Y-101623666D01*
X251943940Y-101671285D01*
X251848702Y-101718904D01*
%TO.C,D48*%
X247657630Y-156392714D02*
X246657630Y-156392714D01*
X246657630Y-156630809D01*
X246705250Y-156773666D01*
X246800488Y-156868904D01*
X246895726Y-156916523D01*
X247086202Y-156964142D01*
X247229059Y-156964142D01*
X247419535Y-156916523D01*
X247514773Y-156868904D01*
X247610011Y-156773666D01*
X247657630Y-156630809D01*
X247657630Y-156392714D01*
X246990964Y-157821285D02*
X247657630Y-157821285D01*
X246610011Y-157583190D02*
X247324297Y-157345095D01*
X247324297Y-157964142D01*
X247086202Y-158487952D02*
X247038583Y-158392714D01*
X246990964Y-158345095D01*
X246895726Y-158297476D01*
X246848107Y-158297476D01*
X246752869Y-158345095D01*
X246705250Y-158392714D01*
X246657630Y-158487952D01*
X246657630Y-158678428D01*
X246705250Y-158773666D01*
X246752869Y-158821285D01*
X246848107Y-158868904D01*
X246895726Y-158868904D01*
X246990964Y-158821285D01*
X247038583Y-158773666D01*
X247086202Y-158678428D01*
X247086202Y-158487952D01*
X247133821Y-158392714D01*
X247181440Y-158345095D01*
X247276678Y-158297476D01*
X247467154Y-158297476D01*
X247562392Y-158345095D01*
X247610011Y-158392714D01*
X247657630Y-158487952D01*
X247657630Y-158678428D01*
X247610011Y-158773666D01*
X247562392Y-158821285D01*
X247467154Y-158868904D01*
X247276678Y-158868904D01*
X247181440Y-158821285D01*
X247133821Y-158773666D01*
X247086202Y-158678428D01*
%TO.C,D47*%
X242895130Y-137342714D02*
X241895130Y-137342714D01*
X241895130Y-137580809D01*
X241942750Y-137723666D01*
X242037988Y-137818904D01*
X242133226Y-137866523D01*
X242323702Y-137914142D01*
X242466559Y-137914142D01*
X242657035Y-137866523D01*
X242752273Y-137818904D01*
X242847511Y-137723666D01*
X242895130Y-137580809D01*
X242895130Y-137342714D01*
X242228464Y-138771285D02*
X242895130Y-138771285D01*
X241847511Y-138533190D02*
X242561797Y-138295095D01*
X242561797Y-138914142D01*
X241895130Y-139199857D02*
X241895130Y-139866523D01*
X242895130Y-139437952D01*
%TO.C,D46*%
X236342180Y-169524514D02*
X235342180Y-169524514D01*
X235342180Y-169762609D01*
X235389800Y-169905466D01*
X235485038Y-170000704D01*
X235580276Y-170048323D01*
X235770752Y-170095942D01*
X235913609Y-170095942D01*
X236104085Y-170048323D01*
X236199323Y-170000704D01*
X236294561Y-169905466D01*
X236342180Y-169762609D01*
X236342180Y-169524514D01*
X235675514Y-170953085D02*
X236342180Y-170953085D01*
X235294561Y-170714990D02*
X236008847Y-170476895D01*
X236008847Y-171095942D01*
X235342180Y-171905466D02*
X235342180Y-171714990D01*
X235389800Y-171619752D01*
X235437419Y-171572133D01*
X235580276Y-171476895D01*
X235770752Y-171429276D01*
X236151704Y-171429276D01*
X236246942Y-171476895D01*
X236294561Y-171524514D01*
X236342180Y-171619752D01*
X236342180Y-171810228D01*
X236294561Y-171905466D01*
X236246942Y-171953085D01*
X236151704Y-172000704D01*
X235913609Y-172000704D01*
X235818371Y-171953085D01*
X235770752Y-171905466D01*
X235723133Y-171810228D01*
X235723133Y-171619752D01*
X235770752Y-171524514D01*
X235818371Y-171476895D01*
X235913609Y-171429276D01*
%TO.C,D45*%
X233370130Y-118292714D02*
X232370130Y-118292714D01*
X232370130Y-118530809D01*
X232417750Y-118673666D01*
X232512988Y-118768904D01*
X232608226Y-118816523D01*
X232798702Y-118864142D01*
X232941559Y-118864142D01*
X233132035Y-118816523D01*
X233227273Y-118768904D01*
X233322511Y-118673666D01*
X233370130Y-118530809D01*
X233370130Y-118292714D01*
X232703464Y-119721285D02*
X233370130Y-119721285D01*
X232322511Y-119483190D02*
X233036797Y-119245095D01*
X233036797Y-119864142D01*
X232370130Y-120721285D02*
X232370130Y-120245095D01*
X232846321Y-120197476D01*
X232798702Y-120245095D01*
X232751083Y-120340333D01*
X232751083Y-120578428D01*
X232798702Y-120673666D01*
X232846321Y-120721285D01*
X232941559Y-120768904D01*
X233179654Y-120768904D01*
X233274892Y-120721285D01*
X233322511Y-120673666D01*
X233370130Y-120578428D01*
X233370130Y-120340333D01*
X233322511Y-120245095D01*
X233274892Y-120197476D01*
%TO.C,D44*%
X233370130Y-99242714D02*
X232370130Y-99242714D01*
X232370130Y-99480809D01*
X232417750Y-99623666D01*
X232512988Y-99718904D01*
X232608226Y-99766523D01*
X232798702Y-99814142D01*
X232941559Y-99814142D01*
X233132035Y-99766523D01*
X233227273Y-99718904D01*
X233322511Y-99623666D01*
X233370130Y-99480809D01*
X233370130Y-99242714D01*
X232703464Y-100671285D02*
X233370130Y-100671285D01*
X232322511Y-100433190D02*
X233036797Y-100195095D01*
X233036797Y-100814142D01*
X232703464Y-101623666D02*
X233370130Y-101623666D01*
X232322511Y-101385571D02*
X233036797Y-101147476D01*
X233036797Y-101766523D01*
%TO.C,D43*%
X228607630Y-156392714D02*
X227607630Y-156392714D01*
X227607630Y-156630809D01*
X227655250Y-156773666D01*
X227750488Y-156868904D01*
X227845726Y-156916523D01*
X228036202Y-156964142D01*
X228179059Y-156964142D01*
X228369535Y-156916523D01*
X228464773Y-156868904D01*
X228560011Y-156773666D01*
X228607630Y-156630809D01*
X228607630Y-156392714D01*
X227940964Y-157821285D02*
X228607630Y-157821285D01*
X227560011Y-157583190D02*
X228274297Y-157345095D01*
X228274297Y-157964142D01*
X227607630Y-158249857D02*
X227607630Y-158868904D01*
X227988583Y-158535571D01*
X227988583Y-158678428D01*
X228036202Y-158773666D01*
X228083821Y-158821285D01*
X228179059Y-158868904D01*
X228417154Y-158868904D01*
X228512392Y-158821285D01*
X228560011Y-158773666D01*
X228607630Y-158678428D01*
X228607630Y-158392714D01*
X228560011Y-158297476D01*
X228512392Y-158249857D01*
%TO.C,D42*%
X223845130Y-137342714D02*
X222845130Y-137342714D01*
X222845130Y-137580809D01*
X222892750Y-137723666D01*
X222987988Y-137818904D01*
X223083226Y-137866523D01*
X223273702Y-137914142D01*
X223416559Y-137914142D01*
X223607035Y-137866523D01*
X223702273Y-137818904D01*
X223797511Y-137723666D01*
X223845130Y-137580809D01*
X223845130Y-137342714D01*
X223178464Y-138771285D02*
X223845130Y-138771285D01*
X222797511Y-138533190D02*
X223511797Y-138295095D01*
X223511797Y-138914142D01*
X222940369Y-139247476D02*
X222892750Y-139295095D01*
X222845130Y-139390333D01*
X222845130Y-139628428D01*
X222892750Y-139723666D01*
X222940369Y-139771285D01*
X223035607Y-139818904D01*
X223130845Y-139818904D01*
X223273702Y-139771285D01*
X223845130Y-139199857D01*
X223845130Y-139818904D01*
%TO.C,D41*%
X216670130Y-189792714D02*
X215670130Y-189792714D01*
X215670130Y-190030809D01*
X215717750Y-190173666D01*
X215812988Y-190268904D01*
X215908226Y-190316523D01*
X216098702Y-190364142D01*
X216241559Y-190364142D01*
X216432035Y-190316523D01*
X216527273Y-190268904D01*
X216622511Y-190173666D01*
X216670130Y-190030809D01*
X216670130Y-189792714D01*
X216003464Y-191221285D02*
X216670130Y-191221285D01*
X215622511Y-190983190D02*
X216336797Y-190745095D01*
X216336797Y-191364142D01*
X216670130Y-192268904D02*
X216670130Y-191697476D01*
X216670130Y-191983190D02*
X215670130Y-191983190D01*
X215812988Y-191887952D01*
X215908226Y-191792714D01*
X215955845Y-191697476D01*
%TO.C,D40*%
X219082630Y-175442714D02*
X218082630Y-175442714D01*
X218082630Y-175680809D01*
X218130250Y-175823666D01*
X218225488Y-175918904D01*
X218320726Y-175966523D01*
X218511202Y-176014142D01*
X218654059Y-176014142D01*
X218844535Y-175966523D01*
X218939773Y-175918904D01*
X219035011Y-175823666D01*
X219082630Y-175680809D01*
X219082630Y-175442714D01*
X218415964Y-176871285D02*
X219082630Y-176871285D01*
X218035011Y-176633190D02*
X218749297Y-176395095D01*
X218749297Y-177014142D01*
X218082630Y-177585571D02*
X218082630Y-177680809D01*
X218130250Y-177776047D01*
X218177869Y-177823666D01*
X218273107Y-177871285D01*
X218463583Y-177918904D01*
X218701678Y-177918904D01*
X218892154Y-177871285D01*
X218987392Y-177823666D01*
X219035011Y-177776047D01*
X219082630Y-177680809D01*
X219082630Y-177585571D01*
X219035011Y-177490333D01*
X218987392Y-177442714D01*
X218892154Y-177395095D01*
X218701678Y-177347476D01*
X218463583Y-177347476D01*
X218273107Y-177395095D01*
X218177869Y-177442714D01*
X218130250Y-177490333D01*
X218082630Y-177585571D01*
%TO.C,D39*%
X214320130Y-118292714D02*
X213320130Y-118292714D01*
X213320130Y-118530809D01*
X213367750Y-118673666D01*
X213462988Y-118768904D01*
X213558226Y-118816523D01*
X213748702Y-118864142D01*
X213891559Y-118864142D01*
X214082035Y-118816523D01*
X214177273Y-118768904D01*
X214272511Y-118673666D01*
X214320130Y-118530809D01*
X214320130Y-118292714D01*
X213320130Y-119197476D02*
X213320130Y-119816523D01*
X213701083Y-119483190D01*
X213701083Y-119626047D01*
X213748702Y-119721285D01*
X213796321Y-119768904D01*
X213891559Y-119816523D01*
X214129654Y-119816523D01*
X214224892Y-119768904D01*
X214272511Y-119721285D01*
X214320130Y-119626047D01*
X214320130Y-119340333D01*
X214272511Y-119245095D01*
X214224892Y-119197476D01*
X214320130Y-120292714D02*
X214320130Y-120483190D01*
X214272511Y-120578428D01*
X214224892Y-120626047D01*
X214082035Y-120721285D01*
X213891559Y-120768904D01*
X213510607Y-120768904D01*
X213415369Y-120721285D01*
X213367750Y-120673666D01*
X213320130Y-120578428D01*
X213320130Y-120387952D01*
X213367750Y-120292714D01*
X213415369Y-120245095D01*
X213510607Y-120197476D01*
X213748702Y-120197476D01*
X213843940Y-120245095D01*
X213891559Y-120292714D01*
X213939178Y-120387952D01*
X213939178Y-120578428D01*
X213891559Y-120673666D01*
X213843940Y-120721285D01*
X213748702Y-120768904D01*
%TO.C,D38*%
X214320130Y-99242714D02*
X213320130Y-99242714D01*
X213320130Y-99480809D01*
X213367750Y-99623666D01*
X213462988Y-99718904D01*
X213558226Y-99766523D01*
X213748702Y-99814142D01*
X213891559Y-99814142D01*
X214082035Y-99766523D01*
X214177273Y-99718904D01*
X214272511Y-99623666D01*
X214320130Y-99480809D01*
X214320130Y-99242714D01*
X213320130Y-100147476D02*
X213320130Y-100766523D01*
X213701083Y-100433190D01*
X213701083Y-100576047D01*
X213748702Y-100671285D01*
X213796321Y-100718904D01*
X213891559Y-100766523D01*
X214129654Y-100766523D01*
X214224892Y-100718904D01*
X214272511Y-100671285D01*
X214320130Y-100576047D01*
X214320130Y-100290333D01*
X214272511Y-100195095D01*
X214224892Y-100147476D01*
X213748702Y-101337952D02*
X213701083Y-101242714D01*
X213653464Y-101195095D01*
X213558226Y-101147476D01*
X213510607Y-101147476D01*
X213415369Y-101195095D01*
X213367750Y-101242714D01*
X213320130Y-101337952D01*
X213320130Y-101528428D01*
X213367750Y-101623666D01*
X213415369Y-101671285D01*
X213510607Y-101718904D01*
X213558226Y-101718904D01*
X213653464Y-101671285D01*
X213701083Y-101623666D01*
X213748702Y-101528428D01*
X213748702Y-101337952D01*
X213796321Y-101242714D01*
X213843940Y-101195095D01*
X213939178Y-101147476D01*
X214129654Y-101147476D01*
X214224892Y-101195095D01*
X214272511Y-101242714D01*
X214320130Y-101337952D01*
X214320130Y-101528428D01*
X214272511Y-101623666D01*
X214224892Y-101671285D01*
X214129654Y-101718904D01*
X213939178Y-101718904D01*
X213843940Y-101671285D01*
X213796321Y-101623666D01*
X213748702Y-101528428D01*
%TO.C,D37*%
X209557630Y-156392714D02*
X208557630Y-156392714D01*
X208557630Y-156630809D01*
X208605250Y-156773666D01*
X208700488Y-156868904D01*
X208795726Y-156916523D01*
X208986202Y-156964142D01*
X209129059Y-156964142D01*
X209319535Y-156916523D01*
X209414773Y-156868904D01*
X209510011Y-156773666D01*
X209557630Y-156630809D01*
X209557630Y-156392714D01*
X208557630Y-157297476D02*
X208557630Y-157916523D01*
X208938583Y-157583190D01*
X208938583Y-157726047D01*
X208986202Y-157821285D01*
X209033821Y-157868904D01*
X209129059Y-157916523D01*
X209367154Y-157916523D01*
X209462392Y-157868904D01*
X209510011Y-157821285D01*
X209557630Y-157726047D01*
X209557630Y-157440333D01*
X209510011Y-157345095D01*
X209462392Y-157297476D01*
X208557630Y-158249857D02*
X208557630Y-158916523D01*
X209557630Y-158487952D01*
%TO.C,D36*%
X204795130Y-137342714D02*
X203795130Y-137342714D01*
X203795130Y-137580809D01*
X203842750Y-137723666D01*
X203937988Y-137818904D01*
X204033226Y-137866523D01*
X204223702Y-137914142D01*
X204366559Y-137914142D01*
X204557035Y-137866523D01*
X204652273Y-137818904D01*
X204747511Y-137723666D01*
X204795130Y-137580809D01*
X204795130Y-137342714D01*
X203795130Y-138247476D02*
X203795130Y-138866523D01*
X204176083Y-138533190D01*
X204176083Y-138676047D01*
X204223702Y-138771285D01*
X204271321Y-138818904D01*
X204366559Y-138866523D01*
X204604654Y-138866523D01*
X204699892Y-138818904D01*
X204747511Y-138771285D01*
X204795130Y-138676047D01*
X204795130Y-138390333D01*
X204747511Y-138295095D01*
X204699892Y-138247476D01*
X203795130Y-139723666D02*
X203795130Y-139533190D01*
X203842750Y-139437952D01*
X203890369Y-139390333D01*
X204033226Y-139295095D01*
X204223702Y-139247476D01*
X204604654Y-139247476D01*
X204699892Y-139295095D01*
X204747511Y-139342714D01*
X204795130Y-139437952D01*
X204795130Y-139628428D01*
X204747511Y-139723666D01*
X204699892Y-139771285D01*
X204604654Y-139818904D01*
X204366559Y-139818904D01*
X204271321Y-139771285D01*
X204223702Y-139723666D01*
X204176083Y-139628428D01*
X204176083Y-139437952D01*
X204223702Y-139342714D01*
X204271321Y-139295095D01*
X204366559Y-139247476D01*
%TO.C,D35*%
X200032630Y-175442714D02*
X199032630Y-175442714D01*
X199032630Y-175680809D01*
X199080250Y-175823666D01*
X199175488Y-175918904D01*
X199270726Y-175966523D01*
X199461202Y-176014142D01*
X199604059Y-176014142D01*
X199794535Y-175966523D01*
X199889773Y-175918904D01*
X199985011Y-175823666D01*
X200032630Y-175680809D01*
X200032630Y-175442714D01*
X199032630Y-176347476D02*
X199032630Y-176966523D01*
X199413583Y-176633190D01*
X199413583Y-176776047D01*
X199461202Y-176871285D01*
X199508821Y-176918904D01*
X199604059Y-176966523D01*
X199842154Y-176966523D01*
X199937392Y-176918904D01*
X199985011Y-176871285D01*
X200032630Y-176776047D01*
X200032630Y-176490333D01*
X199985011Y-176395095D01*
X199937392Y-176347476D01*
X199032630Y-177871285D02*
X199032630Y-177395095D01*
X199508821Y-177347476D01*
X199461202Y-177395095D01*
X199413583Y-177490333D01*
X199413583Y-177728428D01*
X199461202Y-177823666D01*
X199508821Y-177871285D01*
X199604059Y-177918904D01*
X199842154Y-177918904D01*
X199937392Y-177871285D01*
X199985011Y-177823666D01*
X200032630Y-177728428D01*
X200032630Y-177490333D01*
X199985011Y-177395095D01*
X199937392Y-177347476D01*
%TO.C,D34*%
X195270130Y-118292714D02*
X194270130Y-118292714D01*
X194270130Y-118530809D01*
X194317750Y-118673666D01*
X194412988Y-118768904D01*
X194508226Y-118816523D01*
X194698702Y-118864142D01*
X194841559Y-118864142D01*
X195032035Y-118816523D01*
X195127273Y-118768904D01*
X195222511Y-118673666D01*
X195270130Y-118530809D01*
X195270130Y-118292714D01*
X194270130Y-119197476D02*
X194270130Y-119816523D01*
X194651083Y-119483190D01*
X194651083Y-119626047D01*
X194698702Y-119721285D01*
X194746321Y-119768904D01*
X194841559Y-119816523D01*
X195079654Y-119816523D01*
X195174892Y-119768904D01*
X195222511Y-119721285D01*
X195270130Y-119626047D01*
X195270130Y-119340333D01*
X195222511Y-119245095D01*
X195174892Y-119197476D01*
X194603464Y-120673666D02*
X195270130Y-120673666D01*
X194222511Y-120435571D02*
X194936797Y-120197476D01*
X194936797Y-120816523D01*
%TO.C,D33*%
X195270130Y-99242714D02*
X194270130Y-99242714D01*
X194270130Y-99480809D01*
X194317750Y-99623666D01*
X194412988Y-99718904D01*
X194508226Y-99766523D01*
X194698702Y-99814142D01*
X194841559Y-99814142D01*
X195032035Y-99766523D01*
X195127273Y-99718904D01*
X195222511Y-99623666D01*
X195270130Y-99480809D01*
X195270130Y-99242714D01*
X194270130Y-100147476D02*
X194270130Y-100766523D01*
X194651083Y-100433190D01*
X194651083Y-100576047D01*
X194698702Y-100671285D01*
X194746321Y-100718904D01*
X194841559Y-100766523D01*
X195079654Y-100766523D01*
X195174892Y-100718904D01*
X195222511Y-100671285D01*
X195270130Y-100576047D01*
X195270130Y-100290333D01*
X195222511Y-100195095D01*
X195174892Y-100147476D01*
X194270130Y-101099857D02*
X194270130Y-101718904D01*
X194651083Y-101385571D01*
X194651083Y-101528428D01*
X194698702Y-101623666D01*
X194746321Y-101671285D01*
X194841559Y-101718904D01*
X195079654Y-101718904D01*
X195174892Y-101671285D01*
X195222511Y-101623666D01*
X195270130Y-101528428D01*
X195270130Y-101242714D01*
X195222511Y-101147476D01*
X195174892Y-101099857D01*
%TO.C,D32*%
X190507630Y-156392714D02*
X189507630Y-156392714D01*
X189507630Y-156630809D01*
X189555250Y-156773666D01*
X189650488Y-156868904D01*
X189745726Y-156916523D01*
X189936202Y-156964142D01*
X190079059Y-156964142D01*
X190269535Y-156916523D01*
X190364773Y-156868904D01*
X190460011Y-156773666D01*
X190507630Y-156630809D01*
X190507630Y-156392714D01*
X189507630Y-157297476D02*
X189507630Y-157916523D01*
X189888583Y-157583190D01*
X189888583Y-157726047D01*
X189936202Y-157821285D01*
X189983821Y-157868904D01*
X190079059Y-157916523D01*
X190317154Y-157916523D01*
X190412392Y-157868904D01*
X190460011Y-157821285D01*
X190507630Y-157726047D01*
X190507630Y-157440333D01*
X190460011Y-157345095D01*
X190412392Y-157297476D01*
X189602869Y-158297476D02*
X189555250Y-158345095D01*
X189507630Y-158440333D01*
X189507630Y-158678428D01*
X189555250Y-158773666D01*
X189602869Y-158821285D01*
X189698107Y-158868904D01*
X189793345Y-158868904D01*
X189936202Y-158821285D01*
X190507630Y-158249857D01*
X190507630Y-158868904D01*
%TO.C,D31*%
X185745130Y-137342714D02*
X184745130Y-137342714D01*
X184745130Y-137580809D01*
X184792750Y-137723666D01*
X184887988Y-137818904D01*
X184983226Y-137866523D01*
X185173702Y-137914142D01*
X185316559Y-137914142D01*
X185507035Y-137866523D01*
X185602273Y-137818904D01*
X185697511Y-137723666D01*
X185745130Y-137580809D01*
X185745130Y-137342714D01*
X184745130Y-138247476D02*
X184745130Y-138866523D01*
X185126083Y-138533190D01*
X185126083Y-138676047D01*
X185173702Y-138771285D01*
X185221321Y-138818904D01*
X185316559Y-138866523D01*
X185554654Y-138866523D01*
X185649892Y-138818904D01*
X185697511Y-138771285D01*
X185745130Y-138676047D01*
X185745130Y-138390333D01*
X185697511Y-138295095D01*
X185649892Y-138247476D01*
X185745130Y-139818904D02*
X185745130Y-139247476D01*
X185745130Y-139533190D02*
X184745130Y-139533190D01*
X184887988Y-139437952D01*
X184983226Y-139342714D01*
X185030845Y-139247476D01*
%TO.C,D30*%
X180982630Y-175442714D02*
X179982630Y-175442714D01*
X179982630Y-175680809D01*
X180030250Y-175823666D01*
X180125488Y-175918904D01*
X180220726Y-175966523D01*
X180411202Y-176014142D01*
X180554059Y-176014142D01*
X180744535Y-175966523D01*
X180839773Y-175918904D01*
X180935011Y-175823666D01*
X180982630Y-175680809D01*
X180982630Y-175442714D01*
X179982630Y-176347476D02*
X179982630Y-176966523D01*
X180363583Y-176633190D01*
X180363583Y-176776047D01*
X180411202Y-176871285D01*
X180458821Y-176918904D01*
X180554059Y-176966523D01*
X180792154Y-176966523D01*
X180887392Y-176918904D01*
X180935011Y-176871285D01*
X180982630Y-176776047D01*
X180982630Y-176490333D01*
X180935011Y-176395095D01*
X180887392Y-176347476D01*
X179982630Y-177585571D02*
X179982630Y-177680809D01*
X180030250Y-177776047D01*
X180077869Y-177823666D01*
X180173107Y-177871285D01*
X180363583Y-177918904D01*
X180601678Y-177918904D01*
X180792154Y-177871285D01*
X180887392Y-177823666D01*
X180935011Y-177776047D01*
X180982630Y-177680809D01*
X180982630Y-177585571D01*
X180935011Y-177490333D01*
X180887392Y-177442714D01*
X180792154Y-177395095D01*
X180601678Y-177347476D01*
X180363583Y-177347476D01*
X180173107Y-177395095D01*
X180077869Y-177442714D01*
X180030250Y-177490333D01*
X179982630Y-177585571D01*
%TO.C,D29*%
X176220130Y-118292714D02*
X175220130Y-118292714D01*
X175220130Y-118530809D01*
X175267750Y-118673666D01*
X175362988Y-118768904D01*
X175458226Y-118816523D01*
X175648702Y-118864142D01*
X175791559Y-118864142D01*
X175982035Y-118816523D01*
X176077273Y-118768904D01*
X176172511Y-118673666D01*
X176220130Y-118530809D01*
X176220130Y-118292714D01*
X175315369Y-119245095D02*
X175267750Y-119292714D01*
X175220130Y-119387952D01*
X175220130Y-119626047D01*
X175267750Y-119721285D01*
X175315369Y-119768904D01*
X175410607Y-119816523D01*
X175505845Y-119816523D01*
X175648702Y-119768904D01*
X176220130Y-119197476D01*
X176220130Y-119816523D01*
X176220130Y-120292714D02*
X176220130Y-120483190D01*
X176172511Y-120578428D01*
X176124892Y-120626047D01*
X175982035Y-120721285D01*
X175791559Y-120768904D01*
X175410607Y-120768904D01*
X175315369Y-120721285D01*
X175267750Y-120673666D01*
X175220130Y-120578428D01*
X175220130Y-120387952D01*
X175267750Y-120292714D01*
X175315369Y-120245095D01*
X175410607Y-120197476D01*
X175648702Y-120197476D01*
X175743940Y-120245095D01*
X175791559Y-120292714D01*
X175839178Y-120387952D01*
X175839178Y-120578428D01*
X175791559Y-120673666D01*
X175743940Y-120721285D01*
X175648702Y-120768904D01*
%TO.C,D28*%
X176220130Y-99242714D02*
X175220130Y-99242714D01*
X175220130Y-99480809D01*
X175267750Y-99623666D01*
X175362988Y-99718904D01*
X175458226Y-99766523D01*
X175648702Y-99814142D01*
X175791559Y-99814142D01*
X175982035Y-99766523D01*
X176077273Y-99718904D01*
X176172511Y-99623666D01*
X176220130Y-99480809D01*
X176220130Y-99242714D01*
X175315369Y-100195095D02*
X175267750Y-100242714D01*
X175220130Y-100337952D01*
X175220130Y-100576047D01*
X175267750Y-100671285D01*
X175315369Y-100718904D01*
X175410607Y-100766523D01*
X175505845Y-100766523D01*
X175648702Y-100718904D01*
X176220130Y-100147476D01*
X176220130Y-100766523D01*
X175648702Y-101337952D02*
X175601083Y-101242714D01*
X175553464Y-101195095D01*
X175458226Y-101147476D01*
X175410607Y-101147476D01*
X175315369Y-101195095D01*
X175267750Y-101242714D01*
X175220130Y-101337952D01*
X175220130Y-101528428D01*
X175267750Y-101623666D01*
X175315369Y-101671285D01*
X175410607Y-101718904D01*
X175458226Y-101718904D01*
X175553464Y-101671285D01*
X175601083Y-101623666D01*
X175648702Y-101528428D01*
X175648702Y-101337952D01*
X175696321Y-101242714D01*
X175743940Y-101195095D01*
X175839178Y-101147476D01*
X176029654Y-101147476D01*
X176124892Y-101195095D01*
X176172511Y-101242714D01*
X176220130Y-101337952D01*
X176220130Y-101528428D01*
X176172511Y-101623666D01*
X176124892Y-101671285D01*
X176029654Y-101718904D01*
X175839178Y-101718904D01*
X175743940Y-101671285D01*
X175696321Y-101623666D01*
X175648702Y-101528428D01*
%TO.C,D27*%
X171457630Y-156392714D02*
X170457630Y-156392714D01*
X170457630Y-156630809D01*
X170505250Y-156773666D01*
X170600488Y-156868904D01*
X170695726Y-156916523D01*
X170886202Y-156964142D01*
X171029059Y-156964142D01*
X171219535Y-156916523D01*
X171314773Y-156868904D01*
X171410011Y-156773666D01*
X171457630Y-156630809D01*
X171457630Y-156392714D01*
X170552869Y-157345095D02*
X170505250Y-157392714D01*
X170457630Y-157487952D01*
X170457630Y-157726047D01*
X170505250Y-157821285D01*
X170552869Y-157868904D01*
X170648107Y-157916523D01*
X170743345Y-157916523D01*
X170886202Y-157868904D01*
X171457630Y-157297476D01*
X171457630Y-157916523D01*
X170457630Y-158249857D02*
X170457630Y-158916523D01*
X171457630Y-158487952D01*
%TO.C,D26*%
X166695130Y-137342714D02*
X165695130Y-137342714D01*
X165695130Y-137580809D01*
X165742750Y-137723666D01*
X165837988Y-137818904D01*
X165933226Y-137866523D01*
X166123702Y-137914142D01*
X166266559Y-137914142D01*
X166457035Y-137866523D01*
X166552273Y-137818904D01*
X166647511Y-137723666D01*
X166695130Y-137580809D01*
X166695130Y-137342714D01*
X165790369Y-138295095D02*
X165742750Y-138342714D01*
X165695130Y-138437952D01*
X165695130Y-138676047D01*
X165742750Y-138771285D01*
X165790369Y-138818904D01*
X165885607Y-138866523D01*
X165980845Y-138866523D01*
X166123702Y-138818904D01*
X166695130Y-138247476D01*
X166695130Y-138866523D01*
X165695130Y-139723666D02*
X165695130Y-139533190D01*
X165742750Y-139437952D01*
X165790369Y-139390333D01*
X165933226Y-139295095D01*
X166123702Y-139247476D01*
X166504654Y-139247476D01*
X166599892Y-139295095D01*
X166647511Y-139342714D01*
X166695130Y-139437952D01*
X166695130Y-139628428D01*
X166647511Y-139723666D01*
X166599892Y-139771285D01*
X166504654Y-139818904D01*
X166266559Y-139818904D01*
X166171321Y-139771285D01*
X166123702Y-139723666D01*
X166076083Y-139628428D01*
X166076083Y-139437952D01*
X166123702Y-139342714D01*
X166171321Y-139295095D01*
X166266559Y-139247476D01*
%TO.C,D25*%
X161932630Y-175442714D02*
X160932630Y-175442714D01*
X160932630Y-175680809D01*
X160980250Y-175823666D01*
X161075488Y-175918904D01*
X161170726Y-175966523D01*
X161361202Y-176014142D01*
X161504059Y-176014142D01*
X161694535Y-175966523D01*
X161789773Y-175918904D01*
X161885011Y-175823666D01*
X161932630Y-175680809D01*
X161932630Y-175442714D01*
X161027869Y-176395095D02*
X160980250Y-176442714D01*
X160932630Y-176537952D01*
X160932630Y-176776047D01*
X160980250Y-176871285D01*
X161027869Y-176918904D01*
X161123107Y-176966523D01*
X161218345Y-176966523D01*
X161361202Y-176918904D01*
X161932630Y-176347476D01*
X161932630Y-176966523D01*
X160932630Y-177871285D02*
X160932630Y-177395095D01*
X161408821Y-177347476D01*
X161361202Y-177395095D01*
X161313583Y-177490333D01*
X161313583Y-177728428D01*
X161361202Y-177823666D01*
X161408821Y-177871285D01*
X161504059Y-177918904D01*
X161742154Y-177918904D01*
X161837392Y-177871285D01*
X161885011Y-177823666D01*
X161932630Y-177728428D01*
X161932630Y-177490333D01*
X161885011Y-177395095D01*
X161837392Y-177347476D01*
%TO.C,D24*%
X157170130Y-118292714D02*
X156170130Y-118292714D01*
X156170130Y-118530809D01*
X156217750Y-118673666D01*
X156312988Y-118768904D01*
X156408226Y-118816523D01*
X156598702Y-118864142D01*
X156741559Y-118864142D01*
X156932035Y-118816523D01*
X157027273Y-118768904D01*
X157122511Y-118673666D01*
X157170130Y-118530809D01*
X157170130Y-118292714D01*
X156265369Y-119245095D02*
X156217750Y-119292714D01*
X156170130Y-119387952D01*
X156170130Y-119626047D01*
X156217750Y-119721285D01*
X156265369Y-119768904D01*
X156360607Y-119816523D01*
X156455845Y-119816523D01*
X156598702Y-119768904D01*
X157170130Y-119197476D01*
X157170130Y-119816523D01*
X156503464Y-120673666D02*
X157170130Y-120673666D01*
X156122511Y-120435571D02*
X156836797Y-120197476D01*
X156836797Y-120816523D01*
%TO.C,D23*%
X157170130Y-99242714D02*
X156170130Y-99242714D01*
X156170130Y-99480809D01*
X156217750Y-99623666D01*
X156312988Y-99718904D01*
X156408226Y-99766523D01*
X156598702Y-99814142D01*
X156741559Y-99814142D01*
X156932035Y-99766523D01*
X157027273Y-99718904D01*
X157122511Y-99623666D01*
X157170130Y-99480809D01*
X157170130Y-99242714D01*
X156265369Y-100195095D02*
X156217750Y-100242714D01*
X156170130Y-100337952D01*
X156170130Y-100576047D01*
X156217750Y-100671285D01*
X156265369Y-100718904D01*
X156360607Y-100766523D01*
X156455845Y-100766523D01*
X156598702Y-100718904D01*
X157170130Y-100147476D01*
X157170130Y-100766523D01*
X156170130Y-101099857D02*
X156170130Y-101718904D01*
X156551083Y-101385571D01*
X156551083Y-101528428D01*
X156598702Y-101623666D01*
X156646321Y-101671285D01*
X156741559Y-101718904D01*
X156979654Y-101718904D01*
X157074892Y-101671285D01*
X157122511Y-101623666D01*
X157170130Y-101528428D01*
X157170130Y-101242714D01*
X157122511Y-101147476D01*
X157074892Y-101099857D01*
%TO.C,D22*%
X152407630Y-156392714D02*
X151407630Y-156392714D01*
X151407630Y-156630809D01*
X151455250Y-156773666D01*
X151550488Y-156868904D01*
X151645726Y-156916523D01*
X151836202Y-156964142D01*
X151979059Y-156964142D01*
X152169535Y-156916523D01*
X152264773Y-156868904D01*
X152360011Y-156773666D01*
X152407630Y-156630809D01*
X152407630Y-156392714D01*
X151502869Y-157345095D02*
X151455250Y-157392714D01*
X151407630Y-157487952D01*
X151407630Y-157726047D01*
X151455250Y-157821285D01*
X151502869Y-157868904D01*
X151598107Y-157916523D01*
X151693345Y-157916523D01*
X151836202Y-157868904D01*
X152407630Y-157297476D01*
X152407630Y-157916523D01*
X151502869Y-158297476D02*
X151455250Y-158345095D01*
X151407630Y-158440333D01*
X151407630Y-158678428D01*
X151455250Y-158773666D01*
X151502869Y-158821285D01*
X151598107Y-158868904D01*
X151693345Y-158868904D01*
X151836202Y-158821285D01*
X152407630Y-158249857D01*
X152407630Y-158868904D01*
%TO.C,D21*%
X147645130Y-137342714D02*
X146645130Y-137342714D01*
X146645130Y-137580809D01*
X146692750Y-137723666D01*
X146787988Y-137818904D01*
X146883226Y-137866523D01*
X147073702Y-137914142D01*
X147216559Y-137914142D01*
X147407035Y-137866523D01*
X147502273Y-137818904D01*
X147597511Y-137723666D01*
X147645130Y-137580809D01*
X147645130Y-137342714D01*
X146740369Y-138295095D02*
X146692750Y-138342714D01*
X146645130Y-138437952D01*
X146645130Y-138676047D01*
X146692750Y-138771285D01*
X146740369Y-138818904D01*
X146835607Y-138866523D01*
X146930845Y-138866523D01*
X147073702Y-138818904D01*
X147645130Y-138247476D01*
X147645130Y-138866523D01*
X147645130Y-139818904D02*
X147645130Y-139247476D01*
X147645130Y-139533190D02*
X146645130Y-139533190D01*
X146787988Y-139437952D01*
X146883226Y-139342714D01*
X146930845Y-139247476D01*
%TO.C,D20*%
X148566380Y-190682714D02*
X147566380Y-190682714D01*
X147566380Y-190920809D01*
X147614000Y-191063666D01*
X147709238Y-191158904D01*
X147804476Y-191206523D01*
X147994952Y-191254142D01*
X148137809Y-191254142D01*
X148328285Y-191206523D01*
X148423523Y-191158904D01*
X148518761Y-191063666D01*
X148566380Y-190920809D01*
X148566380Y-190682714D01*
X147661619Y-191635095D02*
X147614000Y-191682714D01*
X147566380Y-191777952D01*
X147566380Y-192016047D01*
X147614000Y-192111285D01*
X147661619Y-192158904D01*
X147756857Y-192206523D01*
X147852095Y-192206523D01*
X147994952Y-192158904D01*
X148566380Y-191587476D01*
X148566380Y-192206523D01*
X147566380Y-192825571D02*
X147566380Y-192920809D01*
X147614000Y-193016047D01*
X147661619Y-193063666D01*
X147756857Y-193111285D01*
X147947333Y-193158904D01*
X148185428Y-193158904D01*
X148375904Y-193111285D01*
X148471142Y-193063666D01*
X148518761Y-193016047D01*
X148566380Y-192920809D01*
X148566380Y-192825571D01*
X148518761Y-192730333D01*
X148471142Y-192682714D01*
X148375904Y-192635095D01*
X148185428Y-192587476D01*
X147947333Y-192587476D01*
X147756857Y-192635095D01*
X147661619Y-192682714D01*
X147614000Y-192730333D01*
X147566380Y-192825571D01*
%TO.C,D19*%
X142882630Y-175442714D02*
X141882630Y-175442714D01*
X141882630Y-175680809D01*
X141930250Y-175823666D01*
X142025488Y-175918904D01*
X142120726Y-175966523D01*
X142311202Y-176014142D01*
X142454059Y-176014142D01*
X142644535Y-175966523D01*
X142739773Y-175918904D01*
X142835011Y-175823666D01*
X142882630Y-175680809D01*
X142882630Y-175442714D01*
X142882630Y-176966523D02*
X142882630Y-176395095D01*
X142882630Y-176680809D02*
X141882630Y-176680809D01*
X142025488Y-176585571D01*
X142120726Y-176490333D01*
X142168345Y-176395095D01*
X142882630Y-177442714D02*
X142882630Y-177633190D01*
X142835011Y-177728428D01*
X142787392Y-177776047D01*
X142644535Y-177871285D01*
X142454059Y-177918904D01*
X142073107Y-177918904D01*
X141977869Y-177871285D01*
X141930250Y-177823666D01*
X141882630Y-177728428D01*
X141882630Y-177537952D01*
X141930250Y-177442714D01*
X141977869Y-177395095D01*
X142073107Y-177347476D01*
X142311202Y-177347476D01*
X142406440Y-177395095D01*
X142454059Y-177442714D01*
X142501678Y-177537952D01*
X142501678Y-177728428D01*
X142454059Y-177823666D01*
X142406440Y-177871285D01*
X142311202Y-177918904D01*
%TO.C,D18*%
X138120130Y-118292714D02*
X137120130Y-118292714D01*
X137120130Y-118530809D01*
X137167750Y-118673666D01*
X137262988Y-118768904D01*
X137358226Y-118816523D01*
X137548702Y-118864142D01*
X137691559Y-118864142D01*
X137882035Y-118816523D01*
X137977273Y-118768904D01*
X138072511Y-118673666D01*
X138120130Y-118530809D01*
X138120130Y-118292714D01*
X138120130Y-119816523D02*
X138120130Y-119245095D01*
X138120130Y-119530809D02*
X137120130Y-119530809D01*
X137262988Y-119435571D01*
X137358226Y-119340333D01*
X137405845Y-119245095D01*
X137548702Y-120387952D02*
X137501083Y-120292714D01*
X137453464Y-120245095D01*
X137358226Y-120197476D01*
X137310607Y-120197476D01*
X137215369Y-120245095D01*
X137167750Y-120292714D01*
X137120130Y-120387952D01*
X137120130Y-120578428D01*
X137167750Y-120673666D01*
X137215369Y-120721285D01*
X137310607Y-120768904D01*
X137358226Y-120768904D01*
X137453464Y-120721285D01*
X137501083Y-120673666D01*
X137548702Y-120578428D01*
X137548702Y-120387952D01*
X137596321Y-120292714D01*
X137643940Y-120245095D01*
X137739178Y-120197476D01*
X137929654Y-120197476D01*
X138024892Y-120245095D01*
X138072511Y-120292714D01*
X138120130Y-120387952D01*
X138120130Y-120578428D01*
X138072511Y-120673666D01*
X138024892Y-120721285D01*
X137929654Y-120768904D01*
X137739178Y-120768904D01*
X137643940Y-120721285D01*
X137596321Y-120673666D01*
X137548702Y-120578428D01*
%TO.C,D17*%
X138120130Y-99242714D02*
X137120130Y-99242714D01*
X137120130Y-99480809D01*
X137167750Y-99623666D01*
X137262988Y-99718904D01*
X137358226Y-99766523D01*
X137548702Y-99814142D01*
X137691559Y-99814142D01*
X137882035Y-99766523D01*
X137977273Y-99718904D01*
X138072511Y-99623666D01*
X138120130Y-99480809D01*
X138120130Y-99242714D01*
X138120130Y-100766523D02*
X138120130Y-100195095D01*
X138120130Y-100480809D02*
X137120130Y-100480809D01*
X137262988Y-100385571D01*
X137358226Y-100290333D01*
X137405845Y-100195095D01*
X137120130Y-101099857D02*
X137120130Y-101766523D01*
X138120130Y-101337952D01*
%TO.C,D16*%
X133357630Y-156392714D02*
X132357630Y-156392714D01*
X132357630Y-156630809D01*
X132405250Y-156773666D01*
X132500488Y-156868904D01*
X132595726Y-156916523D01*
X132786202Y-156964142D01*
X132929059Y-156964142D01*
X133119535Y-156916523D01*
X133214773Y-156868904D01*
X133310011Y-156773666D01*
X133357630Y-156630809D01*
X133357630Y-156392714D01*
X133357630Y-157916523D02*
X133357630Y-157345095D01*
X133357630Y-157630809D02*
X132357630Y-157630809D01*
X132500488Y-157535571D01*
X132595726Y-157440333D01*
X132643345Y-157345095D01*
X132357630Y-158773666D02*
X132357630Y-158583190D01*
X132405250Y-158487952D01*
X132452869Y-158440333D01*
X132595726Y-158345095D01*
X132786202Y-158297476D01*
X133167154Y-158297476D01*
X133262392Y-158345095D01*
X133310011Y-158392714D01*
X133357630Y-158487952D01*
X133357630Y-158678428D01*
X133310011Y-158773666D01*
X133262392Y-158821285D01*
X133167154Y-158868904D01*
X132929059Y-158868904D01*
X132833821Y-158821285D01*
X132786202Y-158773666D01*
X132738583Y-158678428D01*
X132738583Y-158487952D01*
X132786202Y-158392714D01*
X132833821Y-158345095D01*
X132929059Y-158297476D01*
%TO.C,D15*%
X128595130Y-137342714D02*
X127595130Y-137342714D01*
X127595130Y-137580809D01*
X127642750Y-137723666D01*
X127737988Y-137818904D01*
X127833226Y-137866523D01*
X128023702Y-137914142D01*
X128166559Y-137914142D01*
X128357035Y-137866523D01*
X128452273Y-137818904D01*
X128547511Y-137723666D01*
X128595130Y-137580809D01*
X128595130Y-137342714D01*
X128595130Y-138866523D02*
X128595130Y-138295095D01*
X128595130Y-138580809D02*
X127595130Y-138580809D01*
X127737988Y-138485571D01*
X127833226Y-138390333D01*
X127880845Y-138295095D01*
X127595130Y-139771285D02*
X127595130Y-139295095D01*
X128071321Y-139247476D01*
X128023702Y-139295095D01*
X127976083Y-139390333D01*
X127976083Y-139628428D01*
X128023702Y-139723666D01*
X128071321Y-139771285D01*
X128166559Y-139818904D01*
X128404654Y-139818904D01*
X128499892Y-139771285D01*
X128547511Y-139723666D01*
X128595130Y-139628428D01*
X128595130Y-139390333D01*
X128547511Y-139295095D01*
X128499892Y-139247476D01*
%TO.C,D14*%
X131008285Y-189714380D02*
X131008285Y-188714380D01*
X130770190Y-188714380D01*
X130627333Y-188762000D01*
X130532095Y-188857238D01*
X130484476Y-188952476D01*
X130436857Y-189142952D01*
X130436857Y-189285809D01*
X130484476Y-189476285D01*
X130532095Y-189571523D01*
X130627333Y-189666761D01*
X130770190Y-189714380D01*
X131008285Y-189714380D01*
X129484476Y-189714380D02*
X130055904Y-189714380D01*
X129770190Y-189714380D02*
X129770190Y-188714380D01*
X129865428Y-188857238D01*
X129960666Y-188952476D01*
X130055904Y-189000095D01*
X128627333Y-189047714D02*
X128627333Y-189714380D01*
X128865428Y-188666761D02*
X129103523Y-189381047D01*
X128484476Y-189381047D01*
%TO.C,D13*%
X119070130Y-118292714D02*
X118070130Y-118292714D01*
X118070130Y-118530809D01*
X118117750Y-118673666D01*
X118212988Y-118768904D01*
X118308226Y-118816523D01*
X118498702Y-118864142D01*
X118641559Y-118864142D01*
X118832035Y-118816523D01*
X118927273Y-118768904D01*
X119022511Y-118673666D01*
X119070130Y-118530809D01*
X119070130Y-118292714D01*
X119070130Y-119816523D02*
X119070130Y-119245095D01*
X119070130Y-119530809D02*
X118070130Y-119530809D01*
X118212988Y-119435571D01*
X118308226Y-119340333D01*
X118355845Y-119245095D01*
X118070130Y-120149857D02*
X118070130Y-120768904D01*
X118451083Y-120435571D01*
X118451083Y-120578428D01*
X118498702Y-120673666D01*
X118546321Y-120721285D01*
X118641559Y-120768904D01*
X118879654Y-120768904D01*
X118974892Y-120721285D01*
X119022511Y-120673666D01*
X119070130Y-120578428D01*
X119070130Y-120292714D01*
X119022511Y-120197476D01*
X118974892Y-120149857D01*
%TO.C,D12*%
X119070130Y-99242714D02*
X118070130Y-99242714D01*
X118070130Y-99480809D01*
X118117750Y-99623666D01*
X118212988Y-99718904D01*
X118308226Y-99766523D01*
X118498702Y-99814142D01*
X118641559Y-99814142D01*
X118832035Y-99766523D01*
X118927273Y-99718904D01*
X119022511Y-99623666D01*
X119070130Y-99480809D01*
X119070130Y-99242714D01*
X119070130Y-100766523D02*
X119070130Y-100195095D01*
X119070130Y-100480809D02*
X118070130Y-100480809D01*
X118212988Y-100385571D01*
X118308226Y-100290333D01*
X118355845Y-100195095D01*
X118165369Y-101147476D02*
X118117750Y-101195095D01*
X118070130Y-101290333D01*
X118070130Y-101528428D01*
X118117750Y-101623666D01*
X118165369Y-101671285D01*
X118260607Y-101718904D01*
X118355845Y-101718904D01*
X118498702Y-101671285D01*
X119070130Y-101099857D01*
X119070130Y-101718904D01*
%TO.C,D11*%
X101576380Y-190427714D02*
X100576380Y-190427714D01*
X100576380Y-190665809D01*
X100624000Y-190808666D01*
X100719238Y-190903904D01*
X100814476Y-190951523D01*
X101004952Y-190999142D01*
X101147809Y-190999142D01*
X101338285Y-190951523D01*
X101433523Y-190903904D01*
X101528761Y-190808666D01*
X101576380Y-190665809D01*
X101576380Y-190427714D01*
X101576380Y-191951523D02*
X101576380Y-191380095D01*
X101576380Y-191665809D02*
X100576380Y-191665809D01*
X100719238Y-191570571D01*
X100814476Y-191475333D01*
X100862095Y-191380095D01*
X101576380Y-192903904D02*
X101576380Y-192332476D01*
X101576380Y-192618190D02*
X100576380Y-192618190D01*
X100719238Y-192522952D01*
X100814476Y-192427714D01*
X100862095Y-192332476D01*
%TO.C,D10*%
X111926380Y-175442714D02*
X110926380Y-175442714D01*
X110926380Y-175680809D01*
X110974000Y-175823666D01*
X111069238Y-175918904D01*
X111164476Y-175966523D01*
X111354952Y-176014142D01*
X111497809Y-176014142D01*
X111688285Y-175966523D01*
X111783523Y-175918904D01*
X111878761Y-175823666D01*
X111926380Y-175680809D01*
X111926380Y-175442714D01*
X111926380Y-176966523D02*
X111926380Y-176395095D01*
X111926380Y-176680809D02*
X110926380Y-176680809D01*
X111069238Y-176585571D01*
X111164476Y-176490333D01*
X111212095Y-176395095D01*
X110926380Y-177585571D02*
X110926380Y-177680809D01*
X110974000Y-177776047D01*
X111021619Y-177823666D01*
X111116857Y-177871285D01*
X111307333Y-177918904D01*
X111545428Y-177918904D01*
X111735904Y-177871285D01*
X111831142Y-177823666D01*
X111878761Y-177776047D01*
X111926380Y-177680809D01*
X111926380Y-177585571D01*
X111878761Y-177490333D01*
X111831142Y-177442714D01*
X111735904Y-177395095D01*
X111545428Y-177347476D01*
X111307333Y-177347476D01*
X111116857Y-177395095D01*
X111021619Y-177442714D01*
X110974000Y-177490333D01*
X110926380Y-177585571D01*
%TO.C,D9*%
X107163880Y-156868904D02*
X106163880Y-156868904D01*
X106163880Y-157107000D01*
X106211500Y-157249857D01*
X106306738Y-157345095D01*
X106401976Y-157392714D01*
X106592452Y-157440333D01*
X106735309Y-157440333D01*
X106925785Y-157392714D01*
X107021023Y-157345095D01*
X107116261Y-157249857D01*
X107163880Y-157107000D01*
X107163880Y-156868904D01*
X107163880Y-157916523D02*
X107163880Y-158107000D01*
X107116261Y-158202238D01*
X107068642Y-158249857D01*
X106925785Y-158345095D01*
X106735309Y-158392714D01*
X106354357Y-158392714D01*
X106259119Y-158345095D01*
X106211500Y-158297476D01*
X106163880Y-158202238D01*
X106163880Y-158011761D01*
X106211500Y-157916523D01*
X106259119Y-157868904D01*
X106354357Y-157821285D01*
X106592452Y-157821285D01*
X106687690Y-157868904D01*
X106735309Y-157916523D01*
X106782928Y-158011761D01*
X106782928Y-158202238D01*
X106735309Y-158297476D01*
X106687690Y-158345095D01*
X106592452Y-158392714D01*
%TO.C,D8*%
X104782630Y-137818904D02*
X103782630Y-137818904D01*
X103782630Y-138057000D01*
X103830250Y-138199857D01*
X103925488Y-138295095D01*
X104020726Y-138342714D01*
X104211202Y-138390333D01*
X104354059Y-138390333D01*
X104544535Y-138342714D01*
X104639773Y-138295095D01*
X104735011Y-138199857D01*
X104782630Y-138057000D01*
X104782630Y-137818904D01*
X104211202Y-138961761D02*
X104163583Y-138866523D01*
X104115964Y-138818904D01*
X104020726Y-138771285D01*
X103973107Y-138771285D01*
X103877869Y-138818904D01*
X103830250Y-138866523D01*
X103782630Y-138961761D01*
X103782630Y-139152238D01*
X103830250Y-139247476D01*
X103877869Y-139295095D01*
X103973107Y-139342714D01*
X104020726Y-139342714D01*
X104115964Y-139295095D01*
X104163583Y-139247476D01*
X104211202Y-139152238D01*
X104211202Y-138961761D01*
X104258821Y-138866523D01*
X104306440Y-138818904D01*
X104401678Y-138771285D01*
X104592154Y-138771285D01*
X104687392Y-138818904D01*
X104735011Y-138866523D01*
X104782630Y-138961761D01*
X104782630Y-139152238D01*
X104735011Y-139247476D01*
X104687392Y-139295095D01*
X104592154Y-139342714D01*
X104401678Y-139342714D01*
X104306440Y-139295095D01*
X104258821Y-139247476D01*
X104211202Y-139152238D01*
%TO.C,D7*%
X100020130Y-118768904D02*
X99020130Y-118768904D01*
X99020130Y-119007000D01*
X99067750Y-119149857D01*
X99162988Y-119245095D01*
X99258226Y-119292714D01*
X99448702Y-119340333D01*
X99591559Y-119340333D01*
X99782035Y-119292714D01*
X99877273Y-119245095D01*
X99972511Y-119149857D01*
X100020130Y-119007000D01*
X100020130Y-118768904D01*
X99020130Y-119673666D02*
X99020130Y-120340333D01*
X100020130Y-119911761D01*
%TO.C,D6*%
X100020130Y-99718904D02*
X99020130Y-99718904D01*
X99020130Y-99957000D01*
X99067750Y-100099857D01*
X99162988Y-100195095D01*
X99258226Y-100242714D01*
X99448702Y-100290333D01*
X99591559Y-100290333D01*
X99782035Y-100242714D01*
X99877273Y-100195095D01*
X99972511Y-100099857D01*
X100020130Y-99957000D01*
X100020130Y-99718904D01*
X99020130Y-101147476D02*
X99020130Y-100957000D01*
X99067750Y-100861761D01*
X99115369Y-100814142D01*
X99258226Y-100718904D01*
X99448702Y-100671285D01*
X99829654Y-100671285D01*
X99924892Y-100718904D01*
X99972511Y-100766523D01*
X100020130Y-100861761D01*
X100020130Y-101052238D01*
X99972511Y-101147476D01*
X99924892Y-101195095D01*
X99829654Y-101242714D01*
X99591559Y-101242714D01*
X99496321Y-101195095D01*
X99448702Y-101147476D01*
X99401083Y-101052238D01*
X99401083Y-100861761D01*
X99448702Y-100766523D01*
X99496321Y-100718904D01*
X99591559Y-100671285D01*
%TO.C,D5*%
X76811380Y-191668904D02*
X75811380Y-191668904D01*
X75811380Y-191907000D01*
X75859000Y-192049857D01*
X75954238Y-192145095D01*
X76049476Y-192192714D01*
X76239952Y-192240333D01*
X76382809Y-192240333D01*
X76573285Y-192192714D01*
X76668523Y-192145095D01*
X76763761Y-192049857D01*
X76811380Y-191907000D01*
X76811380Y-191668904D01*
X75811380Y-193145095D02*
X75811380Y-192668904D01*
X76287571Y-192621285D01*
X76239952Y-192668904D01*
X76192333Y-192764142D01*
X76192333Y-193002238D01*
X76239952Y-193097476D01*
X76287571Y-193145095D01*
X76382809Y-193192714D01*
X76620904Y-193192714D01*
X76716142Y-193145095D01*
X76763761Y-193097476D01*
X76811380Y-193002238D01*
X76811380Y-192764142D01*
X76763761Y-192668904D01*
X76716142Y-192621285D01*
%TO.C,D4*%
X80970130Y-175918904D02*
X79970130Y-175918904D01*
X79970130Y-176157000D01*
X80017750Y-176299857D01*
X80112988Y-176395095D01*
X80208226Y-176442714D01*
X80398702Y-176490333D01*
X80541559Y-176490333D01*
X80732035Y-176442714D01*
X80827273Y-176395095D01*
X80922511Y-176299857D01*
X80970130Y-176157000D01*
X80970130Y-175918904D01*
X80303464Y-177347476D02*
X80970130Y-177347476D01*
X79922511Y-177109380D02*
X80636797Y-176871285D01*
X80636797Y-177490333D01*
%TO.C,D3*%
X80970130Y-156868904D02*
X79970130Y-156868904D01*
X79970130Y-157107000D01*
X80017750Y-157249857D01*
X80112988Y-157345095D01*
X80208226Y-157392714D01*
X80398702Y-157440333D01*
X80541559Y-157440333D01*
X80732035Y-157392714D01*
X80827273Y-157345095D01*
X80922511Y-157249857D01*
X80970130Y-157107000D01*
X80970130Y-156868904D01*
X79970130Y-157773666D02*
X79970130Y-158392714D01*
X80351083Y-158059380D01*
X80351083Y-158202238D01*
X80398702Y-158297476D01*
X80446321Y-158345095D01*
X80541559Y-158392714D01*
X80779654Y-158392714D01*
X80874892Y-158345095D01*
X80922511Y-158297476D01*
X80970130Y-158202238D01*
X80970130Y-157916523D01*
X80922511Y-157821285D01*
X80874892Y-157773666D01*
%TO.C,D2*%
X80970130Y-137818904D02*
X79970130Y-137818904D01*
X79970130Y-138057000D01*
X80017750Y-138199857D01*
X80112988Y-138295095D01*
X80208226Y-138342714D01*
X80398702Y-138390333D01*
X80541559Y-138390333D01*
X80732035Y-138342714D01*
X80827273Y-138295095D01*
X80922511Y-138199857D01*
X80970130Y-138057000D01*
X80970130Y-137818904D01*
X80065369Y-138771285D02*
X80017750Y-138818904D01*
X79970130Y-138914142D01*
X79970130Y-139152238D01*
X80017750Y-139247476D01*
X80065369Y-139295095D01*
X80160607Y-139342714D01*
X80255845Y-139342714D01*
X80398702Y-139295095D01*
X80970130Y-138723666D01*
X80970130Y-139342714D01*
%TO.C,D1*%
X80970130Y-118768904D02*
X79970130Y-118768904D01*
X79970130Y-119007000D01*
X80017750Y-119149857D01*
X80112988Y-119245095D01*
X80208226Y-119292714D01*
X80398702Y-119340333D01*
X80541559Y-119340333D01*
X80732035Y-119292714D01*
X80827273Y-119245095D01*
X80922511Y-119149857D01*
X80970130Y-119007000D01*
X80970130Y-118768904D01*
X80970130Y-120292714D02*
X80970130Y-119721285D01*
X80970130Y-120007000D02*
X79970130Y-120007000D01*
X80112988Y-119911761D01*
X80208226Y-119816523D01*
X80255845Y-119721285D01*
%TO.C,CF3*%
X265800488Y-187425392D02*
X265848107Y-187473011D01*
X265990964Y-187520630D01*
X266086202Y-187520630D01*
X266229059Y-187473011D01*
X266324297Y-187377773D01*
X266371916Y-187282535D01*
X266419535Y-187092059D01*
X266419535Y-186949202D01*
X266371916Y-186758726D01*
X266324297Y-186663488D01*
X266229059Y-186568250D01*
X266086202Y-186520630D01*
X265990964Y-186520630D01*
X265848107Y-186568250D01*
X265800488Y-186615869D01*
X265038583Y-186996821D02*
X265371916Y-186996821D01*
X265371916Y-187520630D02*
X265371916Y-186520630D01*
X264895726Y-186520630D01*
X264610011Y-186520630D02*
X263990964Y-186520630D01*
X264324297Y-186901583D01*
X264181440Y-186901583D01*
X264086202Y-186949202D01*
X264038583Y-186996821D01*
X263990964Y-187092059D01*
X263990964Y-187330154D01*
X264038583Y-187425392D01*
X264086202Y-187473011D01*
X264181440Y-187520630D01*
X264467154Y-187520630D01*
X264562392Y-187473011D01*
X264610011Y-187425392D01*
%TO.C,C_X1*%
X258888080Y-194041795D02*
X258955424Y-194041795D01*
X259090111Y-193974451D01*
X259157454Y-193907108D01*
X259224798Y-193772421D01*
X259224798Y-193637734D01*
X259191126Y-193536719D01*
X259090111Y-193368360D01*
X258989096Y-193267345D01*
X258820737Y-193166329D01*
X258719722Y-193132658D01*
X258585035Y-193132658D01*
X258450348Y-193200001D01*
X258383004Y-193267345D01*
X258315661Y-193402032D01*
X258315661Y-193469375D01*
X258888080Y-194311169D02*
X258349332Y-194849917D01*
X257473867Y-194176482D02*
X257709569Y-195354993D01*
X257002462Y-194647887D02*
X258180974Y-194883589D01*
X257069806Y-195994757D02*
X257473867Y-195590696D01*
X257271836Y-195792726D02*
X256564729Y-195085619D01*
X256733088Y-195119291D01*
X256867775Y-195119291D01*
X256968790Y-195085619D01*
%TO.C,C_ucap1*%
X260238583Y-179302892D02*
X260286202Y-179350511D01*
X260429059Y-179398130D01*
X260524297Y-179398130D01*
X260667154Y-179350511D01*
X260762392Y-179255273D01*
X260810011Y-179160035D01*
X260857630Y-178969559D01*
X260857630Y-178826702D01*
X260810011Y-178636226D01*
X260762392Y-178540988D01*
X260667154Y-178445750D01*
X260524297Y-178398130D01*
X260429059Y-178398130D01*
X260286202Y-178445750D01*
X260238583Y-178493369D01*
X260048107Y-179493369D02*
X259286202Y-179493369D01*
X258619535Y-178731464D02*
X258619535Y-179398130D01*
X259048107Y-178731464D02*
X259048107Y-179255273D01*
X259000488Y-179350511D01*
X258905250Y-179398130D01*
X258762392Y-179398130D01*
X258667154Y-179350511D01*
X258619535Y-179302892D01*
X257714773Y-179350511D02*
X257810011Y-179398130D01*
X258000488Y-179398130D01*
X258095726Y-179350511D01*
X258143345Y-179302892D01*
X258190964Y-179207654D01*
X258190964Y-178921940D01*
X258143345Y-178826702D01*
X258095726Y-178779083D01*
X258000488Y-178731464D01*
X257810011Y-178731464D01*
X257714773Y-178779083D01*
X256857630Y-179398130D02*
X256857630Y-178874321D01*
X256905250Y-178779083D01*
X257000488Y-178731464D01*
X257190964Y-178731464D01*
X257286202Y-178779083D01*
X256857630Y-179350511D02*
X256952869Y-179398130D01*
X257190964Y-179398130D01*
X257286202Y-179350511D01*
X257333821Y-179255273D01*
X257333821Y-179160035D01*
X257286202Y-179064797D01*
X257190964Y-179017178D01*
X256952869Y-179017178D01*
X256857630Y-178969559D01*
X256381440Y-178731464D02*
X256381440Y-179731464D01*
X256381440Y-178779083D02*
X256286202Y-178731464D01*
X256095726Y-178731464D01*
X256000488Y-178779083D01*
X255952869Y-178826702D01*
X255905250Y-178921940D01*
X255905250Y-179207654D01*
X255952869Y-179302892D01*
X256000488Y-179350511D01*
X256095726Y-179398130D01*
X256286202Y-179398130D01*
X256381440Y-179350511D01*
X254952869Y-179398130D02*
X255524297Y-179398130D01*
X255238583Y-179398130D02*
X255238583Y-178398130D01*
X255333821Y-178540988D01*
X255429059Y-178636226D01*
X255524297Y-178683845D01*
%TO.C,C_F4*%
X230706142Y-183935809D02*
X230753761Y-183888190D01*
X230801380Y-183745333D01*
X230801380Y-183650095D01*
X230753761Y-183507238D01*
X230658523Y-183412000D01*
X230563285Y-183364380D01*
X230372809Y-183316761D01*
X230229952Y-183316761D01*
X230039476Y-183364380D01*
X229944238Y-183412000D01*
X229849000Y-183507238D01*
X229801380Y-183650095D01*
X229801380Y-183745333D01*
X229849000Y-183888190D01*
X229896619Y-183935809D01*
X230896619Y-184126285D02*
X230896619Y-184888190D01*
X230277571Y-185459619D02*
X230277571Y-185126285D01*
X230801380Y-185126285D02*
X229801380Y-185126285D01*
X229801380Y-185602476D01*
X230134714Y-186412000D02*
X230801380Y-186412000D01*
X229753761Y-186173904D02*
X230468047Y-185935809D01*
X230468047Y-186554857D01*
%TO.C,C_F2*%
X229843392Y-196511309D02*
X229891011Y-196463690D01*
X229938630Y-196320833D01*
X229938630Y-196225595D01*
X229891011Y-196082738D01*
X229795773Y-195987500D01*
X229700535Y-195939880D01*
X229510059Y-195892261D01*
X229367202Y-195892261D01*
X229176726Y-195939880D01*
X229081488Y-195987500D01*
X228986250Y-196082738D01*
X228938630Y-196225595D01*
X228938630Y-196320833D01*
X228986250Y-196463690D01*
X229033869Y-196511309D01*
X230033869Y-196701785D02*
X230033869Y-197463690D01*
X229414821Y-198035119D02*
X229414821Y-197701785D01*
X229938630Y-197701785D02*
X228938630Y-197701785D01*
X228938630Y-198177976D01*
X229033869Y-198511309D02*
X228986250Y-198558928D01*
X228938630Y-198654166D01*
X228938630Y-198892261D01*
X228986250Y-198987500D01*
X229033869Y-199035119D01*
X229129107Y-199082738D01*
X229224345Y-199082738D01*
X229367202Y-199035119D01*
X229938630Y-198463690D01*
X229938630Y-199082738D01*
%TO.C,C_F1*%
X234706990Y-181052742D02*
X234754609Y-181100361D01*
X234897466Y-181147980D01*
X234992704Y-181147980D01*
X235135561Y-181100361D01*
X235230800Y-181005123D01*
X235278419Y-180909885D01*
X235326038Y-180719409D01*
X235326038Y-180576552D01*
X235278419Y-180386076D01*
X235230800Y-180290838D01*
X235135561Y-180195600D01*
X234992704Y-180147980D01*
X234897466Y-180147980D01*
X234754609Y-180195600D01*
X234706990Y-180243219D01*
X234516514Y-181243219D02*
X233754609Y-181243219D01*
X233183180Y-180624171D02*
X233516514Y-180624171D01*
X233516514Y-181147980D02*
X233516514Y-180147980D01*
X233040323Y-180147980D01*
X232135561Y-181147980D02*
X232706990Y-181147980D01*
X232421276Y-181147980D02*
X232421276Y-180147980D01*
X232516514Y-180290838D01*
X232611752Y-180386076D01*
X232706990Y-180433695D01*
%TD*%
M02*
