M48
; DRILL file {KiCad (5.1.9)-1} date 05/14/21 18:08:02
; FORMAT={-:-/ absolute / inch / decimal}
; #@! TF.CreationDate,2021-05-14T18:08:02-04:00
; #@! TF.GenerationSoftware,Kicad,Pcbnew,(5.1.9)-1
; #@! TF.FileFunction,Plated,1,2,PTH
FMAT,2
INCH
T1C0.0157
T2C0.0236
T3C0.0354
T4C0.0394
T5C0.0579
T6C0.0591
%
G90
G05
T1
X6.5Y-7.7188
X7.185Y-7.83
X7.7162Y-4.1738
X7.7162Y-4.8925
X7.935Y-7.4863
X8.06Y-5.6738
X8.0625Y-7.125
X8.3413Y-6.4238
X8.435Y-6.6738
X8.61Y-7.38
X8.7188Y-7.5625
X8.7188Y-7.6356
X8.7188Y-7.6769
X8.75Y-6.4688
X8.81Y-7.33
X8.81Y-7.3694
X8.81Y-7.4087
X8.81Y-7.4481
X8.81Y-7.4875
X8.8125Y-7.1562
X8.875Y-7.6562
X8.875Y-7.7812
X8.9375Y-6.7812
X9.1015Y-7.039
X9.1875Y-6.875
X9.19Y-7.19
X9.375Y-6.7812
X9.41Y-6.94
X9.4688Y-6.875
X9.48Y-7.15
X9.5Y-6.7188
X9.61Y-7.18
X9.85Y-7.2318
X9.8999Y-7.2544
X9.99Y-7.26
X10.0689Y-7.9126
X10.1562Y-7.0
X10.185Y-6.655
X10.2788Y-6.58
X10.335Y-7.505
X10.4096Y-7.7605
X10.4099Y-7.8393
X10.4099Y-7.7204
X10.41Y-7.68
X10.4104Y-7.7999
X10.435Y-7.5175
X10.4663Y-7.4863
X10.5938Y-6.6562
X10.7812Y-7.4062
X10.9663Y-7.4238
X11.0Y-6.68
X11.4038Y-6.705
X11.435Y-7.6113
X11.6562Y-7.2812
X11.6875Y-7.125
X13.5938Y-6.875
X13.9062Y-6.0625
X14.16Y-4.23
X14.16Y-4.83
X14.16Y-5.58
X14.16Y-5.83
X14.25Y-6.5
X14.4375Y-3.8125
X14.51Y-6.73
X14.5312Y-4.8438
X14.5312Y-5.5938
X14.5312Y-5.8438
X14.66Y-4.13
X14.75Y-4.375
X14.787Y-4.3616
X14.8219Y-4.3799
X14.875Y-4.4062
X14.9636Y-4.08
T3
X14.2475Y-3.6738
X14.3475Y-3.6738
X15.06Y-3.9238
X15.06Y-4.0237
T4
X2.4975Y-3.8925
X2.4975Y-3.9909
X2.4975Y-4.0894
X3.0684Y-3.8925
X3.0684Y-4.0894
X13.8413Y-3.7988
X13.8413Y-3.8987
X13.8413Y-3.9987
X13.8413Y-4.0987
X14.0125Y-3.6875
X14.0125Y-3.7875
X14.0125Y-3.8875
X14.1125Y-3.6875
X14.1125Y-3.7875
X14.1125Y-3.8875
T5
X2.6288Y-4.605
X2.6288Y-5.355
X2.6288Y-6.105
X2.6288Y-6.855
X2.6288Y-7.605
X2.8788Y-4.505
X2.8788Y-5.255
X2.8788Y-6.005
X2.8788Y-6.755
X2.8788Y-7.505
X3.3788Y-3.855
X3.3788Y-4.605
X3.4725Y-6.105
X3.4725Y-7.605
X3.5662Y-5.355
X3.5662Y-7.605
X3.6287Y-3.755
X3.6287Y-4.505
X3.66Y-6.105
X3.7225Y-6.005
X3.7225Y-7.505
X3.8162Y-5.255
X3.8162Y-7.505
X3.8475Y-6.855
X3.91Y-6.005
X4.0975Y-6.755
X4.1288Y-3.855
X4.1288Y-4.605
X4.3788Y-3.755
X4.3788Y-4.505
X4.41Y-7.605
X4.5038Y-5.355
X4.66Y-7.505
X4.6913Y-6.105
X4.6913Y-7.605
X4.7538Y-5.255
X4.8788Y-3.855
X4.8788Y-4.605
X4.9413Y-6.005
X4.9413Y-7.505
X5.0663Y-6.855
X5.1288Y-3.755
X5.1288Y-4.505
X5.2538Y-5.355
X5.3163Y-6.755
X5.3475Y-7.605
X5.4413Y-6.105
X5.5038Y-5.255
X5.5975Y-7.505
X5.6288Y-3.855
X5.6288Y-4.605
X5.6913Y-6.005
X5.8163Y-6.855
X5.8788Y-3.755
X5.8788Y-4.505
X6.0038Y-5.355
X6.0663Y-6.755
X6.1913Y-6.105
X6.2538Y-5.255
X6.3788Y-3.855
X6.3788Y-4.605
X6.4413Y-6.005
X6.5663Y-6.855
X6.6288Y-3.755
X6.6288Y-4.505
X6.7538Y-5.355
X6.8163Y-6.755
X6.9413Y-6.105
X7.0038Y-5.255
X7.1288Y-3.855
X7.1288Y-4.605
X7.1913Y-6.005
X7.3163Y-6.855
X7.3788Y-3.755
X7.3788Y-4.505
X7.5038Y-5.355
X7.5663Y-6.755
X7.6913Y-6.105
X7.7538Y-5.255
X7.8788Y-3.855
X7.8788Y-4.605
X7.8788Y-7.605
X7.9413Y-6.005
X8.0663Y-6.855
X8.1288Y-3.755
X8.1288Y-4.505
X8.1288Y-7.505
X8.16Y-7.605
X8.2538Y-5.355
X8.3163Y-6.755
X8.41Y-7.505
X8.4413Y-6.105
X8.5038Y-5.255
X8.6288Y-3.855
X8.6288Y-4.605
X8.6913Y-6.005
X8.8163Y-6.855
X8.8788Y-3.755
X8.8788Y-4.505
X9.0038Y-5.355
X9.0663Y-6.755
X9.1913Y-6.105
X9.2538Y-5.255
X9.3788Y-3.855
X9.3788Y-4.605
X9.4413Y-6.005
X9.5663Y-6.855
X9.6288Y-3.755
X9.6288Y-4.505
X9.7538Y-5.355
X9.8163Y-6.755
X9.9413Y-6.105
X10.0038Y-5.255
X10.1288Y-3.855
X10.1288Y-4.605
X10.1913Y-6.005
X10.3163Y-6.855
X10.3788Y-3.755
X10.3788Y-4.505
X10.5038Y-5.355
X10.5663Y-6.755
X10.6913Y-6.105
X10.7538Y-5.255
X10.8788Y-3.855
X10.8788Y-4.605
X10.8788Y-7.605
X10.9413Y-6.005
X11.0663Y-6.855
X11.0663Y-7.605
X11.1288Y-3.755
X11.1288Y-4.505
X11.1288Y-7.505
X11.2538Y-5.355
X11.3163Y-6.755
X11.3163Y-7.505
X11.4413Y-6.105
X11.5038Y-5.255
X11.6288Y-3.855
X11.6288Y-4.605
X11.6288Y-7.605
X11.6913Y-6.005
X11.8163Y-6.855
X11.8788Y-3.755
X11.8788Y-4.505
X11.8788Y-7.505
X12.0038Y-5.355
X12.0663Y-6.755
X12.1913Y-6.105
X12.1913Y-7.605
X12.2538Y-5.255
X12.3788Y-3.855
X12.3788Y-4.605
X12.3788Y-7.605
X12.4413Y-6.005
X12.4413Y-7.505
X12.6288Y-3.755
X12.6288Y-4.505
X12.6288Y-7.505
X12.7538Y-5.355
X12.8475Y-6.855
X13.0038Y-5.255
X13.0975Y-6.755
X13.1288Y-3.855
X13.1288Y-7.605
X13.3788Y-3.755
X13.3788Y-7.505
X13.41Y-6.105
X13.5038Y-4.605
X13.66Y-6.005
X13.6913Y-5.355
X13.7538Y-4.505
X13.8788Y-6.855
X13.8788Y-7.605
X13.9413Y-5.255
X14.1288Y-6.755
X14.1288Y-7.505
X14.6288Y-4.605
X14.6288Y-5.355
X14.6288Y-6.105
X14.6288Y-6.855
X14.6288Y-7.605
X14.8788Y-4.505
X14.8788Y-5.255
X14.8788Y-6.005
X14.8788Y-6.755
X14.8788Y-7.505
T2
G00X14.6508Y-3.6327
M15
G01X14.6508Y-3.6563
M16
G05
G00X14.6508Y-3.7874
M15
G01X14.6508Y-3.8307
M16
G05
G00X14.9909Y-3.6327
M15
G01X14.9909Y-3.6563
M16
G05
G00X14.9909Y-3.7874
M15
G01X14.9909Y-3.8307
M16
G05
T6
G00X2.7672Y-3.7705
M15
G01X2.8184Y-3.7705
M16
G05
G00X2.7672Y-4.2114
M15
G01X2.8184Y-4.2114
M16
G05
T0
M30
