M48
; DRILL file {KiCad (5.1.9)-1} date 05/14/21 18:08:02
; FORMAT={-:-/ absolute / inch / decimal}
; #@! TF.CreationDate,2021-05-14T18:08:02-04:00
; #@! TF.GenerationSoftware,Kicad,Pcbnew,(5.1.9)-1
; #@! TF.FileFunction,NonPlated,1,2,NPTH
FMAT,2
INCH
T1C0.0256
T2C0.0689
T3C0.1200
T4C0.1570
%
G90
G05
T1
X14.7071Y-3.7882
X14.9346Y-3.7882
T2
X2.5787Y-4.705
X2.5787Y-5.455
X2.5787Y-6.205
X2.5787Y-6.955
X2.5787Y-7.705
X2.9787Y-4.705
X2.9787Y-5.455
X2.9787Y-6.205
X2.9787Y-6.955
X2.9787Y-7.705
X3.3287Y-3.955
X3.3287Y-4.705
X3.4225Y-6.205
X3.4225Y-7.705
X3.5162Y-5.455
X3.5162Y-7.705
X3.61Y-6.205
X3.7287Y-3.955
X3.7287Y-4.705
X3.7975Y-6.955
X3.8225Y-6.205
X3.8225Y-7.705
X3.9162Y-5.455
X3.9162Y-7.705
X4.01Y-6.205
X4.0788Y-3.955
X4.0788Y-4.705
X4.1975Y-6.955
X4.36Y-7.705
X4.4538Y-5.455
X4.4787Y-3.955
X4.4787Y-4.705
X4.6413Y-6.205
X4.6413Y-7.705
X4.76Y-7.705
X4.8288Y-3.955
X4.8288Y-4.705
X4.8537Y-5.455
X5.0163Y-6.955
X5.0412Y-6.205
X5.0412Y-7.705
X5.2038Y-5.455
X5.2287Y-3.955
X5.2287Y-4.705
X5.2975Y-7.705
X5.3913Y-6.205
X5.4162Y-6.955
X5.5787Y-3.955
X5.5787Y-4.705
X5.6037Y-5.455
X5.6975Y-7.705
X5.7662Y-6.955
X5.7912Y-6.205
X5.9537Y-5.455
X5.9787Y-3.955
X5.9787Y-4.705
X6.1412Y-6.205
X6.1662Y-6.955
X6.3287Y-3.955
X6.3287Y-4.705
X6.3537Y-5.455
X6.5162Y-6.955
X6.5412Y-6.205
X6.7037Y-5.455
X6.7287Y-3.955
X6.7287Y-4.705
X6.8912Y-6.205
X6.9162Y-6.955
X7.0787Y-3.955
X7.0787Y-4.705
X7.1037Y-5.455
X7.2662Y-6.955
X7.2912Y-6.205
X7.4537Y-5.455
X7.4787Y-3.955
X7.4787Y-4.705
X7.6412Y-6.205
X7.6662Y-6.955
X7.8287Y-3.955
X7.8287Y-4.705
X7.8287Y-7.705
X7.8537Y-5.455
X8.0162Y-6.955
X8.0412Y-6.205
X8.11Y-7.705
X8.2037Y-5.455
X8.2287Y-3.955
X8.2287Y-4.705
X8.2287Y-7.705
X8.3912Y-6.205
X8.4162Y-6.955
X8.51Y-7.705
X8.5787Y-3.955
X8.5787Y-4.705
X8.6037Y-5.455
X8.7662Y-6.955
X8.7912Y-6.205
X8.9537Y-5.455
X8.9787Y-3.955
X8.9787Y-4.705
X9.1412Y-6.205
X9.1662Y-6.955
X9.3287Y-3.955
X9.3287Y-4.705
X9.3537Y-5.455
X9.5162Y-6.955
X9.5412Y-6.205
X9.7037Y-5.455
X9.7287Y-3.955
X9.7287Y-4.705
X9.8912Y-6.205
X9.9162Y-6.955
X10.0787Y-3.955
X10.0787Y-4.705
X10.1037Y-5.455
X10.2662Y-6.955
X10.2912Y-6.205
X10.4537Y-5.455
X10.4787Y-3.955
X10.4787Y-4.705
X10.6412Y-6.205
X10.6662Y-6.955
X10.8287Y-3.955
X10.8287Y-4.705
X10.8287Y-7.705
X10.8537Y-5.455
X11.0162Y-6.955
X11.0162Y-7.705
X11.0412Y-6.205
X11.2037Y-5.455
X11.2287Y-3.955
X11.2287Y-4.705
X11.2287Y-7.705
X11.3912Y-6.205
X11.4162Y-6.955
X11.4162Y-7.705
X11.5787Y-3.955
X11.5787Y-4.705
X11.5787Y-7.705
X11.6037Y-5.455
X11.7662Y-6.955
X11.7912Y-6.205
X11.9537Y-5.455
X11.9787Y-3.955
X11.9787Y-4.705
X11.9787Y-7.705
X12.1412Y-6.205
X12.1412Y-7.705
X12.1662Y-6.955
X12.3287Y-3.955
X12.3287Y-4.705
X12.3287Y-7.705
X12.3537Y-5.455
X12.5412Y-6.205
X12.5412Y-7.705
X12.7037Y-5.455
X12.7287Y-3.955
X12.7287Y-4.705
X12.7287Y-7.705
X12.7975Y-6.955
X13.0787Y-3.955
X13.0787Y-7.705
X13.1037Y-5.455
X13.1975Y-6.955
X13.36Y-6.205
X13.4537Y-4.705
X13.4787Y-3.955
X13.4787Y-7.705
X13.6412Y-5.455
X13.76Y-6.205
X13.8287Y-6.955
X13.8287Y-7.705
X13.8537Y-4.705
X14.0412Y-5.455
X14.2287Y-6.955
X14.2287Y-7.705
X14.5787Y-4.705
X14.5787Y-5.455
X14.5787Y-6.205
X14.5787Y-6.955
X14.5787Y-7.705
X14.9787Y-4.705
X14.9787Y-5.455
X14.9787Y-6.205
X14.9787Y-6.955
X14.9787Y-7.705
T3
X3.5288Y-6.68
X4.4662Y-6.68
X5.7787Y-7.98
X6.3415Y-7.98
X10.2785Y-7.98
X10.2788Y-7.98
X13.0913Y-5.93
X13.185Y-4.43
X14.0288Y-5.93
X14.1225Y-4.43
T4
X2.7788Y-4.705
X2.7788Y-5.455
X2.7788Y-6.205
X2.7788Y-6.955
X2.7788Y-7.705
X3.5288Y-3.955
X3.5288Y-4.705
X3.5288Y-7.28
X3.6225Y-6.205
X3.6225Y-7.705
X3.7163Y-5.455
X3.7163Y-7.705
X3.81Y-6.205
X3.9975Y-6.955
X4.2787Y-3.955
X4.2787Y-4.705
X4.4662Y-7.28
X4.56Y-7.705
X4.6537Y-5.455
X4.8412Y-6.205
X4.8412Y-7.705
X5.0287Y-3.955
X5.0287Y-4.705
X5.2162Y-6.955
X5.4037Y-5.455
X5.4975Y-7.705
X5.5912Y-6.205
X5.7787Y-3.955
X5.7787Y-4.705
X5.7787Y-7.38
X5.9662Y-6.955
X6.1537Y-5.455
X6.3412Y-6.205
X6.3415Y-7.38
X6.5287Y-3.955
X6.5287Y-4.705
X6.7162Y-6.955
X6.9037Y-5.455
X7.0912Y-6.205
X7.2787Y-3.955
X7.2787Y-4.705
X7.4662Y-6.955
X7.6537Y-5.455
X7.8412Y-6.205
X8.0288Y-3.955
X8.0288Y-4.705
X8.0288Y-7.705
X8.2163Y-6.955
X8.31Y-7.705
X8.4038Y-5.455
X8.5913Y-6.205
X8.7788Y-3.955
X8.7788Y-4.705
X8.9663Y-6.955
X9.1538Y-5.455
X9.3413Y-6.205
X9.5288Y-3.955
X9.5288Y-4.705
X9.7163Y-6.955
X9.9038Y-5.455
X10.0913Y-6.205
X10.2785Y-7.38
X10.2788Y-3.955
X10.2788Y-4.705
X10.2788Y-7.38
X10.4663Y-6.955
X10.6538Y-5.455
X10.8413Y-6.205
X11.0288Y-3.955
X11.0288Y-4.705
X11.0288Y-7.705
X11.2163Y-6.955
X11.2163Y-7.705
X11.4038Y-5.455
X11.5913Y-6.205
X11.7788Y-3.955
X11.7788Y-4.705
X11.7788Y-7.705
X11.9663Y-6.955
X12.1538Y-5.455
X12.3413Y-6.205
X12.3413Y-7.705
X12.5288Y-3.955
X12.5288Y-4.705
X12.5288Y-7.705
X12.9038Y-5.455
X12.9975Y-6.955
X13.0913Y-6.53
X13.185Y-5.03
X13.2788Y-3.955
X13.2788Y-7.705
X13.56Y-6.205
X13.6538Y-4.705
X13.8413Y-5.455
X14.0288Y-6.53
X14.0288Y-6.955
X14.0288Y-7.705
X14.1225Y-5.03
X14.7788Y-4.705
X14.7788Y-5.455
X14.7788Y-6.205
X14.7788Y-6.955
X14.7788Y-7.705
T0
M30
