%TF.GenerationSoftware,KiCad,Pcbnew,(5.1.9)-1*%
%TF.CreationDate,2021-05-14T18:07:59-04:00*%
%TF.ProjectId,rnm-75E,726e6d2d-3735-4452-9e6b-696361645f70,rev?*%
%TF.SameCoordinates,Original*%
%TF.FileFunction,Legend,Top*%
%TF.FilePolarity,Positive*%
%FSLAX46Y46*%
G04 Gerber Fmt 4.6, Leading zero omitted, Abs format (unit mm)*
G04 Created by KiCad (PCBNEW (5.1.9)-1) date 2021-05-14 18:07:59*
%MOMM*%
%LPD*%
G01*
G04 APERTURE LIST*
%ADD10C,0.150000*%
%ADD11C,0.120000*%
G04 APERTURE END LIST*
D10*
X360090922Y-100227380D02*
X360067113Y-100417857D01*
X360471875Y-100227380D02*
X360448065Y-100417857D01*
X360775446Y-101227380D02*
X360900446Y-100227380D01*
X362001636Y-100560714D02*
X362108779Y-101227380D01*
X362358779Y-100751190D01*
X362489732Y-101227380D01*
X362763541Y-100560714D01*
X363489732Y-101227380D02*
X363555208Y-100703571D01*
X363519494Y-100608333D01*
X363430208Y-100560714D01*
X363239732Y-100560714D01*
X363138541Y-100608333D01*
X363495684Y-101179761D02*
X363394494Y-101227380D01*
X363156398Y-101227380D01*
X363067113Y-101179761D01*
X363031398Y-101084523D01*
X363043303Y-100989285D01*
X363102827Y-100894047D01*
X363204017Y-100846428D01*
X363442113Y-100846428D01*
X363543303Y-100798809D01*
X363924255Y-101179761D02*
X364013541Y-101227380D01*
X364204017Y-101227380D01*
X364305208Y-101179761D01*
X364364732Y-101084523D01*
X364370684Y-101036904D01*
X364334970Y-100941666D01*
X364245684Y-100894047D01*
X364102827Y-100894047D01*
X364013541Y-100846428D01*
X363977827Y-100751190D01*
X363983779Y-100703571D01*
X364043303Y-100608333D01*
X364144494Y-100560714D01*
X364287351Y-100560714D01*
X364376636Y-100608333D01*
X365680208Y-101227380D02*
X365590922Y-101179761D01*
X365549255Y-101132142D01*
X365513541Y-101036904D01*
X365549255Y-100751190D01*
X365608779Y-100655952D01*
X365662351Y-100608333D01*
X365763541Y-100560714D01*
X365906398Y-100560714D01*
X365995684Y-100608333D01*
X366037351Y-100655952D01*
X366073065Y-100751190D01*
X366037351Y-101036904D01*
X365977827Y-101132142D01*
X365924255Y-101179761D01*
X365823065Y-101227380D01*
X365680208Y-101227380D01*
X366525446Y-100560714D02*
X366442113Y-101227380D01*
X366513541Y-100655952D02*
X366567113Y-100608333D01*
X366668303Y-100560714D01*
X366811160Y-100560714D01*
X366900446Y-100608333D01*
X366936160Y-100703571D01*
X366870684Y-101227380D01*
X367781398Y-101179761D02*
X367680208Y-101227380D01*
X367489732Y-101227380D01*
X367400446Y-101179761D01*
X367358779Y-101132142D01*
X367323065Y-101036904D01*
X367358779Y-100751190D01*
X367418303Y-100655952D01*
X367471875Y-100608333D01*
X367573065Y-100560714D01*
X367763541Y-100560714D01*
X367852827Y-100608333D01*
X368590922Y-101179761D02*
X368489732Y-101227380D01*
X368299255Y-101227380D01*
X368209970Y-101179761D01*
X368174255Y-101084523D01*
X368221875Y-100703571D01*
X368281398Y-100608333D01*
X368382589Y-100560714D01*
X368573065Y-100560714D01*
X368662351Y-100608333D01*
X368698065Y-100703571D01*
X368686160Y-100798809D01*
X368198065Y-100894047D01*
X369823065Y-101227380D02*
X369948065Y-100227380D01*
X370251636Y-101227380D02*
X370317113Y-100703571D01*
X370281398Y-100608333D01*
X370192113Y-100560714D01*
X370049255Y-100560714D01*
X369948065Y-100608333D01*
X369894494Y-100655952D01*
X371114732Y-101179761D02*
X371013541Y-101227380D01*
X370823065Y-101227380D01*
X370733779Y-101179761D01*
X370698065Y-101084523D01*
X370745684Y-100703571D01*
X370805208Y-100608333D01*
X370906398Y-100560714D01*
X371096875Y-100560714D01*
X371186160Y-100608333D01*
X371221875Y-100703571D01*
X371209970Y-100798809D01*
X370721875Y-100894047D01*
X371584970Y-101227380D02*
X371668303Y-100560714D01*
X371644494Y-100751190D02*
X371704017Y-100655952D01*
X371757589Y-100608333D01*
X371858779Y-100560714D01*
X371954017Y-100560714D01*
X372590922Y-101179761D02*
X372489732Y-101227380D01*
X372299255Y-101227380D01*
X372209970Y-101179761D01*
X372174255Y-101084523D01*
X372221875Y-100703571D01*
X372281398Y-100608333D01*
X372382589Y-100560714D01*
X372573065Y-100560714D01*
X372662351Y-100608333D01*
X372698065Y-100703571D01*
X372686160Y-100798809D01*
X372198065Y-100894047D01*
X373763541Y-100560714D02*
X374144494Y-100560714D01*
X373948065Y-100227380D02*
X373840922Y-101084523D01*
X373876636Y-101179761D01*
X373965922Y-101227380D01*
X374061160Y-101227380D01*
X374537351Y-101227380D02*
X374448065Y-101179761D01*
X374406398Y-101132142D01*
X374370684Y-101036904D01*
X374406398Y-100751190D01*
X374465922Y-100655952D01*
X374519494Y-100608333D01*
X374620684Y-100560714D01*
X374763541Y-100560714D01*
X374852827Y-100608333D01*
X374894494Y-100655952D01*
X374930208Y-100751190D01*
X374894494Y-101036904D01*
X374834970Y-101132142D01*
X374781398Y-101179761D01*
X374680208Y-101227380D01*
X374537351Y-101227380D01*
X375442113Y-101227380D02*
X375352827Y-101179761D01*
X375311160Y-101132142D01*
X375275446Y-101036904D01*
X375311160Y-100751190D01*
X375370684Y-100655952D01*
X375424255Y-100608333D01*
X375525446Y-100560714D01*
X375668303Y-100560714D01*
X375757589Y-100608333D01*
X375799255Y-100655952D01*
X375834970Y-100751190D01*
X375799255Y-101036904D01*
X375739732Y-101132142D01*
X375686160Y-101179761D01*
X375584970Y-101227380D01*
X375442113Y-101227380D01*
X376281398Y-100227380D02*
X376257589Y-100417857D01*
X376662351Y-100227380D02*
X376638541Y-100417857D01*
X366584970Y-102496428D02*
X367346875Y-102496428D01*
X367763541Y-102591666D02*
X368239732Y-102591666D01*
X367632589Y-102877380D02*
X368090922Y-101877380D01*
X368299255Y-102877380D01*
X368715922Y-102210714D02*
X368632589Y-102877380D01*
X368704017Y-102305952D02*
X368757589Y-102258333D01*
X368858779Y-102210714D01*
X369001636Y-102210714D01*
X369090922Y-102258333D01*
X369126636Y-102353571D01*
X369061160Y-102877380D01*
X369477827Y-102210714D02*
X369858779Y-102210714D01*
X369662351Y-101877380D02*
X369555208Y-102734523D01*
X369590922Y-102829761D01*
X369680208Y-102877380D01*
X369775446Y-102877380D01*
X370108779Y-102877380D02*
X370233779Y-101877380D01*
X370537351Y-102877380D02*
X370602827Y-102353571D01*
X370567113Y-102258333D01*
X370477827Y-102210714D01*
X370334970Y-102210714D01*
X370233779Y-102258333D01*
X370180208Y-102305952D01*
X371156398Y-102877380D02*
X371067113Y-102829761D01*
X371025446Y-102782142D01*
X370989732Y-102686904D01*
X371025446Y-102401190D01*
X371084970Y-102305952D01*
X371138541Y-102258333D01*
X371239732Y-102210714D01*
X371382589Y-102210714D01*
X371471875Y-102258333D01*
X371513541Y-102305952D01*
X371549255Y-102401190D01*
X371513541Y-102686904D01*
X371454017Y-102782142D01*
X371400446Y-102829761D01*
X371299255Y-102877380D01*
X371156398Y-102877380D01*
X372001636Y-102210714D02*
X371918303Y-102877380D01*
X371989732Y-102305952D02*
X372043303Y-102258333D01*
X372144494Y-102210714D01*
X372287351Y-102210714D01*
X372376636Y-102258333D01*
X372412351Y-102353571D01*
X372346875Y-102877380D01*
X372811160Y-102210714D02*
X372965922Y-102877380D01*
X373287351Y-102210714D02*
X372965922Y-102877380D01*
X372840922Y-103115476D01*
X372787351Y-103163095D01*
X372686160Y-103210714D01*
X374823065Y-102877380D02*
X374346875Y-102877380D01*
X374471875Y-101877380D01*
X375668303Y-102210714D02*
X375584970Y-102877380D01*
X375239732Y-102210714D02*
X375174255Y-102734523D01*
X375209970Y-102829761D01*
X375299255Y-102877380D01*
X375442113Y-102877380D01*
X375543303Y-102829761D01*
X375596875Y-102782142D01*
X376204017Y-102877380D02*
X376114732Y-102829761D01*
X376073065Y-102782142D01*
X376037351Y-102686904D01*
X376073065Y-102401190D01*
X376132589Y-102305952D01*
X376186160Y-102258333D01*
X376287351Y-102210714D01*
X376430208Y-102210714D01*
X376519494Y-102258333D01*
X376561160Y-102305952D01*
X376596875Y-102401190D01*
X376561160Y-102686904D01*
X376501636Y-102782142D01*
X376448065Y-102829761D01*
X376346875Y-102877380D01*
X376204017Y-102877380D01*
X62873511Y-93321130D02*
X62540178Y-92844940D01*
X62302083Y-93321130D02*
X62302083Y-92321130D01*
X62683035Y-92321130D01*
X62778273Y-92368750D01*
X62825892Y-92416369D01*
X62873511Y-92511607D01*
X62873511Y-92654464D01*
X62825892Y-92749702D01*
X62778273Y-92797321D01*
X62683035Y-92844940D01*
X62302083Y-92844940D01*
X63302083Y-93321130D02*
X63302083Y-92321130D01*
X63873511Y-93321130D01*
X63873511Y-92321130D01*
X64349702Y-93321130D02*
X64349702Y-92321130D01*
X64683035Y-93035416D01*
X65016369Y-92321130D01*
X65016369Y-93321130D01*
X65397321Y-92321130D02*
X66063988Y-92321130D01*
X65635416Y-93321130D01*
X66921130Y-92321130D02*
X66444940Y-92321130D01*
X66397321Y-92797321D01*
X66444940Y-92749702D01*
X66540178Y-92702083D01*
X66778273Y-92702083D01*
X66873511Y-92749702D01*
X66921130Y-92797321D01*
X66968750Y-92892559D01*
X66968750Y-93130654D01*
X66921130Y-93225892D01*
X66873511Y-93273511D01*
X66778273Y-93321130D01*
X66540178Y-93321130D01*
X66444940Y-93273511D01*
X66397321Y-93225892D01*
X67397321Y-92797321D02*
X67730654Y-92797321D01*
X67873511Y-93321130D02*
X67397321Y-93321130D01*
X67397321Y-92321130D01*
X67873511Y-92321130D01*
X68302083Y-92940178D02*
X69063988Y-92940178D01*
X70111607Y-93321130D02*
X69778273Y-92844940D01*
X69540178Y-93321130D02*
X69540178Y-92321130D01*
X69921130Y-92321130D01*
X70016369Y-92368750D01*
X70063988Y-92416369D01*
X70111607Y-92511607D01*
X70111607Y-92654464D01*
X70063988Y-92749702D01*
X70016369Y-92797321D01*
X69921130Y-92844940D01*
X69540178Y-92844940D01*
X70921130Y-93273511D02*
X70825892Y-93321130D01*
X70635416Y-93321130D01*
X70540178Y-93273511D01*
X70492559Y-93178273D01*
X70492559Y-92797321D01*
X70540178Y-92702083D01*
X70635416Y-92654464D01*
X70825892Y-92654464D01*
X70921130Y-92702083D01*
X70968750Y-92797321D01*
X70968750Y-92892559D01*
X70492559Y-92987797D01*
X71302083Y-92654464D02*
X71540178Y-93321130D01*
X71778273Y-92654464D01*
X72683035Y-93321130D02*
X72111607Y-93321130D01*
X72397321Y-93321130D02*
X72397321Y-92321130D01*
X72302083Y-92463988D01*
X72206845Y-92559226D01*
X72111607Y-92606845D01*
X164578345Y-194571880D02*
X164578345Y-193571880D01*
X164816440Y-193571880D01*
X164959297Y-193619500D01*
X165054535Y-193714738D01*
X165102154Y-193809976D01*
X165149773Y-194000452D01*
X165149773Y-194143309D01*
X165102154Y-194333785D01*
X165054535Y-194429023D01*
X164959297Y-194524261D01*
X164816440Y-194571880D01*
X164578345Y-194571880D01*
X165959297Y-194524261D02*
X165864059Y-194571880D01*
X165673583Y-194571880D01*
X165578345Y-194524261D01*
X165530726Y-194429023D01*
X165530726Y-194048071D01*
X165578345Y-193952833D01*
X165673583Y-193905214D01*
X165864059Y-193905214D01*
X165959297Y-193952833D01*
X166006916Y-194048071D01*
X166006916Y-194143309D01*
X165530726Y-194238547D01*
X166387869Y-194524261D02*
X166483107Y-194571880D01*
X166673583Y-194571880D01*
X166768821Y-194524261D01*
X166816440Y-194429023D01*
X166816440Y-194381404D01*
X166768821Y-194286166D01*
X166673583Y-194238547D01*
X166530726Y-194238547D01*
X166435488Y-194190928D01*
X166387869Y-194095690D01*
X166387869Y-194048071D01*
X166435488Y-193952833D01*
X166530726Y-193905214D01*
X166673583Y-193905214D01*
X166768821Y-193952833D01*
X167245011Y-194571880D02*
X167245011Y-193905214D01*
X167245011Y-193571880D02*
X167197392Y-193619500D01*
X167245011Y-193667119D01*
X167292630Y-193619500D01*
X167245011Y-193571880D01*
X167245011Y-193667119D01*
X168149773Y-193905214D02*
X168149773Y-194714738D01*
X168102154Y-194809976D01*
X168054535Y-194857595D01*
X167959297Y-194905214D01*
X167816440Y-194905214D01*
X167721202Y-194857595D01*
X168149773Y-194524261D02*
X168054535Y-194571880D01*
X167864059Y-194571880D01*
X167768821Y-194524261D01*
X167721202Y-194476642D01*
X167673583Y-194381404D01*
X167673583Y-194095690D01*
X167721202Y-194000452D01*
X167768821Y-193952833D01*
X167864059Y-193905214D01*
X168054535Y-193905214D01*
X168149773Y-193952833D01*
X168625964Y-193905214D02*
X168625964Y-194571880D01*
X168625964Y-194000452D02*
X168673583Y-193952833D01*
X168768821Y-193905214D01*
X168911678Y-193905214D01*
X169006916Y-193952833D01*
X169054535Y-194048071D01*
X169054535Y-194571880D01*
X169911678Y-194524261D02*
X169816440Y-194571880D01*
X169625964Y-194571880D01*
X169530726Y-194524261D01*
X169483107Y-194429023D01*
X169483107Y-194048071D01*
X169530726Y-193952833D01*
X169625964Y-193905214D01*
X169816440Y-193905214D01*
X169911678Y-193952833D01*
X169959297Y-194048071D01*
X169959297Y-194143309D01*
X169483107Y-194238547D01*
X170816440Y-194571880D02*
X170816440Y-193571880D01*
X170816440Y-194524261D02*
X170721202Y-194571880D01*
X170530726Y-194571880D01*
X170435488Y-194524261D01*
X170387869Y-194476642D01*
X170340250Y-194381404D01*
X170340250Y-194095690D01*
X170387869Y-194000452D01*
X170435488Y-193952833D01*
X170530726Y-193905214D01*
X170721202Y-193905214D01*
X170816440Y-193952833D01*
X172054535Y-194571880D02*
X172054535Y-193571880D01*
X172054535Y-193952833D02*
X172149773Y-193905214D01*
X172340250Y-193905214D01*
X172435488Y-193952833D01*
X172483107Y-194000452D01*
X172530726Y-194095690D01*
X172530726Y-194381404D01*
X172483107Y-194476642D01*
X172435488Y-194524261D01*
X172340250Y-194571880D01*
X172149773Y-194571880D01*
X172054535Y-194524261D01*
X172864059Y-193905214D02*
X173102154Y-194571880D01*
X173340250Y-193905214D02*
X173102154Y-194571880D01*
X173006916Y-194809976D01*
X172959297Y-194857595D01*
X172864059Y-194905214D01*
X174435488Y-194286166D02*
X174911678Y-194286166D01*
X174340250Y-194571880D02*
X174673583Y-193571880D01*
X175006916Y-194571880D01*
X175340250Y-193905214D02*
X175340250Y-194571880D01*
X175340250Y-194000452D02*
X175387869Y-193952833D01*
X175483107Y-193905214D01*
X175625964Y-193905214D01*
X175721202Y-193952833D01*
X175768821Y-194048071D01*
X175768821Y-194571880D01*
X176102154Y-193905214D02*
X176483107Y-193905214D01*
X176245011Y-193571880D02*
X176245011Y-194429023D01*
X176292630Y-194524261D01*
X176387869Y-194571880D01*
X176483107Y-194571880D01*
X176816440Y-194571880D02*
X176816440Y-193571880D01*
X177245011Y-194571880D02*
X177245011Y-194048071D01*
X177197392Y-193952833D01*
X177102154Y-193905214D01*
X176959297Y-193905214D01*
X176864059Y-193952833D01*
X176816440Y-194000452D01*
X177864059Y-194571880D02*
X177768821Y-194524261D01*
X177721202Y-194476642D01*
X177673583Y-194381404D01*
X177673583Y-194095690D01*
X177721202Y-194000452D01*
X177768821Y-193952833D01*
X177864059Y-193905214D01*
X178006916Y-193905214D01*
X178102154Y-193952833D01*
X178149773Y-194000452D01*
X178197392Y-194095690D01*
X178197392Y-194381404D01*
X178149773Y-194476642D01*
X178102154Y-194524261D01*
X178006916Y-194571880D01*
X177864059Y-194571880D01*
X178625964Y-193905214D02*
X178625964Y-194571880D01*
X178625964Y-194000452D02*
X178673583Y-193952833D01*
X178768821Y-193905214D01*
X178911678Y-193905214D01*
X179006916Y-193952833D01*
X179054535Y-194048071D01*
X179054535Y-194571880D01*
X179435488Y-193905214D02*
X179673583Y-194571880D01*
X179911678Y-193905214D02*
X179673583Y-194571880D01*
X179578345Y-194809976D01*
X179530726Y-194857595D01*
X179435488Y-194905214D01*
X181530726Y-194571880D02*
X181054535Y-194571880D01*
X181054535Y-193571880D01*
X182292630Y-193905214D02*
X182292630Y-194571880D01*
X181864059Y-193905214D02*
X181864059Y-194429023D01*
X181911678Y-194524261D01*
X182006916Y-194571880D01*
X182149773Y-194571880D01*
X182245011Y-194524261D01*
X182292630Y-194476642D01*
X182911678Y-194571880D02*
X182816440Y-194524261D01*
X182768821Y-194476642D01*
X182721202Y-194381404D01*
X182721202Y-194095690D01*
X182768821Y-194000452D01*
X182816440Y-193952833D01*
X182911678Y-193905214D01*
X183054535Y-193905214D01*
X183149773Y-193952833D01*
X183197392Y-194000452D01*
X183245011Y-194095690D01*
X183245011Y-194381404D01*
X183197392Y-194476642D01*
X183149773Y-194524261D01*
X183054535Y-194571880D01*
X182911678Y-194571880D01*
D11*
%TO.C,SW2*%
X73936500Y-101369500D02*
G75*
G03*
X73936500Y-101369500I-3000000J0D01*
G01*
X72936500Y-95469500D02*
X77036500Y-95469500D01*
X77036500Y-107269500D02*
X72936500Y-107269500D01*
X68936500Y-107269500D02*
X64836500Y-107269500D01*
X68936500Y-95469500D02*
X64836500Y-95469500D01*
X64836500Y-95469500D02*
X64836500Y-107269500D01*
X63436500Y-97569500D02*
X63136500Y-97269500D01*
X63136500Y-97269500D02*
X63736500Y-97269500D01*
X63736500Y-97269500D02*
X63436500Y-97569500D01*
X77036500Y-95469500D02*
X77036500Y-97869500D01*
X77036500Y-100069500D02*
X77036500Y-102669500D01*
X77036500Y-104869500D02*
X77036500Y-107269500D01*
X70936500Y-100869500D02*
X70936500Y-101869500D01*
X70436500Y-101369500D02*
X71436500Y-101369500D01*
%TO.C,CAPS_LOCK_LED2*%
X383760000Y-99373250D02*
X383604000Y-99373250D01*
X381444000Y-99373250D02*
X381288000Y-99373250D01*
X381444163Y-101974380D02*
G75*
G02*
X381444000Y-99892289I1079837J1041130D01*
G01*
X383603837Y-101974380D02*
G75*
G03*
X383604000Y-99892289I-1079837J1041130D01*
G01*
X381445392Y-102605585D02*
G75*
G02*
X381288484Y-99373250I1078608J1672335D01*
G01*
X383602608Y-102605585D02*
G75*
G03*
X383759516Y-99373250I-1078608J1672335D01*
G01*
%TO.C,CAPS_LOCK_LED1*%
X364716500Y-94549250D02*
X364716500Y-94393250D01*
X364716500Y-92233250D02*
X364716500Y-92077250D01*
X362115370Y-92233413D02*
G75*
G02*
X364197461Y-92233250I1041130J-1079837D01*
G01*
X362115370Y-94393087D02*
G75*
G03*
X364197461Y-94393250I1041130J1079837D01*
G01*
X361484165Y-92234642D02*
G75*
G02*
X364716500Y-92077734I1672335J-1078608D01*
G01*
X361484165Y-94391858D02*
G75*
G03*
X364716500Y-94548766I1672335J1078608D01*
G01*
%TO.C,J3*%
X350237750Y-97758250D02*
X352897750Y-97758250D01*
X350237750Y-97758250D02*
X350237750Y-105438250D01*
X350237750Y-105438250D02*
X352897750Y-105438250D01*
X352897750Y-97758250D02*
X352897750Y-105438250D01*
X352897750Y-95158250D02*
X352897750Y-96488250D01*
X351567750Y-95158250D02*
X352897750Y-95158250D01*
%TO.C,SW2*%
D10*
X64903166Y-94574261D02*
X65046023Y-94621880D01*
X65284119Y-94621880D01*
X65379357Y-94574261D01*
X65426976Y-94526642D01*
X65474595Y-94431404D01*
X65474595Y-94336166D01*
X65426976Y-94240928D01*
X65379357Y-94193309D01*
X65284119Y-94145690D01*
X65093642Y-94098071D01*
X64998404Y-94050452D01*
X64950785Y-94002833D01*
X64903166Y-93907595D01*
X64903166Y-93812357D01*
X64950785Y-93717119D01*
X64998404Y-93669500D01*
X65093642Y-93621880D01*
X65331738Y-93621880D01*
X65474595Y-93669500D01*
X65807928Y-93621880D02*
X66046023Y-94621880D01*
X66236500Y-93907595D01*
X66426976Y-94621880D01*
X66665071Y-93621880D01*
X66998404Y-93717119D02*
X67046023Y-93669500D01*
X67141261Y-93621880D01*
X67379357Y-93621880D01*
X67474595Y-93669500D01*
X67522214Y-93717119D01*
X67569833Y-93812357D01*
X67569833Y-93907595D01*
X67522214Y-94050452D01*
X66950785Y-94621880D01*
X67569833Y-94621880D01*
%TO.C,CAPS_LOCK_LED2*%
X384709942Y-105847447D02*
X384757561Y-105895066D01*
X384805180Y-106037923D01*
X384805180Y-106133161D01*
X384757561Y-106276019D01*
X384662323Y-106371257D01*
X384567085Y-106418876D01*
X384376609Y-106466495D01*
X384233752Y-106466495D01*
X384043276Y-106418876D01*
X383948038Y-106371257D01*
X383852800Y-106276019D01*
X383805180Y-106133161D01*
X383805180Y-106037923D01*
X383852800Y-105895066D01*
X383900419Y-105847447D01*
X384519466Y-105466495D02*
X384519466Y-104990304D01*
X384805180Y-105561733D02*
X383805180Y-105228400D01*
X384805180Y-104895066D01*
X384805180Y-104561733D02*
X383805180Y-104561733D01*
X383805180Y-104180780D01*
X383852800Y-104085542D01*
X383900419Y-104037923D01*
X383995657Y-103990304D01*
X384138514Y-103990304D01*
X384233752Y-104037923D01*
X384281371Y-104085542D01*
X384328990Y-104180780D01*
X384328990Y-104561733D01*
X384757561Y-103609352D02*
X384805180Y-103466495D01*
X384805180Y-103228400D01*
X384757561Y-103133161D01*
X384709942Y-103085542D01*
X384614704Y-103037923D01*
X384519466Y-103037923D01*
X384424228Y-103085542D01*
X384376609Y-103133161D01*
X384328990Y-103228400D01*
X384281371Y-103418876D01*
X384233752Y-103514114D01*
X384186133Y-103561733D01*
X384090895Y-103609352D01*
X383995657Y-103609352D01*
X383900419Y-103561733D01*
X383852800Y-103514114D01*
X383805180Y-103418876D01*
X383805180Y-103180780D01*
X383852800Y-103037923D01*
X384900419Y-102847447D02*
X384900419Y-102085542D01*
X384805180Y-101371257D02*
X384805180Y-101847447D01*
X383805180Y-101847447D01*
X383805180Y-100847447D02*
X383805180Y-100656971D01*
X383852800Y-100561733D01*
X383948038Y-100466495D01*
X384138514Y-100418876D01*
X384471847Y-100418876D01*
X384662323Y-100466495D01*
X384757561Y-100561733D01*
X384805180Y-100656971D01*
X384805180Y-100847447D01*
X384757561Y-100942685D01*
X384662323Y-101037923D01*
X384471847Y-101085542D01*
X384138514Y-101085542D01*
X383948038Y-101037923D01*
X383852800Y-100942685D01*
X383805180Y-100847447D01*
X384709942Y-99418876D02*
X384757561Y-99466495D01*
X384805180Y-99609352D01*
X384805180Y-99704590D01*
X384757561Y-99847447D01*
X384662323Y-99942685D01*
X384567085Y-99990304D01*
X384376609Y-100037923D01*
X384233752Y-100037923D01*
X384043276Y-99990304D01*
X383948038Y-99942685D01*
X383852800Y-99847447D01*
X383805180Y-99704590D01*
X383805180Y-99609352D01*
X383852800Y-99466495D01*
X383900419Y-99418876D01*
X384805180Y-98990304D02*
X383805180Y-98990304D01*
X384805180Y-98418876D02*
X384233752Y-98847447D01*
X383805180Y-98418876D02*
X384376609Y-98990304D01*
X384900419Y-98228400D02*
X384900419Y-97466495D01*
X384805180Y-96752209D02*
X384805180Y-97228400D01*
X383805180Y-97228400D01*
X384281371Y-96418876D02*
X384281371Y-96085542D01*
X384805180Y-95942685D02*
X384805180Y-96418876D01*
X383805180Y-96418876D01*
X383805180Y-95942685D01*
X384805180Y-95514114D02*
X383805180Y-95514114D01*
X383805180Y-95276019D01*
X383852800Y-95133161D01*
X383948038Y-95037923D01*
X384043276Y-94990304D01*
X384233752Y-94942685D01*
X384376609Y-94942685D01*
X384567085Y-94990304D01*
X384662323Y-95037923D01*
X384757561Y-95133161D01*
X384805180Y-95276019D01*
X384805180Y-95514114D01*
X383900419Y-94561733D02*
X383852800Y-94514114D01*
X383805180Y-94418876D01*
X383805180Y-94180780D01*
X383852800Y-94085542D01*
X383900419Y-94037923D01*
X383995657Y-93990304D01*
X384090895Y-93990304D01*
X384233752Y-94037923D01*
X384805180Y-94609352D01*
X384805180Y-93990304D01*
%TO.C,CAPS_LOCK_LED1*%
X357677152Y-91974942D02*
X357629533Y-92022561D01*
X357486676Y-92070180D01*
X357391438Y-92070180D01*
X357248580Y-92022561D01*
X357153342Y-91927323D01*
X357105723Y-91832085D01*
X357058104Y-91641609D01*
X357058104Y-91498752D01*
X357105723Y-91308276D01*
X357153342Y-91213038D01*
X357248580Y-91117800D01*
X357391438Y-91070180D01*
X357486676Y-91070180D01*
X357629533Y-91117800D01*
X357677152Y-91165419D01*
X358058104Y-91784466D02*
X358534295Y-91784466D01*
X357962866Y-92070180D02*
X358296200Y-91070180D01*
X358629533Y-92070180D01*
X358962866Y-92070180D02*
X358962866Y-91070180D01*
X359343819Y-91070180D01*
X359439057Y-91117800D01*
X359486676Y-91165419D01*
X359534295Y-91260657D01*
X359534295Y-91403514D01*
X359486676Y-91498752D01*
X359439057Y-91546371D01*
X359343819Y-91593990D01*
X358962866Y-91593990D01*
X359915247Y-92022561D02*
X360058104Y-92070180D01*
X360296200Y-92070180D01*
X360391438Y-92022561D01*
X360439057Y-91974942D01*
X360486676Y-91879704D01*
X360486676Y-91784466D01*
X360439057Y-91689228D01*
X360391438Y-91641609D01*
X360296200Y-91593990D01*
X360105723Y-91546371D01*
X360010485Y-91498752D01*
X359962866Y-91451133D01*
X359915247Y-91355895D01*
X359915247Y-91260657D01*
X359962866Y-91165419D01*
X360010485Y-91117800D01*
X360105723Y-91070180D01*
X360343819Y-91070180D01*
X360486676Y-91117800D01*
X360677152Y-92165419D02*
X361439057Y-92165419D01*
X362153342Y-92070180D02*
X361677152Y-92070180D01*
X361677152Y-91070180D01*
X362677152Y-91070180D02*
X362867628Y-91070180D01*
X362962866Y-91117800D01*
X363058104Y-91213038D01*
X363105723Y-91403514D01*
X363105723Y-91736847D01*
X363058104Y-91927323D01*
X362962866Y-92022561D01*
X362867628Y-92070180D01*
X362677152Y-92070180D01*
X362581914Y-92022561D01*
X362486676Y-91927323D01*
X362439057Y-91736847D01*
X362439057Y-91403514D01*
X362486676Y-91213038D01*
X362581914Y-91117800D01*
X362677152Y-91070180D01*
X364105723Y-91974942D02*
X364058104Y-92022561D01*
X363915247Y-92070180D01*
X363820009Y-92070180D01*
X363677152Y-92022561D01*
X363581914Y-91927323D01*
X363534295Y-91832085D01*
X363486676Y-91641609D01*
X363486676Y-91498752D01*
X363534295Y-91308276D01*
X363581914Y-91213038D01*
X363677152Y-91117800D01*
X363820009Y-91070180D01*
X363915247Y-91070180D01*
X364058104Y-91117800D01*
X364105723Y-91165419D01*
X364534295Y-92070180D02*
X364534295Y-91070180D01*
X365105723Y-92070180D02*
X364677152Y-91498752D01*
X365105723Y-91070180D02*
X364534295Y-91641609D01*
X365296200Y-92165419D02*
X366058104Y-92165419D01*
X366772390Y-92070180D02*
X366296200Y-92070180D01*
X366296200Y-91070180D01*
X367105723Y-91546371D02*
X367439057Y-91546371D01*
X367581914Y-92070180D02*
X367105723Y-92070180D01*
X367105723Y-91070180D01*
X367581914Y-91070180D01*
X368010485Y-92070180D02*
X368010485Y-91070180D01*
X368248580Y-91070180D01*
X368391438Y-91117800D01*
X368486676Y-91213038D01*
X368534295Y-91308276D01*
X368581914Y-91498752D01*
X368581914Y-91641609D01*
X368534295Y-91832085D01*
X368486676Y-91927323D01*
X368391438Y-92022561D01*
X368248580Y-92070180D01*
X368010485Y-92070180D01*
X369534295Y-92070180D02*
X368962866Y-92070180D01*
X369248580Y-92070180D02*
X369248580Y-91070180D01*
X369153342Y-91213038D01*
X369058104Y-91308276D01*
X368962866Y-91355895D01*
%TO.C,J3*%
X351234416Y-93170630D02*
X351234416Y-93884916D01*
X351186797Y-94027773D01*
X351091559Y-94123011D01*
X350948702Y-94170630D01*
X350853464Y-94170630D01*
X351615369Y-93170630D02*
X352234416Y-93170630D01*
X351901083Y-93551583D01*
X352043940Y-93551583D01*
X352139178Y-93599202D01*
X352186797Y-93646821D01*
X352234416Y-93742059D01*
X352234416Y-93980154D01*
X352186797Y-94075392D01*
X352139178Y-94123011D01*
X352043940Y-94170630D01*
X351758226Y-94170630D01*
X351662988Y-94123011D01*
X351615369Y-94075392D01*
%TD*%
M02*
