M48
; DRILL file {KiCad (5.1.9)-1} date 05/13/21 14:35:29
; FORMAT={-:-/ absolute / inch / decimal}
; #@! TF.CreationDate,2021-05-13T14:35:29-04:00
; #@! TF.GenerationSoftware,Kicad,Pcbnew,(5.1.9)-1
; #@! TF.FileFunction,NonPlated,1,2,NPTH
FMAT,2
INCH
T1C0.0236
T2C0.0689
T3C0.1200
T4C0.1570
%
G90
G05
T1
X25.1675Y0.7929
X25.395Y0.7929
T2
X13.0187Y-0.125
X13.0187Y-0.875
X13.0187Y-1.625
X13.0187Y-2.375
X13.0187Y-3.125
X13.4187Y-0.125
X13.4187Y-0.875
X13.4187Y-1.625
X13.4187Y-2.375
X13.4187Y-3.125
X13.7687Y0.625
X13.7687Y-0.125
X13.8625Y-1.625
X13.8625Y-3.125
X13.9562Y-0.875
X13.9562Y-3.125
X14.05Y-1.625
X14.1687Y0.625
X14.1687Y-0.125
X14.2375Y-2.375
X14.2625Y-1.625
X14.2625Y-3.125
X14.3562Y-0.875
X14.3562Y-3.125
X14.45Y-1.625
X14.5187Y0.625
X14.5187Y-0.125
X14.6375Y-2.375
X14.8Y-3.125
X14.8937Y-0.875
X14.9187Y0.625
X14.9187Y-0.125
X15.0812Y-1.625
X15.0812Y-3.125
X15.2Y-3.125
X15.2687Y0.625
X15.2687Y-0.125
X15.2937Y-0.875
X15.4562Y-2.375
X15.4812Y-1.625
X15.4812Y-3.125
X15.6437Y-0.875
X15.6687Y0.625
X15.6687Y-0.125
X15.7375Y-3.125
X15.8312Y-1.625
X15.8562Y-2.375
X16.0188Y0.625
X16.0188Y-0.125
X16.0437Y-0.875
X16.1375Y-3.125
X16.2063Y-2.375
X16.2312Y-1.625
X16.3938Y-0.875
X16.4187Y0.625
X16.4187Y-0.125
X16.5813Y-1.625
X16.6062Y-2.375
X16.7688Y0.625
X16.7688Y-0.125
X16.7937Y-0.875
X16.9563Y-2.375
X16.9812Y-1.625
X17.1438Y-0.875
X17.1687Y0.625
X17.1687Y-0.125
X17.3313Y-1.625
X17.3562Y-2.375
X17.5188Y0.625
X17.5188Y-0.125
X17.5437Y-0.875
X17.7063Y-2.375
X17.7312Y-1.625
X17.8938Y-0.875
X17.9187Y0.625
X17.9187Y-0.125
X18.0813Y-1.625
X18.1062Y-2.375
X18.2688Y0.625
X18.2688Y-0.125
X18.2688Y-3.125
X18.2937Y-0.875
X18.4563Y-2.375
X18.4812Y-1.625
X18.55Y-3.125
X18.6438Y-0.875
X18.6687Y0.625
X18.6687Y-0.125
X18.6687Y-3.125
X18.8313Y-1.625
X18.8562Y-2.375
X18.95Y-3.125
X19.0188Y0.625
X19.0188Y-0.125
X19.0437Y-0.875
X19.2063Y-2.375
X19.2312Y-1.625
X19.3938Y-0.875
X19.4187Y0.625
X19.4187Y-0.125
X19.5813Y-1.625
X19.6062Y-2.375
X19.7688Y0.625
X19.7688Y-0.125
X19.7937Y-0.875
X19.9563Y-2.375
X19.9812Y-1.625
X20.1438Y-0.875
X20.1687Y0.625
X20.1687Y-0.125
X20.3313Y-1.625
X20.3562Y-2.375
X20.5188Y0.625
X20.5188Y-0.125
X20.5437Y-0.875
X20.7063Y-2.375
X20.7312Y-1.625
X20.8938Y-0.875
X20.9187Y0.625
X20.9187Y-0.125
X21.0813Y-1.625
X21.1062Y-2.375
X21.2688Y0.625
X21.2688Y-0.125
X21.2688Y-3.125
X21.2937Y-0.875
X21.4563Y-2.375
X21.4563Y-3.125
X21.4812Y-1.625
X21.6438Y-0.875
X21.6687Y0.625
X21.6687Y-0.125
X21.6687Y-3.125
X21.8313Y-1.625
X21.8562Y-2.375
X21.8562Y-3.125
X22.0188Y0.625
X22.0188Y-0.125
X22.0188Y-3.125
X22.0437Y-0.875
X22.2063Y-2.375
X22.2312Y-1.625
X22.3938Y-0.875
X22.4187Y0.625
X22.4187Y-0.125
X22.4187Y-3.125
X22.5813Y-1.625
X22.5813Y-3.125
X22.6062Y-2.375
X22.7688Y0.625
X22.7688Y-0.125
X22.7688Y-3.125
X22.7937Y-0.875
X22.9812Y-1.625
X22.9812Y-3.125
X23.1438Y-0.875
X23.1687Y0.625
X23.1687Y-0.125
X23.1687Y-3.125
X23.2375Y-2.375
X23.5188Y0.625
X23.5188Y-3.125
X23.5437Y-0.875
X23.6375Y-2.375
X23.8Y-1.625
X23.8938Y-0.125
X23.9187Y0.625
X23.9187Y-3.125
X24.0813Y-0.875
X24.2Y-1.625
X24.2688Y-2.375
X24.2688Y-3.125
X24.2937Y-0.125
X24.4812Y-0.875
X24.6687Y-2.375
X24.6687Y-3.125
X25.0188Y-0.125
X25.0188Y-0.875
X25.0188Y-1.625
X25.0188Y-2.375
X25.0188Y-3.125
X25.4187Y-0.125
X25.4187Y-0.875
X25.4187Y-1.625
X25.4187Y-2.375
X25.4187Y-3.125
T3
X13.9688Y-2.1
X14.9062Y-2.1
X16.2188Y-3.4
X16.7815Y-3.4
X20.7185Y-3.4
X20.7188Y-3.4
X23.5312Y-1.35
X23.625Y0.15
X24.4688Y-1.35
X24.5625Y0.15
T4
X13.2188Y-0.125
X13.2188Y-0.875
X13.2188Y-1.625
X13.2188Y-2.375
X13.2188Y-3.125
X13.9688Y0.625
X13.9688Y-0.125
X13.9688Y-2.7
X14.0625Y-1.625
X14.0625Y-3.125
X14.1562Y-0.875
X14.1562Y-3.125
X14.25Y-1.625
X14.4375Y-2.375
X14.7188Y0.625
X14.7188Y-0.125
X14.9062Y-2.7
X15.0Y-3.125
X15.0938Y-0.875
X15.2812Y-1.625
X15.2812Y-3.125
X15.4688Y0.625
X15.4688Y-0.125
X15.6562Y-2.375
X15.8438Y-0.875
X15.9375Y-3.125
X16.0312Y-1.625
X16.2188Y0.625
X16.2188Y-0.125
X16.2188Y-2.8
X16.4062Y-2.375
X16.5938Y-0.875
X16.7812Y-1.625
X16.7815Y-2.8
X16.9688Y0.625
X16.9688Y-0.125
X17.1562Y-2.375
X17.3438Y-0.875
X17.5312Y-1.625
X17.7188Y0.625
X17.7188Y-0.125
X17.9062Y-2.375
X18.0938Y-0.875
X18.2812Y-1.625
X18.4688Y0.625
X18.4688Y-0.125
X18.4688Y-3.125
X18.6562Y-2.375
X18.75Y-3.125
X18.8438Y-0.875
X19.0312Y-1.625
X19.2188Y0.625
X19.2188Y-0.125
X19.4062Y-2.375
X19.5938Y-0.875
X19.7812Y-1.625
X19.9688Y0.625
X19.9688Y-0.125
X20.1562Y-2.375
X20.3438Y-0.875
X20.5312Y-1.625
X20.7185Y-2.8
X20.7188Y0.625
X20.7188Y-0.125
X20.7188Y-2.8
X20.9062Y-2.375
X21.0938Y-0.875
X21.2812Y-1.625
X21.4688Y0.625
X21.4688Y-0.125
X21.4688Y-3.125
X21.6562Y-2.375
X21.6562Y-3.125
X21.8438Y-0.875
X22.0312Y-1.625
X22.2188Y0.625
X22.2188Y-0.125
X22.2188Y-3.125
X22.4062Y-2.375
X22.5938Y-0.875
X22.7812Y-1.625
X22.7812Y-3.125
X22.9688Y0.625
X22.9688Y-0.125
X22.9688Y-3.125
X23.3438Y-0.875
X23.4375Y-2.375
X23.5312Y-1.95
X23.625Y-0.45
X23.7188Y0.625
X23.7188Y-3.125
X24.0Y-1.625
X24.0938Y-0.125
X24.2812Y-0.875
X24.4688Y-1.95
X24.4688Y-2.375
X24.4688Y-3.125
X24.5625Y-0.45
X25.2188Y-0.125
X25.2188Y-0.875
X25.2188Y-1.625
X25.2188Y-2.375
X25.2188Y-3.125
T0
M30
