%TF.GenerationSoftware,KiCad,Pcbnew,(5.1.9)-1*%
%TF.CreationDate,2021-05-14T18:07:59-04:00*%
%TF.ProjectId,rnm-75E,726e6d2d-3735-4452-9e6b-696361645f70,rev?*%
%TF.SameCoordinates,Original*%
%TF.FileFunction,Paste,Bot*%
%TF.FilePolarity,Positive*%
%FSLAX46Y46*%
G04 Gerber Fmt 4.6, Leading zero omitted, Abs format (unit mm)*
G04 Created by KiCad (PCBNEW (5.1.9)-1) date 2021-05-14 18:07:59*
%MOMM*%
%LPD*%
G01*
G04 APERTURE LIST*
%ADD10R,0.600000X1.450000*%
%ADD11R,0.300000X1.450000*%
%ADD12R,1.060000X0.650000*%
%ADD13R,1.500000X0.550000*%
%ADD14R,0.550000X1.500000*%
%ADD15C,0.100000*%
%ADD16R,1.800000X1.100000*%
%ADD17R,1.500000X1.000000*%
%ADD18R,1.000000X1.500000*%
%ADD19R,0.900000X1.200000*%
%ADD20R,1.200000X0.900000*%
G04 APERTURE END LIST*
D10*
%TO.C,J2*%
X379700000Y-97665000D03*
X378900000Y-97665000D03*
X374000000Y-97665000D03*
X373200000Y-97665000D03*
X373200000Y-97665000D03*
X374000000Y-97665000D03*
X378900000Y-97665000D03*
X379700000Y-97665000D03*
D11*
X374700000Y-97665000D03*
X375200000Y-97665000D03*
X375700000Y-97665000D03*
X376700000Y-97665000D03*
X377200000Y-97665000D03*
X377700000Y-97665000D03*
X378200000Y-97665000D03*
X376200000Y-97665000D03*
%TD*%
%TO.C,C_F3*%
G36*
G01*
X236987500Y-175893750D02*
X236987500Y-174943750D01*
G75*
G02*
X237237500Y-174693750I250000J0D01*
G01*
X237737500Y-174693750D01*
G75*
G02*
X237987500Y-174943750I0J-250000D01*
G01*
X237987500Y-175893750D01*
G75*
G02*
X237737500Y-176143750I-250000J0D01*
G01*
X237237500Y-176143750D01*
G75*
G02*
X236987500Y-175893750I0J250000D01*
G01*
G37*
G36*
G01*
X235087500Y-175893750D02*
X235087500Y-174943750D01*
G75*
G02*
X235337500Y-174693750I250000J0D01*
G01*
X235837500Y-174693750D01*
G75*
G02*
X236087500Y-174943750I0J-250000D01*
G01*
X236087500Y-175893750D01*
G75*
G02*
X235837500Y-176143750I-250000J0D01*
G01*
X235337500Y-176143750D01*
G75*
G02*
X235087500Y-175893750I0J250000D01*
G01*
G37*
%TD*%
%TO.C,C_X2*%
G36*
G01*
X256061029Y-188307878D02*
X255389278Y-188979629D01*
G75*
G02*
X255035724Y-188979629I-176777J176777D01*
G01*
X254682171Y-188626076D01*
G75*
G02*
X254682171Y-188272522I176777J176777D01*
G01*
X255353922Y-187600771D01*
G75*
G02*
X255707476Y-187600771I176777J-176777D01*
G01*
X256061029Y-187954324D01*
G75*
G02*
X256061029Y-188307878I-176777J-176777D01*
G01*
G37*
G36*
G01*
X257404531Y-189651380D02*
X256732780Y-190323131D01*
G75*
G02*
X256379226Y-190323131I-176777J176777D01*
G01*
X256025673Y-189969578D01*
G75*
G02*
X256025673Y-189616024I176777J176777D01*
G01*
X256697424Y-188944273D01*
G75*
G02*
X257050978Y-188944273I176777J-176777D01*
G01*
X257404531Y-189297826D01*
G75*
G02*
X257404531Y-189651380I-176777J-176777D01*
G01*
G37*
%TD*%
D12*
%TO.C,U2*%
X375472600Y-104836000D03*
X375472600Y-103886000D03*
X375472600Y-105786000D03*
X377672600Y-105786000D03*
X377672600Y-104836000D03*
X377672600Y-103886000D03*
%TD*%
D13*
%TO.C,U1*%
X235130000Y-185700000D03*
X235130000Y-186500000D03*
X235130000Y-187300000D03*
X235130000Y-188100000D03*
X235130000Y-188900000D03*
X235130000Y-189700000D03*
X235130000Y-190500000D03*
X235130000Y-191300000D03*
X235130000Y-192100000D03*
X235130000Y-192900000D03*
X235130000Y-193700000D03*
X235130000Y-194500000D03*
X235130000Y-195300000D03*
X235130000Y-196100000D03*
X235130000Y-196900000D03*
X235130000Y-197700000D03*
D14*
X236830000Y-199400000D03*
X237630000Y-199400000D03*
X238430000Y-199400000D03*
X239230000Y-199400000D03*
X240030000Y-199400000D03*
X240830000Y-199400000D03*
X241630000Y-199400000D03*
X242430000Y-199400000D03*
X243230000Y-199400000D03*
X244030000Y-199400000D03*
X244830000Y-199400000D03*
X245630000Y-199400000D03*
X246430000Y-199400000D03*
X247230000Y-199400000D03*
X248030000Y-199400000D03*
X248830000Y-199400000D03*
D13*
X250530000Y-197700000D03*
X250530000Y-196900000D03*
X250530000Y-196100000D03*
X250530000Y-195300000D03*
X250530000Y-194500000D03*
X250530000Y-193700000D03*
X250530000Y-192900000D03*
X250530000Y-192100000D03*
X250530000Y-191300000D03*
X250530000Y-190500000D03*
X250530000Y-189700000D03*
X250530000Y-188900000D03*
X250530000Y-188100000D03*
X250530000Y-187300000D03*
X250530000Y-186500000D03*
X250530000Y-185700000D03*
D14*
X248830000Y-184000000D03*
X248030000Y-184000000D03*
X247230000Y-184000000D03*
X246430000Y-184000000D03*
X245630000Y-184000000D03*
X244830000Y-184000000D03*
X244030000Y-184000000D03*
X243230000Y-184000000D03*
X242430000Y-184000000D03*
X241630000Y-184000000D03*
X240830000Y-184000000D03*
X240030000Y-184000000D03*
X239230000Y-184000000D03*
X238430000Y-184000000D03*
X237630000Y-184000000D03*
X236830000Y-184000000D03*
%TD*%
%TO.C,R2*%
G36*
G01*
X301161500Y-184144498D02*
X301161500Y-185044502D01*
G75*
G02*
X300911502Y-185294500I-249998J0D01*
G01*
X300386498Y-185294500D01*
G75*
G02*
X300136500Y-185044502I0J249998D01*
G01*
X300136500Y-184144498D01*
G75*
G02*
X300386498Y-183894500I249998J0D01*
G01*
X300911502Y-183894500D01*
G75*
G02*
X301161500Y-184144498I0J-249998D01*
G01*
G37*
G36*
G01*
X302986500Y-184144498D02*
X302986500Y-185044502D01*
G75*
G02*
X302736502Y-185294500I-249998J0D01*
G01*
X302211498Y-185294500D01*
G75*
G02*
X301961500Y-185044502I0J249998D01*
G01*
X301961500Y-184144498D01*
G75*
G02*
X302211498Y-183894500I249998J0D01*
G01*
X302736502Y-183894500D01*
G75*
G02*
X302986500Y-184144498I0J-249998D01*
G01*
G37*
%TD*%
%TO.C,C_FM1*%
G36*
G01*
X238561500Y-178087000D02*
X238561500Y-179037000D01*
G75*
G02*
X238311500Y-179287000I-250000J0D01*
G01*
X237811500Y-179287000D01*
G75*
G02*
X237561500Y-179037000I0J250000D01*
G01*
X237561500Y-178087000D01*
G75*
G02*
X237811500Y-177837000I250000J0D01*
G01*
X238311500Y-177837000D01*
G75*
G02*
X238561500Y-178087000I0J-250000D01*
G01*
G37*
G36*
G01*
X236661500Y-178087000D02*
X236661500Y-179037000D01*
G75*
G02*
X236411500Y-179287000I-250000J0D01*
G01*
X235911500Y-179287000D01*
G75*
G02*
X235661500Y-179037000I0J250000D01*
G01*
X235661500Y-178087000D01*
G75*
G02*
X235911500Y-177837000I250000J0D01*
G01*
X236411500Y-177837000D01*
G75*
G02*
X236661500Y-178087000I0J-250000D01*
G01*
G37*
%TD*%
D15*
%TO.C,Y1*%
G36*
X256660955Y-191406865D02*
G01*
X255812427Y-192255393D01*
X254822477Y-191265443D01*
X255671005Y-190416915D01*
X256660955Y-191406865D01*
G37*
G36*
X255105320Y-189851230D02*
G01*
X254256792Y-190699758D01*
X253266842Y-189709808D01*
X254115370Y-188861280D01*
X255105320Y-189851230D01*
G37*
G36*
X253903239Y-191053311D02*
G01*
X253054711Y-191901839D01*
X252064761Y-190911889D01*
X252913289Y-190063361D01*
X253903239Y-191053311D01*
G37*
G36*
X255458874Y-192608946D02*
G01*
X254610346Y-193457474D01*
X253620396Y-192467524D01*
X254468924Y-191618996D01*
X255458874Y-192608946D01*
G37*
%TD*%
D16*
%TO.C,SW1*%
X317436500Y-182213250D03*
X323636500Y-185913250D03*
X317436500Y-185913250D03*
X323636500Y-182213250D03*
%TD*%
%TO.C,R_u2*%
G36*
G01*
X381330250Y-104769498D02*
X381330250Y-105669502D01*
G75*
G02*
X381080252Y-105919500I-249998J0D01*
G01*
X380555248Y-105919500D01*
G75*
G02*
X380305250Y-105669502I0J249998D01*
G01*
X380305250Y-104769498D01*
G75*
G02*
X380555248Y-104519500I249998J0D01*
G01*
X381080252Y-104519500D01*
G75*
G02*
X381330250Y-104769498I0J-249998D01*
G01*
G37*
G36*
G01*
X383155250Y-104769498D02*
X383155250Y-105669502D01*
G75*
G02*
X382905252Y-105919500I-249998J0D01*
G01*
X382380248Y-105919500D01*
G75*
G02*
X382130250Y-105669502I0J249998D01*
G01*
X382130250Y-104769498D01*
G75*
G02*
X382380248Y-104519500I249998J0D01*
G01*
X382905252Y-104519500D01*
G75*
G02*
X383155250Y-104769498I0J-249998D01*
G01*
G37*
%TD*%
%TO.C,R_u1*%
G36*
G01*
X371811500Y-103288252D02*
X371811500Y-102388248D01*
G75*
G02*
X372061498Y-102138250I249998J0D01*
G01*
X372586502Y-102138250D01*
G75*
G02*
X372836500Y-102388248I0J-249998D01*
G01*
X372836500Y-103288252D01*
G75*
G02*
X372586502Y-103538250I-249998J0D01*
G01*
X372061498Y-103538250D01*
G75*
G02*
X371811500Y-103288252I0J249998D01*
G01*
G37*
G36*
G01*
X369986500Y-103288252D02*
X369986500Y-102388248D01*
G75*
G02*
X370236498Y-102138250I249998J0D01*
G01*
X370761502Y-102138250D01*
G75*
G02*
X371011500Y-102388248I0J-249998D01*
G01*
X371011500Y-103288252D01*
G75*
G02*
X370761502Y-103538250I-249998J0D01*
G01*
X370236498Y-103538250D01*
G75*
G02*
X369986500Y-103288252I0J249998D01*
G01*
G37*
%TD*%
%TO.C,R_SW2*%
G36*
G01*
X270950000Y-199681252D02*
X270950000Y-198781248D01*
G75*
G02*
X271199998Y-198531250I249998J0D01*
G01*
X271725002Y-198531250D01*
G75*
G02*
X271975000Y-198781248I0J-249998D01*
G01*
X271975000Y-199681252D01*
G75*
G02*
X271725002Y-199931250I-249998J0D01*
G01*
X271199998Y-199931250D01*
G75*
G02*
X270950000Y-199681252I0J249998D01*
G01*
G37*
G36*
G01*
X272775000Y-199681252D02*
X272775000Y-198781248D01*
G75*
G02*
X273024998Y-198531250I249998J0D01*
G01*
X273550002Y-198531250D01*
G75*
G02*
X273800000Y-198781248I0J-249998D01*
G01*
X273800000Y-199681252D01*
G75*
G02*
X273550002Y-199931250I-249998J0D01*
G01*
X273024998Y-199931250D01*
G75*
G02*
X272775000Y-199681252I0J249998D01*
G01*
G37*
%TD*%
%TO.C,R_SW1*%
G36*
G01*
X315130602Y-186821500D02*
X314230598Y-186821500D01*
G75*
G02*
X313980600Y-186571502I0J249998D01*
G01*
X313980600Y-186046498D01*
G75*
G02*
X314230598Y-185796500I249998J0D01*
G01*
X315130602Y-185796500D01*
G75*
G02*
X315380600Y-186046498I0J-249998D01*
G01*
X315380600Y-186571502D01*
G75*
G02*
X315130602Y-186821500I-249998J0D01*
G01*
G37*
G36*
G01*
X315130602Y-184996500D02*
X314230598Y-184996500D01*
G75*
G02*
X313980600Y-184746502I0J249998D01*
G01*
X313980600Y-184221498D01*
G75*
G02*
X314230598Y-183971500I249998J0D01*
G01*
X315130602Y-183971500D01*
G75*
G02*
X315380600Y-184221498I0J-249998D01*
G01*
X315380600Y-184746502D01*
G75*
G02*
X315130602Y-184996500I-249998J0D01*
G01*
G37*
%TD*%
%TO.C,R_d2*%
G36*
G01*
X375830252Y-100850750D02*
X374930248Y-100850750D01*
G75*
G02*
X374680250Y-100600752I0J249998D01*
G01*
X374680250Y-100075748D01*
G75*
G02*
X374930248Y-99825750I249998J0D01*
G01*
X375830252Y-99825750D01*
G75*
G02*
X376080250Y-100075748I0J-249998D01*
G01*
X376080250Y-100600752D01*
G75*
G02*
X375830252Y-100850750I-249998J0D01*
G01*
G37*
G36*
G01*
X375830252Y-102675750D02*
X374930248Y-102675750D01*
G75*
G02*
X374680250Y-102425752I0J249998D01*
G01*
X374680250Y-101900748D01*
G75*
G02*
X374930248Y-101650750I249998J0D01*
G01*
X375830252Y-101650750D01*
G75*
G02*
X376080250Y-101900748I0J-249998D01*
G01*
X376080250Y-102425752D01*
G75*
G02*
X375830252Y-102675750I-249998J0D01*
G01*
G37*
%TD*%
%TO.C,R_d1*%
G36*
G01*
X378211502Y-100850750D02*
X377311498Y-100850750D01*
G75*
G02*
X377061500Y-100600752I0J249998D01*
G01*
X377061500Y-100075748D01*
G75*
G02*
X377311498Y-99825750I249998J0D01*
G01*
X378211502Y-99825750D01*
G75*
G02*
X378461500Y-100075748I0J-249998D01*
G01*
X378461500Y-100600752D01*
G75*
G02*
X378211502Y-100850750I-249998J0D01*
G01*
G37*
G36*
G01*
X378211502Y-102675750D02*
X377311498Y-102675750D01*
G75*
G02*
X377061500Y-102425752I0J249998D01*
G01*
X377061500Y-101900748D01*
G75*
G02*
X377311498Y-101650750I249998J0D01*
G01*
X378211502Y-101650750D01*
G75*
G02*
X378461500Y-101900748I0J-249998D01*
G01*
X378461500Y-102425752D01*
G75*
G02*
X378211502Y-102675750I-249998J0D01*
G01*
G37*
%TD*%
%TO.C,R1*%
G36*
G01*
X378214300Y-109506598D02*
X378214300Y-110406602D01*
G75*
G02*
X377964302Y-110656600I-249998J0D01*
G01*
X377439298Y-110656600D01*
G75*
G02*
X377189300Y-110406602I0J249998D01*
G01*
X377189300Y-109506598D01*
G75*
G02*
X377439298Y-109256600I249998J0D01*
G01*
X377964302Y-109256600D01*
G75*
G02*
X378214300Y-109506598I0J-249998D01*
G01*
G37*
G36*
G01*
X380039300Y-109506598D02*
X380039300Y-110406602D01*
G75*
G02*
X379789302Y-110656600I-249998J0D01*
G01*
X379264298Y-110656600D01*
G75*
G02*
X379014300Y-110406602I0J249998D01*
G01*
X379014300Y-109506598D01*
G75*
G02*
X379264298Y-109256600I249998J0D01*
G01*
X379789302Y-109256600D01*
G75*
G02*
X380039300Y-109506598I0J-249998D01*
G01*
G37*
%TD*%
%TO.C,F1*%
G36*
G01*
X369199000Y-101082000D02*
X369199000Y-99832000D01*
G75*
G02*
X369449000Y-99582000I250000J0D01*
G01*
X370199000Y-99582000D01*
G75*
G02*
X370449000Y-99832000I0J-250000D01*
G01*
X370449000Y-101082000D01*
G75*
G02*
X370199000Y-101332000I-250000J0D01*
G01*
X369449000Y-101332000D01*
G75*
G02*
X369199000Y-101082000I0J250000D01*
G01*
G37*
G36*
G01*
X371999000Y-101082000D02*
X371999000Y-99832000D01*
G75*
G02*
X372249000Y-99582000I250000J0D01*
G01*
X372999000Y-99582000D01*
G75*
G02*
X373249000Y-99832000I0J-250000D01*
G01*
X373249000Y-101082000D01*
G75*
G02*
X372999000Y-101332000I-250000J0D01*
G01*
X372249000Y-101332000D01*
G75*
G02*
X371999000Y-101082000I0J250000D01*
G01*
G37*
%TD*%
D17*
%TO.C,D98*%
X82555250Y-184582000D03*
X82555250Y-187782000D03*
X77655250Y-184582000D03*
X77655250Y-187782000D03*
%TD*%
%TO.C,D97*%
X151564000Y-185572000D03*
X151564000Y-182372000D03*
X156464000Y-185572000D03*
X156464000Y-182372000D03*
%TD*%
%TO.C,D96*%
X208624000Y-186194500D03*
X208624000Y-182994500D03*
X213524000Y-186194500D03*
X213524000Y-182994500D03*
%TD*%
%TO.C,D95*%
X306255250Y-187782000D03*
X306255250Y-184582000D03*
X311155250Y-187782000D03*
X311155250Y-184582000D03*
%TD*%
D18*
%TO.C,D94*%
X367455250Y-188632000D03*
X364255250Y-188632000D03*
X367455250Y-183732000D03*
X364255250Y-183732000D03*
%TD*%
D17*
%TO.C,D93*%
X362204000Y-110642000D03*
X362204000Y-107442000D03*
X367104000Y-110642000D03*
X367104000Y-107442000D03*
%TD*%
%TO.C,D92*%
X311155250Y-108382000D03*
X311155250Y-111582000D03*
X306255250Y-108382000D03*
X306255250Y-111582000D03*
%TD*%
%TO.C,D91*%
X234955250Y-108382000D03*
X234955250Y-111582000D03*
X230055250Y-108382000D03*
X230055250Y-111582000D03*
%TD*%
%TO.C,D90*%
X153061500Y-111582000D03*
X153061500Y-108382000D03*
X157961500Y-111582000D03*
X157961500Y-108382000D03*
%TD*%
%TO.C,D89*%
X82624000Y-108394500D03*
X82624000Y-111594500D03*
X77724000Y-108394500D03*
X77724000Y-111594500D03*
%TD*%
D19*
%TO.C,D88*%
X377031250Y-167481250D03*
X373731250Y-167481250D03*
%TD*%
%TO.C,D87*%
X377156250Y-148431250D03*
X373856250Y-148431250D03*
%TD*%
%TO.C,D86*%
X377156250Y-143668750D03*
X373856250Y-143668750D03*
%TD*%
%TO.C,D85*%
X377156250Y-124618750D03*
X373856250Y-124618750D03*
%TD*%
D20*
%TO.C,D84*%
X81692750Y-100332000D03*
X81692750Y-103632000D03*
%TD*%
D19*
%TO.C,D83*%
X373062500Y-189706250D03*
X369762500Y-189706250D03*
%TD*%
D20*
%TO.C,D82*%
X364267750Y-194057000D03*
X364267750Y-197357000D03*
%TD*%
%TO.C,D81*%
X364236000Y-175007000D03*
X364236000Y-171707000D03*
%TD*%
%TO.C,D80*%
X349980250Y-152719500D03*
X349980250Y-149419500D03*
%TD*%
%TO.C,D79*%
X343630250Y-136907000D03*
X343630250Y-140207000D03*
%TD*%
%TO.C,D78*%
X354742750Y-117857000D03*
X354742750Y-121157000D03*
%TD*%
%TO.C,D77*%
X345217750Y-194057000D03*
X345217750Y-197357000D03*
%TD*%
%TO.C,D76*%
X345217750Y-98807000D03*
X345217750Y-102107000D03*
%TD*%
%TO.C,D75*%
X340518750Y-174625000D03*
X340518750Y-171325000D03*
%TD*%
%TO.C,D74*%
X335692750Y-136907000D03*
X335692750Y-140207000D03*
%TD*%
%TO.C,D73*%
X326167750Y-117857000D03*
X326167750Y-121157000D03*
%TD*%
%TO.C,D72*%
X326167750Y-98807000D03*
X326167750Y-102107000D03*
%TD*%
%TO.C,D71*%
X321405250Y-156144500D03*
X321405250Y-152844500D03*
%TD*%
%TO.C,D70*%
X316642750Y-136907000D03*
X316642750Y-140207000D03*
%TD*%
%TO.C,D69*%
X311404000Y-175007000D03*
X311404000Y-171707000D03*
%TD*%
%TO.C,D68*%
X307117750Y-117857000D03*
X307117750Y-121157000D03*
%TD*%
%TO.C,D67*%
X307117750Y-98807000D03*
X307117750Y-102107000D03*
%TD*%
%TO.C,D66*%
X325374000Y-190882000D03*
X325374000Y-194182000D03*
%TD*%
%TO.C,D65*%
X302355250Y-155957000D03*
X302355250Y-159257000D03*
%TD*%
%TO.C,D64*%
X297592750Y-136907000D03*
X297592750Y-140207000D03*
%TD*%
%TO.C,D63*%
X292830250Y-175007000D03*
X292830250Y-171707000D03*
%TD*%
%TO.C,D62*%
X288067750Y-117857000D03*
X288067750Y-121157000D03*
%TD*%
%TO.C,D61*%
X288067750Y-98807000D03*
X288067750Y-102107000D03*
%TD*%
D19*
%TO.C,D60*%
X307117750Y-198882000D03*
X303817750Y-198882000D03*
%TD*%
D20*
%TO.C,D59*%
X283305250Y-155957000D03*
X283305250Y-159257000D03*
%TD*%
%TO.C,D58*%
X278542750Y-136907000D03*
X278542750Y-140207000D03*
%TD*%
%TO.C,D57*%
X272192750Y-173544500D03*
X272192750Y-170244500D03*
%TD*%
%TO.C,D56*%
X269017750Y-117857000D03*
X269017750Y-121157000D03*
%TD*%
%TO.C,D55*%
X269017750Y-98807000D03*
X269017750Y-102107000D03*
%TD*%
%TO.C,D54*%
X264255250Y-155957000D03*
X264255250Y-159257000D03*
%TD*%
D19*
%TO.C,D53*%
X291305250Y-198882000D03*
X288005250Y-198882000D03*
%TD*%
D20*
%TO.C,D52*%
X259492750Y-136907000D03*
X259492750Y-140207000D03*
%TD*%
%TO.C,D51*%
X253619000Y-172337000D03*
X253619000Y-169037000D03*
%TD*%
%TO.C,D50*%
X249967750Y-117857000D03*
X249967750Y-121157000D03*
%TD*%
%TO.C,D49*%
X249967750Y-98807000D03*
X249967750Y-102107000D03*
%TD*%
%TO.C,D48*%
X245205250Y-155957000D03*
X245205250Y-159257000D03*
%TD*%
%TO.C,D47*%
X240442750Y-136907000D03*
X240442750Y-140207000D03*
%TD*%
%TO.C,D46*%
X233934000Y-172337000D03*
X233934000Y-169037000D03*
%TD*%
%TO.C,D45*%
X230917750Y-117857000D03*
X230917750Y-121157000D03*
%TD*%
%TO.C,D44*%
X230917750Y-98807000D03*
X230917750Y-102107000D03*
%TD*%
%TO.C,D43*%
X226155250Y-155957000D03*
X226155250Y-159257000D03*
%TD*%
%TO.C,D42*%
X221392750Y-136907000D03*
X221392750Y-140207000D03*
%TD*%
%TO.C,D41*%
X218217750Y-192657000D03*
X218217750Y-189357000D03*
%TD*%
%TO.C,D40*%
X216630250Y-175007000D03*
X216630250Y-178307000D03*
%TD*%
%TO.C,D39*%
X211867750Y-117857000D03*
X211867750Y-121157000D03*
%TD*%
%TO.C,D38*%
X211867750Y-98807000D03*
X211867750Y-102107000D03*
%TD*%
%TO.C,D37*%
X207105250Y-155957000D03*
X207105250Y-159257000D03*
%TD*%
%TO.C,D36*%
X202342750Y-136907000D03*
X202342750Y-140207000D03*
%TD*%
%TO.C,D35*%
X197580250Y-175007000D03*
X197580250Y-178307000D03*
%TD*%
%TO.C,D34*%
X192817750Y-117857000D03*
X192817750Y-121157000D03*
%TD*%
%TO.C,D33*%
X192817750Y-98807000D03*
X192817750Y-102107000D03*
%TD*%
%TO.C,D32*%
X188055250Y-155957000D03*
X188055250Y-159257000D03*
%TD*%
%TO.C,D31*%
X183292750Y-136907000D03*
X183292750Y-140207000D03*
%TD*%
%TO.C,D30*%
X178530250Y-175007000D03*
X178530250Y-178307000D03*
%TD*%
%TO.C,D29*%
X173767750Y-117857000D03*
X173767750Y-121157000D03*
%TD*%
%TO.C,D28*%
X173767750Y-98807000D03*
X173767750Y-102107000D03*
%TD*%
%TO.C,D27*%
X169005250Y-155957000D03*
X169005250Y-159257000D03*
%TD*%
%TO.C,D26*%
X164242750Y-136907000D03*
X164242750Y-140207000D03*
%TD*%
%TO.C,D25*%
X159480250Y-175007000D03*
X159480250Y-178307000D03*
%TD*%
%TO.C,D24*%
X154717750Y-117857000D03*
X154717750Y-121157000D03*
%TD*%
%TO.C,D23*%
X154717750Y-98807000D03*
X154717750Y-102107000D03*
%TD*%
%TO.C,D22*%
X149955250Y-155957000D03*
X149955250Y-159257000D03*
%TD*%
%TO.C,D21*%
X145192750Y-136907000D03*
X145192750Y-140207000D03*
%TD*%
%TO.C,D20*%
X150114000Y-193547000D03*
X150114000Y-190247000D03*
%TD*%
%TO.C,D19*%
X140430250Y-175007000D03*
X140430250Y-178307000D03*
%TD*%
%TO.C,D18*%
X135667750Y-117857000D03*
X135667750Y-121157000D03*
%TD*%
%TO.C,D17*%
X135667750Y-98807000D03*
X135667750Y-102107000D03*
%TD*%
%TO.C,D16*%
X130905250Y-155957000D03*
X130905250Y-159257000D03*
%TD*%
%TO.C,D15*%
X126142750Y-136907000D03*
X126142750Y-140207000D03*
%TD*%
D19*
%TO.C,D14*%
X128144000Y-191262000D03*
X131444000Y-191262000D03*
%TD*%
D20*
%TO.C,D13*%
X116617750Y-117857000D03*
X116617750Y-121157000D03*
%TD*%
%TO.C,D12*%
X116617750Y-98807000D03*
X116617750Y-102107000D03*
%TD*%
%TO.C,D11*%
X103124000Y-193292000D03*
X103124000Y-189992000D03*
%TD*%
%TO.C,D10*%
X109474000Y-175007000D03*
X109474000Y-178307000D03*
%TD*%
%TO.C,D9*%
X104711500Y-155957000D03*
X104711500Y-159257000D03*
%TD*%
%TO.C,D8*%
X102330250Y-136907000D03*
X102330250Y-140207000D03*
%TD*%
%TO.C,D7*%
X97567750Y-117857000D03*
X97567750Y-121157000D03*
%TD*%
%TO.C,D6*%
X97567750Y-98807000D03*
X97567750Y-102107000D03*
%TD*%
%TO.C,D5*%
X78359000Y-194057000D03*
X78359000Y-190757000D03*
%TD*%
%TO.C,D4*%
X78517750Y-175007000D03*
X78517750Y-178307000D03*
%TD*%
%TO.C,D3*%
X78517750Y-155957000D03*
X78517750Y-159257000D03*
%TD*%
%TO.C,D2*%
X78517750Y-136907000D03*
X78517750Y-140207000D03*
%TD*%
%TO.C,D1*%
X78517750Y-117857000D03*
X78517750Y-121157000D03*
%TD*%
%TO.C,CF3*%
G36*
G01*
X263755250Y-185863250D02*
X263755250Y-184913250D01*
G75*
G02*
X264005250Y-184663250I250000J0D01*
G01*
X264505250Y-184663250D01*
G75*
G02*
X264755250Y-184913250I0J-250000D01*
G01*
X264755250Y-185863250D01*
G75*
G02*
X264505250Y-186113250I-250000J0D01*
G01*
X264005250Y-186113250D01*
G75*
G02*
X263755250Y-185863250I0J250000D01*
G01*
G37*
G36*
G01*
X265655250Y-185863250D02*
X265655250Y-184913250D01*
G75*
G02*
X265905250Y-184663250I250000J0D01*
G01*
X266405250Y-184663250D01*
G75*
G02*
X266655250Y-184913250I0J-250000D01*
G01*
X266655250Y-185863250D01*
G75*
G02*
X266405250Y-186113250I-250000J0D01*
G01*
X265905250Y-186113250D01*
G75*
G02*
X265655250Y-185863250I0J250000D01*
G01*
G37*
%TD*%
%TO.C,C_X1*%
G36*
G01*
X255948078Y-193341171D02*
X256619829Y-194012922D01*
G75*
G02*
X256619829Y-194366476I-176777J-176777D01*
G01*
X256266276Y-194720029D01*
G75*
G02*
X255912722Y-194720029I-176777J176777D01*
G01*
X255240971Y-194048278D01*
G75*
G02*
X255240971Y-193694724I176777J176777D01*
G01*
X255594524Y-193341171D01*
G75*
G02*
X255948078Y-193341171I176777J-176777D01*
G01*
G37*
G36*
G01*
X257291580Y-191997669D02*
X257963331Y-192669420D01*
G75*
G02*
X257963331Y-193022974I-176777J-176777D01*
G01*
X257609778Y-193376527D01*
G75*
G02*
X257256224Y-193376527I-176777J176777D01*
G01*
X256584473Y-192704776D01*
G75*
G02*
X256584473Y-192351222I176777J176777D01*
G01*
X256938026Y-191997669D01*
G75*
G02*
X257291580Y-191997669I176777J-176777D01*
G01*
G37*
%TD*%
%TO.C,C_ucap1*%
G36*
G01*
X259355250Y-180150750D02*
X259355250Y-181100750D01*
G75*
G02*
X259105250Y-181350750I-250000J0D01*
G01*
X258605250Y-181350750D01*
G75*
G02*
X258355250Y-181100750I0J250000D01*
G01*
X258355250Y-180150750D01*
G75*
G02*
X258605250Y-179900750I250000J0D01*
G01*
X259105250Y-179900750D01*
G75*
G02*
X259355250Y-180150750I0J-250000D01*
G01*
G37*
G36*
G01*
X257455250Y-180150750D02*
X257455250Y-181100750D01*
G75*
G02*
X257205250Y-181350750I-250000J0D01*
G01*
X256705250Y-181350750D01*
G75*
G02*
X256455250Y-181100750I0J250000D01*
G01*
X256455250Y-180150750D01*
G75*
G02*
X256705250Y-179900750I250000J0D01*
G01*
X257205250Y-179900750D01*
G75*
G02*
X257455250Y-180150750I0J-250000D01*
G01*
G37*
%TD*%
%TO.C,C_F4*%
G36*
G01*
X231554000Y-183462000D02*
X232504000Y-183462000D01*
G75*
G02*
X232754000Y-183712000I0J-250000D01*
G01*
X232754000Y-184212000D01*
G75*
G02*
X232504000Y-184462000I-250000J0D01*
G01*
X231554000Y-184462000D01*
G75*
G02*
X231304000Y-184212000I0J250000D01*
G01*
X231304000Y-183712000D01*
G75*
G02*
X231554000Y-183462000I250000J0D01*
G01*
G37*
G36*
G01*
X231554000Y-185362000D02*
X232504000Y-185362000D01*
G75*
G02*
X232754000Y-185612000I0J-250000D01*
G01*
X232754000Y-186112000D01*
G75*
G02*
X232504000Y-186362000I-250000J0D01*
G01*
X231554000Y-186362000D01*
G75*
G02*
X231304000Y-186112000I0J250000D01*
G01*
X231304000Y-185612000D01*
G75*
G02*
X231554000Y-185362000I250000J0D01*
G01*
G37*
%TD*%
%TO.C,C_F2*%
G36*
G01*
X228281250Y-198937500D02*
X227331250Y-198937500D01*
G75*
G02*
X227081250Y-198687500I0J250000D01*
G01*
X227081250Y-198187500D01*
G75*
G02*
X227331250Y-197937500I250000J0D01*
G01*
X228281250Y-197937500D01*
G75*
G02*
X228531250Y-198187500I0J-250000D01*
G01*
X228531250Y-198687500D01*
G75*
G02*
X228281250Y-198937500I-250000J0D01*
G01*
G37*
G36*
G01*
X228281250Y-197037500D02*
X227331250Y-197037500D01*
G75*
G02*
X227081250Y-196787500I0J250000D01*
G01*
X227081250Y-196287500D01*
G75*
G02*
X227331250Y-196037500I250000J0D01*
G01*
X228281250Y-196037500D01*
G75*
G02*
X228531250Y-196287500I0J-250000D01*
G01*
X228531250Y-196787500D01*
G75*
G02*
X228281250Y-197037500I-250000J0D01*
G01*
G37*
%TD*%
%TO.C,C_F1*%
G36*
G01*
X238561500Y-180150750D02*
X238561500Y-181100750D01*
G75*
G02*
X238311500Y-181350750I-250000J0D01*
G01*
X237811500Y-181350750D01*
G75*
G02*
X237561500Y-181100750I0J250000D01*
G01*
X237561500Y-180150750D01*
G75*
G02*
X237811500Y-179900750I250000J0D01*
G01*
X238311500Y-179900750D01*
G75*
G02*
X238561500Y-180150750I0J-250000D01*
G01*
G37*
G36*
G01*
X236661500Y-180150750D02*
X236661500Y-181100750D01*
G75*
G02*
X236411500Y-181350750I-250000J0D01*
G01*
X235911500Y-181350750D01*
G75*
G02*
X235661500Y-181100750I0J250000D01*
G01*
X235661500Y-180150750D01*
G75*
G02*
X235911500Y-179900750I250000J0D01*
G01*
X236411500Y-179900750D01*
G75*
G02*
X236661500Y-180150750I0J-250000D01*
G01*
G37*
%TD*%
M02*
