M48
; DRILL file {KiCad (5.1.9)-1} date 05/17/21 13:40:15
; FORMAT={-:-/ absolute / metric / decimal}
; #@! TF.CreationDate,2021-05-17T13:40:15-04:00
; #@! TF.GenerationSoftware,Kicad,Pcbnew,(5.1.9)-1
FMAT,2
METRIC
T1C0.400
T2C0.600
T3C0.900
T4C1.000
T5C1.470
T6C1.500
T7C0.650
T8C1.750
T9C3.048
T10C3.988
%
G90
G05
T1
X120.767Y-185.061
X165.945Y-197.256
X183.344Y-200.082
X196.838Y-107.213
X196.838Y-125.469
X202.394Y-191.351
X205.569Y-145.313
X205.632Y-182.175
X212.713Y-164.363
X215.094Y-170.713
X219.539Y-188.652
X222.301Y-193.287
X222.301Y-195.144
X222.301Y-196.194
X223.095Y-165.506
X224.619Y-187.382
X224.619Y-188.382
X224.619Y-189.382
X224.619Y-190.382
X224.619Y-191.382
X224.682Y-182.969
X226.27Y-195.669
X226.27Y-198.844
X227.857Y-173.444
X232.023Y-179.99
X234.207Y-175.825
X234.271Y-183.826
X234.95Y-182.562
X238.97Y-173.444
X239.859Y-177.476
X241.351Y-175.825
X241.637Y-182.81
X242.145Y-171.856
X244.939Y-183.572
X251.035Y-184.888
X252.303Y-185.463
X254.591Y-185.604
X256.595Y-202.181
X258.814Y-179.0
X259.544Y-170.237
X261.925Y-168.332
X263.354Y-191.827
X265.248Y-198.318
X265.256Y-200.317
X265.256Y-197.297
X265.259Y-196.272
X265.27Y-199.317
X265.894Y-192.144
X266.688Y-191.351
X269.926Y-170.269
X274.689Y-189.319
X279.388Y-189.763
X280.245Y-170.872
X290.5Y-171.507
X291.294Y-194.526
X296.914Y-186.144
X297.707Y-182.175
X346.126Y-175.825
X351.631Y-107.95
X354.064Y-155.188
X358.826Y-134.093
X360.509Y-123.882
X360.509Y-142.932
X360.509Y-149.282
X362.795Y-166.3
X367.558Y-98.037
X369.399Y-172.142
X369.939Y-124.231
X369.939Y-143.281
X369.939Y-149.631
X373.209Y-106.102
X375.495Y-112.325
X376.435Y-111.985
X377.32Y-112.45
X378.67Y-113.119
X380.921Y-104.832
T3
X362.731Y-94.513
X365.272Y-94.513
X383.369Y-100.863
X383.369Y-103.403
T4
X64.281Y-100.069
X64.281Y-102.569
X64.281Y-105.069
X78.781Y-100.069
X78.781Y-105.069
X350.044Y-97.472
X350.044Y-100.012
X350.044Y-102.552
X350.044Y-105.093
X356.762Y-94.862
X356.762Y-97.402
X356.762Y-99.942
X359.303Y-94.862
X359.303Y-97.402
X359.303Y-99.942
T5
X67.615Y-118.167
X67.615Y-137.217
X67.615Y-156.267
X67.615Y-175.317
X67.615Y-194.367
X73.965Y-115.627
X73.965Y-134.677
X73.965Y-153.727
X73.965Y-172.777
X73.965Y-191.827
X86.665Y-99.117
X86.665Y-118.167
X89.04Y-175.31
X89.046Y-156.267
X89.046Y-194.367
X91.428Y-137.217
X91.428Y-194.367
X93.015Y-96.577
X93.015Y-115.627
X93.809Y-156.267
X95.39Y-172.77
X95.396Y-153.727
X95.396Y-191.827
X97.778Y-134.677
X97.778Y-191.827
X98.572Y-175.317
X100.159Y-153.727
X104.921Y-172.777
X105.715Y-99.117
X105.715Y-118.167
X110.49Y-175.33
X112.065Y-96.577
X112.065Y-115.627
X112.859Y-194.367
X115.24Y-137.217
X116.84Y-172.79
X119.209Y-191.827
X120.003Y-156.267
X120.003Y-194.367
X121.59Y-134.677
X124.765Y-99.117
X124.765Y-118.167
X126.353Y-153.727
X126.353Y-191.827
X129.528Y-175.317
X131.115Y-96.577
X131.115Y-115.627
X134.29Y-137.217
X135.878Y-172.777
X136.671Y-194.367
X139.053Y-156.267
X140.64Y-134.677
X143.022Y-191.827
X143.815Y-99.117
X143.815Y-118.167
X145.403Y-153.727
X148.578Y-175.317
X150.165Y-96.577
X150.165Y-115.627
X153.34Y-137.217
X154.928Y-172.777
X158.103Y-156.267
X159.69Y-134.677
X162.865Y-99.117
X162.865Y-118.167
X164.453Y-153.727
X167.628Y-175.317
X169.215Y-96.577
X169.215Y-115.627
X172.39Y-137.217
X173.978Y-172.777
X177.153Y-156.267
X178.74Y-134.677
X181.915Y-99.117
X181.915Y-118.167
X183.503Y-153.727
X186.678Y-175.317
X188.265Y-96.577
X188.265Y-115.627
X191.44Y-137.217
X193.028Y-172.777
X196.203Y-156.267
X197.79Y-134.677
X200.965Y-99.117
X200.965Y-118.167
X200.965Y-194.367
X202.553Y-153.727
X205.728Y-175.317
X207.315Y-96.577
X207.315Y-115.627
X207.315Y-191.827
X208.109Y-194.367
X210.49Y-137.217
X212.078Y-172.777
X214.459Y-191.827
X215.253Y-156.267
X216.84Y-134.677
X220.015Y-99.117
X220.015Y-118.167
X221.603Y-153.727
X224.778Y-175.317
X226.365Y-96.577
X226.365Y-115.627
X229.54Y-137.217
X231.128Y-172.777
X234.303Y-156.267
X235.89Y-134.677
X239.065Y-99.117
X239.065Y-118.167
X240.653Y-153.727
X243.828Y-175.317
X245.415Y-96.577
X245.415Y-115.627
X248.59Y-137.217
X250.178Y-172.777
X253.353Y-156.267
X254.94Y-134.677
X258.115Y-99.117
X258.115Y-118.167
X259.703Y-153.727
X262.878Y-175.317
X264.465Y-96.577
X264.465Y-115.627
X267.64Y-137.217
X269.228Y-172.777
X272.403Y-156.267
X273.99Y-134.677
X277.165Y-99.117
X277.165Y-118.167
X277.165Y-194.367
X278.753Y-153.727
X281.928Y-175.317
X281.928Y-194.367
X283.515Y-96.577
X283.515Y-115.627
X283.515Y-191.827
X286.69Y-137.217
X288.278Y-172.777
X288.278Y-191.827
X291.453Y-156.267
X293.04Y-134.677
X296.215Y-99.117
X296.215Y-118.167
X296.215Y-194.367
X297.803Y-153.727
X300.978Y-175.317
X302.565Y-96.577
X302.565Y-115.627
X302.565Y-191.827
X305.74Y-137.217
X307.328Y-172.777
X310.503Y-156.267
X310.503Y-194.367
X312.09Y-134.677
X315.265Y-99.117
X315.265Y-118.167
X315.265Y-194.367
X316.853Y-153.727
X316.853Y-191.827
X321.615Y-96.577
X321.615Y-115.627
X321.615Y-191.827
X324.79Y-137.217
X327.171Y-175.317
X331.14Y-134.677
X333.522Y-172.777
X334.315Y-99.117
X334.315Y-194.367
X334.32Y-118.16
X340.665Y-96.577
X340.665Y-191.827
X340.67Y-115.62
X341.459Y-156.267
X343.84Y-118.167
X347.809Y-153.727
X348.603Y-137.217
X350.19Y-115.627
X353.36Y-118.16
X353.365Y-175.317
X353.365Y-194.367
X354.953Y-134.677
X359.71Y-115.62
X359.715Y-172.777
X359.715Y-191.827
X372.415Y-118.167
X372.415Y-137.217
X372.415Y-156.267
X372.415Y-175.317
X372.415Y-194.367
X378.765Y-115.627
X378.765Y-134.677
X378.765Y-153.727
X378.765Y-172.777
X378.765Y-191.827
T7
X374.405Y-97.42
X380.185Y-97.42
T8
X66.345Y-120.707
X66.345Y-139.757
X66.345Y-158.807
X66.345Y-177.857
X66.345Y-196.907
X76.505Y-120.707
X76.505Y-139.757
X76.505Y-158.807
X76.505Y-177.857
X76.505Y-196.907
X85.395Y-101.657
X85.395Y-120.707
X87.77Y-177.85
X87.776Y-158.807
X87.776Y-196.907
X90.158Y-139.757
X90.158Y-196.907
X92.539Y-158.807
X95.555Y-101.657
X95.555Y-120.707
X97.301Y-177.857
X97.93Y-177.85
X97.936Y-158.807
X97.936Y-196.907
X100.318Y-139.757
X100.318Y-196.907
X102.699Y-158.807
X104.445Y-101.657
X104.445Y-120.707
X107.462Y-177.857
X109.22Y-177.87
X111.589Y-196.907
X113.97Y-139.757
X114.605Y-101.657
X114.605Y-120.707
X118.733Y-158.807
X118.733Y-196.907
X119.38Y-177.87
X121.749Y-196.907
X123.495Y-101.657
X123.495Y-120.707
X124.13Y-139.757
X128.258Y-177.857
X128.893Y-158.807
X128.893Y-196.907
X133.02Y-139.757
X133.655Y-101.657
X133.655Y-120.707
X135.401Y-196.907
X137.783Y-158.807
X138.418Y-177.857
X142.545Y-101.657
X142.545Y-120.707
X143.18Y-139.757
X145.561Y-196.907
X147.308Y-177.857
X147.943Y-158.807
X152.07Y-139.757
X152.705Y-101.657
X152.705Y-120.707
X156.833Y-158.807
X157.468Y-177.857
X161.595Y-101.657
X161.595Y-120.707
X162.23Y-139.757
X166.358Y-177.857
X166.993Y-158.807
X171.12Y-139.757
X171.755Y-101.657
X171.755Y-120.707
X175.883Y-158.807
X176.518Y-177.857
X180.645Y-101.657
X180.645Y-120.707
X181.28Y-139.757
X185.408Y-177.857
X186.043Y-158.807
X190.17Y-139.757
X190.805Y-101.657
X190.805Y-120.707
X194.933Y-158.807
X195.568Y-177.857
X199.695Y-101.657
X199.695Y-120.707
X199.695Y-196.907
X200.33Y-139.757
X204.458Y-177.857
X205.093Y-158.807
X206.839Y-196.907
X209.22Y-139.757
X209.855Y-101.657
X209.855Y-120.707
X209.855Y-196.907
X213.983Y-158.807
X214.618Y-177.857
X216.999Y-196.907
X218.745Y-101.657
X218.745Y-120.707
X219.38Y-139.757
X223.508Y-177.857
X224.143Y-158.807
X228.27Y-139.757
X228.905Y-101.657
X228.905Y-120.707
X233.033Y-158.807
X233.668Y-177.857
X237.795Y-101.657
X237.795Y-120.707
X238.43Y-139.757
X242.558Y-177.857
X243.193Y-158.807
X247.32Y-139.757
X247.955Y-101.657
X247.955Y-120.707
X252.083Y-158.807
X252.718Y-177.857
X256.845Y-101.657
X256.845Y-120.707
X257.48Y-139.757
X261.608Y-177.857
X262.243Y-158.807
X266.37Y-139.757
X267.005Y-101.657
X267.005Y-120.707
X271.133Y-158.807
X271.768Y-177.857
X275.895Y-101.657
X275.895Y-120.707
X275.895Y-196.907
X276.53Y-139.757
X280.658Y-177.857
X280.658Y-196.907
X281.293Y-158.807
X285.42Y-139.757
X286.055Y-101.657
X286.055Y-120.707
X286.055Y-196.907
X290.183Y-158.807
X290.818Y-177.857
X290.818Y-196.907
X294.945Y-101.657
X294.945Y-120.707
X294.945Y-196.907
X295.58Y-139.757
X299.708Y-177.857
X300.343Y-158.807
X304.47Y-139.757
X305.105Y-101.657
X305.105Y-120.707
X305.105Y-196.907
X309.233Y-158.807
X309.233Y-196.907
X309.868Y-177.857
X313.995Y-101.657
X313.995Y-120.707
X313.995Y-196.907
X314.63Y-139.757
X319.393Y-158.807
X319.393Y-196.907
X323.52Y-139.757
X324.155Y-101.657
X324.155Y-120.707
X324.155Y-196.907
X325.901Y-177.857
X333.045Y-101.657
X333.045Y-196.907
X333.05Y-120.7
X333.68Y-139.757
X336.061Y-177.857
X340.189Y-158.807
X342.57Y-120.707
X343.205Y-101.657
X343.205Y-196.907
X343.21Y-120.7
X347.333Y-139.757
X350.349Y-158.807
X352.09Y-120.7
X352.095Y-177.857
X352.095Y-196.907
X352.73Y-120.707
X357.493Y-139.757
X362.25Y-120.7
X362.255Y-177.857
X362.255Y-196.907
X371.145Y-120.707
X371.145Y-139.757
X371.145Y-158.807
X371.145Y-177.857
X371.145Y-196.907
X381.305Y-120.707
X381.305Y-139.757
X381.305Y-158.807
X381.305Y-177.857
X381.305Y-196.907
T9
X90.475Y-170.872
X114.288Y-170.872
X147.625Y-203.892
X161.919Y-203.892
X261.919Y-203.892
X261.925Y-203.892
X333.363Y-151.822
X335.744Y-113.722
X357.175Y-151.822
X359.556Y-113.722
T10
X71.425Y-120.707
X71.425Y-139.757
X71.425Y-158.807
X71.425Y-177.857
X71.425Y-196.907
X90.475Y-101.657
X90.475Y-120.707
X90.475Y-186.112
X92.85Y-177.85
X92.856Y-158.807
X92.856Y-196.907
X95.238Y-139.757
X95.238Y-196.907
X97.619Y-158.807
X102.381Y-177.857
X109.525Y-101.657
X109.525Y-120.707
X114.288Y-186.112
X114.3Y-177.87
X116.669Y-196.907
X119.05Y-139.757
X123.813Y-158.807
X123.813Y-196.907
X128.575Y-101.657
X128.575Y-120.707
X133.338Y-177.857
X138.1Y-139.757
X140.481Y-196.907
X142.863Y-158.807
X147.625Y-101.657
X147.625Y-120.707
X147.625Y-188.652
X152.388Y-177.857
X157.15Y-139.757
X161.913Y-158.807
X161.919Y-188.652
X166.675Y-101.657
X166.675Y-120.707
X171.438Y-177.857
X176.2Y-139.757
X180.963Y-158.807
X185.725Y-101.657
X185.725Y-120.707
X190.488Y-177.857
X195.25Y-139.757
X200.013Y-158.807
X204.775Y-101.657
X204.775Y-120.707
X204.775Y-196.907
X209.538Y-177.857
X211.919Y-196.907
X214.3Y-139.757
X219.063Y-158.807
X223.825Y-101.657
X223.825Y-120.707
X228.588Y-177.857
X233.35Y-139.757
X238.113Y-158.807
X242.875Y-101.657
X242.875Y-120.707
X247.638Y-177.857
X252.4Y-139.757
X257.163Y-158.807
X261.919Y-188.652
X261.925Y-101.657
X261.925Y-120.707
X261.925Y-188.652
X266.688Y-177.857
X271.45Y-139.757
X276.213Y-158.807
X280.975Y-101.657
X280.975Y-120.707
X280.975Y-196.907
X285.738Y-177.857
X285.738Y-196.907
X290.5Y-139.757
X295.263Y-158.807
X300.025Y-101.657
X300.025Y-120.707
X300.025Y-196.907
X304.788Y-177.857
X309.55Y-139.757
X314.313Y-158.807
X314.313Y-196.907
X319.075Y-101.657
X319.075Y-120.707
X319.075Y-196.907
X328.6Y-139.757
X330.981Y-177.857
X333.363Y-167.062
X335.744Y-128.962
X338.125Y-101.657
X338.125Y-196.907
X338.13Y-120.7
X345.269Y-158.807
X347.65Y-120.707
X352.413Y-139.757
X357.17Y-120.7
X357.175Y-167.062
X357.175Y-177.857
X357.175Y-196.907
X359.556Y-128.962
X376.225Y-120.707
X376.225Y-139.757
X376.225Y-158.807
X376.225Y-177.857
X376.225Y-196.907
T2
G00X372.975Y-93.47
M15
G01X372.975Y-94.07
M16
G05
G00X372.975Y-97.4
M15
G01X372.975Y-98.5
M16
G05
G00X381.615Y-93.47
M15
G01X381.615Y-94.07
M16
G05
G00X381.615Y-97.4
M15
G01X381.615Y-98.5
M16
G05
T6
G00X71.132Y-96.969
M15
G01X72.431Y-96.969
M16
G05
G00X71.132Y-108.169
M15
G01X72.431Y-108.169
M16
G05
T0
M30
