M48
; DRILL file {KiCad (5.1.9)-1} date 05/13/21 14:35:29
; FORMAT={-:-/ absolute / inch / decimal}
; #@! TF.CreationDate,2021-05-13T14:35:29-04:00
; #@! TF.GenerationSoftware,Kicad,Pcbnew,(5.1.9)-1
; #@! TF.FileFunction,Plated,1,2,PTH
FMAT,2
INCH
T1C0.0157
T2C0.0236
T3C0.0354
T4C0.0394
T5C0.0579
T6C0.0787
%
G90
G05
T1
X16.875Y-3.25
X17.625Y-3.25
X18.1562Y0.4062
X18.1562Y-0.3125
X18.375Y-2.7188
X18.375Y-2.9062
X18.4375Y-2.5938
X18.5Y-1.0938
X18.55Y-2.6
X18.7812Y-1.8438
X18.875Y-2.0938
X19.05Y-2.8
X19.25Y-2.75
X19.25Y-2.7894
X19.25Y-2.8287
X19.25Y-2.8681
X19.25Y-2.9075
X19.2812Y-2.5312
X19.2812Y-3.2293
X19.2812Y-3.2707
X19.5Y-3.2
X19.5464Y-3.1046
X19.625Y-2.5938
X19.95Y-2.4559
X19.95Y-2.55
X20.0054Y-2.6054
X20.0586Y-2.5995
X20.3Y-2.45
X20.3Y-2.675
X20.3399Y-2.6744
X20.375Y-2.7031
X20.625Y-2.075
X20.7188Y-2.0
X20.775Y-2.925
X20.825Y-2.075
X20.8496Y-3.1805
X20.8499Y-3.2593
X20.8499Y-3.1404
X20.85Y-3.1
X20.8504Y-3.2199
X20.875Y-2.9375
X20.9062Y-2.9062
X21.2812Y-2.7812
X21.4062Y-2.8438
X21.44Y-2.1
X21.8438Y-2.125
X21.875Y-3.0312
X22.125Y-2.6875
X22.1875Y-2.5312
X24.6Y0.35
X24.6Y-0.25
X24.6Y-1.0
X24.6Y-1.25
X24.9062Y-0.25
X24.9062Y-1.0
X24.9062Y-1.25
X24.95Y-2.15
X25.0Y0.7812
X25.1Y0.45
X25.3125Y0.25
X25.375Y0.375
X25.4036Y0.5
X25.5312Y0.2812
X25.5319Y0.3436
T3
X24.6875Y0.9062
X24.7875Y0.9062
X25.5Y0.6562
X25.5Y0.5563
T4
X12.9375Y0.6875
X12.9375Y0.5891
X12.9375Y0.4906
X13.5084Y0.6875
X13.5084Y0.4906
X24.2812Y0.7812
X24.2812Y0.6813
X24.2812Y0.5812
X24.2812Y0.4813
T5
X13.0687Y-0.025
X13.0687Y-0.775
X13.0687Y-1.525
X13.0687Y-2.275
X13.0687Y-3.025
X13.3187Y0.075
X13.3187Y-0.675
X13.3187Y-1.425
X13.3187Y-2.175
X13.3187Y-2.925
X13.8187Y0.725
X13.8187Y-0.025
X13.9125Y-1.525
X13.9125Y-3.025
X14.0062Y-0.775
X14.0062Y-3.025
X14.0687Y0.825
X14.0687Y0.075
X14.1Y-1.525
X14.1625Y-1.425
X14.1625Y-2.925
X14.2562Y-0.675
X14.2562Y-2.925
X14.2875Y-2.275
X14.35Y-1.425
X14.5375Y-2.175
X14.5687Y0.725
X14.5687Y-0.025
X14.8187Y0.825
X14.8187Y0.075
X14.85Y-3.025
X14.9437Y-0.775
X15.1Y-2.925
X15.1312Y-1.525
X15.1312Y-3.025
X15.1937Y-0.675
X15.3187Y0.725
X15.3187Y-0.025
X15.3812Y-1.425
X15.3812Y-2.925
X15.5062Y-2.275
X15.5687Y0.825
X15.5687Y0.075
X15.6937Y-0.775
X15.7562Y-2.175
X15.7875Y-3.025
X15.8812Y-1.525
X15.9437Y-0.675
X16.0375Y-2.925
X16.0687Y0.725
X16.0687Y-0.025
X16.1312Y-1.425
X16.2562Y-2.275
X16.3187Y0.825
X16.3187Y0.075
X16.4437Y-0.775
X16.5062Y-2.175
X16.6312Y-1.525
X16.6937Y-0.675
X16.8187Y0.725
X16.8187Y-0.025
X16.8812Y-1.425
X17.0062Y-2.275
X17.0687Y0.825
X17.0687Y0.075
X17.1937Y-0.775
X17.2562Y-2.175
X17.3812Y-1.525
X17.4437Y-0.675
X17.5687Y0.725
X17.5687Y-0.025
X17.6312Y-1.425
X17.7562Y-2.275
X17.8187Y0.825
X17.8187Y0.075
X17.9437Y-0.775
X18.0062Y-2.175
X18.1312Y-1.525
X18.1937Y-0.675
X18.3187Y0.725
X18.3187Y-0.025
X18.3187Y-3.025
X18.3812Y-1.425
X18.5062Y-2.275
X18.5687Y0.825
X18.5687Y0.075
X18.5687Y-2.925
X18.6Y-3.025
X18.6937Y-0.775
X18.7562Y-2.175
X18.85Y-2.925
X18.8812Y-1.525
X18.9437Y-0.675
X19.0687Y0.725
X19.0687Y-0.025
X19.1312Y-1.425
X19.2562Y-2.275
X19.3187Y0.825
X19.3187Y0.075
X19.4437Y-0.775
X19.5062Y-2.175
X19.6312Y-1.525
X19.6937Y-0.675
X19.8187Y0.725
X19.8187Y-0.025
X19.8812Y-1.425
X20.0062Y-2.275
X20.0687Y0.825
X20.0687Y0.075
X20.1937Y-0.775
X20.2562Y-2.175
X20.3812Y-1.525
X20.4437Y-0.675
X20.5687Y0.725
X20.5687Y-0.025
X20.6312Y-1.425
X20.7562Y-2.275
X20.8187Y0.825
X20.8187Y0.075
X20.9437Y-0.775
X21.0062Y-2.175
X21.1312Y-1.525
X21.1937Y-0.675
X21.3187Y0.725
X21.3187Y-0.025
X21.3187Y-3.025
X21.3812Y-1.425
X21.5062Y-2.275
X21.5062Y-3.025
X21.5687Y0.825
X21.5687Y0.075
X21.5687Y-2.925
X21.6937Y-0.775
X21.7562Y-2.175
X21.7562Y-2.925
X21.8812Y-1.525
X21.9437Y-0.675
X22.0687Y0.725
X22.0687Y-0.025
X22.0687Y-3.025
X22.1312Y-1.425
X22.2562Y-2.275
X22.3187Y0.825
X22.3187Y0.075
X22.3187Y-2.925
X22.4437Y-0.775
X22.5062Y-2.175
X22.6312Y-1.525
X22.6312Y-3.025
X22.6937Y-0.675
X22.8187Y0.725
X22.8187Y-0.025
X22.8187Y-3.025
X22.8812Y-1.425
X22.8812Y-2.925
X23.0687Y0.825
X23.0687Y0.075
X23.0687Y-2.925
X23.1937Y-0.775
X23.2875Y-2.275
X23.4437Y-0.675
X23.5375Y-2.175
X23.5687Y0.725
X23.5687Y-3.025
X23.8187Y0.825
X23.8187Y-2.925
X23.85Y-1.525
X23.9437Y-0.025
X24.1Y-1.425
X24.1312Y-0.775
X24.1937Y0.075
X24.3187Y-2.275
X24.3187Y-3.025
X24.3812Y-0.675
X24.5687Y-2.175
X24.5687Y-2.925
X25.0687Y-0.025
X25.0687Y-0.775
X25.0687Y-1.525
X25.0687Y-2.275
X25.0687Y-3.025
X25.3187Y0.075
X25.3187Y-0.675
X25.3187Y-1.425
X25.3187Y-2.175
X25.3187Y-2.925
T2
G00X25.1112Y0.9539
M15
G01X25.1112Y0.9224
M16
G05
G00X25.1112Y0.7957
M15
G01X25.1112Y0.7524
M16
G05
G00X25.4513Y0.9539
M15
G01X25.4513Y0.9224
M16
G05
G00X25.4513Y0.7957
M15
G01X25.4513Y0.7524
M16
G05
T6
G00X13.2229Y0.8095
M15
G01X13.2426Y0.8095
M16
G05
G00X13.2229Y0.3686
M15
G01X13.2426Y0.3686
M16
G05
T0
M30
