%TF.GenerationSoftware,KiCad,Pcbnew,(5.1.9)-1*%
%TF.CreationDate,2021-05-13T13:19:17-04:00*%
%TF.ProjectId,rnm-75E,726e6d2d-3735-4452-9e6b-696361645f70,rev?*%
%TF.SameCoordinates,Original*%
%TF.FileFunction,Soldermask,Top*%
%TF.FilePolarity,Negative*%
%FSLAX46Y46*%
G04 Gerber Fmt 4.6, Leading zero omitted, Abs format (unit mm)*
G04 Created by KiCad (PCBNEW (5.1.9)-1) date 2021-05-13 13:19:17*
%MOMM*%
%LPD*%
G01*
G04 APERTURE LIST*
%ADD10C,3.987800*%
%ADD11C,1.750000*%
%ADD12C,1.800000*%
%ADD13R,1.800000X1.800000*%
%ADD14C,3.048000*%
%ADD15O,1.700000X1.700000*%
%ADD16R,1.700000X1.700000*%
%ADD17R,2.000000X2.000000*%
%ADD18C,2.000000*%
%ADD19R,3.000000X2.500000*%
%ADD20O,1.000000X2.100000*%
%ADD21C,0.650000*%
%ADD22O,1.000000X1.600000*%
G04 APERTURE END LIST*
D10*
%TO.C,MX83*%
X621506250Y-60325000D03*
D11*
X616426250Y-60325000D03*
X626586250Y-60325000D03*
%TD*%
D10*
%TO.C,MX57*%
X531018750Y-60325000D03*
D11*
X525938750Y-60325000D03*
X536098750Y-60325000D03*
%TD*%
D12*
%TO.C,CAPS_LOCK_LED2*%
X647700000Y14128750D03*
D13*
X647700000Y16668750D03*
%TD*%
D12*
%TO.C,CAPS_LOCK_LED1*%
X627062500Y23018750D03*
D13*
X629602500Y23018750D03*
%TD*%
D10*
%TO.C,MX93*%
X469106250Y-79375000D03*
D11*
X464026250Y-79375000D03*
X474186250Y-79375000D03*
D14*
X411956250Y-86360000D03*
X526256250Y-86360000D03*
D10*
X411956250Y-71120000D03*
X526256250Y-71120000D03*
%TD*%
%TO.C,MX92*%
X388143750Y-79375000D03*
D11*
X383063750Y-79375000D03*
X393223750Y-79375000D03*
%TD*%
D10*
%TO.C,MX91*%
X359568750Y-79375000D03*
D11*
X354488750Y-79375000D03*
X364648750Y-79375000D03*
%TD*%
D10*
%TO.C,MX90*%
X357187500Y-41275000D03*
D11*
X352107500Y-41275000D03*
X362267500Y-41275000D03*
%TD*%
D10*
%TO.C,MX85*%
X640556250Y-79375000D03*
D11*
X635476250Y-79375000D03*
X645636250Y-79375000D03*
%TD*%
D10*
%TO.C,MX41*%
X476250000Y-79375000D03*
D11*
X471170000Y-79375000D03*
X481330000Y-79375000D03*
D14*
X426250100Y-86360000D03*
X526249900Y-86360000D03*
D10*
X426250100Y-71120000D03*
X526249900Y-71120000D03*
%TD*%
D15*
%TO.C,J3*%
X616743750Y12223750D03*
X616743750Y14763750D03*
X616743750Y17303750D03*
D16*
X616743750Y19843750D03*
%TD*%
D11*
%TO.C,MX2*%
X340836250Y-22225000D03*
X330676250Y-22225000D03*
D10*
X335756250Y-22225000D03*
%TD*%
%TO.C,MX4*%
X335756250Y-60325000D03*
D11*
X330676250Y-60325000D03*
X340836250Y-60325000D03*
%TD*%
D17*
%TO.C,SW2*%
X328612500Y17462500D03*
D18*
X328612500Y14962500D03*
X328612500Y12462500D03*
D19*
X336112500Y20562500D03*
X336112500Y9362500D03*
D18*
X343112500Y17462500D03*
X343112500Y12462500D03*
%TD*%
D10*
%TO.C,MX89*%
X640556250Y-60325000D03*
D11*
X635476250Y-60325000D03*
X645636250Y-60325000D03*
%TD*%
D10*
%TO.C,MX88*%
X640556250Y-41275000D03*
D11*
X635476250Y-41275000D03*
X645636250Y-41275000D03*
%TD*%
D10*
%TO.C,MX87*%
X640556250Y-22225000D03*
D11*
X635476250Y-22225000D03*
X645636250Y-22225000D03*
%TD*%
D10*
%TO.C,MX86*%
X640556250Y-3175000D03*
D11*
X635476250Y-3175000D03*
X645636250Y-3175000D03*
%TD*%
D10*
%TO.C,MX84*%
X621506250Y-79375000D03*
D11*
X616426250Y-79375000D03*
X626586250Y-79375000D03*
%TD*%
D10*
%TO.C,MX82*%
X609600000Y-41275000D03*
D11*
X604520000Y-41275000D03*
X614680000Y-41275000D03*
D14*
X597693750Y-34290000D03*
X621506250Y-34290000D03*
D10*
X597693750Y-49530000D03*
X621506250Y-49530000D03*
%TD*%
%TO.C,MX81*%
X616743750Y-22225000D03*
D11*
X611663750Y-22225000D03*
X621823750Y-22225000D03*
%TD*%
D10*
%TO.C,MX80*%
X611981250Y-3175000D03*
D11*
X606901250Y-3175000D03*
X617061250Y-3175000D03*
D14*
X600075000Y3810000D03*
X623887500Y3810000D03*
D10*
X600075000Y-11430000D03*
X623887500Y-11430000D03*
%TD*%
%TO.C,MX79*%
X602456250Y-79375000D03*
D11*
X597376250Y-79375000D03*
X607536250Y-79375000D03*
%TD*%
D10*
%TO.C,MX78*%
X602456250Y15875000D03*
D11*
X597376250Y15875000D03*
X607536250Y15875000D03*
%TD*%
D10*
%TO.C,MX77*%
X595312500Y-60325000D03*
D11*
X590232500Y-60325000D03*
X600392500Y-60325000D03*
%TD*%
D10*
%TO.C,MX76*%
X592931250Y-22225000D03*
D11*
X587851250Y-22225000D03*
X598011250Y-22225000D03*
%TD*%
D10*
%TO.C,MX75*%
X583406250Y-3175000D03*
D11*
X578326250Y-3175000D03*
X588486250Y-3175000D03*
%TD*%
D10*
%TO.C,MX74*%
X583406250Y15875000D03*
D11*
X578326250Y15875000D03*
X588486250Y15875000D03*
%TD*%
D10*
%TO.C,MX73*%
X578643750Y-41275000D03*
D11*
X573563750Y-41275000D03*
X583723750Y-41275000D03*
%TD*%
D10*
%TO.C,MX72*%
X573881250Y-22225000D03*
D11*
X568801250Y-22225000D03*
X578961250Y-22225000D03*
%TD*%
D10*
%TO.C,MX71*%
X578643750Y-79375000D03*
D11*
X573563750Y-79375000D03*
X583723750Y-79375000D03*
%TD*%
D10*
%TO.C,MX70*%
X583406250Y-79375000D03*
D11*
X578326250Y-79375000D03*
X588486250Y-79375000D03*
%TD*%
D10*
%TO.C,MX69*%
X569118750Y-60325000D03*
D11*
X564038750Y-60325000D03*
X574198750Y-60325000D03*
%TD*%
D10*
%TO.C,MX68*%
X564356250Y-3175000D03*
D11*
X559276250Y-3175000D03*
X569436250Y-3175000D03*
%TD*%
D10*
%TO.C,MX67*%
X564356250Y15875000D03*
D11*
X559276250Y15875000D03*
X569436250Y15875000D03*
%TD*%
D10*
%TO.C,MX66*%
X559593750Y-41275000D03*
D11*
X554513750Y-41275000D03*
X564673750Y-41275000D03*
%TD*%
D10*
%TO.C,MX65*%
X554831250Y-22225000D03*
D11*
X549751250Y-22225000D03*
X559911250Y-22225000D03*
%TD*%
D10*
%TO.C,MX64*%
X550068750Y-79375000D03*
D11*
X544988750Y-79375000D03*
X555148750Y-79375000D03*
%TD*%
D10*
%TO.C,MX63*%
X564356250Y-79375000D03*
D11*
X559276250Y-79375000D03*
X569436250Y-79375000D03*
%TD*%
D10*
%TO.C,MX62*%
X550068750Y-60325000D03*
D11*
X544988750Y-60325000D03*
X555148750Y-60325000D03*
%TD*%
D10*
%TO.C,MX61*%
X545306250Y-3175000D03*
D11*
X540226250Y-3175000D03*
X550386250Y-3175000D03*
%TD*%
D10*
%TO.C,MX60*%
X545306250Y15875000D03*
D11*
X540226250Y15875000D03*
X550386250Y15875000D03*
%TD*%
D10*
%TO.C,MX59*%
X540543750Y-41275000D03*
D11*
X535463750Y-41275000D03*
X545623750Y-41275000D03*
%TD*%
D10*
%TO.C,MX58*%
X535781250Y-22225000D03*
D11*
X530701250Y-22225000D03*
X540861250Y-22225000D03*
%TD*%
D10*
%TO.C,MX56*%
X526256250Y-3175000D03*
D11*
X521176250Y-3175000D03*
X531336250Y-3175000D03*
%TD*%
D10*
%TO.C,MX55*%
X526256250Y15875000D03*
D11*
X521176250Y15875000D03*
X531336250Y15875000D03*
%TD*%
D10*
%TO.C,MX54*%
X521493750Y-41275000D03*
D11*
X516413750Y-41275000D03*
X526573750Y-41275000D03*
%TD*%
D10*
%TO.C,MX53*%
X545306250Y-79375000D03*
D11*
X540226250Y-79375000D03*
X550386250Y-79375000D03*
%TD*%
D10*
%TO.C,MX52*%
X516731250Y-22225000D03*
D11*
X511651250Y-22225000D03*
X521811250Y-22225000D03*
%TD*%
D10*
%TO.C,MX51*%
X511968750Y-60325000D03*
D11*
X506888750Y-60325000D03*
X517048750Y-60325000D03*
%TD*%
D10*
%TO.C,MX50*%
X507206250Y-3175000D03*
D11*
X502126250Y-3175000D03*
X512286250Y-3175000D03*
%TD*%
D10*
%TO.C,MX49*%
X507206250Y15875000D03*
D11*
X502126250Y15875000D03*
X512286250Y15875000D03*
%TD*%
D10*
%TO.C,MX48*%
X502443750Y-41275000D03*
D11*
X497363750Y-41275000D03*
X507523750Y-41275000D03*
%TD*%
D10*
%TO.C,MX47*%
X497681250Y-22225000D03*
D11*
X492601250Y-22225000D03*
X502761250Y-22225000D03*
%TD*%
D10*
%TO.C,MX46*%
X492918750Y-60325000D03*
D11*
X487838750Y-60325000D03*
X497998750Y-60325000D03*
%TD*%
D10*
%TO.C,MX45*%
X488156250Y-3175000D03*
D11*
X483076250Y-3175000D03*
X493236250Y-3175000D03*
%TD*%
D10*
%TO.C,MX44*%
X488156250Y15875000D03*
D11*
X483076250Y15875000D03*
X493236250Y15875000D03*
%TD*%
D10*
%TO.C,MX43*%
X483393750Y-41275000D03*
D11*
X478313750Y-41275000D03*
X488473750Y-41275000D03*
%TD*%
D10*
%TO.C,MX42*%
X478631250Y-22225000D03*
D11*
X473551250Y-22225000D03*
X483711250Y-22225000D03*
%TD*%
D10*
%TO.C,MX40*%
X473868750Y-60325000D03*
D11*
X468788750Y-60325000D03*
X478948750Y-60325000D03*
%TD*%
D10*
%TO.C,MX39*%
X469106250Y-3175000D03*
D11*
X464026250Y-3175000D03*
X474186250Y-3175000D03*
%TD*%
D10*
%TO.C,MX38*%
X469106250Y15875000D03*
D11*
X464026250Y15875000D03*
X474186250Y15875000D03*
%TD*%
D10*
%TO.C,MX37*%
X464343750Y-41275000D03*
D11*
X459263750Y-41275000D03*
X469423750Y-41275000D03*
%TD*%
D10*
%TO.C,MX36*%
X459581250Y-22225000D03*
D11*
X454501250Y-22225000D03*
X464661250Y-22225000D03*
%TD*%
D10*
%TO.C,MX35*%
X454818750Y-60325000D03*
D11*
X449738750Y-60325000D03*
X459898750Y-60325000D03*
%TD*%
D10*
%TO.C,MX34*%
X450056250Y-3175000D03*
D11*
X444976250Y-3175000D03*
X455136250Y-3175000D03*
%TD*%
D10*
%TO.C,MX33*%
X450056250Y15875000D03*
D11*
X444976250Y15875000D03*
X455136250Y15875000D03*
%TD*%
D10*
%TO.C,MX32*%
X445293750Y-41275000D03*
D11*
X440213750Y-41275000D03*
X450373750Y-41275000D03*
%TD*%
D10*
%TO.C,MX31*%
X440531250Y-22225000D03*
D11*
X435451250Y-22225000D03*
X445611250Y-22225000D03*
%TD*%
D10*
%TO.C,MX30*%
X435768750Y-60325000D03*
D11*
X430688750Y-60325000D03*
X440848750Y-60325000D03*
%TD*%
D10*
%TO.C,MX29*%
X431006250Y-3175000D03*
D11*
X425926250Y-3175000D03*
X436086250Y-3175000D03*
%TD*%
D10*
%TO.C,MX28*%
X431006250Y15875000D03*
D11*
X425926250Y15875000D03*
X436086250Y15875000D03*
%TD*%
D10*
%TO.C,MX27*%
X426243750Y-41275000D03*
D11*
X421163750Y-41275000D03*
X431323750Y-41275000D03*
%TD*%
D10*
%TO.C,MX26*%
X421481250Y-22225000D03*
D11*
X416401250Y-22225000D03*
X426561250Y-22225000D03*
%TD*%
D10*
%TO.C,MX25*%
X416718750Y-60325000D03*
D11*
X411638750Y-60325000D03*
X421798750Y-60325000D03*
%TD*%
D10*
%TO.C,MX24*%
X411956250Y-3175000D03*
D11*
X406876250Y-3175000D03*
X417036250Y-3175000D03*
%TD*%
D10*
%TO.C,MX23*%
X411956250Y15875000D03*
D11*
X406876250Y15875000D03*
X417036250Y15875000D03*
%TD*%
D10*
%TO.C,MX22*%
X407193750Y-41275000D03*
D11*
X402113750Y-41275000D03*
X412273750Y-41275000D03*
%TD*%
D10*
%TO.C,MX21*%
X402431250Y-22225000D03*
D11*
X397351250Y-22225000D03*
X407511250Y-22225000D03*
%TD*%
D10*
%TO.C,MX20*%
X404812500Y-79375000D03*
D11*
X399732500Y-79375000D03*
X409892500Y-79375000D03*
%TD*%
D10*
%TO.C,MX19*%
X397668750Y-60325000D03*
D11*
X392588750Y-60325000D03*
X402748750Y-60325000D03*
%TD*%
D10*
%TO.C,MX18*%
X392906250Y-3175000D03*
D11*
X387826250Y-3175000D03*
X397986250Y-3175000D03*
%TD*%
D10*
%TO.C,MX17*%
X392906250Y15875000D03*
D11*
X387826250Y15875000D03*
X397986250Y15875000D03*
%TD*%
D10*
%TO.C,MX16*%
X388143750Y-41275000D03*
D11*
X383063750Y-41275000D03*
X393223750Y-41275000D03*
%TD*%
D10*
%TO.C,MX15*%
X383381250Y-22225000D03*
D11*
X378301250Y-22225000D03*
X388461250Y-22225000D03*
%TD*%
D10*
%TO.C,MX14*%
X381000000Y-79375000D03*
D11*
X375920000Y-79375000D03*
X386080000Y-79375000D03*
%TD*%
D10*
%TO.C,MX13*%
X373856250Y-3175000D03*
D11*
X368776250Y-3175000D03*
X378936250Y-3175000D03*
%TD*%
D10*
%TO.C,MX12*%
X373856250Y15875000D03*
D11*
X368776250Y15875000D03*
X378936250Y15875000D03*
%TD*%
D10*
%TO.C,MX11*%
X357187500Y-79375000D03*
D11*
X352107500Y-79375000D03*
X362267500Y-79375000D03*
%TD*%
D10*
%TO.C,MX10*%
X366712500Y-60325000D03*
D11*
X361632500Y-60325000D03*
X371792500Y-60325000D03*
D14*
X354806250Y-53340000D03*
X378618750Y-53340000D03*
D10*
X354806250Y-68580000D03*
X378618750Y-68580000D03*
%TD*%
%TO.C,MX9*%
X361950000Y-41275000D03*
D11*
X356870000Y-41275000D03*
X367030000Y-41275000D03*
%TD*%
D10*
%TO.C,MX8*%
X359568750Y-22225000D03*
D11*
X354488750Y-22225000D03*
X364648750Y-22225000D03*
%TD*%
D10*
%TO.C,MX7*%
X354806250Y-3175000D03*
D11*
X349726250Y-3175000D03*
X359886250Y-3175000D03*
%TD*%
D10*
%TO.C,MX6*%
X354806250Y15875000D03*
D11*
X349726250Y15875000D03*
X359886250Y15875000D03*
%TD*%
D10*
%TO.C,MX5*%
X335756250Y-79375000D03*
D11*
X330676250Y-79375000D03*
X340836250Y-79375000D03*
%TD*%
D10*
%TO.C,MX3*%
X335756250Y-41275000D03*
D11*
X330676250Y-41275000D03*
X340836250Y-41275000D03*
%TD*%
%TO.C,MX1*%
X340836250Y-3175000D03*
X330676250Y-3175000D03*
D10*
X335756250Y-3175000D03*
%TD*%
D20*
%TO.C,J2*%
X646463750Y19888750D03*
X637823750Y19888750D03*
D21*
X639253750Y20418750D03*
D22*
X637823750Y24068750D03*
D21*
X645033750Y20418750D03*
D22*
X646463750Y24068750D03*
%TD*%
M02*
