%TF.GenerationSoftware,KiCad,Pcbnew,(5.1.9)-1*%
%TF.CreationDate,2021-05-17T22:22:55-04:00*%
%TF.ProjectId,plate,706c6174-652e-46b6-9963-61645f706362,rev?*%
%TF.SameCoordinates,Original*%
%TF.FileFunction,Profile,NP*%
%FSLAX46Y46*%
G04 Gerber Fmt 4.6, Leading zero omitted, Abs format (unit mm)*
G04 Created by KiCad (PCBNEW (5.1.9)-1) date 2021-05-17 22:22:55*
%MOMM*%
%LPD*%
G01*
G04 APERTURE LIST*
%TA.AperFunction,Profile*%
%ADD10C,0.050000*%
%TD*%
%TA.AperFunction,Profile*%
%ADD11C,0.200000*%
%TD*%
G04 APERTURE END LIST*
D10*
X57823364Y-115823999D02*
X57886500Y-115743000D01*
X57823364Y-115823999D02*
G75*
G02*
X57386501Y-116242999I-419364J-1D01*
G01*
X63434686Y-116258589D02*
X63436500Y-116243000D01*
X63434686Y-116258589D02*
G75*
G02*
X62936500Y-115742999I65314J561589D01*
G01*
X53467000Y-97028000D02*
X53911499Y-97193000D01*
X53411500Y-96693000D02*
X53467000Y-97028000D01*
X265176000Y-42291000D02*
X300968232Y-42592999D01*
X265174000Y-25511967D02*
X265176000Y-42291000D01*
D11*
X3405250Y-102743000D02*
G75*
G02*
X3905250Y-102243000I500000J0D01*
G01*
X287274000Y-97193000D02*
G75*
G02*
X286774000Y-96693000I0J500000D01*
G01*
X225361500Y-97193000D02*
G75*
G02*
X224861500Y-96693000I0J500000D01*
G01*
X3405250Y-115743000D02*
X3405250Y-102743000D01*
X38836500Y-115743000D02*
G75*
G02*
X38336500Y-116243000I-500000J0D01*
G01*
X10992250Y-117243000D02*
X4992249Y-117243000D01*
X3905250Y-116243000D02*
G75*
G02*
X3405250Y-115743000I0J500000D01*
G01*
X4492250Y-116243000D02*
X3905249Y-116243000D01*
X270755750Y-97193000D02*
G75*
G02*
X271255750Y-97693000I0J-500000D01*
G01*
X4492250Y-116743000D02*
X4492250Y-116243000D01*
X11492249Y-116742999D02*
G75*
G02*
X10992250Y-117243000I-500000J-1D01*
G01*
X11492250Y-116243000D02*
X11492250Y-116743000D01*
X28868250Y-117243000D02*
G75*
G02*
X28368250Y-116743000I0J500000D01*
G01*
X35368250Y-116743000D02*
G75*
G02*
X34868250Y-117243000I-500000J0D01*
G01*
X34868250Y-117243000D02*
X28868250Y-117243000D01*
X278255750Y-97693000D02*
X278255750Y-83693000D01*
X247879750Y-98193000D02*
X253879750Y-98193000D01*
X277755750Y-83193000D02*
X247879750Y-83193000D01*
X300774000Y-96693000D02*
G75*
G02*
X300274000Y-97193000I-500000J0D01*
G01*
X38336500Y-116243000D02*
X35368250Y-116243000D01*
X238361500Y-97193000D02*
X225361500Y-97193000D01*
X254379750Y-97693000D02*
G75*
G02*
X254879750Y-97193000I500000J0D01*
G01*
X271755751Y-98192999D02*
G75*
G02*
X271255750Y-97693000I-1J500000D01*
G01*
X-4526001Y-102243000D02*
G75*
G02*
X-4026001Y-102743000I0J-500000D01*
G01*
X300274000Y-83193000D02*
X287274000Y-83193000D01*
X277755750Y-83193000D02*
G75*
G02*
X278255750Y-83693000I0J-500000D01*
G01*
X-17526000Y-116243000D02*
X-4526001Y-116243000D01*
X300274001Y-83192999D02*
G75*
G02*
X300774000Y-83693000I-1J-500000D01*
G01*
X238861500Y-96693000D02*
G75*
G02*
X238361500Y-97193000I-500000J0D01*
G01*
X225361500Y-83193000D02*
X238361500Y-83193000D01*
X-4026001Y-115743000D02*
G75*
G02*
X-4526001Y-116243000I-500000J0D01*
G01*
X247879750Y-98193000D02*
G75*
G02*
X247379750Y-97693000I0J500000D01*
G01*
X286774000Y-83693000D02*
X286774000Y-96693000D01*
X-17526000Y-116243000D02*
G75*
G02*
X-18026000Y-115743000I0J500000D01*
G01*
X287274000Y-97193000D02*
X300274000Y-97193000D01*
X224861500Y-83693000D02*
G75*
G02*
X225361500Y-83193000I500000J0D01*
G01*
X224861500Y-96693000D02*
X224861500Y-83693000D01*
X254379750Y-97693000D02*
G75*
G02*
X253879750Y-98193000I-500000J0D01*
G01*
X247379750Y-83693000D02*
X247379750Y-97693000D01*
X271755750Y-98193000D02*
X277755750Y-98193000D01*
X300774000Y-96693000D02*
X300774000Y-83693000D01*
X-4526001Y-102243000D02*
X-17526000Y-102243000D01*
X278255750Y-97693000D02*
G75*
G02*
X277755750Y-98193000I-500000J0D01*
G01*
X-4026001Y-115743000D02*
X-4026001Y-102743000D01*
X-18026001Y-102743000D02*
X-18026000Y-115743000D01*
X238861500Y-83693000D02*
X238861500Y-96693000D01*
X247379750Y-83693000D02*
G75*
G02*
X247879750Y-83193000I500000J0D01*
G01*
X238361500Y-83193000D02*
G75*
G02*
X238861500Y-83693000I0J-500000D01*
G01*
X28368250Y-116743000D02*
X28368250Y-116243000D01*
X35368250Y-116243000D02*
X35368250Y-116743000D01*
X-18026001Y-102742999D02*
G75*
G02*
X-17526000Y-102243000I500000J-1D01*
G01*
X254879750Y-97193000D02*
X270755750Y-97192999D01*
X286774000Y-83693000D02*
G75*
G02*
X287274000Y-83193000I500000J0D01*
G01*
X28368250Y-116243000D02*
X11492250Y-116243000D01*
X38336500Y-102243000D02*
G75*
G02*
X38836500Y-102743000I0J-500000D01*
G01*
X3905250Y-102243000D02*
X38336500Y-102243000D01*
X4992250Y-117243000D02*
G75*
G02*
X4492250Y-116743000I0J500000D01*
G01*
X92011500Y-97193000D02*
G75*
G02*
X91511500Y-96693000I0J500000D01*
G01*
X72961500Y-97193001D02*
G75*
G02*
X72461499Y-96693000I0J500001D01*
G01*
X72961500Y-83193000D02*
X85961500Y-83193000D01*
X105011499Y-83193000D02*
X92011500Y-83193000D01*
X130111500Y-83193000D02*
X143111500Y-83193000D01*
X124561501Y-96692999D02*
G75*
G02*
X124061500Y-97193000I-500001J0D01*
G01*
X110561500Y-83693000D02*
G75*
G02*
X111061500Y-83193000I500000J0D01*
G01*
X129611500Y-83693000D02*
G75*
G02*
X130111500Y-83193000I500000J0D01*
G01*
X91511500Y-83693000D02*
G75*
G02*
X92011500Y-83193000I500000J0D01*
G01*
X219811500Y-83693000D02*
X219811500Y-96693000D01*
X129611500Y-96693000D02*
X129611500Y-83693000D01*
X181711500Y-83693000D02*
X181711500Y-96693000D01*
X167711500Y-83693000D02*
G75*
G02*
X168211500Y-83193000I500000J0D01*
G01*
X124061500Y-83193000D02*
X111061500Y-83193000D01*
X162161500Y-83193000D02*
G75*
G02*
X162661500Y-83693000I0J-500000D01*
G01*
X111061500Y-97193000D02*
G75*
G02*
X110561500Y-96693000I0J500000D01*
G01*
X85961500Y-83193000D02*
G75*
G02*
X86461500Y-83693000I0J-500000D01*
G01*
X206311500Y-83193000D02*
X219311500Y-83193000D01*
X187261500Y-83193000D02*
X200261500Y-83193000D01*
X72461499Y-96693000D02*
X72461499Y-83693000D01*
X91511500Y-83693000D02*
X91511500Y-96693000D01*
X219311500Y-83193000D02*
G75*
G02*
X219811500Y-83693000I0J-500000D01*
G01*
X200761500Y-83693000D02*
X200761500Y-96693000D01*
X200261500Y-83193000D02*
G75*
G02*
X200761500Y-83693000I0J-500000D01*
G01*
X186761500Y-96693000D02*
X186761500Y-83693000D01*
X105011500Y-83193000D02*
G75*
G02*
X105511500Y-83693000I0J-500000D01*
G01*
X105511501Y-96692999D02*
G75*
G02*
X105011500Y-97193000I-500001J0D01*
G01*
X149161500Y-97193000D02*
G75*
G02*
X148661500Y-96693000I0J500000D01*
G01*
X162661500Y-96693000D02*
G75*
G02*
X162161500Y-97193000I-500000J0D01*
G01*
X86461500Y-96693000D02*
G75*
G02*
X85961500Y-97193000I-500000J0D01*
G01*
X111061500Y-97193000D02*
X124061500Y-97193000D01*
X181211500Y-83193000D02*
G75*
G02*
X181711500Y-83693000I0J-500000D01*
G01*
X205811500Y-83693000D02*
G75*
G02*
X206311500Y-83193000I500000J0D01*
G01*
X110561500Y-83693000D02*
X110561500Y-96693000D01*
X148661500Y-96693000D02*
X148661500Y-83693000D01*
X72461499Y-83692999D02*
G75*
G02*
X72961500Y-83193000I500000J-1D01*
G01*
X219811500Y-96693000D02*
G75*
G02*
X219311500Y-97193000I-500000J0D01*
G01*
X200261500Y-97193000D02*
X187261500Y-97193000D01*
X124561500Y-96693000D02*
X124561500Y-83693000D01*
X162161500Y-97193000D02*
X149161500Y-97193000D01*
X92011500Y-97193000D02*
X105011500Y-97193000D01*
X85961500Y-97193000D02*
X72961500Y-97193000D01*
X86461500Y-83693000D02*
X86461500Y-96693000D01*
X187261500Y-97193000D02*
G75*
G02*
X186761500Y-96693000I0J500000D01*
G01*
X200761500Y-96693000D02*
G75*
G02*
X200261500Y-97193000I-500000J0D01*
G01*
X206311500Y-97193000D02*
G75*
G02*
X205811500Y-96693000I0J500000D01*
G01*
X219311500Y-97193000D02*
X206311500Y-97193000D01*
X143111500Y-97193000D02*
X130111500Y-97193000D01*
X168211500Y-97193000D02*
G75*
G02*
X167711500Y-96693000I0J500000D01*
G01*
X105511500Y-96693000D02*
X105511500Y-83693000D01*
X124061501Y-83192999D02*
G75*
G02*
X124561500Y-83693000I-1J-500000D01*
G01*
X130111500Y-97193000D02*
G75*
G02*
X129611500Y-96693000I0J500000D01*
G01*
X168211500Y-83193000D02*
X181211500Y-83193000D01*
X162661500Y-83693000D02*
X162661500Y-96693000D01*
X143611500Y-96693000D02*
G75*
G02*
X143111500Y-97193000I-500000J0D01*
G01*
X143611500Y-83693000D02*
X143611500Y-96693000D01*
X143111500Y-83193000D02*
G75*
G02*
X143611500Y-83693000I0J-500000D01*
G01*
X167711500Y-96693000D02*
X167711500Y-83693000D01*
X181211500Y-97193000D02*
X168211500Y-97193000D01*
X148661500Y-83693000D02*
G75*
G02*
X149161500Y-83193000I500000J0D01*
G01*
X205811500Y-96693000D02*
X205811500Y-83693000D01*
X186761500Y-83693000D02*
G75*
G02*
X187261500Y-83193000I500000J0D01*
G01*
X181711500Y-96693000D02*
G75*
G02*
X181211500Y-97193000I-500000J0D01*
G01*
X149161500Y-83193000D02*
X162161500Y-83193000D01*
X276461500Y-64143000D02*
X263461500Y-64143000D01*
X66911500Y-97193000D02*
X53911499Y-97193000D01*
X286774000Y-64643000D02*
G75*
G02*
X287274000Y-64143000I500000J0D01*
G01*
X239649000Y-78143000D02*
G75*
G02*
X239149000Y-77643000I0J500000D01*
G01*
X300274001Y-64142999D02*
G75*
G02*
X300774000Y-64643000I-1J-500000D01*
G01*
X239149000Y-64643000D02*
G75*
G02*
X239649000Y-64143000I500000J0D01*
G01*
X234099000Y-64643000D02*
X234099000Y-77643000D01*
X53411500Y-96693000D02*
X53411500Y-83693000D01*
X276961500Y-77643000D02*
G75*
G02*
X276461500Y-78143000I-500000J0D01*
G01*
X67411500Y-83693000D02*
X67411500Y-96693000D01*
X-18026001Y-83693000D02*
X-18026000Y-96693000D01*
X-17526000Y-97193000D02*
X-4526001Y-97193000D01*
X21667750Y-83193000D02*
G75*
G02*
X22167750Y-83693000I0J-500000D01*
G01*
X220599000Y-78143000D02*
G75*
G02*
X220099000Y-77643000I0J500000D01*
G01*
X233599000Y-64143000D02*
G75*
G02*
X234099000Y-64643000I0J-500000D01*
G01*
X3905249Y-97193000D02*
X21667750Y-97193000D01*
X-4026001Y-96693000D02*
X-4026000Y-83693000D01*
X48361500Y-96693000D02*
G75*
G02*
X47861500Y-97193000I-500000J0D01*
G01*
X34861500Y-97193000D02*
X47861500Y-97193000D01*
X286774000Y-64643000D02*
X286774000Y-77643000D01*
X300274000Y-64143000D02*
X287274000Y-64143000D01*
X300774000Y-77643000D02*
X300774000Y-64643000D01*
X22167751Y-96692999D02*
G75*
G02*
X21667750Y-97193000I-500001J0D01*
G01*
X262961500Y-64643000D02*
X262961500Y-77643000D01*
X220099000Y-64643000D02*
G75*
G02*
X220599000Y-64143000I500000J0D01*
G01*
X34361500Y-83693000D02*
G75*
G02*
X34861500Y-83193000I500000J0D01*
G01*
X48361500Y-96693000D02*
X48361500Y-83693000D01*
X253149000Y-77643000D02*
G75*
G02*
X252649000Y-78143000I-500000J0D01*
G01*
X263461500Y-78143000D02*
G75*
G02*
X262961500Y-77643000I0J500000D01*
G01*
X22167750Y-96693000D02*
X22167750Y-83693000D01*
X-17526000Y-97193000D02*
G75*
G02*
X-18026000Y-96693000I0J500000D01*
G01*
X-4026001Y-96693000D02*
G75*
G02*
X-4526001Y-97193000I-500000J0D01*
G01*
X53911500Y-83193000D02*
X66911500Y-83193000D01*
X53411500Y-83693000D02*
G75*
G02*
X53911500Y-83193000I500000J0D01*
G01*
X67411500Y-96693000D02*
G75*
G02*
X66911500Y-97193000I-500000J0D01*
G01*
X252649000Y-64143000D02*
X239649000Y-64143000D01*
X263461500Y-78143000D02*
X276461500Y-78143000D01*
X34861500Y-97193000D02*
G75*
G02*
X34361500Y-96693000I0J500000D01*
G01*
X233599000Y-78143000D02*
X220599000Y-78143000D01*
X276961500Y-77643000D02*
X276961500Y-64643000D01*
X-18026001Y-83692999D02*
G75*
G02*
X-17526000Y-83193000I500000J-1D01*
G01*
X21667750Y-83193000D02*
X3905250Y-83193000D01*
X3905249Y-97193000D02*
G75*
G02*
X3405249Y-96693000I0J500000D01*
G01*
X47861500Y-83193000D02*
X34861500Y-83193000D01*
X239149000Y-64643000D02*
X239149000Y-77643000D01*
X234099000Y-77643000D02*
G75*
G02*
X233599000Y-78143000I-500000J0D01*
G01*
X252649000Y-64143000D02*
G75*
G02*
X253149000Y-64643000I0J-500000D01*
G01*
X220099000Y-77643000D02*
X220099000Y-64643000D01*
X276461500Y-64143000D02*
G75*
G02*
X276961500Y-64643000I0J-500000D01*
G01*
X3405249Y-83692999D02*
G75*
G02*
X3905250Y-83193000I500000J-1D01*
G01*
X47861501Y-83192999D02*
G75*
G02*
X48361500Y-83693000I-1J-500000D01*
G01*
X34361500Y-83693000D02*
X34361500Y-96693000D01*
X300774000Y-77643000D02*
G75*
G02*
X300274000Y-78143000I-500000J0D01*
G01*
X3405249Y-83693000D02*
X3405249Y-96693000D01*
X66911500Y-83193000D02*
G75*
G02*
X67411500Y-83693000I0J-500000D01*
G01*
X262961500Y-64643000D02*
G75*
G02*
X263461500Y-64143000I500000J0D01*
G01*
X220599000Y-64143000D02*
X233599000Y-64142999D01*
X287274000Y-78143000D02*
X300274000Y-78143000D01*
X287274000Y-78143000D02*
G75*
G02*
X286774000Y-77643000I0J500000D01*
G01*
X253149000Y-77643000D02*
X253149000Y-64643000D01*
X-4526001Y-83193000D02*
X-17526000Y-83193000D01*
X239649000Y-78143000D02*
X252649000Y-78143000D01*
X-4526000Y-83193000D02*
G75*
G02*
X-4026000Y-83693000I0J-500000D01*
G01*
X265174000Y-23518000D02*
X300968232Y-23518000D01*
X300968232Y-25511967D02*
X300968232Y-42592999D01*
X-18533710Y-42593000D02*
X-18533710Y-25511967D01*
X300968232Y-25511967D02*
X265174000Y-25511967D01*
X-20551000Y-42593000D02*
X-20551000Y-25511967D01*
X300968232Y-23518000D02*
X303298999Y-23518000D01*
X-18533710Y-25511967D02*
X-1476001Y-25511967D01*
X-1476001Y-42593000D02*
X-18533710Y-42593000D01*
X303298999Y-23518000D02*
X303298999Y-42592999D01*
X-1476001Y-25511967D02*
X-1476001Y-42593000D01*
X61173999Y-135293000D02*
G75*
G02*
X61673999Y-135793000I0J-500000D01*
G01*
X27717750Y-121293000D02*
X47861500Y-121293000D01*
X62174000Y-136293000D02*
X68174000Y-136293000D01*
X62174001Y-136293000D02*
G75*
G02*
X61673999Y-135793000I-1J500001D01*
G01*
X68673999Y-135792999D02*
G75*
G02*
X68174000Y-136293000I-500000J-1D01*
G01*
X209786500Y-102243000D02*
G75*
G02*
X210286500Y-102743000I0J-500000D01*
G01*
X-17526000Y-121293000D02*
X-4526001Y-121293000D01*
X196786500Y-102243000D02*
X209786500Y-102243000D01*
X255530250Y-115743000D02*
G75*
G02*
X255030250Y-116243000I-500000J0D01*
G01*
X3905249Y-135293000D02*
X19286500Y-135293000D01*
X196286500Y-102743000D02*
G75*
G02*
X196786500Y-102243000I500000J0D01*
G01*
X268224000Y-116243000D02*
G75*
G02*
X267724000Y-115743000I0J500000D01*
G01*
X196286500Y-115743000D02*
X196286500Y-102743000D01*
X287274000Y-116243000D02*
G75*
G02*
X286774000Y-115743000I0J500000D01*
G01*
X196786500Y-116243000D02*
G75*
G02*
X196286500Y-115743000I0J500000D01*
G01*
X228836500Y-102243000D02*
X215836500Y-102243000D01*
X300774000Y-115743000D02*
G75*
G02*
X300274000Y-116243000I-500000J0D01*
G01*
X241530250Y-102743000D02*
G75*
G02*
X242030250Y-102243000I500000J0D01*
G01*
X267724000Y-102743000D02*
X267724000Y-115743000D01*
X281224000Y-102243000D02*
X268224000Y-102243000D01*
X281224000Y-102243000D02*
G75*
G02*
X281724000Y-102743000I0J-500000D01*
G01*
X-17526000Y-135293000D02*
G75*
G02*
X-18026000Y-134793000I0J500000D01*
G01*
X19786500Y-134793000D02*
X19786500Y-121793000D01*
X215836500Y-116243000D02*
G75*
G02*
X215336500Y-115743000I0J500000D01*
G01*
X210286501Y-115742999D02*
G75*
G02*
X209786500Y-116243000I-500001J0D01*
G01*
X286774000Y-102743000D02*
G75*
G02*
X287274000Y-102243000I500000J0D01*
G01*
X287274000Y-116243000D02*
X300274000Y-116243000D01*
X-4026001Y-134793000D02*
G75*
G02*
X-4526001Y-135293000I-500000J0D01*
G01*
X3905250Y-135293000D02*
G75*
G02*
X3405250Y-134793000I0J500000D01*
G01*
X-4026000Y-121793000D02*
X-4026000Y-134793000D01*
X300274000Y-102243000D02*
X287274000Y-102243000D01*
X19786501Y-134792999D02*
G75*
G02*
X19286500Y-135293000I-500001J0D01*
G01*
X300274001Y-102242999D02*
G75*
G02*
X300774000Y-102743000I-1J-500000D01*
G01*
X215836500Y-116243000D02*
X228836500Y-116243000D01*
X242030250Y-116243000D02*
G75*
G02*
X241530250Y-115743000I0J500000D01*
G01*
X-4526001Y-135293000D02*
X-17526000Y-135293000D01*
X3405249Y-121793000D02*
X3405250Y-134793000D01*
X19286500Y-121293000D02*
G75*
G02*
X19786500Y-121793000I0J-500000D01*
G01*
X268224000Y-116243000D02*
X281224000Y-116243000D01*
X228836500Y-102243000D02*
G75*
G02*
X229336500Y-102743000I0J-500000D01*
G01*
X267724000Y-102743000D02*
G75*
G02*
X268224000Y-102243000I500000J0D01*
G01*
X241530250Y-115743000D02*
X241530250Y-102743000D01*
X215336500Y-102743000D02*
X215336500Y-115743000D01*
X300774000Y-115743000D02*
X300774000Y-102743000D01*
X286774000Y-102743000D02*
X286774000Y-115743000D01*
X242030250Y-102243000D02*
X255030250Y-102243000D01*
X-18026000Y-134793000D02*
X-18026001Y-121793000D01*
X281724000Y-115743000D02*
X281724000Y-102743000D01*
X3405249Y-121792999D02*
G75*
G02*
X3905250Y-121293000I500000J-1D01*
G01*
X134086500Y-102743000D02*
X134086500Y-115743000D01*
X255530250Y-102743000D02*
X255530250Y-115743000D01*
X229336500Y-115743000D02*
X229336500Y-102743000D01*
X27217750Y-121793000D02*
G75*
G02*
X27717750Y-121293000I500000J0D01*
G01*
X255030250Y-102243000D02*
G75*
G02*
X255530250Y-102743000I0J-500000D01*
G01*
X-18026001Y-121792999D02*
G75*
G02*
X-17526000Y-121293000I500000J-1D01*
G01*
X27717750Y-135293000D02*
G75*
G02*
X27217750Y-134793000I0J500000D01*
G01*
X215336500Y-102743000D02*
G75*
G02*
X215836500Y-102243000I500000J0D01*
G01*
X19286500Y-121293000D02*
X3905250Y-121293000D01*
X27217750Y-134793000D02*
X27217750Y-121793000D01*
X281724000Y-115743000D02*
G75*
G02*
X281224000Y-116243000I-500000J0D01*
G01*
X47861500Y-135293000D02*
X27717750Y-135293000D01*
X48361500Y-134792998D02*
G75*
G02*
X47861500Y-135293000I-500001J-1D01*
G01*
X-4526000Y-121293000D02*
G75*
G02*
X-4026000Y-121793000I0J-500000D01*
G01*
X48361500Y-121793000D02*
X48361500Y-134793000D01*
X47861500Y-121293000D02*
G75*
G02*
X48361500Y-121793000I0J-500000D01*
G01*
X229336500Y-115743000D02*
G75*
G02*
X228836500Y-116243000I-500000J0D01*
G01*
X209786500Y-116243000D02*
X196786500Y-116243000D01*
X255030250Y-116243000D02*
X242030250Y-116243000D01*
X210286500Y-102743000D02*
X210286500Y-115743000D01*
X76436500Y-116243000D02*
X63436500Y-116243000D01*
X153136501Y-115742999D02*
G75*
G02*
X152636500Y-116243000I-500001J0D01*
G01*
X76936500Y-102743000D02*
X76936500Y-115743000D01*
X114536500Y-102243000D02*
G75*
G02*
X115036500Y-102743000I0J-500000D01*
G01*
X133586500Y-116243000D02*
X120586500Y-116243000D01*
X171686500Y-102243000D02*
G75*
G02*
X172186500Y-102743000I0J-500000D01*
G01*
X158686500Y-116243000D02*
G75*
G02*
X158186500Y-115743000I0J500000D01*
G01*
X134086501Y-115742999D02*
G75*
G02*
X133586500Y-116243000I-500001J0D01*
G01*
X115036500Y-102743000D02*
X115036500Y-115743000D01*
X177236500Y-102743000D02*
G75*
G02*
X177736500Y-102243000I500000J0D01*
G01*
X82486500Y-116243000D02*
X95486500Y-116243000D01*
X95986500Y-115743000D02*
X95986500Y-102743000D01*
X76936500Y-115743000D02*
G75*
G02*
X76436500Y-116243000I-500000J0D01*
G01*
X158186500Y-102743000D02*
X158186500Y-115743000D01*
X139136500Y-102743000D02*
G75*
G02*
X139636500Y-102243000I500000J0D01*
G01*
X172186501Y-115742999D02*
G75*
G02*
X171686500Y-116243000I-500001J0D01*
G01*
X190736500Y-102243000D02*
G75*
G02*
X191236500Y-102743000I0J-500000D01*
G01*
X57886500Y-102743000D02*
X57886500Y-115743000D01*
X152636500Y-116243000D02*
X139636500Y-116243000D01*
X190736500Y-102243000D02*
X177736500Y-102243000D01*
X158186500Y-102743000D02*
G75*
G02*
X158686500Y-102243000I500000J0D01*
G01*
X171686500Y-102243000D02*
X158686500Y-102243000D01*
X38836500Y-102743000D02*
X38836500Y-115743000D01*
X44386500Y-102243000D02*
X57386500Y-102243000D01*
X63436500Y-102243000D02*
X76436500Y-102243000D01*
X62936499Y-115743000D02*
X62936499Y-102743000D01*
X101536501Y-116242999D02*
G75*
G02*
X101036500Y-115743000I-1J500000D01*
G01*
X115036500Y-115743000D02*
G75*
G02*
X114536500Y-116243000I-500000J0D01*
G01*
X152636500Y-102243000D02*
G75*
G02*
X153136500Y-102743000I0J-500000D01*
G01*
X172186500Y-115743000D02*
X172186500Y-102743000D01*
X101036500Y-115743000D02*
X101036500Y-102743000D01*
X191236500Y-115743000D02*
X191236500Y-102743000D01*
X158686500Y-116243000D02*
X171686500Y-116243000D01*
X76436500Y-102243000D02*
G75*
G02*
X76936500Y-102743000I0J-500000D01*
G01*
X177236500Y-102743000D02*
X177236500Y-115743000D01*
X177736500Y-116243000D02*
X190736500Y-116243000D01*
X43886500Y-115743000D02*
X43886500Y-102743000D01*
X57386500Y-116243000D02*
X44386499Y-116243000D01*
X114536500Y-116243000D02*
X101536500Y-116243000D01*
X153136500Y-102743000D02*
X153136500Y-115743000D01*
X139636500Y-102243000D02*
X152636500Y-102243000D01*
X43886500Y-102743000D02*
G75*
G02*
X44386500Y-102243000I500000J0D01*
G01*
X44386500Y-116243000D02*
G75*
G02*
X43886500Y-115743000I0J500000D01*
G01*
X139636500Y-116243000D02*
G75*
G02*
X139136500Y-115743000I0J500000D01*
G01*
X177736500Y-116243000D02*
G75*
G02*
X177236500Y-115743000I0J500000D01*
G01*
X133586500Y-102243000D02*
G75*
G02*
X134086500Y-102743000I0J-500000D01*
G01*
X81986500Y-102743000D02*
X81986500Y-115743000D01*
X62936499Y-102742999D02*
G75*
G02*
X63436500Y-102243000I500000J-1D01*
G01*
X191236501Y-115742999D02*
G75*
G02*
X190736500Y-116243000I-500001J0D01*
G01*
X120586500Y-116243000D02*
G75*
G02*
X120086500Y-115743000I0J500000D01*
G01*
X95986501Y-115742999D02*
G75*
G02*
X95486500Y-116243000I-500001J0D01*
G01*
X95486500Y-102243000D02*
G75*
G02*
X95986500Y-102743000I0J-500000D01*
G01*
X120586500Y-102243000D02*
X133586500Y-102243000D01*
X120086500Y-102743000D02*
G75*
G02*
X120586500Y-102243000I500000J0D01*
G01*
X120086500Y-115743000D02*
X120086500Y-102743000D01*
X82486501Y-116242999D02*
G75*
G02*
X81986500Y-115743000I-1J500000D01*
G01*
X81986500Y-102743000D02*
G75*
G02*
X82486500Y-102243000I500000J0D01*
G01*
X101036500Y-102743000D02*
G75*
G02*
X101536500Y-102243000I500000J0D01*
G01*
X139136500Y-115743000D02*
X139136500Y-102743000D01*
X57386500Y-102243000D02*
G75*
G02*
X57886500Y-102743000I0J-500000D01*
G01*
X95486499Y-102243000D02*
X82486500Y-102243000D01*
X101536500Y-102243000D02*
X114536500Y-102243000D01*
X267724000Y-121793000D02*
G75*
G02*
X268224000Y-121293000I500000J0D01*
G01*
X51530250Y-135293000D02*
G75*
G02*
X51030250Y-134793000I0J500000D01*
G01*
X281224000Y-121293000D02*
G75*
G02*
X281724000Y-121793000I0J-500000D01*
G01*
X262674000Y-134793000D02*
G75*
G02*
X262174000Y-135293000I-500000J0D01*
G01*
X-20551000Y-25511967D02*
X-20551000Y-23518000D01*
X-20551000Y-23518000D02*
X-1476001Y-23518000D01*
X82467750Y-136293000D02*
X76467750Y-136293000D01*
X134075602Y-42638000D02*
G75*
G03*
X134075602Y-42638000I-2276595J0D01*
G01*
X2057952Y-99638454D02*
G75*
G03*
X2057952Y-99638454I-2253532J0D01*
G01*
X262174000Y-135293000D02*
X249174000Y-135293000D01*
X200848047Y-80137373D02*
G75*
G03*
X200848047Y-80137373I-2299982J0D01*
G01*
X823871Y-61638329D02*
G75*
G03*
X823871Y-61638329I-2276232J0D01*
G01*
X75967750Y-120293000D02*
X106467750Y-120293000D01*
X182474000Y-136293000D02*
X82469481Y-136293000D01*
X182974000Y-120293000D02*
X182974000Y-135793000D01*
X237093913Y-100128003D02*
G75*
G03*
X237093913Y-100128003I-2294901J0D01*
G01*
X106467750Y-121293000D02*
X162474000Y-121293000D01*
X68174000Y-121293000D02*
G75*
G02*
X68674000Y-121793000I0J-500000D01*
G01*
X300774000Y-134793000D02*
X300774000Y-121793000D01*
X51530249Y-135293000D02*
X61173999Y-135293000D01*
X243624000Y-134793000D02*
X243624000Y-121793000D01*
X287274000Y-135293000D02*
X300274000Y-135293000D01*
X192024000Y-135293000D02*
X243124000Y-135293000D01*
X281224000Y-121293000D02*
X268224000Y-121293000D01*
X192024000Y-135293000D02*
G75*
G02*
X191524000Y-134793000I0J500000D01*
G01*
X281724000Y-134793000D02*
G75*
G02*
X281224000Y-135293000I-500000J0D01*
G01*
X268224000Y-135293000D02*
G75*
G02*
X267724000Y-134793000I0J500000D01*
G01*
X248674000Y-121793000D02*
G75*
G02*
X249174000Y-121293000I500000J0D01*
G01*
X249174000Y-135293000D02*
G75*
G02*
X248674000Y-134793000I0J500000D01*
G01*
X51030249Y-121792999D02*
G75*
G02*
X51530250Y-121293000I500000J-1D01*
G01*
X29077286Y-80888543D02*
G75*
G03*
X29077286Y-80888543I-2277105J0D01*
G01*
X191524000Y-121793000D02*
G75*
G02*
X192024000Y-121293000I500000J0D01*
G01*
X248351167Y-42617999D02*
G75*
G03*
X248351167Y-42617999I-2302173J0D01*
G01*
X191322205Y-42390473D02*
G75*
G03*
X191322205Y-42390473I-2274862J0D01*
G01*
X162474000Y-120293000D02*
X182974000Y-120293000D01*
X182974000Y-135793000D02*
G75*
G02*
X182474000Y-136293000I-500000J0D01*
G01*
X243124000Y-121293000D02*
X192024000Y-121293000D01*
X281724000Y-134793000D02*
X281724000Y-121793000D01*
X75967750Y-135793000D02*
X75967750Y-120293000D01*
X76467750Y-136293000D02*
G75*
G02*
X75967750Y-135793000I0J500000D01*
G01*
X267724000Y-121793000D02*
X267724000Y-134793000D01*
X51030249Y-121793000D02*
X51030250Y-134793000D01*
X249174000Y-121293000D02*
X262174000Y-121293000D01*
X243124000Y-121293000D02*
G75*
G02*
X243624000Y-121793000I0J-500000D01*
G01*
X68174000Y-121293000D02*
X51530250Y-121293000D01*
X243624001Y-134792999D02*
G75*
G02*
X243124000Y-135293000I-500001J0D01*
G01*
X248674000Y-134793000D02*
X248674000Y-121793000D01*
X106467750Y-120293000D02*
X106467750Y-121293000D01*
X286774000Y-121793000D02*
X286774000Y-134793000D01*
X96050247Y-42385500D02*
G75*
G03*
X96050247Y-42385500I-2251242J0D01*
G01*
X268224000Y-135293000D02*
X281224000Y-135293000D01*
X191524000Y-121793000D02*
X191524000Y-134793000D01*
X300774000Y-134793000D02*
G75*
G02*
X300274000Y-135293000I-500000J0D01*
G01*
X300274001Y-121292999D02*
G75*
G02*
X300774000Y-121793000I-1J-500000D01*
G01*
X263331465Y-117306080D02*
G75*
G03*
X263331465Y-117306080I-2303905J0D01*
G01*
X39104946Y-42648118D02*
G75*
G03*
X39104946Y-42648118I-2299967J0D01*
G01*
X162474000Y-121293000D02*
X162474000Y-120293000D01*
X287274000Y-135293000D02*
G75*
G02*
X286774000Y-134793000I0J500000D01*
G01*
X262174000Y-121293000D02*
G75*
G02*
X262674000Y-121793000I0J-500000D01*
G01*
X68674000Y-135793000D02*
X68674000Y-121793000D01*
X286774000Y-121793000D02*
G75*
G02*
X287274000Y-121293000I500000J0D01*
G01*
X300274000Y-121293000D02*
X287274000Y-121293000D01*
X262674000Y-121793000D02*
X262674000Y-134793000D01*
X300274000Y-59093000D02*
X287274000Y-59093000D01*
X256761001Y-59592999D02*
G75*
G02*
X256261000Y-60093000I-500001J0D01*
G01*
X-4526001Y-64143000D02*
X-17526000Y-64143000D01*
X273637000Y-59093000D02*
X273637000Y-59593000D01*
X248674000Y-45592999D02*
X248674000Y-58593000D01*
X281724000Y-58593000D02*
X281724000Y-45593000D01*
X-17526000Y-78143000D02*
X-4526001Y-78143000D01*
X49149000Y-78143000D02*
G75*
G02*
X48649000Y-77643000I0J500000D01*
G01*
X6286499Y-78142999D02*
G75*
G02*
X5786500Y-77643000I0J499999D01*
G01*
X5786500Y-77643000D02*
X5786500Y-64643000D01*
X248674000Y-45593000D02*
G75*
G02*
X249174000Y-45093000I500000J0D01*
G01*
X62149000Y-64143000D02*
G75*
G02*
X62649000Y-64643000I0J-500000D01*
G01*
X300274001Y-45092999D02*
G75*
G02*
X300774000Y-45593000I-1J-500000D01*
G01*
X6286500Y-64143000D02*
X19286500Y-64143000D01*
X256761000Y-59593000D02*
X256761000Y-59093000D01*
X250261000Y-60093000D02*
X256261000Y-60093000D01*
X250261000Y-60093000D02*
G75*
G02*
X249761000Y-59593000I0J500000D01*
G01*
X62149000Y-64143000D02*
X49149000Y-64143000D01*
X249174000Y-59093000D02*
G75*
G02*
X248674000Y-58593000I0J500000D01*
G01*
X286774000Y-58593000D02*
X286774000Y-45592999D01*
X-18026001Y-64643000D02*
X-18026000Y-77643000D01*
X281224000Y-45092999D02*
X249174000Y-45093000D01*
X281724000Y-58593000D02*
G75*
G02*
X281224000Y-59093000I-500000J0D01*
G01*
X48649001Y-64642999D02*
G75*
G02*
X49149000Y-64143000I499999J0D01*
G01*
X286774000Y-45593000D02*
G75*
G02*
X287274000Y-45093000I500000J0D01*
G01*
X5786500Y-64643000D02*
G75*
G02*
X6286500Y-64143000I500000J0D01*
G01*
X49148999Y-78143000D02*
X62149000Y-78143000D01*
X19786499Y-77642999D02*
G75*
G02*
X19286500Y-78143000I-500000J-1D01*
G01*
X249761000Y-59093000D02*
X249761000Y-59593000D01*
X287274000Y-45093000D02*
X300274000Y-45093000D01*
X-4026000Y-77643001D02*
G75*
G02*
X-4526001Y-78143000I-500000J1D01*
G01*
X48649000Y-64643000D02*
X48649000Y-77643000D01*
X300774000Y-45593000D02*
X300774000Y-58593000D01*
X62649000Y-77643000D02*
X62649000Y-64643000D01*
X280637000Y-59093000D02*
X281224000Y-59093000D01*
X-4526000Y-64143000D02*
G75*
G02*
X-4026000Y-64643000I0J-500000D01*
G01*
X280637000Y-59593000D02*
X280637000Y-59093000D01*
X281224001Y-45092999D02*
G75*
G02*
X281724000Y-45593000I-1J-500000D01*
G01*
X-4026001Y-77643000D02*
X-4026000Y-64643000D01*
X300774000Y-58593000D02*
G75*
G02*
X300274000Y-59093000I-500000J0D01*
G01*
X249174000Y-59093000D02*
X249761000Y-59093000D01*
X280637000Y-59593000D02*
G75*
G02*
X280137000Y-60093000I-500000J0D01*
G01*
X274137000Y-60093000D02*
X280137000Y-60093000D01*
X62649000Y-77643000D02*
G75*
G02*
X62149000Y-78143000I-500000J0D01*
G01*
X287274000Y-59093000D02*
G75*
G02*
X286774000Y-58593000I0J500000D01*
G01*
X19286500Y-78143000D02*
X6286500Y-78143000D01*
X-17526001Y-78142999D02*
G75*
G02*
X-18026000Y-77643000I0J499999D01*
G01*
X274137000Y-60093000D02*
G75*
G02*
X273637000Y-59593000I0J500000D01*
G01*
X256761000Y-59093000D02*
X273637000Y-59093000D01*
X19786500Y-64643000D02*
X19786499Y-77643000D01*
X-18026001Y-64642999D02*
G75*
G02*
X-17526000Y-64143000I500000J-1D01*
G01*
X19286500Y-64143000D02*
G75*
G02*
X19786500Y-64643000I0J-500000D01*
G01*
X243124000Y-45092999D02*
X230124000Y-45093000D01*
X153424000Y-58593000D02*
X153424000Y-45593000D01*
X185974001Y-45092999D02*
G75*
G02*
X186474000Y-45593000I-1J-500000D01*
G01*
X43099000Y-64143000D02*
G75*
G02*
X43599000Y-64643000I0J-500000D01*
G01*
X230124000Y-59093000D02*
X243124000Y-59093000D01*
X191524000Y-45593000D02*
G75*
G02*
X192024000Y-45093000I500000J0D01*
G01*
X205024000Y-45092999D02*
X192024000Y-45093000D01*
X205024001Y-45092999D02*
G75*
G02*
X205524000Y-45593000I-1J-500000D01*
G01*
X172974000Y-59093000D02*
G75*
G02*
X172474000Y-58593000I0J500000D01*
G01*
X134874000Y-59093000D02*
G75*
G02*
X134374000Y-58593000I0J500000D01*
G01*
X205524000Y-58593000D02*
X205524000Y-45593000D01*
X205524000Y-58593000D02*
G75*
G02*
X205024000Y-59093000I-500000J0D01*
G01*
X192024000Y-59093000D02*
X205024000Y-59093000D01*
X192024000Y-59093000D02*
G75*
G02*
X191524000Y-58593000I0J500000D01*
G01*
X243624001Y-58592999D02*
G75*
G02*
X243124000Y-59093000I-500001J0D01*
G01*
X224074000Y-45092999D02*
X211074000Y-45093000D01*
X147874001Y-45092999D02*
G75*
G02*
X148374000Y-45593000I-1J-500000D01*
G01*
X172974000Y-45093000D02*
X185974000Y-45092999D01*
X230124000Y-59093000D02*
G75*
G02*
X229624000Y-58593000I0J500000D01*
G01*
X148374000Y-58593000D02*
G75*
G02*
X147874000Y-59093000I-500000J0D01*
G01*
X153924000Y-45093000D02*
X166924000Y-45092999D01*
X229624000Y-45592999D02*
X229624000Y-58593000D01*
X243123999Y-45093000D02*
G75*
G02*
X243624000Y-45592999I1J-500000D01*
G01*
X172474000Y-58593000D02*
X172474000Y-45592999D01*
X210574000Y-45592999D02*
X210574000Y-58593000D01*
X129324000Y-45593000D02*
X129324000Y-58593000D01*
X134374000Y-58593000D02*
X134374000Y-45592999D01*
X167424000Y-58593000D02*
G75*
G02*
X166924000Y-59093000I-500000J0D01*
G01*
X148374000Y-45593000D02*
X148374000Y-58593000D01*
X115324001Y-45592999D02*
G75*
G02*
X115824000Y-45093000I499999J0D01*
G01*
X167424000Y-45593000D02*
X167424000Y-58593000D01*
X243624000Y-58593000D02*
X243624000Y-45592999D01*
X224074000Y-45092999D02*
G75*
G02*
X224574000Y-45592999I0J-500000D01*
G01*
X115824000Y-45093000D02*
X128824000Y-45092999D01*
X172474000Y-45593000D02*
G75*
G02*
X172974000Y-45093000I500000J0D01*
G01*
X153924000Y-59093000D02*
G75*
G02*
X153424000Y-58593000I0J500000D01*
G01*
X186474000Y-58593000D02*
G75*
G02*
X185974000Y-59093000I-500000J0D01*
G01*
X115324000Y-58593000D02*
X115324000Y-45592999D01*
X153424000Y-45593000D02*
G75*
G02*
X153924000Y-45093000I500000J0D01*
G01*
X229624000Y-45593000D02*
G75*
G02*
X230124000Y-45093000I500000J0D01*
G01*
X224574000Y-58593000D02*
G75*
G02*
X224074000Y-59093000I-500000J0D01*
G01*
X211074000Y-59093000D02*
X224074000Y-59093000D01*
X224574000Y-58593000D02*
X224574000Y-45592999D01*
X134874000Y-45093000D02*
X147874000Y-45092999D01*
X134374001Y-45592999D02*
G75*
G02*
X134874000Y-45093000I499999J0D01*
G01*
X166924001Y-45092999D02*
G75*
G02*
X167424000Y-45593000I-1J-500000D01*
G01*
X129324000Y-58593000D02*
G75*
G02*
X128824000Y-59093000I-500000J0D01*
G01*
X186474000Y-45593000D02*
X186474000Y-58593000D01*
X128824001Y-45092999D02*
G75*
G02*
X129324000Y-45593000I-1J-500000D01*
G01*
X210574000Y-45593000D02*
G75*
G02*
X211074000Y-45093000I500000J0D01*
G01*
X115824001Y-59092999D02*
G75*
G02*
X115324000Y-58593000I-1J500000D01*
G01*
X185974000Y-59093000D02*
X172974000Y-59093000D01*
X147874000Y-59093000D02*
X134874000Y-59093000D01*
X30099000Y-64143000D02*
X43099000Y-64143000D01*
X29599000Y-64643000D02*
G75*
G02*
X30099000Y-64143000I500000J0D01*
G01*
X43599000Y-77643000D02*
G75*
G02*
X43099000Y-78143000I-500000J0D01*
G01*
X128824000Y-59093000D02*
X115824000Y-59093000D01*
X191524000Y-45592999D02*
X191524000Y-58593000D01*
X166924000Y-59093000D02*
X153924000Y-59093000D01*
X211074000Y-59093000D02*
G75*
G02*
X210574000Y-58593000I0J500000D01*
G01*
X29599000Y-77643000D02*
X29599000Y-64643000D01*
X30099000Y-78143000D02*
G75*
G02*
X29599000Y-77643000I0J500000D01*
G01*
X43099000Y-78143000D02*
X30099000Y-78143000D01*
X43599000Y-64643000D02*
X43599000Y-77643000D01*
X34073999Y-58593000D02*
X34073999Y-45592999D01*
X77724000Y-45093000D02*
X90724000Y-45092999D01*
X15024000Y-58593000D02*
X15024000Y-45593000D01*
X110273999Y-58593000D02*
G75*
G02*
X109773999Y-59093000I-500000J0D01*
G01*
X71674000Y-45093000D02*
G75*
G02*
X72174000Y-45593000I0J-500000D01*
G01*
X248674000Y-39542999D02*
X248674000Y-26543000D01*
X39624000Y-59093000D02*
G75*
G02*
X39124000Y-58593000I0J500000D01*
G01*
X39623999Y-59093000D02*
X52623999Y-59093000D01*
X14524000Y-45093000D02*
G75*
G02*
X15024000Y-45593000I0J-500000D01*
G01*
X39124001Y-45592999D02*
G75*
G02*
X39624000Y-45093000I499999J0D01*
G01*
X53123999Y-58593000D02*
G75*
G02*
X52623999Y-59093000I-500000J0D01*
G01*
X262174000Y-40043000D02*
X249174000Y-40043000D01*
X-4026001Y-58593000D02*
X-4026000Y-45593000D01*
X109774000Y-45092999D02*
G75*
G02*
X110273999Y-45593000I-1J-500000D01*
G01*
X58174000Y-45593000D02*
G75*
G02*
X58674000Y-45093000I500000J0D01*
G01*
X39124000Y-45592999D02*
X39124000Y-58593000D01*
X52624000Y-45093000D02*
G75*
G02*
X53124000Y-45593000I0J-500000D01*
G01*
X71674000Y-45093000D02*
X58674000Y-45093000D01*
X33574000Y-45093000D02*
G75*
G02*
X34073999Y-45592999I0J-499999D01*
G01*
X1023999Y-45593000D02*
G75*
G02*
X1523999Y-45093000I500000J0D01*
G01*
X52623999Y-45093000D02*
X39624000Y-45093000D01*
X90724000Y-59093000D02*
X77724000Y-59093000D01*
X91224000Y-45593000D02*
X91224000Y-58593000D01*
X96774000Y-59093000D02*
X109773999Y-59093000D01*
X262674000Y-26543000D02*
X262674000Y-39542999D01*
X58674000Y-59093000D02*
G75*
G02*
X58174000Y-58593000I0J500000D01*
G01*
X90724000Y-45093000D02*
G75*
G02*
X91224000Y-45593000I0J-500000D01*
G01*
X77224000Y-58593000D02*
X77224000Y-45592999D01*
X-18026001Y-45592999D02*
G75*
G02*
X-17526000Y-45093000I500000J-1D01*
G01*
X249174000Y-26043000D02*
X262174000Y-26042999D01*
X-18026001Y-45592999D02*
X-18026001Y-58593000D01*
X91224001Y-58592999D02*
G75*
G02*
X90724000Y-59093000I-500001J0D01*
G01*
X77224000Y-45593000D02*
G75*
G02*
X77724000Y-45093000I500000J0D01*
G01*
X14524000Y-45093000D02*
X1523999Y-45093000D01*
X72174001Y-58592999D02*
G75*
G02*
X71674000Y-59093000I-500001J0D01*
G01*
X96274000Y-45593000D02*
G75*
G02*
X96774000Y-45093000I500000J0D01*
G01*
X96274000Y-45592999D02*
X96274000Y-58593000D01*
X262674000Y-39543000D02*
G75*
G02*
X262174000Y-40043000I-500000J0D01*
G01*
X249173999Y-40043000D02*
G75*
G02*
X248674000Y-39542999I1J500000D01*
G01*
X77724000Y-59093000D02*
G75*
G02*
X77224000Y-58593000I0J500000D01*
G01*
X-4526001Y-45093000D02*
X-17526000Y-45093000D01*
X-17526000Y-59092999D02*
G75*
G02*
X-18026001Y-58593000I-1J500000D01*
G01*
X109773999Y-45092999D02*
X96774000Y-45093000D01*
X58174000Y-45592999D02*
X58174000Y-58593000D01*
X-4526000Y-45093000D02*
G75*
G02*
X-4026000Y-45593000I0J-500000D01*
G01*
X-4026001Y-58593000D02*
G75*
G02*
X-4526001Y-59093000I-500000J0D01*
G01*
X-17526000Y-59093000D02*
X-4526001Y-59093000D01*
X72174000Y-58593000D02*
X72174000Y-45593000D01*
X53124000Y-58593000D02*
X53124000Y-45593000D01*
X262174001Y-26042999D02*
G75*
G02*
X262674000Y-26543000I-1J-500000D01*
G01*
X1523999Y-59093000D02*
X14524000Y-59093000D01*
X1023999Y-45592999D02*
X1024000Y-58593000D01*
X15024001Y-58592999D02*
G75*
G02*
X14524000Y-59093000I-500001J0D01*
G01*
X1524000Y-59093000D02*
G75*
G02*
X1024000Y-58593000I0J500000D01*
G01*
X110273999Y-58593000D02*
X110273999Y-45593000D01*
X58674000Y-59093000D02*
X71674000Y-59093000D01*
X248674000Y-26543000D02*
G75*
G02*
X249174000Y-26043000I500000J0D01*
G01*
X34074000Y-58593000D02*
G75*
G02*
X33574000Y-59093000I-500000J0D01*
G01*
X96774000Y-59093000D02*
G75*
G02*
X96274000Y-58593000I0J500000D01*
G01*
X20574000Y-59093000D02*
X33574000Y-59093000D01*
X20574000Y-59093000D02*
G75*
G02*
X20074000Y-58593000I0J500000D01*
G01*
X20074000Y-45592999D02*
X20074000Y-58593000D01*
X20074000Y-45593000D02*
G75*
G02*
X20574000Y-45093000I500000J0D01*
G01*
X33574000Y-45093000D02*
X20574000Y-45093000D01*
X191524000Y-26543000D02*
G75*
G02*
X192024000Y-26043000I500000J0D01*
G01*
X192023999Y-40043000D02*
G75*
G02*
X191524000Y-39542999I1J500000D01*
G01*
X224074001Y-26042999D02*
G75*
G02*
X224574000Y-26543000I-1J-500000D01*
G01*
X96774000Y-26043000D02*
X109773999Y-26042999D01*
X211073999Y-40043000D02*
G75*
G02*
X210574000Y-39542999I1J500000D01*
G01*
X134374000Y-39542999D02*
X134374000Y-26543000D01*
X230123999Y-40043000D02*
G75*
G02*
X229624000Y-39542999I1J500000D01*
G01*
X147874001Y-26042999D02*
G75*
G02*
X148374000Y-26543000I-1J-500000D01*
G01*
X96274000Y-39542999D02*
X96274000Y-26543000D01*
X148374000Y-26543000D02*
X148374000Y-39542999D01*
X147874000Y-40043000D02*
X134874000Y-40043000D01*
X129324000Y-26543000D02*
X129324000Y-39542999D01*
X115324000Y-39542999D02*
X115324000Y-26543000D01*
X186474000Y-26543000D02*
X186474000Y-39542999D01*
X211074000Y-26043000D02*
X224074000Y-26042999D01*
X96274000Y-26543000D02*
G75*
G02*
X96774000Y-26043000I500000J0D01*
G01*
X109773999Y-40043000D02*
X96774000Y-40043000D01*
X153424000Y-26543000D02*
G75*
G02*
X153924000Y-26043000I500000J0D01*
G01*
X243124000Y-40043000D02*
X230124000Y-40043000D01*
X185974001Y-26042999D02*
G75*
G02*
X186474000Y-26543000I-1J-500000D01*
G01*
X96773999Y-40043000D02*
G75*
G02*
X96274000Y-39542999I1J500000D01*
G01*
X110273999Y-26543000D02*
X110273999Y-39542999D01*
X128824000Y-40043000D02*
X115824000Y-40043000D01*
X153424000Y-39542999D02*
X153424000Y-26543000D01*
X115823999Y-40043000D02*
G75*
G02*
X115324000Y-39542999I1J500000D01*
G01*
X243624001Y-39542999D02*
G75*
G02*
X243124000Y-40043000I-500001J0D01*
G01*
X229624000Y-26543000D02*
G75*
G02*
X230124000Y-26043000I500000J0D01*
G01*
X166924001Y-26042999D02*
G75*
G02*
X167424000Y-26543000I-1J-500000D01*
G01*
X205524000Y-39543000D02*
G75*
G02*
X205024000Y-40043000I-500000J0D01*
G01*
X134874000Y-26043000D02*
X147874000Y-26042999D01*
X205524000Y-26543000D02*
X205524000Y-39542999D01*
X205024001Y-26042999D02*
G75*
G02*
X205524000Y-26543000I-1J-500000D01*
G01*
X153923999Y-40043000D02*
G75*
G02*
X153424000Y-39542999I1J500000D01*
G01*
X172974000Y-26043000D02*
X185974000Y-26042999D01*
X185974000Y-40043000D02*
X172974000Y-40043000D01*
X172474000Y-26543000D02*
G75*
G02*
X172974000Y-26043000I500000J0D01*
G01*
X134874000Y-40042999D02*
G75*
G02*
X134374000Y-39542999I0J500000D01*
G01*
X148374001Y-39542999D02*
G75*
G02*
X147874000Y-40043000I-500001J0D01*
G01*
X224074000Y-40043000D02*
X211074000Y-40043000D01*
X172474000Y-39542999D02*
X172474000Y-26543000D01*
X109774000Y-26042999D02*
G75*
G02*
X110273999Y-26543000I-1J-500000D01*
G01*
X224574000Y-39543000D02*
G75*
G02*
X224074000Y-40043000I-500000J0D01*
G01*
X115324000Y-26543000D02*
G75*
G02*
X115824000Y-26043000I500000J0D01*
G01*
X230124000Y-26043000D02*
X243124000Y-26042999D01*
X172973999Y-40043000D02*
G75*
G02*
X172474000Y-39542999I1J500000D01*
G01*
X186474001Y-39542999D02*
G75*
G02*
X185974000Y-40043000I-500001J0D01*
G01*
X110274000Y-39542999D02*
G75*
G02*
X109773999Y-40043000I-500001J0D01*
G01*
X129324000Y-39543000D02*
G75*
G02*
X128824000Y-40043000I-500000J0D01*
G01*
X224574000Y-26543000D02*
X224574000Y-39542999D01*
X153924000Y-26043000D02*
X166924000Y-26042999D01*
X210574000Y-39542999D02*
X210574000Y-26543000D01*
X166924000Y-40043000D02*
X153924000Y-40043000D01*
X167424000Y-39543000D02*
G75*
G02*
X166924000Y-40043000I-500000J0D01*
G01*
X243124000Y-26043000D02*
G75*
G02*
X243624000Y-26543000I0J-500000D01*
G01*
X134374000Y-26543000D02*
G75*
G02*
X134874000Y-26043000I500000J0D01*
G01*
X128824001Y-26042999D02*
G75*
G02*
X129324000Y-26543000I-1J-500000D01*
G01*
X115824000Y-26043000D02*
X128824000Y-26042999D01*
X210574000Y-26543000D02*
G75*
G02*
X211074000Y-26043000I500000J0D01*
G01*
X243624000Y-26543000D02*
X243624000Y-39542999D01*
X167424000Y-26543000D02*
X167424000Y-39542999D01*
X205024000Y-40043000D02*
X192024000Y-40043000D01*
X192024000Y-26043000D02*
X205024000Y-26042999D01*
X191524000Y-39542999D02*
X191524000Y-26543000D01*
X229624000Y-39542999D02*
X229624000Y-26543000D01*
X34073999Y-39542999D02*
X34074000Y-26543000D01*
X15024000Y-26543000D02*
X15024000Y-39542999D01*
X14524000Y-26043000D02*
G75*
G02*
X15024000Y-26543000I0J-500000D01*
G01*
X77224000Y-39542999D02*
X77224000Y-26543000D01*
X77723999Y-40043000D02*
G75*
G02*
X77224000Y-39542999I1J500000D01*
G01*
X20074000Y-26543000D02*
X20074000Y-39542999D01*
X-19051000Y-137818000D02*
G75*
G02*
X-20551000Y-136318000I0J1500000D01*
G01*
X90724000Y-40043000D02*
X77724000Y-40043000D01*
X91224001Y-39542999D02*
G75*
G02*
X90724000Y-40043000I-500001J0D01*
G01*
X91224000Y-26543000D02*
X91224000Y-39542999D01*
X90724000Y-26043000D02*
G75*
G02*
X91224000Y-26543000I0J-500000D01*
G01*
X53124000Y-26543000D02*
X53124000Y-39542999D01*
X39624000Y-40042999D02*
G75*
G02*
X39124000Y-39542999I0J500000D01*
G01*
X34074000Y-39543000D02*
G75*
G02*
X33574000Y-40043000I-500000J0D01*
G01*
X20074000Y-26543000D02*
G75*
G02*
X20574000Y-26043000I500000J0D01*
G01*
X20573998Y-40042999D02*
G75*
G02*
X20074000Y-39542999I1J499999D01*
G01*
X303298999Y-136318000D02*
X303298999Y-42592999D01*
X72174000Y-26543000D02*
X72174000Y-39542999D01*
X303299000Y-136318000D02*
G75*
G02*
X301799000Y-137818000I-1500000J0D01*
G01*
X77224000Y-26543000D02*
G75*
G02*
X77724000Y-26043000I500000J0D01*
G01*
X52623999Y-26042999D02*
G75*
G02*
X53124000Y-26543000I0J-500001D01*
G01*
X52624000Y-40043000D02*
X39623999Y-40042999D01*
X265174000Y-23518000D02*
X-1476001Y-23518000D01*
X72174001Y-39542999D02*
G75*
G02*
X71674000Y-40043000I-500001J0D01*
G01*
X39124001Y-26542999D02*
G75*
G02*
X39624000Y-26043000I499999J0D01*
G01*
X20574000Y-40042999D02*
X33574000Y-40043000D01*
X58174000Y-26543000D02*
G75*
G02*
X58674000Y-26043000I500000J0D01*
G01*
X33574000Y-26042999D02*
X20574000Y-26043000D01*
X53124001Y-39542999D02*
G75*
G02*
X52624000Y-40043000I-500001J0D01*
G01*
X33574001Y-26042999D02*
G75*
G02*
X34074000Y-26543000I-1J-500000D01*
G01*
X58674000Y-40042999D02*
G75*
G02*
X58174000Y-39542999I0J500000D01*
G01*
X71674000Y-26043000D02*
G75*
G02*
X72174000Y-26543000I0J-500000D01*
G01*
X-19051000Y-137818000D02*
X301799000Y-137818000D01*
X71674000Y-40043000D02*
X58674000Y-40042999D01*
X-20551000Y-42593000D02*
X-20551000Y-136318000D01*
X58674000Y-26043000D02*
X71674000Y-26042999D01*
X58174000Y-39542999D02*
X58174000Y-26543000D01*
X1524000Y-26043000D02*
X14524000Y-26043000D01*
X1024001Y-26542999D02*
G75*
G02*
X1524000Y-26043000I499999J0D01*
G01*
X77724000Y-26043000D02*
X90724000Y-26042999D01*
X39124000Y-39542999D02*
X39124000Y-26543000D01*
X1024000Y-39542999D02*
X1024000Y-26543000D01*
X1524000Y-40042999D02*
G75*
G02*
X1024000Y-39542999I0J500000D01*
G01*
X14524000Y-40043000D02*
X1523999Y-40042999D01*
X15024000Y-39543000D02*
G75*
G02*
X14524000Y-40043000I-500000J0D01*
G01*
X39624000Y-26043000D02*
X52623999Y-26043000D01*
X119799000Y-77643000D02*
G75*
G02*
X119299000Y-78143000I-500000J0D01*
G01*
X87249000Y-64143000D02*
X100248999Y-64142999D01*
X100748999Y-77642999D02*
G75*
G02*
X100249000Y-78143000I-500000J-1D01*
G01*
X106299000Y-64143000D02*
X119299000Y-64142999D01*
X163449000Y-64143000D02*
X176449000Y-64142999D01*
X182499000Y-78143000D02*
G75*
G02*
X181999000Y-77643000I0J500000D01*
G01*
X195499000Y-64143000D02*
G75*
G02*
X195999000Y-64643000I0J-500000D01*
G01*
X162949000Y-64643000D02*
G75*
G02*
X163449000Y-64143000I500000J0D01*
G01*
X119299000Y-64143000D02*
G75*
G02*
X119799000Y-64643000I0J-500000D01*
G01*
X214549000Y-64143000D02*
G75*
G02*
X215049000Y-64643000I0J-500000D01*
G01*
X162949000Y-77643000D02*
X162949000Y-64643000D01*
X163449000Y-78143000D02*
G75*
G02*
X162949000Y-77643000I0J500000D01*
G01*
X143899000Y-77643000D02*
X143899000Y-64643000D01*
X124849000Y-77643000D02*
X124849000Y-64643000D01*
X68199000Y-64143000D02*
X81199000Y-64142999D01*
X195999000Y-77643000D02*
G75*
G02*
X195499000Y-78143000I-500000J0D01*
G01*
X201049000Y-77643000D02*
X201049000Y-64643000D01*
X201049000Y-64643000D02*
G75*
G02*
X201549000Y-64143000I500000J0D01*
G01*
X138849000Y-77643000D02*
G75*
G02*
X138349000Y-78143000I-500000J0D01*
G01*
X100249000Y-64143000D02*
G75*
G02*
X100749000Y-64643000I0J-500000D01*
G01*
X100249000Y-78143000D02*
X87249000Y-78143000D01*
X201549000Y-64143000D02*
X214549000Y-64142999D01*
X125349000Y-78143000D02*
G75*
G02*
X124849000Y-77643000I0J500000D01*
G01*
X138349000Y-78143000D02*
X125349000Y-78143000D01*
X138349000Y-64143000D02*
G75*
G02*
X138849000Y-64643000I0J-500000D01*
G01*
X105799001Y-64642999D02*
G75*
G02*
X106299000Y-64143000I499999J0D01*
G01*
X106299000Y-78143000D02*
G75*
G02*
X105799000Y-77643000I0J500000D01*
G01*
X81199000Y-78143000D02*
X68199000Y-78143000D01*
X119799000Y-64643000D02*
X119799000Y-77643000D01*
X86749000Y-77643000D02*
X86749000Y-64643000D01*
X195499000Y-78143000D02*
X182499000Y-78143000D01*
X157399000Y-64143000D02*
G75*
G02*
X157899000Y-64643000I0J-500000D01*
G01*
X182499000Y-64143000D02*
X195499000Y-64142999D01*
X195999000Y-64643000D02*
X195999000Y-77643000D01*
X144399000Y-64143000D02*
X157399000Y-64142999D01*
X100749000Y-64643000D02*
X100748999Y-77643000D01*
X215049000Y-64643000D02*
X215049000Y-77643000D01*
X124849001Y-64642999D02*
G75*
G02*
X125349000Y-64143000I499999J0D01*
G01*
X181999000Y-77643000D02*
X181999000Y-64643000D01*
X68199000Y-78143000D02*
G75*
G02*
X67699000Y-77643000I0J500000D01*
G01*
X119299000Y-78143000D02*
X106299000Y-78143000D01*
X86749000Y-64643000D02*
G75*
G02*
X87249000Y-64143000I500000J0D01*
G01*
X81699001Y-77642999D02*
G75*
G02*
X81199000Y-78143000I-500001J0D01*
G01*
X87249000Y-78143000D02*
G75*
G02*
X86749000Y-77643000I0J500000D01*
G01*
X125349000Y-64143000D02*
X138349000Y-64142999D01*
X214549000Y-78143000D02*
X201549000Y-78143000D01*
X215049000Y-77643000D02*
G75*
G02*
X214549000Y-78143000I-500000J0D01*
G01*
X176449000Y-78143000D02*
X163449000Y-78143000D01*
X157399000Y-78143000D02*
X144399000Y-78143000D01*
X105799000Y-77643000D02*
X105799000Y-64643000D01*
X181999000Y-64643000D02*
G75*
G02*
X182499000Y-64143000I500000J0D01*
G01*
X157899000Y-64643000D02*
X157899000Y-77643000D01*
X143899000Y-64643000D02*
G75*
G02*
X144399000Y-64143000I500000J0D01*
G01*
X81199000Y-64143000D02*
G75*
G02*
X81699000Y-64643000I0J-500000D01*
G01*
X176949000Y-77643000D02*
G75*
G02*
X176449000Y-78143000I-500000J0D01*
G01*
X176949000Y-64643000D02*
X176949000Y-77643000D01*
X176449000Y-64143000D02*
G75*
G02*
X176949000Y-64643000I0J-500000D01*
G01*
X144399000Y-78143000D02*
G75*
G02*
X143899000Y-77643000I0J500000D01*
G01*
X157899000Y-77643000D02*
G75*
G02*
X157399000Y-78143000I-500000J0D01*
G01*
X67699000Y-77643000D02*
X67699000Y-64643000D01*
X201549000Y-78143000D02*
G75*
G02*
X201049000Y-77643000I0J500000D01*
G01*
X138849000Y-64643000D02*
X138849000Y-77643000D01*
X81699000Y-64643000D02*
X81699000Y-77643000D01*
X67699000Y-64643000D02*
G75*
G02*
X68199000Y-64143000I500000J0D01*
G01*
M02*
